<svg width="40" height="40" viewBox="0 0 40 40" fill="none" xmlns="http://www.w3.org/2000/svg">
  <g clip-path="url(#clip0_628_29903)">
    <path d="M30.5944 26.1891C30.6612 25.7629 30.3699 25.3631 29.9436 25.2962C29.5174 25.2294 29.1176 25.5207 29.0508 25.947C28.9839 26.3732 29.2752 26.773 29.7015 26.8398C30.1277 26.9067 30.5275 26.6154 30.5944 26.1891Z" fill="currentColor" />
    <path d="M34.1422 34.1422C37.9196 30.3646 40 25.3422 40 20C40 14.6578 37.9196 9.63539 34.1422 5.85781C30.3646 2.08039 25.3422 0 20 0C14.6578 0 9.63539 2.08039 5.85781 5.85781C2.08039 9.63539 0 14.6578 0 20C0 25.3422 2.08039 30.3646 5.85781 34.1422C6.38867 34.673 6.94492 35.1691 7.52242 35.6319C11.0541 38.462 15.4085 40 20 40C24.5915 40 28.9459 38.462 32.4776 35.6318C33.0551 35.1691 33.6113 34.673 34.1422 34.1422ZM13.9726 37.4299V32.0548C13.9726 31.6225 13.6221 31.272 13.1898 31.272C12.7574 31.272 12.407 31.6225 12.407 32.0548V36.8077C11.1339 36.232 9.9257 35.5088 8.80305 34.6469V32.8925C8.80305 30.5948 9.49367 28.387 10.8002 26.508C12.0073 24.7723 13.6562 23.4277 15.5846 22.6004C16.8941 23.3266 18.3995 23.7409 19.9999 23.7409C21.6003 23.7409 23.1055 23.3266 24.415 22.6005C25.3184 22.9888 26.167 23.4941 26.9412 24.1067C27.085 24.2205 27.2563 24.2757 27.4264 24.2757C27.6574 24.2757 27.8863 24.1739 28.0408 23.9787C28.3091 23.6396 28.2517 23.1473 27.9127 22.8791C27.2823 22.3802 26.6085 21.9441 25.8997 21.5739C27.8768 19.8971 29.1341 17.3962 29.1341 14.6068C29.1341 9.57016 25.0365 5.47258 19.9999 5.47258C14.9634 5.47258 10.8658 9.57016 10.8658 14.6068C10.8658 17.3958 12.1227 19.8963 14.0993 21.5732C12.2735 22.5244 10.7053 23.9024 9.51492 25.6144C8.02508 27.757 7.2375 30.2737 7.2375 32.8926V33.3014C7.14602 33.2135 7.05477 33.1252 6.96484 33.0353C3.48305 29.5533 1.56555 24.924 1.56555 20C1.56555 15.076 3.48305 10.4467 6.96492 6.96492C10.4467 3.48305 15.076 1.56555 20 1.56555C24.924 1.56555 29.5533 3.48305 33.0351 6.96492C36.517 10.4467 38.4345 15.076 38.4345 20C38.4345 24.924 36.517 29.5533 33.0351 33.0351C32.9451 33.1251 32.8539 33.2133 32.7624 33.3012V32.8923C32.7624 31.5261 32.5474 30.1811 32.1234 28.8947C31.9881 28.4841 31.5458 28.2609 31.1349 28.3962C30.7244 28.5316 30.5012 28.9741 30.6365 29.3848C31.0083 30.5127 31.1968 31.6929 31.1968 32.8923V34.6467C30.0741 35.5086 28.8659 36.2318 27.5929 36.8076V32.0547C27.5929 31.6223 27.2424 31.2719 26.8101 31.2719C26.3777 31.2719 26.0273 31.6223 26.0273 32.0547V37.4298C24.1138 38.0897 22.0834 38.4343 19.9998 38.4343C17.9163 38.4343 15.886 38.0898 13.9726 37.4299ZM20 22.1752C15.8266 22.1752 12.4314 18.78 12.4314 14.6066C12.4314 10.4333 15.8266 7.03797 20 7.03797C24.1734 7.03797 27.5686 10.4332 27.5686 14.6066C27.5686 18.78 24.1734 22.1752 20 22.1752Z" fill="currentColor" />
    <path d="M22.626 17.4698C21.5992 18.3363 20.4473 18.4299 19.9998 18.4299C18.6563 18.4299 17.7156 17.7584 17.3735 17.4698C17.0431 17.1909 16.5493 17.2328 16.2705 17.5632C15.9917 17.8936 16.0335 18.3874 16.3639 18.6663C16.8375 19.0659 18.1398 19.9955 19.9998 19.9955C20.6195 19.9955 22.2142 19.8659 23.6358 18.6662C23.9662 18.3873 24.008 17.8935 23.7292 17.5631C23.4502 17.2327 22.9563 17.1909 22.626 17.4698Z" fill="currentColor" />
  </g>
  <defs>
    <clipPath id="clip0_628_29903">
      <rect width="40" height="40" fill="white" />
    </clipPath>
  </defs>
</svg>