<svg width="100" height="100" viewBox="0 0 100 100" fill="none" xmlns="http://www.w3.org/2000/svg">
  <g clip-path="url(#clip0_75_5217)">
    <path d="M81.8397 45.434C81.8397 36.5289 75.0823 29.1077 66.2544 28.209C65.1992 23.0138 60.1211 19.6548 54.9262 20.7099C50.473 21.6078 47.2305 25.5526 47.2305 30.123V68.9085C47.2305 74.7285 51.9569 79.4545 57.7773 79.4545C63.0119 79.4545 67.4262 75.6271 68.2075 70.432C73.9105 70.1978 78.3637 65.3542 78.1288 59.6517C78.0898 58.6753 77.8945 57.6988 77.5825 56.7612C80.3558 53.6364 81.8397 49.6138 81.8397 45.434Z" fill="#F75C64" />
    <path d="M12.6602 45.434C12.6602 36.5289 19.4183 29.1077 28.2462 28.209C29.3006 23.0138 34.3788 19.6548 39.5744 20.7099C44.0276 21.6078 47.2694 25.5526 47.2694 30.123V68.9085C47.2694 74.7285 42.543 79.4545 36.7225 79.4545C31.4887 79.4545 27.0744 75.6271 26.2931 70.432C20.5901 70.1978 16.1369 65.3542 16.3711 59.6517C16.41 58.6753 16.6053 57.6988 16.9181 56.7612C14.1448 53.6364 12.6602 49.6138 12.6602 45.434Z" fill="#F75C64" />
    <path d="M82.9723 73.1272C81.879 73.1272 81.0192 73.9862 81.0192 75.0802V85.2356C81.0192 88.165 78.6365 90.5475 75.7068 90.5475H46.7617L48.0503 89.259C48.8315 88.4778 48.8315 87.2664 48.0503 86.4852C48.0114 86.4463 47.9725 86.4463 47.9725 86.4074C47.1912 85.7437 45.9804 85.7826 45.2381 86.5248L40.6681 91.0945C39.9257 91.8757 39.9257 93.0864 40.6681 93.8675L45.2381 98.4379C45.9804 99.1795 47.1523 99.258 47.9336 98.5547C48.7537 97.8521 48.8315 96.6017 48.1289 95.7816C48.09 95.7427 48.09 95.7038 48.0503 95.7038L46.7617 94.4145H76.0196C80.9414 94.4145 84.9254 90.4308 84.9254 85.5087V75.0413C84.9254 73.9862 84.0664 73.1272 82.9723 73.1272Z" fill="#FFAE2C" />
    <path d="M46.4492 10.7498C45.668 11.531 45.668 12.7417 46.4492 13.5229C46.4881 13.5618 46.5278 13.5618 46.5278 13.6007C47.3091 14.2652 48.5198 14.2255 49.2622 13.484L53.8322 8.91357C54.5745 8.13239 54.5745 6.9217 53.8322 6.14051L49.2622 1.57088C48.5198 0.828599 47.348 0.750023 46.5667 1.4534C45.7466 2.15677 45.668 3.40636 46.3714 4.22645C46.4103 4.26536 46.4103 4.30503 46.4492 4.30503L47.7386 5.59353H18.4417C13.52 5.59353 9.53516 9.57804 9.53516 14.4994V24.9668C9.53516 26.0608 10.395 26.9198 11.4883 26.9198C12.5823 26.9198 13.4414 26.0608 13.4414 24.9668V14.8114C13.4414 11.8819 15.8241 9.49946 18.7538 9.49946H47.6997L46.4492 10.7498Z" fill="#60BAE2" />
    <path d="M91.4497 30.8652C89.6919 30.5135 88.3636 29.1853 88.0119 27.4277C88.0119 27.3888 87.973 27.3499 87.934 27.3499C87.8944 27.3499 87.8944 27.3888 87.8555 27.4277C87.5038 29.1853 86.1762 30.5135 84.4184 30.8652C84.3788 30.8652 84.3398 30.9041 84.3398 30.943C84.3398 30.9819 84.3788 30.9819 84.4184 31.0208C86.1762 31.3725 87.5038 32.7007 87.8555 34.4583C87.8555 34.4973 87.8944 34.5362 87.934 34.5362C87.973 34.5362 87.973 34.4973 88.0119 34.4583C88.3636 32.7007 89.6919 31.3725 91.4497 31.0208C91.4886 31.0208 91.5275 30.9819 91.4886 30.943C91.4886 30.9041 91.4497 30.8652 91.4497 30.8652Z" fill="#F75C64" />
    <path d="M20.082 80.3142H23.4809C24.0272 80.3142 24.4575 80.7437 24.4575 81.2907C24.4575 81.8377 24.0272 82.2672 23.4809 82.2672H20.082C19.535 82.2672 19.1055 81.8377 19.1055 81.2907C19.1055 80.7437 19.535 80.3142 20.082 80.3142Z" fill="#FCD770" />
    <path d="M21.801 78.5955C22.348 78.5955 22.7775 79.025 22.7775 79.5719V82.9698C22.7775 83.5168 22.348 83.9463 21.801 83.9463C21.254 83.9463 20.8245 83.5168 20.8245 82.9698V79.5719C20.7856 79.025 21.254 78.5955 21.801 78.5955C21.7621 78.5955 21.7621 78.5955 21.801 78.5955Z" fill="#FCD770" />
    <path d="M66.2544 8.79672H62.8555C62.3084 8.79672 61.8789 8.36645 61.8789 7.82023C61.8789 7.27325 62.3084 6.84375 62.8555 6.84375H66.2544C66.8006 6.84375 67.2309 7.27325 67.2309 7.82023C67.2309 8.36645 66.8006 8.79672 66.2544 8.79672Z" fill="#60BAE2" />
    <path d="M64.5351 10.4758C63.9881 10.4758 63.5586 10.0463 63.5586 9.49934V6.10148C63.5586 5.5545 63.9881 5.125 64.5351 5.125C65.0821 5.125 65.5116 5.5545 65.5116 6.10148V9.49934C65.5116 10.0463 65.0821 10.4758 64.5351 10.4758Z" fill="#60BAE2" />
    <path d="M11.0971 70.9788C11.371 70.9788 11.6052 71.0962 11.8005 71.2519C11.8394 71.2915 11.8783 71.3304 11.9172 71.4083C11.9569 71.4472 11.9958 71.5257 11.9958 71.5646C12.0347 71.6425 12.0347 71.6821 12.0347 71.7599C12.0347 71.8378 12.0736 71.8774 12.0347 71.9552V72.1505C12.0347 72.2284 11.9958 72.268 11.9958 72.3458C11.9569 72.4236 11.9569 72.4633 11.9172 72.5022C11.8783 72.5411 11.8394 72.6189 11.8005 72.6586C11.5266 72.9317 11.0971 73.0095 10.7454 72.8539C10.7065 72.8142 10.6287 72.8142 10.5898 72.7753C10.5501 72.7364 10.4723 72.6975 10.4334 72.6586C10.3945 72.6189 10.3548 72.58 10.3159 72.5022C10.277 72.4633 10.2381 72.3847 10.2381 72.3458C10.1992 72.3069 10.1992 72.2284 10.1992 72.1505C10.1992 72.0727 10.1992 72.0331 10.1992 71.9552C10.1992 71.8774 10.1992 71.8378 10.1992 71.7599C10.1992 71.6821 10.2381 71.6425 10.2381 71.5646C10.277 71.4868 10.277 71.4472 10.3159 71.4083C10.3548 71.3694 10.3945 71.2915 10.4334 71.2519C10.4723 71.213 10.5112 71.1741 10.5898 71.1351C10.6287 71.0962 10.7065 71.0566 10.7454 71.0566C10.824 71.0177 10.8629 71.0177 10.9407 71.0177C10.9804 70.9788 11.0582 70.9788 11.0971 70.9788Z" fill="#60BAE2" />
    <path d="M77.5821 21.803C77.8552 21.803 78.0894 21.9205 78.2847 22.0769C78.3236 22.1158 78.3633 22.1547 78.4022 22.2325C78.4411 22.2721 78.48 22.35 78.48 22.3889C78.5189 22.4674 78.5189 22.5064 78.5189 22.5842C78.5189 22.6627 78.5586 22.7016 78.5586 22.7795C78.5586 22.858 78.5586 22.8969 78.5189 22.9748C78.5189 23.0533 78.48 23.0922 78.48 23.1701C78.4411 23.2486 78.4411 23.2875 78.4022 23.3264C78.3633 23.3654 78.3236 23.4439 78.2847 23.4828C78.0116 23.7559 77.5821 23.8345 77.2304 23.6781C77.1915 23.6392 77.1129 23.6392 77.074 23.5996C77.0351 23.5606 76.9565 23.5217 76.9176 23.4828C76.8787 23.4439 76.8398 23.4043 76.8009 23.3264C76.7613 23.2875 76.7223 23.209 76.7223 23.1701C76.6834 23.1311 76.6834 23.0533 76.6834 22.9748C76.6834 22.8969 76.6834 22.858 76.6445 22.7795C76.6445 22.7016 76.6445 22.6627 76.6834 22.5842C76.6834 22.5064 76.7223 22.4674 76.7223 22.3889C76.7613 22.3111 76.7613 22.2721 76.8009 22.2325C76.8398 22.1936 76.8787 22.1158 76.9176 22.0769C76.9565 22.0372 76.9962 21.9983 77.074 21.9594C77.1129 21.9205 77.1915 21.8816 77.2304 21.8816C77.3082 21.8419 77.3471 21.8419 77.4257 21.8419C77.4646 21.803 77.5424 21.803 77.5821 21.803Z" fill="#6DCC6D" />
    <path d="M57.7773 80.4309C51.4106 80.4309 46.2928 75.2753 46.2539 68.9084V30.1618C46.2539 24.3029 50.9803 19.5769 56.8397 19.5769C61.6058 19.5769 65.7852 22.7406 67.0356 27.3499C77.0355 28.7169 84.0278 37.9348 82.6209 47.9338C82.1525 51.2539 80.7853 54.4175 78.6369 57.0349C80.3558 63.0495 76.8401 69.3386 70.8244 71.0177C70.2384 71.1741 69.6136 71.2916 68.9887 71.3694C67.8558 76.6424 63.1683 80.4309 57.7773 80.4309ZM56.8397 21.5299C52.0744 21.5299 48.207 25.3969 48.207 30.1618V68.948C48.207 74.2211 52.5039 78.5176 57.7773 78.4779C62.5038 78.4779 66.5275 75.0022 67.2309 70.3151C67.3087 69.8459 67.6994 69.4943 68.1678 69.4943C73.3634 69.2601 77.3872 64.8857 77.1522 59.7294C77.1133 58.8315 76.9569 57.9718 76.6837 57.1128C76.5663 56.8 76.6448 56.4094 76.8791 56.1752C82.8163 49.3787 82.0747 39.0677 75.2776 33.1691C72.7386 30.943 69.535 29.5759 66.1758 29.2243C65.7462 29.1853 65.3945 28.8726 65.3167 28.4431C64.4569 24.4204 60.9413 21.5299 56.8397 21.5299Z" fill="#231F20" />
    <path d="M65.4335 34.4194C64.8873 34.4194 64.457 33.9899 64.457 33.4429C64.457 33.2865 64.4967 33.1301 64.5745 33.0134C65.551 31.0604 65.2779 28.3263 65.2779 28.3263C65.2382 27.7793 65.6288 27.3101 66.1369 27.2712C66.6839 27.2323 67.1523 27.6229 67.1912 28.131C67.1912 28.2477 67.504 31.4114 66.2933 33.9113C66.1758 34.2241 65.8241 34.4194 65.4335 34.4194Z" fill="#231F20" />
    <path d="M66.3319 36.7631C65.7849 36.7631 65.3553 36.3336 65.3553 35.7866C65.3553 34.5759 64.3788 33.5994 63.168 33.5994C62.6209 33.5994 62.1914 33.1692 62.1914 32.623C62.1914 32.076 62.6209 31.6465 63.168 31.6465C65.4728 31.6465 67.3084 33.5209 67.3084 35.7866C67.3084 36.2939 66.8789 36.7631 66.3319 36.7631Z" fill="#231F20" />
    <path d="M77.5822 57.7766C77.1519 57.7766 76.7613 57.5035 76.6446 57.074C75.5116 53.48 72.9336 52.113 72.8947 52.113C72.4255 51.8788 72.2302 51.2929 72.4644 50.7856C72.6994 50.3164 73.2854 50.1211 73.7538 50.3553C73.8713 50.4339 77.113 52.0741 78.4802 56.4492C78.6366 56.9565 78.3635 57.5035 77.8554 57.6598C77.7775 57.7377 77.699 57.7766 77.5822 57.7766Z" fill="#231F20" />
    <path d="M67.5051 71.4472C66.4507 71.4472 65.3955 71.3305 64.3411 71.1352C63.7941 71.0177 63.4813 70.5104 63.5988 69.9634C63.7163 69.4164 64.2237 69.1036 64.7707 69.2211C65.8647 69.4553 67.0366 69.5339 68.1688 69.4553C68.7158 69.4164 69.185 69.807 69.224 70.354C69.2629 70.901 68.8722 71.3694 68.3252 71.4083H68.2863C68.2474 71.4472 67.9346 71.4472 67.5051 71.4472Z" fill="#231F20" />
    <path d="M60.9023 72.9318C60.3553 72.9318 59.9258 72.5023 59.9258 71.9553C59.9258 71.4083 60.3553 70.9788 60.9023 70.9788C62.6212 70.9788 63.9884 69.5728 63.9884 67.893C63.9884 67.6199 63.9495 67.346 63.8709 67.1118C63.7153 66.6045 64.0273 66.0575 64.5744 65.9011C65.0825 65.7447 65.6288 66.0575 65.7852 66.6045C66.5275 69.299 64.9261 72.0728 62.2306 72.7754C61.7622 72.854 61.3319 72.9318 60.9023 72.9318Z" fill="#0E0806" />
    <path d="M36.7232 80.4308C31.333 80.3919 26.6455 76.6423 25.4736 71.3693C19.2625 70.666 14.7704 65.0809 15.4738 58.8314C15.5516 58.2066 15.6691 57.5811 15.8247 56.9952C9.4191 49.223 10.5513 37.7005 18.3638 31.2946C20.9814 29.1463 24.1064 27.7793 27.4657 27.3101C29.0282 21.6862 34.8486 18.3661 40.4738 19.9285C45.0827 21.1781 48.2466 25.3571 48.2466 30.1228V68.9083C48.2077 75.2752 43.0518 80.4308 36.7232 80.4308ZM37.6608 21.5298C33.5593 21.5298 30.0436 24.4203 29.2235 28.443C29.1457 28.8725 28.7939 29.1853 28.3644 29.2242C19.38 30.0839 12.8172 38.0911 13.716 47.0351C14.0669 50.3948 15.4341 53.5973 17.6611 56.1362C17.8954 56.4093 17.9732 56.761 17.8564 57.0738C16.2154 61.9951 18.833 67.307 23.7547 68.9869C24.6138 69.26 25.4736 69.4164 26.3716 69.4553C26.8408 69.4553 27.2314 69.8069 27.3093 70.2754C28.0905 75.5095 32.9344 79.1034 38.1689 78.3611C42.8564 77.6577 46.3332 73.6351 46.3332 68.9083V30.1617C46.2546 25.3968 42.3872 21.5298 37.6608 21.5298Z" fill="#0E0806" />
    <path d="M29.0283 34.4194C28.6377 34.4194 28.3249 34.2241 28.1693 33.8724C26.9579 31.4113 27.2706 28.2477 27.2706 28.0913C27.3096 27.5451 27.8176 27.1545 28.3249 27.2323C28.8719 27.2712 29.2625 27.7793 29.1847 28.2866C29.1847 28.3263 28.9505 31.0207 29.8873 32.9737C30.1223 33.4429 29.927 34.0288 29.4578 34.263C29.3411 34.3805 29.1847 34.4194 29.0283 34.4194Z" fill="#0E0806" />
    <path d="M28.168 36.7631C27.6209 36.7631 27.1914 36.3336 27.1914 35.7866C27.1914 33.482 29.0659 31.6465 31.3319 31.6465C31.8789 31.6465 32.3084 32.076 32.3084 32.623C32.3084 33.1692 31.8789 33.5994 31.3319 33.5994C30.1211 33.5994 29.1445 34.5759 29.1445 35.7866C29.1445 36.2939 28.7142 36.7631 28.168 36.7631Z" fill="#0E0806" />
    <path d="M16.9191 57.7764C16.8016 57.7764 16.7237 57.7764 16.6062 57.7375C16.0989 57.5811 15.825 57.0349 15.9814 56.5268C17.3486 52.1524 20.5522 50.4726 20.7078 50.4337C21.177 50.1995 21.763 50.3948 22.0361 50.8632C22.2703 51.3316 22.075 51.9175 21.6066 52.1914C21.4891 52.2692 18.9897 53.5973 17.8567 57.1516C17.7003 57.5033 17.3097 57.7764 16.9191 57.7764Z" fill="#231F20" />
    <path d="M26.9971 71.4473C26.5279 71.4473 26.2548 71.4084 26.2159 71.4084C25.6688 71.3695 25.2782 70.9011 25.3171 70.3541C25.356 69.846 25.8252 69.4554 26.3326 69.4554C27.4656 69.4943 28.5985 69.4165 29.7315 69.2212C30.2778 69.1037 30.7859 69.4554 30.9034 69.9635C31.0201 70.5105 30.6684 71.0178 30.161 71.1353C29.1059 71.3695 28.0515 71.4473 26.9971 71.4473Z" fill="#231F20" />
    <path d="M33.597 72.9318C30.8238 72.9318 28.5586 70.6661 28.5586 67.893C28.5586 67.4635 28.5975 66.9951 28.7142 66.6045C28.8706 66.0965 29.3788 65.7837 29.9258 65.9012C30.472 66.0186 30.7459 66.5649 30.6284 67.1118C30.1989 68.7528 31.1755 70.4708 32.8158 70.9011C33.0897 70.9789 33.3628 71.0178 33.597 71.0178C34.1441 71.0178 34.5736 71.4473 34.5736 71.9943C34.5736 72.5412 34.1441 72.9318 33.597 72.9318Z" fill="#231F20" />
    <path d="M46.6834 100C45.8632 100 45.1209 99.6875 44.535 99.1017L39.965 94.532C38.832 93.3991 38.832 91.5629 39.965 90.3911L44.535 85.8215C45.629 84.6886 47.3868 84.6108 48.5976 85.6651C49.2225 86.2121 49.5742 86.9544 49.5742 87.7745C49.5742 88.3993 49.4178 89.024 49.0668 89.5321H75.7461C78.1287 89.5321 80.0818 87.5792 80.0818 85.1967V75.0413C80.0818 73.44 81.4101 72.1118 83.0115 72.1118C84.6137 72.1118 85.9412 73.44 85.9412 75.0413V85.5484C85.9412 90.977 81.5276 95.391 76.0589 95.4299H49.0668C49.4178 95.938 49.6131 96.5628 49.5742 97.1876C49.5353 98.0077 49.1836 98.75 48.5587 99.297C48.0506 99.7654 47.3868 100 46.6834 100ZM41.3711 91.7979C40.9804 92.1885 40.9804 92.8133 41.3711 93.1649L45.9418 97.7346C46.2928 98.1252 46.9184 98.1641 47.309 97.8124C47.6996 97.4615 47.7385 96.8359 47.3868 96.4453L47.3479 96.4064L46.0586 95.1179C45.6679 94.7273 45.6679 94.1018 46.0586 93.7508C46.2539 93.5555 46.4881 93.477 46.762 93.477H76.02C80.3946 93.477 83.9492 89.9227 83.9492 85.5484V75.0802C83.9492 74.5332 83.5196 74.1037 82.9726 74.1037C82.4256 74.1037 81.9961 74.5332 81.9961 75.0802V85.2356C81.9961 88.712 79.1839 91.524 75.7071 91.524H46.762C46.215 91.524 45.7854 91.0945 45.7854 90.5475C45.7854 90.2744 45.9022 90.0402 46.0586 89.8449L47.3479 88.5556C47.7385 88.165 47.7385 87.5403 47.3479 87.1886L47.309 87.1497C46.8787 86.8369 46.2928 86.8758 45.9418 87.2275L41.3711 91.7979Z" fill="#231F20" />
    <path d="M11.5273 27.8572C9.92593 27.8572 8.59766 26.529 8.59766 24.9277V14.4603C8.59766 9.0309 13.012 4.61689 18.4808 4.57799H45.4728C45.1211 4.06991 44.9258 3.44511 44.9655 2.82032C45.0044 2.00022 45.3561 1.25794 45.9809 0.71096C47.1528 -0.30443 48.9495 -0.226616 50.0436 0.906256L54.4961 5.47665C55.6291 6.60876 55.6291 8.48392 54.4961 9.61679L49.9261 14.1864C48.832 15.3193 47.0742 15.3971 45.8634 14.3428C45.2386 13.7958 44.8869 13.0536 44.8869 12.2335C44.8869 11.6087 45.0433 10.9839 45.395 10.4758H18.7539C16.3712 10.4758 14.4181 12.4288 14.4181 14.8112V24.9666C14.457 26.529 13.1295 27.8572 11.5273 27.8572ZM18.4419 6.56986C14.0664 6.56986 10.5119 10.1241 10.5119 14.4992V24.9666C10.5119 25.5136 10.9414 25.9431 11.4884 25.9431C12.0355 25.9431 12.465 25.5136 12.465 24.9666V14.8112C12.465 11.3356 15.278 8.52282 18.7539 8.52282H47.6998C48.2461 8.52282 48.6764 8.95232 48.6764 9.49931C48.6764 9.77318 48.5589 10.0074 48.4025 10.2027L47.1139 11.4912C46.7233 11.8818 46.7233 12.5073 47.1139 12.8583L47.1528 12.8979C47.5823 13.2099 48.1683 13.171 48.52 12.8193L53.1289 8.21081C53.5195 7.82021 53.5195 7.19465 53.1289 6.84373L48.5589 2.27333C48.2072 1.88274 47.5823 1.84383 47.1917 2.19552C46.8011 2.54721 46.7622 3.172 47.1139 3.5626L47.1528 3.6015L48.4414 4.89076C48.832 5.28136 48.832 5.90616 48.4414 6.25784C48.2461 6.45314 48.0119 6.53095 47.7387 6.53095L18.4419 6.56986Z" fill="#231F20" />
  </g>
  <defs>
    <clipPath id="clip0_75_5217">
      <rect width="100" height="100" fill="white" />
    </clipPath>
  </defs>
</svg>