<svg width="100" height="100" viewBox="0 0 100 100" fill="none" xmlns="http://www.w3.org/2000/svg">
  <g clip-path="url(#clip0_75_5238)">
    <path d="M47.6865 31.2684L41.9394 50.4897L57.3716 32.2342L60.8087 28.1674L66.2115 21.7756H52.1642L58.1406 1.95361L39.1935 24.3686L33.791 30.7598H47.8386L47.6865 31.2684Z" fill="#FFA14D" />
    <path d="M57.3707 32.2341L41.9385 50.4896L47.6856 31.2683C36.2754 32.0435 26.5186 39.4294 22.8284 51.7835C21.103 57.5577 23.3427 67.955 24.3512 73.3268H31.2479C31.2479 68.9384 34.8059 65.38 39.1944 65.38C40.7514 65.38 42.2037 65.8274 43.4295 66.6018C50.2742 63.6429 57.6623 59.6835 63.2174 54.7188C63.2174 54.7188 68.3588 62.4925 76.4816 65.2235C77.1914 60.4772 77.6013 55.2815 76.5564 51.7835C73.4947 41.5361 66.2603 34.7072 57.3707 32.2341Z" fill="#8E6A5C" />
    <path d="M47.1416 73.3267C47.1416 70.4951 45.6597 68.0084 43.4297 66.6018C42.2041 65.8273 40.7515 65.3799 39.1945 65.3799C34.806 65.3799 31.248 68.9383 31.248 73.3267C31.248 77.7152 34.806 81.2732 39.1945 81.2732C43.5836 81.273 47.1416 77.715 47.1416 73.3267Z" fill="#A6D3FF" />
    <path d="M60.1908 81.2737C64.5796 81.2737 68.1375 77.7159 68.1375 73.327C68.1375 68.9382 64.5796 65.3804 60.1908 65.3804C55.802 65.3804 52.2441 68.9382 52.2441 73.327C52.2441 77.7159 55.802 81.2737 60.1908 81.2737Z" fill="#A6D3FF" />
    <path d="M52.2439 73.3268C52.2439 68.9383 55.8015 65.3799 60.1906 65.3799C64.5795 65.3799 68.1371 68.9383 68.1371 73.3268H75.0337C75.4312 71.2096 76.0203 68.3119 76.4818 65.2237C68.3587 62.4924 63.2175 54.719 63.2175 54.719C57.6627 59.6838 50.2744 63.6428 43.4297 66.602C45.6598 68.0084 47.1416 70.4953 47.1416 73.327H52.2443V73.3268H52.2439Z" fill="#FCC8A4" />
    <path d="M60.1909 81.2731C55.8019 81.2731 52.2443 77.7151 52.2443 73.3267H47.1414C47.1414 77.7151 43.5834 81.2731 39.1943 81.2731C34.8058 81.2731 31.2478 77.7151 31.2478 73.3267H24.3516C24.458 73.8938 24.551 74.4058 24.624 74.8491C27.0986 89.8772 29.0512 88.9866 37.0685 94.4249C45.4259 99.2497 53.9417 99.2592 62.3161 94.4241C70.3335 88.9866 72.286 89.8774 74.7601 74.8491C74.8331 74.4058 74.9263 73.8938 75.0331 73.3267H68.1366C68.1372 77.7151 64.5798 81.2731 60.1909 81.2731Z" fill="#FCC8A4" />
    <path d="M60.7208 31.2965L67.7032 23.0366C68.1942 22.4559 68.3034 21.6431 67.9835 20.9534C67.6633 20.2638 66.9721 19.8224 66.2118 19.8224H54.7925L60.0104 2.51711C60.2776 1.63098 59.8856 0.678444 59.0719 0.236648C58.2579 -0.205539 57.2462 -0.0147191 56.6487 0.692506L32.2989 29.4989C31.8081 30.0796 31.6988 30.8924 32.0187 31.5821C32.3388 32.2717 33.03 32.7128 33.7904 32.7128H35.5997C34.0288 33.5524 32.5347 34.5362 31.1368 35.6629C26.3708 39.5047 22.8509 44.8856 20.9576 51.2241C19.2332 56.9965 21.0019 66.2186 22.1726 72.3215C22.2671 72.8154 22.3558 73.2781 22.4367 73.7078C22.4378 73.7139 22.4388 73.7203 22.4402 73.7265C22.5414 74.2652 22.6292 74.75 22.6976 75.1666C24.8785 88.4111 26.7831 90.1501 33.0534 94.1392C33.9191 94.6896 34.8997 95.3134 35.9728 96.0412L36.0925 96.1163C40.5546 98.6923 45.1278 99.999 49.686 100C49.6884 100 49.6899 100 49.6921 100C54.2526 100 58.8288 98.6933 63.2932 96.1156L63.4128 96.0408C64.486 95.3128 65.4667 94.6892 66.3319 94.1388C72.6024 90.1505 74.5075 88.4111 76.6877 75.1666C76.7563 74.75 76.8444 74.2656 76.9451 73.7273C76.9465 73.7205 76.9477 73.7133 76.9493 73.706C77.0297 73.2777 77.118 72.8164 77.2125 72.3236C78.3832 66.2209 80.1526 56.9983 78.428 51.2244C75.5948 41.7411 69.2217 34.6215 60.7208 31.2965ZM69.8958 71.3736C68.9864 66.8471 64.9805 63.4268 60.1907 63.4268C55.4007 63.4268 51.395 66.8471 50.4856 71.3736H48.9003C48.5856 69.8076 47.8993 68.3756 46.9392 67.1705C53.3557 64.1984 58.7085 60.9742 62.9042 57.5527C64.8424 59.9414 68.8278 64.1658 74.3055 66.4832C74.0116 68.2627 73.6926 69.9385 73.4174 71.3736H69.8958ZM66.184 73.3318C66.1811 76.6342 63.4936 79.3201 60.1903 79.3201C56.8854 79.3201 54.1968 76.6314 54.1968 73.3267C54.1968 70.0217 56.8854 67.333 60.1903 67.333C63.4934 67.333 66.1811 70.0189 66.184 73.3217C66.184 73.3217 66.1836 73.3248 66.1836 73.3265C66.1836 73.3283 66.184 73.3297 66.184 73.3318ZM45.1882 73.3267C45.1882 76.6314 42.4995 79.3201 39.1946 79.3201C35.89 79.3201 33.2013 76.6314 33.2013 73.3267C33.2013 70.0217 35.89 67.333 39.1946 67.333C42.4995 67.3332 45.1882 70.0219 45.1882 73.3267ZM53.5507 10.4083L50.2933 21.2116C50.1149 21.8032 50.2268 22.4446 50.5954 22.9405C50.964 23.4364 51.5452 23.7286 52.1632 23.7286H62.003L46.4927 42.077L49.7093 31.3194C49.8858 30.7282 49.7729 30.088 49.4044 29.5932C49.0358 29.0985 48.455 28.8067 47.8378 28.8067H37.9986L53.5507 10.4083ZM24.7001 52.3424C27.7091 42.2688 35.3353 35.2913 44.9593 33.5702L40.0675 49.9305C39.8026 50.8166 40.1954 51.7672 41.0091 52.2074C41.3025 52.3662 41.6218 52.4432 41.9378 52.4432C42.498 52.4432 43.0487 52.2022 43.4304 51.7508L58.0301 34.4795C66.0319 37.1315 72.0661 43.5762 74.6844 52.3424C75.4569 54.9283 75.3288 58.6897 74.884 62.4537C68.7825 59.4711 64.8878 53.7041 64.8462 53.6416C64.5329 53.1682 64.0297 52.8547 63.4672 52.7819C62.9048 52.7106 62.3385 52.8848 61.9155 53.2629C57.452 57.252 51.2647 61.0045 43.5237 64.426C42.2153 63.7867 40.7462 63.427 39.1944 63.427C34.4044 63.427 30.3991 66.8473 29.4898 71.3738H25.9677C24.932 65.9713 23.2677 57.1365 24.7001 52.3424ZM64.2352 90.8427C63.3631 91.3974 62.3766 92.0249 61.2798 92.7673C53.5903 97.1839 45.7948 97.1839 38.1052 92.7681C37.0085 92.0253 36.022 91.3978 35.1495 90.8433C29.9253 87.5199 28.6003 86.6753 26.6763 75.2799H29.4898C30.3991 79.806 34.4046 83.2263 39.1944 83.2263C43.9843 83.2263 47.9901 79.806 48.8995 75.2799H50.4849C51.3942 79.806 55.4001 83.2263 60.1899 83.2263C64.9799 83.2263 68.9856 79.806 69.895 75.2799H72.7075C70.7844 86.6753 69.4594 87.5199 64.2352 90.8427Z" fill="#000001" />
    <path d="M16.4414 26.2221C16.4414 20.3395 17.9961 14.5371 20.9377 9.44222C21.4771 8.50804 21.157 7.3137 20.2228 6.77425C19.289 6.23519 18.0943 6.55531 17.5549 7.4891C14.2709 13.1768 12.5352 19.6547 12.5352 26.2221C12.5352 31.4959 13.6211 36.6135 15.7621 41.4338C16.0855 42.1621 16.7998 42.5945 17.5482 42.5945C17.8131 42.5945 18.0822 42.54 18.3402 42.4256C19.326 41.9877 19.7699 40.8338 19.332 39.848C17.4141 35.5303 16.4414 30.9457 16.4414 26.2221Z" fill="#000001" />
    <path d="M23.2318 31.1925C22.188 31.4649 21.5628 32.5317 21.8353 33.5755L21.8818 33.7516C22.114 34.6264 22.904 35.2044 23.7683 35.2044C23.9341 35.2044 24.1027 35.1831 24.2704 35.1384C25.313 34.8618 25.9341 33.7921 25.6574 32.7497L25.6148 32.5891C25.3423 31.545 24.2751 30.9208 23.2318 31.1925Z" fill="#000001" />
    <path d="M74.3462 32.7449C74.0669 33.7871 74.6853 34.8578 75.7272 35.1371C75.8966 35.1824 76.0665 35.2043 76.2339 35.2043C77.0964 35.2043 77.8856 34.6287 78.1192 33.7558C80.1317 26.2451 79.0991 18.4008 75.2112 11.6666C74.6718 10.7324 73.4772 10.4123 72.5433 10.9518C71.6093 11.4912 71.289 12.6855 71.8284 13.6197C75.1944 19.4502 76.0886 26.242 74.3462 32.7449Z" fill="#000001" />
    <path d="M20.9269 27.6684C20.979 28.7129 21.8419 29.5246 22.8759 29.5246C22.9087 29.5246 22.9415 29.5239 22.9747 29.5219C24.0521 29.4686 24.882 28.5514 24.8282 27.4743C24.5865 22.6204 25.7433 17.8297 28.1737 13.6198C28.7132 12.6856 28.3931 11.4913 27.4589 10.9518C26.5247 10.4128 25.3306 10.7325 24.7909 11.6667C21.9839 16.529 20.6478 22.0625 20.9269 27.6684Z" fill="#000001" />
    <path d="M84.9205 12.6494C84.5296 11.644 83.3972 11.1461 82.3925 11.5367C81.3871 11.9277 80.889 13.0596 81.2798 14.065C82.7927 17.9557 83.5595 22.0457 83.5595 26.2219C83.5595 31.142 82.4494 36.0949 80.3494 40.5455C79.889 41.5209 80.3066 42.6847 81.282 43.1453C81.5513 43.2722 81.8349 43.3326 82.1142 43.3326C82.8464 43.3326 83.5488 42.9187 83.8818 42.2127C86.2265 37.2443 87.4658 31.7152 87.4658 26.2221C87.4658 21.5598 86.6095 16.9932 84.9205 12.6494Z" fill="#000001" />
    <path d="M81.7524 10.1981C82.6876 9.66061 83.0063 8.46081 82.4686 7.52546L82.4495 7.49186C81.9116 6.5569 80.721 6.2403 79.786 6.77819C78.8509 7.31608 78.5321 8.51569 79.0696 9.45084L79.0889 9.48444C79.4493 10.1112 80.1028 10.4602 80.7764 10.4602C81.1079 10.4602 81.444 10.3755 81.7524 10.1981Z" fill="#000001" />
  </g>
  <defs>
    <clipPath id="clip0_75_5238">
      <rect width="100" height="100" fill="white" />
    </clipPath>
  </defs>
</svg>