<svg width="100" height="100" viewBox="0 0 100 100" fill="none" xmlns="http://www.w3.org/2000/svg">
  <g clip-path="url(#clip0_75_5272)">
    <path d="M63.9498 79.9998H90.1845L82.7779 63.3333H61.4814L63.9498 79.9998Z" fill="#93CAE2" />
    <path d="M82.7781 63.3332L78.3332 53.3333H60L61.4817 63.3332H82.7781Z" fill="#06AAE9" />
    <path d="M66.6668 98.3329H98.3332L90.185 79.9998H63.9502L66.6668 98.3329Z" fill="#06AAE9" />
    <path d="M38.1482 63.3333L35.0615 79.9998H63.9496L61.4813 63.3333H38.1482Z" fill="#FBCC34" />
    <path d="M38.1485 63.3333H17.222L9.81543 79.9998H35.0619L38.1485 63.3333Z" fill="#93CAE2" />
    <path d="M9.81526 79.9998L1.66699 98.3329H31.6667L35.0617 79.9998H9.81526Z" fill="#06AAE9" />
    <path d="M63.9501 79.9998H35.062L31.667 98.3329H66.6667L63.9501 79.9998Z" fill="#93CAE2" />
    <path d="M61.4816 63.3332L59.9999 53.3333H40.0001L38.1484 63.3332H61.4816Z" fill="#93CAE2" />
    <path d="M39.9998 53.3333H21.6666L17.2217 63.3332H38.1482L39.9998 53.3333Z" fill="#06AAE9" />
    <path d="M56.667 21.6669H63.3336C63.3336 19.3248 62.713 17.0246 61.5353 15.0002H56.667V21.6669Z" fill="#999999" />
    <path d="M50.0006 15.0004V8.33374C47.6585 8.33374 45.3583 8.95436 43.334 10.1321V15.0004H50.0006Z" fill="#E6E6E6" />
    <path d="M56.6666 15.0004V10.1321C54.6423 8.95436 52.3421 8.33374 50 8.33374V15.0004H56.6666Z" fill="#999999" />
    <path d="M61.5353 15.0004C60.3645 12.9812 58.6861 11.3029 56.667 10.1321V15.0004H61.5353Z" fill="#E6E6E6" />
    <path d="M43.334 21.667H50.0006V28.3336H43.334V21.667Z" fill="#E6E6E6" />
    <path d="M50 21.667H56.6666V28.3336H50V21.667Z" fill="#999999" />
    <path d="M50 15.0002H56.6666V21.6669H50V15.0002Z" fill="#E6E6E6" />
    <path d="M43.333 15.0005H49.9996V21.6671H43.333V15.0005Z" fill="#999999" />
    <path d="M43.3331 10.1321C41.314 11.3029 39.6357 12.9812 38.4648 15.0004H43.3331V10.1321Z" fill="#999999" />
    <path d="M50 28.3335V35.0001C52.3421 35.0001 54.6423 34.3795 56.6666 33.2018V28.3335H50Z" fill="#E6E6E6" />
    <path d="M43.334 28.3335V33.2018C45.3583 34.3795 47.6585 35.0001 50.0006 35.0001V28.3335H43.334Z" fill="#999999" />
    <path d="M56.667 21.667V28.3336H61.5353C62.713 26.3092 63.3336 24.0091 63.3336 21.667H56.667Z" fill="#E6E6E6" />
    <path d="M56.667 33.2018C58.6861 32.031 60.3645 30.3526 61.5353 28.3335H56.667V33.2018Z" fill="#999999" />
    <path d="M43.3336 15.0002H38.4653C37.2876 17.0246 36.667 19.3248 36.667 21.6669H43.3336V15.0002Z" fill="#E6E6E6" />
    <path d="M38.4648 28.3335C39.6357 30.3526 41.314 32.031 43.3331 33.2018V28.3335H38.4648Z" fill="#E6E6E6" />
    <path d="M43.3336 21.667H36.667C36.667 24.0091 37.2876 26.3092 38.4653 28.3336H43.3336V21.667Z" fill="#999999" />
    <path d="M79.8567 52.6567C79.5892 52.0547 78.9921 51.6667 78.3333 51.6667H21.6671C21.0084 51.6667 20.4113 52.0547 20.1438 52.6567L0.143983 97.6564C-0.229764 98.4976 0.149192 99.4824 0.990435 99.8561C1.20356 99.9507 1.43418 99.9997 1.6673 99.9997H98.3332C99.2536 99.9999 99.9998 99.2536 100 98.3332C100 98.1001 99.9511 97.8695 99.8565 97.6564L79.8567 52.6567ZM37.0653 78.3332L39.5353 65H60.0435L62.0185 78.3332H37.0653ZM62.5135 81.6665L64.7351 96.6664H33.667L36.4453 81.6665H62.5135ZM18.3088 65H18.3338H36.1453L33.6754 78.3332H12.3805L18.3088 65ZM40.152 61.6667L41.387 55.0001H58.5618L59.5502 61.6667H40.152ZM63.4135 65H81.6666H81.6916L87.6199 78.3332H65.3884L63.4135 65ZM80.2133 61.6667H62.9201L61.9318 55.0001H77.25L80.2133 61.6667ZM22.7505 55.0001H38.0003L36.7653 61.6667H19.7872L22.7505 55.0001ZM10.8989 81.6665H33.0654L30.2871 96.6664H4.23228L10.8989 81.6665ZM68.1051 96.6664L65.8818 81.6665H89.1016L95.7682 96.6664H68.1051Z" fill="#0E0806" />
    <path d="M50.0002 0.000488281C49.0798 0.000488281 48.3335 0.746732 48.3335 1.66714V6.76543C40.1007 7.68584 34.1728 15.1062 35.0932 23.339C36.0136 31.5719 43.434 37.4998 51.6668 36.5793C59.8997 35.6589 65.8276 28.2386 64.9071 20.0057C64.1284 13.0412 58.6314 7.54397 51.6668 6.76543V1.66714C51.6668 0.746732 50.9206 0.000488281 50.0002 0.000488281ZM48.3335 13.3337H45.0002V11.6671C44.9921 11.5037 44.9594 11.3425 44.9036 11.1887C45.985 10.6606 47.1423 10.3046 48.3335 10.1337V13.3337ZM60.0001 16.667C60.1634 16.6589 60.3247 16.6262 60.4784 16.5704C61.0063 17.6518 61.3624 18.8091 61.5334 20.0003H58.3334V16.667H60.0001ZM60.4784 26.7636C60.3247 26.7078 60.1634 26.6751 60.0001 26.6669H58.3334V23.3336H61.5334C61.3624 24.5249 61.0063 25.6821 60.4784 26.7636ZM38.4669 23.3336H41.6669V26.6669H40.0003C39.8369 26.6751 39.6757 26.7078 39.5219 26.7636C38.994 25.6821 38.638 24.5249 38.4669 23.3336ZM39.5219 16.5704C39.6757 16.6262 39.8369 16.6589 40.0003 16.667H41.6669V20.0003H38.4669C38.638 18.8091 38.994 17.6518 39.5219 16.5704ZM48.3335 26.6669H45.0002V23.3336H48.3335V26.6669ZM51.6668 23.3336H55.0001V26.6669H51.6668V23.3336ZM45.0002 31.6669V30.0002H48.3335V33.2002C47.1423 33.0294 45.985 32.6733 44.9036 32.1452C44.9594 31.9915 44.9921 31.8302 45.0002 31.6669ZM51.6668 30.0002H55.0001V31.6669C55.0083 31.8302 55.041 31.9915 55.0968 32.1452C54.0154 32.6733 52.8581 33.0294 51.6668 33.2002V30.0002ZM55.0001 20.0003H51.6668V16.667H55.0001V20.0003ZM48.3335 20.0003H45.0002V16.667H48.3335V20.0003ZM55.0968 11.1887C55.041 11.3425 55.0083 11.5037 55.0001 11.6671V13.3337H51.6668V10.1337C52.8581 10.3046 54.0154 10.6606 55.0968 11.1887Z" fill="#0E0806" />
    <path d="M15.0009 13.3337C14.0805 13.3337 13.3343 14.08 13.3343 15.0004V16.667H11.6676C10.7472 16.667 10.001 17.4133 10.001 18.3337C10.001 19.2541 10.7472 20.0004 11.6676 20.0004H13.3343V21.667C13.3343 22.5874 14.0805 23.3337 15.0009 23.3337C15.9213 23.3337 16.6676 22.5874 16.6676 21.667V20.0004H18.3342C19.2546 20.0004 20.0009 19.2541 20.0009 18.3337C20.0009 17.4133 19.2546 16.667 18.3342 16.667H16.6676V15.0004C16.6676 14.08 15.9213 13.3337 15.0009 13.3337Z" fill="#0E0806" />
    <path d="M85 28.3335C84.0795 28.3335 83.3333 29.0797 83.3333 30.0001V31.6668H81.6667C80.7462 31.6668 80 32.413 80 33.3335C80 34.2539 80.7462 35.0001 81.6667 35.0001H83.3333V36.6668C83.3333 37.5872 84.0795 38.3334 85 38.3334C85.9204 38.3334 86.6666 37.5872 86.6666 36.6668V35.0001H88.3333C89.2537 35.0001 89.9999 34.2539 89.9999 33.3335C89.9999 32.413 89.2537 31.6668 88.3333 31.6668H86.6666V30.0001C86.6666 29.0797 85.9204 28.3335 85 28.3335Z" fill="#0E0806" />
    <path d="M71.667 0.000488281C70.7465 0.000488281 70.0003 0.746732 70.0003 1.66714V3.33379H68.3336C67.4132 3.33379 66.667 4.08004 66.667 5.00045C66.667 5.92086 67.4132 6.6671 68.3336 6.6671H70.0003V8.33375C70.0003 9.25416 70.7465 10.0004 71.667 10.0004C72.5874 10.0004 73.3336 9.25416 73.3336 8.33375V6.6671H75.0003C75.9207 6.6671 76.6669 5.92086 76.6669 5.00045C76.6669 4.08004 75.9207 3.33379 75.0003 3.33379H73.3336V1.66714C73.3336 0.746732 72.5874 0.000488281 71.667 0.000488281Z" fill="#0E0806" />
    <path d="M28.3339 38.3335C27.4135 38.3335 26.6673 39.0797 26.6673 40.0001V41.6668H25.0006C24.0802 41.6668 23.334 42.413 23.334 43.3335C23.334 44.2539 24.0802 45.0001 25.0006 45.0001H26.6673V46.6668C26.6673 47.5872 27.4135 48.3334 28.3339 48.3334C29.2544 48.3334 30.0006 47.5872 30.0006 46.6668V45.0001H31.6672C32.5877 45.0001 33.3339 44.2539 33.3339 43.3335C33.3339 42.413 32.5877 41.6668 31.6672 41.6668H30.0006V40.0001C30.0006 39.0797 29.2544 38.3335 28.3339 38.3335Z" fill="#0E0806" />
  </g>
  <defs>
    <clipPath id="clip0_75_5272">
      <rect width="100" height="100" fill="white" />
    </clipPath>
  </defs>
</svg>