<svg width="100" height="100" viewBox="0 0 100 100" fill="none" xmlns="http://www.w3.org/2000/svg">
  <path d="M56.25 50H93.75V90.625H56.25V50Z" fill="#CCCCCC" />
  <path d="M56.25 50V85.9375H82.8125C84.4701 85.9375 86.0598 85.279 87.2319 84.1069C88.404 82.9348 89.0625 81.3451 89.0625 79.6875V50H56.25Z" fill="#F2F2F2" />
  <path d="M53.125 90.625H96.875V96.875H53.125V90.625Z" fill="#686868" />
  <path d="M79.6875 28.125V29.6875C79.6875 30.9307 79.1936 32.123 78.3146 33.0021C77.4355 33.8811 76.2432 34.375 75 34.375C73.7568 34.375 72.5645 33.8811 71.6854 33.0021C70.8064 32.123 70.3125 30.9307 70.3125 29.6875V28.125C67.8261 28.125 65.4415 29.1127 63.6834 30.8709C61.9252 32.629 60.9375 35.0136 60.9375 37.5V43.75H89.0625V37.5C89.0625 35.0136 88.0748 32.629 86.3166 30.8709C84.5585 29.1127 82.1739 28.125 79.6875 28.125Z" fill="#AA2B24" />
  <path d="M81.25 40.625C82.4932 40.625 83.6855 40.1311 84.5646 39.2521C85.4436 38.373 85.9375 37.1807 85.9375 35.9375V30.5266C84.2233 28.9799 81.9963 28.1242 79.6875 28.125V29.6875C79.6875 30.9307 79.1936 32.123 78.3146 33.0021C77.4355 33.8811 76.2432 34.375 75 34.375C73.7568 34.375 72.5645 33.8811 71.6854 33.0021C70.8064 32.123 70.3125 30.9307 70.3125 29.6875V28.125C67.8261 28.125 65.4415 29.1127 63.6834 30.8709C61.9252 32.629 60.9375 35.0136 60.9375 37.5V40.625H81.25Z" fill="#D24034" />
  <path d="M79.6875 9.375C79.6875 12.8266 73.7641 15.625 70.3125 15.625H64.0625V9.375C64.0625 7.7174 64.721 6.12769 65.8931 4.95558C67.0652 3.78348 68.6549 3.125 70.3125 3.125H79.6875C81.3451 3.125 82.9348 3.78348 84.1069 4.95558C85.279 6.12769 85.9375 7.7174 85.9375 9.375V15.625C84.2799 15.625 82.6902 14.9665 81.5181 13.7944C80.346 12.6223 79.6875 11.0326 79.6875 9.375Z" fill="#474747" />
  <path d="M79.6875 9.375C79.6875 12.8266 73.7641 15.625 70.3125 15.625H67.1875V20.3125C67.1875 22.3845 68.0106 24.3716 69.4757 25.8368C70.9409 27.3019 72.928 28.125 75 28.125C77.072 28.125 79.0591 27.3019 80.5243 25.8368C81.9894 24.3716 82.8125 22.3845 82.8125 20.3125V14.7578C81.8648 14.214 81.0771 13.4302 80.5285 12.4853C79.98 11.5403 79.6899 10.4676 79.6875 9.375Z" fill="#FDDFB1" />
  <path d="M67.1875 20.3125V15.625H64.0625C63.2337 15.625 62.4388 15.9542 61.8528 16.5403C61.2667 17.1263 60.9375 17.9212 60.9375 18.75C60.9375 19.5788 61.2667 20.3737 61.8528 20.9597C62.4388 21.5458 63.2337 21.875 64.0625 21.875H67.3437C67.2392 21.3608 67.1868 20.8373 67.1875 20.3125Z" fill="#FDDFB1" />
  <path d="M85.9375 15.625H82.8125V20.3125C82.8131 20.8373 82.7608 21.3608 82.6562 21.875H85.9375C86.7663 21.875 87.5612 21.5458 88.1472 20.9597C88.7333 20.3737 89.0625 19.5788 89.0625 18.75C89.0625 17.9212 88.7333 17.1263 88.1472 16.5403C87.5612 15.9542 86.7663 15.625 85.9375 15.625Z" fill="#FDDFB1" />
  <path d="M75 34.375C76.2432 34.375 77.4355 33.8811 78.3146 33.0021C79.1936 32.123 79.6875 30.9307 79.6875 29.6875V28.125H70.3125V29.6875C70.3125 30.9307 70.8064 32.123 71.6854 33.0021C72.5645 33.8811 73.7568 34.375 75 34.375Z" fill="#FDDFB1" />
  <path d="M70.3125 15.625H67.1875V20.3125C67.1888 21.3886 67.4133 22.4526 67.8469 23.4375H75C76.2432 23.4375 77.4355 22.9436 78.3146 22.0646C79.1936 21.1855 79.6875 19.9932 79.6875 18.75V9.375C79.6875 12.8266 73.7641 15.625 70.3125 15.625Z" fill="#FEECD0" />
  <path d="M53.125 43.75H96.875V50H53.125V43.75Z" fill="#686868" />
  <path d="M53.125 46.875H90.625C91.4538 46.875 92.2487 46.5458 92.8347 45.9597C93.4208 45.3737 93.75 44.5788 93.75 43.75H53.125V46.875Z" fill="#939393" />
  <path d="M6.25 50H43.75V90.625H6.25V50Z" fill="#CCCCCC" />
  <path d="M6.25 50V85.9375H32.8125C34.4701 85.9375 36.0598 85.279 37.2319 84.1069C38.404 82.9348 39.0625 81.3451 39.0625 79.6875V50H6.25Z" fill="#F2F2F2" />
  <path d="M3.125 90.625H46.875V96.875H3.125V90.625Z" fill="#686868" />
  <path d="M29.6875 28.125V29.6875C29.6875 30.9307 29.1936 32.123 28.3146 33.0021C27.4355 33.8811 26.2432 34.375 25 34.375C23.7568 34.375 22.5645 33.8811 21.6854 33.0021C20.8064 32.123 20.3125 30.9307 20.3125 29.6875V28.125C17.8261 28.125 15.4415 29.1127 13.6834 30.8709C11.9252 32.629 10.9375 35.0136 10.9375 37.5V43.75H39.0625V37.5C39.0625 35.0136 38.0748 32.629 36.3166 30.8709C34.5585 29.1127 32.1739 28.125 29.6875 28.125Z" fill="#559B38" />
  <path d="M31.25 40.625C32.4932 40.625 33.6855 40.1311 34.5646 39.2521C35.4436 38.373 35.9375 37.1807 35.9375 35.9375V30.5266C34.2233 28.9799 31.9963 28.1242 29.6875 28.125V29.6875C29.6875 30.9307 29.1936 32.123 28.3146 33.0021C27.4355 33.8811 26.2432 34.375 25 34.375C23.7568 34.375 22.5645 33.8811 21.6854 33.0021C20.8064 32.123 20.3125 30.9307 20.3125 29.6875V28.125C17.8261 28.125 15.4415 29.1127 13.6834 30.8709C11.9252 32.629 10.9375 35.0136 10.9375 37.5V40.625H31.25Z" fill="#6BC148" />
  <path d="M29.6875 9.375C29.6875 12.8266 23.7641 15.625 20.3125 15.625H14.0625V9.375C14.0625 7.7174 14.721 6.12769 15.8931 4.95558C17.0652 3.78348 18.6549 3.125 20.3125 3.125H29.6875C31.3451 3.125 32.9348 3.78348 34.1069 4.95558C35.279 6.12769 35.9375 7.7174 35.9375 9.375V15.625C34.2799 15.625 32.6902 14.9665 31.5181 13.7944C30.346 12.6223 29.6875 11.0326 29.6875 9.375Z" fill="#474747" />
  <path d="M29.6875 9.375C29.6875 12.8266 23.7641 15.625 20.3125 15.625H17.1875V20.3125C17.1875 22.3845 18.0106 24.3716 19.4757 25.8368C20.9409 27.3019 22.928 28.125 25 28.125C27.072 28.125 29.0591 27.3019 30.5243 25.8368C31.9894 24.3716 32.8125 22.3845 32.8125 20.3125V14.7578C31.8648 14.214 31.0771 13.4302 30.5285 12.4853C29.98 11.5403 29.6899 10.4676 29.6875 9.375Z" fill="#FDDFB1" />
  <path d="M17.1875 20.3125V15.625H14.0625C13.2337 15.625 12.4388 15.9542 11.8528 16.5403C11.2667 17.1263 10.9375 17.9212 10.9375 18.75C10.9375 19.5788 11.2667 20.3737 11.8528 20.9597C12.4388 21.5458 13.2337 21.875 14.0625 21.875H17.3438C17.2392 21.3608 17.1868 20.8373 17.1875 20.3125Z" fill="#FDDFB1" />
  <path d="M35.9375 15.625H32.8125V20.3125C32.8132 20.8373 32.7608 21.3608 32.6562 21.875H35.9375C36.7663 21.875 37.5612 21.5458 38.1472 20.9597C38.7333 20.3737 39.0625 19.5788 39.0625 18.75C39.0625 17.9212 38.7333 17.1263 38.1472 16.5403C37.5612 15.9542 36.7663 15.625 35.9375 15.625Z" fill="#FDDFB1" />
  <path d="M25 34.375C26.2432 34.375 27.4355 33.8811 28.3146 33.0021C29.1936 32.123 29.6875 30.9307 29.6875 29.6875V28.125H20.3125V29.6875C20.3125 30.9307 20.8064 32.123 21.6854 33.0021C22.5645 33.8811 23.7568 34.375 25 34.375Z" fill="#FDDFB1" />
  <path d="M20.3125 15.625H17.1875V20.3125C17.1888 21.3886 17.4133 22.4526 17.8469 23.4375H25C26.2432 23.4375 27.4355 22.9436 28.3146 22.0646C29.1936 21.1855 29.6875 19.9932 29.6875 18.75V9.375C29.6875 12.8266 23.7641 15.625 20.3125 15.625Z" fill="#FEECD0" />
  <path d="M3.125 43.75H46.875V50H3.125V43.75Z" fill="#686868" />
  <path d="M17.1875 70.3125L20.3125 73.4375L32.8125 60.9375L37.5 65.625L22.9797 80.1453C22.6294 80.4956 22.2136 80.7734 21.756 80.9629C21.2983 81.1525 20.8078 81.25 20.3125 81.25C19.8172 81.25 19.3267 81.1525 18.869 80.9629C18.4114 80.7734 17.9956 80.4956 17.6453 80.1453L12.5 75L17.1875 70.3125Z" fill="#559B38" />
  <path d="M85.9375 64.0625L81.25 59.375L75 65.625L68.75 59.375L64.0625 64.0625L70.3125 70.3125L64.0625 76.5625L68.75 81.25L75 75L81.25 81.25L85.9375 76.5625L79.6875 70.3125L85.9375 64.0625Z" fill="#D24034" />
  <path d="M3.125 46.875H40.625C41.4538 46.875 42.2487 46.5458 42.8347 45.9597C43.4208 45.3737 43.75 44.5788 43.75 43.75H3.125V46.875Z" fill="#939393" />
  <path d="M46.875 42.1875H40.625V37.5C40.6211 34.964 39.7373 32.508 38.1245 30.5509C36.5117 28.5939 34.2698 27.2571 31.7812 26.7687C32.6901 25.8145 33.3875 24.6794 33.8281 23.4375H35.9375C37.0419 23.4396 38.1114 23.0508 38.9566 22.3398C39.8018 21.6289 40.3681 20.6418 40.5553 19.5534C40.7424 18.465 40.5383 17.3454 39.9791 16.393C39.4199 15.4406 38.5417 14.7169 37.5 14.35V9.375C37.4975 7.30376 36.6736 5.31806 35.209 3.85347C33.7444 2.38888 31.7587 1.56498 29.6875 1.5625H20.3125C18.2413 1.56498 16.2556 2.38888 14.791 3.85347C13.3264 5.31806 12.5025 7.30376 12.5 9.375V14.35C11.4583 14.7169 10.5801 15.4406 10.0209 16.393C9.46167 17.3454 9.25756 18.465 9.44471 19.5534C9.63185 20.6418 10.1982 21.6289 11.0434 22.3398C11.8886 23.0508 12.9581 23.4396 14.0625 23.4375H16.1719C16.6125 24.6794 17.3099 25.8145 18.2188 26.7687C15.7302 27.2571 13.4883 28.5939 11.8755 30.5509C10.2627 32.508 9.3789 34.964 9.375 37.5V42.1875H3.125C2.7106 42.1875 2.31317 42.3521 2.02015 42.6451C1.72712 42.9382 1.5625 43.3356 1.5625 43.75V50C1.5625 50.4144 1.72712 50.8118 2.02015 51.1049C2.31317 51.3979 2.7106 51.5625 3.125 51.5625H4.6875V89.0625H3.125C2.7106 89.0625 2.31317 89.2271 2.02015 89.5201C1.72712 89.8132 1.5625 90.2106 1.5625 90.625V96.875C1.5625 97.2894 1.72712 97.6868 2.02015 97.9799C2.31317 98.2729 2.7106 98.4375 3.125 98.4375H46.875C47.2894 98.4375 47.6868 98.2729 47.9799 97.9799C48.2729 97.6868 48.4375 97.2894 48.4375 96.875V90.625C48.4375 90.2106 48.2729 89.8132 47.9799 89.5201C47.6868 89.2271 47.2894 89.0625 46.875 89.0625H45.3125V51.5625H46.875C47.2894 51.5625 47.6868 51.3979 47.9799 51.1049C48.2729 50.8118 48.4375 50.4144 48.4375 50V43.75C48.4375 43.3356 48.2729 42.9382 47.9799 42.6451C47.6868 42.3521 47.2894 42.1875 46.875 42.1875ZM18.75 20.3125V17.1875H20.3125C23.6412 17.0113 26.8096 15.7025 29.2922 13.4781C29.8056 14.3093 30.4696 15.0373 31.25 15.625V20.3125C31.25 21.9701 30.5915 23.5598 29.4194 24.7319C28.2473 25.904 26.6576 26.5625 25 26.5625C23.3424 26.5625 21.7527 25.904 20.5806 24.7319C19.4085 23.5598 18.75 21.9701 18.75 20.3125ZM28.125 29.6875C28.125 30.5163 27.7958 31.3112 27.2097 31.8972C26.6237 32.4833 25.8288 32.8125 25 32.8125C24.1712 32.8125 23.3763 32.4833 22.7903 31.8972C22.2042 31.3112 21.875 30.5163 21.875 29.6875H28.125ZM35.9375 20.3125H34.375V17.1875H35.9375C36.3519 17.1875 36.7493 17.3521 37.0424 17.6451C37.3354 17.9382 37.5 18.3356 37.5 18.75C37.5 19.1644 37.3354 19.5618 37.0424 19.8549C36.7493 20.1479 36.3519 20.3125 35.9375 20.3125ZM15.625 9.375C15.625 8.1318 16.1189 6.93951 16.9979 6.06044C17.877 5.18136 19.0693 4.6875 20.3125 4.6875H29.6875C30.9307 4.6875 32.123 5.18136 33.0021 6.06044C33.8811 6.93951 34.375 8.1318 34.375 9.375V13.7953C33.4617 13.471 32.6711 12.872 32.1116 12.0806C31.5521 11.2893 31.2512 10.3442 31.25 9.375C31.25 8.9606 31.0854 8.56317 30.7924 8.27015C30.4993 7.97712 30.1019 7.8125 29.6875 7.8125C29.2731 7.8125 28.8757 7.97712 28.5826 8.27015C28.2896 8.56317 28.125 8.9606 28.125 9.375C28.125 11.5484 23.3984 14.0625 20.3125 14.0625H15.625V9.375ZM14.0625 20.3125C13.6481 20.3125 13.2507 20.1479 12.9576 19.8549C12.6646 19.5618 12.5 19.1644 12.5 18.75C12.5 18.3356 12.6646 17.9382 12.9576 17.6451C13.2507 17.3521 13.6481 17.1875 14.0625 17.1875H15.625V20.3125H14.0625ZM12.5 37.5C12.5027 35.6974 13.1277 33.951 14.2693 32.556C15.4109 31.161 16.9992 30.203 18.7656 29.8438C18.8021 31.473 19.475 33.0233 20.6402 34.1627C21.8054 35.3021 23.3703 35.9401 25 35.9401C26.6297 35.9401 28.1946 35.3021 29.3598 34.1627C30.525 33.0233 31.1979 31.473 31.2344 29.8438C33.0008 30.203 34.5891 31.161 35.7307 32.556C36.8723 33.951 37.4973 35.6974 37.5 37.5V42.1875H34.375V37.5H31.25V42.1875H18.75V37.5H15.625V42.1875H12.5V37.5ZM45.3125 95.3125H4.6875V92.1875H45.3125V95.3125ZM42.1875 89.0625H7.8125V51.5625H42.1875V89.0625ZM45.3125 48.4375H4.6875V45.3125H45.3125V48.4375Z" fill="black" />
  <path d="M96.875 51.5625C97.2894 51.5625 97.6868 51.3979 97.9799 51.1049C98.2729 50.8118 98.4375 50.4144 98.4375 50V43.75C98.4375 43.3356 98.2729 42.9382 97.9799 42.6451C97.6868 42.3521 97.2894 42.1875 96.875 42.1875H90.625V37.5C90.6211 34.964 89.7373 32.508 88.1245 30.5509C86.5117 28.5939 84.2698 27.2571 81.7812 26.7687C82.6901 25.8145 83.3875 24.6794 83.8281 23.4375H85.9375C87.0419 23.4396 88.1114 23.0508 88.9566 22.3398C89.8018 21.6289 90.3681 20.6418 90.5553 19.5534C90.7424 18.465 90.5383 17.3454 89.9791 16.393C89.4199 15.4406 88.5417 14.7169 87.5 14.35V9.375C87.4975 7.30376 86.6736 5.31806 85.209 3.85347C83.7444 2.38888 81.7587 1.56498 79.6875 1.5625H70.3125C68.2413 1.56498 66.2556 2.38888 64.791 3.85347C63.3264 5.31806 62.5025 7.30376 62.5 9.375V14.35C61.4583 14.7169 60.5801 15.4406 60.0209 16.393C59.4617 17.3454 59.2576 18.465 59.4447 19.5534C59.6319 20.6418 60.1982 21.6289 61.0434 22.3398C61.8886 23.0508 62.9581 23.4396 64.0625 23.4375H66.1719C66.6125 24.6794 67.3099 25.8145 68.2188 26.7687C65.7302 27.2571 63.4883 28.5939 61.8755 30.5509C60.2627 32.508 59.3789 34.964 59.375 37.5V42.1875H53.125C52.7106 42.1875 52.3132 42.3521 52.0201 42.6451C51.7271 42.9382 51.5625 43.3356 51.5625 43.75V50C51.5625 50.4144 51.7271 50.8118 52.0201 51.1049C52.3132 51.3979 52.7106 51.5625 53.125 51.5625H54.6875V89.0625H53.125C52.7106 89.0625 52.3132 89.2271 52.0201 89.5201C51.7271 89.8132 51.5625 90.2106 51.5625 90.625V96.875C51.5625 97.2894 51.7271 97.6868 52.0201 97.9799C52.3132 98.2729 52.7106 98.4375 53.125 98.4375H96.875C97.2894 98.4375 97.6868 98.2729 97.9799 97.9799C98.2729 97.6868 98.4375 97.2894 98.4375 96.875V90.625C98.4375 90.2106 98.2729 89.8132 97.9799 89.5201C97.6868 89.2271 97.2894 89.0625 96.875 89.0625H95.3125V51.5625H96.875ZM68.75 20.3125V17.1875H70.3125C73.6412 17.0113 76.8096 15.7025 79.2922 13.4781C79.8056 14.3093 80.4696 15.0373 81.25 15.625V20.3125C81.25 21.9701 80.5915 23.5598 79.4194 24.7319C78.2473 25.904 76.6576 26.5625 75 26.5625C73.3424 26.5625 71.7527 25.904 70.5806 24.7319C69.4085 23.5598 68.75 21.9701 68.75 20.3125ZM78.125 29.6875C78.125 30.5163 77.7958 31.3112 77.2097 31.8972C76.6237 32.4833 75.8288 32.8125 75 32.8125C74.1712 32.8125 73.3763 32.4833 72.7903 31.8972C72.2042 31.3112 71.875 30.5163 71.875 29.6875H78.125ZM85.9375 20.3125H84.375V17.1875H85.9375C86.3519 17.1875 86.7493 17.3521 87.0424 17.6451C87.3354 17.9382 87.5 18.3356 87.5 18.75C87.5 19.1644 87.3354 19.5618 87.0424 19.8549C86.7493 20.1479 86.3519 20.3125 85.9375 20.3125ZM65.625 9.375C65.625 8.1318 66.1189 6.93951 66.9979 6.06044C67.877 5.18136 69.0693 4.6875 70.3125 4.6875H79.6875C80.9307 4.6875 82.123 5.18136 83.0021 6.06044C83.8811 6.93951 84.375 8.1318 84.375 9.375V13.7953C83.4617 13.471 82.6711 12.872 82.1116 12.0806C81.5522 11.2893 81.2512 10.3442 81.25 9.375C81.25 8.9606 81.0854 8.56317 80.7924 8.27015C80.4993 7.97712 80.1019 7.8125 79.6875 7.8125C79.2731 7.8125 78.8757 7.97712 78.5826 8.27015C78.2896 8.56317 78.125 8.9606 78.125 9.375C78.125 11.5484 73.3984 14.0625 70.3125 14.0625H65.625V9.375ZM64.0625 20.3125C63.6481 20.3125 63.2507 20.1479 62.9576 19.8549C62.6646 19.5618 62.5 19.1644 62.5 18.75C62.5 18.3356 62.6646 17.9382 62.9576 17.6451C63.2507 17.3521 63.6481 17.1875 64.0625 17.1875H65.625V20.3125H64.0625ZM62.5 37.5C62.5027 35.6974 63.1277 33.951 64.2693 32.556C65.411 31.161 66.9992 30.203 68.7656 29.8438C68.8021 31.473 69.475 33.0233 70.6402 34.1627C71.8054 35.3021 73.3703 35.9401 75 35.9401C76.6297 35.9401 78.1946 35.3021 79.3598 34.1627C80.525 33.0233 81.1979 31.473 81.2344 29.8438C83.0008 30.203 84.5891 31.161 85.7307 32.556C86.8723 33.951 87.4973 35.6974 87.5 37.5V42.1875H84.375V37.5H81.25V42.1875H68.75V37.5H65.625V42.1875H62.5V37.5ZM54.6875 45.3125H95.3125V48.4375H54.6875V45.3125ZM95.3125 95.3125H54.6875V92.1875H95.3125V95.3125ZM92.1875 89.0625H57.8125V51.5625H92.1875V89.0625Z" fill="black" />
  <path d="M11.3958 76.1062L16.5411 81.2499C17.0353 81.7467 17.6231 82.1406 18.2706 82.4088C18.918 82.677 19.6122 82.8142 20.3129 82.8124C21.7269 82.8083 23.0822 82.2468 24.0848 81.2499L38.6051 66.7312C38.7504 66.586 38.8657 66.4137 38.9443 66.224C39.0229 66.0344 39.0634 65.831 39.0634 65.6257C39.0634 65.4204 39.0229 65.217 38.9443 65.0273C38.8657 64.8377 38.7504 64.6653 38.6051 64.5202L33.9176 59.8327C33.6246 59.5398 33.2273 59.3752 32.8129 59.3752C32.3986 59.3752 32.0013 59.5398 31.7083 59.8327L20.3129 71.228L18.2926 69.2077C17.9996 68.9148 17.6023 68.7502 17.1879 68.7502C16.7736 68.7502 16.3763 68.9148 16.0833 69.2077L11.3958 73.8952C11.2505 74.0403 11.1352 74.2127 11.0566 74.4023C10.978 74.592 10.9375 74.7954 10.9375 75.0007C10.9375 75.206 10.978 75.4094 11.0566 75.599C11.1352 75.7887 11.2505 75.961 11.3958 76.1062ZM17.1879 72.5233L19.2083 74.5437C19.5013 74.8366 19.8986 75.0011 20.3129 75.0011C20.7273 75.0011 21.1246 74.8366 21.4176 74.5437L32.8129 63.1483L35.2911 65.6249L21.8754 79.0405C21.4529 79.4393 20.8939 79.6614 20.3129 79.6614C19.732 79.6614 19.173 79.4393 18.7504 79.0405L14.7098 74.9999L17.1879 72.5233Z" fill="black" />
  <path d="M68.1028 70.3124L62.9575 75.4577C62.6646 75.7507 62.5 76.1481 62.5 76.5624C62.5 76.9767 62.6646 77.3741 62.9575 77.6671L67.645 82.3546C67.938 82.6475 68.3353 82.8121 68.7497 82.8121C69.164 82.8121 69.5613 82.6475 69.8544 82.3546L74.9997 77.2093L80.145 82.3546C80.438 82.6475 80.8353 82.8121 81.2497 82.8121C81.664 82.8121 82.0613 82.6475 82.3544 82.3546L87.0419 77.6671C87.3348 77.3741 87.4993 76.9767 87.4993 76.5624C87.4993 76.1481 87.3348 75.7507 87.0419 75.4577L81.8965 70.3124L87.0419 65.1671C87.3348 64.8741 87.4993 64.4767 87.4993 64.0624C87.4993 63.6481 87.3348 63.2507 87.0419 62.9577L82.3544 58.2702C82.0613 57.9773 81.664 57.8127 81.2497 57.8127C80.8353 57.8127 80.438 57.9773 80.145 58.2702L74.9997 63.4155L69.8544 58.2702C69.5613 57.9773 69.164 57.8127 68.7497 57.8127C68.3353 57.8127 67.938 57.9773 67.645 58.2702L62.9575 62.9577C62.6646 63.2507 62.5 63.6481 62.5 64.0624C62.5 64.4767 62.6646 64.8741 62.9575 65.1671L68.1028 70.3124ZM68.7497 61.5843L73.895 66.7296C74.188 67.0225 74.5853 67.1871 74.9997 67.1871C75.414 67.1871 75.8113 67.0225 76.1044 66.7296L81.2497 61.5843L83.7278 64.0624L78.5825 69.2077C78.2896 69.5007 78.125 69.8981 78.125 70.3124C78.125 70.7267 78.2896 71.1241 78.5825 71.4171L83.7278 76.5624L81.2497 79.0405L76.1044 73.8952C75.8113 73.6023 75.414 73.4377 74.9997 73.4377C74.5853 73.4377 74.188 73.6023 73.895 73.8952L68.7497 79.0405L66.2715 76.5624L71.4169 71.4171C71.7098 71.1241 71.8743 70.7267 71.8743 70.3124C71.8743 69.8981 71.7098 69.5007 71.4169 69.2077L66.2715 64.0624L68.7497 61.5843Z" fill="black" />
</svg>