<svg width="100" height="100" viewBox="0 0 100 100" fill="none" xmlns="http://www.w3.org/2000/svg">
  <g clip-path="url(#clip0_75_5230)">
    <path d="M56.6366 67.2089C56.8517 64.0802 59.408 61.5584 62.539 61.3814C64.4573 61.273 66.2007 62.0273 67.4207 63.2902H80.8781C82.3567 63.2902 83.6626 64.0264 84.4517 65.1515L79.1598 55.3277C76.2761 49.9746 71.333 46.03 65.4736 44.406L58.2781 42.4118H45.6601L32.5506 38.0869L27.9551 49.7264L34.6948 53.2836V72.0241H58.393C57.2024 70.795 56.5078 69.0826 56.6366 67.2089Z" fill="#F7594E" />
    <path d="M34.173 49.4853L29.106 46.811L27.9551 49.7263L34.6948 53.2834V50.3507C34.6948 49.9879 34.494 49.6548 34.173 49.4853Z" fill="#EA4642" />
    <path d="M34.6953 68.501V72.0237H58.3936C57.4832 71.0843 56.8643 69.8617 56.6802 68.501H34.6953Z" fill="#EA4642" />
    <path d="M69.3734 28.2164C75.9293 2.69947 59.2408 5.38356 59.2408 5.38356C59.2408 5.38356 53.3879 -1.08624 43.8485 2.59575C34.6427 6.14896 27.9226 14.8396 34.8801 27.6685L69.3734 28.2164Z" fill="#525256" />
    <path d="M81.8889 80.54H23.5918C23.864 75.7603 27.8192 72.0237 32.6067 72.0237H72.8742C77.6615 72.0237 81.6169 75.7603 81.8889 80.54Z" fill="#FEBD55" />
    <path d="M24.5302 77.0173C23.9955 78.0859 23.6638 79.2758 23.5918 80.54H81.8889C81.8169 79.2758 81.4852 78.0859 80.9505 77.0173H24.5302Z" fill="#F9AB43" />
    <path d="M86.6062 87.6194H18.873V83.0356C18.873 81.6573 19.9905 80.5398 21.3689 80.5398H84.1104C85.4888 80.5398 86.6062 81.6573 86.6062 83.0356V87.6194Z" fill="#FFE08C" />
    <path d="M18.873 84.0967H86.6062V87.6194H18.873V84.0967Z" fill="#F9D375" />
    <path d="M21.0283 87.6194H84.4523V98.5319H21.0283V87.6194Z" fill="#F7594E" />
    <path d="M21.0283 87.6194H84.4523V91.1421H21.0283V87.6194Z" fill="#EA4642" />
    <path d="M38.9323 31.0029V25.778C38.7845 25.7629 38.6346 25.7549 38.4827 25.7549C36.0818 25.7549 34.1357 27.7012 34.1357 30.1019C34.1357 32.5028 36.082 34.4489 38.4827 34.4489C38.7865 34.4489 39.0828 34.4176 39.3691 34.3583C39.0845 33.2876 38.9323 32.163 38.9323 31.0029Z" fill="#EDBCA4" />
    <path d="M65.4557 25.7546C65.3038 25.7546 65.1539 25.7625 65.0061 25.7777V31.0027C65.0061 32.1628 64.8537 33.2873 64.5693 34.358C64.8555 34.4173 65.1519 34.4486 65.4557 34.4486C67.8566 34.4486 69.8027 32.5023 69.8027 30.1016C69.8027 27.7009 67.8564 25.7546 65.4557 25.7546Z" fill="#EDBCA4" />
    <path d="M38.9323 30.9031C38.7845 30.9184 38.6346 30.9262 38.4827 30.9262C36.7091 30.9262 35.1847 29.8636 34.5086 28.3406C34.2696 28.8792 34.1357 29.4747 34.1357 30.1019C34.1357 32.5028 36.082 34.4489 38.4827 34.4489C38.7865 34.4489 39.0828 34.4176 39.3691 34.3583C39.0847 33.2876 38.9323 32.1631 38.9323 31.0029V30.9031Z" fill="#EAAB92" />
    <path d="M65.4557 30.9262C65.3038 30.9262 65.1539 30.9184 65.0061 30.9031V31.0029C65.0061 32.1631 64.8537 33.2876 64.5693 34.3583C64.8555 34.4176 65.1519 34.4489 65.4557 34.4489C67.8566 34.4489 69.8027 32.5026 69.8027 30.1019C69.8027 29.4747 69.6688 28.8792 69.4297 28.3406C68.7539 29.8636 67.2294 30.9262 65.4557 30.9262Z" fill="#EAAB92" />
    <path d="M57.4304 12.1658C52.0683 19.2834 38.9326 20.8746 38.9326 20.8746V31.0029C38.9326 38.2031 44.7695 44.0398 51.9697 44.0398C59.1699 44.0398 65.0065 38.2029 65.0065 31.0029V21.1022C65.0065 21.1022 60.0538 19.099 57.4304 12.1658Z" fill="#FFD6BD" />
    <path d="M51.9697 40.5171C44.7695 40.5171 38.9326 34.6802 38.9326 27.4802V31.0029C38.9326 38.2031 44.7695 44.0398 51.9697 44.0398C59.1698 44.0398 65.0065 38.2029 65.0065 31.0029V27.4802C65.0067 34.6802 59.1698 40.5171 51.9697 40.5171Z" fill="#F9C6AA" />
    <path d="M51.9691 44.0397C49.68 44.0397 47.5299 43.4479 45.6602 42.4116C45.5263 42.932 45.4551 43.4774 45.4551 44.0397C45.4551 47.6373 48.3715 50.5537 51.9691 50.5537C55.5667 50.5537 58.4831 47.6373 58.4831 44.0397C58.4831 43.4776 58.4119 42.932 58.278 42.4116C56.4085 43.4479 54.2583 44.0397 51.9691 44.0397Z" fill="#EDBCA4" />
    <path d="M36.6111 15.384H23.3863C21.6089 15.384 20.168 13.943 20.168 12.1656C20.168 10.3882 21.6089 8.94727 23.3863 8.94727H36.6111C38.3885 8.94727 39.8294 10.3882 39.8294 12.1656C39.8294 13.943 38.3885 15.384 36.6111 15.384Z" fill="#E4936B" />
    <path d="M20.1832 11.8613C20.1738 11.9615 20.168 12.0629 20.168 12.1656C20.168 13.943 21.6089 15.384 23.3863 15.384H36.6111C38.3885 15.384 39.8294 13.943 39.8294 12.1656C39.8294 12.0629 39.8234 11.9615 39.814 11.8613H20.1832Z" fill="#DB835D" />
    <path d="M58.055 68.5962L45.4614 64.5594C43.7688 64.0169 42.8364 62.2049 43.3791 60.5122C43.9216 58.8196 45.7337 57.8872 47.4263 58.4299L60.0199 62.4667C61.7126 63.0092 62.6447 64.8212 62.1022 66.5139C61.5595 68.2065 59.7477 69.1387 58.055 68.5962Z" fill="#E4936B" />
    <path d="M43.4272 60.3845C43.4115 60.4272 43.3932 60.4683 43.3791 60.5121C42.8366 62.2048 43.7687 64.0166 45.4614 64.5593L58.055 68.5961C59.7476 69.1386 61.5594 68.2064 62.1021 66.5138C62.1162 66.47 62.125 66.4259 62.1372 66.3819L43.4272 60.3845Z" fill="#0E0806" />
    <path d="M32.5511 38.0868L27.4929 36.418C25.7938 35.8575 24.646 34.2702 24.646 32.481V16.5691C25.4742 15.4401 25.9324 14.0224 25.8378 12.4941C25.6466 9.40237 23.15 6.88698 20.0596 6.67542C16.4213 6.42649 13.3926 9.30413 13.3926 12.889C13.3926 14.5136 14.0149 15.9923 15.0336 17.1012V37.1572C15.0336 40.6934 16.9906 43.9392 20.118 45.5897L27.9552 49.7261L32.5511 38.0868Z" fill="#0E0806" />
    <path d="M32.5511 38.0868L27.4929 36.418C25.7938 35.8575 24.646 34.2702 24.646 32.481V16.5691C25.4742 15.4401 25.9324 14.0224 25.8378 12.4941C25.6466 9.40237 23.15 6.88698 20.0596 6.67542C16.4213 6.42649 13.3926 9.30413 13.3926 12.889C13.3926 14.5136 14.0149 15.9923 15.0336 17.1012V37.1572C15.0336 40.6934 16.9906 43.9392 20.118 45.5897L27.9552 49.7261L32.5511 38.0868Z" fill="#FFD6BD" />
    <path d="M80.8789 72.0164C83.2886 72.0164 85.2419 70.0629 85.2419 67.6534C85.2419 65.2436 83.2884 63.2903 80.8789 63.2903H67.4214C66.2014 62.0274 64.4583 61.2734 62.5398 61.3816C59.4087 61.5585 56.8524 64.0804 56.6373 67.2091C56.5086 69.0828 57.2031 70.7952 58.394 72.0238L80.8789 72.0164Z" fill="#FFD6BD" />
    <path d="M56.6797 68.4986C56.8635 69.8603 57.4825 71.0839 58.3935 72.0237L80.8784 72.0162C83 72.0162 84.767 70.5017 85.1596 68.4951L56.6797 68.4986Z" fill="#F9C6AA" />
    <path d="M20.1186 42.0673C16.9912 40.4167 15.0342 37.171 15.0342 33.6348V37.1574C15.0342 40.6936 16.9912 43.9394 20.1186 45.59L27.9558 49.7264L29.1067 46.8112L20.1186 42.0673Z" fill="#F9C6AA" />
    <path d="M45.6524 25.5283C44.8417 25.5283 44.1846 26.1855 44.1846 26.9961V29.9188C44.1846 30.7294 44.8417 31.3865 45.6524 31.3865C46.4632 31.3865 47.1201 30.7294 47.1201 29.9188V26.9961C47.1201 26.1853 46.4632 25.5283 45.6524 25.5283Z" fill="black" />
    <path d="M58.2871 25.5283C57.4763 25.5283 56.8193 26.1855 56.8193 26.9961V29.9188C56.8193 30.7294 57.4763 31.3865 58.2871 31.3865C59.0979 31.3865 59.7549 30.7294 59.7549 29.9188V26.9961C59.7549 26.1853 59.0977 25.5283 58.2871 25.5283Z" fill="black" />
    <path d="M54.83 33.6208C54.232 33.6208 53.7184 33.9786 53.4891 34.4913C53.4325 34.6009 53.0916 35.1458 51.9696 35.1458C50.8476 35.1458 50.5067 34.6009 50.4502 34.4913C50.2208 33.9786 49.7073 33.6208 49.1092 33.6208C48.2976 33.6208 47.6396 34.2788 47.6396 35.0904C47.6396 35.3556 47.7109 35.6039 47.834 35.8186C48.2855 36.7282 49.5803 38.0813 51.9696 38.0813C54.3592 38.0813 55.6538 36.7281 56.1052 35.8186C56.2281 35.6037 56.2996 35.3556 56.2996 35.0904C56.2994 34.2788 55.6416 33.6208 54.83 33.6208Z" fill="black" />
    <path d="M84.1109 79.0722H83.1809C82.7632 76.8907 81.6745 74.9562 80.1416 73.4845L80.8792 73.4843C84.094 73.4841 86.7096 70.8683 86.7096 67.6534C86.7096 66.4471 86.3413 65.3253 85.7115 64.3942L80.4526 54.6318C77.3953 48.9562 72.0787 44.7135 65.8663 42.9917L61.6248 41.8161C63.4049 40.2245 64.7917 38.2017 65.6176 35.9127C68.7492 35.8268 71.2711 33.2542 71.2711 30.102C71.2711 29.3993 71.1452 28.7256 70.9157 28.1017C73.3455 18.3447 72.7205 11.3576 69.0512 7.33394C65.8996 3.87819 61.5295 3.74961 59.7738 3.85725C59.0591 3.21299 57.6733 2.11939 55.7084 1.26338C53.0334 0.0975681 48.7126 -0.855122 43.3199 1.22639C39.5732 2.67265 36.4507 4.82658 34.2408 7.47974H25.0928C23.8148 6.18692 22.0834 5.34284 20.1597 5.21133C18.0008 5.06397 15.9442 5.79257 14.369 7.26349C12.8155 8.71425 11.9248 10.7648 11.9248 12.8894C11.9248 14.6224 12.5037 16.2876 13.5658 17.6394V24.0608C13.5658 24.8714 14.2228 25.5286 15.0336 25.5286C15.8444 25.5286 16.5014 24.8714 16.5014 24.0608V17.1016C16.5014 16.7338 16.3634 16.3794 16.1145 16.1086C15.3056 15.2283 14.8604 14.085 14.8604 12.8894C14.8604 11.5559 15.3974 10.3198 16.3728 9.409C17.3472 8.49917 18.6193 8.04885 19.9595 8.14005C22.3289 8.3021 24.2262 10.213 24.373 12.5849C24.4427 13.7165 24.128 14.794 23.4626 15.7011C23.2778 15.953 23.1782 16.2571 23.1782 16.5694V32.4814C23.1782 34.9093 24.7274 37.0515 27.033 37.8124L30.615 38.9943L27.1919 47.6642L20.8033 44.2924C18.1498 42.8921 16.5016 40.1583 16.5016 37.1578V29.9322C16.5016 29.1215 15.8446 28.4644 15.0338 28.4644C14.223 28.4644 13.566 29.1215 13.566 29.9322V37.1578C13.566 41.25 15.814 44.9785 19.433 46.8884L33.2273 54.1688V70.5565H32.6063C27.5174 70.5565 23.2324 74.1996 22.2991 79.0728H21.3691C19.1837 79.0728 17.4055 80.851 17.4055 83.0364V87.6202C17.4055 88.4308 18.0625 89.088 18.8733 89.088H19.5602V98.5327C19.5602 99.3433 20.2172 100 21.028 100H32.0106C32.8212 100 33.4783 99.3433 33.4783 98.5327C33.4783 97.7221 32.8212 97.0649 32.0106 97.0649H22.496V89.088H82.9844V97.0649H37.8819C37.0711 97.0649 36.4141 97.7221 36.4141 98.5327C36.4141 99.3433 37.0711 100 37.8819 100H84.4522C85.263 100 85.92 99.3433 85.92 98.5327V89.088H86.6067C87.4173 89.088 88.0745 88.4308 88.0745 87.6202V83.0364C88.0745 80.8502 86.2965 79.0722 84.1109 79.0722ZM83.7739 67.6533C83.7739 69.2498 82.475 70.5485 80.8784 70.5485C80.8782 70.5485 80.878 70.5485 80.8778 70.5485L59.0632 70.5557C58.3585 69.6305 58.0195 68.4977 58.1011 67.3096C58.2667 64.9016 60.2102 62.9832 62.6221 62.8469C62.7137 62.8417 62.8051 62.8391 62.8961 62.8391C64.2022 62.8391 65.4539 63.3665 66.3653 64.3098C66.6419 64.596 67.0227 64.7578 67.421 64.7578H80.8784C82.475 64.7578 83.7739 66.0567 83.7739 67.6533ZM51.9695 45.5075C53.7307 45.5075 55.4194 45.1918 56.9821 44.6143C56.6958 47.1272 54.5577 49.0862 51.9695 49.0862C49.3813 49.0862 47.243 47.1272 46.9569 44.6143C48.5198 45.1918 50.2084 45.5075 51.9695 45.5075ZM63.5388 31.0029C63.5388 37.382 58.3489 42.5719 51.9697 42.5719C45.5903 42.5719 40.4004 37.382 40.4004 31.0029V22.1331C41.7572 21.8969 44.0466 21.4245 46.6252 20.5849C51.0847 19.133 54.5659 17.2065 57.0103 14.8427C59.1634 19.0649 62.0733 21.1564 63.5388 21.9985V31.0029ZM66.3544 32.8356C66.4305 32.2348 66.4743 31.624 66.4743 31.0029V27.4121C67.5601 27.8246 68.3353 28.8732 68.3353 30.1018C68.3351 31.3755 67.503 32.4571 66.3544 32.8356ZM44.3771 3.96489C52.8102 0.709928 57.9426 6.13995 58.1528 6.36814C58.4835 6.73372 58.9826 6.90848 59.4687 6.83333C59.5139 6.82668 64.0447 6.17596 66.9012 9.33287C69.5557 12.2667 70.1203 17.7216 68.5698 25.1947C67.9421 24.7953 67.2335 24.5125 66.4742 24.3777V21.1018C66.4742 20.5103 66.1107 19.9731 65.5651 19.7446C65.3856 19.6692 61.1436 17.8315 58.8029 11.6459C58.6137 11.1457 58.1673 10.7879 57.6379 10.7124C57.1075 10.6367 56.5797 10.8551 56.2578 11.2821C51.3399 17.81 38.8802 19.4019 38.7555 19.4169C38.0185 19.5064 37.4643 20.1317 37.4643 20.8742V24.3777C36.6801 24.5168 35.9501 24.8145 35.3074 25.2349C33.9553 22.2699 33.349 19.4614 33.4977 16.8515H36.6102C39.1941 16.8515 41.2964 14.7492 41.2964 12.1653C41.2964 10.0963 39.948 8.33752 38.0843 7.71811C39.7949 6.1877 41.9265 4.91092 44.3771 3.96489ZM37.5846 32.8356C36.436 32.4571 35.6039 31.3757 35.6039 30.1018C35.6039 28.873 36.3791 27.8246 37.4648 27.4121V31.0029C37.4647 31.624 37.5085 32.2348 37.5846 32.8356ZM36.6108 10.4151C37.5762 10.4151 38.3614 11.2005 38.3614 12.1657C38.3614 13.1309 37.576 13.9163 36.6108 13.9163H27.2477C27.3152 13.4178 27.3344 12.9111 27.3031 12.4035C27.2604 11.7122 27.1244 11.0457 26.9099 10.4151H36.6108ZM27.9528 35.0242C26.853 34.6614 26.114 33.6394 26.114 32.481V17.0215C26.1496 16.9655 26.1833 16.9086 26.2173 16.8518H30.56C30.3997 20.2526 31.2876 23.8727 33.2134 27.6469C32.8642 28.3929 32.6683 29.2247 32.6683 30.1016C32.6683 33.2539 35.1902 35.8264 38.3218 35.9123C38.7101 36.9883 39.2233 38.0048 39.8419 38.9463L27.9528 35.0242ZM29.8038 49.0419L33.4075 39.9149L44.0149 43.4144C43.9986 43.6223 43.9877 43.8305 43.9877 44.0397C43.9877 48.4409 47.5683 52.0215 51.9695 52.0215C56.2513 52.0215 59.7552 48.6323 59.9423 44.3959L65.0819 45.8202C70.5276 47.3295 75.1879 51.0485 77.8679 56.0237L80.9931 61.8252C80.9547 61.8244 80.9168 61.8222 80.8784 61.8222H73.7512L71.2368 57.6103C70.8215 56.9142 69.9203 56.6867 69.2242 57.1022C68.5281 57.5177 68.3009 58.4187 68.7163 59.1149L70.3325 61.8222H68.0059C66.4845 60.4905 64.4979 59.801 62.4565 59.9161C61.3678 59.9775 60.3384 60.2648 59.4147 60.7316L47.8738 57.0322C46.6814 56.6498 45.412 56.755 44.2992 57.3279C43.1861 57.9005 42.3628 58.8724 41.9809 60.0644C41.5987 61.2563 41.7036 62.5258 42.2764 63.6388C42.8491 64.7517 43.8209 65.5753 45.013 65.9573L55.328 69.2637C55.4225 69.7062 55.5593 70.1377 55.7282 70.5561H36.163V53.2834C36.163 52.7392 35.8618 52.2396 35.3804 51.9853L29.8038 49.0419ZM56.7394 62.9565C56.0302 63.8853 55.5272 64.9793 55.2969 66.1708L45.9089 63.1616C45.4639 63.019 45.1007 62.7113 44.8868 62.2956C44.6729 61.8798 44.6337 61.4056 44.7764 60.9602C44.919 60.5149 45.2265 60.1519 45.6424 59.938C46.0578 59.7241 46.5324 59.6847 46.9777 59.8276L56.7394 62.9565ZM85.1389 86.1518H20.3413V83.0358C20.3413 82.4691 20.8024 82.0078 21.3693 82.0078H61.3152C62.126 82.0078 62.783 81.3506 62.783 80.54C62.783 79.7294 62.126 79.0722 61.3152 79.0722H25.3096C26.185 75.8435 29.1362 73.4915 32.6065 73.4915H72.8739C76.3441 73.4915 79.2952 75.8433 80.1705 79.0722H67.1865C66.3759 79.0722 65.7187 79.7294 65.7187 80.54C65.7187 81.3506 66.3759 82.0078 67.1865 82.0078H84.1109C84.6778 82.0078 85.1389 82.4691 85.1389 83.0358V86.1518Z" fill="black" />
  </g>
  <defs>
    <clipPath id="clip0_75_5230">
      <rect width="100" height="100" fill="white" />
    </clipPath>
  </defs>
</svg>