<svg width="100" height="100" viewBox="0 0 100 100" fill="none" xmlns="http://www.w3.org/2000/svg">
  <path fill-rule="evenodd" clip-rule="evenodd" d="M54.5898 16.113V24.9019H60.4492V16.113C60.4492 14.5021 59.1309 13.1833 57.5195 13.1833C55.9082 13.1835 54.5898 14.5017 54.5898 16.113Z" fill="#FAEF93" />
  <path fill-rule="evenodd" clip-rule="evenodd" d="M60.4492 24.9021H54.5898V49.8044L57.5195 52.7339L60.4492 49.8044V24.9021Z" fill="#EDECF5" />
  <path fill-rule="evenodd" clip-rule="evenodd" d="M60.4492 49.8045L57.5195 52.7342L54.5898 49.8045V16.1131C54.5898 14.5018 55.9082 13.1834 57.5195 13.1834C59.1309 13.1834 60.4492 14.502 60.4492 16.1131V49.8045ZM34.082 60.0588H80.957V7.32422H34.082V60.0588Z" fill="#FF5B5B" />
  <path fill-rule="evenodd" clip-rule="evenodd" d="M80.957 7.32422V60.0588H34.082V7.32422H80.957ZM34.082 65.9182H80.957V77.6369H34.082V65.9182ZM83.8867 83.4961C85.498 83.4961 86.8164 82.1777 86.8164 80.5664V4.39453C86.8164 2.7832 85.498 1.46484 83.8867 1.46484H31.1523C29.541 1.46484 28.2227 2.7832 28.2227 4.39453V80.5664C28.2227 82.1738 29.5371 83.4961 31.1523 83.4961H83.8867Z" fill="#FAEF93" />
  <path fill-rule="evenodd" clip-rule="evenodd" d="M34.082 65.9182H80.957V77.637H34.082V65.9182Z" fill="#FF5B5B" />
  <path fill-rule="evenodd" clip-rule="evenodd" d="M19.043 22.3633H28.2227V75.0979H19.043V22.3633Z" fill="#00DDC1" />
  <path fill-rule="evenodd" clip-rule="evenodd" d="M23.8281 22.3633H28.2227V75.0979H23.8281V22.3633Z" fill="#00959A" />
  <path fill-rule="evenodd" clip-rule="evenodd" d="M19.043 75.0979V22.3633H28.2227V16.5039H16.1133C14.502 16.5039 13.1836 17.8223 13.1836 19.4336V95.6055C13.1836 97.2168 14.502 98.5352 16.1133 98.5352H68.8477C70.459 98.5352 71.7773 97.2168 71.7773 95.6055V83.4961H65.918V92.6758H19.043V80.957H28.2488C28.2316 80.8293 28.2227 80.6988 28.2227 80.5664V75.0979H19.043Z" fill="#EDECF5" />
  <path fill-rule="evenodd" clip-rule="evenodd" d="M28.2488 80.957H19.043V92.6758H65.918V83.4961H31.1523C29.6734 83.4961 28.4412 82.3855 28.2488 80.957Z" fill="#00DDC1" />
  <path fill-rule="evenodd" clip-rule="evenodd" d="M28.249 80.957H23.8389C24.0428 84.8129 27.2461 87.8906 31.1525 87.8906H65.9182V83.4961H31.1525C29.6736 83.4961 28.4414 82.3855 28.249 80.957Z" fill="#00959A" />
  <path fill-rule="evenodd" clip-rule="evenodd" d="M35.5469 1.46484H31.1523C29.541 1.46484 28.2227 2.7832 28.2227 4.39453V80.5664C28.2227 82.1738 29.5371 83.4961 31.1523 83.4961H35.5469C33.9316 83.4961 32.6172 82.174 32.6172 80.5664V4.39453C32.6172 2.7832 33.9355 1.46484 35.5469 1.46484Z" fill="#F7BD83" />
  <path fill-rule="evenodd" clip-rule="evenodd" d="M34.082 7.32422H38.4766V60.0588H34.082V7.32422Z" fill="#AF3244" />
  <path fill-rule="evenodd" clip-rule="evenodd" d="M34.082 65.9182H38.4766V77.637H34.082V65.9182Z" fill="#AF3244" />
  <path fill-rule="evenodd" clip-rule="evenodd" d="M20.5078 16.5039H16.1133C14.502 16.5039 13.1836 17.8223 13.1836 19.4336V95.6055C13.1836 97.2129 14.498 98.5352 16.1133 98.5352H20.5078C18.8926 98.5352 17.5781 97.2131 17.5781 95.6055V19.4336C17.5781 17.8223 18.8965 16.5039 20.5078 16.5039ZM23.8281 22.3633H28.2227V16.5039H23.8281V22.3633ZM71.7773 87.8906V83.4961H65.918V87.8906H71.7773ZM23.8387 80.957H28.2488C28.2316 80.8293 28.2227 80.6988 28.2227 80.5664V75.0979H23.8281V80.5664C23.8281 80.6975 23.8318 80.8277 23.8387 80.957Z" fill="#B0C5E0" />
  <path d="M76.5625 20.5078H73.6328V17.5781H76.5625V20.5078ZM76.5625 14.6484H73.6328V11.7188H76.5625V14.6484Z" fill="white" />
  <path fill-rule="evenodd" clip-rule="evenodd" d="M54.5898 24.9021H60.4492V29.2966H54.5898V24.9021Z" fill="#B0C5E0" />
  <path d="M83.8867 0H31.1523C28.7291 0 26.7578 1.97148 26.7578 4.39453V15.0391H16.1133C13.6902 15.0391 11.7188 17.0105 11.7188 19.4336V95.6055C11.7188 98.0285 13.69 100 16.1133 100H54.1992V97.0703H16.1133C15.3057 97.0703 14.6484 96.4133 14.6484 95.6055V19.4336C14.6484 18.6258 15.3055 17.9688 16.1133 17.9688H26.7578V20.8984H17.5781V76.5627H26.7578V79.4922H17.5781V94.1406H67.3828V84.9609H70.3125V95.6055C70.3125 96.4133 69.6555 97.0703 68.8477 97.0703H62.9883V100H68.8477C71.2709 100 73.2422 98.0285 73.2422 95.6055V84.9609H83.8867C86.3098 84.9609 88.2812 82.9895 88.2812 80.5664V4.39453C88.2812 1.97148 86.3098 0 83.8867 0ZM20.5078 73.633V23.8281H26.7578V73.633H20.5078ZM64.4531 91.2109H20.5078V82.4219H27.1701C27.8711 83.9201 29.392 84.9609 31.1523 84.9609H64.4531V91.2109ZM85.3516 80.5664C85.3516 81.3742 84.6945 82.0312 83.8867 82.0312H31.1523C30.3445 82.0312 29.6875 81.3742 29.6875 80.5664V4.39453C29.6875 3.58672 30.3445 2.92969 31.1523 2.92969H83.8867C84.6943 2.92969 85.3516 3.58672 85.3516 4.39453V80.5664Z" fill="black" />
  <path d="M57.1289 97.0703H60.0586V100H57.1289V97.0703Z" fill="black" />
  <path d="M32.6172 14.6484H35.5469V8.78906H79.4922V58.5939H35.5469V17.5779H32.6172V61.5236H82.4219V5.85938H32.6172V14.6484Z" fill="black" />
  <path d="M32.6172 79.1016H82.4219V64.4534H32.6172V79.1016ZM35.5469 67.3831H79.4922V76.1719H35.5469V67.3831Z" fill="black" />
  <path d="M57.5195 11.7188C55.0963 11.7188 53.125 13.69 53.125 16.1131V23.4373H51.6602C49.2369 23.4373 47.2656 25.4086 47.2656 27.8316H50.1953C50.1953 27.024 50.8525 26.367 51.6602 26.367H53.125V50.4111L57.5195 54.8055L61.9141 50.4111V26.367H63.3789C64.1865 26.367 64.8438 27.024 64.8438 27.8316H67.7734C67.7734 25.4086 65.8021 23.4373 63.3789 23.4373H61.9141V16.1131C61.9141 13.69 59.9426 11.7188 57.5195 11.7188ZM56.0547 16.1131C56.0547 15.3055 56.7119 14.6484 57.5195 14.6484C58.3271 14.6484 58.9844 15.3055 58.9844 16.1131V23.4373H56.0547V16.1131ZM58.9844 49.1979L57.5195 50.6625L56.0547 49.1979V26.367H58.9844V49.1979Z" fill="black" />
  <path d="M41.4062 40.6731H50.1953V43.6028H41.4062V40.6731Z" fill="black" />
  <path d="M64.8438 46.5325H73.6328V49.4622H64.8438V46.5325Z" fill="black" />
  <path d="M64.8438 40.6731H73.6328V43.6028H64.8438V40.6731Z" fill="black" />
  <path d="M41.4062 34.814H50.1953V37.7437H41.4062V34.814Z" fill="black" />
</svg>