<svg width="100" height="100" viewBox="0 0 100 100" fill="none" xmlns="http://www.w3.org/2000/svg">
  <path d="M61.8132 68.2193V84.5964H35.979V70.7765V70.7456C35.9769 69.3482 35.5721 67.981 34.8134 66.8076C32.7843 62.5434 30.4689 60.415 30.4689 53.6817V40.8975L25.9828 25.5174C24.6819 19.7177 33.157 17.4164 34.8863 23.0568L40.2446 40.8647L49.026 36.0068C49.026 36.0033 49.083 5.51977 49.083 5.51977C49.1545 -0.0934466 57.8531 0.265779 57.8494 5.70397L57.8281 35.4417C57.8279 35.7082 58.2147 35.742 58.2606 35.4794L62.3699 10.0688C63.3014 4.53292 71.8422 6.222 71.0042 11.5953L64.7223 51.2592L58.4776 57.2884" fill="#D5836C" />
  <path d="M44.6511 53.7344C42.2182 53.7414 40.2412 51.7728 40.2383 49.3397L40.2488 33.3943C40.3039 27.7809 49.0037 28.1145 49.0156 33.5529L49.0382 49.3247C49.0435 51.7535 47.08 53.7274 44.6511 53.7344Z" fill="#C9725E" />
  <path d="M61.8133 68.2194C61.8643 65.5489 62.1526 63.0896 63.6083 60.7577L65.4005 57.8866C67.7457 53.5554 66.1356 48.1432 61.8044 45.798L50.2961 39.5667C49.4374 39.1997 48.4425 39.5896 48.0618 40.4422C46.3891 44.1886 47.7356 47.6033 51.3374 49.5676L57.4999 52.878" fill="#D5836C" />
  <path d="M61.8049 45.7977L50.2966 39.5665C49.4379 39.1994 48.4431 39.5893 48.0624 40.442C47.7856 41.0622 47.5914 41.6732 47.4766 42.2699V46.3826C52.4202 50.6571 57.0133 52.616 57.0133 52.616C57.0133 52.616 50.582 55.5406 50.3054 61.596V75.047H61.8141V68.2187C61.8651 65.5483 62.1534 63.089 63.6089 60.7571L65.4011 57.886C67.7461 53.5552 66.1362 48.1429 61.8049 45.7977Z" fill="#C9725E" />
  <path d="M65.1897 87.771H32.4727V76.8179C32.4727 75.84 33.2653 75.0471 34.2434 75.0471H63.4192C64.397 75.0471 65.1899 75.8398 65.1899 76.8179L65.1897 87.771Z" fill="#8D818C" />
  <path d="M63.419 75.0474H55.6055C56.5833 75.0474 57.3762 75.84 57.3762 76.8181V87.7712H65.1897V76.8181C65.1895 75.84 64.3968 75.0474 63.419 75.0474Z" fill="#7B727B" />
  <path d="M69.3527 98.5478V93.9357C69.3527 91.2207 67.7038 88.7794 65.1893 87.7712H32.472C29.9574 88.7796 28.3086 91.2209 28.3086 93.9357V98.5478H69.3527Z" fill="#A9E8AD" />
  <path d="M65.1885 87.771H57.375C59.8896 88.7793 61.5384 91.2207 61.5384 93.9355V98.5478H69.3519V93.9356C69.3521 91.2207 67.7033 88.7793 65.1885 87.771Z" fill="#7EDCB2" />
  <path d="M81.7569 81.3511C79.8203 81.4108 79.8209 84.2216 81.7569 84.2811C83.6933 84.2212 83.6929 81.4105 81.7569 81.3511Z" fill="black" />
  <path d="M89.1319 72.0129C87.1953 72.0727 87.1959 74.8834 89.1319 74.943C91.0683 74.8832 91.0679 72.0723 89.1319 72.0129Z" fill="black" />
  <path d="M82.7491 17.3442C80.8125 17.404 80.8131 20.2147 82.7491 20.2743C84.6855 20.2145 84.6851 17.4038 82.7491 17.3442Z" fill="black" />
  <path d="M93.8389 61.084C91.9024 61.1438 91.9029 63.9545 93.8389 64.014C95.7755 63.9543 95.7751 61.1436 93.8389 61.084Z" fill="black" />
  <path d="M27.5791 10.8937C29.5157 10.8339 29.5151 8.0232 27.5791 7.96362C25.6427 8.0234 25.6431 10.8341 27.5791 10.8937Z" fill="black" />
  <path d="M38.8292 6.20667C40.7657 6.1469 40.7652 3.33619 38.8292 3.27661C36.8926 3.33638 36.8932 6.14709 38.8292 6.20667Z" fill="black" />
  <path d="M18.2042 18.9247C20.1407 18.8649 20.1402 16.0542 18.2042 15.9946C16.2676 16.0544 16.2682 18.8651 18.2042 18.9247Z" fill="black" />
  <path d="M10.8291 28.2621C12.7657 28.2023 12.7651 25.3916 10.8291 25.332C8.89271 25.3918 8.8931 28.2025 10.8291 28.2621Z" fill="black" />
  <path d="M6.12206 39.1061C8.05863 39.0463 8.05805 36.2356 6.12206 36.176C4.18568 36.2358 4.18607 39.0465 6.12206 39.1061Z" fill="black" />
  <path d="M67.46 5.27333C64.6696 4.82132 61.528 6.23907 60.923 9.83504L59.3035 19.8494L59.3136 5.70502C59.3164 2.02545 56.2572 0.0195337 53.3773 0H53.3349C50.5213 0 47.6633 1.88286 47.6172 5.51691C47.5957 17.0174 47.5823 24.1798 47.574 28.6406C46.6368 28.1305 45.5701 27.8662 44.5278 27.8623H44.5039C42.1532 27.8623 39.7711 29.1771 39.0232 31.7234L36.2861 22.6271C35.1693 18.985 31.7576 17.8284 28.9635 18.5695C26.1297 19.3206 23.7046 22.0583 24.5524 25.8378C24.5592 25.8679 24.5668 25.8978 24.5754 25.9273L25.6867 29.7376C25.9131 30.5144 26.7273 30.9602 27.5033 30.734C28.2802 30.5074 28.7261 29.694 28.4998 28.9171L27.4023 25.1546C26.9632 23.1023 28.2425 21.7918 29.7142 21.4017C31.0505 21.0474 32.8394 21.3812 33.4826 23.4788L38.7788 41.0798L38.7733 49.3418C38.7772 52.541 41.47 55.2021 44.6553 55.1994C47.4162 55.1914 49.7329 53.2656 50.3449 50.6904C51.6185 51.4315 52.9443 52.0945 54.2421 52.7917C49.4065 55.8594 48.8676 61.2732 48.8443 61.5393C48.7734 62.3427 49.3655 63.049 50.1685 63.1234C50.9594 63.2008 51.6873 62.6081 51.7623 61.8032C51.7849 61.5703 52.3807 56.0821 57.9517 54.271C59.1482 53.8816 59.3041 52.1842 58.1918 51.587L52.0375 48.2813C49.3335 46.8063 48.0694 44.0155 49.3983 41.0392C49.4473 40.9292 49.5696 40.8718 49.6839 40.9015L61.1055 47.0859C64.6491 49.0045 66.0438 53.5703 64.1314 57.1504L62.3642 59.9812C60.6777 62.683 60.3983 65.5236 60.3473 68.1909C60.3472 68.2003 60.3474 68.2094 60.3472 68.2188V73.582H58.9204C56.9834 73.642 56.9848 76.4529 58.9204 76.5121H63.4175C63.5858 76.5121 63.723 76.6492 63.723 76.8176V86.3055H59.9414V80.4329C59.8815 78.4959 57.0706 78.4973 57.0114 80.4329V86.3055H53.5102V80.4329C53.4502 78.4959 50.6393 78.4973 50.5801 80.4329V86.3055H47.0789V80.4329C47.0189 78.4959 44.208 78.4973 44.1488 80.4329V86.3055H40.6476V80.4329C40.5876 78.4959 37.7767 78.4973 37.7175 80.4329V86.3055H33.9364V76.8176C33.9364 76.6492 34.0735 76.5121 34.2419 76.5121H51.1266C53.0636 76.4521 53.0622 73.6412 51.1266 73.582H37.4431V70.7772C37.0094 64.2271 31.6775 62.0946 31.9328 53.681V40.897C31.9328 40.7581 31.9131 40.62 31.8742 40.4866L30.9364 37.2717C30.7098 36.4949 29.8964 36.0491 29.1196 36.2753C28.3429 36.5019 27.8969 37.3153 28.1233 38.0919L29.0025 41.1062V53.681C29.0025 59.2317 30.5098 61.9418 32.1053 64.8112C33.0949 66.5903 34.5146 68.6636 34.5128 70.776V73.582C32.6917 73.5464 31.0059 74.9068 31.0059 76.8176V86.8474C28.4474 88.2626 26.8425 90.9463 26.8425 93.935V98.5477C26.9025 100.485 29.7134 100.483 29.7726 98.5477V93.9356C29.7726 91.8964 30.9411 90.0798 32.7718 89.2359H64.8872C66.7179 90.0796 67.8864 91.8962 67.8864 93.9356V98.5477C67.9464 100.485 70.7573 100.483 70.8165 98.5477V93.9356C70.8165 90.9469 69.2116 88.263 66.653 86.8479V76.8182C66.653 74.9333 65.0483 73.641 63.277 73.5826V68.238C63.327 65.6454 63.6142 63.5126 64.8497 61.5334L66.6419 58.6625C68.5042 55.6916 68.2878 51.5714 66.6284 48.5819L72.4506 11.8214C73.0179 8.18541 70.3027 5.73393 67.46 5.27333ZM44.6469 52.2693C43.0858 52.2133 41.7053 50.9535 41.7034 49.3408L41.709 40.89C41.7092 40.8732 41.7094 40.8564 41.709 40.8396L41.7139 33.4087C41.7383 30.9082 44.0613 30.7912 44.5168 30.7924C45.9752 30.7979 47.5467 31.6652 47.5508 33.5552L47.5582 38.7305C47.2096 39.027 46.9206 39.4027 46.7232 39.8449C45.3271 42.9723 45.6789 46.0064 47.5721 48.3595L47.5735 49.3281C47.5768 50.9451 46.2639 52.2646 44.6469 52.2693ZM69.5567 11.3663L64.1344 45.6021C63.5165 44.8619 52.0791 38.9395 50.9928 38.2783C50.8319 38.1953 50.6635 38.1304 50.4873 38.0841C50.4873 38.0841 50.5475 5.53742 50.5473 5.53859C50.5791 3.03867 52.8876 2.93475 53.358 2.93025C54.8162 2.94002 56.3851 3.81201 56.3838 5.70307L56.3625 35.4408C56.3619 36.3208 57.0225 37.042 57.899 37.1186C58.7749 37.1948 59.5512 36.5992 59.7061 35.7135L63.814 10.3119C64.2287 7.8465 66.5333 8.09126 66.9912 8.16569C68.4308 8.39892 69.8474 9.50121 69.5567 11.3663Z" fill="black" />
  <path d="M19.6983 82.2687C11.111 74.2962 5.04151 61.5256 5.86564 49.6013C5.92131 48.7949 5.31323 48.0956 4.50668 48.039C3.70209 47.9831 2.99907 48.5906 2.94261 49.3977C2.92816 49.6042 2.60663 54.5306 4.25938 61.3182C5.78282 67.575 9.35222 76.6613 17.7048 84.4158C18.4055 84.9622 19.0956 84.9366 19.7752 84.3389C20.3257 83.7462 20.2915 82.8192 19.6983 82.2687Z" fill="black" />
  <path d="M91.0153 27.1299C90.5892 26.4421 89.6862 26.2302 88.9984 26.6558C88.3106 27.0821 88.0985 27.9849 88.5243 28.6727C95.023 39.1641 94.1131 50.471 94.0983 50.6413C94.0244 51.4467 94.6173 52.1596 95.4228 52.2339C96.1554 52.3013 96.9492 51.6356 97.016 50.9093C97.0621 50.4084 98.0648 38.5105 91.0153 27.1299Z" fill="black" />
</svg>