<svg width="100" height="100" viewBox="0 0 100 100" fill="none" xmlns="http://www.w3.org/2000/svg">
  <path d="M42.2344 85.9453L33.7773 88.375L30.2461 76.0937L29.4922 73.4648L37.9492 71.0352L38.7031 73.6641L42.2344 85.9453Z" fill="#FFB69F" />
  <path d="M38.7031 73.6641C35.7109 74.5234 30.2852 76.082 30.2461 76.0937L29.4922 73.4648L37.9492 71.0352L38.7031 73.6641Z" fill="#EA8F7C" />
  <path d="M90.0704 11.7266L85.3086 22.0391C83.9961 24.8828 81.1524 26.7032 78.0235 26.7032H21.9766C18.8477 26.7032 16.0039 24.8828 14.6914 22.0391L9.92973 11.7266C9.23441 10.2188 9.89066 8.42973 11.4024 7.73441C12.9055 7.04066 14.6965 7.69262 15.3946 9.20707L20.1563 19.5157C20.4844 20.2266 21.1954 20.6836 21.9766 20.6836H78.0235C78.8047 20.6836 79.5157 20.2266 79.8438 19.5157L84.6055 9.20707C85.3008 7.69535 87.0899 7.0391 88.5977 7.73441C90.1106 8.43168 90.7649 10.2219 90.0704 11.7266Z" fill="#FFB69F" />
  <path d="M25.8281 20.6836H72.2617V26.7031H25.8281V20.6836Z" fill="#EA8F7C" />
  <path d="M69.5273 20.6836V28.5742C69.5273 29.2656 68.9727 29.8203 68.2812 29.8203H62.3008V51.1445H37.0234V29.8203H29.8086C29.1211 29.8203 28.5625 29.2656 28.5625 28.5742V20.6836H69.5273Z" fill="#72C2E9" />
  <path d="M62.3008 36.4531V51.1445H52.2344V44.0977C52.2344 39.7187 55.7969 36.1602 60.1758 36.1602C60.9102 36.1602 61.625 36.2617 62.3008 36.4531Z" fill="#4BA5C8" />
  <path d="M60.0287 20.6829C58.9775 25.8797 54.4205 29.8012 48.9705 29.8012C43.4869 29.8012 38.9053 25.8715 37.8916 20.6829H60.0287Z" fill="#4BA5C8" />
  <path d="M55.7732 49.9844V59.9102H37.2419L39.922 69.2473C40.1009 69.8699 39.7404 70.5195 39.1177 70.6973L37.9489 71.0312V71.0391L29.4919 73.4648L25.5974 59.9102C24.1677 54.9414 27.906 49.9844 33.0779 49.9844H55.7732Z" fill="#FC5D3D" />
  <path d="M55.7734 49.9844V59.9102H53.0391V57.7266C52.543 57.2305 52.2344 56.5469 52.2344 55.7891V49.9844H55.7734Z" fill="#B25035" />
  <path d="M41.1219 94.4812L32.4719 96.9667C30.6535 97.4894 28.7559 96.4386 28.2332 94.6203C27.8016 93.1183 28.441 91.5148 29.7875 90.7222L33.7762 88.3742L42.2328 85.9441L43.468 90.2425C43.9906 92.0609 42.9402 93.9585 41.1219 94.4812Z" fill="#EFEFEF" />
  <path d="M55.7734 54.7148H64.5742V70.0234H55.7734V54.7148Z" fill="#FFB69F" />
  <path d="M55.7734 54.7148H64.5742V58.5234H55.7734V54.7148Z" fill="#EA8F7C" />
  <path d="M64.3408 76.1656H56.0092C54.624 76.1656 53.501 75.0425 53.501 73.6574V72.3683C53.501 69.598 55.7467 67.3523 58.517 67.3523H61.8326C64.6029 67.3523 66.8486 69.598 66.8486 72.3683V73.6574C66.8486 75.0425 65.726 76.1656 64.3408 76.1656Z" fill="#EFEFEF" />
  <path d="M54.9707 55.7887V44.0981C54.9707 41.2239 57.3008 38.8938 60.175 38.8938C63.0492 38.8938 65.3793 41.2239 65.3793 44.0981V55.7887H54.9707Z" fill="#FC5D3D" />
  <path d="M58.7262 16.6133H39.3676C37.6707 16.6133 36.2949 15.2375 36.2949 13.5407C36.2949 11.8438 37.6707 10.468 39.3676 10.468H58.7262C60.423 10.468 61.7988 11.8438 61.7988 13.5407C61.7988 15.2375 60.423 16.6133 58.7262 16.6133Z" fill="#FFB69F" />
  <path d="M57.3504 10.4675V18.3875C57.3504 22.8949 53.8641 26.896 48.9691 26.8949C44.341 26.8937 40.5879 23.1441 40.5879 18.516V10.4675H57.3504Z" fill="#FFB69F" />
  <path d="M44.175 2.89966C42.1937 2.89966 40.5879 4.50591 40.5879 6.48677V10.4676H47.7625V6.48677C47.7621 4.50552 46.1562 2.89966 44.175 2.89966Z" fill="#0E0806" />
  <path d="M51.3498 2.89966H53.7635C55.7447 2.89966 57.3506 4.50591 57.3506 6.48677V10.4676H47.7627V6.48677C47.7623 4.50552 49.3686 2.89966 51.3498 2.89966Z" fill="#0E0806" />
  <path d="M16.2943 51.5606C18.3376 51.5606 19.9939 49.9042 19.9939 47.861C19.9939 45.8177 18.3376 44.1614 16.2943 44.1614C14.2511 44.1614 12.5947 45.8177 12.5947 47.861C12.5947 49.9042 14.2511 51.5606 16.2943 51.5606Z" fill="#0E0806" />
  <path d="M19.9951 35.7441V40.075L27.0369 41.8781V37.55L19.9951 35.7441Z" fill="#0E0806" />
  <path d="M73.7719 49.6153C75.8151 49.6153 77.4715 47.9589 77.4715 45.9157C77.4715 43.8724 75.8151 42.2161 73.7719 42.2161C71.7286 42.2161 70.0723 43.8724 70.0723 45.9157C70.0723 47.9589 71.7286 49.6153 73.7719 49.6153Z" fill="#13BF6D" />
  <path d="M85.0102 49.6153C87.0534 49.6153 88.7098 47.9589 88.7098 45.9157C88.7098 43.8724 87.0534 42.2161 85.0102 42.2161C82.9669 42.2161 81.3105 43.8724 81.3105 45.9157C81.3105 47.9589 82.9669 49.6153 85.0102 49.6153Z" fill="#13BF6D" />
  <path d="M77.4727 33.7984V38.1296L88.7102 34.5203V30.1921L77.4727 33.7984Z" fill="#13BF6D" />
  <path d="M31.2301 68.9031L30.9062 67.777C30.7574 67.2586 31.0566 66.7176 31.575 66.5687C32.0941 66.4191 32.6348 66.7195 32.7832 67.2375L33.107 68.3637C33.2559 68.882 32.9566 69.423 32.4383 69.5719C31.9258 69.7199 31.3801 69.4266 31.2301 68.9031ZM29.8277 64.0227L28.4137 59.1012C27.5141 55.9785 29.8766 52.9141 33.0781 52.9141H48.959C49.4984 52.9141 49.9355 53.3512 49.9355 53.8906C49.9355 54.4301 49.4984 54.8672 48.959 54.8672H33.0781C31.1719 54.8672 29.7504 56.6855 30.2906 58.5613L31.7047 63.4832C31.8535 64.0016 31.5543 64.5426 31.0359 64.6914C30.5234 64.8391 29.9781 64.5461 29.8277 64.0227Z" fill="#FFCBC3" />
  <path d="M89.0111 6.84731C87.015 5.92466 84.6428 6.7938 83.7209 8.79458L78.9595 19.1075C78.7916 19.47 78.4244 19.7043 78.0244 19.7043C71.7795 19.7043 69.5853 19.7063 58.2279 19.7063C58.2869 19.2719 58.3271 18.8333 58.3271 18.3879V17.5887H58.7252C60.9584 17.5887 62.7752 15.7739 62.7752 13.5426C62.7752 11.3094 60.9584 9.49224 58.7252 9.49224H58.3271V6.48716C58.3271 3.97075 56.2799 1.9231 53.7635 1.9231H51.3498C49.8943 1.9231 48.5986 2.6106 47.7623 3.67505C46.926 2.6106 45.6306 1.9231 44.1752 1.9231C41.6588 1.9231 39.6111 3.97036 39.6111 6.48716V9.49224H39.3685C37.1353 9.49224 35.3185 11.309 35.3185 13.5426C35.3185 15.7735 37.1353 17.5887 39.3685 17.5887H39.6111V18.5165C39.6111 18.9196 39.6396 19.3165 39.6896 19.7063C29.4713 19.7063 28.1392 19.7043 21.9783 19.7043C21.5783 19.7043 21.2111 19.47 21.0435 19.1086L16.281 8.79302C15.3635 6.81567 12.9963 5.91997 10.9912 6.84731C8.99079 7.77192 8.11931 10.1364 9.04431 12.1372L13.806 22.4512C15.2736 25.627 18.4814 27.679 21.9779 27.679H27.5842V28.5754C27.5842 29.8012 28.5814 30.7981 29.8068 30.7981H36.047V35.5313C36.047 36.0704 36.4845 36.5079 37.0236 36.5079C37.5627 36.5079 38.0002 36.0704 38.0002 35.5313V29.8204C38.0002 29.2813 37.5627 28.8438 37.0236 28.8438C37.0197 28.8438 37.0162 28.845 37.0123 28.845H29.8072C29.656 28.845 29.5377 28.7266 29.5377 28.5754C29.5377 26.8711 29.5377 23.3723 29.5377 21.659H40.1564C41.451 25.275 44.9119 27.8704 48.9689 27.8715H48.9717C53.0947 27.8715 56.447 25.3004 57.7525 21.659H68.5521V28.5754C68.5521 28.7243 68.431 28.845 68.2826 28.845H62.301C61.7615 28.845 61.3244 29.2821 61.3244 29.8215V38.0286C60.9513 37.9583 60.5681 37.9172 60.1752 37.9172C56.767 37.9172 53.9943 40.6899 53.9943 44.0977V49.0086H38.0002V43.3438C38.0002 42.8047 37.5627 42.3672 37.0236 42.3672C36.4845 42.3672 36.047 42.8047 36.047 43.3438V49.0086H33.0736C27.2447 49.0086 23.0556 54.5868 24.6607 60.1825C29.3427 76.4833 27.1357 68.7997 32.6291 87.9161L29.2924 89.8801C27.5615 90.8993 26.7404 92.959 27.2947 94.8895C27.9685 97.234 30.4205 98.5719 32.7416 97.9047L41.3916 95.4192C43.7295 94.7473 45.0791 92.311 44.4068 89.9723C42.4322 83.1 40.2857 75.6313 39.1564 71.7016L39.3857 71.6364C40.5326 71.3102 41.1908 70.118 40.8631 68.9766L38.5392 60.8891H54.8002V67.6754C53.4162 68.7743 52.524 70.4672 52.524 72.3676V73.6567C52.524 75.5782 54.0869 77.1411 56.0084 77.1411C56.0123 77.1411 56.0158 77.1399 56.0197 77.1399H57.3431C57.8822 77.1399 58.3197 76.7024 58.3197 76.1633C58.3197 75.6243 57.8822 75.1868 57.3431 75.1868H56.0072C56.0053 75.1868 56.0037 75.1872 56.0021 75.1872C55.1607 75.1836 54.4767 74.4985 54.4767 73.6563V72.3672C54.4767 70.1399 56.2888 68.3278 58.5162 68.3278H61.8314C64.0588 68.3278 65.8709 70.1399 65.8709 72.3672V73.6442C65.8709 73.6465 65.8701 73.6489 65.8701 73.6512V73.6551C65.874 74.3114 65.4521 74.8973 64.831 75.1082C64.3193 75.2801 64.0459 75.8348 64.2138 76.3465C64.376 76.8149 64.8814 77.1356 65.4521 76.9598C66.8654 76.4848 67.8166 75.1633 67.8224 73.6692C67.8224 73.6649 67.8236 73.6606 67.8236 73.6559V72.3668C67.8236 70.4665 66.9314 68.7735 65.5474 67.6747V56.7465C66.0053 56.6657 66.3541 56.2684 66.3541 55.7872V44.0965C66.3541 41.82 65.1131 39.8317 63.2756 38.7594V30.7985H68.2806C69.5064 30.7985 70.5033 29.8012 70.5033 28.5758V27.6793H78.0103C78.0142 27.6793 78.0178 27.6805 78.0217 27.6805H78.0256C80.5373 27.6766 82.9474 26.618 84.6467 24.7704C85.0135 24.3797 84.9869 23.7543 84.592 23.3915C84.2092 23.0399 83.5607 23.0672 83.2092 23.4461C81.8826 24.8934 79.9916 25.7247 78.0295 25.727C78.0271 25.727 78.0248 25.7262 78.0224 25.7262H70.5033V21.6575H78.0224C79.1806 21.6575 80.2435 20.9786 80.7303 19.927L85.4924 9.61255C85.9607 8.59692 87.1693 8.14849 88.1885 8.61958C89.1849 9.08208 89.6564 10.2797 89.1873 11.3075C89.1857 11.3106 89.1834 11.3133 89.1818 11.3165L86.6506 16.8047C86.4303 17.2774 86.6174 17.8598 87.1271 18.0977C87.5838 18.3184 88.1881 18.1278 88.424 17.6211L90.9506 12.1469C90.9521 12.1434 90.9545 12.1407 90.956 12.1375C91.8908 10.1208 90.9771 7.75942 89.0111 6.84731ZM21.9783 25.7258C19.2404 25.7258 16.7287 24.1188 15.5795 21.6321L10.8177 11.318C10.3459 10.2977 10.7892 9.09263 11.8115 8.62036C12.826 8.15122 14.0381 8.59888 14.5088 9.61333L19.2709 19.9282C19.7572 20.9786 20.8201 21.6575 21.9783 21.6575H27.5845V25.7258H21.9783ZM60.822 13.5422C60.822 14.6965 59.8814 15.6352 58.7252 15.6352H58.3271V11.4454H58.7252C59.8814 11.4454 60.822 12.386 60.822 13.5422ZM51.3498 3.87622H53.7635C55.2029 3.87622 56.374 5.04731 56.374 6.48716V9.49146H48.7392V6.48716C48.7388 5.04731 49.9099 3.87622 51.3498 3.87622ZM41.5646 6.48677C41.5646 5.04692 42.7357 3.87583 44.1756 3.87583C45.615 3.87583 46.7861 5.04692 46.7861 6.48677V9.49106H41.5646V6.48677ZM39.3685 15.6352C38.2123 15.6352 37.2717 14.6965 37.2717 13.5422C37.2717 12.386 38.2123 11.445 39.3685 11.445H39.6111V15.6352H39.3685ZM48.9717 25.9184C48.9709 25.9184 48.9701 25.9184 48.9693 25.9184C44.8861 25.9172 41.5642 22.5965 41.5642 18.5161V11.4442H47.7623H56.3736V18.3875C56.374 22.4442 53.2443 25.9184 48.9717 25.9184ZM40.8521 93.5426L32.2021 96.0282C30.9037 96.4016 29.5447 95.6489 29.1717 94.3508C28.8631 93.2766 29.3201 92.1309 30.283 91.5637L34.165 89.2786C35.9642 88.7614 39.7013 87.6875 41.5638 87.1524L42.5295 90.5126C42.9037 91.8129 42.1533 93.1688 40.8521 93.5426ZM34.4451 87.1661L30.7006 74.1352L37.2806 72.2469L41.0244 85.275C37.1064 86.4012 38.5006 86.0004 34.4451 87.1661ZM37.2428 58.9368C36.592 58.9368 36.1256 59.561 36.3041 60.1829L38.9861 69.5165C39.0158 69.6196 38.9568 69.7282 38.8517 69.7582C37.7338 70.0762 39.6521 69.5286 30.1607 72.2563L26.5381 59.6442C25.2892 55.2903 28.5517 50.9622 33.0736 50.9622H53.9943V55.7887C53.9943 56.27 54.3428 56.6672 54.8006 56.7481V58.9368H37.2428ZM61.8326 66.3758H58.5174C57.9037 66.3758 57.3115 66.4692 56.7537 66.6415V56.7653H63.5959V66.6415C63.0381 66.4692 62.4459 66.3758 61.8326 66.3758ZM64.4025 54.8122H55.947V44.0981C55.947 41.7672 57.8435 39.8708 60.1748 39.8708C62.506 39.8708 64.4025 41.7672 64.4025 44.0981V54.8122Z" fill="black" />
  <path d="M86.7895 21.1685C87.0098 20.6892 86.8063 20.1017 86.3129 19.8716C85.8364 19.6528 85.2348 19.8755 85.0161 20.3482C84.7895 20.8403 85.0043 21.4185 85.4926 21.645C85.9458 21.8646 86.5532 21.6763 86.7895 21.1685Z" fill="black" />
  <path d="M37.0234 40.4146C37.5628 40.4146 38 39.9773 38 39.438C38 38.8986 37.5628 38.4614 37.0234 38.4614C36.4841 38.4614 36.0469 38.8986 36.0469 39.438C36.0469 39.9773 36.4841 40.4146 37.0234 40.4146Z" fill="black" />
  <path d="M61.25 77.1411C61.7893 77.1411 62.2266 76.7039 62.2266 76.1646C62.2266 75.6252 61.7893 75.188 61.25 75.188C60.7107 75.188 60.2734 75.6252 60.2734 76.1646C60.2734 76.7039 60.7107 77.1411 61.25 77.1411Z" fill="black" />
  <path d="M51.3217 18.9902C50.7822 18.9902 50.3451 19.4273 50.3451 19.9668C50.3451 20.7254 49.7275 21.343 48.9689 21.343C48.2104 21.343 47.5928 20.7254 47.5928 19.9668C47.5928 19.4273 47.1557 18.9902 46.6162 18.9902C46.0768 18.9902 45.6396 19.4273 45.6396 19.9668C45.6396 21.8027 47.133 23.2961 48.9689 23.2961C50.8049 23.2961 52.2982 21.8027 52.2982 19.9668C52.2982 19.4277 51.8607 18.9902 51.3217 18.9902Z" fill="black" />
  <path d="M45.9316 14.8071V14.6165C45.9316 14.077 45.4945 13.6399 44.9551 13.6399C44.4156 13.6399 43.9785 14.077 43.9785 14.6165V14.8071C43.9785 15.3465 44.4156 15.7836 44.9551 15.7836C45.4945 15.7836 45.9316 15.3465 45.9316 14.8071Z" fill="black" />
  <path d="M52.9834 13.6404C52.4439 13.6404 52.0068 14.0775 52.0068 14.6169V14.8076C52.0068 15.347 52.4439 15.7841 52.9834 15.7841C53.5229 15.7841 53.96 15.347 53.96 14.8076V14.6169C53.96 14.0775 53.5229 13.6404 52.9834 13.6404Z" fill="black" />
  <path d="M48.9697 18.5868C49.5092 18.5868 49.9463 18.1497 49.9463 17.6102V14.7122C49.9463 14.1727 49.5092 13.7356 48.9697 13.7356C48.4303 13.7356 47.9932 14.1727 47.9932 14.7122V17.6102C47.9932 18.1497 48.4303 18.5868 48.9697 18.5868Z" fill="black" />
  <path d="M20.9713 41.3333L26.7943 42.8243C27.4107 42.9817 28.0131 42.5169 28.0131 41.8782V37.5501C28.0131 37.104 27.7111 36.7149 27.2791 36.604L20.2373 34.7981C19.6193 34.6407 19.0182 35.1067 19.0182 35.7442V44.068C18.2502 43.5149 17.3111 43.1852 16.2943 43.1852C13.7158 43.1852 11.6182 45.2829 11.6182 47.8614C11.6182 50.4399 13.7158 52.5376 16.2943 52.5376C18.8678 52.5376 20.9615 50.4481 20.9697 47.8766C20.9697 47.8716 20.9713 47.8665 20.9713 47.8614V41.3333ZM20.9713 37.0028L26.06 38.3079V40.62L20.9713 39.3173V37.0028ZM16.2943 50.5841C14.7928 50.5841 13.5713 49.3626 13.5713 47.861C13.5713 46.3595 14.7928 45.138 16.2943 45.138C17.7959 45.138 19.0174 46.3595 19.0174 47.861C19.0174 49.3626 17.7959 50.5841 16.2943 50.5841Z" fill="black" />
  <path d="M88.4117 29.2624L77.1738 32.8687C76.7695 32.9984 76.4957 33.3742 76.4957 33.7984V42.1222C75.7277 41.5691 74.7887 41.2394 73.7719 41.2394C71.1934 41.2394 69.0957 43.3371 69.0957 45.9156C69.0957 48.4941 71.1934 50.5917 73.7719 50.5917C76.3449 50.5917 78.4387 48.5023 78.4473 45.9308C78.4473 45.9257 78.4488 45.9206 78.4488 45.9156V38.8417L87.7336 35.8601V42.1226C86.9656 41.5695 86.0266 41.2398 85.0098 41.2398C82.4312 41.2398 80.3336 43.3374 80.3336 45.916C80.3336 48.4945 82.4312 50.5921 85.0098 50.5921C87.5832 50.5921 89.677 48.5027 89.6852 45.9312C89.6852 45.9261 89.6867 45.921 89.6867 45.916C89.6867 42.3511 89.6867 33.9941 89.6867 30.1929C89.6867 29.5316 89.0422 29.0601 88.4117 29.2624ZM73.7723 48.6386C72.2707 48.6386 71.0492 47.4171 71.0492 45.9156C71.0492 44.414 72.2707 43.1925 73.7723 43.1925C75.2738 43.1925 76.4953 44.414 76.4953 45.9156C76.4953 47.4171 75.2738 48.6386 73.7723 48.6386ZM78.4488 34.5105L87.7336 31.5312V33.8085L78.4488 36.7902V34.5105ZM85.0098 48.6386C83.5082 48.6386 82.2867 47.4171 82.2867 45.9156C82.2867 44.414 83.5082 43.1925 85.0098 43.1925C86.5113 43.1925 87.7328 44.414 87.7328 45.9156C87.7328 47.4171 86.5113 48.6386 85.0098 48.6386Z" fill="black" />
</svg>