<svg width="100" height="100" viewBox="0 0 100 100" fill="none" xmlns="http://www.w3.org/2000/svg">
  <g clip-path="url(#clip0_75_5276)">
    <path d="M85.5638 30.0043C84.1603 30.0043 82.9304 28.9797 82.7163 27.5522C81.9236 22.268 77.4876 14.8744 70.8271 11.5785C64.4487 8.42294 58.2109 7.19994 52.7895 8.04223C47.7795 8.82043 43.7058 11.3305 41.0081 15.3016C39.7063 17.2189 39.7025 19.143 40.9989 20.7216C43.2731 23.491 47.4599 23.401 50.601 22.0827C52.0687 21.467 53.7588 22.1551 54.3757 23.6192C54.9926 25.0841 54.3039 26.7709 52.8362 27.3866C45.7377 30.3667 39.5366 28.0176 36.5392 24.3684C33.6176 20.8101 33.5014 16.0989 36.2365 12.0729C39.8546 6.74599 45.2721 3.38599 51.9028 2.35602C58.5067 1.33063 65.937 2.73673 73.3879 6.42326C81.89 10.6294 87.3847 19.8076 88.4182 26.7C88.6544 28.2716 87.5689 29.7365 85.9942 29.9715C85.8497 29.9936 85.706 30.0043 85.5638 30.0043Z" fill="#FF9ECA" />
    <path d="M51.3626 2.44678C45.5697 3.46759 40.7339 6.29582 37.2588 10.6804C40.0123 11.0337 42.1535 11.6799 43.6525 12.2643C46.1147 10.0411 49.2115 8.59762 52.789 8.0422C54.6183 7.75762 56.5416 7.70955 58.5314 7.89113C56.6379 5.80449 54.2009 3.94443 51.3626 2.44678Z" fill="#E8748F" />
    <path d="M7.78849 38.7758C7.37646 38.2684 7.47736 37.5169 8.0117 37.1408C10.5389 35.3639 12.8146 32.4609 12.9492 29.8425C13.0248 28.3639 12.6786 26.2918 10.6001 24.8155C7.33212 22.4954 5.8667 18.8333 6.68082 15.0193C7.67994 10.3409 12.4485 4.59828 22.8356 2.51392C34.14 0.244933 42.2973 2.07981 47.1499 4.01844C53.3303 6.48809 57.858 10.6835 59.2623 15.2413C60.8523 20.4019 58.3893 25.0558 52.8357 27.3866C51.1295 28.1022 49.1244 27.057 48.8507 25.0787C48.6734 23.7947 49.4348 22.5755 50.6303 22.0704C53.3922 20.9016 54.4418 19.1735 53.7515 16.932C53.0589 14.6844 50.398 11.5144 45.0072 9.36057C40.8823 7.71185 33.8847 6.16536 23.9731 8.15435C16.805 9.59403 12.9553 13.2417 12.32 16.2187C11.9852 17.785 12.5463 19.1361 13.9414 20.1272C17.178 22.4244 18.9148 26.0728 18.7069 30.1362C18.476 34.6429 15.9419 38.9482 11.9952 41.6712C11.3209 42.1358 10.3983 41.9901 9.88227 41.3545L7.78849 38.7758Z" fill="#FF9ECA" />
    <path d="M22.2567 63.0787C20.536 63.0787 18.8733 62.7384 17.3613 62.0388C13.1798 60.104 10.7925 55.7491 10.8116 50.0903C10.8178 48.3287 12.2503 46.9043 14.0138 46.9043H14.0253C15.7942 46.9104 17.2229 48.3463 17.2176 50.1117C17.2099 52.3044 17.6969 55.1471 20.0559 56.2389C22.3752 57.3124 25.8052 56.4403 28.5908 54.0706C29.9362 52.9254 31.9581 53.0857 33.1055 54.4292C34.2537 55.7735 34.0924 57.7907 32.7463 58.9359C29.5662 61.6413 25.7922 63.0787 22.2567 63.0787Z" fill="#F7E37E" />
    <path d="M74.4477 59.7865C73.7872 59.7865 73.1191 59.7522 72.4433 59.6828C70.6836 59.5027 69.4039 57.9326 69.5843 56.1763C69.7655 54.42 71.3364 53.1428 73.0977 53.3237C76.4123 53.6632 79.4448 52.7148 81.8596 50.5801C85.1734 47.6512 87.1365 42.6776 87.245 36.9349C87.2779 35.1695 88.7418 33.7725 90.5076 33.7985C92.2758 33.832 93.6831 35.29 93.6494 37.0547C93.5073 44.5811 90.7584 51.2553 86.1068 55.3668C82.8121 58.2782 78.8149 59.7865 74.4477 59.7865Z" fill="#F7E37E" />
    <path d="M38.623 98.5357C37.7714 98.5357 36.9229 98.1992 36.2922 97.5324C35.0783 96.2484 35.1372 94.225 36.4237 93.0135C42.5537 87.2418 41.9444 81.239 41.2389 74.2894C41.0287 72.218 40.8116 70.0764 40.8116 67.976C40.8116 66.2106 42.2456 64.7793 44.0145 64.7793C45.7834 64.7793 47.2175 66.2106 47.2175 67.976C47.2175 69.7537 47.4094 71.6435 47.6127 73.6447C48.3397 80.8118 49.2448 89.7306 40.82 97.6644C40.2008 98.2465 39.4111 98.5357 38.623 98.5357Z" fill="#F7E37E" />
    <path d="M66.1635 95.4357C65.5489 95.4357 64.9274 95.2595 64.3793 94.891C62.9116 93.906 62.5217 91.9193 63.5086 90.4545C65.9494 86.832 66.8469 83.4568 66.1757 80.4225C65.1972 76.0013 61.0624 72.7016 57.7662 70.7111C56.2526 69.7978 55.768 67.8325 56.6838 66.3218C57.5996 64.8112 59.568 64.3268 61.0823 65.2408C67.3445 69.0219 71.2691 73.7949 72.4303 79.0439C73.4952 83.852 72.2812 88.8912 68.8245 94.022C68.2061 94.9398 67.1939 95.4357 66.1635 95.4357Z" fill="#F7E37E" />
    <path d="M38.3125 35.1122C38.3125 38.5889 35.4887 41.408 32.0044 41.408C28.5209 41.408 25.6963 38.5889 25.6963 35.1122C25.6963 31.6355 28.5209 28.8164 32.0044 28.8164C35.4887 28.8164 38.3125 31.6355 38.3125 35.1122Z" fill="#38404F" />
    <path d="M76.3182 53.982C76.3182 39.1916 65.3043 19.304 51.7188 19.304C38.1333 19.304 27.1201 39.1916 27.1201 53.982C27.1201 68.7724 38.1333 78.7242 51.7188 78.7242C65.3043 78.7242 76.3182 68.7724 76.3182 53.982Z" fill="#F7E37E" />
    <path d="M40.8661 23.623C32.7234 30.2927 27.1201 43.4328 27.1201 53.982C27.1201 68.7724 38.1333 78.7243 51.7188 78.7243C52.7263 78.7243 53.7201 78.6686 54.6963 78.561C30.674 70.6851 36.6021 37.8313 40.8661 23.623Z" fill="#F2BE6A" />
    <path d="M44.9281 48.2249C44.9281 45.885 42.5416 43.9883 39.5978 43.9883C36.6539 43.9883 34.2666 45.885 34.2666 48.2249C34.2666 50.5648 36.6539 52.4623 39.5978 52.4623C42.5416 52.4623 44.9281 50.5648 44.9281 48.2249Z" fill="#FF9ECA" />
    <path d="M73.8227 48.2249C73.8227 45.885 71.4353 43.9883 68.4915 43.9883C65.5477 43.9883 63.1611 45.885 63.1611 48.2249C63.1611 50.5648 65.5477 52.4623 68.4915 52.4623C71.4353 52.4623 73.8227 50.5648 73.8227 48.2249Z" fill="#FF9ECA" />
    <path d="M51.7188 19.304C43.651 19.304 36.4906 26.3177 32.0049 35.1121C37.8444 36.1512 48.3783 35.6797 54.1849 30.5551C55.7566 31.9673 61.9072 36.4335 71.0582 34.3927C66.5542 25.9385 59.5657 19.304 51.7188 19.304Z" fill="#4A5461" />
    <path d="M38.0951 35.5561C38.8626 30.9655 39.9068 26.8235 40.8662 23.6252C37.3605 26.497 34.3249 30.565 32.0049 35.1121C33.7119 35.4158 35.8217 35.5889 38.0951 35.5561Z" fill="#38404F" />
    <path d="M91.1416 39.5662L84.5537 40.7259C83.9903 40.825 83.4529 40.4489 83.3535 39.8866L81.0335 26.7571C80.9341 26.1949 81.311 25.6585 81.8744 25.5593L88.4622 24.3997C89.0256 24.3005 89.563 24.6766 89.6624 25.2389L91.9817 38.3684C92.0811 38.9307 91.705 39.467 91.1416 39.5662Z" fill="#A3D9D7" />
    <path d="M76.3182 53.982C76.3182 52.9696 76.2647 51.932 76.1638 50.8799C68.7588 51.2408 70.3213 59.8849 51.7188 59.8849C33.1163 59.8849 34.6788 51.2408 27.2738 50.8799C27.1729 51.9327 27.1201 52.9696 27.1201 53.982C27.1201 68.7724 38.1333 78.7242 51.7188 78.7242C65.3043 78.7242 76.3182 68.7724 76.3182 53.982Z" fill="#F8B8BD" />
    <path d="M37.6349 57.0597C33.0085 54.5031 31.8604 51.1034 27.2745 50.8799C27.1736 51.9327 27.1201 52.9696 27.1201 53.982C27.1201 68.7724 38.1341 78.7242 51.7196 78.7242C52.7271 78.7242 53.7208 78.6685 54.697 78.561C44.0095 75.0568 39.2501 66.6102 37.6349 57.0597Z" fill="#F0A8AD" />
    <path d="M72.1684 68.233C65.7778 66.6262 61.922 69.4072 51.7191 69.4072C41.5162 69.4072 37.6604 66.6262 31.2705 68.233C35.6843 74.8057 43.1949 78.7242 51.7191 78.7242C60.2433 78.7242 67.7546 74.8057 72.1684 68.233Z" fill="#FF9ECA" />
    <path d="M41.6989 68.4886C37.8997 67.8584 35.0208 67.29 31.2705 68.233C35.6843 74.8057 43.1949 78.7242 51.7191 78.7242C52.7266 78.7242 53.7196 78.6677 54.695 78.5602C48.6155 76.5666 44.4539 72.9747 41.6989 68.4886Z" fill="#E8748F" />
    <path d="M35.8914 61.1177C35.8914 61.9104 35.2478 62.5536 34.4535 62.5536C33.6593 62.5536 33.0156 61.9104 33.0156 61.1177C33.0156 60.3258 33.6593 59.6826 34.4535 59.6826C35.2478 59.6826 35.8914 60.3258 35.8914 61.1177Z" fill="#F8B8BD" />
    <path d="M72.443 59.6827C72.443 60.4754 71.7993 61.1185 71.0051 61.1185C70.2108 61.1185 69.5664 60.4754 69.5664 59.6827C69.5664 58.89 70.2108 58.2476 71.0051 58.2476C71.7993 58.2476 72.443 58.89 72.443 59.6827Z" fill="#0E0806" />
    <path d="M54.0445 65.2391C54.0445 66.0318 53.4009 66.6742 52.6066 66.6742C51.8124 66.6742 51.168 66.0318 51.168 65.2391C51.168 64.4464 51.8124 63.8032 52.6066 63.8032C53.4009 63.8032 54.0445 64.4464 54.0445 65.2391Z" fill="#0E0806" />
    <path d="M45.7164 73.9566C45.7164 74.7493 45.0727 75.3917 44.2785 75.3917C43.4843 75.3917 42.8398 74.7493 42.8398 73.9566C42.8398 73.1639 43.4843 72.5215 44.2785 72.5215C45.0727 72.5215 45.7164 73.1639 45.7164 73.9566Z" fill="#0E0806" />
    <path d="M62.2 72.5215C62.2 73.3135 61.5564 73.9566 60.7621 73.9566C59.9679 73.9566 59.3242 73.3135 59.3242 72.5215C59.3242 71.7289 59.9679 71.0857 60.7621 71.0857C61.5564 71.0857 62.2 71.7289 62.2 72.5215Z" fill="#0E0806" />
    <path d="M92.4894 32.8097L91.1073 24.9849C90.9169 23.9069 90.0554 23.1134 89.028 22.9517C87.1162 16.9901 82.223 9.15998 74.039 5.11104C66.316 1.28947 58.5837 -0.163174 51.6763 0.909522C49.8959 1.18571 48.1752 1.62974 46.5516 2.22712C41.4214 0.393773 33.3651 -1.09396 22.5468 1.07813C17.5146 2.08751 13.3851 3.97655 10.2716 6.6911C7.64652 8.98069 5.86157 11.8303 5.2462 14.7142C4.30595 19.1179 5.98923 23.34 9.74948 26.0096C10.9833 26.8854 11.5665 28.1496 11.4832 29.7678C11.3846 31.6866 9.61035 34.2257 7.16722 35.9438C6.58243 36.3551 6.19104 36.9959 6.09243 37.7039C5.99306 38.4142 6.19563 39.1406 6.64817 39.6983L8.74195 42.2762C9.34127 43.0148 10.2288 43.4046 11.1224 43.4046C11.7156 43.4046 12.3126 43.2322 12.8294 42.8759C14.2099 41.9245 15.4422 40.7885 16.4933 39.4991C17.0055 38.872 16.9107 37.9488 16.2816 37.4384C15.6532 36.928 14.729 37.0226 14.2168 37.6498C13.3408 38.724 12.3126 39.6716 11.1606 40.4665C11.1232 40.4925 11.0589 40.4765 11.023 40.4322L9.15093 38.1266C11.5382 36.3573 14.2451 33.2369 14.4148 29.9181C14.5493 27.3104 13.4967 25.075 11.4511 23.6223C8.67468 21.6516 7.42866 18.5495 8.11665 15.3253C9.01868 11.1017 13.4348 5.89535 23.1255 3.95061C34.076 1.75257 41.9374 3.51421 46.6043 5.37884C48.9977 6.33557 51.1206 7.55704 52.8788 8.95398C52.9437 9.01731 53.0148 9.07453 53.0905 9.12412C55.4602 11.0597 57.1344 13.3188 57.8598 15.6725C58.2374 16.8985 58.3536 18.0826 58.2114 19.2102C57.2911 18.8188 56.36 18.5075 55.422 18.2832C55.4312 17.7095 55.3433 17.1152 55.1545 16.5025C54.7707 15.2551 52.9422 10.9537 45.5524 8.00107C41.2433 6.27911 33.9506 4.65862 23.6836 6.71933C15.3275 8.39627 11.5665 12.7206 10.8847 15.9135C10.4252 18.065 11.2088 19.9854 13.0916 21.3213C15.9108 23.3225 17.4228 26.5085 17.2409 30.0623C17.2019 30.8336 17.085 31.6126 16.8939 32.3778C16.6974 33.1629 17.1759 33.9579 17.9625 34.1532C18.0818 34.183 18.2018 34.1975 18.3188 34.1975C18.9769 34.1975 19.5755 33.7527 19.7421 33.0866C19.9783 32.1383 20.1236 31.1709 20.1725 30.2111C20.4064 25.6372 18.4457 21.5273 14.7924 18.9333C13.8736 18.281 13.5441 17.5157 13.7559 16.5239C14.2734 14.097 17.7829 10.8919 24.2622 9.59104C29.2219 8.5954 33.411 8.51453 36.8456 8.88608C36.1943 9.63224 35.5842 10.4226 35.0209 11.2512C31.9073 15.8357 32.0541 21.2175 35.4038 25.2977C35.6469 25.593 35.9114 25.8783 36.1881 26.1553C35.718 26.7023 35.2563 27.2776 34.8022 27.875C33.914 27.5332 32.9668 27.3516 32.0044 27.3516C27.7167 27.3516 24.2286 30.8329 24.2286 35.1122C24.2286 37.7581 25.5717 40.1759 27.7358 41.5942C26.3889 45.7705 25.652 50.03 25.652 53.9813C25.652 54.0874 25.6543 54.1919 25.6558 54.2972C23.8127 55.2623 21.9544 55.5026 20.6725 54.9098C19.019 54.1446 18.6788 51.8809 18.6842 50.1162C18.6933 47.5459 16.6049 45.4478 14.0135 45.4394C11.4473 45.4394 9.35274 47.523 9.34356 50.085C9.32292 56.3403 12.0198 61.182 16.744 63.3678C18.4288 64.1475 20.2841 64.5427 22.2564 64.5427C23.9435 64.5427 25.6458 64.2551 27.3352 63.6867C28.6279 67.2054 30.6407 70.3579 33.2993 72.9473C35.2869 74.8836 37.5748 76.4576 40.0768 77.6386C40.4743 82.7747 40.2136 87.431 35.4161 91.9484C34.5087 92.8029 33.9896 93.9587 33.9529 95.2031C33.917 96.4474 34.3688 97.6323 35.2242 98.5379C36.1033 99.4672 37.3417 100 38.6221 100C39.8184 100 40.9567 99.5488 41.8266 98.7294C48.4412 92.5015 49.5749 85.6823 49.526 80.1044C50.2506 80.1594 50.9814 80.1891 51.7191 80.1891C55.8707 80.1891 59.8351 79.3041 63.3714 77.6333C64.0509 78.6571 64.5111 79.6978 64.742 80.7384C65.323 83.3653 64.4981 86.359 62.2905 89.6367C61.5941 90.6697 61.3426 91.9117 61.5826 93.134C61.8226 94.3562 62.5244 95.4114 63.5594 96.1064C64.333 96.6252 65.2335 96.8999 66.1631 96.8999C67.7225 96.8999 69.1726 96.1293 70.0426 94.8384C70.2054 94.5958 70.3644 94.3532 70.5188 94.1113C70.953 93.4277 70.7497 92.5229 70.0655 92.0895C69.3798 91.6554 68.4739 91.8583 68.0397 92.5419C67.8991 92.7624 67.7546 92.9837 67.6063 93.2042C67.283 93.6833 66.744 93.9702 66.1631 93.9702C65.8191 93.9702 65.4858 93.8679 65.1976 93.6749C64.8131 93.4163 64.5524 93.0241 64.463 92.5702C64.3743 92.1162 64.4676 91.6554 64.7259 91.2709C67.3999 87.3028 68.37 83.5461 67.6086 80.106C67.3158 78.7838 66.7609 77.483 65.9551 76.2234C66.9359 75.6115 67.8754 74.9332 68.7637 74.1894C69.853 75.8488 70.6037 77.5814 70.9973 79.3591C71.5508 81.8607 71.4208 84.4662 70.6121 87.1044C70.3751 87.8781 70.8108 88.6975 71.586 88.934C71.7289 88.9775 71.8741 88.9988 72.0163 88.9988C72.6439 88.9988 73.2257 88.5929 73.4191 87.962C74.3777 84.8347 74.5275 81.728 73.8632 78.7273C73.3571 76.4408 72.3687 74.2313 70.9232 72.1447C73.8028 69.067 75.8362 65.2866 76.9079 61.0904C80.6781 60.6136 84.1762 59.0289 87.0795 56.4624C92.0376 52.0808 94.9669 45.0167 95.1167 37.0821C95.1511 35.2541 94.0878 33.5924 92.4894 32.8097ZM22.2564 61.6138C20.7137 61.6138 19.2743 61.3094 17.9786 60.7097C14.3391 59.0259 12.2622 55.157 12.279 50.0956C12.282 49.1435 13.0602 48.3691 14.0204 48.3691C14.9767 48.3722 15.7526 49.1519 15.7495 50.1071C15.7373 53.8653 17.0123 56.4448 19.4387 57.5679C21.2618 58.4109 23.5551 58.3408 25.8522 57.4275C25.9898 58.604 26.2001 59.756 26.4776 60.8791C25.0656 61.3597 23.627 61.6138 22.2564 61.6138ZM89.7412 34.1219C89.742 34.1273 89.7428 34.1326 89.7443 34.1387L90.4613 38.1983L84.7235 39.2085L82.5533 26.9274L88.2911 25.918L89.7412 34.1219ZM54.3503 6.39584C53.2464 5.54897 52.031 4.76696 50.72 4.06505C51.184 3.96587 51.6534 3.87737 52.1281 3.80412C58.4324 2.82451 65.5576 4.18407 72.7357 7.73557C79.4596 11.062 84.1135 17.7026 86.0612 23.3347L83.2474 23.8298C81.5626 19.2178 77.6678 13.3279 71.4782 10.2655C65.5316 7.32434 59.6272 5.99377 54.3503 6.39584ZM46.7266 11.7753C50.1322 13.611 51.8781 15.835 52.349 17.3639C52.4025 17.5371 52.4384 17.7011 52.4606 17.859C52.2137 17.8468 51.9668 17.8392 51.7191 17.8392C48.6805 17.8392 45.6732 18.7341 42.8066 20.4447C42.5589 20.2516 42.3326 20.0357 42.1339 19.7931C41.2609 18.7303 41.2907 17.4959 42.2226 16.1241C43.4296 14.3472 44.9439 12.8885 46.7266 11.7753ZM37.451 12.8953C38.3033 11.6395 39.2772 10.4883 40.3497 9.46058C41.5652 9.73295 42.6468 10.0557 43.5955 10.3937C42.137 11.5388 40.8634 12.9045 39.7924 14.48C38.1191 16.9443 38.1451 19.5574 39.8635 21.6501C40.0088 21.8279 40.1632 21.9965 40.3237 22.1582C39.6036 22.7251 38.895 23.3461 38.2001 24.019C38.0151 23.8306 37.837 23.6383 37.6742 23.44C35.1806 20.4035 35.095 16.3629 37.451 12.8953ZM35.5544 31.8964C35.8426 31.4554 36.1354 31.0259 36.4328 30.6093C36.4366 30.604 36.4404 30.5979 36.4442 30.5926C40.9139 24.3288 46.4193 20.7689 51.7191 20.7689C57.3767 20.7689 63.2682 24.8247 67.8838 31.8964C68.1835 32.3557 68.4747 32.8249 68.7583 33.3018C60.8021 34.2722 55.7561 29.9952 55.1682 29.4664C54.6133 28.9682 53.7724 28.9644 53.2136 29.4581C48.4038 33.7031 39.836 34.4561 34.3084 33.9403C34.7067 33.2422 35.1218 32.5594 35.5544 31.8964ZM70.2551 36.0422C72.4192 40.3666 73.9213 45.1289 74.5367 49.6165C72.1554 50.1201 70.6319 51.4522 69.0373 52.8522C66.2128 55.3325 62.6971 58.4201 51.7191 58.4201C40.7411 58.4201 37.2255 55.3325 34.4009 52.8522C32.8063 51.4522 31.282 50.1201 28.9008 49.6165C29.4848 45.3631 30.8646 40.8633 32.8491 36.7236C34.2258 36.9082 35.8029 37.0181 37.493 37.0181C42.9687 37.0181 49.5963 35.8744 54.1859 32.4412C56.5167 34.1769 62.175 37.4514 70.2551 36.0422ZM27.1648 35.1122C27.1648 32.4488 29.3358 30.2813 32.0044 30.2813C32.353 30.2813 32.6977 30.3202 33.0341 30.3927C31.3516 32.9851 29.916 35.8012 28.7708 38.7042C27.7664 37.8039 27.1648 36.5092 27.1648 35.1122ZM39.8131 96.5985C39.4897 96.9029 39.0662 97.0708 38.6229 97.0708C38.139 97.0708 37.691 96.8777 37.36 96.5275C37.042 96.1903 36.8738 95.7509 36.8876 95.2885C36.9006 94.8262 37.094 94.3966 37.4311 94.0793C42.6698 89.1461 43.3577 84.0511 43.0956 78.8372C44.2284 79.208 45.3927 79.5048 46.5844 79.7245C46.6922 85.0002 45.7596 90.9985 39.8131 96.5985ZM68.0879 70.8515C68.055 70.8828 68.0222 70.914 67.9893 70.9453C67.9855 70.9484 67.9824 70.9514 67.9794 70.9545C66.5392 72.3385 64.9216 73.5103 63.1673 74.4549C63.1535 74.4617 63.139 74.4694 63.1252 74.477C59.7327 76.2928 55.8325 77.2594 51.7191 77.2594C50.5457 77.2594 49.3899 77.1809 48.2578 77.026C48.2409 77.0237 48.2241 77.0214 48.2065 77.0191C43.2683 76.3347 38.7918 74.2046 35.3503 70.8515C30.9892 66.6027 28.5882 60.612 28.5882 53.9813C28.5882 53.5144 28.6004 53.0406 28.6233 52.5615C30.0719 52.9574 31.0878 53.8455 32.4615 55.0517C35.4887 57.7098 39.6342 61.349 51.7191 61.349C63.8048 61.349 67.9495 57.709 70.9767 55.0517C72.3504 53.8455 73.3663 52.9574 74.8149 52.5615C74.8378 53.0406 74.8508 53.5144 74.8508 53.9813C74.8508 60.612 72.449 66.6027 68.0879 70.8515ZM70.343 30.2973C67.5368 25.9981 64.3376 22.7335 60.9328 20.6262C61.3632 18.7776 61.2753 16.7909 60.6653 14.8119C60.069 12.8755 58.969 11.0063 57.4623 9.28815C61.4542 9.50101 65.7839 10.7187 70.1748 12.8915C75.2178 15.3864 78.8297 20.3981 80.4327 24.6759C80.2722 24.8125 80.127 24.9681 80.0023 25.1444C79.6194 25.6914 79.4718 26.3544 79.588 27.0121L81.9073 40.1415C82.1214 41.3523 83.1809 42.2068 84.3726 42.2068C84.5156 42.2068 84.6616 42.1946 84.8083 42.1687L85.0828 42.1206C84.2847 45.196 82.8307 47.7656 80.8868 49.4838C79.9221 50.3367 78.8488 50.97 77.6823 51.3781C77.1426 44.3438 74.4854 36.6442 70.343 30.2973ZM85.1332 54.2697C82.8927 56.2503 80.3341 57.5122 77.508 58.0379C77.6731 56.853 77.7633 55.6422 77.7809 54.4116C79.6454 53.9119 81.3401 52.9956 82.8323 51.6765C85.4872 49.3304 87.3768 45.7682 88.2185 41.5682L91.3955 41.009H91.3962C91.5583 40.9808 91.7135 40.9358 91.861 40.8793C91.0362 46.3847 88.6748 51.1393 85.1332 54.2697ZM42.7042 39.6174C40.4957 39.6174 38.6993 41.4111 38.6993 43.6144C38.6993 44.4239 39.3559 45.0793 40.167 45.0793C40.9773 45.0793 41.6347 44.4239 41.6347 43.6144C41.6347 43.0262 42.114 42.5471 42.7042 42.5471C43.2935 42.5471 43.7736 43.0262 43.7736 43.6144C43.7736 44.4239 44.431 45.0793 45.2413 45.0793C46.0524 45.0793 46.709 44.4239 46.709 43.6144C46.709 41.4111 44.9126 39.6174 42.7042 39.6174ZM62.8477 45.0793C63.658 45.0793 64.3154 44.4239 64.3154 43.6144C64.3154 43.0262 64.7955 42.5471 65.3849 42.5471C65.975 42.5471 66.4543 43.0262 66.4543 43.6144C66.4543 44.4239 67.1117 45.0793 67.922 45.0793C68.7331 45.0793 69.3897 44.4239 69.3897 43.6144C69.3897 41.4111 67.5933 39.6174 65.3849 39.6174C63.1764 39.6174 61.38 41.4111 61.38 43.6144C61.38 44.4239 62.0367 45.0793 62.8477 45.0793ZM52.4599 45.6126C51.927 45.0022 50.9998 44.9389 50.389 45.4699C49.7782 46.0017 49.714 46.9271 50.2468 47.5367C51.2047 48.6338 52.589 49.2633 54.0445 49.2633C55.5 49.2633 56.8844 48.6338 57.8422 47.5367C58.375 46.9271 58.3108 46.0017 57.7 45.4699C57.0893 44.9389 56.162 45.0022 55.6292 45.6126C55.2286 46.0704 54.6515 46.3336 54.0445 46.3336C53.4376 46.3336 52.8596 46.0704 52.4599 45.6126Z" fill="black" />
  </g>
  <defs>
    <clipPath id="clip0_75_5276">
      <rect width="100" height="100" fill="white" />
    </clipPath>
  </defs>
</svg>