<svg width="100" height="100" viewBox="0 0 100 100" fill="none" xmlns="http://www.w3.org/2000/svg">
  <path d="M87.5 45.3125H95.3125V79.6875H87.5V45.3125Z" fill="#FF3051" />
  <path d="M95.3125 39.0625V45.3125H87.5H79.6875V39.0625H95.3125Z" fill="#57A4FF" />
  <path d="M95.3125 37.5V39.0625H79.6875V37.5C79.6875 35.428 80.5106 33.4409 81.9757 31.9757C83.4409 30.5106 85.428 29.6875 87.5 29.6875C89.572 29.6875 91.5591 30.5106 93.0243 31.9757C94.4894 33.4409 95.3125 35.428 95.3125 37.5Z" fill="#FFDE55" />
  <path d="M85.9375 4.6875C84.2799 4.6875 82.6902 5.34598 81.5181 6.51808C80.346 7.69018 79.6875 9.2799 79.6875 10.9375V23.4375H95.3125V4.6875H85.9375Z" fill="#FFEB99" />
  <path d="M95.3125 79.6875L87.5 95.3125L79.6875 79.6875H87.5H95.3125Z" fill="#FFDE55" />
  <path d="M79.6875 45.3125H87.5V79.6875H79.6875V45.3125Z" fill="#B2FA09" />
  <path d="M79.6719 10.7031C79.6163 9.08749 78.9349 7.5567 77.7716 6.43419C76.6082 5.31167 75.0541 4.68533 73.4375 4.68751H64.0625V23.4375H79.6875V10.9375C79.6901 10.8591 79.6848 10.7805 79.6719 10.7031Z" fill="#FFEB99" />
  <path d="M71.8752 51.5625C71.8655 55.0803 71.0491 58.5491 69.4888 61.7021C67.9286 64.8551 65.6661 67.6083 62.8752 69.75C61.7689 70.6141 60.8773 71.7224 60.2701 72.9882C59.663 74.254 59.3567 75.6431 59.3752 77.0468V79.6875H40.6252V77.0468C40.6352 75.6259 40.316 74.222 39.6925 72.9452C39.0689 71.6684 38.1582 70.5533 37.0315 69.6875C33.0942 66.6472 30.2571 62.4047 28.9513 57.6047C27.6456 52.8046 27.9425 47.7095 29.7971 43.0937C31.7551 38.4337 35.2653 34.5948 39.7318 32.2284C44.1983 29.862 49.346 29.114 54.3013 30.1113C59.2565 31.1086 63.7141 33.7898 66.9174 37.6998C70.1207 41.6099 71.8724 46.5078 71.8752 51.5625ZM65.6252 51.5625C65.6264 50.3894 65.2954 49.24 64.6705 48.2473C64.0455 47.2546 63.1522 46.4592 62.094 45.9531C62.3651 45.2503 62.5028 44.5032 62.5002 43.75C62.4959 42.2319 61.9392 40.7673 60.9341 39.6296C59.9289 38.4919 58.5441 37.759 57.0381 37.5677C55.5321 37.3763 54.008 37.7396 52.7503 38.5897C51.4925 39.4399 50.5872 40.7187 50.2034 42.1875C50.0638 42.6964 49.9955 43.2222 50.0002 43.75C50.005 43.2222 49.9367 42.6964 49.7971 42.1875C49.4133 40.7187 48.508 39.4399 47.2502 38.5897C45.9925 37.7396 44.4684 37.3763 42.9624 37.5677C41.4564 37.759 40.0716 38.4919 39.0664 39.6296C38.0613 40.7673 37.5046 42.2319 37.5002 43.75C37.4977 44.5032 37.6354 45.2503 37.9065 45.9531C36.8488 46.46 35.956 47.2556 35.3311 48.2481C34.7061 49.2406 34.3745 50.3896 34.3745 51.5625C34.3745 52.7353 34.7061 53.8843 35.3311 54.8768C35.956 55.8693 36.8488 56.6649 37.9065 57.1718C37.6354 57.8746 37.4977 58.6217 37.5002 59.375C37.5002 61.0326 38.1587 62.6223 39.3308 63.7944C40.5029 64.9665 42.0926 65.625 43.7502 65.625C45.4078 65.625 46.9976 64.9665 48.1697 63.7944C49.3418 62.6223 50.0002 61.0326 50.0002 59.375C50.0002 61.0326 50.6587 62.6223 51.8308 63.7944C53.0029 64.9665 54.5926 65.625 56.2502 65.625C57.9078 65.625 59.4976 64.9665 60.6697 63.7944C61.8418 62.6223 62.5002 61.0326 62.5002 59.375C62.5028 58.6217 62.3651 57.8746 62.094 57.1718C63.1522 56.6657 64.0455 55.8703 64.6705 54.8776C65.2954 53.8849 65.6264 52.7355 65.6252 51.5625Z" fill="#FFCD00" />
  <path d="M62.094 45.9531C63.1517 46.46 64.0445 47.2556 64.6694 48.2481C65.2944 49.2406 65.6259 50.3896 65.6259 51.5625C65.6259 52.7354 65.2944 53.8843 64.6694 54.8768C64.0445 55.8694 63.1517 56.665 62.094 57.1719C62.3651 57.8746 62.5028 58.6218 62.5002 59.375C62.5002 61.0326 61.8418 62.6223 60.6696 63.7944C59.4975 64.9665 57.9078 65.625 56.2502 65.625C54.5926 65.625 53.0029 64.9665 51.8308 63.7944C50.6587 62.6223 50.0002 61.0326 50.0002 59.375V43.75C49.9955 43.2223 50.0638 42.6964 50.2034 42.1875C50.5872 40.7187 51.4925 39.4399 52.7502 38.5898C54.008 37.7396 55.5321 37.3763 57.0381 37.5677C58.5441 37.759 59.9289 38.492 60.934 39.6296C61.9392 40.7673 62.4959 42.2319 62.5002 43.75C62.5028 44.5032 62.3651 45.2503 62.094 45.9531Z" fill="#FF9811" />
  <path d="M59.375 79.6875C60.203 79.69 60.9965 80.02 61.582 80.6055C62.1675 81.191 62.4975 81.9845 62.5 82.8125C62.4939 83.6394 62.1627 84.4307 61.5779 85.0154C60.9932 85.6002 60.2019 85.9314 59.375 85.9375H40.625C39.797 85.935 39.0035 85.605 38.418 85.0195C37.8325 84.434 37.5025 83.6405 37.5 82.8125C37.5061 81.9856 37.8373 81.1943 38.4221 80.6096C39.0068 80.0248 39.7981 79.6936 40.625 79.6875H59.375Z" fill="#46F8FF" />
  <path d="M40.625 85.9375H59.375C59.375 88.4239 58.3873 90.8085 56.6291 92.5666C54.871 94.3248 52.4864 95.3125 50 95.3125C47.5147 95.3088 45.1323 94.3199 43.375 92.5625C41.6176 90.8052 40.6287 88.4228 40.625 85.9375Z" fill="#FF7956" />
  <path d="M37.906 45.9531C37.6349 45.2503 37.4972 44.5032 37.4997 43.75C37.5041 42.2319 38.0608 40.7673 39.0659 39.6296C40.0711 38.492 41.4559 37.759 42.9619 37.5677C44.4679 37.3763 45.992 37.7396 47.2497 38.5898C48.5075 39.4399 49.4128 40.7187 49.7966 42.1875C49.9362 42.6964 50.0045 43.2223 49.9997 43.75V59.375C49.9997 61.0326 49.3413 62.6223 48.1692 63.7944C46.9971 64.9665 45.4073 65.625 43.7497 65.625C42.0921 65.625 40.5024 64.9665 39.3303 63.7944C38.1582 62.6223 37.4997 61.0326 37.4997 59.375C37.4972 58.6218 37.6349 57.8746 37.906 57.1719C36.8483 56.665 35.9555 55.8694 35.3306 54.8768C34.7056 53.8843 34.374 52.7354 34.374 51.5625C34.374 50.3896 34.7056 49.2406 35.3306 48.2481C35.9555 47.2556 36.8483 46.46 37.906 45.9531Z" fill="#FF9811" />
  <path d="M4.6875 4.6875V10.9375V17.1875V23.4375H35.9375V20.3125V17.1875V10.9375V7.8125V4.6875H4.6875Z" fill="#46F8FF" />
  <path d="M4.6875 68.75V62.5V56.25V50V43.75V37.5V29.6875H20.3125V95.3125H4.6875V87.5V81.25V75V68.75Z" fill="#FFC477" />
  <path d="M65.2262 33.7499C62.6298 31.5408 59.5853 29.9211 56.3024 29.0023C53.0195 28.0835 49.5765 27.8876 46.2106 28.428C42.2798 29.0528 38.5747 30.6742 35.4485 33.1376C32.3224 35.601 29.8795 38.8243 28.3528 42.4999C26.3395 47.4302 26.0067 52.8865 27.4059 58.0249C28.8051 63.1634 31.8583 67.6976 36.0934 70.9265C37.0236 71.6518 37.775 72.5809 38.2896 73.6422C38.8043 74.7035 39.0686 75.8688 39.0621 77.0483V78.4124C38.1423 78.7335 37.3463 79.3349 36.786 80.132C36.2257 80.9291 35.9294 81.8817 35.9387 82.856C35.9481 83.8302 36.2625 84.777 36.8379 85.5632C37.4133 86.3494 38.2207 86.9355 39.1465 87.239C39.477 89.8844 40.7624 92.318 42.7609 94.0824C44.7595 95.8468 47.3337 96.8205 49.9996 96.8205C52.6656 96.8205 55.2398 95.8468 57.2384 94.0824C59.2369 92.318 60.5223 89.8844 60.8528 87.239C61.7786 86.9355 62.586 86.3494 63.1614 85.5632C63.7368 84.777 64.0512 83.8302 64.0606 82.856C64.0699 81.8817 63.7735 80.9291 63.2133 80.132C62.653 79.3349 61.857 78.7335 60.9371 78.4124V77.053C60.9186 75.8898 61.1688 74.738 61.6683 73.6872C62.1678 72.6365 62.903 71.7153 63.8168 70.9952C66.8088 68.7159 69.2337 65.7761 70.9025 62.4053C72.5712 59.0345 73.4387 55.3237 73.4371 51.5624C73.4375 48.1763 72.7037 44.8303 71.2862 41.7552C69.8686 38.6801 67.8011 35.9489 65.2262 33.7499ZM49.9996 93.7499C48.1992 93.7479 46.4546 93.1252 45.0599 91.9866C43.6652 90.8481 42.7058 89.2635 42.3434 87.4999H57.6559C57.2935 89.2635 56.3341 90.8481 54.9394 91.9866C53.5447 93.1252 51.8 93.7479 49.9996 93.7499ZM59.3746 84.3749H40.6246C40.2102 84.3749 39.8128 84.2103 39.5198 83.9173C39.2268 83.6242 39.0621 83.2268 39.0621 82.8124C39.0621 82.398 39.2268 82.0006 39.5198 81.7076C39.8128 81.4145 40.2102 81.2499 40.6246 81.2499H59.3746C59.789 81.2499 60.1865 81.4145 60.4795 81.7076C60.7725 82.0006 60.9371 82.398 60.9371 82.8124C60.9371 83.2268 60.7725 83.6242 60.4795 83.9173C60.1865 84.2103 59.789 84.3749 59.3746 84.3749ZM61.9371 68.4983C60.6374 69.5105 59.589 70.8091 58.8735 72.293C58.158 73.7768 57.7948 75.4058 57.8121 77.053V78.1249H42.1871V77.0483C42.1925 75.3873 41.8164 73.7472 41.0876 72.2545C40.3589 70.7618 39.2971 69.4564 37.984 68.439C34.338 65.5954 31.7114 61.6472 30.4973 57.1857C29.2833 52.7242 29.5472 47.9895 31.2496 43.6905C32.57 40.5093 34.6834 37.7196 37.3884 35.5873C40.0934 33.4551 43.2996 32.0517 46.7012 31.5108C49.6091 31.0339 52.586 31.1951 55.4254 31.9832C58.2648 32.7713 60.8989 34.1675 63.1449 36.075C65.391 37.9825 67.1954 40.3556 68.433 43.0299C69.6706 45.7042 70.3118 48.6156 70.3121 51.5624C70.2933 54.8359 69.5294 58.0621 68.0783 60.9965C66.6273 63.9309 64.5271 66.4963 61.9371 68.4983Z" fill="black" />
  <path d="M4.6875 25H35.9375C36.3519 25 36.7493 24.8354 37.0424 24.5424C37.3354 24.2493 37.5 23.8519 37.5 23.4375V4.6875C37.5 4.2731 37.3354 3.87567 37.0424 3.58265C36.7493 3.28962 36.3519 3.125 35.9375 3.125H4.6875C4.2731 3.125 3.87567 3.28962 3.58265 3.58265C3.28962 3.87567 3.125 4.2731 3.125 4.6875V23.4375C3.125 23.8519 3.28962 24.2493 3.58265 24.5424C3.87567 24.8354 4.2731 25 4.6875 25ZM6.25 6.25H34.375V21.875H6.25V6.25Z" fill="black" />
  <path d="M95.3125 3.125H85.9375C84.7201 3.12842 83.5206 3.4173 82.4351 3.96844C81.3496 4.51958 80.4086 5.31761 79.6875 6.29844C78.9664 5.31761 78.0254 4.51958 76.9399 3.96844C75.8544 3.4173 74.6549 3.12842 73.4375 3.125H64.0625C63.6481 3.125 63.2507 3.28962 62.9576 3.58265C62.6646 3.87567 62.5 4.2731 62.5 4.6875V23.4375C62.5 23.8519 62.6646 24.2493 62.9576 24.5424C63.2507 24.8354 63.6481 25 64.0625 25H95.3125C95.7269 25 96.1243 24.8354 96.4174 24.5424C96.7104 24.2493 96.875 23.8519 96.875 23.4375V4.6875C96.875 4.2731 96.7104 3.87567 96.4174 3.58265C96.1243 3.28962 95.7269 3.125 95.3125 3.125ZM65.625 6.25H73.4375C74.6807 6.25 75.873 6.74386 76.7521 7.62294C77.6311 8.50201 78.125 9.6943 78.125 10.9375V21.875H65.625V6.25ZM93.75 21.875H81.25V10.9375C81.25 9.6943 81.7439 8.50201 82.6229 7.62294C83.502 6.74386 84.6943 6.25 85.9375 6.25H93.75V21.875Z" fill="#0E0806" />
  <path d="M20.3125 28.125H4.6875C4.2731 28.125 3.87567 28.2896 3.58265 28.5826C3.28962 28.8757 3.125 29.2731 3.125 29.6875V95.3125C3.125 95.7269 3.28962 96.1243 3.58265 96.4174C3.87567 96.7104 4.2731 96.875 4.6875 96.875H20.3125C20.7269 96.875 21.1243 96.7104 21.4174 96.4174C21.7104 96.1243 21.875 95.7269 21.875 95.3125V29.6875C21.875 29.2731 21.7104 28.8757 21.4174 28.5826C21.1243 28.2896 20.7269 28.125 20.3125 28.125ZM18.75 93.75H6.25V89.0625H14.0625V85.9375H6.25V82.8125H10.9375V79.6875H6.25V76.5625H14.0625V73.4375H6.25V70.3125H10.9375V67.1875H6.25V64.0625H14.0625V60.9375H6.25V57.8125H10.9375V54.6875H6.25V51.5625H14.0625V48.4375H6.25V45.3125H10.9375V42.1875H6.25V39.0625H14.0625V35.9375H6.25V31.25H18.75V93.75Z" fill="#0E0806" />
  <path d="M87.5001 28.125C85.0145 28.1275 82.6313 29.116 80.8737 30.8736C79.1161 32.6312 78.1276 35.0144 78.1251 37.5V79.6875C78.1224 79.9293 78.1759 80.1683 78.2813 80.3859L86.0938 96.0109C86.2234 96.2709 86.4229 96.4897 86.67 96.6426C86.917 96.7955 87.2018 96.8765 87.4923 96.8765C87.7828 96.8765 88.0676 96.7955 88.3146 96.6426C88.5616 96.4897 88.7611 96.2709 88.8907 96.0109L96.7032 80.3859C96.814 80.1697 96.8729 79.9305 96.8751 79.6875V37.5C96.8726 35.0144 95.8841 32.6312 94.1265 30.8736C92.3689 29.116 89.9857 28.1275 87.5001 28.125ZM87.5001 31.25C89.1577 31.25 90.7474 31.9085 91.9195 33.0806C93.0916 34.2527 93.7501 35.8424 93.7501 37.5H81.2501C81.2501 35.8424 81.9086 34.2527 83.0807 33.0806C84.2528 31.9085 85.8425 31.25 87.5001 31.25ZM89.0626 78.125V46.875H93.7501V78.125H89.0626ZM81.2501 78.125V46.875H85.9376V78.125H81.2501ZM81.2501 43.75V40.625H93.7501V43.75H81.2501ZM87.5001 91.8187L82.2157 81.25H92.7845L87.5001 91.8187Z" fill="#0E0806" />
  <path d="M9.375 9.375H15.625V12.5H9.375V9.375Z" fill="#0E0806" />
  <path d="M18.75 9.375H31.25V12.5H18.75V9.375Z" fill="black" />
  <path d="M9.375 15.625H15.625V18.75H9.375V15.625Z" fill="black" />
  <path d="M18.75 15.625H31.25V18.75H18.75V15.625Z" fill="black" />
  <path d="M68.75 9.375H75V12.5H68.75V9.375Z" fill="black" />
  <path d="M68.75 15.625H75V18.75H68.75V15.625Z" fill="black" />
  <path d="M84.375 9.375H90.625V12.5H84.375V9.375Z" fill="black" />
  <path d="M84.375 15.625H90.625V18.75H84.375V15.625Z" fill="black" />
  <path d="M40.625 6.25H43.75V9.375H40.625V6.25Z" fill="black" />
  <path d="M46.875 6.25H53.125V9.375H46.875V6.25Z" fill="black" />
  <path d="M56.25 6.25H59.375V9.375H56.25V6.25Z" fill="black" />
  <path d="M40.625 18.75H43.75V21.875H40.625V18.75Z" fill="black" />
  <path d="M46.875 18.75H53.125V21.875H46.875V18.75Z" fill="black" />
  <path d="M56.25 18.75H59.375V21.875H56.25V18.75Z" fill="black" />
  <path d="M63.9153 45.2297C64.2525 43.4943 63.99 41.6958 63.1709 40.1291C62.3518 38.5624 61.0246 37.3205 59.4071 36.6071C57.7895 35.8937 55.9775 35.7511 54.2683 36.2026C52.559 36.6541 51.0539 37.673 49.9997 39.0922C48.9466 37.671 47.4413 36.6504 45.7312 36.1982C44.0211 35.7459 42.2081 35.889 40.5901 36.6038C38.9721 37.3187 37.6454 38.5627 36.8282 40.1315C36.011 41.7003 35.7519 43.5004 36.0935 45.236C35.0825 45.9529 34.2581 46.9015 33.6891 48.0025C33.1202 49.1035 32.8232 50.3248 32.8232 51.5641C32.8232 52.8034 33.1202 54.0247 33.6891 55.1257C34.2581 56.2267 35.0825 57.1753 36.0935 57.8922C35.7559 59.6268 36.0182 61.4246 36.8373 62.9904C37.6563 64.5562 38.9835 65.797 40.6008 66.5089C42.2181 67.2209 44.0295 67.3618 45.7374 66.9085C47.4454 66.4551 48.9484 65.4345 49.9997 64.0141C51.0487 65.4413 52.5528 66.4683 54.264 66.9256C55.9752 67.3829 57.7911 67.2433 59.4122 66.5297C61.0333 65.816 62.3627 64.5711 63.1811 63.0003C63.9995 61.4295 64.2579 59.6266 63.9138 57.8891C64.9247 57.1722 65.7492 56.2236 66.3181 55.1226C66.8871 54.0216 67.184 52.8003 67.184 51.561C67.184 50.3217 66.8871 49.1004 66.3181 47.9994C65.7492 46.8984 64.9247 45.9498 63.9138 45.2329L63.9153 45.2297ZM43.7497 64.0626C42.5065 64.0626 41.3142 63.5687 40.4351 62.6896C39.5561 61.8105 39.0622 60.6183 39.0622 59.3751C39.0622 59.3188 39.0747 59.2672 39.0763 59.2188C39.5858 59.3231 40.1046 59.3755 40.6247 59.3751C41.9966 59.3721 43.3436 59.009 44.531 58.3219L42.9685 55.6157C42.307 56.0055 41.5584 56.2232 40.7911 56.2488C40.0238 56.2745 39.2623 56.1073 38.5763 55.7626C37.7819 55.3809 37.1122 54.7817 36.6446 54.0347C36.1771 53.2877 35.931 52.4234 35.935 51.5421C35.9389 50.6609 36.1927 49.7988 36.6668 49.0559C37.141 48.3131 37.8161 47.72 38.6138 47.3454C39.2972 47.0126 40.0521 46.8536 40.8117 46.8822C41.5712 46.9108 42.312 47.1262 42.9685 47.5094L44.531 44.8032C42.8773 43.868 40.9439 43.5543 39.0794 43.9188C39.0794 43.861 39.0638 43.8079 39.0638 43.7501C39.0684 42.6095 39.4886 41.5098 40.2458 40.6569C41.003 39.804 42.0452 39.2564 43.1771 39.1167C44.309 38.977 45.4531 39.2548 46.3949 39.8981C47.3367 40.5413 48.0117 41.5058 48.2935 42.611C48.3944 42.9821 48.4427 43.3655 48.4372 43.7501V59.3751C48.4372 60.6183 47.9434 61.8105 47.0643 62.6896C46.1852 63.5687 44.9929 64.0626 43.7497 64.0626ZM61.3841 55.7813C60.7013 56.1152 59.9467 56.2756 59.1872 56.2484C58.4276 56.2211 57.6865 56.007 57.0294 55.6251L55.4669 58.3313C57.1112 59.2944 59.0548 59.6119 60.92 59.2219C60.92 59.2766 60.9341 59.3282 60.9341 59.3782C60.9341 60.6214 60.4402 61.8137 59.5611 62.6927C58.6821 63.5718 57.4898 64.0657 56.2466 64.0657C55.0034 64.0657 53.8111 63.5718 52.932 62.6927C52.0529 61.8137 51.5591 60.6214 51.5591 59.3782V43.7501C51.5556 43.352 51.6082 42.9554 51.7153 42.5719C52.004 41.4705 52.6836 40.5119 53.6273 39.8749C54.571 39.2379 55.7143 38.9662 56.8437 39.1105C57.9731 39.2548 59.0114 39.8052 59.7647 40.659C60.518 41.5127 60.9347 42.6115 60.9372 43.7501C60.9372 43.8079 60.9247 43.861 60.9216 43.9172C59.057 43.5472 57.1215 43.8617 55.47 44.8032L57.0325 47.5094C57.6937 47.1188 58.4424 46.9006 59.2099 46.875C59.9773 46.8493 60.739 47.017 61.4247 47.3626C62.219 47.7442 62.8888 48.3434 63.3563 49.0904C63.8239 49.8374 64.0699 50.7017 64.066 51.583C64.0621 52.4643 63.8083 53.3263 63.3342 54.0692C62.86 54.812 62.1849 55.4052 61.3872 55.7797L61.3841 55.7813Z" fill="black" />
</svg>