<svg width="100" height="100" viewBox="0 0 100 100" fill="none" xmlns="http://www.w3.org/2000/svg">
  <path d="M31.25 20.3125H68.75V32.8125H31.25V20.3125Z" fill="#5573FF" />
  <path d="M18.75 32.8125H81.25V82.8125H18.75V32.8125Z" fill="#FBF5FC" />
  <path d="M6.25 82.8125H18.75V95.3125H6.25V82.8125Z" fill="#F74F2E" />
  <path d="M18.75 82.8125H31.25V95.3125H18.75V82.8125Z" fill="#B300D1" />
  <path d="M68.75 82.8125H81.25V95.3125H68.75V82.8125Z" fill="#88B337" />
  <path d="M43.75 82.8125H56.25V95.3125H43.75V82.8125Z" fill="#88B337" />
  <path d="M56.25 82.8125H68.75V95.3125H56.25V82.8125Z" fill="#F74F2E" />
  <path d="M31.25 82.8125H43.75V95.3125H31.25V82.8125Z" fill="#FDB62F" />
  <path d="M6.25 45.3125H18.75V57.8125H6.25V45.3125Z" fill="#FDB62F" />
  <path d="M6.25 20.3125H18.75V32.8125H6.25V20.3125Z" fill="#F74F2E" />
  <path d="M6.25 32.8125H18.75V45.3125H6.25V32.8125Z" fill="#B300D1" />
  <path d="M68.75 20.3125H81.25V32.8125H68.75V20.3125Z" fill="#FDB62F" />
  <path d="M18.75 20.3125H31.25V32.8125H18.75V20.3125Z" fill="#88B337" />
  <path d="M81.25 82.8125H93.75V95.3125H81.25V82.8125Z" fill="#F74F2E" />
  <path d="M6.25 70.3125H18.75V82.8125H6.25V70.3125Z" fill="#5573FF" />
  <path d="M6.25 57.8125H18.75V70.3125H6.25V57.8125Z" fill="#88B337" />
  <path d="M81.25 70.3125H93.75V82.8125H81.25V70.3125Z" fill="#0E0806" />
  <path d="M81.25 20.3125H93.75V32.8125H81.25V20.3125Z" fill="#0E0806" />
  <path d="M81.25 57.8125H93.75V70.3125H81.25V57.8125Z" fill="#0E0806" />
  <path d="M81.25 32.8125H93.75V45.3125H81.25V32.8125Z" fill="#0E0806" />
  <path d="M81.25 45.3125H93.75V57.8125H81.25V45.3125Z" fill="#FDB62F" />
  <path d="M46.875 68.75H50V56.25H28.125V60.9375H46.875V68.75Z" fill="#88B337" />
  <path d="M52.9948 17.8875C54.3073 17.2938 55.2026 15.8031 54.6885 13.9016C54.6323 13.6953 54.5276 13.4875 54.3948 13.3203C52.5292 10.975 49.4698 11.8188 48.7323 14.075C48.4495 14.9391 48.5651 15.8375 48.9792 16.5719C49.3026 17.1469 49.1479 17.8766 48.7057 18.3656L42.9995 24.6828C42.2417 25.5219 42.5979 26.8641 43.6729 27.2156L50.9823 29.6094C52.0573 29.961 53.1385 29.0906 53.0229 27.9656L52.151 19.4344C52.0838 18.7922 52.4073 18.1531 52.9948 17.8875Z" fill="#F74F2E" />
  <path d="M46.875 68.75V60.9375H28.125H25V73.4375H46.875V68.75Z" fill="#5573FF" />
  <path d="M53.125 39.0625H75V51.5625H53.125V39.0625Z" fill="#5573FF" />
  <path d="M62.5 71.875H68.75V78.125H62.5V71.875Z" fill="#DAD5DB" />
  <path d="M61.3789 65.0786L64.3107 59.5589L69.8304 62.4907L66.8986 68.0104L61.3789 65.0786Z" fill="#DAD5DB" />
  <path d="M6.25 96.875H93.75C94.6125 96.875 95.3125 96.175 95.3125 95.3125V20.3125C95.3125 19.45 94.6125 18.75 93.75 18.75H59.375V21.875H67.1875V31.25H32.8125V21.875H40.625V18.75H6.25C5.3875 18.75 4.6875 19.45 4.6875 20.3125V95.3125C4.6875 96.175 5.3875 96.875 6.25 96.875ZM7.8125 84.375H17.1875V93.75H7.8125V84.375ZM20.3125 84.375H29.6875V93.75H20.3125V84.375ZM32.8125 84.375H42.1875V93.75H32.8125V84.375ZM45.3125 84.375H54.6875V93.75H45.3125V84.375ZM57.8125 84.375H67.1875V93.75H57.8125V84.375ZM70.3125 84.375H79.6875V93.75H70.3125V84.375ZM82.8125 71.875H92.1875V81.25H82.8125V71.875ZM82.8125 68.75V59.375H92.1875V68.75H82.8125ZM82.8125 56.25V46.875H92.1875V56.25H82.8125ZM82.8125 43.75V34.375H92.1875V43.75H82.8125ZM79.6875 81.25H20.3125V34.375H79.6875V81.25ZM17.1875 43.75H7.8125V34.375H17.1875V43.75ZM17.1875 46.875V56.25H7.8125V46.875H17.1875ZM17.1875 59.375V68.75H7.8125V59.375H17.1875ZM17.1875 71.875V81.25H7.8125V71.875H17.1875ZM82.8125 93.75V84.375H92.1875V93.75H82.8125ZM92.1875 31.25H82.8125V21.875H92.1875V31.25ZM70.3125 21.875H79.6875V31.25H70.3125V21.875ZM29.6875 31.25H20.3125V21.875H29.6875V31.25ZM17.1875 21.875V31.25H7.8125V21.875H17.1875Z" fill="#0E0806" />
  <path d="M56.1976 13.4983C56.0867 13.0811 55.8851 12.6843 55.6179 12.3483C54.4133 10.8311 52.6383 10.1202 50.8758 10.4327C49.1758 10.739 47.7836 11.9483 47.2476 13.589C46.8414 14.8311 46.9757 16.1983 47.5445 17.3186L41.8382 23.6358C41.1257 24.4233 40.8648 25.5061 41.1367 26.5327C41.4101 27.5593 42.1758 28.3686 43.1851 28.6999L50.4945 31.0921C50.8148 31.1968 51.1445 31.2483 51.4711 31.2483C52.1726 31.2483 52.8633 31.0108 53.4273 30.5561C54.2539 29.8905 54.6836 28.8624 54.5742 27.8046L53.6382 19.3108C55.8054 18.3296 56.857 15.9374 56.1976 13.4983ZM52.3492 16.4655C51.1632 17.003 50.4601 18.2608 50.5961 19.5921L51.4679 28.1218L44.1586 25.7296L49.8664 19.4124C50.7882 18.3905 50.9789 16.9405 50.3414 15.8061C50.1242 15.4218 50.0804 14.9796 50.2179 14.5608C50.3976 14.014 50.8617 13.6108 51.4289 13.5093C51.5211 13.4921 51.6132 13.4843 51.7039 13.4843C52.2382 13.4843 52.7523 13.7671 53.1804 14.3108C53.4961 15.478 52.9586 16.189 52.3492 16.4655Z" fill="#0E0806" />
  <path d="M59.7453 8.85781L57.7766 6.42969C56.7625 7.25313 55.9641 8.32344 55.4688 9.52813L58.3594 10.7172C58.6562 9.99531 59.1359 9.35156 59.7453 8.85781Z" fill="#0E0806" />
  <path d="M67.2379 11.3265L70.2645 10.5484C69.9395 9.28745 69.2957 8.11558 68.4004 7.16089L66.1191 9.29683C66.6566 9.87026 67.0426 10.5718 67.2379 11.3265Z" fill="#0E0806" />
  <path d="M61.8484 7.88907C62.6047 7.75313 63.4234 7.80313 64.1641 8.04844L65.1422 5.08125C63.9141 4.67657 62.575 4.58282 61.2891 4.81563L61.8484 7.88907Z" fill="#0E0806" />
  <path d="M89.0617 14.0626C89.0617 14.6063 89.0055 15.1517 88.8945 15.6813L91.9523 16.322C92.1086 15.5813 92.1867 14.822 92.1867 14.0626C92.1867 13.5267 92.1477 12.9892 92.0711 12.4673L88.9789 12.9204C89.0336 13.2923 89.0617 13.6735 89.0617 14.0626Z" fill="#0E0806" />
  <path d="M90.8426 8.80308C90.2176 7.66401 89.402 6.65464 88.4207 5.80151L86.3691 8.16089C87.0723 8.77183 87.6566 9.49526 88.1035 10.3093L90.8426 8.80308Z" fill="#0E0806" />
  <path d="M85.1055 3.82344C83.8898 3.36719 82.6133 3.13125 81.3086 3.125L81.293 6.25C82.2258 6.25469 83.1383 6.42187 84.0039 6.74844L85.1055 3.82344Z" fill="#0E0806" />
  <path d="M76.1926 8.10772C76.902 7.50303 77.7035 7.03584 78.5738 6.71865L77.502 3.78271C76.2816 4.22803 75.1598 4.88271 74.166 5.72646L76.1926 8.10772Z" fill="#0E0806" />
  <path d="M25 75H46.875C47.7375 75 48.4375 74.3 48.4375 73.4375V70.3125H50C50.8625 70.3125 51.5625 69.6125 51.5625 68.75V56.25C51.5625 55.3875 50.8625 54.6875 50 54.6875H28.125C27.2625 54.6875 26.5625 55.3875 26.5625 56.25V59.375H25C24.1375 59.375 23.4375 60.075 23.4375 60.9375V73.4375C23.4375 74.3 24.1375 75 25 75ZM29.6875 57.8125H48.4375V60.9375C48.4375 60.075 47.7375 59.375 46.875 59.375H29.6875V57.8125ZM26.5625 62.5H45.3125V71.875H26.5625V62.5Z" fill="#0E0806" />
  <path d="M53.125 53.125H75C75.8625 53.125 76.5625 52.425 76.5625 51.5625V39.0625C76.5625 38.2 75.8625 37.5 75 37.5H53.125C52.2625 37.5 51.5625 38.2 51.5625 39.0625V51.5625C51.5625 52.425 52.2625 53.125 53.125 53.125ZM54.6875 40.625H73.4375V50H54.6875V40.625Z" fill="#0E0806" />
  <path d="M68.75 70.3125H62.5C61.6375 70.3125 60.9375 71.0125 60.9375 71.875V78.125C60.9375 78.9875 61.6375 79.6875 62.5 79.6875H68.75C69.6125 79.6875 70.3125 78.9875 70.3125 78.125V71.875C70.3125 71.0125 69.6125 70.3125 68.75 70.3125ZM67.1875 76.5625H64.0625V73.4375H67.1875V76.5625Z" fill="#0E0806" />
  <path d="M70.5845 61.1203L65.0657 58.189C64.3032 57.7844 63.3579 58.0734 62.9517 58.8359L60.0189 64.3547C59.6142 65.1172 59.9033 66.0625 60.6658 66.4687L66.1845 69.4015C66.4126 69.5219 66.6642 69.5844 66.9173 69.5844C67.0704 69.5844 67.2251 69.5609 67.3736 69.5156C67.7704 69.3937 68.1017 69.1218 68.297 68.7547L71.2298 63.2344C71.4236 62.8687 71.4642 62.4406 71.3439 62.0437C71.2236 61.6469 70.9501 61.3156 70.5845 61.1203ZM66.272 65.9078L63.5126 64.4422L64.9782 61.6828L67.7376 63.1484L66.272 65.9078Z" fill="#0E0806" />
</svg>