<svg width="80" height="80" viewBox="0 0 81 80" fill="none" xmlns="http://www.w3.org/2000/svg">
  <g clip-path="url(#clip0_554_21167)">
    <path d="M71.8112 13.375C73.4362 16.075 71.2237 18.6125 67.7487 22.475C65.5737 24.875 64.2237 25.2125 63.4362 25.0125C62.8737 24.8625 62.4987 24.3 62.5112 23.7125C62.5362 22.8875 62.5987 21.25 62.8112 19.5C63.0362 17.5625 61.7237 15.7125 61.1237 14.9875C60.9487 14.775 60.7737 14.55 60.6112 14.325C60.0737 13.575 58.6112 11.8375 56.6862 11.5625C54.9362 11.3125 53.3362 10.9625 52.5362 10.775C51.9612 10.6375 51.5112 10.1375 51.5237 9.55C51.5237 8.7375 52.1987 7.5125 55.0612 6.025C59.6737 3.6375 62.6987 2.15 64.8987 4.4C65.4862 5 65.8612 5.75 66.0737 6.55C66.2612 7.3 66.6737 8.5 67.4862 9.5625C68.3112 10.6125 69.3612 11.325 70.0362 11.7C70.7612 12.1 71.3862 12.6625 71.8112 13.375Z" fill="#FFCA3A" />
    <path d="M67.7534 22.475C65.5784 24.875 64.2284 25.2125 63.4409 25.0125C62.8784 24.8625 62.5034 24.3 62.5159 23.7125C62.5284 23.2375 62.5534 22.5125 62.6159 21.6375C63.3909 21.3625 64.4159 20.6625 65.7534 19.1875C68.4534 16.1875 70.3909 13.9875 70.3534 11.8875C70.9534 12.275 71.4534 12.7625 71.8159 13.375C73.4409 16.075 71.2284 18.6125 67.7534 22.475Z" fill="#FF9700" />
    <path d="M71.9141 43.75V77.5C71.9141 78.1875 71.3516 78.75 70.6641 78.75H10.6641C9.97656 78.75 9.41406 78.1875 9.41406 77.5V43.75V33.75H71.9141V43.75Z" fill="#C28831" />
    <path d="M71.9141 36.25V42.1875L68.3766 59.0125C68.2516 59.5875 67.7391 60 67.1516 60H16.6766C16.0891 60 15.5766 59.5875 15.4516 59.0125L10.6641 36.25H71.9141Z" fill="#A46D3E" />
    <path d="M45.6672 30.3375C46.7672 29.7 48.1672 30.075 48.8047 31.1625L50.3172 33.75H42.5047L42.0547 32.45L45.6672 30.3375Z" fill="#D11AA0" />
    <path d="M42.05 32.45L42.5 33.75H29.125L36.8125 26.925C38.025 25.85 39.9625 26.35 40.4875 27.9L42.05 32.45Z" fill="#BF459F" />
    <path d="M35.711 2.4375C36.8985 2.575 37.336 4.0625 36.4235 4.825L28.611 11.3375C27.8485 11.9625 26.686 11.6 26.436 10.6375L24.411 2.95C24.1735 2.025 24.936 1.15 25.886 1.2625L35.711 2.4375Z" fill="#BF459F" />
    <path d="M36.4297 4.825L28.6172 11.3375C27.8547 11.9625 26.6922 11.6 26.4422 10.6375L26.0547 9.15L32.7297 3.575C33.1922 3.1875 33.3047 2.6125 33.1422 2.125L35.7172 2.4375C36.9047 2.575 37.3422 4.0625 36.4297 4.825Z" fill="#8E2F86" />
    <path d="M67.3177 14.075C68.3302 14.425 68.8552 15.5375 68.5052 16.55C68.1427 17.5625 67.0427 18.0875 66.0302 17.7375C65.0177 17.375 64.4927 16.275 64.8427 15.2625C65.1927 14.25 66.3052 13.7125 67.3177 14.075Z" fill="#BF459F" />
    <path d="M61.599 6.925C62.6115 7.2875 63.1365 8.3875 62.7865 9.4C62.424 10.4125 61.324 10.9375 60.3115 10.5875C59.299 10.2375 58.774 9.125 59.124 8.1125C59.474 7.1 60.5865 6.575 61.599 6.925Z" fill="#BF459F" />
    <path d="M23.4678 23.225C23.9178 24.275 23.4303 25.4875 22.3928 25.95C21.3428 26.4 20.1303 25.9125 19.6678 24.875C19.2178 23.825 19.7053 22.6125 20.7428 22.15C21.7928 21.7 23.0053 22.1875 23.4678 23.225Z" fill="#FFCA3A" />
    <path d="M15.8765 26.5125C16.3265 27.5625 15.8515 28.775 14.8015 29.225C13.7515 29.675 12.539 29.2 12.089 28.15C11.6265 27.1 12.114 25.8875 13.164 25.4375C14.2015 24.9875 15.4265 25.4625 15.8765 26.5125Z" fill="#FFCA3A" />
    <path d="M20.5859 16.5875L13.8234 21.775L12.5859 18.925L19.3484 13.75L20.5859 16.5875Z" fill="#FFCA3A" />
    <path d="M27.5156 33.75L32.5406 14.6875C32.7156 14.0125 33.3906 13.6125 34.0656 13.7875L55.9781 19.55C56.6531 19.725 57.0531 20.4125 56.8781 21.075L53.5406 33.75H50.3156L48.8031 31.1625C48.1656 30.075 46.7656 29.7 45.6656 30.3375L42.0531 32.45L40.4906 27.9C39.9656 26.35 38.0281 25.85 36.8156 26.925L29.1281 33.75H27.5156Z" fill="#50BC1E" />
    <path d="M50.3172 33.75H42.5047L42.0547 32.45L44.1047 31.25H46.4297C47.1797 31.25 47.8922 31.0875 48.5422 30.8C48.6422 30.9125 48.7297 31.0375 48.8047 31.1625L50.3172 33.75Z" fill="#5A189A" />
    <path d="M42.5 33.75H29.125L31.9375 31.25H41.6375L42.05 32.45L42.5 33.75Z" fill="#8E2F86" />
    <path d="M56.8766 21.075L53.5391 33.75H50.3141L48.8016 31.1625C48.7266 31.0375 48.6391 30.9125 48.5391 30.8C49.9516 30.175 51.0516 28.9375 51.4641 27.375L53.6766 18.95L55.9766 19.55C56.6516 19.725 57.0516 20.4125 56.8766 21.075Z" fill="#047C0C" />
    <path d="M31.9406 31.25L29.1281 33.75H27.5156L28.1781 31.25H31.9406Z" fill="#047C0C" />
    <path d="M66.9141 66.25V72.5C66.9141 73.1875 66.3516 73.75 65.6641 73.75H54.4141C53.7266 73.75 53.1641 73.1875 53.1641 72.5V66.25C53.1641 65.5625 53.7266 65 54.4141 65H65.6641C66.3516 65 66.9141 65.5625 66.9141 66.25Z" fill="#BF459F" />
    <path d="M66.9141 66.25V72.5C66.9141 73.1875 66.3516 73.75 65.6641 73.75H54.4141C53.7266 73.75 53.1641 73.1875 53.1641 72.5V71.25H63.1641C63.8516 71.25 64.4141 70.6875 64.4141 70V65H65.6641C66.3516 65 66.9141 65.5625 66.9141 66.25Z" fill="#8E2F86" />
    <path d="M79.4141 49.05V54.3125C79.4141 55.65 77.5891 56.05 77.0266 54.8375L71.9141 43.75V33.75L79.2766 48.4875C79.3641 48.6625 79.4141 48.85 79.4141 49.05Z" fill="#FFCA3A" />
    <path d="M9.41406 33.75V43.75L4.30156 54.8375C3.73906 56.05 1.91406 55.65 1.91406 54.3125V49.05C1.91406 48.85 1.96406 48.6625 2.05156 48.4875L9.41406 33.75Z" fill="#FFCA3A" />
    <path d="M79.4141 49.05V54.3125C79.4141 55.65 77.5891 56.05 77.0266 54.8375L76.8891 54.55C76.9016 54.475 76.9141 54.4 76.9141 54.3125V49.05C76.9141 48.85 76.8641 48.6625 76.7766 48.4875L71.9141 38.75V33.75L79.2766 48.4875C79.3641 48.6625 79.4141 48.85 79.4141 49.05Z" fill="#FF9700" />
    <path d="M9.4125 33.75V43.75L4.3 54.8375C3.775 55.975 2.1375 55.7 1.9375 54.55L6.9125 43.75V38.75L9.4125 33.75Z" fill="#FF9700" />
    <path d="M50.3141 33.75H53.5391H71.9141L67.1266 56.5125C67.0016 57.0875 66.4891 57.5 65.9016 57.5H15.4266C14.8391 57.5 14.3266 57.0875 14.2016 56.5125L9.41406 33.75H27.5141H29.1266H42.5016H50.3141Z" fill="#FFCA3A" />
    <path d="M71.9125 33.75L67.125 56.5125C67 57.0875 66.4875 57.5 65.9 57.5H15.425C14.8375 57.5 14.325 57.0875 14.2 56.5125L13.625 53.75H63.4C63.9875 53.75 64.5 53.3625 64.625 52.8125L68.8625 33.75H71.9125Z" fill="#FF9700" />
    <path d="M65.6641 63.75H54.4141C53.0353 63.75 51.9141 64.8712 51.9141 66.25V72.5C51.9141 73.8788 53.0353 75 54.4141 75H65.6641C67.0428 75 68.1641 73.8788 68.1641 72.5V66.25C68.1641 64.8712 67.0428 63.75 65.6641 63.75ZM54.4141 72.5V66.25H65.6641L65.6653 72.5H54.4141Z" fill="#472B3C" />
    <path d="M73.0328 33.1912C72.8203 32.7675 72.3878 32.5 71.9141 32.5H55.1603L58.0853 21.3938C58.2553 20.7488 58.1628 20.0763 57.8253 19.5C57.4866 18.92 56.9416 18.5088 56.2941 18.34L34.3791 12.5775C33.7278 12.4075 33.0528 12.5013 32.4778 12.8425C31.9053 13.1813 31.4966 13.7237 31.3303 14.3687L26.5516 32.5H9.41406C8.94031 32.5 8.50781 32.7675 8.29531 33.1912L0.927812 47.9275C0.755312 48.2725 0.664062 48.66 0.664062 49.045V54.3087C0.664062 55.5112 1.45281 56.4925 2.62781 56.75C3.80031 57.0138 4.93031 56.45 5.43531 55.3562L8.16406 49.4425V77.5C8.16406 78.8788 9.28531 80 10.6641 80H70.6641C72.0428 80 73.1641 78.8788 73.1641 77.5V49.4413L75.8941 55.3562C76.3166 56.2712 77.1766 56.8125 78.1341 56.8125C78.3203 56.8125 78.5091 56.7925 78.7003 56.75C79.8753 56.4925 80.6641 55.5112 80.6641 54.3087V49.045C80.6641 48.6588 80.5728 48.2725 80.4003 47.9262L73.0328 33.1912ZM33.7466 14.9962L55.6691 20.7562L52.5753 32.5H51.0316L49.8803 30.53C48.8966 28.8488 46.7241 28.2787 45.0341 29.2575L42.7403 30.5988L41.6728 27.5C41.2928 26.3775 40.3816 25.5263 39.2353 25.2213C38.0853 24.92 36.8716 25.2037 35.9841 25.99L29.2841 31.9388L33.7466 14.9962ZM48.1353 32.5H44.4416L46.2903 31.4188C46.7891 31.1288 47.4316 31.2975 47.7216 31.7937L48.1353 32.5ZM40.7503 32.5H32.4178L37.6441 27.86C38.0153 27.53 38.4316 27.5913 38.5941 27.6375C38.7541 27.68 39.1453 27.83 39.3066 28.3063L40.7503 32.5ZM3.16406 54.3087V49.045L8.16406 39.045V43.475L3.16406 54.3087ZM10.6641 77.5V45.7537L12.9816 56.7637C13.2228 57.915 14.2528 58.75 15.4291 58.75H19.4141C20.1041 58.75 20.6641 58.1912 20.6641 57.5C20.6641 56.8087 20.1041 56.25 19.4141 56.25H15.4291L10.9541 35H70.3728L65.8991 56.25H24.4141C23.7241 56.25 23.1641 56.8087 23.1641 57.5C23.1641 58.1912 23.7241 58.75 24.4141 58.75H65.8991C67.0753 58.75 68.1041 57.915 68.3453 56.765L70.6641 45.755V77.5H10.6641ZM78.1641 54.3087L73.1641 43.475V39.045L78.1641 49.045V54.3087Z" fill="#472B3C" />
    <path d="M10.9362 28.6475C10.9375 28.6487 10.9362 28.6487 10.9362 28.6475C11.4787 29.8987 12.7025 30.6475 13.985 30.6475C14.4237 30.6475 14.87 30.56 15.2975 30.3737C16.9737 29.6462 17.7475 27.6925 17.0225 26.0188C17.0225 26.0175 17.0225 26.0163 17.0212 26.015L15.3575 22.1713L20.0737 18.5613L21.0362 20.7863C20.7675 20.83 20.5 20.895 20.2437 21.0063C19.4312 21.3575 18.8037 22.0063 18.4775 22.8288C18.1512 23.6525 18.165 24.5537 18.5175 25.3662C19.0587 26.6162 20.2825 27.365 21.565 27.365C22.0037 27.365 22.45 27.2775 22.8762 27.0925C23.6887 26.7412 24.3162 26.0937 24.6425 25.27C24.9687 24.4462 24.9537 23.5475 24.6037 22.7362C24.6037 22.735 24.6037 22.7338 24.6025 22.7325L20.5 13.2538C20.3462 12.9013 20.04 12.6375 19.6675 12.5413C19.2937 12.4475 18.8987 12.525 18.5925 12.7588L11.83 17.9363C11.375 18.285 11.215 18.8988 11.4425 19.425L13.4525 24.07C13.1825 24.1138 12.9162 24.1787 12.66 24.29C10.985 25.015 10.2112 26.97 10.9362 28.6475ZM22.3212 24.3488C22.2412 24.5513 22.0862 24.71 21.8875 24.7963C21.4762 24.975 20.9937 24.785 20.8137 24.3712C20.7275 24.1725 20.7237 23.95 20.805 23.7475C20.885 23.545 21.04 23.3862 21.2387 23.3C21.44 23.2137 21.6612 23.2088 21.8637 23.29C22.065 23.3688 22.2237 23.5238 22.3112 23.7225L22.3125 23.725L22.3137 23.7263C22.3987 23.9263 22.4012 24.1475 22.3212 24.3488ZM18.845 15.715L19.0525 16.195L14.3362 19.805L14.1287 19.325L18.845 15.715ZM13.6575 26.5825C13.8562 26.4975 14.0762 26.4937 14.28 26.5725C14.4812 26.6525 14.64 26.8062 14.7275 27.0062L14.7287 27.0088L14.73 27.01C14.9075 27.4225 14.7175 27.9025 14.305 28.08C13.8925 28.2575 13.4112 28.0675 13.2325 27.6563C13.0525 27.2425 13.2425 26.7613 13.6575 26.5825Z" fill="#472B3C" />
    <path d="M70.651 10.6062C70.146 10.3237 69.1922 9.71375 68.4835 8.79625C67.811 7.92375 67.4597 6.92375 67.2847 6.2375C67.0122 5.17625 66.4997 4.24 65.8022 3.53C62.8997 0.563749 59.191 2.485 54.496 4.9175C51.666 6.38375 50.2847 7.89375 50.2735 9.535C50.266 10.685 51.0997 11.7162 52.2547 11.9875C53.081 12.1812 54.7335 12.5437 56.5147 12.7962C58.0147 13.0087 59.261 14.5837 59.6072 15.0612C59.786 15.3075 59.971 15.5487 60.1647 15.785C60.5385 16.2412 61.7447 17.845 61.5685 19.3525C61.3585 21.1562 61.2897 22.8375 61.2672 23.6775C61.2347 24.865 62.021 25.9337 63.1347 26.2175C63.3722 26.2787 63.616 26.3087 63.8635 26.3087C65.2735 26.3087 66.8572 25.32 68.6747 23.31C72.221 19.3862 75.0222 16.2887 72.8935 12.7262C72.3835 11.8725 71.6072 11.1387 70.651 10.6062ZM66.821 21.6337C64.681 24.0025 63.796 23.8062 63.7672 23.745C63.7885 22.945 63.8535 21.3487 64.0522 19.6437C64.1497 18.8062 64.0197 18 63.7885 17.2625C64.1397 18.0075 64.776 18.6175 65.6122 18.9125C65.961 19.035 66.316 19.0937 66.666 19.0937C67.9822 19.0937 69.2172 18.2725 69.6785 16.9625C70.2622 15.3025 69.386 13.4787 67.726 12.895C66.9222 12.61 66.0585 12.6587 65.2885 13.0275C64.521 13.3962 63.9422 14.0425 63.6597 14.845C63.4435 15.4612 63.4297 16.1 63.581 16.6887C63.1285 15.5687 62.481 14.6675 62.0997 14.2025C61.9372 14.0037 61.781 13.8025 61.631 13.595C61.2585 13.0812 60.6835 12.3937 59.9397 11.7762C60.276 11.8887 60.6185 11.9462 60.9547 11.9462C62.271 11.9462 63.5072 11.125 63.9685 9.81375C64.5497 8.155 63.6747 6.33 62.016 5.7475C61.2122 5.465 60.3485 5.5125 59.5785 5.88125C58.811 6.25 58.2322 6.895 57.9497 7.6975C57.5485 8.84125 57.8497 10.0525 58.6122 10.8925C58.081 10.6212 57.501 10.41 56.866 10.32C55.1822 10.0812 53.611 9.73625 52.7735 9.55C52.7735 9.5125 52.8122 8.60375 55.646 7.135C60.451 4.6475 62.5535 3.78125 64.0172 5.2775C64.4072 5.675 64.6997 6.2225 64.8635 6.85875C65.0985 7.77 65.5722 9.1125 66.5047 10.3225C67.4372 11.5312 68.6122 12.33 69.4347 12.79C70.0085 13.1087 70.4635 13.5312 70.7497 14.01C71.8222 15.8062 70.451 17.62 66.821 21.6337ZM66.0197 15.675C66.081 15.5 66.206 15.3612 66.3722 15.2825C66.4672 15.2362 66.5685 15.2137 66.6697 15.2137C66.7472 15.2137 66.8247 15.2275 66.8997 15.2525C67.2585 15.3787 67.4472 15.7737 67.3222 16.1312C67.196 16.49 66.801 16.6825 66.4435 16.5537C66.0822 16.4287 65.8935 16.0325 66.0197 15.675ZM60.3072 8.52875C60.3072 8.5275 60.3072 8.5275 60.3072 8.52875C60.3685 8.35375 60.4935 8.215 60.6597 8.13625C60.7547 8.09125 60.856 8.0675 60.9572 8.0675C61.0347 8.0675 61.1122 8.08125 61.186 8.10625C61.5447 8.2325 61.7335 8.6275 61.6085 8.985C61.4835 9.3425 61.0897 9.535 60.7285 9.4075C60.371 9.2825 60.1822 8.88625 60.3072 8.52875Z" fill="#472B3C" />
    <path d="M26.9476 12.7737C27.2101 12.8562 27.4788 12.8988 27.7451 12.8988C28.3438 12.8988 28.9313 12.6913 29.4076 12.295L37.2226 5.7825C38.0351 5.105 38.3526 4.055 38.0526 3.04125C37.7526 2.0275 36.9138 1.32 35.8651 1.195L26.0301 0.0199997C25.1763 -0.0812503 24.3238 0.245 23.7576 0.89625C23.1913 1.5475 22.9838 2.4325 23.2026 3.2675L25.2213 10.9537C25.4488 11.82 26.0938 12.5 26.9476 12.7737ZM25.7338 2.50125L35.5688 3.67625L35.6226 3.85875L27.8076 10.3712L27.6401 10.3175L25.6213 2.63125L25.7338 2.50125Z" fill="#472B3C" />
    <path d="M70.4392 30.255C70.6042 30.3288 70.7755 30.3625 70.9455 30.3625C71.4242 30.3625 71.8817 30.085 72.0892 29.6188C72.5005 28.6925 73.068 27.855 73.7767 27.1313C74.538 26.3513 75.2992 25.8988 76.0392 25.7825C76.7205 25.675 77.1867 25.035 77.0805 24.3538C76.9742 23.6713 76.3355 23.21 75.6517 23.3113C74.368 23.5125 73.1342 24.21 71.988 25.3825C71.0705 26.3213 70.3355 27.405 69.803 28.605C69.523 29.2375 69.808 29.975 70.4392 30.255Z" fill="#472B3C" />
    <path d="M43.1642 8.75C43.643 8.75 44.1005 8.4725 44.308 8.00625C44.7192 7.08 45.2867 6.2425 45.9955 5.51875C46.7567 4.73875 47.518 4.28625 48.258 4.17C48.9392 4.0625 49.4055 3.4225 49.2992 2.74125C49.193 2.05875 48.5555 1.60125 47.8705 1.69875C46.5867 1.9 45.353 2.5975 44.2067 3.77C43.2892 4.70875 42.5542 5.7925 42.0217 6.9925C41.7417 7.625 42.0267 8.3625 42.658 8.6425C42.823 8.71625 42.9942 8.75 43.1642 8.75Z" fill="#472B3C" />
    <path d="M18.8872 8.46625C19.1172 8.875 19.5409 9.105 19.9797 9.105C20.1872 9.105 20.3959 9.05375 20.5897 8.945C21.1922 8.6075 21.4072 7.84625 21.0697 7.245C20.0159 5.36375 18.3672 3.81375 16.4259 2.87875C15.8059 2.575 15.0572 2.83875 14.7572 3.46125C14.4572 4.08375 14.7184 4.83125 15.3409 5.13C16.8222 5.845 18.0834 7.03 18.8872 8.46625Z" fill="#472B3C" />
  </g>
  <defs>
    <clipPath id="clip0_554_21167">
      <rect width="80" height="80" fill="white" transform="translate(0.664062)" />
    </clipPath>
  </defs>
</svg>