<svg width="80" height="80" viewBox="0 0 81 81" fill="none" xmlns="http://www.w3.org/2000/svg">
  <g clip-path="url(#clip0_554_20871)">
    <path d="M69.7068 69.8619C69.7068 66.1652 66.8029 63.2613 63.1061 63.2613H52.5451C48.849 63.2613 45.9444 66.1652 45.9444 69.8619C42.2483 69.8619 39.3438 72.7658 39.3438 76.4626V80.423H76.3074V76.4626C76.3074 72.7658 73.4035 69.8619 69.7068 69.8619Z" fill="#F4C167" />
    <path d="M65.75 52.7002L76.3111 63.2613V49.7957C76.3111 49.1356 76.0474 48.4755 75.5195 47.9476L68.3903 40.819H65.75V52.7002Z" fill="#727272" />
    <path d="M49.9048 52.7002L39.3438 63.2613V49.7957C39.3438 49.1356 39.608 48.4755 40.136 47.9476L47.2645 40.819H49.9048V52.7002Z" fill="#727272" />
    <path d="M22.1855 71.1821H16.905C11.7566 71.1821 7.66406 75.2746 7.66406 80.423H31.4264C31.4264 75.2746 27.3345 71.1821 22.1855 71.1821Z" fill="#F4C167" />
    <path d="M11.6241 54.0203L5.81565 59.8288C5.28772 60.3567 5.02344 61.0168 5.02344 61.6768V69.8619L12.9442 61.9411L11.6241 54.0203Z" fill="#727272" />
    <path d="M33.2699 59.8288L27.4608 54.0203L26.1406 61.9411L34.0614 69.8619V61.6768C34.0614 61.0168 33.7978 60.3567 33.2699 59.8288Z" fill="#727272" />
    <path d="M19.5449 22.3372L18.0933 23.9209C11.4926 31.3138 8.85234 41.4791 10.7004 51.1158L12.9442 61.9411H26.1456L28.2579 51.2479C30.2381 41.4791 27.4657 31.446 20.865 24.0531L19.5449 22.3372Z" fill="#BFBFBF" />
    <path d="M11.3594 54.0203L12.9431 61.9411H26.1445L27.7289 54.0203H11.3594Z" fill="#8C8C8C" />
    <path d="M57.8224 2.53519L54.7864 6.09916C47.5257 14.68 44.4896 26.1654 46.7335 37.2544L49.9016 52.7002H65.7432L68.7799 37.2544C71.0238 26.1654 67.9877 14.68 60.727 6.09916L57.8224 2.53519Z" fill="#BFBFBF" />
    <path d="M64.4279 30.258C64.4279 33.9032 61.4731 36.8586 57.8272 36.8586C54.182 36.8586 51.2266 33.9032 51.2266 30.258C51.2266 26.6121 54.182 23.6573 57.8272 23.6573C61.4731 23.6573 64.4279 26.6121 64.4279 30.258Z" fill="#2B4A66" />
    <path d="M61.788 56.6606H53.8673C50.8312 60.3567 51.227 65.9015 54.5273 69.2019L57.8276 72.5022L61.128 69.2019C64.4283 65.9015 64.8247 60.3567 61.788 56.6606Z" fill="#F4A422" />
    <path d="M63.1072 73.8223H52.5462C49.6422 73.8223 47.2656 76.1983 47.2656 79.1028V80.423H68.3877V79.1028C68.3877 76.1983 66.0118 73.8223 63.1072 73.8223Z" fill="#F4A422" />
    <path d="M16.9012 65.9015C15.3174 68.1454 15.7132 71.3142 17.5612 73.1623L19.5414 75.1425L21.5216 73.1623C23.5018 71.1821 23.7661 68.1454 22.1817 65.9015" fill="#F4A422" />
    <path d="M23.4989 43.4593C23.4989 45.6464 21.7263 47.4197 19.5385 47.4197C17.3514 47.4197 15.5781 45.6464 15.5781 43.4593C15.5781 41.2722 17.3514 39.4989 19.5385 39.4989C21.7263 39.4989 23.4989 41.2722 23.4989 43.4593Z" fill="#2B4A66" />
    <path d="M36.7031 6.49559H39.3434V13.0963H36.7031V6.49559Z" fill="#D6D7D8" />
    <path d="M28.7891 17.0566H31.4293V21.017H28.7891V17.0566Z" fill="#D6D7D8" />
    <path d="M15.5859 9.13585H18.2262V15.7365H15.5859V9.13585Z" fill="#D6D7D8" />
    <path d="M26.1484 1.21506H28.7887V6.49559H26.1484V1.21506Z" fill="#D6D7D8" />
    <path d="M34.0625 30.258H36.7028V34.2184H34.0625V30.258Z" fill="#D6D7D8" />
    <path d="M3.70312 17.0566H6.34339V21.017H3.70312V17.0566Z" fill="#D6D7D8" />
    <path d="M73.6719 2.53519H76.3121V9.13585H73.6719V2.53519Z" fill="#D6D7D8" />
    <path d="M45.9453 2.53519H48.5856V6.49559H45.9453V2.53519Z" fill="#D6D7D8" />
    <path d="M20.9956 23.9209L19.5433 22.3372L18.0917 23.9209C15.7151 26.5612 13.867 29.5979 12.5469 32.8982H26.5404C25.2203 29.5979 23.3722 26.5612 20.9956 23.9209Z" fill="#8C8C8C" />
    <path d="M11.3594 54.0203L12.9431 61.9411H19.5438V54.0203H11.3594Z" fill="#A0A0A0" />
    <path d="M66.6733 15.7365C65.2211 12.1719 63.2409 9.00371 60.7328 6.09916L57.8282 2.53519L54.7922 6.09916C52.284 9.00371 50.3038 12.304 48.8516 15.7365H66.6733Z" fill="#8C8C8C" />
    <path d="M49.9041 52.7002H57.8249V44.7794H48.3203L49.9041 52.7002Z" fill="#A0A0A0" />
    <path d="M65.7489 52.7002H57.8281V44.7794H67.3333L65.7489 52.7002Z" fill="#8C8C8C" />
    <path d="M76.4394 47.0233L69.5751 40.159L70.103 37.3865C72.479 26.0333 69.443 14.1521 61.7858 5.17546L57.8254 0.422852L53.865 5.17546C46.3407 14.02 43.1725 25.9011 45.5484 37.3865L46.0764 40.159L39.2121 47.0233C38.4199 47.8155 38.0234 48.7398 38.0234 49.7957V66.4295L50.4332 54.0203H65.2183L77.6274 66.4295V49.7957C77.6274 48.7398 77.2316 47.8155 76.4394 47.0233ZM55.8452 6.89137L57.8254 4.51539L59.8056 6.89137C61.7858 9.26799 63.3702 11.7761 64.6904 14.4164H50.9611C52.2813 11.7761 53.865 9.26799 55.8452 6.89137ZM40.6637 49.7957C40.6637 49.3999 40.7958 49.1356 41.0601 48.872L46.7364 43.195L48.5845 52.1723L40.6637 60.0931V49.7957ZM59.1455 51.3801V43.4593H56.5053V51.3801H50.9611L49.9046 46.0995H53.865V43.4593H49.3767L48.0566 36.9908C46.7364 30.3901 47.2644 23.393 49.7731 17.0566H65.7462C68.255 23.393 68.7829 30.258 67.4628 36.9908L66.1426 43.4593H61.7858V46.0995H65.7462L64.6904 51.3801H59.1455ZM74.9871 60.0931L67.1985 52.3038L69.0465 43.3271L74.7235 49.0035C74.9871 49.2677 75.1193 49.532 75.1193 49.9278V60.0931H74.9871Z" fill="black" />
    <path d="M65.7478 30.258C65.7478 25.9011 62.1839 22.3372 57.827 22.3372C53.4709 22.3372 49.9062 25.9011 49.9062 30.258C49.9062 34.6141 53.4709 38.1788 57.827 38.1788C62.1839 38.1788 65.7478 34.6141 65.7478 30.258ZM57.827 35.5385C54.9231 35.5385 52.5465 33.1619 52.5465 30.258C52.5465 27.3534 54.9231 24.9774 57.827 24.9774C60.7316 24.9774 63.1076 27.3534 63.1076 30.258C63.1076 33.1619 60.7316 35.5385 57.827 35.5385Z" fill="black" />
    <path d="M70.8952 68.6739C70.3667 65.6372 68.1228 63.1291 65.0861 62.3369C64.9546 59.9609 64.1624 57.7165 62.7102 55.8684L60.5978 57.4528C63.2381 60.621 62.9744 65.3736 59.9378 68.2775L57.8254 70.6541L55.4494 68.2775C52.5449 65.3736 52.2813 60.7531 54.7894 57.4528L52.677 55.8684C51.2248 57.7165 50.4332 59.9609 50.3011 62.3369C47.2644 63.1291 45.0205 65.6372 44.4926 68.6739C40.928 69.2019 38.0234 72.5022 38.0234 76.4626V80.423H40.6637V76.4626C40.6637 73.558 43.0403 71.1821 45.9442 71.1821H47.2644V69.8619C47.2644 67.6174 48.7166 65.6372 50.6968 64.9772C51.0933 66.9574 52.1491 68.8054 53.6014 70.2577L57.8254 74.4824L62.0501 70.2577C63.5024 68.8054 64.5582 66.9574 64.9546 64.9772C67.0663 65.7694 68.3865 67.7496 68.3865 69.8619V71.1821H69.7066C72.6112 71.1821 74.9871 73.558 74.9871 76.4626V80.423H77.6274V76.4626C77.6274 72.5022 74.7235 69.2019 70.8952 68.6739Z" fill="black" />
    <path d="M45.9453 79.1028V80.423H48.5856V79.1028C48.5856 76.8584 50.3021 75.1425 52.546 75.1425V72.5022C48.8499 72.5022 45.9453 75.4061 45.9453 79.1028Z" fill="black" />
    <path d="M63.1094 72.5022V75.1425C65.3539 75.1425 67.0698 76.8584 67.0698 79.1028V80.423H69.71V79.1028C69.71 75.4061 66.8061 72.5022 63.1094 72.5022Z" fill="black" />
    <path d="M29.1821 53.7561L29.71 51.3801C31.6902 41.2148 28.9178 30.7859 22.0535 22.9972L19.5447 20.357L17.1687 23.1294C10.3038 30.7859 7.53202 41.3469 9.51222 51.5122L10.0401 53.8882L4.89176 59.0366C4.09955 59.6967 3.70312 60.621 3.70312 61.6769V73.0301L13.4726 63.2613H25.6174L35.3863 73.0301V61.6769C35.3863 60.621 34.9905 59.5645 34.1983 58.9044L29.1821 53.7561ZM19.1489 24.8453L19.5447 24.3174L19.9411 24.8453C21.7892 26.8255 23.2415 29.2015 24.4295 31.5781H14.5285C15.8486 29.2015 17.3009 26.8255 19.1489 24.8453ZM6.34339 61.6769C6.34339 61.2811 6.47553 61.0168 6.73982 60.7531L10.5681 56.9242L11.4924 61.5447L6.34339 66.6937V61.6769ZM20.8648 60.621V52.7002H18.2246V60.621H14.0005L12.944 55.3405H15.5843V52.7002H12.4161L12.0203 50.9837C10.9639 45.3073 11.4924 39.4989 13.4726 34.2184H25.6174C27.5976 39.4989 28.1256 45.3073 27.0697 50.9837L26.6739 52.7002H23.5051V55.3405H26.1454L25.0895 60.621H20.8648ZM32.746 66.6937L27.5976 61.5447L28.522 56.9242L32.3502 60.7531C32.6145 61.0168 32.746 61.2811 32.746 61.6769V66.6937Z" fill="black" />
    <path d="M24.4298 70.1256C24.6941 68.4097 24.2977 66.6937 23.374 65.2415L21.1295 66.6937C22.3175 68.4097 22.0538 70.7856 20.6016 72.37L19.5451 73.2944L18.6214 72.37C17.1691 70.9178 16.9048 68.5418 18.0934 66.6937L15.849 65.2415C14.9246 66.6937 14.5288 68.4097 14.7931 70.1256C9.77622 71.1821 6.34375 75.4061 6.34375 80.423H8.98401C8.98401 76.5947 11.7564 73.2944 15.5847 72.6343C15.849 73.1623 16.2447 73.6902 16.7733 74.2181L19.6772 77.1227L22.5818 74.2181C22.9775 73.8223 23.374 73.2944 23.7698 72.6343C27.598 73.2944 30.3704 76.5947 30.3704 80.423H33.0107C32.7464 75.4061 29.3146 71.1821 24.4298 70.1256Z" fill="black" />
    <path d="M19.5383 38.1788C16.6344 38.1788 14.2578 40.5547 14.2578 43.4593C14.2578 46.3632 16.6344 48.7398 19.5383 48.7398C22.4429 48.7398 24.8189 46.3632 24.8189 43.4593C24.8189 40.5547 22.4429 38.1788 19.5383 38.1788ZM19.5383 46.0995C18.0867 46.0995 16.8981 44.9116 16.8981 43.4593C16.8981 42.007 18.0867 40.819 19.5383 40.819C20.9906 40.819 22.1786 42.007 22.1786 43.4593C22.1786 44.9116 20.9906 46.0995 19.5383 46.0995Z" fill="black" />
    <path d="M36.7031 6.49559H39.3434V13.0962H36.7031V6.49559Z" fill="black" />
    <path d="M28.7812 17.0566H31.4215V21.017H28.7812V17.0566Z" fill="black" />
    <path d="M15.5781 9.13585H18.2184V15.7365H15.5781V9.13585Z" fill="black" />
    <path d="M26.1406 1.21506H28.7809V6.49559H26.1406V1.21506Z" fill="black" />
    <path d="M34.0625 30.258H36.7028V34.2184H34.0625V30.258Z" fill="black" />
    <path d="M3.70312 17.0566H6.34339V21.017H3.70312V17.0566Z" fill="black" />
    <path d="M73.6641 2.53519H76.3043V9.13585H73.6641V2.53519Z" fill="black" />
    <path d="M45.9453 2.53519H48.5856V6.49559H45.9453V2.53519Z" fill="black" />
  </g>
  <defs>
    <clipPath id="clip0_554_20871">
      <rect width="79.868" height="80" fill="white" transform="translate(0.664062 0.422852)" />
    </clipPath>
  </defs>
</svg>