<svg width="80" height="80" viewBox="0 0 81 81" fill="none" xmlns="http://www.w3.org/2000/svg">
  <g clip-path="url(#clip0_554_20866)">
    <path d="M1.50781 24.1942V72.374C1.50781 76.1713 4.58606 79.2495 8.38335 79.2495H62.342C66.1391 79.2495 69.2175 76.1713 69.2175 72.374V8.47111C69.2175 4.67382 66.1393 1.59557 62.342 1.59557H24.1064C21.8273 1.59557 19.6414 2.50103 18.0297 4.11256L4.0248 18.1173C2.41327 19.7291 1.50781 21.9151 1.50781 24.1942Z" fill="#F9F6F9" />
    <path d="M1.50781 24.1954V25.6626C1.50781 22.8862 3.75926 20.6346 6.53584 20.6346H13.6716C17.4684 20.6346 20.5464 17.5565 20.5464 13.7598V6.62407C20.5464 3.84764 22.7978 1.59604 25.5744 1.59604H24.1072C21.8276 1.59604 19.6417 2.50228 18.0292 4.11318L4.02496 18.1175C2.41405 19.7299 1.50781 21.9158 1.50781 24.1954Z" fill="#DDDAEC" />
    <path d="M39.7637 67.9544L38.1937 64.2985L35.0781 57.0442C35.2417 56.8276 35.4206 56.6221 35.6139 56.4288L60.2335 31.8093C63.6462 28.3965 68.7296 27.6728 72.8495 29.6427C73.9576 30.1697 74.994 30.8922 75.911 31.8093" fill="#78C2A4" />
    <path d="M75.913 31.8093C76.8289 32.7252 77.5514 33.7616 78.0784 34.8675C78.7987 36.3744 79.16 38.0108 79.1589 39.647C79.1589 42.4843 78.0772 45.3203 75.9117 47.4857L51.2923 72.1053C51.099 72.2986 50.8935 72.4777 50.6769 72.6411L43.4215 69.5244L39.7656 67.9544" fill="#95D6A4" />
    <path d="M78.0814 34.8675L40.9055 72.0435L35.6797 66.8177L72.8546 29.6427C73.9628 30.1697 74.9991 30.8922 75.9161 31.8093C76.8319 32.7252 77.5544 33.7616 78.0814 34.8675Z" fill="#95D6A4" />
    <path d="M43.1554 74.0111L36.5175 74.2432C35.4834 74.2786 34.562 73.777 34.0107 72.9959C33.656 72.4909 33.456 71.8712 33.4782 71.2039L33.7103 64.5661L38.4809 65.0499L42.6008 65.4687L43.1554 74.0111Z" fill="#756E78" />
    <path d="M34.0107 72.9958C33.656 72.4908 33.456 71.871 33.4782 71.2038L33.7103 64.5659L38.4809 65.0498L34.0107 72.9958Z" fill="#665E66" />
    <path d="M50.6779 72.6412C49.6913 73.3936 48.4891 73.8244 47.2364 73.8687L43.1562 74.0111L33.7109 64.5659L33.8534 60.4857C33.8977 59.2328 34.3285 58.0308 35.0809 57.0442C36.5216 56.0299 38.5257 56.1669 39.815 57.4563C41.258 58.8992 41.2569 61.2381 39.8139 62.681C41.2569 61.2381 43.5969 61.2381 45.0398 62.681C46.4838 64.1251 46.4828 66.4639 45.0398 67.9069C46.4828 66.4639 48.8227 66.4639 50.2657 67.9069C51.5539 69.1952 51.692 71.2005 50.6779 72.6412Z" fill="#FFE07D" />
    <path d="M36.9381 67.7932L33.7109 64.5661L33.8534 60.4859C33.8977 59.2329 34.3285 58.031 35.0809 57.0444C36.5216 56.0301 38.5257 56.167 39.815 57.4564C41.258 58.8994 41.2569 61.2382 39.8139 62.6812L36.9381 67.7932Z" fill="#FFD064" />
    <path d="M80.3356 39.6475C80.3356 36.3908 79.0742 33.3281 76.7823 31.0172C76.7704 31.004 76.758 30.9912 76.7455 30.9786C74.9462 29.1792 72.7218 28.0581 70.3925 27.6137V8.47049C70.3925 4.03296 66.7817 0.422852 62.3433 0.422852H24.1066C21.5359 0.422852 19.0189 1.46546 17.2009 3.28357C17.189 3.29545 17.1775 3.3075 17.1662 3.31985L3.19572 17.2886C1.35165 19.1364 0.335938 21.5898 0.335938 24.1967V72.3752C0.335938 76.8127 3.94604 80.4229 8.38357 80.4229H62.3433C66.7817 80.4229 70.3926 76.8127 70.3926 72.3752V54.6679L76.7457 48.3149C79.0606 45.9998 80.3356 42.9217 80.3356 39.6475ZM75.0868 32.639C75.6968 33.2489 76.2157 33.9253 76.6404 34.6504L47.1566 64.1343C46.9527 63.2973 46.5245 62.5043 45.8721 61.8519C45.2331 61.2129 44.4476 60.7741 43.5914 60.5653L73.0729 31.0838C73.7797 31.4959 74.4461 32.0024 75.0533 32.604C75.0641 32.6159 75.0754 32.6276 75.0868 32.639ZM49.8124 71.8238C49.0485 72.3582 48.1451 72.6637 47.1977 72.6967L43.6269 72.8212L34.9032 64.0975L35.0277 60.5264C35.0607 59.5801 35.3656 58.6776 35.8989 57.9142C36.8847 57.3122 38.1589 57.456 38.9887 58.2856C39.9716 59.2684 39.9711 60.8682 38.9876 61.8516C38.7587 62.0807 38.644 62.3808 38.644 62.6809C38.644 62.981 38.7585 63.2812 38.9876 63.5102C39.4456 63.9682 40.1882 63.9682 40.6464 63.5102C41.1227 63.0338 41.7561 62.7716 42.4299 62.7716C43.1038 62.7716 43.737 63.0338 44.2133 63.5102C45.1968 64.4937 45.1968 66.0938 44.2133 67.0773C43.9844 67.3062 43.8699 67.6065 43.8699 67.9066C43.8699 68.2067 43.9844 68.5069 44.2133 68.7359C44.6715 69.1939 45.414 69.1939 45.8721 68.7359C46.8554 67.7525 48.4557 67.7525 49.4392 68.7359C50.268 69.5653 50.4126 70.8383 49.8124 71.8238ZM70.7371 30.102L41.931 58.9083C41.7273 58.0716 41.2994 57.2791 40.6475 56.6271C39.9975 55.9772 39.2054 55.5459 38.3664 55.3393L61.0681 32.6376C63.6827 30.0237 67.4054 29.1802 70.7371 30.102ZM34.7914 67.3031L40.4212 72.933L36.4794 73.0705C35.9833 73.0872 35.5201 72.9044 35.17 72.5544C34.8198 72.2043 34.6366 71.7394 34.6539 71.245L34.7914 67.3031ZM62.1165 59.6265C61.6585 60.0846 61.6585 60.8273 62.1165 61.2853C62.5747 61.7433 63.3172 61.7433 63.7753 61.2853L68.0467 57.0137V72.3752C68.0467 75.5193 65.4881 78.0771 62.3431 78.0771H8.38357C5.23949 78.0771 2.68169 75.5193 2.68169 72.3752V25.7C2.68215 25.6873 2.68356 25.675 2.68356 25.6622C2.68356 23.5366 4.41285 21.8073 6.53841 21.8073H6.8199C7.46764 21.8073 7.99277 21.2822 7.99277 20.6344C7.99277 19.9867 7.46764 19.4616 6.8199 19.4616H6.53841C5.62044 19.4616 4.74938 19.6636 3.96497 20.0231C4.22519 19.6416 4.52185 19.2806 4.85525 18.9466L18.8597 4.94373C18.8706 4.93263 18.8814 4.92137 18.8921 4.90995C19.2131 4.59297 19.5631 4.30897 19.9343 4.05751C19.5769 4.84021 19.3761 5.70892 19.3761 6.62407V13.7598C19.3761 16.9038 16.8183 19.4616 13.6743 19.4616H11.499C10.8513 19.4616 10.3262 19.9867 10.3262 20.6344C10.3262 21.2822 10.8513 21.8073 11.499 21.8073H13.6743C18.1117 21.8073 21.7218 18.1972 21.7218 13.7598V6.62407C21.7218 4.49851 23.4511 2.76922 25.5767 2.76922C25.5812 2.76922 25.5857 2.7686 25.5903 2.7686H62.3433C65.4881 2.7686 68.0469 5.3264 68.0469 8.47049V27.3954C64.9181 27.4033 61.7917 28.5973 59.4095 30.9787L34.7901 55.5981C33.4953 56.893 32.7471 58.6143 32.6833 60.4447L32.3096 71.1632C32.27 72.2981 32.708 73.4097 33.5114 74.2132C34.2813 74.9831 35.3342 75.4173 36.4193 75.4173C36.4665 75.4173 36.5138 75.4166 36.5612 75.4148L47.2795 75.0411C49.11 74.9774 50.8313 74.2291 52.1263 72.9343L60.46 64.6006C60.918 64.1426 60.918 63.4001 60.46 62.942C60.0017 62.484 59.2592 62.484 58.8012 62.942L52.3854 69.3576C52.1788 68.5191 51.7475 67.7274 51.0979 67.0776C50.4455 66.4253 49.6523 65.9971 48.8153 65.7932L77.6263 36.9821C77.8641 37.8394 77.9899 38.7336 77.9899 39.6477C77.9899 42.2952 76.9588 44.7842 75.0868 46.6563L62.1165 59.6265Z" fill="black" />
    <path d="M38.1579 22.5465C38.3869 22.7756 38.6871 22.8901 38.9872 22.8901C39.2873 22.8901 39.5876 22.7756 39.8165 22.5465C40.2746 22.0885 40.2746 21.346 39.8165 20.8879L36.0511 17.1225L39.8165 13.3571C40.2746 12.8991 40.2746 12.1566 39.8165 11.6985C39.3585 11.2405 38.6158 11.2405 38.1579 11.6985L34.3925 15.4638L30.6271 11.6984C30.1691 11.2403 29.4264 11.2403 28.9685 11.6984C28.5105 12.1564 28.5105 12.8989 28.9685 13.357L32.7339 17.1224L28.9685 20.8878C28.5105 21.3458 28.5105 22.0883 28.9685 22.5464C29.1975 22.7755 29.4977 22.89 29.7978 22.89C30.0979 22.89 30.3982 22.7755 30.6271 22.5464L34.3925 18.781L38.1579 22.5465Z" fill="black" />
    <path d="M48.8903 22.5465C49.1194 22.7756 49.4195 22.8901 49.7197 22.8901C50.0198 22.8901 50.3201 22.7756 50.5492 22.5465L59.7387 13.3571C60.1968 12.8991 60.1968 12.1566 59.7387 11.6985C59.2807 11.2407 58.5382 11.2405 58.08 11.6985L54.3146 15.4638L50.5504 11.6996C50.0922 11.2416 49.3497 11.2416 48.8917 11.6996C48.4336 12.1577 48.4336 12.9004 48.8917 13.3582L52.6558 17.1224L48.8904 20.8878C48.4324 21.3458 48.4324 22.0885 48.8903 22.5465Z" fill="black" />
    <path d="M42.0635 18.5492H43.4401V19.9259C43.4401 20.5736 43.9651 21.0987 44.613 21.0987C45.2609 21.0987 45.7859 20.5736 45.7859 19.9259V18.5492H47.1627C47.8106 18.5492 48.3356 18.0241 48.3356 17.3764C48.3356 16.7286 47.8106 16.2035 47.1627 16.2035H45.7859V14.8268C45.7859 14.1791 45.2609 13.654 44.613 13.654C43.9651 13.654 43.4401 14.1791 43.4401 14.8268V16.2035H42.0635C41.4156 16.2035 40.8906 16.7286 40.8906 17.3764C40.8906 18.0241 41.4158 18.5492 42.0635 18.5492Z" fill="black" />
    <path d="M27.3845 25.7311C27.6846 25.7311 27.9849 25.6166 28.2138 25.3875C28.6719 24.9295 28.6719 24.187 28.2138 23.7289C24.7111 20.2261 24.7111 14.5267 28.2138 11.0239C28.6719 10.5659 28.6719 9.8232 28.2138 9.36531C27.7558 8.90726 27.0131 8.90726 26.5552 9.36531C22.1378 13.7827 22.1378 20.9703 26.5552 25.3877C26.7843 25.6166 27.0844 25.7311 27.3845 25.7311Z" fill="black" />
    <path d="M60.4763 25.3875C60.7054 25.6166 61.0057 25.7311 61.3058 25.7311C61.6059 25.7311 61.9061 25.6166 62.1352 25.3875C66.5524 20.9702 66.5524 13.7825 62.1352 9.36515C61.6772 8.90727 60.9347 8.90711 60.4765 9.36515C60.0184 9.8232 60.0184 10.5657 60.4765 11.0238C63.9792 14.5266 63.9792 20.226 60.4765 23.7288C60.0183 24.187 60.0183 24.9295 60.4763 25.3875Z" fill="black" />
    <path d="M14.3749 49.6445C14.6038 49.8736 14.9041 49.988 15.2042 49.988C15.5043 49.988 15.8046 49.8736 16.0335 49.6445L19.7989 45.8791L23.5643 49.6445C23.7932 49.8736 24.0935 49.988 24.3936 49.988C24.6937 49.988 24.9939 49.8736 25.2229 49.6445C25.6809 49.1864 25.6809 48.4439 25.2229 47.9859L21.4575 44.2205L25.2229 40.4551C25.6809 39.997 25.6809 39.2545 25.2229 38.7965C24.7648 38.3384 24.0222 38.3384 23.5643 38.7965L19.7989 42.5619L16.0335 38.7965C15.5755 38.3384 14.8328 38.3384 14.3749 38.7965C13.9169 39.2545 13.9169 39.997 14.3749 40.4551L18.1403 44.2205L14.3749 47.9859C13.9167 48.4439 13.9167 49.1866 14.3749 49.6445Z" fill="black" />
    <path d="M24.3935 63.6519H18.0356L25.2228 56.4646C25.5583 56.1292 25.6587 55.6247 25.4771 55.1865C25.2956 54.7483 24.8678 54.4625 24.3935 54.4625H15.2041C14.5564 54.4625 14.0313 54.9876 14.0313 55.6353C14.0313 56.2831 14.5564 56.8082 15.2041 56.8082H21.5621L14.3748 63.9954C14.0394 64.3309 13.939 64.8354 14.1206 65.2735C14.3021 65.7117 14.7298 65.9976 15.2041 65.9976H24.3935C25.0413 65.9976 25.5664 65.4725 25.5664 64.8247C25.5664 64.177 25.0413 63.6519 24.3935 63.6519Z" fill="black" />
    <path d="M28.4159 50.876H10.6026C9.95482 50.876 9.42969 51.4011 9.42969 52.0488C9.42969 52.6966 9.95482 53.2217 10.6026 53.2217H28.4159C29.0636 53.2217 29.5887 52.6966 29.5887 52.0488C29.5887 51.4011 29.0636 50.876 28.4159 50.876Z" fill="black" />
    <path d="M33.2042 46.0542L35.1117 44.7207C36.1229 45.6773 37.4858 46.266 38.9844 46.266C42.0949 46.266 44.6253 43.7354 44.6253 40.6249C44.6253 39.8322 44.4602 39.0775 44.1636 38.3925L47.831 35.8288C48.3621 35.4577 48.4916 34.7264 48.1203 34.1955C47.7494 33.6646 47.018 33.5351 46.4872 33.9062L42.8056 36.48C41.7999 35.5521 40.4575 34.984 38.9846 34.984C38.3587 34.984 37.7569 35.088 37.194 35.2771C38.691 32.3391 40.7326 30.7707 40.7645 30.7466C41.282 30.3594 41.3888 29.6265 41.0028 29.1076C40.6163 28.5879 39.8817 28.4799 39.3617 28.8664C39.153 29.0217 34.2629 32.7351 33.4139 39.7373C33.3679 40.0266 33.3435 40.3228 33.3435 40.6249C33.3435 41.3924 33.4982 42.1241 33.777 42.7917L31.8604 44.1316C31.3294 44.5027 31.2 45.234 31.5711 45.7649C31.7992 46.0913 32.1633 46.266 32.5333 46.266C32.7652 46.266 32.9995 46.1973 33.2042 46.0542ZM42.2795 40.6249C42.2795 42.4419 40.8014 43.9202 38.9844 43.9202C38.2857 43.9202 37.6383 43.7 37.1045 43.3277L42.1677 39.7879C42.2381 40.0557 42.2795 40.3353 42.2795 40.6249ZM35.6891 40.6249C35.6891 38.8079 37.1674 37.3298 38.9842 37.3298C39.6564 37.3298 40.2814 37.5329 40.8031 37.8797L35.7823 41.3898C35.7235 41.1438 35.6891 40.8886 35.6891 40.6249Z" fill="black" />
  </g>
  <defs>
    <clipPath id="clip0_554_20866">
      <rect width="80" height="80" fill="white" transform="translate(0.335938 0.422852)" />
    </clipPath>
  </defs>
</svg>