<svg width="80" height="80" viewBox="0 0 80 80" fill="none" xmlns="http://www.w3.org/2000/svg">
  <path d="M53.75 18.75H23.75V48.75H53.75V18.75Z" fill="#C69324" />
  <path d="M37.5 32.5H30V38.75H37.5V32.5Z" fill="#F5C99D" />
  <path d="M31.25 27.5H36.25C36.5815 27.5 36.8995 27.6317 37.1339 27.8661C37.3683 28.1005 37.5 28.4185 37.5 28.75V32.5H30V28.75C30 28.4185 30.1317 28.1005 30.3661 27.8661C30.6005 27.6317 30.9185 27.5 31.25 27.5Z" fill="#CC4C4D" />
  <path d="M15 10H7.5V17.5H15V10Z" fill="#F5C99D" />
  <path d="M8.75 5H13.75C14.0815 5 14.3995 5.1317 14.6339 5.36612C14.8683 5.60054 15 5.91848 15 6.25V10H7.5V6.25C7.5 5.91848 7.6317 5.60054 7.86612 5.36612C8.10054 5.1317 8.41848 5 8.75 5Z" fill="#CC4C4D" />
  <path d="M28.5942 60L26.3458 65.9965C26.2831 66.1635 26.1854 66.3153 26.0592 66.4415L19.1168 73.3839C19.0007 73.5 18.8629 73.592 18.7113 73.6548C18.5596 73.7177 18.3971 73.75 18.2329 73.75H16.1797C15.95 73.75 15.7248 73.6867 15.5287 73.5671C15.3326 73.4475 15.1733 73.2762 15.0682 73.072C14.9631 72.8678 14.9163 72.6385 14.933 72.4095C14.9496 72.1804 15.029 71.9603 15.1625 71.7735L19.8753 65.1756C19.9583 65.0594 20.0208 64.9298 20.06 64.7925L22.5007 56.25V53.75H28.7507L28.5942 60Z" fill="#B0A9A5" />
  <path d="M22.5 50V55.6067C22.5 55.8057 22.5475 56.0018 22.6385 56.1787C22.7296 56.3556 22.8615 56.5082 23.0235 56.6239L30.6532 62.0737C30.8342 62.203 30.9774 62.3782 31.068 62.5812C31.1587 62.7843 31.1936 63.0079 31.169 63.2289L30.1542 72.362C30.1348 72.5367 30.1525 72.7135 30.2061 72.881C30.2596 73.0484 30.3479 73.2027 30.4652 73.3336C30.5824 73.4646 30.726 73.5694 30.8865 73.6412C31.047 73.7129 31.2208 73.75 31.3966 73.75H32.82C33.0888 73.75 33.3504 73.6633 33.5661 73.5029C33.7818 73.3424 33.94 73.1167 34.0172 72.8592L37.3576 61.7248C37.4491 61.4198 37.4207 61.0914 37.2783 60.8066L32.5 51.25V50H22.5Z" fill="#EFE8E0" />
  <path d="M47.5 48.75V52.5H45L38.9925 51.2985C38.8324 51.2665 38.6801 51.2034 38.5442 51.1128L35.8526 49.3184C35.6122 49.1581 35.3237 49.0861 35.0361 49.1146C34.7485 49.1431 34.4797 49.2703 34.2754 49.4746L32.5 51.25H22.5V47.7407C22.5 47.5817 22.5303 47.4241 22.5894 47.2765L24.8698 41.5754C24.955 41.3626 25.097 41.1772 25.2804 41.0397L29.5721 37.8209C29.7073 37.7195 29.8617 37.6466 30.026 37.6065C30.1902 37.5665 30.3609 37.5601 30.5276 37.5879L36.9306 38.6551C37.1091 38.6848 37.279 38.753 37.4286 38.8548C37.5782 38.9567 37.7039 39.0898 37.797 39.245L41.124 44.79C41.2072 44.9287 41.3165 45.0499 41.4459 45.1469L46.25 48.75H47.5Z" fill="#4FBFCB" />
  <path d="M3.05663 17.9622L7.5 15L14.4658 16.161C14.6344 16.1891 14.7955 16.2515 14.939 16.3443C15.0826 16.4371 15.2056 16.5584 15.3004 16.7006L19.9313 23.647C19.977 23.7155 20.0293 23.7793 20.0875 23.8375L23.75 27.5V31.25L17.8711 30.0742C17.6291 30.0258 17.4069 29.9069 17.2324 29.7324L13.3839 25.8839C13.1495 25.6495 12.8315 25.5178 12.5 25.5178C12.1685 25.5178 11.8505 25.6495 11.6161 25.8839L10.1434 27.3566C10.0484 27.4516 9.96937 27.5613 9.90929 27.6814L9.0955 29.309C8.99168 29.5166 8.8321 29.6913 8.63462 29.8133C8.43715 29.9354 8.2096 30 7.97746 30H2.5V19.0023C2.5 18.7965 2.55081 18.5939 2.64791 18.4125C2.74501 18.2311 2.8854 18.0764 3.05663 17.9622Z" fill="#4FBFCB" />
  <path d="M8.75001 30L13.5701 42.0503C13.6859 42.3396 13.6894 42.6617 13.58 42.9535L10.3042 51.6889C10.2148 51.9272 10.0549 52.1325 9.84576 52.2774C9.63661 52.4223 9.38822 52.5 9.13376 52.5H7.66599C7.48875 52.5 7.31353 52.4623 7.15197 52.3894C6.99041 52.3165 6.84619 52.2101 6.72889 52.0773C6.61159 51.9444 6.52389 51.7881 6.47161 51.6187C6.41933 51.4494 6.40366 51.2708 6.42564 51.095L7.43738 43.0011C7.47756 42.6796 7.39139 42.3552 7.19703 42.096L2.75 36.1666C2.58772 35.9503 2.5 35.6871 2.5 35.4167L2.50001 30H8.75001Z" fill="#EFE8E0" />
  <path d="M18.0703 30.1137L23.7522 31.25V27.5L20.8355 24.5833L18.0703 30.1137Z" fill="#F5C99D" />
  <path d="M39.3906 51.3781L44.9995 52.5H47.4995V48.75H46.2495L42.4995 45.9375L39.3906 51.3781Z" fill="#F5C99D" />
  <path d="M60 73.75C68.9746 73.75 76.25 66.4746 76.25 57.5C76.25 48.5254 68.9746 41.25 60 41.25C51.0254 41.25 43.75 48.5254 43.75 57.5C43.75 66.4746 51.0254 73.75 60 73.75Z" fill="#EEBF3E" />
  <path d="M60 40C58.3064 40.0014 56.622 40.2497 55 40.737V18.75C55.0001 18.5858 54.9678 18.4232 54.905 18.2715C54.8423 18.1198 54.7502 17.982 54.6341 17.8659C54.518 17.7498 54.3802 17.6577 54.2285 17.595C54.0768 17.5322 53.9142 17.4999 53.75 17.5H23.75C23.5858 17.4999 23.4232 17.5322 23.2715 17.595C23.1198 17.6577 22.982 17.7498 22.8659 17.8659C22.7498 17.982 22.6577 18.1198 22.595 18.2715C22.5322 18.4232 22.4999 18.5858 22.5 18.75V24.4824L20.9717 22.9541L16.3391 16.0059C16.3131 15.9668 16.2782 15.9356 16.25 15.8982V6.25C16.2491 5.58722 15.9855 4.95184 15.5168 4.48319C15.0482 4.01453 14.4128 3.75086 13.75 3.75H8.75C8.08722 3.75086 7.45184 4.01453 6.98319 4.48319C6.51453 4.95184 6.25086 5.58722 6.25 6.25V14.3314L3.05664 16.46L4.44336 18.54L7.78198 16.3147L14.2603 17.3938L18.8892 24.3359C18.9807 24.475 19.0862 24.6042 19.2041 24.7217L19.3126 24.8302L17.5739 28.3063L14.2676 25C13.7983 24.5321 13.1627 24.2694 12.5 24.2694C11.8373 24.2694 11.2017 24.5321 10.7324 25L9.26025 26.4722C9.06981 26.6622 8.9115 26.882 8.7915 27.1228L7.9773 28.75H2.5V31.25H7.90359L12.4097 42.5134L9.1333 51.25H7.66602L8.67798 43.1555C8.75987 42.5128 8.58727 41.8636 8.19702 41.3464L4.74976 36.7505L2.75024 38.2495L6.19751 42.8455L5.18555 50.9387C5.17712 51.0423 5.17521 51.1462 5.17982 51.25H2.5V53.75H21.25V55.6067C21.2558 55.7169 21.2691 55.8265 21.2897 55.9349L18.8574 64.4495L14.1455 71.0461C13.8467 71.4715 13.6893 71.9802 13.6956 72.5H2.5V75H60C64.6413 75 69.0925 73.1563 72.3744 69.8744C75.6563 66.5925 77.5 62.1413 77.5 57.5C77.5 52.8587 75.6563 48.4075 72.3744 45.1256C69.0925 41.8437 64.6413 40 60 40ZM8.75 6.25H13.75V8.75H8.75V6.25ZM13.75 11.25V14.7746L8.75 13.9414V11.25H13.75ZM52.5 20V41.7126C49.9448 42.9329 47.7221 44.7524 46.0211 47.0162L42.196 44.1467L38.8684 38.6023C38.8344 38.5455 38.7881 38.4994 38.75 38.446V28.75C38.7491 28.0872 38.4855 27.4518 38.0168 26.9832C37.5482 26.5145 36.9128 26.2509 36.25 26.25H31.25C30.5872 26.2509 29.9518 26.5145 29.4832 26.9832C29.0145 27.4518 28.7509 28.0872 28.75 28.75V36.8744L25 39.6885V20H52.5ZM43.7727 50.98L41.3364 50.4929L42.8829 47.7866L44.6484 49.1107C44.3199 49.716 44.0275 50.3402 43.7727 50.98ZM33.3911 48.5913L31.9824 50H23.75V47.7405L26.0315 42.0398L30.3223 38.8208L36.7249 39.8877L40.0513 45.4309C40.2169 45.7095 40.4359 45.9526 40.6958 46.1462L40.8675 46.275L38.846 49.8125L36.5454 48.2788C36.0639 47.96 35.4873 47.8171 34.9127 47.874C34.3381 47.9309 33.8007 48.1843 33.3911 48.5913ZM36.25 31.25H31.25V28.75H36.25V31.25ZM36.25 33.75V37.2742L31.25 36.4412V33.75H36.25ZM22.5 28.0176V29.7254L19.9179 29.2091L21.1761 26.6937L22.5 28.0176ZM11.8042 51.25L14.7522 43.3887C14.9689 42.8063 14.9615 42.1642 14.7314 41.5869L10.1064 30.0247C10.1392 29.9698 10.1847 29.9261 10.2136 29.8682L11.0278 28.2397L12.5 26.7676L16.3489 30.6165C16.6977 30.9653 17.142 31.2031 17.6257 31.3L22.5 32.2747V44.133L21.427 46.8152C21.3101 47.1097 21.25 47.4236 21.25 47.7405V50C21.2525 50.4402 21.3726 50.8718 21.5979 51.25H11.8042ZM16.1792 72.5L20.8911 65.9033C21.0574 65.6702 21.1828 65.4106 21.2622 65.1355L23.2158 58.2965L26.908 60.9343L25.1746 65.5579L18.2324 72.5H16.1792ZM28.9111 72.2253C28.9056 72.3168 28.9052 72.4085 28.9099 72.5H21.7676L26.9421 67.3254C27.1955 67.0738 27.3912 66.7702 27.5159 66.4355L29.0145 62.4391L29.9268 63.0908L28.9111 72.2253ZM31.3965 72.5L32.4121 63.3667C32.4612 62.9247 32.3913 62.4775 32.2098 62.0715C32.0282 61.6655 31.7416 61.3153 31.3794 61.0571L23.75 55.6067V52.5H31.7272L36.1597 61.366L32.8198 72.5H31.3965ZM35.4301 72.5L38.5547 62.0837C38.7389 61.474 38.6821 60.8169 38.396 60.2478L34.021 51.4966L35.1587 50.3589L37.8552 52.1558C38.1258 52.3357 38.4289 52.4609 38.7476 52.5244L43.0109 53.3769C42.1108 57.0032 42.4053 60.8232 43.8506 64.2687C45.2959 67.7142 47.8148 70.6011 51.0326 72.5H35.4301ZM60 72.5C57.0333 72.5 54.1332 71.6203 51.6664 69.972C49.1997 68.3238 47.2771 65.9811 46.1418 63.2403C45.0065 60.4994 44.7094 57.4834 45.2882 54.5736C45.867 51.6639 47.2956 48.9912 49.3934 46.8934C51.4912 44.7956 54.1639 43.367 57.0736 42.7882C59.9834 42.2094 62.9994 42.5065 65.7403 43.6418C68.4811 44.7771 70.8238 46.6997 72.472 49.1664C74.1203 51.6332 75 54.5333 75 57.5C74.9957 61.4769 73.4139 65.2897 70.6018 68.1018C67.7897 70.9139 63.9769 72.4957 60 72.5Z" fill="black" />
</svg>