<svg width="80" height="80" viewBox="0 0 80 80" fill="none" xmlns="http://www.w3.org/2000/svg">
  <g clip-path="url(#clip0_1_1529)">
    <path d="M47.5631 63.7612C64.8301 63.7612 78.8278 49.7635 78.8278 32.4964C78.8278 15.2294 64.8301 1.23169 47.5631 1.23169C30.296 1.23169 16.2983 15.2294 16.2983 32.4964C16.2983 49.7635 30.296 63.7612 47.5631 63.7612Z" fill="#8AA3A3" />
    <path d="M47.5629 55.0072C59.9952 55.0072 70.0736 44.9288 70.0736 32.4965C70.0736 20.0642 59.9952 9.98584 47.5629 9.98584C35.1306 9.98584 25.0522 20.0642 25.0522 32.4965C25.0522 44.9288 35.1306 55.0072 47.5629 55.0072Z" fill="#ECF0F0" />
    <path d="M47.5631 46.2529C55.1605 46.2529 61.3195 40.0939 61.3195 32.4964C61.3195 24.899 55.1605 18.74 47.5631 18.74C39.9656 18.74 33.8066 24.899 33.8066 32.4964C33.8066 40.0939 39.9656 46.2529 47.5631 46.2529Z" fill="#F7B906" />
    <path d="M47.563 38.7494C51.0165 38.7494 53.816 35.9498 53.816 32.4964C53.816 29.043 51.0165 26.2434 47.563 26.2434C44.1096 26.2434 41.3101 29.043 41.3101 32.4964C41.3101 35.9498 44.1096 38.7494 47.563 38.7494Z" fill="#F37121" />
    <path d="M16.2718 11.4895L14.0278 15.96L27.4392 22.6919L29.6832 18.2215L16.2718 11.4895Z" fill="#AEBB32" />
    <path d="M27.4404 22.6934L36.3862 24.3852L29.6845 18.2227L27.4404 22.6934Z" fill="#ECF0F0" />
    <path d="M15.1499 13.7257L2.85534 7.55444L1.17236 10.9074L2.84237 15.9435L14.0279 15.961L15.1499 13.7257Z" fill="#F7833B" />
    <path d="M15.15 13.7256L2.85547 7.55438L4.5386 4.20125L9.5747 2.53125L16.2721 11.4903L15.15 13.7256Z" fill="#ED3124" />
    <path d="M14.4047 64.6196L17.9419 68.1567L28.5533 57.5454L25.0161 54.0082L14.4047 64.6196Z" fill="#AEBB32" />
    <path d="M28.553 57.545L32.9744 49.5864L25.0156 54.008L28.553 57.545Z" fill="#ECF0F0" />
    <path d="M16.1728 66.3882L6.44531 76.1154L9.09829 78.7684H14.4041L17.9413 68.1568L16.1728 66.3882Z" fill="#ED3124" />
    <path d="M16.1728 66.3881L6.4453 76.1153L3.79248 73.4625V68.1567L14.4041 64.6194L16.1728 66.3881Z" fill="#F7833B" />
    <path d="M63.63 66.1038L68.0176 63.7012L60.8097 50.5385L56.4221 52.9411L63.63 66.1038Z" fill="#AEBB32" />
    <path d="M60.8096 50.5365L54.4111 44.0598L56.4221 52.9392L60.8096 50.5365Z" fill="#ECF0F0" />
    <path d="M65.8242 64.9005L72.4317 76.9661L75.7224 75.1641L77.2111 70.0714L68.018 63.6992L65.8242 64.9005Z" fill="#F3561D" />
    <path d="M65.8241 64.9004L72.4316 76.966L69.141 78.7682L64.0483 77.2795L63.6304 66.1018L65.8241 64.9004Z" fill="#ED3124" />
    <path d="M38.2672 20.814C37.7606 21.2175 37.6772 21.9551 38.0806 22.4617C38.4841 22.9684 39.2217 23.0515 39.7283 22.6483C41.9749 20.8586 44.6839 19.9126 47.563 19.9126C54.5019 19.9126 60.1471 25.5578 60.1471 32.4967C60.1471 35.858 58.8382 39.0181 56.4613 41.395C56.0346 41.8219 56.0062 42.5269 56.3991 42.9858C56.8376 43.4978 57.6426 43.53 58.1194 43.053C60.939 40.2333 62.4919 36.4842 62.4919 32.4966C62.4919 24.2647 55.7949 17.5676 47.563 17.5676C44.1475 17.5676 40.9333 18.6903 38.2672 20.814Z" fill="black" />
    <path d="M77.8791 69.108L68.9136 62.8933L66.6351 58.733C75.0153 52.6311 80 42.8756 80 32.4967C80 14.6107 65.4487 0.0595703 47.5629 0.0595703C42.4001 0.0595703 37.2624 1.30301 32.7052 3.65505C28.423 5.86536 24.6315 9.06053 21.7104 12.9083L17.0452 10.5668L10.5138 1.82942C10.2116 1.42535 9.68502 1.25989 9.20564 1.41864L4.16954 3.08864C3.87438 3.18645 3.63016 3.3977 3.49079 3.67552L0.124533 10.3816C-0.0148426 10.6594 -0.0382802 10.9815 0.0595325 11.2766L1.72954 16.3126C1.88829 16.7915 2.33594 17.1152 2.84048 17.116L13.7492 17.133L17.9516 19.2423C16.0778 23.4182 15.126 27.8734 15.126 32.4964C15.126 40.485 18.0297 48.1008 23.3199 54.0456L13.771 63.5945L3.42188 67.0442C2.94313 67.2038 2.62032 67.6519 2.62032 68.1564V73.4622C2.62032 73.7732 2.74376 74.0714 2.96376 74.2911L8.26955 79.5969C8.48939 79.8169 8.78767 79.9404 9.09846 79.9404H14.4042C14.9089 79.9404 15.3569 79.6174 15.5164 79.1388L18.9661 68.7897L28.7985 58.9572C34.3005 62.8691 40.772 64.9333 47.5631 64.9333C51.971 64.9333 56.2331 64.0678 60.245 62.36L62.4693 66.4217L62.877 77.3232C62.8959 77.8275 63.2353 78.2632 63.7198 78.4046L68.8125 79.893C68.9203 79.9246 69.0311 79.94 69.1414 79.94C69.3365 79.94 69.5303 79.8913 69.7047 79.796L76.2861 76.1917C76.5587 76.0424 76.7609 75.791 76.8484 75.4924L78.3369 70.3997C78.478 69.916 78.2939 69.3955 77.8791 69.108ZM64.0958 64.5103L58.014 53.4045L59.1793 52.7662L60.3447 52.128L66.4265 63.2338L64.0958 64.5103ZM52.3598 45.4472C52.1876 44.8229 51.5421 44.4565 50.9179 44.6289C49.831 44.9287 48.7021 45.0807 47.5629 45.0807C45.157 45.0807 42.9073 44.4011 40.9938 43.225L42.6463 41.5725C43.1041 41.1147 43.1041 40.3722 42.6463 39.9145C42.1885 39.4567 41.4462 39.4567 40.9882 39.9145L39.1004 41.8023C36.5698 39.4989 34.9788 36.1801 34.9788 32.4967C34.9788 30.9403 35.2591 29.4217 35.8121 27.9829C36.0444 27.3785 35.7429 26.7001 35.1384 26.4679C34.5338 26.2354 33.8555 26.5371 33.6233 27.1417C32.9668 28.8498 32.6338 30.6517 32.6338 32.4967C32.6338 36.8265 34.4874 40.7312 37.4418 43.4606L32.9029 47.9995C28.6551 43.9795 26.2244 38.3503 26.2244 32.4968C26.2244 29.5326 26.818 26.6748 27.9879 23.9904L36.0062 25.5068L41.4754 28.252C40.6334 29.456 40.1371 30.9192 40.1371 32.4968C40.1371 36.591 43.4682 39.9222 47.5624 39.9222C48.5979 39.9222 49.5842 39.7084 50.4804 39.3239L53.3035 44.4792L55.1112 52.4605C52.7048 53.3723 50.1703 53.8348 47.5623 53.8348C42.8556 53.8348 38.4216 52.345 34.6973 49.5209L39.297 44.922C41.6652 46.5028 44.5082 47.4256 47.5629 47.4256C48.9129 47.4256 50.2514 47.2451 51.5414 46.8892C52.1656 46.717 52.5321 46.0714 52.3598 45.4472ZM15.6018 15.4393L16.7939 13.0641L28.1105 18.7445L26.9183 21.1196L15.6018 15.4393ZM29.9351 20.3366L30.0347 20.1377L32.5718 22.4706L29.1854 21.8301L29.9351 20.3366ZM47.0371 31.0432C47.6473 31.3496 48.4065 31.0549 48.6553 30.4215C48.8737 29.8653 48.6224 29.2151 48.089 28.9476L45.7257 27.7613C46.296 27.5393 46.9153 27.4162 47.5631 27.4162C50.3645 27.4162 52.6435 29.6954 52.6435 32.4967C52.6435 33.822 52.1329 35.03 51.2989 35.9354L49.4328 32.5281C49.122 31.9603 48.4098 31.7518 47.8412 32.0629C47.2732 32.3739 47.0651 33.0864 47.376 33.6545L49.3468 37.2532C48.7913 37.4623 48.1906 37.5773 47.5629 37.5773C44.7615 37.5773 42.4824 35.2981 42.4824 32.4968C42.4824 31.2951 42.9026 30.1904 43.6026 29.3196L47.0371 31.0432ZM57.2226 51.1644L56.4614 47.8029L58.8836 50.2548L58.0531 50.7095L57.2226 51.1644ZM47.5631 2.40426C64.1561 2.40426 77.6553 15.9037 77.6553 32.4965C77.6553 42.0245 73.1286 50.9884 65.5004 56.6606L62.3834 50.9687C64.99 48.8729 67.1554 46.2172 68.6712 43.2464C70.3798 39.8979 71.2462 36.2811 71.2462 32.4965C71.2462 24.7337 67.4333 17.4541 61.0464 13.024C60.5143 12.6549 59.7839 12.7871 59.4148 13.3191C59.0457 13.8513 59.1778 14.5818 59.71 14.9509C65.4651 18.9432 68.9014 25.5024 68.9014 32.4968C68.9014 38.999 66.0333 44.9929 61.0062 49.0673L55.361 43.3531L52.4659 38.0665C54.011 36.7048 54.9885 34.7134 54.9885 32.4968C54.9885 28.4026 51.6574 25.0715 47.5632 25.0715C45.9337 25.0715 44.4262 25.6006 43.2002 26.4938L37.0591 23.4113L31.5746 18.368C35.6312 13.7776 41.4165 11.1585 47.5634 11.1585C50.5443 11.1585 53.4278 11.761 56.1332 12.9488C56.7264 13.2091 57.4179 12.9394 57.6782 12.3466C57.9386 11.7538 57.6689 11.0621 57.0761 10.8018C54.0714 9.48256 50.8709 8.81349 47.5632 8.81349C40.6901 8.81349 34.2237 11.7623 29.7168 16.9269L23.8429 13.9783C29.5252 6.71615 38.3291 2.40426 47.5631 2.40426ZM9.14158 3.9102L14.8991 11.6118L14.628 12.1518L4.42923 7.03255L5.36845 5.16146L9.14158 3.9102ZM2.43813 10.9993L3.37735 9.12803L13.5763 14.2473L13.3052 14.7873L3.68923 14.7724L2.43813 10.9993ZM20.0485 20.2949L25.7869 23.1754C24.5222 26.121 23.8799 29.2518 23.8799 32.4965C23.8799 38.8339 26.4468 44.934 30.9482 49.3708L25.159 52.587C20.1955 47.0578 17.4707 39.952 17.4707 32.4965C17.4707 28.2415 18.3388 24.1406 20.0485 20.2949ZM28.2827 55.6169L26.9436 54.2778L29.9565 52.6039L28.2827 55.6169ZM4.96485 69.0016L14.0872 65.9608L14.5144 66.388L6.44517 74.4572L4.9647 72.9769L4.96485 69.0016ZM13.5589 77.5958H9.58377L8.10345 76.1153L16.1727 68.0461L16.5999 68.4733L13.5589 77.5958ZM17.9413 66.4986L16.0621 64.6194L25.0157 55.6658L26.8949 57.545L17.9413 66.4986ZM47.5631 62.5888C41.2671 62.5888 35.2682 60.6769 30.1672 57.0534L33.3046 51.4059C37.3916 54.4884 42.4254 56.1794 47.5631 56.1794C50.4815 56.1794 53.3176 55.6564 56.01 54.6267L59.1118 60.2911C55.4542 61.815 51.5746 62.5888 47.5631 62.5888ZM69.004 77.5068L65.1887 76.3916L64.8294 66.7824L65.3594 66.4922L68.1 71.4967L70.8406 76.5013L69.004 77.5068ZM74.7334 74.3691L72.8969 75.3747L67.4158 65.3658L67.4818 65.3295L67.9458 65.0755L75.8487 70.5535L74.7334 74.3691Z" fill="black" />
  </g>
  <defs>
    <clipPath id="clip0_1_1529">
      <rect width="80" height="80" fill="white" />
    </clipPath>
  </defs>
</svg>