<svg width="80" height="80" viewBox="0 0 80 81" fill="none" xmlns="http://www.w3.org/2000/svg">
  <path d="M67.5 26.6728H65C63.6739 26.6728 62.4021 26.1461 61.4645 25.2084C60.5268 24.2707 60 22.9989 60 21.6728V12.9228H72.5V21.6728C72.5 22.9989 71.9732 24.2707 71.0355 25.2084C70.0979 26.1461 68.8261 26.6728 67.5 26.6728Z" fill="#FFD3B6" />
  <path d="M57.5 4.17285L59.3325 5.0891C61.4156 6.13039 63.7124 6.67261 66.0413 6.67285H70C71.3261 6.67285 72.5979 7.19964 73.5355 8.13732C74.4732 9.075 75 10.3468 75 11.6729V12.1116C75.0021 12.6487 74.9177 13.1826 74.75 13.6929L72.5 20.4229L68.9838 15.1491C68.5271 14.4643 67.9086 13.9028 67.1829 13.5144C66.4572 13.1261 65.6468 12.9229 64.8238 12.9229H60C59.337 12.9229 58.7011 12.6595 58.2322 12.1906C57.7634 11.7218 57.5 11.0859 57.5 10.4229V4.17285Z" fill="#FFA31D" />
  <path d="M72.5 21.6729H65V16.6729H72.5C73.163 16.6729 73.7989 16.9362 74.2678 17.4051C74.7366 17.8739 75 18.5098 75 19.1729C75 19.8359 74.7366 20.4718 74.2678 20.9406C73.7989 21.4095 73.163 21.6729 72.5 21.6729Z" fill="#1DB4D8" />
  <path d="M60 21.6729H67.5C68.8807 21.6729 70 20.5536 70 19.1729C70 17.7921 68.8807 16.6729 67.5 16.6729H60C58.6193 16.6729 57.5 17.7921 57.5 19.1729C57.5 20.5536 58.6193 21.6729 60 21.6729Z" fill="#47CBF4" />
  <path d="M76.25 46.6728L74.2975 31.0478C74.1453 29.8395 73.5572 28.7282 72.6437 27.9227C71.7303 27.1172 70.5542 26.6727 69.3363 26.6728H61.0187C60.3061 26.6729 59.6018 26.8253 58.9529 27.1198C58.304 27.4143 57.7255 27.8441 57.2563 28.3803L50 36.6728L52.5 40.4228L58.75 34.1728V46.6728H76.25Z" fill="#706ECF" />
  <path d="M35.7723 12.1379L50.1786 44.2754C50.3107 44.5702 50.5056 44.8327 50.7495 45.0445C50.9935 45.2563 51.2807 45.4124 51.5911 45.5019C51.9016 45.5914 52.2278 45.6121 52.5471 45.5626C52.8664 45.5131 53.171 45.3946 53.4398 45.2154C53.8769 44.9238 54.1965 44.4869 54.3421 43.9821C54.4876 43.4773 54.4496 42.9373 54.2348 42.4578L39.8286 10.3204C39.6964 10.0255 39.5016 9.76304 39.2576 9.55121C39.0137 9.33938 38.7265 9.18329 38.416 9.0938C38.1056 9.00432 37.7793 8.9836 37.4601 9.03309C37.1408 9.08258 36.8361 9.20108 36.5673 9.38035C36.1303 9.67188 35.8106 10.1088 35.6651 10.6136C35.5196 11.1184 35.5576 11.6584 35.7723 12.1379Z" fill="#00C383" />
  <path d="M48.6342 38.9379L49.1192 39.9079C49.3627 40.3953 49.4198 40.9549 49.2799 41.4815C49.14 42.0082 48.8125 42.4656 48.3592 42.7679C48.0954 42.9437 47.7973 43.0614 47.4845 43.1132C47.1718 43.165 46.8516 43.1497 46.5453 43.0684C46.2389 42.9871 45.9533 42.8416 45.7074 42.6415C45.4616 42.4414 45.261 42.1913 45.1192 41.9079L44.6342 40.9378C44.3907 40.4504 44.3335 39.8908 44.4734 39.3642C44.6134 38.8375 44.9408 38.3801 45.3942 38.0779C45.6579 37.9021 45.9561 37.7843 46.2688 37.7325C46.5815 37.6807 46.9017 37.696 47.2081 37.7773C47.5145 37.8586 47.8001 38.0041 48.0459 38.2042C48.2918 38.4043 48.4923 38.6544 48.6342 38.9379Z" fill="#FFD3B6" />
  <path d="M73.0688 39.2478L72.0913 40.5478C71.5412 41.2814 70.8 41.8497 69.9487 42.1903L58.75 46.6728V42.9228L66.475 38.5078C67.1491 38.1228 67.7243 37.5862 68.155 36.9403L68.685 36.1466C69.048 35.6017 69.5975 35.2081 70.2303 35.0398C70.8631 34.8716 71.5355 34.9402 72.1212 35.2328C72.4731 35.409 72.782 35.6602 73.0261 35.9688C73.2701 36.2774 73.4435 36.6358 73.5339 37.0188C73.6242 37.4017 73.6294 37.7998 73.5491 38.185C73.4687 38.5702 73.3047 38.933 73.0688 39.2478Z" fill="#5252C1" />
  <path d="M76.25 46.6728H58.75L53 61.6141C52.6708 62.4702 52.5842 63.4007 52.75 64.3028L54.3188 72.9228H53.75C52.7554 72.9228 51.8016 73.3179 51.0984 74.0212C50.3951 74.7245 50 75.6783 50 76.6728H60L57.875 65.0028C57.7553 64.3448 57.7689 63.6694 57.9149 63.0167C58.0609 62.364 58.3364 61.7472 58.725 61.2028L63.0737 55.1141C63.2823 54.8224 63.5575 54.5849 63.8765 54.4211C64.1955 54.2574 64.549 54.1723 64.9075 54.1728C65.2296 54.1731 65.5479 54.2424 65.8408 54.3762C66.1338 54.51 66.3946 54.7051 66.6057 54.9484C66.8167 55.1917 66.9731 55.4775 67.0642 55.7864C67.1553 56.0953 67.179 56.4202 67.1338 56.7391L66.365 62.1141C66.2888 62.6464 66.2989 63.1875 66.395 63.7166L68.0688 72.9228H67.5C66.5054 72.9228 65.5516 73.3179 64.8484 74.0212C64.1451 74.7245 63.75 75.6783 63.75 76.6728H73.75L71.5763 64.7153C71.3655 63.5574 71.57 62.3623 72.1537 61.3403L75.5912 55.3253C76.0228 54.5701 76.2499 53.7152 76.25 52.8453V46.6728Z" fill="#706ECF" />
  <path d="M55.625 42.9228H58.75V46.6728H55.625C55.1277 46.6728 54.6508 46.4753 54.2992 46.1237C53.9475 45.772 53.75 45.2951 53.75 44.7978C53.75 44.3006 53.9475 43.8237 54.2992 43.472C54.6508 43.1204 55.1277 42.9228 55.625 42.9228Z" fill="#FFD3B6" />
  <path d="M12.5078 69.1652L16.2581 72.9156L12.5078 76.6659L8.75749 72.9156L12.5078 69.1652Z" fill="#47CBF4" />
  <path d="M27.5 17.919L31.2503 21.6693L27.5 25.4196L23.7497 21.6693L27.5 17.919Z" fill="#47CBF4" />
  <path d="M41.25 62.9229L37.5 67.9229L33.75 62.9229H41.25Z" fill="#47CBF4" />
  <path d="M15 57.9228C17.0711 57.9228 18.75 56.2439 18.75 54.1728C18.75 52.1018 17.0711 50.4228 15 50.4228C12.9289 50.4228 11.25 52.1018 11.25 54.1728C11.25 56.2439 12.9289 57.9228 15 57.9228Z" fill="#FFA31D" />
  <path d="M13.75 11.6729C15.8211 11.6729 17.5 9.99392 17.5 7.92285C17.5 5.85178 15.8211 4.17285 13.75 4.17285C11.6789 4.17285 10 5.85178 10 7.92285C10 9.99392 11.6789 11.6729 13.75 11.6729Z" fill="#FFA31D" />
  <path d="M28.75 36.6728H38.75V46.6728H28.75V36.6728Z" fill="#00C383" />
  <path d="M10 24.1692L16.249 30.4182L10 36.6672L3.751 30.4182L10 24.1692Z" fill="#00C383" />
  <path d="M75.5361 30.8978C75.4011 29.8507 75.0027 28.8549 74.3781 28.0036C73.7535 27.1523 72.9232 26.4734 71.9648 26.0303C72.8465 25.1245 73.4315 23.9717 73.6423 22.7253C74.257 22.5315 74.8109 22.1816 75.25 21.7098C75.6891 21.238 75.9983 20.6604 76.1475 20.0334C76.2968 19.4065 76.2809 18.7515 76.1014 18.1325C75.9219 17.5135 75.585 16.9515 75.1236 16.5016L75.9286 14.0879C76.1407 13.4506 76.2488 12.7833 76.2486 12.1116V11.6729C76.2466 10.0159 75.5875 8.4273 74.4158 7.25563C73.2441 6.08395 71.6556 5.42484 69.9986 5.42285H66.0398C63.9053 5.42041 61.8003 4.92368 59.8898 3.9716L58.0573 3.0541C57.8667 2.95885 57.6549 2.91391 57.442 2.92355C57.2291 2.93319 57.0223 2.99709 56.841 3.10919C56.6598 3.22128 56.5102 3.37785 56.4065 3.56401C56.3029 3.75017 56.2485 3.95976 56.2486 4.17285V10.4229C56.2518 11.1957 56.4937 11.9486 56.9412 12.5787C57.3887 13.2088 58.0199 13.6852 58.7486 13.9429V15.6529C58.0092 15.9106 57.3699 16.3946 56.9212 17.0362C56.4726 17.6779 56.2375 18.4446 56.2492 19.2274C56.261 20.0103 56.519 20.7696 56.9868 21.3975C57.4545 22.0254 58.1081 22.49 58.8548 22.7253C59.0309 23.7389 59.4566 24.6926 60.0936 25.5003C58.6295 25.7162 57.2897 26.4455 56.3136 27.5578L51.4236 33.1441L40.9636 9.81035C40.7772 9.39406 40.5106 9.01856 40.1791 8.70529C39.8476 8.39202 39.4576 8.14711 39.0315 7.98455C38.6053 7.82199 38.1513 7.74496 37.6953 7.75786C37.2394 7.77076 36.7905 7.87333 36.3742 8.05973C35.9579 8.24612 35.5824 8.51269 35.2691 8.8442C34.9559 9.17571 34.711 9.56568 34.5484 9.99185C34.3858 10.418 34.3088 10.872 34.3217 11.328C34.3346 11.7839 34.4372 12.2328 34.6236 12.6491L45.3973 36.6816C44.9393 36.8511 44.5222 37.1155 44.1736 37.4575C43.8249 37.7995 43.5526 38.2113 43.3743 38.666C43.1961 39.1207 43.116 39.608 43.1394 40.0958C43.1627 40.5836 43.289 41.061 43.5098 41.4966L43.9936 42.4666C44.1976 42.8781 44.4814 43.2449 44.8284 43.5459C45.1753 43.8468 45.5786 44.0758 46.0148 44.2197C46.451 44.3635 46.9114 44.4193 47.3693 44.3838C47.8272 44.3483 48.2735 44.2222 48.6823 44.0129L49.0298 44.7854C49.3694 45.5496 49.9745 46.1648 50.733 46.5169C51.4915 46.869 52.3519 46.9342 53.1548 46.7003C53.4446 47.0802 53.8182 47.3881 54.2463 47.6001C54.6745 47.8121 55.1458 47.9226 55.6236 47.9228H56.9286L51.8361 61.1641C51.4241 62.2347 51.3147 63.398 51.5198 64.5266L52.8348 71.7566C51.6876 71.9716 50.6515 72.5804 49.9054 73.4781C49.1593 74.3757 48.7502 75.5057 48.7486 76.6728C48.7486 77.0044 48.8803 77.3223 49.1147 77.5567C49.3491 77.7912 49.6671 77.9228 49.9986 77.9228H59.9986C60.1816 77.9227 60.3623 77.8824 60.528 77.8047C60.6938 77.727 60.8404 77.6139 60.9576 77.4733C61.0748 77.3328 61.1597 77.1682 61.2063 76.9912C61.2529 76.8142 61.2601 76.6292 61.2273 76.4491L59.1023 64.7791C59.0141 64.2854 59.0251 63.7791 59.1348 63.2898C59.2445 62.8005 59.4506 62.3379 59.7411 61.9291L64.0886 55.8416C64.1764 55.7188 64.2909 55.6175 64.4235 55.5452C64.5561 55.473 64.7033 55.4317 64.8542 55.4245C65.005 55.4173 65.1555 55.4443 65.2944 55.5035C65.4332 55.5628 65.5569 55.6527 65.6561 55.7666C65.7506 55.8744 65.8205 56.0014 65.8611 56.1389C65.9016 56.2764 65.9119 56.421 65.8911 56.5628L65.1236 61.9441C65.0276 62.6084 65.0407 63.284 65.1623 63.9441L66.5823 71.7566C65.4356 71.9721 64.4 72.5812 63.6544 73.4787C62.9089 74.3763 62.5001 75.506 62.4986 76.6728C62.4986 77.0044 62.6303 77.3223 62.8647 77.5567C63.0991 77.7912 63.4171 77.9228 63.7486 77.9228H73.7486C73.9316 77.9227 74.1123 77.8824 74.278 77.8047C74.4438 77.727 74.5904 77.6139 74.7076 77.4733C74.8248 77.3328 74.9097 77.1682 74.9563 76.9912C75.0029 76.8142 75.0101 76.6292 74.9773 76.4491L72.8048 64.4929C72.6473 63.6239 72.8009 62.7273 73.2386 61.9603L76.6748 55.9466C77.2139 55.0019 77.4978 53.9331 77.4986 52.8453V46.6728C77.4986 46.6441 75.5361 30.8978 75.5361 30.8978ZM72.4986 20.4229H71.0186C71.3253 19.6177 71.3253 18.728 71.0186 17.9229H72.4986C72.8301 17.9229 73.148 18.0545 73.3825 18.289C73.6169 18.5234 73.7486 18.8413 73.7486 19.1729C73.7486 19.5044 73.6169 19.8223 73.3825 20.0567C73.148 20.2912 72.8301 20.4229 72.4986 20.4229ZM58.7486 6.19535L58.7723 6.20785C61.0301 7.33254 63.5175 7.91952 66.0398 7.92285H69.9986C70.9931 7.92285 71.947 8.31794 72.6502 9.0212C73.3535 9.72446 73.7486 10.6783 73.7486 11.6729V12.1116C73.7483 12.5147 73.6838 12.9151 73.5573 13.2979L72.8373 15.4566C72.7236 15.4466 72.6148 15.4229 72.4986 15.4229H70.6673L70.0236 14.4566C69.4536 13.5995 68.6804 12.8967 67.7728 12.411C66.8653 11.9252 65.8517 11.6717 64.8223 11.6729H59.9986C59.6671 11.6729 59.3491 11.5412 59.1147 11.3067C58.8803 11.0723 58.7486 10.7544 58.7486 10.4229V6.19535ZM71.0186 22.9228C70.761 23.6515 70.2845 24.2827 69.6544 24.7302C69.0244 25.1777 68.2714 25.4196 67.4986 25.4228H64.9986C64.2257 25.4196 63.4728 25.1777 62.8427 24.7302C62.2126 24.2827 61.7362 23.6515 61.4786 22.9228H71.0186ZM67.5811 15.4229H61.2486V14.1729H64.8223C65.3441 14.176 65.8594 14.2889 66.3347 14.5043C66.81 14.7196 67.2347 15.0326 67.5811 15.4229ZM59.9986 20.4229C59.6671 20.4229 59.3491 20.2912 59.1147 20.0567C58.8803 19.8223 58.7486 19.5044 58.7486 19.1729C58.7486 18.8413 58.8803 18.5234 59.1147 18.289C59.3491 18.0545 59.6671 17.9229 59.9986 17.9229H67.4986C67.8301 17.9229 68.148 18.0545 68.3825 18.289C68.6169 18.5234 68.7486 18.8413 68.7486 19.1729C68.7486 19.5044 68.6169 19.8223 68.3825 20.0567C68.148 20.2912 67.8301 20.4229 67.4986 20.4229H59.9986ZM47.6636 41.7278C47.5475 41.8057 47.4161 41.858 47.2783 41.8813C47.1405 41.9045 46.9992 41.8982 46.864 41.8628C46.7288 41.8273 46.6027 41.7635 46.494 41.6756C46.3853 41.5877 46.2965 41.4777 46.2336 41.3528L45.7498 40.3841C45.6423 40.1693 45.6169 39.9226 45.6784 39.6904C45.7398 39.4582 45.8839 39.2564 46.0836 39.1228C46.2437 39.0144 46.4327 38.9565 46.6261 38.9566C46.7134 38.9565 46.8004 38.9678 46.8848 38.9903C47.0197 39.026 47.1452 39.0902 47.2531 39.1786C47.3609 39.267 47.4485 39.3776 47.5098 39.5028L47.9936 40.4716C48.1 40.6855 48.1253 40.9307 48.0646 41.1617C48.0039 41.3928 47.8614 41.5939 47.6636 41.7278ZM52.5523 44.2678C52.3532 44.3468 52.1338 44.3586 51.9273 44.3016C51.7913 44.2627 51.6655 44.1945 51.5587 44.1016C51.452 44.0087 51.3671 43.8935 51.3098 43.7641L50.4561 41.8629C50.699 41.0261 50.6177 40.1286 50.2286 39.3491L49.7448 38.3791C49.4091 37.7108 48.8681 37.1675 48.2011 36.8291L36.9073 11.6266C36.8536 11.5098 36.8236 11.3836 36.819 11.2551C36.8144 11.1267 36.8353 10.9986 36.8805 10.8783C36.9257 10.758 36.9943 10.6478 37.0823 10.5542C37.1703 10.4605 37.276 10.3853 37.3933 10.3327C37.5106 10.2802 37.6372 10.2514 37.7657 10.2481C37.8942 10.2448 38.022 10.2669 38.1419 10.3133C38.2617 10.3597 38.3712 10.4294 38.464 10.5184C38.5567 10.6073 38.631 10.7138 38.6823 10.8316L53.0898 42.9716V42.9804C52.8151 43.3631 52.6313 43.8034 52.5523 44.2678ZM58.7486 39.1728C59.0801 39.1728 59.398 39.0412 59.6325 38.8067C59.8669 38.5723 59.9986 38.2544 59.9986 37.9228V34.1728C59.9985 33.9257 59.9252 33.684 59.7878 33.4785C59.6505 33.273 59.4553 33.1128 59.2269 33.0183C58.9985 32.9237 58.7472 32.8989 58.5048 32.9471C58.2623 32.9953 58.0396 33.1143 57.8648 33.2891L53.4623 37.6916L52.5498 35.6554L58.1961 29.2028C58.548 28.8008 58.9818 28.4786 59.4683 28.2579C59.9549 28.0371 60.483 27.9229 61.0173 27.9228H69.3348C70.2487 27.9231 71.131 28.2571 71.816 28.8619C72.501 29.4668 72.9415 30.3011 73.0548 31.2078L74.8323 45.4228H65.2411L70.4123 43.3554C71.4763 42.9275 72.4025 42.2158 73.0898 41.2979C73.2887 41.0326 73.3741 40.6993 73.3273 40.3711C73.2804 40.0429 73.105 39.7468 72.8398 39.5478C72.5746 39.3489 72.2412 39.2635 71.913 39.3104C71.5849 39.3573 71.2887 39.5326 71.0898 39.7978C70.6775 40.3482 70.1219 40.7746 69.4836 41.0303L59.9986 44.8266V43.6479L67.0936 39.5941C67.9358 39.1125 68.6543 38.4415 69.1923 37.6341L71.0386 34.8666C71.1297 34.73 71.193 34.5768 71.2249 34.4158C71.2568 34.2548 71.2567 34.089 71.2245 33.928C71.1924 33.767 71.1288 33.6139 71.0375 33.4775C70.9462 33.3411 70.8289 33.224 70.6923 33.1328C70.5557 33.0417 70.4026 32.9784 70.2415 32.9465C70.0805 32.9146 69.9147 32.9148 69.7537 32.9469C69.5927 32.9791 69.4397 33.0426 69.3032 33.1339C69.1668 33.2252 69.0497 33.3425 68.9586 33.4791L67.1111 36.2478C66.7891 36.7324 66.3585 37.1352 65.8536 37.4241L58.4173 41.6728H55.2486L54.5573 40.1328L57.4986 37.1903V37.9228C57.4986 38.2544 57.6303 38.5723 57.8647 38.8067C58.0991 39.0412 58.4171 39.1728 58.7486 39.1728ZM55.6236 45.4228C55.4578 45.4228 55.2988 45.357 55.1816 45.2398C55.0644 45.1226 54.9986 44.9636 54.9986 44.7978C54.9986 44.6321 55.0644 44.4731 55.1816 44.3559C55.2988 44.2387 55.4578 44.1728 55.6236 44.1728H57.4986V45.4228H55.6236ZM74.9986 52.8453C74.9967 53.4983 74.8243 54.1395 74.4986 54.7053L71.0623 60.7191C70.3331 61.9972 70.0773 63.4912 70.3398 64.9391L72.2486 75.4228H65.3348C65.5541 75.043 65.8695 74.7275 66.2493 74.5081C66.6291 74.2887 67.06 74.1731 67.4986 74.1728H68.0661C68.2491 74.1727 68.4298 74.1324 68.5955 74.0547C68.7613 73.977 68.9079 73.8639 69.0251 73.7233C69.1423 73.5828 69.2272 73.4182 69.2738 73.2412C69.3204 73.0642 69.3276 72.8792 69.2948 72.6991L67.6236 63.4966C67.5511 63.1005 67.5435 62.6952 67.6011 62.2966L68.3698 56.9216C68.4794 56.1461 68.3258 55.3562 67.9334 54.6783C67.541 54.0005 66.9326 53.4738 66.2055 53.1826C65.4784 52.8914 64.6746 52.8525 63.9228 53.0722C63.171 53.2918 62.5146 53.7573 62.0586 54.3941L57.7111 60.4766C57.2265 61.1577 56.8828 61.9287 56.7002 62.7443C56.5175 63.56 56.4995 64.4039 56.6473 65.2266L58.4986 75.4228H51.5848C51.8041 75.043 52.1195 74.7275 52.4993 74.5081C52.8791 74.2887 53.31 74.1731 53.7486 74.1728H54.3161C54.4992 74.1729 54.6801 74.1327 54.8459 74.0551C55.0118 73.9775 55.1586 73.8644 55.2759 73.7238C55.3933 73.5832 55.4783 73.4186 55.525 73.2415C55.5716 73.0644 55.5789 72.8793 55.5461 72.6991L53.9798 64.0741C53.8564 63.3973 53.9221 62.6996 54.1698 62.0578L59.6073 47.9228H74.9986V52.8453Z" fill="black" />
  <path d="M13.3835 68.2891C13.1491 68.0548 12.8312 67.9231 12.4997 67.9231C12.1683 67.9231 11.8504 68.0548 11.616 68.2891L7.86598 72.0391C7.63164 72.2735 7.5 72.5914 7.5 72.9228C7.5 73.2543 7.63164 73.5722 7.86598 73.8066L11.616 77.5566C11.8504 77.7909 12.1683 77.9226 12.4997 77.9226C12.8312 77.9226 13.1491 77.7909 13.3835 77.5566L17.1335 73.8066C17.3678 73.5722 17.4995 73.2543 17.4995 72.9228C17.4995 72.5914 17.3678 72.2735 17.1335 72.0391L13.3835 68.2891ZM12.4997 74.9053L10.5172 72.9228L12.4997 70.9403L14.4822 72.9228L12.4997 74.9053Z" fill="black" />
  <path d="M28.3835 26.3066L32.1335 22.5566C32.3678 22.3222 32.4995 22.0043 32.4995 21.6729C32.4995 21.3414 32.3678 21.0235 32.1335 20.7891L28.3835 17.0391C28.1491 16.8048 27.8312 16.6731 27.4997 16.6731C27.1683 16.6731 26.8504 16.8048 26.616 17.0391L22.866 20.7891C22.6316 21.0235 22.5 21.3414 22.5 21.6729C22.5 22.0043 22.6316 22.3222 22.866 22.5566L26.616 26.3066C26.8504 26.5409 27.1683 26.6726 27.4997 26.6726C27.8312 26.6726 28.1491 26.5409 28.3835 26.3066ZM25.5172 21.6729L27.4997 19.6904L29.4822 21.6729L27.4997 23.6554L25.5172 21.6729Z" fill="black" />
  <path d="M41.25 61.6728H33.75C33.5179 61.6728 33.2903 61.7375 33.0928 61.8595C32.8954 61.9816 32.7358 62.1562 32.632 62.3638C32.5282 62.5715 32.4842 62.8039 32.5051 63.0351C32.5259 63.2663 32.6107 63.4871 32.75 63.6728L36.5 68.6728C36.6164 68.8281 36.7674 68.9541 36.941 69.0409C37.1146 69.1277 37.3059 69.1728 37.5 69.1728C37.6941 69.1728 37.8855 69.1277 38.059 69.0409C38.2326 68.9541 38.3836 68.8281 38.5 68.6728L42.25 63.6728C42.3893 63.4871 42.4741 63.2663 42.495 63.0351C42.5158 62.8039 42.4719 62.5715 42.368 62.3638C42.2642 62.1562 42.1046 61.9816 41.9072 61.8595C41.7097 61.7375 41.4821 61.6728 41.25 61.6728ZM37.5 65.8391L36.25 64.1728H38.75L37.5 65.8391Z" fill="black" />
  <path d="M15 49.1728C14.0111 49.1728 13.0444 49.4661 12.2222 50.0155C11.3999 50.5649 10.759 51.3458 10.3806 52.2594C10.0022 53.1731 9.90315 54.1784 10.0961 55.1483C10.289 56.1182 10.7652 57.0091 11.4645 57.7084C12.1637 58.4076 13.0546 58.8838 14.0246 59.0768C14.9945 59.2697 15.9998 59.1707 16.9134 58.7922C17.8271 58.4138 18.6079 57.7729 19.1574 56.9507C19.7068 56.1285 20 55.1618 20 54.1728C20 52.8468 19.4732 51.575 18.5355 50.6373C17.5979 49.6996 16.3261 49.1728 15 49.1728ZM15 56.6728C14.5055 56.6728 14.0222 56.5262 13.6111 56.2515C13.2 55.9768 12.8795 55.5864 12.6903 55.1296C12.5011 54.6727 12.4516 54.1701 12.548 53.6851C12.6445 53.2002 12.8826 52.7547 13.2322 52.4051C13.5819 52.0554 14.0273 51.8173 14.5123 51.7209C14.9972 51.6244 15.4999 51.6739 15.9567 51.8631C16.4135 52.0524 16.804 52.3728 17.0787 52.7839C17.3534 53.195 17.5 53.6784 17.5 54.1728C17.5 54.8359 17.2366 55.4718 16.7678 55.9406C16.2989 56.4095 15.663 56.6728 15 56.6728Z" fill="black" />
  <path d="M13.75 12.9229C14.7389 12.9229 15.7056 12.6296 16.5279 12.0802C17.3501 11.5308 17.991 10.7499 18.3694 9.83627C18.7478 8.92264 18.8469 7.9173 18.6539 6.9474C18.461 5.97749 17.9848 5.08658 17.2855 4.38732C16.5863 3.68805 15.6954 3.21185 14.7255 3.01892C13.7555 2.826 12.7502 2.92501 11.8366 3.30345C10.923 3.68189 10.1421 4.32275 9.59265 5.145C9.04324 5.96724 8.75 6.93394 8.75 7.92285C8.75 9.24893 9.27678 10.5207 10.2145 11.4584C11.1521 12.3961 12.4239 12.9229 13.75 12.9229ZM13.75 5.42285C14.2445 5.42285 14.7278 5.56947 15.1389 5.84418C15.55 6.11888 15.8705 6.50933 16.0597 6.96614C16.2489 7.42296 16.2984 7.92562 16.202 8.41058C16.1055 8.89553 15.8674 9.34099 15.5178 9.69062C15.1681 10.0402 14.7227 10.2784 14.2377 10.3748C13.7528 10.4713 13.2501 10.4218 12.7933 10.2325C12.3365 10.0433 11.946 9.7229 11.6713 9.31178C11.3966 8.90065 11.25 8.4173 11.25 7.92285C11.25 7.25981 11.5134 6.62392 11.9822 6.15508C12.4511 5.68624 13.087 5.42285 13.75 5.42285Z" fill="black" />
  <path d="M40 46.6728V36.6728C40 36.3413 39.8683 36.0234 39.6339 35.789C39.3995 35.5545 39.0815 35.4228 38.75 35.4228H28.75C28.4185 35.4228 28.1005 35.5545 27.8661 35.789C27.6317 36.0234 27.5 36.3413 27.5 36.6728V46.6728C27.5 47.0044 27.6317 47.3223 27.8661 47.5567C28.1005 47.7912 28.4185 47.9228 28.75 47.9228H38.75C39.0815 47.9228 39.3995 47.7912 39.6339 47.5567C39.8683 47.3223 40 47.0044 40 46.6728ZM37.5 45.4228H30V37.9228H37.5V45.4228Z" fill="black" />
  <path d="M9.99973 37.9228C10.3312 37.9228 10.6491 37.791 10.8835 37.5566L17.1335 31.3066C17.3678 31.0722 17.4995 30.7543 17.4995 30.4228C17.4995 30.0914 17.3678 29.7735 17.1335 29.5391L10.8835 23.2891C10.6491 23.0548 10.3312 22.9231 9.99973 22.9231C9.66828 22.9231 9.35039 23.0548 9.11598 23.2891L2.86598 29.5391C2.63164 29.7735 2.5 30.0914 2.5 30.4228C2.5 30.7543 2.63164 31.0722 2.86598 31.3066L9.11598 37.5566C9.35035 37.791 9.66824 37.9228 9.99973 37.9228ZM9.99973 25.9403L14.4822 30.4228L9.99973 34.9054L5.51723 30.4228L9.99973 25.9403Z" fill="black" />
</svg>