<svg width="80" height="80" viewBox="0 0 87 80" fill="none" xmlns="http://www.w3.org/2000/svg">
  <g clip-path="url(#clip0_554_21162)">
    <path d="M63.5251 63.6061L71.7535 59.2436L73.119 61.91L77.7263 51.2041L66.3576 48.6635L67.7144 51.3386L62.5633 54.131L26.7812 71.8932L30.7201 80L63.5251 63.6061Z" fill="#FFD858" />
    <path d="M59.6992 39.2743L74.6274 31.3594L77.1035 36.1971L85.4622 16.7746L64.8374 12.1659L67.2992 17.0179L57.953 22.0847L1.35156 52.7756L8.01561 66.7549L59.6992 39.2743Z" fill="#EABB39" />
    <path d="M31.0906 28.9162C30.7399 29.0836 30.3478 29.1538 29.957 29.1538C28.1092 29.1538 26.625 27.4176 26.625 25.275C26.625 24.2802 26.9614 23.3571 27.5067 22.6701C28.0949 21.8857 28.9766 21.3962 29.957 21.3962C30.3349 21.3962 30.7127 21.4663 31.0634 21.6338V28.0459C31.062 28.3422 31.0763 28.6371 31.0906 28.9162Z" fill="#D6DCE0" />
    <path d="M58.7833 25.2764C58.7833 27.419 57.299 29.1552 55.4513 29.1552C55.0448 29.1552 54.6397 29.0707 54.2891 28.9033C54.3306 28.6227 54.3449 28.3436 54.3449 28.0488V21.6367C54.6812 21.4692 55.0591 21.3991 55.4513 21.3991C56.4174 21.3991 57.2862 21.8757 57.8873 22.6457C58.4341 23.3299 58.7833 24.2545 58.7833 25.2764Z" fill="#D6DCE0" />
    <path d="M58.7873 13.6401L57.8913 22.6429C57.2888 21.8728 56.4214 21.3962 55.4553 21.3962C55.0631 21.3962 54.6853 21.4663 54.3489 21.6338V19.1691C51.2258 18.6653 48.16 16.537 46.5914 14.7451C46.494 14.8567 46.3667 14.9555 46.2278 15.0671C43.4268 17.224 32.7437 19.869 31.0634 19.1691V21.6338C30.7127 21.4663 30.3349 21.3962 29.957 21.3962C28.9766 21.3962 28.0949 21.8857 27.5067 22.6701L26.625 16.3409C26.6264 8.10964 33.9632 1.43128 43.0217 1.43128H45.0513C45.4578 1.43128 45.85 1.47279 46.2278 1.54292C48.0341 1.86496 49.5455 2.94271 50.3728 4.39976H51.2831C56.3384 4.39976 59.2367 9.31477 58.7873 13.6401Z" fill="#0588E8" />
    <path d="M42.1521 39.1384C40.0524 39.1384 38.0915 38.5501 36.4255 37.5425C35.6555 37.0802 34.9413 36.5206 34.3115 35.8908C32.4909 34.0702 31.3015 31.6342 31.0911 28.9176C31.0768 28.6371 31.0625 28.3437 31.0625 28.0488V19.172C32.7428 19.8719 43.4259 17.2255 46.2269 15.07C46.3672 14.9583 46.4931 14.8596 46.5905 14.7479C48.162 16.5384 51.2278 18.6668 54.3494 19.172V28.0488C54.3494 28.3422 54.3351 28.6228 54.2936 28.9033C53.9301 32.6833 51.0589 35.9323 47.6281 37.6956C46.9984 38.032 46.1868 38.3955 45.2064 38.6746C44.017 39.0124 42.9607 39.1183 42.1521 39.1384Z" fill="white" />
    <path d="M47.6259 37.6956V41.5043C47.6288 41.7061 47.6259 42.9055 46.657 43.843C45.7338 44.7361 44.6059 44.7404 44.3898 44.7375H39.6566C38.0321 44.7375 36.6738 43.5195 36.4505 41.9365C36.4362 41.7963 36.4219 41.656 36.4219 41.5028V37.5411C38.0879 38.5487 40.0487 39.1369 42.1484 39.1369C42.8841 39.1555 43.9146 39.1012 45.0954 38.7763C46.1746 38.48 47.0262 38.0549 47.6259 37.6956Z" fill="#D6DCE0" />
    <path d="M47.6022 41.9394H47.6309C47.628 41.938 63.03 43.3377 63.03 51.8095V65.7416H19.625V51.8095C19.625 43.3392 36.4268 41.938 36.4268 41.938H36.4554C36.6787 43.5195 38.037 44.739 39.6615 44.739H44.3947C44.6309 44.7476 45.6271 44.7547 46.5116 44.0076C47.4477 43.2189 47.5793 42.1584 47.6022 41.9394Z" fill="#273134" />
    <path d="M26.5938 57.34H29.4563V65.7416H26.5938V57.34Z" fill="#172326" />
    <path d="M53.1953 57.34H56.0579V65.8389H53.1953V57.34Z" fill="#172326" />
    <path d="M19.6253 25.7631L13.8429 34.0931L7.70274 42.9384L9.96416 33.22L11.0376 28.6256H5.3125L14.8591 14.3128L13.9002 25.7631H19.6253Z" fill="#FFD858" />
    <path d="M8.92969 64.5977L11.7935 63.0815L13.1329 65.6114L10.269 67.1276L8.92969 64.5977Z" fill="black" />
    <path d="M13.2266 62.3199L16.0904 60.8037L17.4298 63.3336L14.5659 64.8498L13.2266 62.3199Z" fill="black" />
    <path d="M75.9031 30.7081C75.7285 30.3675 75.4251 30.1099 75.0587 29.9953C74.6937 29.8794 74.2958 29.9138 73.958 30.0955L59.0297 38.0105L60.3709 40.5396L74.0167 33.3045L75.8316 36.8498C76.0835 37.3435 76.593 37.6484 77.1526 37.6284C77.7065 37.6098 78.2003 37.272 78.4193 36.7639L86.778 17.3414C86.9469 16.9507 86.9311 16.5041 86.7379 16.1234C86.5433 15.7441 86.1912 15.4707 85.7761 15.3777L65.1513 10.769C64.6074 10.6487 64.0492 10.852 63.7086 11.2871C63.368 11.7251 63.3121 12.319 63.5626 12.8143L65.3947 16.4239L59.638 19.5441L60.212 13.7818C60.5097 10.8978 59.5522 7.91928 57.6529 5.81386C55.9983 3.97896 53.7354 2.96848 51.2837 2.96848H51.1448C50.0456 1.49139 48.3882 0.475185 46.4889 0.135972C46.0008 0.045801 45.517 0 45.0519 0H43.0223C33.1923 0 25.1943 7.33102 25.1943 16.3424C25.1943 16.4082 25.1986 16.474 25.2086 16.5399L26.0173 22.3409C25.492 23.2068 25.1943 24.2216 25.1943 25.275C25.1943 28.1791 27.2983 30.5407 29.8975 30.5779C30.2038 32.0593 30.7777 33.4691 31.5892 34.7458L30.3927 35.397L31.7596 37.9118L33.4227 37.0086C33.9108 37.4838 34.4418 37.9046 34.9971 38.2911V40.6598C30.8121 41.2123 18.1953 43.561 18.1953 51.8095V65.7401C18.1953 66.5316 18.8365 67.1714 19.6266 67.1714H63.0316C63.8217 67.1714 64.4629 66.5316 64.4629 65.7401V64.7297L71.1441 61.1858L71.8469 62.5613C72.0988 63.0536 72.6083 63.3871 73.1679 63.3385C73.7218 63.3199 74.2156 62.9835 74.4346 62.474L79.0419 51.7694C79.2108 51.3787 79.1951 50.9321 79.0018 50.5514C78.8086 50.1721 78.4551 49.8987 78.04 49.8057L66.6714 47.2652C66.1289 47.1407 65.5693 47.3468 65.2286 47.7833C64.888 48.2198 64.8322 48.8153 65.0826 49.3076L65.8097 50.7403L64.4457 51.4803C64.1409 43.5739 52.9597 41.2424 49.0609 40.6713V38.5115C52.317 36.5964 54.6558 33.6895 55.4501 30.5822H55.4573C58.0837 30.5822 60.2206 28.2005 60.2206 25.2721C60.2206 24.399 60.0102 23.5532 59.6466 22.7931L67.9853 18.2732C68.6666 17.9039 68.9299 17.0594 68.5793 16.3667L67.49 14.2212L83.4689 17.7922L76.9966 32.8336L75.9031 30.7081ZM43.0209 2.86256H45.0504C45.3467 2.86256 45.6458 2.89119 45.975 2.9513C47.319 3.19032 48.497 3.99614 49.1267 5.10538C49.3815 5.55337 49.8567 5.82961 50.3719 5.82961H51.2822C53.3733 5.82961 54.7431 6.86299 55.526 7.73035C56.8728 9.22317 57.577 11.4316 57.3637 13.4927V13.4984L56.7025 20.1496C56.6624 20.1367 56.618 20.1367 56.5765 20.1267C56.442 20.0909 56.306 20.0737 56.1686 20.0508C56.0384 20.0293 55.9124 19.9878 55.7807 19.9792V19.172C55.7807 18.4692 55.2712 17.871 54.577 17.7593C51.819 17.3142 49.0623 15.3977 47.6697 13.8047C47.4092 13.507 47.0084 13.3596 46.612 13.3467C46.2198 13.3467 45.8047 13.5156 45.5242 13.7961C45.4784 13.8405 45.4211 13.8806 45.3553 13.9349C42.9336 15.7999 33.1207 18.1973 31.615 17.8509C31.1713 17.6663 30.6675 17.7135 30.271 17.9812C29.8731 18.2474 29.6341 18.694 29.6341 19.172V19.9792C29.5167 19.9878 29.4065 20.0293 29.2906 20.0465C29.1117 20.0737 28.9356 20.1023 28.7625 20.151C28.7109 20.1653 28.6565 20.1653 28.6064 20.1825L28.0583 16.2465C28.1141 8.85676 34.8053 2.86256 43.0209 2.86256ZM28.0568 25.2764C28.0568 24.6438 28.2658 24.0198 28.6537 23.5303C28.907 23.1939 29.272 22.9892 29.6327 22.8976V27.6881C28.7381 27.4877 28.0568 26.483 28.0568 25.2764ZM46.1983 39.8655V41.5057C46.2098 41.6274 46.2513 42.2156 45.829 42.7237C45.2923 43.3707 44.4751 43.3191 44.3963 43.312H39.6631C38.7743 43.312 38.0085 42.6421 37.8783 41.7533C37.8697 41.6746 37.8611 41.5959 37.8611 41.5086V39.8125C39.0018 40.0701 40.4746 40.2934 42.1936 40.2891C43.7637 40.2863 45.1206 40.0945 46.1983 39.8655ZM68.3975 52.5953C69.0688 52.2317 69.3335 51.4073 69.0072 50.7217L75.7285 52.2246L73.0062 58.5494C72.8287 58.2288 72.5339 57.9869 72.1832 57.8767C71.8182 57.7651 71.4218 57.798 71.0826 57.9769L64.46 61.4892V54.7293L68.3975 52.5953ZM39.6631 46.1688H44.3963C44.7499 46.1874 46.2885 46.2332 47.5308 45.1068C48.1534 44.5429 48.4583 43.9045 48.6072 43.5124C51.9292 44.0262 61.5989 46.0228 61.5989 51.8095V64.3089H56.0598V57.3385H53.1973V64.3089H29.4566V57.3385H26.5941V64.3089H21.055V51.8095C21.055 46.3749 30.6789 44.0677 35.4379 43.4766C35.5739 43.8687 35.8645 44.5243 36.4871 45.1025C37.7423 46.269 39.3396 46.1917 39.6631 46.1688ZM42.155 37.7085C41.6869 37.7085 41.2218 37.6684 40.7623 37.6012C39.4956 37.4165 38.2719 36.9843 37.1669 36.3159C36.5 35.9151 35.8802 35.4314 35.3263 34.8789C33.6947 33.2458 32.6985 31.0903 32.5239 28.846C32.511 28.5898 32.4981 28.3193 32.4981 28.0488V21.6367V20.6892C36.3053 20.506 43.4445 18.3977 46.4416 16.6358C48.0676 18.1458 50.4163 19.6357 52.9196 20.3213V21.6352V28.0474C52.9196 28.2535 52.9082 28.451 52.8824 28.6457C52.8781 28.6872 52.8767 28.7201 52.8695 28.7644C52.579 31.7673 50.3204 34.7014 46.9726 36.4232C46.486 36.7252 45.8276 37.0673 45.0061 37.3235C43.8582 37.6828 42.8477 37.7314 42.155 37.7085ZM55.7793 27.6881V22.8704C55.7836 22.8719 55.7893 22.8704 55.7936 22.8719C55.9568 22.9105 56.1128 22.9835 56.2617 23.0765C56.2931 23.0966 56.3246 23.118 56.3547 23.1409C56.5035 23.2483 56.6452 23.3742 56.7712 23.5345C57.1476 24.0083 57.3552 24.6252 57.3552 25.275C57.3552 26.483 56.6739 27.4892 55.7793 27.6881Z" fill="black" />
    <path d="M5.39062 48.9588L7.90682 47.5933L9.27226 50.1095L6.75607 51.475L5.39062 48.9588Z" fill="black" />
    <path d="M20.4844 40.7678L23.0006 39.4023L24.366 41.9185L21.8498 43.2839L20.4844 40.7678Z" fill="black" />
    <path d="M15.4531 43.4979L17.9693 42.1325L19.3348 44.6487L16.8186 46.0141L15.4531 43.4979Z" fill="black" />
    <path d="M0.351562 51.6962L2.86775 50.3307L4.2332 52.8469L1.717 54.2124L0.351562 51.6962Z" fill="black" />
    <path d="M10.4141 46.2354L12.9303 44.87L14.2957 47.3862L11.7795 48.7516L10.4141 46.2354Z" fill="black" />
    <path d="M25.5078 38.0419L28.024 36.6764L29.3894 39.1926L26.8733 40.5581L25.5078 38.0419Z" fill="black" />
    <path d="M6.3107 42.6135C6.15612 43.2819 6.49676 43.9675 7.12366 44.2466C7.31259 44.3311 7.51011 44.3697 7.70476 44.3697C8.16277 44.3697 8.60647 44.1507 8.88128 43.7542L20.8038 26.5789C21.1073 26.1409 21.1431 25.5713 20.8969 25.0989C20.6493 24.628 20.1612 24.3318 19.6288 24.3318H15.4594L16.2882 14.4316C16.3425 13.7804 15.9504 13.1764 15.3335 12.9602C14.7195 12.7456 14.0325 12.9731 13.6703 13.5184L4.1237 27.8313C3.83029 28.2707 3.80309 28.8346 4.05214 29.2997C4.30261 29.7663 4.78781 30.0569 5.31596 30.0569H9.23623L6.3107 42.6135ZM7.99102 27.1943L12.9719 19.7245L12.4767 25.6443C12.4437 26.0436 12.5783 26.4386 12.8502 26.732C13.1207 27.0269 13.5029 27.1943 13.9036 27.1943H16.8922L10.7949 35.9781L12.4351 28.9505C12.5353 28.5254 12.4351 28.0774 12.1632 27.7354C11.8898 27.3933 11.4776 27.1943 11.0411 27.1943H7.99102Z" fill="black" />
    <path d="M44.8125 71.1874L47.3848 69.9313L48.6402 72.5023L46.068 73.7583L44.8125 71.1874Z" fill="black" />
    <path d="M49.9609 68.674L52.5332 67.4179L53.7887 69.9888L51.2164 71.2449L49.9609 68.674Z" fill="black" />
    <path d="M30.7734 68.6812L33.3457 67.4251L34.6012 69.9961L32.0289 71.2521L30.7734 68.6812Z" fill="black" />
    <path d="M25.6328 71.1946L28.2051 69.9385L29.4605 72.5095L26.8883 73.7655L25.6328 71.1946Z" fill="black" />
  </g>
  <defs>
    <clipPath id="clip0_554_21162">
      <rect width="86.5581" height="80" fill="white" transform="translate(0.335938)" />
    </clipPath>
  </defs>
</svg>