<svg width="40" height="40" viewBox="0 0 40 40" fill="none" xmlns="http://www.w3.org/2000/svg">
  <path d="M32 4.66667C32 4.2985 31.7015 4 31.3333 4H29.3333V0.666667C29.3333 0.298503 29.0348 0 28.6667 0H20.6667C20.2985 0 20 0.298503 20 0.666667V10C20 10.3682 20.2985 10.6667 20.6667 10.6667H28.6667C29.0348 10.6667 29.3333 10.3682 29.3333 10V5.33333H31.3333C31.7015 5.33333 32 5.03483 32 4.66667ZM21.3333 1.33333H28V4H21.3333V1.33333ZM21.3333 9.33333V5.33333H28V9.33333H21.3333Z" fill="#656D75" />
  <path d="M9.99992 31.9995C10.2695 31.9995 10.5126 31.837 10.6158 31.588C10.719 31.339 10.6617 31.0522 10.4713 30.8615C9.76001 30.0753 9.35604 29.0594 9.33325 27.9995C9.36222 26.9409 9.76522 25.9269 10.4713 25.1375C10.7275 24.8764 10.7255 24.4578 10.467 24.199C10.2083 23.9406 9.78963 23.9386 9.52856 24.1948C7.49048 26.3217 7.49048 29.6772 9.52856 31.8042C9.65356 31.9295 9.82316 31.9998 9.99992 31.9995Z" fill="#656D75" />
  <path d="M29.3346 25.3333C29.7028 25.3333 30.0013 25.0348 30.0013 24.6667V12.6667C30.0013 12.2985 29.7028 12 29.3346 12H20.0013C19.6331 12 19.3346 12.2985 19.3346 12.6667V19.057L15.8626 22.529C15.6374 22.7572 15.4681 23.0348 15.3691 23.3402C15.1813 23.3278 14.9971 23.3965 14.8633 23.5286L10.8633 27.5286C10.6029 27.7891 10.6029 28.2109 10.8633 28.4714L12.8633 30.4714C13.1237 30.7318 13.5456 30.7318 13.806 30.4714L15.3346 28.9427L19.5299 33.138C19.6549 33.263 19.8245 33.3333 20.0013 33.3333L20.0312 33.3327C20.2184 33.3242 20.3936 33.2373 20.5137 33.0934L22.668 30.5081V39.3333C22.668 39.7015 22.9665 40 23.3346 40H28.668C29.0361 40 29.3346 39.7015 29.3346 39.3333V36.6667C29.3346 36.2985 29.0361 36 28.668 36H26.668V25.3333H29.3346ZM20.668 13.3333H28.668V24H20.668V23.6094L26.14 18.1377C26.9482 17.3242 26.9463 16.0104 26.1354 15.1992C25.3249 14.3883 24.0107 14.3861 23.1973 15.1943V15.1947L20.668 17.724V13.3333ZM19.3809 24.8965C19.4756 25.1579 19.7233 25.3324 20.0013 25.3333H21.9111L19.9564 27.679L18.1751 25.8978C18.4098 25.7962 18.6234 25.6517 18.8053 25.472L19.3809 24.8965ZM16.8053 23.472L24.14 16.1374V16.1377C24.4323 15.8464 24.9056 15.847 25.1973 16.139C25.4889 16.4303 25.4889 16.9033 25.1973 17.1947L17.8626 24.529C17.5706 24.821 17.0973 24.821 16.8053 24.5293C16.5137 24.2373 16.5133 23.764 16.8053 23.472ZM13.3346 29.0573L12.2773 28L15.3346 24.9427L15.8623 25.4704L15.8639 25.4723L15.8656 25.4736L16.3919 26L13.3346 29.0573ZM19.9564 31.679L16.2773 28L17.3346 26.9427L19.5299 29.138C19.6624 29.2705 19.8444 29.3411 20.0316 29.3327C20.2187 29.3242 20.3939 29.2373 20.5137 29.0934L22.668 26.5081V28.4255L19.9564 31.679ZM28.0013 38.6667H24.0013V37.3333H28.0013V38.6667ZM25.3346 36H24.0013V25.3333H25.3346V36Z" fill="#656D75" />
</svg>