<svg width="40" height="40" viewBox="0 0 40 40" fill="none" xmlns="http://www.w3.org/2000/svg">
  <path fill-rule="evenodd" clip-rule="evenodd" d="M9.58003 14.3193C8.71753 13.4018 8.43003 12.3137 8.78066 11.4249C9.19128 10.3831 10.5131 9.52556 11.9344 9.92369C12.4156 8.52806 13.8725 7.92869 14.9632 8.18369C16.1875 8.46932 17.0675 9.85994 16.9906 11.7562C16.9856 12.0874 16.9231 12.4506 16.82 12.8281L19.8738 12.1999C19.9569 12.1824 20.0432 12.1824 20.1263 12.1999L21.5882 12.5006C21.6588 12.3974 21.7407 12.3024 21.8325 12.2181C22.445 11.6537 23.5838 11.4831 24.4356 12.1281C25.2456 11.4306 26.3925 11.5287 27.04 12.0531C27.5 12.4262 27.7432 13.0424 27.7032 13.7599L33.7869 15.0124C33.9813 15.0524 34.1456 15.1824 34.2288 15.3631L36.8175 20.9881C36.8925 21.1506 36.8944 21.3381 36.8219 21.5018C36.7488 21.6662 36.6094 21.7912 36.4388 21.8449L33.125 22.8943V33.9237C33.125 34.2031 32.94 34.4481 32.6719 34.5249L20.1719 38.0999C20.0594 38.1324 19.9407 38.1324 19.8282 38.0999L7.32815 34.5249C7.06003 34.4481 6.87502 34.2031 6.87502 33.9237V22.8943L3.56127 21.8449C3.39065 21.7912 3.25127 21.6662 3.17814 21.5018C3.10564 21.3381 3.10753 21.1506 3.18253 20.9881L5.77128 15.3631C5.8544 15.1824 6.01878 15.0524 6.21316 15.0124L9.58003 14.3193ZM20.625 21.0999V36.6706L31.875 33.4524V23.2899L23.6038 25.9074C23.31 26.0006 22.9925 25.8656 22.8556 25.5899L20.625 21.0999ZM19.375 21.0999L17.1444 25.5899C17.0075 25.8656 16.69 26.0006 16.3963 25.9074L8.12502 23.2899V33.4524L19.375 36.6706V21.0999ZM5.00002 32.4993V33.1243C5.00002 33.4693 5.28002 33.7493 5.62502 33.7493C5.97002 33.7493 6.25002 33.4693 6.25002 33.1243V32.4993C6.25002 32.1543 5.97002 31.8743 5.62502 31.8743C5.28002 31.8743 5.00002 32.1543 5.00002 32.4993ZM5.00002 28.7493V30.6243C5.00002 30.9693 5.28002 31.2493 5.62502 31.2493C5.97002 31.2493 6.25002 30.9693 6.25002 30.6243V28.7493C6.25002 28.4043 5.97002 28.1243 5.62502 28.1243C5.28002 28.1243 5.00002 28.4043 5.00002 28.7493ZM35 28.7493V26.8743C35 26.5293 34.72 26.2493 34.375 26.2493C34.03 26.2493 33.75 26.5293 33.75 26.8743V28.7493C33.75 29.0943 34.03 29.3743 34.375 29.3743C34.72 29.3743 35 29.0943 35 28.7493ZM35 24.9993V24.3743C35 24.0293 34.72 23.7493 34.375 23.7493C34.03 23.7493 33.75 24.0293 33.75 24.3743V24.9993C33.75 25.3443 34.03 25.6243 34.375 25.6243C34.72 25.6243 35 25.3443 35 24.9993ZM6.6994 16.3368L4.61377 20.8674L16.2631 24.5543L19.0794 18.8856L6.6994 16.3368ZM33.3006 16.3368L20.9207 18.8856L23.7369 24.5543L35.3863 20.8674L33.3006 16.3368ZM16.3038 14.2112C16.0344 14.7956 15.715 15.3656 15.4 15.8618C15.2807 16.0499 15.0707 16.1599 14.8475 16.1512C13.5557 16.1006 11.9575 15.8637 10.9044 15.3224L9.43877 15.6243L20 17.7987L23.6431 17.0487C22.8925 16.5756 22.15 15.9731 21.7956 15.3706C21.4431 14.8012 21.2725 14.2274 21.26 13.7093L20 13.4499L16.3038 14.2112ZM27.3881 14.9712C27.3538 15.0462 27.3163 15.1212 27.2763 15.1968C27.0463 15.6512 26.6107 16.1187 26.1132 16.5399L30.5613 15.6243L27.3881 14.9712ZM23.9356 13.4124C24.0531 13.6018 24.2631 13.7143 24.4856 13.7068C24.7088 13.6999 24.9113 13.5743 25.0169 13.3781C25.3138 12.8256 25.9306 12.7631 26.2531 13.0243C26.4006 13.1437 26.4581 13.3356 26.465 13.5524C26.4756 13.8731 26.3713 14.2399 26.1713 14.6131C26.1682 14.6181 26.165 14.6237 26.1625 14.6293C25.8875 15.1787 25.2038 15.7243 24.5638 16.1474C23.8975 15.7656 23.18 15.2643 22.8713 14.7337C22.8681 14.7281 22.865 14.7231 22.8613 14.7181C22.6381 14.3581 22.5106 13.9987 22.5006 13.6787C22.4938 13.4618 22.5394 13.2662 22.6788 13.1381C22.9844 12.8568 23.6038 12.8799 23.9356 13.4124ZM12.0669 11.3412C12.2557 11.4599 12.4931 11.4693 12.6906 11.3662C12.8881 11.2624 13.0156 11.0612 13.025 10.8387C13.07 9.77056 13.99 9.23995 14.6788 9.40057C15.0063 9.47682 15.2575 9.72619 15.4356 10.0662C15.6625 10.4981 15.7688 11.0687 15.7413 11.7124V11.7306C15.7294 12.6699 15.1338 13.8949 14.5356 14.8837C13.3819 14.8137 12.0357 14.6068 11.2563 14.0824C11.2513 14.0787 11.2456 14.0756 11.2406 14.0724C10.6956 13.7281 10.2869 13.3168 10.0606 12.8843C9.88189 12.5443 9.82065 12.1962 9.94378 11.8837C10.2032 11.2249 11.1632 10.7706 12.0669 11.3412ZM22.2 3.84369C21.5488 2.24932 19.8088 1.68556 18.5819 2.08806C17.2219 2.53431 16.3794 4.20806 16.6569 6.35119C16.8025 7.76181 17.8963 9.59369 18.9094 10.9181C19.045 11.0949 19.2638 11.1868 19.485 11.1587C21.1394 10.9474 23.2106 10.4362 24.3188 9.54557C26.0356 8.23557 26.6313 6.46119 25.9925 5.18119C25.4157 4.02619 23.7913 3.18494 22.2 3.84369ZM21.1856 4.87057C21.2144 5.09182 21.3588 5.28056 21.5644 5.36681C21.77 5.45244 22.0063 5.42245 22.1838 5.28682C23.2425 4.4812 24.4807 4.95119 24.8744 5.73932C25.0632 6.11744 25.0294 6.56119 24.8432 7.00682C24.6169 7.54869 24.1719 8.08619 23.555 8.55557C23.55 8.55932 23.5456 8.56307 23.5406 8.56744C22.66 9.27932 21.055 9.66807 19.685 9.86932C18.8644 8.75432 18.0125 7.33931 17.8994 6.21244C17.8988 6.20681 17.8982 6.20057 17.8969 6.19432C17.7969 5.42557 17.8663 4.73119 18.0925 4.18931C18.2781 3.74306 18.57 3.40744 18.9719 3.27619C19.8088 3.00119 21.0138 3.5512 21.1856 4.87057Z" fill="#656D75" />
</svg>