<svg width="40" height="40" viewBox="0 0 40 40" fill="none" xmlns="http://www.w3.org/2000/svg">
  <path d="M11.6289 14.6016C11.6289 14.9739 11.3274 15.2754 10.9551 15.2754C10.5831 15.2754 10.2812 14.9739 10.2812 14.6016C10.2812 14.2296 10.5831 13.9277 10.9551 13.9277C11.3274 13.9277 11.6289 14.2296 11.6289 14.6016Z" fill="#656D75" />
  <path d="M14.6445 14.6016C14.6445 14.9739 14.343 15.2754 13.9707 15.2754C13.5987 15.2754 13.2969 14.9739 13.2969 14.6016C13.2969 14.2296 13.5987 13.9277 13.9707 13.9277C14.343 13.9277 14.6445 14.2296 14.6445 14.6016Z" fill="#656D75" />
  <path d="M17.6562 14.6016C17.6562 14.9739 17.3544 15.2754 16.9824 15.2754C16.6104 15.2754 16.3086 14.9739 16.3086 14.6016C16.3086 14.2296 16.6104 13.9277 16.9824 13.9277C17.3544 13.9277 17.6562 14.2296 17.6562 14.6016Z" fill="#656D75" />
  <path d="M31.1299 23.5488H24.2305C23.9067 23.5488 23.6445 23.811 23.6445 24.1348C23.6445 24.4583 23.9067 24.7207 24.2305 24.7207H31.1299C31.4537 24.7207 31.7158 24.4583 31.7158 24.1348C31.7158 23.811 31.4537 23.5488 31.1299 23.5488Z" fill="#656D75" />
  <path d="M31.1299 26.7969H24.2305C23.9067 26.7969 23.6445 27.0593 23.6445 27.3828C23.6445 27.7066 23.9067 27.9688 24.2305 27.9688H31.1299C31.4537 27.9688 31.7158 27.7066 31.7158 27.3828C31.7158 27.0593 31.4537 26.7969 31.1299 26.7969Z" fill="#656D75" />
  <path d="M35.9859 6.2085C35.757 5.97992 35.3862 5.97992 35.1574 6.2085C34.9285 6.43738 34.9285 6.80847 35.1574 7.03736C37.8643 9.74396 39.0837 12.7469 38.7825 15.9625C38.5494 18.4522 37.4227 21.0934 35.425 23.8474V14.7681C35.425 12.3718 33.4755 10.4224 31.0793 10.4224H10.3304C7.93419 10.4224 5.98442 12.3718 5.98442 14.7681V25.6397C3.10296 22.2369 1.50079 18.9877 1.21728 15.9625C0.916071 12.7469 2.13586 9.74396 4.84246 7.03736C8.32909 3.55042 13.8418 2.98859 17.9497 5.70099C19.1952 6.52344 20.8047 6.52344 22.0501 5.70099C25.4284 3.47046 29.8348 3.40851 33.276 5.54383C33.5503 5.71411 33.9119 5.62988 34.0825 5.35492C34.2531 5.07965 34.1686 4.71863 33.8936 4.54804C30.0655 2.17255 25.1632 2.24121 21.4043 4.72321C20.5511 5.28656 19.4488 5.28626 18.5955 4.72321C16.3988 3.27271 13.7377 2.61322 11.1028 2.86499C8.43193 3.12073 5.91423 4.30817 4.01391 6.2088C1.04852 9.17389 -0.284794 12.4924 0.0505938 16.0718C0.830622 24.4012 10.451 32.1271 16.1156 35.9909C17.2652 36.7749 18.6083 37.1896 19.9999 37.1896C21.3915 37.1896 22.7346 36.7749 23.8842 35.9909C29.5492 32.1271 39.1692 24.4012 39.9492 16.0718C40.2846 12.4924 38.9513 9.17389 35.9859 6.2085ZM10.3304 11.5942H31.0793C32.8292 11.5942 34.2531 13.0179 34.2531 14.7681V17.1701H7.1563V14.7681C7.1563 13.0179 8.58025 11.5942 10.3304 11.5942ZM29.659 30.043H24.2303C23.9068 30.043 23.6443 30.3052 23.6443 30.629C23.6443 30.9525 23.9068 31.2149 24.2303 31.2149H28.2909C26.444 32.7484 24.6566 34.0454 23.2238 35.0229C22.568 35.47 21.8477 35.7669 21.1065 35.9146V23.5892C21.1065 22.1353 19.9239 20.9525 18.4701 20.9525H12.3309C10.8773 20.9525 9.69444 22.1353 9.69444 23.5892V27.7618C9.69444 28.0856 9.95659 28.3478 10.2804 28.3478C10.6039 28.3478 10.8663 28.0856 10.8663 27.7618V23.5892C10.8663 22.7814 11.5234 22.1243 12.3309 22.1243H18.4701C19.2776 22.1243 19.9346 22.7814 19.9346 23.5892V36.0236C18.8341 36.011 17.7404 35.672 16.776 35.0229C11.1568 31.239 7.18315 26.9849 7.1563 26.9559V18.342H34.2531V25.3549C33.7908 25.9134 31.7156 28.3121 29.659 30.043Z" fill="#656D75" />
</svg>