<svg width="255" height="110" viewBox="0 0 255 110" fill="none" xmlns="http://www.w3.org/2000/svg">
  <g clip-path="url(#clip0_75_5888)">
    <mask id="mask0_75_5888" style="mask-type:luminance" maskUnits="userSpaceOnUse" x="0" y="16" width="217" height="94">
      <path d="M216.043 16.4952H0.142578V109.995H216.043V16.4952Z" fill="white" />
    </mask>
    <g mask="url(#mask0_75_5888)">
      <path d="M78.9721 43.3231C68.6247 45.9768 11.7741 60.3474 25.0888 79.6172C32.3122 90.0276 45.2755 95.784 58.4341 99.7444L75.536 89.538C77.9568 88.1088 79.4406 85.4553 79.4406 82.5563L79.5969 44.058C79.5969 43.7722 79.5969 43.4456 79.5577 43.1598C79.3627 43.2006 79.1671 43.2823 78.9721 43.3231Z" fill="url(#paint0_linear_75_5888)" />
      <path d="M12.6372 84.3526C-3.37155 56.9995 36.299 37.7297 61.4057 28.2582L43.913 17.6027C41.5312 16.133 38.6027 16.133 36.1819 17.5619L4.20335 36.6683C1.7825 38.0972 0.298761 40.7509 0.298761 43.6495L0.142578 82.1481C0.142578 85.0467 1.58728 87.7006 3.96907 89.1699L35.7914 108.603C38.1732 110.073 41.1407 110.073 43.5225 108.644L47.7395 106.113C33.2534 102.275 18.6112 94.6001 12.6372 84.3526Z" fill="url(#paint1_linear_75_5888)" />
      <path d="M73.9012 19.8091C53.8317 26.4228 -6.49396 47.6113 12.6385 80.2718C22.5561 97.2148 56.1358 107.135 73.5498 104.196L81.7108 101.624C63.6714 97.0514 36.7688 92.4381 25.0941 75.5361C11.7795 56.2664 68.63 41.8958 78.9774 39.2421C84.0923 37.7724 87.1378 32.2609 85.7324 26.9127C84.3265 21.5646 79.0553 18.3802 73.9012 19.8091Z" fill="#85371F" />
      <path d="M115.089 51.201C116.222 52.385 115.636 51.9767 117.002 52.7116C126.139 57.7332 130.786 61.6116 136.252 70.5525C151.168 95.048 111.77 107.786 105.679 85.0866C104.898 82.147 105.836 70.4297 108.53 68.5109L108.295 68.7154C111.966 66.5515 113.176 61.9382 110.989 58.3456C108.803 54.7529 104.039 53.569 100.369 55.7327C88.7725 64.551 88.4603 84.8005 95.9567 95.8237C116.847 126.484 166.122 96.6806 142.343 66.5515C137.15 59.9786 124.109 48.5065 115.089 51.201Z" fill="#85371F" />
      <path d="M207.947 50.3904C203.848 48.7166 169.526 52.7175 161.717 51.6152C158.555 49.9414 154.494 50.5946 152.073 53.4116C149.34 56.6368 149.769 61.4134 153.049 64.0671C157.266 66.7616 164.607 66.3125 171.83 64.8836C173.04 77.6619 176.399 104.158 185.379 105.179C185.848 103.79 185.809 104.403 185.691 103.178C184.364 88.2361 185.496 75.6614 186.745 60.9643C187.566 60.7194 188.308 60.4744 189.01 60.2703C191.041 59.6987 209.783 53.9831 207.947 50.3904ZM160.429 51.2886C160.858 51.3295 161.21 51.4519 161.561 51.6152C161.053 51.5336 160.702 51.4111 160.429 51.2886Z" fill="#85371F" />
      <path d="M104.331 25.5922H99.7428V32.4218H96.4707V22.9547H104.331V25.5922ZM113.252 22.7975C114.106 22.7975 114.88 23.0013 115.572 23.4088C116.276 23.8048 116.83 24.3753 117.234 25.1206C117.65 25.8542 117.858 26.7101 117.858 27.6883C117.858 28.6664 117.65 29.5281 117.234 30.2734C116.83 31.007 116.276 31.5776 115.572 31.9851C114.88 32.3811 114.106 32.579 113.252 32.579C112.156 32.579 111.284 32.2472 110.638 31.5834V35.8104H107.349V22.9547H110.482V23.8979C111.094 23.1643 112.018 22.7975 113.252 22.7975ZM112.56 29.9415C113.137 29.9415 113.61 29.7436 113.979 29.3476C114.349 28.9401 114.533 28.3869 114.533 27.6883C114.533 26.9896 114.349 26.4423 113.979 26.0464C113.61 25.6388 113.137 25.435 112.56 25.435C111.983 25.435 111.509 25.6388 111.14 26.0464C110.771 26.4423 110.586 26.9896 110.586 27.6883C110.586 28.3869 110.771 28.9401 111.14 29.3476C111.509 29.7436 111.983 29.9415 112.56 29.9415ZM124.792 22.7975C126.35 22.7975 127.538 23.1585 128.358 23.8804C129.178 24.5908 129.587 25.6854 129.587 27.1642V32.4218H126.523V31.1991C126.05 32.1191 125.126 32.579 123.753 32.579C123.026 32.579 122.397 32.4509 121.866 32.1947C121.335 31.9385 120.931 31.5951 120.654 31.1642C120.388 30.7217 120.256 30.221 120.256 29.662C120.256 28.7654 120.596 28.0725 121.277 27.5835C121.958 27.0827 123.009 26.8324 124.428 26.8324H126.298C126.24 25.8309 125.576 25.3302 124.307 25.3302C123.857 25.3302 123.401 25.4059 122.939 25.5573C122.477 25.697 122.085 25.895 121.762 26.1512L120.654 23.8979C121.173 23.5486 121.802 23.2808 122.541 23.0944C123.291 22.8965 124.041 22.7975 124.792 22.7975ZM124.671 30.483C125.051 30.483 125.386 30.3898 125.675 30.2035C125.963 30.0172 126.171 29.7436 126.298 29.3826V28.5616H124.878C123.92 28.5616 123.441 28.8818 123.441 29.5223C123.441 29.8134 123.551 30.0463 123.77 30.221C123.989 30.3956 124.29 30.483 124.671 30.483ZM133.297 22.9547H136.57V26.4656H139.946V22.9547H143.235V32.4218H139.946V29.1031H136.57V32.4218H133.297V22.9547ZM155.564 25.5922H152.552V32.4218H149.28V25.5922H146.25V22.9547H155.564V25.5922ZM163.937 25.8892C165.172 25.9008 166.101 26.1803 166.724 26.7276C167.348 27.2749 167.659 28.0551 167.659 29.0682C167.659 30.1278 167.296 30.9546 166.568 31.5485C165.853 32.1423 164.837 32.4335 163.521 32.4218H158.57V22.9547H161.842V25.8892H163.937ZM168.456 22.9547H171.728V32.4218H168.456V22.9547ZM163.192 30.1511C164.023 30.1511 164.439 29.7726 164.439 29.0157C164.439 28.6431 164.335 28.3695 164.127 28.1948C163.92 28.0201 163.608 27.927 163.192 27.9153H161.842V30.1336L163.192 30.1511Z" fill="#85371F" />
      <path d="M183.609 31.2414V32.0963H177.108V31.4151L180.961 27.6083C181.446 27.1274 181.773 26.7134 181.94 26.3661C182.117 26.0099 182.205 25.6537 182.205 25.2975C182.205 24.7454 182.015 24.318 181.636 24.0152C181.265 23.7035 180.731 23.5477 180.034 23.5477C178.948 23.5477 178.106 23.895 177.505 24.5896L176.83 24.0019C177.192 23.5744 177.651 23.245 178.207 23.0134C178.772 22.7819 179.407 22.6661 180.113 22.6661C181.058 22.6661 181.803 22.8932 182.351 23.3474C182.907 23.7926 183.185 24.407 183.185 25.1906C183.185 25.6715 183.079 26.1345 182.867 26.5798C182.655 27.025 182.254 27.537 181.662 28.1159L178.511 31.2414H183.609ZM188.447 32.1764C187.732 32.1764 187.092 31.985 186.527 31.6021C185.971 31.2192 185.534 30.6715 185.217 29.9591C184.907 29.2379 184.753 28.3919 184.753 27.4213C184.753 26.4507 184.907 25.6092 185.217 24.8968C185.534 24.1755 185.971 23.6234 186.527 23.2405C187.092 22.8576 187.732 22.6661 188.447 22.6661C189.162 22.6661 189.797 22.8576 190.353 23.2405C190.918 23.6234 191.36 24.1755 191.677 24.8968C191.995 25.6092 192.154 26.4507 192.154 27.4213C192.154 28.3919 191.995 29.2379 191.677 29.9591C191.36 30.6715 190.918 31.2192 190.353 31.6021C189.797 31.985 189.162 32.1764 188.447 32.1764ZM188.447 31.2949C188.985 31.2949 189.457 31.1435 189.864 30.8407C190.278 30.538 190.6 30.0972 190.83 29.5184C191.059 28.9395 191.174 28.2405 191.174 27.4213C191.174 26.602 191.059 25.903 190.83 25.3242C190.6 24.7454 190.278 24.3046 189.864 24.0019C189.457 23.6991 188.985 23.5477 188.447 23.5477C187.908 23.5477 187.432 23.6991 187.017 24.0019C186.611 24.3046 186.293 24.7454 186.064 25.3242C185.834 25.903 185.72 26.602 185.72 27.4213C185.72 28.2405 185.834 28.9395 186.064 29.5184C186.293 30.0972 186.611 30.538 187.017 30.8407C187.432 31.1435 187.908 31.2949 188.447 31.2949ZM199.821 31.2414V32.0963H193.321V31.4151L197.174 27.6083C197.659 27.1274 197.986 26.7134 198.153 26.3661C198.33 26.0099 198.418 25.6537 198.418 25.2975C198.418 24.7454 198.228 24.318 197.849 24.0152C197.478 23.7035 196.944 23.5477 196.247 23.5477C195.161 23.5477 194.318 23.895 193.718 24.5896L193.043 24.0019C193.404 23.5744 193.864 23.245 194.42 23.0134C194.985 22.7819 195.62 22.6661 196.326 22.6661C197.27 22.6661 198.016 22.8932 198.564 23.3474C199.12 23.7926 199.398 24.407 199.398 25.1906C199.398 25.6715 199.292 26.1345 199.08 26.5798C198.868 27.025 198.466 27.537 197.875 28.1159L194.724 31.2414H199.821ZM204.168 26.7534C205.139 26.8069 205.876 27.074 206.379 27.5549C206.892 28.0268 207.147 28.6457 207.147 29.4115C207.147 29.9458 207.019 30.4222 206.763 30.8407C206.508 31.2503 206.128 31.5754 205.625 31.8158C205.122 32.0562 204.508 32.1764 203.784 32.1764C203.114 32.1764 202.478 32.0696 201.878 31.8559C201.287 31.6333 200.81 31.3394 200.448 30.9743L200.912 30.2129C201.221 30.5335 201.631 30.7962 202.143 31.001C202.655 31.1969 203.202 31.2949 203.784 31.2949C204.544 31.2949 205.13 31.1301 205.545 30.8006C205.96 30.4622 206.168 29.9992 206.168 29.4115C206.168 28.8327 205.96 28.3785 205.545 28.0491C205.13 27.7196 204.504 27.5549 203.665 27.5549H203.003V26.8469L205.572 23.6011H200.832V22.7463H206.79V23.4275L204.168 26.7534Z" fill="#85371F" />
    </g>
  </g>
  <defs>
    <linearGradient id="paint0_linear_75_5888" x1="70.053" y1="37.1504" x2="44.5252" y2="87.9604" gradientUnits="userSpaceOnUse">
      <stop stop-color="#FFC500" />
      <stop offset="1" stop-color="#FB6902" />
    </linearGradient>
    <linearGradient id="paint1_linear_75_5888" x1="49.4519" y1="18.6649" x2="14.3313" y2="88.5672" gradientUnits="userSpaceOnUse">
      <stop stop-color="#FFC500" />
      <stop offset="1" stop-color="#FB6902" />
    </linearGradient>
    <clipPath id="clip0_75_5888">
      <rect width="254" height="110" fill="white" transform="translate(0.142578)" />
    </clipPath>
  </defs>
</svg>