<svg width="40" height="40" viewBox="0 0 40 40" fill="none" xmlns="http://www.w3.org/2000/svg">
  <path d="M31.9121 22.7175H28.2528C27.9416 20.6606 26.1958 19.0805 24.0955 19.0805C21.9951 19.0805 20.2493 20.6606 19.9381 22.7175H16.9239V19.031C16.9239 18.6672 16.635 18.3721 16.2788 18.3721C14.6707 18.3721 13.3622 17.0359 13.3622 15.3937C13.3622 13.7515 14.6707 12.4152 16.2788 12.4152C16.635 12.4152 16.9239 12.1202 16.9239 11.7564V7.41076C16.9239 7.04697 16.635 6.75195 16.2788 6.75195H0.645116C0.288883 6.75195 0 7.04697 0 7.41076V39.3421C0 39.7062 0.288883 40.0009 0.645116 40.0009H16.2788H31.9121C32.2684 40.0009 32.5572 39.7062 32.5572 39.3421V23.3763C32.5572 23.0121 32.2684 22.7175 31.9121 22.7175ZM1.29023 8.06964H15.6337V11.1482C13.6192 11.466 12.072 13.2488 12.072 15.3937C12.072 17.5387 13.6192 19.3215 15.6337 19.6393V22.7175H12.0235C11.6672 22.7175 11.3784 23.0122 11.3784 23.3763C11.3784 25.0189 10.0699 26.3551 8.46179 26.3551C6.85371 26.3551 5.54554 25.0189 5.54554 23.3763C5.54554 23.0122 5.25666 22.7175 4.90043 22.7175H1.29023V8.06964ZM15.6337 34.9968V38.6833H1.29023V24.0351H4.30479C4.616 26.0925 6.36174 27.6727 8.46179 27.6727C10.5622 27.6727 12.3079 26.0926 12.6191 24.0351H15.6337V27.7222C15.6337 28.0863 15.9226 28.381 16.2788 28.381C17.8869 28.381 19.195 29.7173 19.195 31.3592C19.195 33.0017 17.8869 34.338 16.2788 34.338C15.9225 34.338 15.6337 34.6327 15.6337 34.9968ZM31.267 38.6833H16.9239V35.6054C18.9383 35.2869 20.4853 33.5041 20.4853 31.3592C20.4853 29.2142 18.9383 27.4321 16.9239 27.1136V24.0351H20.5338C20.89 24.0351 21.1789 23.7404 21.1789 23.3763C21.1789 21.7344 22.4874 20.3981 24.0955 20.3981C25.7035 20.3981 27.012 21.7344 27.012 23.3763C27.012 23.7404 27.3009 24.0351 27.6571 24.0351H31.267V38.6833Z" fill="#E05704" />
  <path d="M39.5836 5.74852L24.9825 0.0431098C24.6511 -0.0855555 24.2768 0.0832971 24.1493 0.423045L22.8418 3.91295C21.973 3.72025 21.0709 3.81452 20.244 4.19156C19.2174 4.65958 18.4311 5.50786 18.0299 6.57941C17.6285 7.65063 17.6597 8.81771 18.1177 9.86542C18.4872 10.7101 19.0983 11.3957 19.8707 11.8444L18.5628 15.3344C18.4356 15.6741 18.6022 16.055 18.9349 16.1852L22.9092 17.7386C23.0689 17.8007 23.2465 17.7956 23.4028 17.7248C23.559 17.6534 23.6812 17.5218 23.7423 17.3584C24.0205 16.6153 24.5655 16.0276 25.2764 15.7033C25.9876 15.3784 26.7799 15.3565 27.5081 15.6409C28.2355 15.925 28.811 16.4815 29.1285 17.2082C29.4463 17.9348 29.4681 18.7439 29.1896 19.4863C29.1285 19.6494 29.1332 19.8308 29.2031 19.9904C29.2727 20.1499 29.4019 20.2747 29.5616 20.3372L33.5359 21.8899C33.8621 22.0198 34.2449 21.8424 34.3691 21.5103L39.9556 6.59931C40.0828 6.25936 39.9162 5.87844 39.5836 5.74852ZM33.3945 20.424L30.5797 19.3242C30.7677 18.4376 30.6761 17.5157 30.3069 16.6712C29.8486 15.6229 29.0182 14.8199 27.9686 14.4101C26.0077 13.6452 23.8239 14.4831 22.8137 16.2904L19.9986 15.1899L21.2891 11.7466C21.3502 11.5835 21.3455 11.4021 21.2756 11.2425C21.2056 11.083 21.0768 10.9582 20.9167 10.8957C20.1894 10.6116 19.6136 10.0552 19.2961 9.32849C18.9782 8.60182 18.9565 7.79274 19.235 7.05C19.5132 6.30726 20.0581 5.71921 20.7697 5.39494C21.4806 5.07035 22.2728 5.04781 23.0005 5.33255C23.1602 5.39435 23.3378 5.3898 23.494 5.31872C23.6503 5.24763 23.7725 5.11574 23.8336 4.95262L25.1239 1.50929L38.5198 6.74372L33.3945 20.424Z" fill="#E05704" />
</svg>