<svg width="48" height="48" viewBox="0 0 48 48" fill="none"
    xmlns="http://www.w3.org/2000/svg">
    <path fill-rule="evenodd" clip-rule="evenodd" d="M7.88393 36.4022C5.72652 34.2682 7.25077 30.5865 10.2758 30.5865C13.3009 30.5865 14.8252 34.2682 12.6912 36.4022C11.3545 37.7388 9.19713 37.7388 7.88393 36.4022ZM39.4009 4.93214C39.4009 3.68929 37.5248 3.68929 37.5248 4.93214V28.8043C33.3742 29.5547 31.7092 34.7138 34.7343 37.7388C35.4847 38.4892 36.4461 39.0051 37.5248 39.1927V43.0854C37.5248 44.3049 39.4009 44.3049 39.4009 43.0854V39.1927C43.575 38.4423 45.2399 33.2833 42.2149 30.2582C41.4645 29.5078 40.4796 28.9919 39.4009 28.8043V4.93214ZM23.4313 43.0854C23.4313 44.3049 25.3073 44.3049 25.3073 43.0854V24.8647C29.4815 24.1143 31.1464 18.9553 28.1214 15.9302C27.371 15.1798 26.4095 14.6639 25.3073 14.4529V4.93214C25.3073 3.68929 23.4313 3.68929 23.4313 4.93214V14.4529C19.2807 15.2033 17.6157 20.3623 20.6408 23.3874C21.3912 24.1378 22.3526 24.6771 23.4313 24.8647V43.0854ZM11.2138 4.93214C11.2138 3.68929 9.33783 3.68929 9.33783 4.93214V28.8043C5.18717 29.5547 3.52221 34.7138 6.54727 37.7388C7.29767 38.4892 8.25913 39.0051 9.33783 39.1927V43.0854C9.33783 44.3049 11.2138 44.3049 11.2138 43.0854V39.1927C15.388 38.4423 17.0529 33.2833 14.0279 30.2582C13.2774 29.5078 12.316 28.9919 11.2138 28.8043V4.93214ZM36.0709 36.4022C33.9135 34.2682 35.4378 30.5865 38.4629 30.5865C41.4879 30.5865 43.0122 34.2682 40.8782 36.4022C39.5416 37.7388 37.3841 37.7388 36.0709 36.4022ZM21.9774 22.0742C19.82 19.9402 21.3443 16.2585 24.3693 16.2585C27.3944 16.2585 28.9187 19.9402 26.7847 22.0742C25.448 23.4108 23.2906 23.4108 21.9774 22.0742Z" fill="#E05704"/>
</svg>
