<svg width="24" height="19" viewBox="0 0 24 19" fill="none" xmlns="http://www.w3.org/2000/svg">
  <path d="M14.0057 12.6797C13.4086 13.0777 12.7151 13.2881 12 13.2881C11.285 13.2881 10.5914 13.0777 9.99431 12.6797L0.159797 6.12311C0.105234 6.08674 0.0520781 6.04881 0 6.00981V16.7534C0 17.9852 0.999609 18.9628 2.20936 18.9628H21.7906C23.0224 18.9628 24 17.9632 24 16.7534V6.00977C23.9478 6.04886 23.8945 6.08688 23.8398 6.1233L14.0057 12.6797Z" fill="#656D75" />
  <path d="M0.939844 4.95353L10.7744 11.5101C11.1466 11.7583 11.5733 11.8824 12 11.8824C12.4267 11.8824 12.8534 11.7583 13.2256 11.5101L23.0602 4.95353C23.6487 4.56142 24 3.90517 24 3.19689C24 1.97903 23.0092 0.988281 21.7914 0.988281H2.20861C0.990797 0.988328 0 1.97908 0 3.19806C0 3.90517 0.351375 4.56142 0.939844 4.95353Z" fill="#656D75" />
</svg>