<svg width="24" height="24" viewBox="0 0 24 24" fill="none" xmlns="http://www.w3.org/2000/svg">
  <path d="M3.24793 0.374794C3.0216 0.131585 2.71846 -0.00299157 2.40381 5.04724e-05C2.08915 0.00309252 1.78816 0.14351 1.56566 0.391058C1.34316 0.638607 1.21695 0.973481 1.21422 1.32355C1.21148 1.67363 1.33244 2.01089 1.55104 2.2627L4.46 5.49912C2.74391 6.93575 1.24623 8.90911 0.126566 11.4032C0.0433312 11.5885 0 11.7928 0 12C0 12.2072 0.0433312 12.4115 0.126566 12.5968C2.7163 18.3607 7.31495 21.3461 12 21.3461C13.8661 21.3461 15.7202 20.8721 17.4363 19.9375L20.7521 23.6252C20.9784 23.8684 21.2815 24.003 21.5962 24C21.9108 23.9969 22.2118 23.8565 22.4343 23.6089C22.6568 23.3614 22.7831 23.0265 22.7858 22.6764C22.7885 22.3264 22.6676 21.9891 22.449 21.7373L3.24793 0.374794ZM15.617 17.9121C14.4409 18.4234 13.2169 18.6758 12 18.6758C8.43701 18.6758 4.79722 16.5128 2.5555 12C3.53595 10.0253 4.78521 8.50189 6.17729 7.41107L8.75023 10.2736C8.42871 11.0213 8.32356 11.8614 8.44927 12.6784C8.57498 13.4953 8.92536 14.2487 9.45211 14.8347C9.97886 15.4208 10.656 15.8106 11.3903 15.9504C12.1245 16.0903 12.8797 15.9733 13.5517 15.6156L15.6158 17.9121H15.617ZM19.8628 14.5315C20.4424 13.7891 20.9741 12.9466 21.4445 12C19.2028 7.48717 15.5642 5.32422 12 5.32422C11.8656 5.32422 11.7312 5.32689 11.5968 5.33356L9.45466 2.95165C10.2914 2.75386 11.1445 2.65407 12 2.65391C16.6838 2.65391 21.2837 5.63932 23.8734 11.4032C23.9567 11.5885 24 11.7928 24 12C24 12.2072 23.9567 12.4115 23.8734 12.5968C23.2583 13.9796 22.4816 15.2658 21.5633 16.422L19.8628 14.5315Z" fill="#656D75" />
</svg>