<svg width="24" height="24" viewBox="0 0 24 20" fill="none" xmlns="http://www.w3.org/2000/svg">
  <path d="M23.8392 9.00095C23.6282 8.63358 18.5834 0 12 0C5.41657 0 0.371768 8.63358 0.160836 9.00095C-0.053612 9.37184 -0.053612 9.82769 0.160836 10.1986C0.371768 10.566 5.41657 19.1995 12 19.1995C18.5834 19.1995 23.6282 10.566 23.8392 10.1986C24.0536 9.82769 24.0536 9.37184 23.8392 9.00095ZM12 16.7996C7.66065 16.7996 3.79239 11.4138 2.60999 9.59273C4.18378 7.13479 8.03447 2.39994 12 2.39994C16.3393 2.39994 20.2076 7.78575 21.39 9.6068C19.8162 12.0647 15.9655 16.7996 12 16.7996ZM12 4.79988C9.3528 4.79988 7.20012 6.95315 7.20012 9.59977C7.20012 12.2464 9.3528 14.3996 12 14.3996C14.6472 14.3996 16.7999 12.2464 16.7999 9.59977C16.7999 6.95315 14.6472 4.79988 12 4.79988Z" fill="#656D75" />
</svg>