<svg width="81" height="80" viewBox="0 0 81 80" fill="none"
  xmlns="http://www.w3.org/2000/svg">
  <path d="M63.5841 45.1538H56.4936C55.8906 41.2511 52.508 38.2531 48.4383 38.2531C44.3685 38.2531 40.9859 41.2511 40.3829 45.1538H34.5424V38.1591C34.5424 37.4689 33.9826 36.9091 33.2924 36.9091C30.1765 36.9091 27.6411 34.3738 27.6411 31.2579C27.6411 28.142 30.1765 25.6066 33.2924 25.6066C33.9826 25.6066 34.5424 25.0469 34.5424 24.3566V16.1114C34.5424 15.4211 33.9826 14.8614 33.2924 14.8614H3C2.30975 14.8614 1.75 15.4211 1.75 16.1114V76.6968C1.75 77.3876 2.30975 77.9468 3 77.9468H33.2924H63.5841C64.2744 77.9468 64.8341 77.3876 64.8341 76.6968V46.4038C64.8341 45.7129 64.2744 45.1538 63.5841 45.1538ZM4.25 17.3615H32.0424V23.2026C28.1391 23.8056 25.1411 27.1883 25.1411 31.258C25.1411 35.3278 28.1391 38.7104 32.0424 39.3134V45.1539H25.0471C24.3569 45.1539 23.7971 45.713 23.7971 46.4039C23.7971 49.5204 21.2618 52.0558 18.1459 52.0558C15.03 52.0558 12.4952 49.5204 12.4952 46.4039C12.4952 45.713 11.9355 45.1539 11.2452 45.1539H4.25V17.3615ZM32.0424 68.4521V75.4468H4.25V47.6538H10.0911C10.6941 51.5575 14.0767 54.5556 18.1459 54.5556C22.2157 54.5556 25.5983 51.5576 26.2013 47.6538H32.0424V54.6496C32.0424 55.3405 32.6021 55.8996 33.2924 55.8996C36.4082 55.8996 38.943 58.435 38.943 61.5503C38.943 64.6668 36.4082 67.2021 33.2924 67.2021C32.602 67.2021 32.0424 67.7613 32.0424 68.4521ZM62.3341 75.4468H34.5424V69.6069C38.4456 69.0026 41.443 65.62 41.443 61.5503C41.443 57.4805 38.4456 54.0991 34.5424 53.4949V47.6538H41.537C42.2273 47.6538 42.787 47.0946 42.787 46.4038C42.787 43.2885 45.3224 40.7531 48.4383 40.7531C51.5541 40.7531 54.0895 43.2885 54.0895 46.4038C54.0895 47.0946 54.6493 47.6538 55.3395 47.6538H62.3341V75.4468Z" fill="#E05704" />
  <path d="M78.4461 12.9603L50.1545 2.13502C49.5124 1.89089 48.7872 2.21127 48.5401 2.85589L46.0066 9.47752C44.3232 9.11189 42.5752 9.29077 40.973 10.0061C38.9839 10.8941 37.4604 12.5036 36.6829 14.5368C35.9052 16.5693 35.9657 18.7836 36.8531 20.7715C37.5691 22.3743 38.7531 23.675 40.2497 24.5264L37.7156 31.1481C37.469 31.7926 37.7919 32.5154 38.4365 32.7625L46.1372 35.7099C46.4467 35.8276 46.7909 35.8179 47.0936 35.6836C47.3964 35.5481 47.6331 35.2985 47.7516 34.9884C48.2906 33.5785 49.3465 32.4634 50.724 31.8481C52.1021 31.2316 53.6372 31.1901 55.0484 31.7298C56.4576 32.2688 57.5728 33.3246 58.188 34.7034C58.8039 36.0821 58.846 37.6173 58.3064 39.0259C58.188 39.3354 58.1971 39.6795 58.3326 39.9823C58.4675 40.285 58.7177 40.5218 59.0272 40.6403L66.728 43.5864C67.36 43.8328 68.1017 43.4963 68.3424 42.8661L79.167 14.5745C79.4135 13.9295 79.0906 13.2068 78.4461 12.9603ZM66.454 40.805L60.9999 38.7183C61.3642 37.0361 61.1866 35.2869 60.4712 33.6846C59.5832 31.6955 57.9742 30.172 55.9406 29.3945C52.1411 27.9431 47.9096 29.533 45.9522 32.962L40.4975 30.874L42.9981 24.3408C43.1165 24.0313 43.1074 23.6871 42.9719 23.3844C42.8364 23.0816 42.5867 22.8449 42.2766 22.7264C40.8674 22.1874 39.7516 21.1315 39.1364 19.7528C38.5205 18.374 38.4784 16.8389 39.018 15.4296C39.557 14.0204 40.6129 12.9046 41.9916 12.2894C43.3692 11.6735 44.9042 11.6308 46.3141 12.171C46.6236 12.2883 46.9677 12.2796 47.2705 12.1448C47.5732 12.0099 47.81 11.7596 47.9285 11.4501L50.4285 4.91689L76.3849 14.8485L66.454 40.805Z" fill="#E05704" />
</svg>