<svg width="51" height="50" viewBox="0 0 51 50" fill="none" xmlns="http://www.w3.org/2000/svg">
  <g clip-path="url(#clip0_788_31595)">
    <path d="M35.6304 15.4732L46.9321 17.0448C49.4748 17.3983 50.5084 20.5141 48.681 22.3173L40.5591 30.3319C39.8335 31.0479 39.5067 32.0752 39.6851 33.0788L41.6828 44.3131C42.1323 46.8406 39.4884 48.7864 37.2088 47.6057L27.0767 42.358C26.1715 41.8892 25.0935 41.8957 24.1942 42.3757L14.1271 47.7473C11.8622 48.9558 9.1947 47.0426 9.61305 44.5098L11.4729 33.2519C11.6391 32.246 11.2997 31.223 10.5653 30.5158L2.34578 22.6014C0.49647 20.8208 1.49178 17.6925 4.02996 17.3079L15.3116 15.5979C16.3196 15.4451 17.1877 14.8062 17.6333 13.8893L22.6205 3.62645C23.7425 1.31737 27.025 1.29735 28.1754 3.59237L33.2879 13.7934C33.7447 14.7046 34.6206 15.3328 35.6304 15.4732Z" fill="#FFD92D" />
    <path d="M12.3178 21.155C12.3178 19.3925 12.4934 17.6749 12.7512 15.9844L4.02997 17.3061C1.49169 17.6908 0.496578 20.8189 2.34579 22.5997L10.5657 30.5142C11.2999 31.2214 11.6393 32.2444 11.4729 33.2503L9.61306 44.5082C9.19441 47.041 11.8624 48.9541 14.1271 47.7456L21.159 43.9935C15.6827 37.9483 12.3178 29.9545 12.3178 21.155Z" fill="#FFE571" />
    <path d="M48.6814 22.3177C50.5085 20.5146 49.4748 17.3988 46.9323 17.0452L35.6305 15.4735C34.6207 15.3331 33.7446 14.7048 33.2882 13.7934L28.1757 3.59237C27.025 1.29735 23.7423 1.31737 22.6207 3.62645L20.4932 8.00349C27.7488 12.8461 32.5319 21.1019 32.5319 30.4794C32.5319 35.1862 31.3229 39.6081 29.2069 43.4613L37.2088 47.6059C39.4883 48.7865 42.1323 46.8408 41.683 44.3133L39.6849 33.0791C39.5067 32.0754 39.8334 31.0482 40.5589 30.3322L48.6814 22.3177Z" fill="#FFA81E" />
    <path d="M49.309 22.9533C50.3984 21.8783 50.7758 20.3082 50.294 18.8556C49.812 17.403 48.5711 16.3698 47.0554 16.1591C46.5675 16.092 46.1147 16.4323 46.0467 16.9215C45.9787 17.4105 46.32 17.8622 46.8091 17.9301C47.6585 18.0481 48.3268 18.6048 48.5969 19.4186C48.867 20.2327 48.6638 21.0784 48.0533 21.6807L39.9313 29.6953C38.9958 30.6182 38.5748 31.9416 38.805 33.2352L40.8028 44.4694C40.953 45.3138 40.6303 46.1212 39.9395 46.6296C39.2486 47.1381 38.3818 47.2059 37.6202 46.8115L27.4881 41.5638C26.3212 40.9596 24.9325 40.9679 23.7735 41.5865L13.7064 46.9581C12.9496 47.3618 12.0819 47.3045 11.385 46.8046C10.688 46.3048 10.3554 45.5011 10.4951 44.6552L12.3552 33.3973C12.5695 32.101 12.1322 30.7829 11.1856 29.8715L2.96612 21.957C2.34825 21.3622 2.13468 20.5191 2.39484 19.7018C2.6548 18.8845 3.31622 18.3198 4.16427 18.1913L15.446 16.4813C16.7449 16.2844 17.8634 15.4612 18.4379 14.2796L23.4251 4.0164C23.7999 3.24502 24.5355 2.78144 25.3932 2.77627C25.3981 2.77627 25.403 2.77627 25.408 2.77627C26.2593 2.77627 26.9946 3.23007 27.3766 3.99238L32.4892 14.1934C33.0778 15.368 34.2062 16.1774 35.5077 16.3584L38.2552 16.7404C38.7436 16.8087 39.1959 16.4672 39.2639 15.978C39.3319 15.4889 38.9906 15.0373 38.5015 14.9693L35.754 14.5873C35.0355 14.4874 34.4126 14.0406 34.0876 13.3923L28.9749 3.19121C28.2929 1.83056 26.9276 0.988281 25.4073 0.988281C25.399 0.988281 25.3904 0.988281 25.382 0.988281C23.8515 0.997656 22.4854 1.85869 21.8166 3.23515L16.8296 13.4982C16.5125 14.1506 15.895 14.6051 15.178 14.7137L3.8961 16.4234C2.38292 16.6527 1.1548 17.7012 0.690738 19.1595C0.226676 20.6179 0.623355 22.1834 1.72579 23.2447L9.94531 31.1592C10.4679 31.6623 10.7092 32.39 10.5909 33.1055L8.73105 44.3636C8.48154 45.8735 9.09932 47.3657 10.3428 48.2575C11.0387 48.7566 11.8496 49.0098 12.6655 49.0098C13.3078 49.0098 13.9532 48.8529 14.5478 48.5356L24.615 43.164C25.2547 42.8224 26.0214 42.8176 26.6655 43.1515L36.7976 48.3992C38.1563 49.1027 39.7663 48.9769 40.9992 48.0695C42.2317 47.1624 42.8309 45.6628 42.5628 44.1562L40.5651 32.9219C40.4381 32.2078 40.6705 31.4773 41.1869 30.9678L49.309 22.9533Z" fill="#C46111" />
    <path d="M43.9324 17.5295L44.5276 17.6122C44.5694 17.6181 44.6108 17.6208 44.6519 17.6208C45.0911 17.6208 45.4741 17.2971 45.5363 16.8498C45.6042 16.3608 45.2629 15.9091 44.7739 15.8412L44.1787 15.7584C43.6905 15.6913 43.238 16.0317 43.17 16.5208C43.102 17.0098 43.4434 17.4615 43.9324 17.5295Z" fill="#C46111" />
    <path d="M13.4769 43.6904C12.9922 43.5965 12.6753 43.1275 12.7691 42.6427L13.8779 36.9157C13.9718 36.4309 14.4408 36.114 14.9256 36.2079C15.4103 36.3017 15.7272 36.7708 15.6334 37.2555L14.5246 42.9826C14.4308 43.4673 13.9618 43.7841 13.4769 43.6904Z" fill="white" />
    <path d="M15.2066 34.7574C14.7218 34.6635 14.4049 34.1945 14.4988 33.7097L14.6139 33.1149C14.7078 32.6301 15.1768 32.3132 15.6616 32.4071C16.1463 32.5009 16.4632 32.97 16.3694 33.4547L16.2543 34.0496C16.1604 34.5345 15.6914 34.8513 15.2066 34.7574Z" fill="white" />
  </g>
  <defs>
    <clipPath id="clip0_788_31595">
      <rect width="50" height="50" fill="white" transform="translate(0.5)" />
    </clipPath>
  </defs>
</svg>