<svg width="51" height="50" viewBox="0 0 51 50" fill="none" xmlns="http://www.w3.org/2000/svg">
  <g clip-path="url(#clip0_788_31690)">
    <path d="M35.6304 15.4732L46.9322 17.0448C49.4749 17.3983 50.5084 20.5141 48.6811 22.3173L40.5591 30.3319C39.8336 31.0479 39.5067 32.0752 39.6851 33.0788L41.6829 44.3131C42.1324 46.8406 39.4884 48.7864 37.2089 47.6057L27.0768 42.358C26.1716 41.8892 25.0936 41.8957 24.1942 42.3757L14.1272 47.7473C11.8622 48.9558 9.19476 47.0426 9.61311 44.5098L11.473 33.2519C11.6392 32.246 11.2997 31.223 10.5654 30.5158L2.34584 22.6014C0.496531 20.8208 1.49184 17.6925 4.03002 17.3079L15.3116 15.5979C16.3196 15.4451 17.1877 14.8062 17.6333 13.8893L22.6205 3.62645C23.7426 1.31737 27.0251 1.29735 28.1755 3.59237L33.288 13.7934C33.7448 14.7046 34.6207 15.3328 35.6304 15.4732Z" fill="white" />
    <path d="M12.3179 21.155C12.3179 19.3925 12.4935 17.6749 12.7513 15.9844L4.03 17.3061C1.49172 17.6908 0.496609 20.8189 2.34582 22.5997L10.5657 30.5142C11.2999 31.2214 11.6394 32.2444 11.473 33.2503L9.61309 44.5082C9.19444 47.041 11.8624 48.9541 14.1271 47.7456L21.1591 43.9935C15.6827 37.9483 12.3179 29.9545 12.3179 21.155Z" fill="white" />
    <path d="M48.6813 22.3177C50.5084 20.5146 49.4747 17.3988 46.9323 17.0452L35.6304 15.4735C34.6207 15.3331 33.7445 14.7048 33.2882 13.7934L28.1757 3.59237C27.0249 1.29735 23.7423 1.31737 22.6206 3.62645L20.4932 8.00349C27.7487 12.8461 32.5318 21.1019 32.5318 30.4794C32.5318 35.1862 31.3228 39.6081 29.2068 43.4613L37.2088 47.6059C39.4882 48.7865 42.1323 46.8408 41.683 44.3133L39.6848 33.0791C39.5066 32.0754 39.8334 31.0482 40.5588 30.3322L48.6813 22.3177Z" fill="white" />
    <path d="M49.3089 22.9533C50.3983 21.8783 50.7757 20.3082 50.2939 18.8556C49.812 17.403 48.5711 16.3698 47.0553 16.1591C46.5674 16.092 46.1146 16.4323 46.0466 16.9215C45.9787 17.4105 46.32 17.8622 46.809 17.9301C47.6585 18.0481 48.3267 18.6048 48.5968 19.4186C48.867 20.2327 48.6637 21.0784 48.0532 21.6807L39.9312 29.6953C38.9958 30.6182 38.5747 31.9416 38.805 33.2352L40.8027 44.4694C40.9529 45.3138 40.6303 46.1212 39.9394 46.6296C39.2485 47.1381 38.3817 47.2059 37.6201 46.8115L27.488 41.5638C26.3211 40.9596 24.9324 40.9679 23.7734 41.5865L13.7064 46.9581C12.9495 47.3618 12.0819 47.3045 11.3849 46.8046C10.6879 46.3048 10.3553 45.5011 10.4951 44.6552L12.3551 33.3973C12.5695 32.101 12.1322 30.7829 11.1856 29.8715L2.96606 21.957C2.34819 21.3622 2.13462 20.5191 2.39478 19.7018C2.65474 18.8845 3.31616 18.3198 4.16421 18.1913L15.4459 16.4813C16.7448 16.2844 17.8633 15.4612 18.4378 14.2796L23.425 4.0164C23.7998 3.24502 24.5355 2.78144 25.3932 2.77627C25.3981 2.77627 25.4029 2.77627 25.4079 2.77627C26.2593 2.77627 26.9945 3.23007 27.3766 3.99238L32.4892 14.1934C33.0777 15.368 34.2061 16.1774 35.5076 16.3584L38.2552 16.7404C38.7435 16.8087 39.1959 16.4672 39.2638 15.978C39.3318 15.4889 38.9905 15.0373 38.5014 14.9693L35.7539 14.5873C35.0354 14.4874 34.4125 14.0406 34.0876 13.3923L28.9748 3.19121C28.2929 1.83056 26.9275 0.988281 25.4072 0.988281C25.3989 0.988281 25.3903 0.988281 25.3819 0.988281C23.8515 0.997656 22.4854 1.85869 21.8165 3.23515L16.8295 13.4982C16.5124 14.1506 15.8949 14.6051 15.178 14.7137L3.89604 16.4234C2.38286 16.6527 1.15474 17.7012 0.690677 19.1595C0.226615 20.6179 0.623294 22.1834 1.72573 23.2447L9.94525 31.1592C10.4678 31.6623 10.7091 32.39 10.5909 33.1055L8.73099 44.3636C8.48148 45.8735 9.09925 47.3657 10.3427 48.2575C11.0386 48.7566 11.8495 49.0098 12.6655 49.0098C13.3077 49.0098 13.9532 48.8529 14.5478 48.5356L24.6149 43.164C25.2546 42.8224 26.0213 42.8176 26.6654 43.1515L36.7975 48.3992C38.1562 49.1027 39.7662 48.9769 40.9991 48.0695C42.2316 47.1624 42.8308 45.6628 42.5628 44.1562L40.565 32.9219C40.4381 32.2078 40.6704 31.4773 41.1868 30.9678L49.3089 22.9533Z" fill="#C46111" />
    <path d="M43.9323 17.5295L44.5275 17.6122C44.5693 17.6181 44.6107 17.6208 44.6518 17.6208C45.091 17.6208 45.474 17.2971 45.5362 16.8498C45.6041 16.3608 45.2628 15.9091 44.7738 15.8412L44.1786 15.7584C43.6904 15.6913 43.2379 16.0317 43.1699 16.5208C43.1019 17.0098 43.4433 17.4615 43.9323 17.5295Z" fill="#C46111" />
    <path d="M13.477 43.6904C12.9922 43.5965 12.6753 43.1275 12.7691 42.6427L13.8779 36.9157C13.9718 36.4309 14.4408 36.114 14.9256 36.2079C15.4104 36.3017 15.7272 36.7708 15.6334 37.2555L14.5246 42.9826C14.4309 43.4673 13.9618 43.7841 13.477 43.6904Z" fill="white" />
    <path d="M15.2067 34.7574C14.7219 34.6635 14.405 34.1945 14.4989 33.7097L14.614 33.1149C14.7079 32.6301 15.1769 32.3132 15.6617 32.4071C16.1464 32.5009 16.4633 32.97 16.3695 33.4547L16.2544 34.0496C16.1605 34.5345 15.6915 34.8513 15.2067 34.7574Z" fill="white" />
  </g>
  <defs>
    <clipPath id="clip0_788_31690">
      <rect width="50" height="50" fill="white" transform="translate(0.5)" />
    </clipPath>
  </defs>
</svg>