<svg width="124" height="124" viewBox="0 0 124 124" fill="none" xmlns="http://www.w3.org/2000/svg">
  <path d="M100 10V26H92V20C92 18.9 91.1 18 90 18H34C32.9 18 32 18.9 32 20V26.76C30.08 26.26 28.08 26 26 26C25.32 26 24.66 26.02 24 26.08V10C24 5.58 27.58 2 32 2H92C96.42 2 100 5.58 100 10Z" fill="#AAB2BD" />
  <path d="M100 62V114C100 118.42 96.42 122 92 122H32C27.58 122 24 118.42 24 114V94.8L26 94L32 96.4V104C32 105.1 32.9 106 34 106H42H90C91.1 106 92 105.1 92 104V98V62H100Z" fill="#AAB2BD" />
  <path d="M82 26H92V20C92 18.9 91.1 18 90 18H34C32.9 18 32 18.9 32 20V26.76C42.36 29.42 50 38.82 50 50C50 59.7 44.26 68.04 36 71.84V98L32 96.4V104C32 105.1 32.9 106 34 106H42H90C91.1 106 92 105.1 92 104V98V62H86H82C79.8 62 78 60.2 78 58V30C78 27.8 79.8 26 82 26Z" fill="#69D6F4" />
  <path d="M36 71.84V98L32 96.4L26 94L24 94.8L16 98V71.84C19.04 73.22 22.42 74 26 74C29.58 74 32.96 73.22 36 71.84Z" fill="#FF826E" />
  <path d="M32 26.76C42.36 29.42 50 38.82 50 50C50 59.7 44.26 68.04 36 71.84C32.96 73.22 29.58 74 26 74C22.42 74 19.04 73.22 16 71.84C7.74 68.04 2 59.7 2 50C2 37.42 11.68 27.1 24 26.1V26.08C24.66 26.02 25.32 26 26 26C28.08 26 30.08 26.26 32 26.76Z" fill="#FCD770" />
  <path d="M26 66C34.8366 66 42 58.8366 42 50C42 41.1634 34.8366 34 26 34C17.1634 34 10 41.1634 10 50C10 58.8366 17.1634 66 26 66Z" fill="#FFEAA7" />
  <path d="M122 30V58C122 60.2 120.2 62 118 62H114C114 55.38 108.62 50 102 50H100C104.42 50 108 46.42 108 42C108 37.58 104.42 34 100 34C95.58 34 92 37.58 92 42C92 46.42 95.58 50 100 50H98C91.38 50 86 55.38 86 62H82C79.8 62 78 60.2 78 58V30C78 27.8 79.8 26 82 26H92H100H118C120.2 26 122 27.8 122 30Z" fill="#E6E9ED" />
  <path d="M114 62H100H92H86C86 55.38 91.38 50 98 50H100H102C108.62 50 114 55.38 114 62Z" fill="#B4DD7F" />
  <path d="M100 50C104.418 50 108 46.4183 108 42C108 37.5817 104.418 34 100 34C95.5817 34 92 37.5817 92 42C92 46.4183 95.5817 50 100 50Z" fill="#F0D0B4" />
  <path d="M52 8H56V12H52V8Z" fill="#0E0806" />
  <path d="M60 8H72V12H60V8Z" fill="#0E0806" />
  <path d="M52 112H72V116H52V112Z" fill="#0E0806" />
  <path d="M44 50C44 40.076 35.924 32 26 32C16.076 32 8 40.076 8 50C8 59.924 16.076 68 26 68C35.924 68 44 59.924 44 50ZM12 50C12 42.28 18.28 36 26 36C33.72 36 40 42.28 40 50C40 57.72 33.72 64 26 64C18.28 64 12 57.72 12 50Z" fill="#0E0806" />
  <path d="M118 24H102V10C102 4.486 97.514 0 92 0H32C26.486 0 22 4.486 22 10V24.34C9.56 26.274 0 37.026 0 50C0 60.008 5.692 68.698 14 73.042V100.954L22 97.754V114C22 119.514 26.486 124 32 124H92C97.514 124 102 119.514 102 114V64H118C121.308 64 124 61.308 124 58V30C124 26.692 121.308 24 118 24ZM26 10C26 6.692 28.692 4 32 4H92C95.308 4 98 6.692 98 10V24H94V20C94 17.794 92.206 16 90 16H34C31.794 16 30 17.794 30 20V24.34C28.692 24.138 27.364 24 26 24V10ZM82 64H90V104H34V99.354L38 100.954V73.042C46.308 68.698 52 60.008 52 50C52 38.456 44.432 28.656 34 25.272V20H90V24H82C78.692 24 76 26.692 76 30V58C76 61.308 78.692 64 82 64ZM100 48C96.692 48 94 45.308 94 42C94 38.692 96.692 36 100 36C103.308 36 106 38.692 106 42C106 45.308 103.308 48 100 48ZM98 52H102C106.828 52 110.868 55.442 111.798 60H88.202C89.132 55.442 93.172 52 98 52ZM4 50C4 37.87 13.87 28 26 28C38.13 28 48 37.87 48 50C48 62.13 38.13 72 26 72C13.87 72 4 62.13 4 50ZM18 74.728C20.522 75.546 23.208 76 26 76C28.792 76 31.478 75.546 34 74.728V95.046L26 91.846L18 95.046V74.728ZM98 114C98 117.308 95.308 120 92 120H32C28.692 120 26 117.308 26 114V96.154L30 97.754V104C30 106.206 31.794 108 34 108H90C92.206 108 94 106.206 94 104V64H98V114ZM120 58C120 59.102 119.102 60 118 60H115.84C115.116 54.972 111.72 50.804 107.134 48.988C108.902 47.184 110 44.72 110 42C110 36.486 105.514 32 100 32C94.486 32 90 36.486 90 42C90 44.72 91.098 47.184 92.866 48.988C88.28 50.804 84.884 54.972 84.16 60H82C80.898 60 80 59.102 80 58V30C80 28.898 80.898 28 82 28H118C119.102 28 120 28.898 120 30V58Z" fill="#0E0806" />
  <path d="M82.336 93.2C81.378 91.006 80.064 88 77.006 88C73.95 88 72.636 91.004 71.676 93.198C71.31 94.038 70.452 96 70.012 96C69.568 96 68.708 94.036 68.342 93.198C67.38 91.004 66.064 88 63.006 88C59.948 88 58.632 91.004 57.672 93.198C57.304 94.036 56.444 96 56 96H55.934C55.668 91.604 54.358 82 48 82C42.094 82 40 91.696 40 100H44C44 91.326 46.33 86 48 86C50.602 86 51.994 92.97 52 98L52.002 100H56C59.058 100 60.374 96.996 61.334 94.802C61.702 93.964 62.562 92 63.006 92C63.45 92 64.31 93.964 64.676 94.802C65.638 96.996 66.954 100 70.012 100C73.07 100 74.384 96.996 75.344 94.8C75.71 93.962 76.568 92 77.008 92C77.448 92 78.306 93.962 78.672 94.802C79.63 96.996 80.944 100 84 100H86V96H84C83.56 96 82.704 94.038 82.336 93.2Z" fill="#0E0806" />
  <path d="M56 24H72V28H56V24Z" fill="#0E0806" />
  <path d="M56 32H72V36H56V32Z" fill="#0E0806" />
  <path d="M56 40H72V44H56V40Z" fill="#0E0806" />
  <path d="M56 48H72V52H56V48Z" fill="#0E0806" />
  <path d="M56 56H72V60H56V56Z" fill="#0E0806" />
  <path d="M56 64H72V68H56V64Z" fill="#0E0806" />
  <path d="M56 72H86V76H56V72Z" fill="#0E0806" />
  <path d="M82 80H86V84H82V80Z" fill="#0E0806" />
  <path d="M56 80H78V84H56V80Z" fill="#0E0806" />
</svg>