<svg width="128" height="128" viewBox="0 0 128 128" fill="none" xmlns="http://www.w3.org/2000/svg">
  <g clip-path="url(#clip0_75_5192)">
    <path d="M98.1337 125.867C113.45 125.867 125.867 113.45 125.867 98.1333C125.867 82.8166 113.45 70.4 98.1337 70.4C82.817 70.4 70.4004 82.8166 70.4004 98.1333C70.4004 113.45 82.817 125.867 98.1337 125.867Z" fill="#FFDC00" />
    <path d="M94.9933 70.5899C108.943 72.2644 119.436 84.1059 119.421 98.1556C119.406 112.205 108.887 124.024 94.9336 125.668C105.552 126.944 115.957 122.001 121.676 112.965C127.396 103.928 127.41 92.4081 121.712 83.3578C116.014 74.3075 105.621 69.3395 94.9997 70.5899H94.9933Z" fill="#FEC108" />
    <path d="M104.534 8.53333V27.7333H2.13379V8.53333C2.13379 4.99871 4.99917 2.13333 8.53379 2.13333H98.1338C101.668 2.13333 104.534 4.99871 104.534 8.53333Z" fill="#02A9F4" />
    <path d="M98.1334 2.13333H91.7334C95.268 2.13333 98.1334 4.99871 98.1334 8.53333V27.7333H104.533V8.53333C104.533 4.99871 101.668 2.13333 98.1334 2.13333Z" fill="#0377BC" />
    <path d="M104.534 27.7333V71.1467C92.5665 68.3015 80.1556 73.683 74.0532 84.3634C67.9507 95.0439 69.6166 108.468 78.1445 117.333H8.53379C4.99917 117.333 2.13379 114.468 2.13379 110.933V27.7333H104.534Z" fill="#F5F5F5" />
    <path d="M94.9931 70.5899C87.1258 69.6649 79.2382 72.146 73.317 77.4081C67.3959 82.6702 64.0055 90.2118 64.0001 98.1333C63.985 105.297 66.763 112.185 71.7441 117.333H78.1441C70.831 109.735 68.4656 98.6441 72.0425 88.7235C75.6194 78.8028 84.5182 71.773 94.9974 70.5899H94.9931Z" fill="#CFD8DC" />
    <path d="M98.1338 27.7333V70.4C100.289 70.3974 102.437 70.648 104.534 71.1467V27.7333H98.1338Z" fill="#CFD8DC" />
    <path d="M14.9337 19.2C17.2901 19.2 19.2003 17.2898 19.2003 14.9333C19.2003 12.5769 17.2901 10.6667 14.9337 10.6667C12.5772 10.6667 10.667 12.5769 10.667 14.9333C10.667 17.2898 12.5772 19.2 14.9337 19.2Z" fill="#E91E63" />
    <path d="M32.0001 19.2C34.3565 19.2 36.2667 17.2898 36.2667 14.9333C36.2667 12.5769 34.3565 10.6667 32.0001 10.6667C29.6437 10.6667 27.7334 12.5769 27.7334 14.9333C27.7334 17.2898 29.6437 19.2 32.0001 19.2Z" fill="#FFDC00" />
    <path d="M91.7338 10.6667H70.4005C68.044 10.6667 66.1338 12.5769 66.1338 14.9333C66.1338 17.2898 68.044 19.2 70.4005 19.2H91.7338C94.0902 19.2 96.0005 17.2898 96.0005 14.9333C96.0005 12.5769 94.0902 10.6667 91.7338 10.6667Z" fill="#3F51B5" />
    <path d="M32.0003 66.1333H14.9337C12.5772 66.1333 10.667 68.0436 10.667 70.4V83.2C10.667 85.5564 12.5772 87.4667 14.9337 87.4667H32.0003C34.3567 87.4667 36.267 85.5564 36.267 83.2V70.4C36.267 68.0436 34.3567 66.1333 32.0003 66.1333Z" fill="#02A9F4" />
    <path d="M31.9996 66.1333H25.5996C27.956 66.1333 29.8663 68.0436 29.8663 70.4V83.2C29.8663 85.5564 27.956 87.4667 25.5996 87.4667H31.9996C34.356 87.4667 36.2663 85.5564 36.2663 83.2V70.4C36.2663 68.0436 34.356 66.1333 31.9996 66.1333Z" fill="#0377BC" />
    <path d="M87.4664 98.1333C91.001 98.1333 93.8664 95.268 93.8664 91.7333C93.8664 88.1987 91.001 85.3333 87.4664 85.3333C83.9318 85.3333 81.0664 88.1987 81.0664 91.7333C81.0664 95.268 83.9318 98.1333 87.4664 98.1333Z" fill="#F5F5F5" />
    <path d="M108.8 98.1333C112.335 98.1333 115.2 95.268 115.2 91.7333C115.2 88.1987 112.335 85.3333 108.8 85.3333C105.266 85.3333 102.4 88.1987 102.4 91.7333C102.4 95.268 105.266 98.1333 108.8 98.1333Z" fill="#F5F5F5" />
    <path d="M91.7329 106.667H104.533C105.711 106.667 106.666 107.622 106.666 108.8C106.666 113.513 102.846 117.333 98.1329 117.333C93.4201 117.333 89.5996 113.513 89.5996 108.8C89.5996 107.622 90.5547 106.667 91.7329 106.667Z" fill="#EF314C" />
    <path d="M106.667 69.5253V8.53333C106.667 3.8205 102.846 0 98.1333 0H8.53333C3.8205 0 0 3.8205 0 8.53333V110.933C0 115.646 3.8205 119.467 8.53333 119.467H77.2715C86.1399 128.147 99.4536 130.434 110.711 125.213C121.968 119.991 128.82 108.349 127.922 95.9722C127.023 83.5955 118.56 73.0658 106.667 69.5253ZM8.53333 4.26667H98.1333C100.49 4.26667 102.4 6.17692 102.4 8.53333V25.6H4.26667V8.53333C4.26667 6.17692 6.17692 4.26667 8.53333 4.26667ZM4.26667 110.933V29.8667H102.4V68.608C90.626 66.8816 78.9532 72.3232 72.7054 82.451C66.4576 92.5789 66.8319 105.452 73.6576 115.2H8.53333C6.17692 115.2 4.26667 113.29 4.26667 110.933ZM98.1333 123.733C83.9948 123.733 72.5333 112.272 72.5333 98.1333C72.5333 83.9948 83.9948 72.5333 98.1333 72.5333C112.272 72.5333 123.733 83.9948 123.733 98.1333C123.718 112.265 112.265 123.718 98.1333 123.733Z" fill="#0E0806" />
    <path d="M14.9332 21.3333C18.4678 21.3333 21.3332 18.468 21.3332 14.9333C21.3332 11.3987 18.4678 8.53334 14.9332 8.53334C11.3986 8.53334 8.5332 11.3987 8.5332 14.9333C8.5332 18.468 11.3986 21.3333 14.9332 21.3333ZM14.9332 12.8C16.1114 12.8 17.0665 13.7551 17.0665 14.9333C17.0665 16.1115 16.1114 17.0667 14.9332 17.0667C13.755 17.0667 12.7999 16.1115 12.7999 14.9333C12.7999 13.7551 13.755 12.8 14.9332 12.8Z" fill="#0E0806" />
    <path d="M31.9996 21.3333C35.5342 21.3333 38.3996 18.468 38.3996 14.9333C38.3996 11.3987 35.5342 8.53334 31.9996 8.53334C28.465 8.53334 25.5996 11.3987 25.5996 14.9333C25.5996 18.468 28.465 21.3333 31.9996 21.3333ZM31.9996 12.8C33.1778 12.8 34.1329 13.7551 34.1329 14.9333C34.1329 16.1115 33.1778 17.0667 31.9996 17.0667C30.8214 17.0667 29.8663 16.1115 29.8663 14.9333C29.8663 13.7551 30.8214 12.8 31.9996 12.8Z" fill="#0E0806" />
    <path d="M70.4 21.3333H91.7333C95.268 21.3333 98.1333 18.468 98.1333 14.9333C98.1333 11.3987 95.268 8.53334 91.7333 8.53334H70.4C66.8654 8.53334 64 11.3987 64 14.9333C64 18.468 66.8654 21.3333 70.4 21.3333ZM70.4 12.8H91.7333C92.9115 12.8 93.8667 13.7551 93.8667 14.9333C93.8667 16.1115 92.9115 17.0667 91.7333 17.0667H70.4C69.2218 17.0667 68.2667 16.1115 68.2667 14.9333C68.2667 13.7551 69.2218 12.8 70.4 12.8Z" fill="#0E0806" />
    <path d="M42.6671 57.6C47.38 57.6 51.2005 53.7795 51.2005 49.0667V38.4C51.2005 37.2218 50.2453 36.2667 49.0671 36.2667C47.8889 36.2667 46.9338 37.2218 46.9338 38.4V49.0667C46.9338 51.4231 45.0235 53.3333 42.6671 53.3333C40.3107 53.3333 38.4005 51.4231 38.4005 49.0667V38.4C38.4005 37.2218 37.4453 36.2667 36.2671 36.2667C35.0889 36.2667 34.1338 37.2218 34.1338 38.4V49.0667C34.1338 53.7795 37.9543 57.6 42.6671 57.6Z" fill="#0E0806" />
    <path d="M56.3201 57.1733C56.7728 57.5128 57.3417 57.6586 57.9018 57.5786C58.462 57.4985 58.9673 57.1993 59.3068 56.7467L64.0001 50.4896L68.6935 56.7467C69.1508 57.3564 69.8986 57.6758 70.6553 57.5847C71.412 57.4935 72.0626 57.0056 72.362 56.3047C72.6614 55.6038 72.5641 54.7964 72.1068 54.1867L66.6668 46.9333L72.1068 39.68C72.8137 38.7374 72.6227 37.4003 71.6801 36.6933C70.7376 35.9864 69.4004 36.1774 68.6935 37.12L64.0001 43.3771L59.3068 37.12C58.8495 36.5103 58.1017 36.1908 57.345 36.282C56.5883 36.3731 55.9377 36.8611 55.6383 37.562C55.3389 38.2629 55.4362 39.0703 55.8935 39.68L61.3335 46.9333L55.8935 54.1867C55.554 54.6393 55.4082 55.2083 55.4883 55.7684C55.5683 56.3285 55.8675 56.8339 56.3201 57.1733Z" fill="#0E0806" />
    <path d="M14.9332 89.6H31.9999C35.5345 89.6 38.3999 86.7346 38.3999 83.2V70.4C38.3999 66.8654 35.5345 64 31.9999 64H14.9332C11.3986 64 8.5332 66.8654 8.5332 70.4V83.2C8.5332 86.7346 11.3986 89.6 14.9332 89.6ZM12.7999 83.2V70.6859L30.37 85.3333H14.9332C13.755 85.3333 12.7999 84.3782 12.7999 83.2ZM34.1332 70.4V82.9141L16.5631 68.2667H31.9999C33.1781 68.2667 34.1332 69.2218 34.1332 70.4Z" fill="#0E0806" />
    <path d="M42.667 66.1333C42.667 67.3115 43.6221 68.2667 44.8003 68.2667H78.9337C80.1119 68.2667 81.067 67.3115 81.067 66.1333C81.067 64.9551 80.1119 64 78.9337 64H44.8003C43.6221 64 42.667 64.9551 42.667 66.1333Z" fill="#0E0806" />
    <path d="M61.8665 93.8667H10.6665C9.48833 93.8667 8.5332 94.8218 8.5332 96C8.5332 97.1782 9.48833 98.1333 10.6665 98.1333H61.8665C63.0447 98.1333 63.9999 97.1782 63.9999 96C63.9999 94.8218 63.0447 93.8667 61.8665 93.8667Z" fill="#0E0806" />
    <path d="M49.0665 102.4H10.6665C9.48833 102.4 8.5332 103.355 8.5332 104.533C8.5332 105.712 9.48833 106.667 10.6665 106.667H49.0665C50.2447 106.667 51.1999 105.712 51.1999 104.533C51.1999 103.355 50.2447 102.4 49.0665 102.4Z" fill="#0E0806" />
    <path d="M68.267 74.6667H44.8003C43.6221 74.6667 42.667 75.6218 42.667 76.8C42.667 77.9782 43.6221 78.9333 44.8003 78.9333H68.267C69.4452 78.9333 70.4003 77.9782 70.4003 76.8C70.4003 75.6218 69.4452 74.6667 68.267 74.6667Z" fill="#0E0806" />
    <path d="M64.0003 85.3333H44.8003C43.6221 85.3333 42.667 86.2885 42.667 87.4667C42.667 88.6449 43.6221 89.6 44.8003 89.6H64.0003C65.1785 89.6 66.1337 88.6449 66.1337 87.4667C66.1337 86.2885 65.1785 85.3333 64.0003 85.3333Z" fill="#0E0806" />
    <path d="M96.0003 91.7333C96.0003 87.0205 92.1798 83.2 87.4669 83.2C82.7541 83.2 78.9336 87.0205 78.9336 91.7333C78.9336 96.4462 82.7541 100.267 87.4669 100.267C92.1798 100.267 96.0003 96.4462 96.0003 91.7333ZM83.2003 91.7333C83.1899 89.6601 84.6713 87.8794 86.7119 87.5126C88.7525 87.1457 90.7614 88.2988 91.4738 90.2459C92.1861 92.1929 91.3958 94.3703 89.6003 95.4069V93.8667C89.6003 92.6885 88.6451 91.7333 87.4669 91.7333C86.2887 91.7333 85.3336 92.6885 85.3336 93.8667V95.4069C84.0179 94.6509 83.2048 93.2508 83.2003 91.7333Z" fill="#0E0806" />
    <path d="M108.8 83.2C104.087 83.2 100.267 87.0205 100.267 91.7333C100.267 96.4462 104.087 100.267 108.8 100.267C113.513 100.267 117.333 96.4462 117.333 91.7333C117.333 87.0205 113.513 83.2 108.8 83.2ZM110.933 95.4069V93.8667C110.933 92.6885 109.978 91.7333 108.8 91.7333C107.622 91.7333 106.667 92.6885 106.667 93.8667V95.4069C104.994 94.4414 104.179 92.4729 104.679 90.6076C105.178 88.7423 106.869 87.4452 108.8 87.4452C110.731 87.4452 112.421 88.7423 112.921 90.6076C113.421 92.4729 112.606 94.4414 110.933 95.4069Z" fill="#0E0806" />
    <path d="M104.533 104.533H91.7335C89.377 104.533 87.4668 106.444 87.4668 108.8C87.4668 114.691 92.2424 119.467 98.1335 119.467C104.025 119.467 108.8 114.691 108.8 108.8C108.8 107.668 108.351 106.583 107.55 105.783C106.75 104.983 105.665 104.533 104.533 104.533ZM98.1335 115.2C94.5988 115.2 91.7335 112.335 91.7335 108.8H104.533C104.533 112.335 101.668 115.2 98.1335 115.2Z" fill="#0E0806" />
  </g>
  <defs>
    <clipPath id="clip0_75_5192">
      <rect width="128" height="128" fill="white" />
    </clipPath>
  </defs>
</svg>