<svg width="128" height="128" viewBox="0 0 128 128" fill="none" xmlns="http://www.w3.org/2000/svg">
  <path d="M57.6592 4.50879H115.5C121.023 4.50879 125.5 8.98604 125.5 14.5088V56.5088C125.5 62.0315 121.023 66.5088 115.5 66.5088H107.375V78.6803C107.375 80.462 105.221 81.3545 103.961 80.0945L90.3754 66.5088H57.6592C52.1364 66.5088 47.6592 62.0315 47.6592 56.5088V14.5088C47.6592 8.98604 52.1364 4.50879 57.6592 4.50879Z" fill="#91D9B9" />
  <path d="M70.3412 47.3177H12.5C6.97725 47.3177 2.5 51.795 2.5 57.3177V99.3177C2.5 104.84 6.97725 109.318 12.5 109.318H20.625V121.489C20.625 123.271 22.7792 124.164 24.0392 122.904L37.625 109.318H70.3412C75.864 109.318 80.3412 104.84 80.3412 99.3177V57.3177C80.3412 51.7947 75.864 47.3177 70.3412 47.3177Z" fill="#F6838D" />
  <path d="M115.5 2.00879H97.8295C96.4487 2.00879 95.3295 3.12804 95.3295 4.50879C95.3295 5.88954 96.4487 7.00879 97.8295 7.00879H115.5C119.635 7.00879 123 10.3733 123 14.5088V56.5088C123 60.6443 119.635 64.0088 115.5 64.0088H107.375C105.994 64.0088 104.875 65.1283 104.875 66.5088V77.473L92.1428 64.7408C91.674 64.272 91.0383 64.0085 90.375 64.0085H82.8412V57.3173C82.8412 53.2443 80.8825 49.6208 77.858 47.3373C78.2743 46.996 78.5997 46.541 78.781 46.0075C78.8162 45.9038 78.8447 45.798 78.866 45.6905L82.7783 26.0333C83.0478 24.679 82.1685 23.3628 80.8145 23.0933C79.4603 22.8235 78.144 23.7033 77.8745 25.057L75.5567 36.702L71.8815 24.7723C71.4753 23.4528 70.0762 22.7125 68.7562 23.1193C67.8602 23.3953 67.2327 24.1295 67.0488 24.985L63.4215 36.7038L61.111 25.0233C60.843 23.669 59.5277 22.7888 58.1735 23.0558C56.819 23.3238 55.9383 24.639 56.206 25.9933L59.9292 44.817H50.1585V14.5088C50.1585 10.3733 53.523 7.00879 57.6585 7.00879H75.3292C76.71 7.00879 77.8292 5.88954 77.8292 4.50879C77.8292 3.12804 76.71 2.00879 75.3292 2.00879H57.6585C50.766 2.00879 45.1585 7.61629 45.1585 14.5088V44.8175H12.5C5.6075 44.8175 0 50.425 0 57.3175V99.3175C0 106.21 5.6075 111.818 12.5 111.818H18.125V121.489C18.125 123.316 19.2155 124.948 20.903 125.647C21.463 125.879 22.049 125.992 22.6295 125.992C23.7983 125.992 24.944 125.534 25.807 124.671L38.6605 111.818H70.3412C77.2337 111.818 82.8412 106.21 82.8412 99.3178V69.0088H89.3395L102.193 81.862C103.056 82.7253 104.201 83.1825 105.37 83.1825C105.951 83.1825 106.537 83.0698 107.097 82.8378C108.785 82.1388 109.875 80.507 109.875 78.6803V69.0085H115.5C122.393 69.0085 128 63.401 128 56.5085V14.5085C128 7.61629 122.393 2.00879 115.5 2.00879ZM69.4925 34.0005L72.9068 45.0838C72.0783 44.9103 71.2203 44.8178 70.341 44.8178H66.1442L69.4925 34.0005ZM77.8412 99.3178C77.8412 103.453 74.4767 106.818 70.3412 106.818H37.625C36.962 106.818 36.326 107.081 35.8573 107.55L23.125 120.282V109.318C23.125 107.937 22.0058 106.818 20.625 106.818H12.5C8.3645 106.818 5 103.453 5 99.3178V57.3178C5 53.1823 8.3645 49.8178 12.5 49.8178H70.3412C74.4767 49.8178 77.8412 53.1823 77.8412 57.3178V99.3178Z" fill="#0E0806" />
  <path d="M69.3412 65.8177C67.9604 65.8177 66.8412 66.9372 66.8412 68.3177V80.6298L57.3834 66.9345C56.7617 66.034 55.6272 65.6435 54.5822 65.9685C53.5377 66.2942 52.8262 67.2612 52.8262 68.3552V88.318C52.8262 89.6985 53.9454 90.818 55.3262 90.818C56.7069 90.818 57.8262 89.6985 57.8262 88.318V76.3753L66.7672 89.3223C67.5017 90.3835 68.7272 90.835 69.8889 90.4723C71.0747 90.102 71.8409 88.9917 71.8409 87.644V68.318C71.8412 66.937 70.7219 65.8177 69.3412 65.8177Z" fill="#0E0806" />
  <path d="M45.3262 65.8177C43.9454 65.8177 42.8262 66.9372 42.8262 68.3177V88.3177C42.8262 89.6982 43.9454 90.8177 45.3262 90.8177C46.7069 90.8177 47.8262 89.6982 47.8262 88.3177V68.3177C47.8262 66.937 46.7069 65.8177 45.3262 65.8177Z" fill="#0E0806" />
  <path d="M35.8146 65.9025C34.4599 65.6338 33.1441 66.5123 32.8746 67.8663L30.5569 79.5113L26.8816 67.5815C26.4751 66.2623 25.0764 65.5228 23.7564 65.9285C22.8606 66.2045 22.2331 66.9383 22.0489 67.7938L18.4214 79.513L16.1111 67.8325C15.8431 66.4783 14.5281 65.5968 13.1736 65.8653C11.8191 66.133 10.9384 67.4483 11.2061 68.8028L15.1026 88.5025C15.1264 88.6223 15.1586 88.7395 15.1994 88.8545C15.6174 90.031 16.7331 90.8178 17.9804 90.8178H18.0011C19.2564 90.809 20.3711 90.0045 20.7751 88.8158C20.7824 88.7943 20.7896 88.7725 20.7961 88.7508L24.4924 76.8093L28.1721 88.7535C28.1826 88.7875 28.1936 88.8213 28.2056 88.8545C28.6236 90.031 29.7394 90.8178 30.9866 90.8178H31.0069C32.2621 90.8093 33.3769 90.005 33.7811 88.8165C33.8164 88.7128 33.8446 88.607 33.8661 88.4995L37.7784 68.8423C38.0479 67.488 37.1686 66.172 35.8146 65.9025Z" fill="#0E0806" />
  <path d="M102.826 45.5088V33.5658L111.768 46.5133C112.502 47.5745 113.728 48.0255 114.889 47.663C116.075 47.2928 116.841 46.1825 116.841 44.835V25.509C116.841 24.1283 115.722 23.009 114.341 23.009C112.96 23.009 111.841 24.1283 111.841 25.509V37.821L102.383 24.1258C101.762 23.2255 100.627 22.834 99.5822 23.1598C98.5377 23.4853 97.8262 24.4523 97.8262 25.5465V45.5093C97.8262 46.89 98.9454 48.0093 100.326 48.0093C101.707 48.0093 102.826 46.8895 102.826 45.5088Z" fill="#0E0806" />
  <path d="M87.8262 25.5088V45.5088C87.8262 46.8895 88.9454 48.0088 90.3262 48.0088C91.7069 48.0088 92.8262 46.8895 92.8262 45.5088V25.5088C92.8262 24.128 91.7069 23.0088 90.3262 23.0088C88.9454 23.0088 87.8262 24.128 87.8262 25.5088Z" fill="#0E0806" />
  <path d="M86.5801 7.00854C87.2376 7.00854 87.8826 6.74104 88.3476 6.27604C88.8126 5.81104 89.0801 5.16855 89.0801 4.50854C89.0801 3.85104 88.8126 3.20604 88.3476 2.74104C87.8826 2.27604 87.2376 2.00854 86.5801 2.00854C85.9201 2.00854 85.2776 2.27604 84.8126 2.74104C84.3476 3.20604 84.0801 3.85104 84.0801 4.50854C84.0801 5.16604 84.3476 5.81104 84.8126 6.27604C85.2776 6.74104 85.9226 7.00854 86.5801 7.00854Z" fill="#0E0806" />
</svg>