<svg width="128" height="128" viewBox="0 0 128 128" fill="none" xmlns="http://www.w3.org/2000/svg">
  <path d="M44 124H12V114L24 102L20 96L30 94L28.16 86.62C31.76 84.94 35.78 84 40 84C47.64 87.06 53.6 92.86 56.98 100C58.92 104.14 60 108.76 60 113.54V124H44Z" fill="#FF826E" />
  <path d="M28.16 86.62L30 94L20 96L24 102L12 114V112C12 104.28 15.14 97.28 20.2 92.2C22.46 89.96 25.1 88.08 28 86.7C28.06 86.68 28.1 86.64 28.16 86.62Z" fill="#FC6E51" />
  <path d="M116 88H124V104H116V88Z" fill="#FF826E" />
  <path d="M116 88V104H108V100V88H116Z" fill="#FCD770" />
  <path d="M124 86V88H116H108V86C108 81.58 111.58 78 116 78C118.2 78 120.2 78.9 121.66 80.34C123.1 81.8 124 83.8 124 86Z" fill="#AAB2BD" />
  <path d="M116 104H108V105.06C108 105.68 108.14 106.3 108.42 106.84L111 112L116 122L121 112L123.58 106.84C123.86 106.28 124 105.68 124 105.06V104H116Z" fill="#AAB2BD" />
  <path d="M92 80V82C92 83.66 91.32 85.16 90.24 86.24C89.16 87.32 87.66 88 86 88C82.68 88 80 85.32 80 82V80H82H90H92Z" fill="#CCD1D9" />
  <path d="M98 63.42C98 64.94 97.84 66.44 97.5 67.9C96.66 71.72 94.74 75.26 91.94 78.06L90 80H82L80.06 78.06C78.12 76.12 76.6 73.84 75.58 71.34C75.12 70.22 74.74 69.06 74.48 67.88C74.16 66.42 74 64.92 74 63.42C74 62.26 74.1 61.12 74.28 60C74.72 57.14 75.74 54.42 77.24 52H94.76C96.84 55.38 98 59.32 98 63.42Z" fill="#E6E9ED" />
  <path d="M97.52 67.9L103.36 75.18C103.78 75.72 104 76.36 104 77.04C104 78.68 102.68 80 101.04 80H92H90L91.94 78.06C94.74 75.26 96.66 71.72 97.5 67.9H97.52Z" fill="#FF826E" />
  <path d="M80.06 78.06L82 80H80H70.96C69.32 80 68 78.68 68 77.04C68 76.36 68.22 75.72 68.64 75.18L74.48 67.88C74.74 69.06 75.12 70.22 75.58 71.34C76.6 73.84 78.12 76.12 80.06 78.06Z" fill="#FF826E" />
  <path d="M94.7602 52H77.2402C79.3202 48.64 82.3202 45.84 86.0002 44C89.6802 45.84 92.6802 48.64 94.7602 52Z" fill="#FF826E" />
  <path d="M108 44C108 45.1 107.56 46.1 106.82 46.82C106.1 47.56 105.1 48 104 48C101.8 48 100 46.2 100 44V40H104H108V44Z" fill="#AAB2BD" />
  <path d="M104 40H100L96.8 37.6C95.28 36.48 94.08 35.02 93.26 33.36C92.44 31.72 92 29.88 92 28C92 25.4 92.84 22.88 94.4 20.8C95.52 19.28 96.98 18.08 98.64 17.26C100.28 16.44 102.12 16 104 16C105.88 16 107.72 16.44 109.36 17.26C111.02 18.08 112.48 19.28 113.6 20.8C115.16 22.88 116 25.4 116 28C116 31.78 114.22 35.34 111.2 37.6L108 40H104Z" fill="#FFEAA7" />
  <path d="M104 32C106.209 32 108 30.2091 108 28C108 25.7909 106.209 24 104 24C101.791 24 100 25.7909 100 28C100 30.2091 101.791 32 104 32Z" fill="#FCD770" />
  <path d="M86 68C88.2091 68 90 66.2091 90 64C90 61.7909 88.2091 60 86 60C83.7909 60 82 61.7909 82 64C82 66.2091 83.7909 68 86 68Z" fill="#69D6F4" />
  <path d="M14 28C12.34 28 10.84 27.32 9.76 26.24C8.68 25.16 8 23.66 8 22C8 18.68 10.68 16 14 16H36C41.2 16 46.24 17.68 50.4 20.8C54.24 23.68 57.06 27.6 58.62 32C59.52 34.54 60 37.24 60 40V43.64C60 49.44 58.6 55.02 56.08 60C52.64 66.8 47.08 72.48 40 76V64H42C43.66 64 45.16 63.32 46.24 62.24C47.32 61.16 48 59.66 48 58C48 54.68 45.32 52 42 52H40C40 47.58 36.42 44 32 44H16H12C9.8 44 7.8 43.1 6.34 41.66C4.9 40.2 4 38.2 4 36C4 31.58 7.58 28 12 28H14Z" fill="#656D78" />
  <path d="M40 64V76V84C35.78 84 31.76 84.94 28.16 86.62C28.1 86.64 28.06 86.68 28 86.7V75.5V75.48C26.82 75.82 25.58 76 24.34 76H19C17.34 76 16 74.66 16 73V66V60H14.82C13.26 60 12 58.74 12 57.18C12 56.42 12.3 55.7 12.82 55.18L13.66 54.34C15.16 52.84 16 50.8 16 48.68V44H32C36.42 44 40 47.58 40 52H42C45.32 52 48 54.68 48 58C48 59.66 47.32 61.16 46.24 62.24C45.16 63.32 43.66 64 42 64H40Z" fill="#F0D0B4" />
  <path d="M104 50C107.308 50 110 47.308 110 44V41L112.4 39.2C115.906 36.57 118 32.384 118 28C118 24.99 117.006 22.006 115.2 19.6C112.57 16.094 108.384 14 104 14C99.616 14 95.43 16.094 92.8 19.6C90.994 22.006 90 24.99 90 28C90 32.384 92.094 36.57 95.6 39.2L98 41V44C98 47.308 100.692 50 104 50ZM104 46C102.898 46 102 45.102 102 44V42H106V44C106 45.102 105.102 46 104 46ZM102 28C102 26.898 102.898 26 104 26C105.102 26 106 26.898 106 28C106 29.102 105.102 30 104 30C102.898 30 102 29.102 102 28ZM94 28C94 25.85 94.71 23.718 96 22C97.878 19.496 100.868 18 104 18C107.132 18 110.122 19.496 112 22C113.29 23.718 114 25.85 114 28C114 31.13 112.504 34.122 110 36L107.334 38H106V33.632C108.322 32.804 110 30.604 110 28C110 24.692 107.308 22 104 22C100.692 22 98 24.692 98 28C98 30.604 99.678 32.804 102 33.632V38H100.668L98 36C95.496 34.122 94 31.13 94 28Z" fill="#0E0806" />
  <path d="M102 2H106V10H102V2Z" fill="#0E0806" />
  <path d="M86.5752 7.42371L89.4116 4.60329L95.3951 10.6208L92.5587 13.4412L86.5752 7.42371Z" fill="#0E0806" />
  <path d="M112.579 10.6129L118.563 4.59546L121.399 7.41587L115.416 13.4333L112.579 10.6129Z" fill="#0E0806" />
  <path d="M30 52C30 53.102 29.102 54 28 54C26.898 54 26 53.102 26 52V50H22V52C22 55.308 24.692 58 28 58C31.308 58 34 55.308 34 52V50H30V52Z" fill="#0E0806" />
  <path d="M86 70C89.308 70 92 67.308 92 64C92 60.692 89.308 58 86 58C82.692 58 80 60.692 80 64C80 67.308 82.692 70 86 70ZM86 62C87.102 62 88 62.898 88 64C88 65.102 87.102 66 86 66C84.898 66 84 65.102 84 64C84 62.898 84.898 62 86 62Z" fill="#0E0806" />
  <path d="M106 77.04C106 75.918 105.614 74.818 104.914 73.94L99.644 67.352C99.868 66.064 100.002 64.752 100.002 63.416C100.002 54.378 94.98 46.252 86.896 42.21L86 41.764L85.106 42.212C78.68 45.424 74.2 51.22 72.628 58H59.206C61.012 53.528 62 48.676 62 43.64V40C62 37.964 61.756 35.95 61.29 34H78V30H59.94C58.17 25.772 55.336 22.002 51.6 19.2C47.128 15.846 41.588 14 36 14H14C9.588 14 6 17.588 6 22C6 23.886 6.684 25.598 7.78 26.968C4.376 28.566 2 32 2 36C2 41.514 6.486 46 12 46H14V48.686C14 50.266 13.36 51.812 12.244 52.928L11.414 53.758C10.502 54.67 10 55.882 10 57.172C10 59.552 11.73 61.536 14 61.928V73C14 75.756 16.244 78 19 78H24.342C24.9 78 25.452 77.966 26 77.91V85.508C16.502 90.55 10 100.518 10 112V126H62V113.542C62 109.516 61.288 105.626 59.98 102H78V98H58.23C54.788 91.326 49.16 85.872 42 82.674V77.186C48.606 73.612 53.858 68.32 57.318 61.998H72.048C72.022 62.47 72 62.94 72 63.416C72 64.75 72.134 66.062 72.358 67.352L67.086 73.94C66.386 74.816 66 75.916 66 77.04C66 79.776 68.226 82 70.96 82H78C78 86.412 81.588 90 86 90C90.412 90 94 86.412 94 82H101.04C103.774 82 106 79.774 106 77.04ZM30 76.936C32.004 76.16 33.848 74.978 35.414 73.414L32.586 70.586C30.384 72.788 27.458 74 24.342 74H19C18.448 74 18 73.552 18 73V68H22C25.308 68 28 65.308 28 62H24C24 63.102 23.102 64 22 64H18V58H14.828C14.372 58 14 57.628 14 57.172C14 56.954 14.088 56.74 14.242 56.586L15.072 55.756C16.96 53.868 18 51.358 18 48.686V46H32C35.308 46 38 48.692 38 52V54H42C44.206 54 46 55.794 46 58C46 60.206 44.206 62 42 62H38V82.066C35.21 82.25 32.532 82.834 30 83.732V76.936ZM27.55 92.45L21.622 93.636C23.176 92.08 24.934 90.734 26.84 89.61L27.55 92.45ZM21.426 101.746L14.19 108.98C14.686 104.716 16.21 100.766 18.518 97.384L21.426 101.746ZM58 113.542V122H46V98H42V122H14V114.828L26.574 102.254L23.322 97.374L32.45 95.548L30.518 87.82C33.348 86.706 36.406 86.048 39.616 86.002C50.798 90.64 58 101.408 58 113.542ZM42 72.564V66C46.412 66 50 62.412 50 58C50 53.588 46.412 50 42 50H41.798C40.87 45.442 36.828 42 32 42H12C8.692 42 6 39.308 6 36C6 32.692 8.692 30 12 30H18V26H14C11.794 26 10 24.206 10 22C10 19.794 11.794 18 14 18H36C40.728 18 45.416 19.562 49.2 22.4C54.71 26.532 58 33.112 58 40V43.64C58 55.55 51.938 66.344 42 72.564ZM101.79 76.438C101.924 76.608 102 76.822 102 77.04C102 77.57 101.57 78 101.04 78H94.692C96.204 76.2 97.42 74.208 98.3 72.072L101.79 76.438ZM86 46.264C87.786 47.272 89.344 48.55 90.7 50H81.3C82.656 48.55 84.214 47.272 86 46.264ZM78.408 54H93.592C95.13 56.83 96 60.04 96 63.416C96 68.416 94.052 73.12 90.516 76.656L89.172 78H82.828L81.484 76.656C77.948 73.12 76 68.416 76 63.416C76 60.04 76.87 56.83 78.408 54ZM70 77.04C70 76.822 70.076 76.608 70.21 76.44L73.702 72.074C74.582 74.208 75.796 76.202 77.308 78H70.96C70.43 78 70 77.57 70 77.04ZM86 86C83.794 86 82 84.206 82 82H90C90 84.206 88.206 86 86 86Z" fill="#0E0806" />
  <path d="M116 76C110.486 76 106 80.486 106 86V98H98V102H106V105.056C106 105.984 106.218 106.912 106.632 107.74L116 126.472L125.368 107.74C125.782 106.91 126 105.982 126 105.056V86C126 80.486 121.514 76 116 76ZM116 80C119.308 80 122 82.692 122 86H110C110 82.692 112.692 80 116 80ZM110.236 106H121.766L119.766 110H112.236L110.236 106ZM110 102V90H114V102H110ZM118 102V90H122V102H118ZM114.236 114H117.764L116 117.528L114.236 114Z" fill="#0E0806" />
  <path d="M82 30H86V34H82V30Z" fill="#0E0806" />
  <path d="M82 98H86V102H82V98Z" fill="#0E0806" />
  <path d="M90 98H94V102H90V98Z" fill="#0E0806" />
</svg>