<svg width="128" height="128" viewBox="0 0 128 128" fill="none" xmlns="http://www.w3.org/2000/svg">
  <g clip-path="url(#clip0_75_5172)">
    <path d="M63.9998 119.429C92.2768 119.429 115.2 96.5058 115.2 68.2288C115.2 39.9518 92.2768 17.0288 63.9998 17.0288C35.7228 17.0288 12.7998 39.9518 12.7998 68.2288C12.7998 96.5058 35.7228 119.429 63.9998 119.429Z" fill="#92B1F9" />
    <path d="M64.0001 2.09546L45.5254 34.0955H82.4747L64.0001 2.09546Z" fill="#FED966" />
    <path d="M91.7334 91.6954H125.867V125.829H91.7334V91.6954Z" fill="#4BA678" />
    <path d="M19.2005 125.829C28.6261 125.829 36.2671 118.188 36.2671 108.762C36.2671 99.3364 28.6261 91.6954 19.2005 91.6954C9.7748 91.6954 2.13379 99.3364 2.13379 108.762C2.13379 118.188 9.7748 125.829 19.2005 125.829Z" fill="#F73445" />
    <path d="M65.8477 1.02882C65.1693 0.0082901 63.7922 -0.26931 62.7714 0.40909C62.5258 0.57229 62.3152 0.782957 62.1517 1.02882L43.6768 33.0288C43.0877 34.0491 43.4373 35.3539 44.4576 35.943C44.7821 36.1302 45.1501 36.2288 45.5245 36.2288H82.4746C83.6528 36.2291 84.6082 35.2742 84.6082 34.0958C84.6082 33.7211 84.5098 33.3531 84.3224 33.0288L65.8477 1.02882ZM49.2194 31.9622L63.9997 6.36216L78.78 31.9622H49.2194Z" fill="#0E0806" />
    <path d="M125.866 89.5621H91.7329C90.5551 89.5619 89.5999 90.5165 89.5996 91.6944V91.6955V125.829C89.5993 127.007 90.554 127.962 91.7319 127.962H91.7329H125.866C127.044 127.962 127.999 127.008 128 125.83V125.829V91.6955C128 90.5176 127.045 89.5624 125.867 89.5621H125.866ZM123.733 123.695H93.8663V93.8288H123.733V123.695Z" fill="#0E0806" />
    <path d="M19.2 89.5621C8.596 89.5621 0 98.1584 0 108.762C0 119.366 8.596 127.962 19.2 127.962C29.804 127.962 38.4 119.366 38.4 108.762C38.388 98.1632 29.7989 89.5741 19.2 89.5621ZM19.2 123.695C10.9525 123.695 4.26667 117.01 4.26667 108.762C4.26667 100.515 10.9525 93.8288 19.2 93.8288C27.4475 93.8288 34.1333 100.515 34.1333 108.762C34.1237 117.006 27.4435 123.686 19.2 123.695Z" fill="#0E0806" />
    <path d="M43.5559 23.6102L41.7767 19.731C16.7001 31.2504 4.53054 59.9787 13.7017 86.0059L17.7247 84.5851C9.28868 60.639 20.4855 34.2091 43.5559 23.6102Z" fill="#0E0806" />
    <path d="M64.0001 117.295C57.2409 117.31 50.5526 115.918 44.3606 113.208L42.6523 117.116C55.8017 122.84 70.6985 123.045 84.0003 117.685L82.4003 113.731C76.5545 116.096 70.3059 117.306 64.0001 117.295Z" fill="#0E0806" />
    <path d="M113.067 68.2288C113.071 73.0781 112.356 77.9013 110.947 82.5413L115.028 83.783C122.343 59.7 111.85 33.7781 89.8426 21.5651L89.8431 21.5643C89.3807 21.308 88.913 21.056 88.4421 20.8141L86.4922 24.6099C86.9213 24.8307 87.3466 25.0584 87.7682 25.2931L88.8058 23.4285L87.7703 25.2931C103.373 33.9501 113.056 50.3853 113.067 68.2288Z" fill="#0E0806" />
  </g>
  <defs>
    <clipPath id="clip0_75_5172">
      <rect width="128" height="128" fill="white" />
    </clipPath>
  </defs>
</svg>