<svg width="41" height="41" viewBox="0 0 41 41" fill="none" xmlns="http://www.w3.org/2000/svg">
  <g clip-path="url(#clip0_704_30902)">
    <path d="M1.75 25.418C2.08152 25.418 2.39946 25.5497 2.63388 25.7841C2.8683 26.0185 3 26.3364 3 26.668V32.918C3 33.581 3.26339 34.2169 3.73223 34.6857C4.20107 35.1546 4.83696 35.418 5.5 35.418H35.5C36.163 35.418 36.7989 35.1546 37.2678 34.6857C37.7366 34.2169 38 33.581 38 32.918V26.668C38 26.3364 38.1317 26.0185 38.3661 25.7841C38.6005 25.5497 38.9185 25.418 39.25 25.418C39.5815 25.418 39.8995 25.5497 40.1339 25.7841C40.3683 26.0185 40.5 26.3364 40.5 26.668V32.918C40.5 34.2441 39.9732 35.5158 39.0355 36.4535C38.0979 37.3912 36.8261 37.918 35.5 37.918H5.5C4.17392 37.918 2.90215 37.3912 1.96447 36.4535C1.02678 35.5158 0.5 34.2441 0.5 32.918V26.668C0.5 26.3364 0.631696 26.0185 0.866117 25.7841C1.10054 25.5497 1.41848 25.418 1.75 25.418Z" fill="#E05704" />
    <path d="M19.6127 30.303C19.7288 30.4194 19.8667 30.5117 20.0186 30.5747C20.1705 30.6378 20.3333 30.6702 20.4977 30.6702C20.6621 30.6702 20.8249 30.6378 20.9768 30.5747C21.1286 30.5117 21.2666 30.4194 21.3827 30.303L28.8827 22.803C29.1174 22.5683 29.2493 22.2499 29.2493 21.918C29.2493 21.586 29.1174 21.2677 28.8827 21.033C28.648 20.7983 28.3296 20.6664 27.9977 20.6664C27.6657 20.6664 27.3474 20.7983 27.1127 21.033L21.7477 26.4005V4.41797C21.7477 4.08645 21.616 3.76851 21.3816 3.53409C21.1471 3.29966 20.8292 3.16797 20.4977 3.16797C20.1662 3.16797 19.8482 3.29966 19.6138 3.53409C19.3794 3.76851 19.2477 4.08645 19.2477 4.41797V26.4005L13.8827 21.033C13.648 20.7983 13.3296 20.6664 12.9977 20.6664C12.6657 20.6664 12.3474 20.7983 12.1127 21.033C11.878 21.2677 11.7461 21.586 11.7461 21.918C11.7461 22.2499 11.878 22.5683 12.1127 22.803L19.6127 30.303Z" fill="#E05704" />
  </g>
  <defs>
    <clipPath id="clip0_704_30902">
      <rect width="40" height="40" fill="white" transform="translate(0.5 0.667969)" />
    </clipPath>
  </defs>
</svg>