<svg width="32" height="32" viewBox="0 0 32 32" fill="none" xmlns="http://www.w3.org/2000/svg">
  <path fill-rule="evenodd" clip-rule="evenodd" d="M11.1429 2C10.6411 2 10.176 2.26328 9.91787 2.69358L6.90544 7.71429H3.71429C2.72919 7.71429 1.78445 8.10562 1.08789 8.80217C0.391326 9.49874 0 10.4435 0 11.4286V26.2857C0 27.2709 0.391326 28.2155 1.08789 28.912C1.78445 29.6087 2.72919 30 3.71429 30H28.2857C29.2709 30 30.2155 29.6087 30.912 28.912C31.6087 28.2155 32 27.2709 32 26.2857V11.4286C32 10.4435 31.6087 9.49874 30.912 8.80217C30.2155 8.10562 29.2709 7.71429 28.2857 7.71429H25.0946L22.0821 2.69358C21.824 2.26328 21.3589 2 20.8571 2H11.1429ZM21.7143 17.7857C21.7143 20.9416 19.1559 23.4999 16 23.4999C12.8441 23.4999 10.2857 20.9416 10.2857 17.7857C10.2857 14.6298 12.8441 12.0714 16 12.0714C19.1559 12.0714 21.7143 14.6298 21.7143 17.7857Z" fill="#656D75" />
</svg>