<svg width="100" height="100" viewBox="0 0 100 100" fill="none" xmlns="http://www.w3.org/2000/svg">
  <path d="M1.5625 45.3125H98.4375V51.5625H1.5625V45.3125Z" fill="#70A5F4" />
  <path d="M7.8125 4.6875H60.9375V35.9375H7.8125V4.6875Z" fill="#EDF7FE" />
  <path d="M7.8125 29.6875H60.9375V35.9375H7.8125V29.6875Z" fill="#70A5F4" />
  <path d="M37.5 35.9375H31.25L29.6875 45.3125H39.0625L37.5 35.9375Z" fill="#4B81D1" />
  <path d="M73.4375 10.9375H92.1875V45.3125H73.4375V10.9375Z" fill="#FCBE56" />
  <path d="M85.9375 37.5V45.3125H79.6875V29.6875H85.9375V37.5Z" fill="#D64A49" />
  <path d="M7.8125 51.5625H14.0625V95.3125H7.8125V51.5625Z" fill="#4B81D1" />
  <path d="M85.9375 51.5625H92.1875V95.3125H85.9375V51.5625Z" fill="#4B81D1" />
  <path d="M51.5625 51.5625H85.9375V64.0625H51.5625V51.5625Z" fill="#FCBE56" />
  <path d="M14.0625 51.5625H51.5625V57.8125H14.0625V51.5625Z" fill="#D64A49" />
  <path d="M98.4375 43.75H93.75V10.9375C93.75 10.0731 93.0519 9.375 92.1875 9.375H73.4375C72.5731 9.375 71.875 10.0731 71.875 10.9375V43.75H40.3862L39.344 37.5H60.9375C61.8019 37.5 62.5 36.8019 62.5 35.9375V4.6875C62.5 3.82309 61.8019 3.125 60.9375 3.125H7.8125C6.95038 3.125 6.25 3.82309 6.25 4.6875V35.9375C6.25 36.8019 6.95038 37.5 7.8125 37.5H29.406L28.3638 43.75H1.5625C0.700379 43.75 0 44.4481 0 45.3125V51.5625C0 52.4269 0.700379 53.125 1.5625 53.125H6.25V95.3125C6.25 96.1769 6.95038 96.875 7.8125 96.875H14.0625C14.9246 96.875 15.625 96.1769 15.625 95.3125V87.5H84.375V95.3125C84.375 96.1769 85.0731 96.875 85.9375 96.875H92.1875C93.0519 96.875 93.75 96.1769 93.75 95.3125V53.125H98.4375C99.3019 53.125 100 52.4269 100 51.5625V45.3125C100 44.4481 99.3019 43.75 98.4375 43.75ZM75 12.5H90.625V43.75H87.5V37.5H84.375V43.75H81.25V31.25H84.375V34.375H87.5V29.6875C87.5 28.8231 86.8019 28.125 85.9375 28.125H79.6875C78.8231 28.125 78.125 28.8231 78.125 29.6875V43.75H75V12.5ZM59.375 6.25V28.125H9.375V6.25H59.375ZM9.375 31.25H59.375V34.375H9.375V31.25ZM32.5737 37.5H36.1763L37.2185 43.75H31.5331L32.5737 37.5ZM12.5 93.75H9.375V53.125H12.5V93.75ZM50 53.125V56.25H15.625V53.125H50ZM84.375 53.125V62.5H53.125V53.125H84.375ZM15.625 84.375V59.375H50V64.0625C50 64.9269 50.7004 65.625 51.5625 65.625H84.375V84.375H15.625ZM90.625 93.75H87.5V53.125H90.625V93.75ZM96.875 50H3.125V46.875H96.875V50Z" fill="#0E0806" />
  <path d="M78.125 15.625H87.5V18.75H78.125V15.625Z" fill="#0E0806" />
  <path d="M78.125 21.875H87.5V25H78.125V21.875Z" fill="#0E0806" />
  <path d="M65.625 56.25H71.875V59.375H65.625V56.25Z" fill="#0E0806" />
</svg>