<svg width="100" height="100" viewBox="0 0 100 100" fill="none" xmlns="http://www.w3.org/2000/svg">
  <g clip-path="url(#clip0_75_5630)">
    <path d="M98.3909 31.0639V45.1611H74.1973V41.9353C74.1973 40.1609 72.7459 38.7095 70.9715 38.7095H66.1328V31.0639C66.1328 28.9029 67.5685 27.0159 69.6492 26.419L77.4231 24.1934C77.4231 24.1934 79.036 27.4192 82.2618 27.4192C85.4877 27.4192 87.1006 24.1934 87.1006 24.1934L94.8745 26.419C96.9552 27.0159 98.3909 28.9029 98.3909 31.0639Z" fill="#FCD770" />
    <path d="M66.1253 31.0639V38.7095H33.8672V31.0639C33.8672 28.9029 35.3029 27.0159 37.3836 26.419L45.1575 24.1934C45.1575 24.1934 46.7704 27.4192 49.9962 27.4192C53.222 27.4192 54.8349 24.1934 54.8349 24.1934L62.6088 26.419C64.6895 27.0159 66.1253 28.9029 66.1253 31.0639Z" fill="#FCD770" />
    <path d="M33.8674 31.0639V38.7095H29.0287C27.2544 38.7095 25.8029 40.1609 25.8029 41.9353V45.1611H1.60938V31.0639C1.60938 28.9029 3.04508 27.0159 5.12579 26.419L12.8997 24.1934C12.8997 24.1934 14.5126 27.4192 17.7384 27.4192C20.9642 27.4192 22.5771 24.1934 22.5771 24.1934L30.351 26.419C32.4317 27.0159 33.8674 28.9029 33.8674 31.0639Z" fill="#FCD770" />
    <path d="M87.0915 19.3555V24.1942C87.0915 24.1942 85.4786 27.42 82.2528 27.42C79.027 27.42 77.4141 24.1942 77.4141 24.1942V19.3555C78.7529 20.3714 80.4304 20.9684 82.2528 20.9684C84.0752 20.9684 85.7526 20.3714 87.0915 19.3555Z" fill="#F0D0B4" />
    <path d="M90.3165 9.6778V12.9036C90.3165 15.5324 89.0423 17.8872 87.0907 19.3552C85.7519 20.3712 84.0744 20.9681 82.252 20.9681C80.4296 20.9681 78.7521 20.3712 77.4133 19.3552C75.4618 17.8872 74.1875 15.5324 74.1875 12.9036V9.6778C74.1875 5.22656 77.8008 1.61328 82.252 1.61328C84.4776 1.61328 86.4938 2.5166 87.9618 3.96806C89.4132 5.43605 90.3165 7.45218 90.3165 9.6778Z" fill="#F0D0B4" />
    <path d="M58.0587 9.6778V12.9036C58.0587 15.5324 56.7845 17.8872 54.8329 19.3552C53.4941 20.3712 51.8166 20.9681 49.9942 20.9681C48.1718 20.9681 46.4943 20.3712 45.1555 19.3552C43.2039 17.8872 41.9297 15.5324 41.9297 12.9036V9.6778C41.9297 5.22656 45.543 1.61328 49.9942 1.61328C52.2198 1.61328 54.236 2.5166 55.7039 3.96806C57.1554 5.43605 58.0587 7.45218 58.0587 9.6778Z" fill="#F0D0B4" />
    <path d="M54.8337 19.3555V24.1942C54.8337 24.1942 53.2208 27.42 49.995 27.42C46.7692 27.42 45.1562 24.1942 45.1562 24.1942V19.3555C46.4951 20.3714 48.1726 20.9684 49.995 20.9684C51.8174 20.9684 53.4948 20.3714 54.8337 19.3555Z" fill="#F0D0B4" />
    <path d="M12.8984 24.1942V19.3555C14.2373 20.3714 15.9148 20.9684 17.7371 20.9684C19.5595 20.9684 21.237 20.3714 22.5759 19.3555V24.1942C22.5759 24.1942 20.963 27.42 17.7371 27.42C14.5113 27.42 12.8984 24.1942 12.8984 24.1942Z" fill="#F0D0B4" />
    <path d="M25.8009 9.6778V12.9036C25.8009 15.5324 24.5267 17.8872 22.5751 19.3552C21.2363 20.3712 19.5588 20.9681 17.7364 20.9681C15.914 20.9681 14.2365 20.3712 12.8977 19.3552C10.9461 17.8872 9.67188 15.5324 9.67188 12.9036V9.6778C9.67188 5.22656 13.2852 1.61328 17.7364 1.61328C19.962 1.61328 21.9781 2.5166 23.4461 3.96806C24.8976 5.43605 25.8009 7.45218 25.8009 9.6778Z" fill="#F0D0B4" />
    <path d="M45.1562 80.6455H54.8337V98.3874H45.1562V80.6455Z" fill="#CF9E76" />
    <path d="M61.2916 74.1934L58.0658 80.645H41.9367L38.7109 74.1934H61.2916Z" fill="#CF9E76" />
    <path d="M74.1918 45.1616V70.968C74.1918 72.7424 72.7403 74.1938 70.966 74.1938H29.0305C27.2561 74.1938 25.8047 72.7424 25.8047 70.968V41.9358C25.8047 40.1614 27.2561 38.71 29.0305 38.71H70.966C72.7403 38.71 74.1918 40.1614 74.1918 41.9358V45.1616Z" fill="#E6E9ED" />
    <path d="M50.0013 45.1611C46.8723 45.1611 44.0655 46.4189 42.0171 48.4673C39.9687 50.5157 38.7109 53.3225 38.7109 56.4515C38.7109 62.6936 43.7591 67.7418 50.0013 67.7418C53.1302 67.7418 55.937 66.4841 57.9854 64.4356C60.0339 62.3872 61.2916 59.5804 61.2916 56.4515C61.2916 50.2093 56.2434 45.1611 50.0013 45.1611Z" fill="#EF7385" />
    <path d="M95.3212 24.8661L88.7097 22.9776V20.0967C90.6841 18.3239 91.9355 15.7612 91.9355 12.9032V9.67742C91.9355 4.34019 87.5953 0 82.2581 0C76.9208 0 72.5806 4.34019 72.5806 9.67742V12.9032C72.5806 15.7597 73.8321 18.3224 75.8064 20.0967V22.9776L69.195 24.8661C67.9727 25.2142 66.9292 25.9246 66.129 26.8421C65.3289 25.9246 64.2854 25.2142 63.0631 24.8661L56.4516 22.9776V20.0967C58.426 18.3239 59.6774 15.7612 59.6774 12.9032V9.67742C59.6774 4.34019 55.3372 0 50 0C44.6628 0 40.3226 4.34019 40.3226 9.67742V12.9032C40.3226 15.7597 41.574 18.3224 43.5484 20.0967V22.9776L36.9369 24.8661C35.7146 25.2142 34.6711 25.9246 33.871 26.8421C33.0708 25.9246 32.0273 25.2142 30.805 24.8661L24.1935 22.9776V20.0967C26.1679 18.3239 27.4194 15.7612 27.4194 12.9032V9.67742C27.4194 4.34019 23.0792 0 17.7419 0C12.4047 0 8.06452 4.34019 8.06452 9.67742V12.9032C8.06452 15.7597 9.31593 18.3224 11.2903 20.0967V22.9776L4.67884 24.8661C1.92399 25.6513 0 28.203 0 31.0697V46.7742H24.1935V70.9677C24.1935 73.6352 26.3648 75.8064 29.0323 75.8064H37.7126L40.9384 82.2581H43.5484V100H56.4516V82.2581H59.0616L62.2874 75.8064H70.9677C73.6352 75.8064 75.8064 73.6352 75.8064 70.9677V46.7742H100V31.0697C100 28.203 98.076 25.6513 95.3212 24.8661ZM75.8064 9.67742C75.8064 6.11927 78.6999 3.22581 82.2581 3.22581C85.8162 3.22581 88.7097 6.11927 88.7097 9.67742V12.9032C88.7097 16.4614 85.8162 19.3548 82.2581 19.3548C78.6999 19.3548 75.8064 16.4614 75.8064 12.9032V9.67742ZM82.2581 22.5806C83.3906 22.5806 84.4727 22.3743 85.4839 22.016V23.7502C85.0838 24.3676 83.9726 25.8065 82.2581 25.8065C80.5436 25.8065 79.4323 24.366 79.0323 23.7502V22.016C80.0435 22.3743 81.1256 22.5806 82.2581 22.5806ZM43.5484 9.67742C43.5484 6.11927 46.4418 3.22581 50 3.22581C53.5582 3.22581 56.4516 6.11927 56.4516 9.67742V12.9032C56.4516 16.4614 53.5582 19.3548 50 19.3548C46.4418 19.3548 43.5484 16.4614 43.5484 12.9032V9.67742ZM50 22.5806C51.1325 22.5806 52.2146 22.3743 53.2258 22.016V23.7502C52.8257 24.3676 51.7145 25.8065 50 25.8065C48.2855 25.8065 47.1743 24.366 46.7742 23.7502V22.016C47.7854 22.3743 48.8675 22.5806 50 22.5806ZM37.8245 27.9675L44.469 26.0695C45.4046 27.2886 47.2239 29.0323 50 29.0323C52.7761 29.0323 54.5954 27.2886 55.531 26.0695L62.1771 27.9675C63.5545 28.3613 64.5161 29.6371 64.5161 31.0697V37.0968H35.4839V31.0697C35.4839 29.6371 36.4455 28.3613 37.8245 27.9675ZM11.2903 9.67742C11.2903 6.11927 14.1838 3.22581 17.7419 3.22581C21.3001 3.22581 24.1935 6.11927 24.1935 9.67742V12.9032C24.1935 16.4614 21.3001 19.3548 17.7419 19.3548C14.1838 19.3548 11.2903 16.4614 11.2903 12.9032V9.67742ZM17.7419 22.5806C18.8744 22.5806 19.9565 22.3743 20.9677 22.016V23.7502C20.5677 24.3676 19.4564 25.8065 17.7419 25.8065C16.0274 25.8065 14.9162 24.366 14.5161 23.7502V22.016C15.5273 22.3743 16.6094 22.5806 17.7419 22.5806ZM3.22581 43.5484V31.0697C3.22581 29.6371 4.18741 28.3613 5.56641 27.9675L12.211 26.0695C13.1466 27.2886 14.9658 29.0323 17.7419 29.0323C20.5181 29.0323 22.3373 27.2886 23.2729 26.0695L29.919 27.9675C31.2965 28.3613 32.2581 29.6371 32.2581 31.0697V37.0968H29.0323C26.3648 37.0968 24.1935 39.2681 24.1935 41.9355V43.5484H3.22581ZM53.2258 96.7742H46.7742V82.2581H53.2258V96.7742ZM57.0675 79.0323H42.9325L41.3196 75.8064H58.6804L57.0675 79.0323ZM72.5806 70.9677C72.5806 71.8561 71.8561 72.5806 70.9677 72.5806H29.0323C28.1439 72.5806 27.4194 71.8561 27.4194 70.9677V41.9355C27.4194 41.0471 28.1439 40.3226 29.0323 40.3226H70.9677C71.8561 40.3226 72.5806 41.0471 72.5806 41.9355V70.9677ZM96.7742 43.5484H75.8064V41.9355C75.8064 39.2681 73.6352 37.0968 70.9677 37.0968H67.7419V31.0697C67.7419 29.6371 68.7035 28.3613 70.0825 27.9675L76.7271 26.0695C77.6627 27.2886 79.4819 29.0323 82.2581 29.0323C85.0342 29.0323 86.8534 27.2886 87.789 26.0695L94.4352 27.9675C95.8126 28.3613 96.7742 29.6371 96.7742 31.0697V43.5484Z" fill="#0E0806" />
    <path d="M49.997 43.5488C42.8822 43.5488 37.0938 49.3373 37.0938 56.4521C37.0938 63.5668 42.8822 69.3553 49.997 69.3553C57.1117 69.3553 62.9002 63.5668 62.9002 56.4521C62.9002 49.3373 57.1117 43.5488 49.997 43.5488ZM40.3196 56.4521C40.3196 54.365 40.9905 52.4355 42.1183 50.8534L55.5957 64.3307C54.0135 65.4585 52.084 66.1295 49.997 66.1295C44.6597 66.1295 40.3196 61.7893 40.3196 56.4521ZM57.8756 62.0508L44.3983 48.5734C45.9805 47.4456 47.91 46.7746 49.997 46.7746C55.3342 46.7746 59.6744 51.1148 59.6744 56.4521C59.6744 58.5391 59.0034 60.4686 57.8756 62.0508Z" fill="#0E0806" />
    <path d="M14.5141 53.2256H11.2883V56.4514H8.0625V59.6772H11.2883V62.903H14.5141V59.6772H17.7399V56.4514H14.5141V53.2256Z" fill="#0E0806" />
    <path d="M11.2891 66.1289H14.5149V69.3547H11.2891V66.1289Z" fill="#0E0806" />
    <path d="M11.2891 72.5811H14.5149V75.8069H11.2891V72.5811Z" fill="#0E0806" />
    <path d="M11.2891 79.0322H14.5149V82.258H11.2891V79.0322Z" fill="#0E0806" />
    <path d="M11.2891 85.4834H14.5149V88.7092H11.2891V85.4834Z" fill="#0E0806" />
    <path d="M88.7094 79.0322H85.4836V82.258H82.2578V85.4838H85.4836V88.7096H88.7094V85.4838H91.9352V82.258H88.7094V79.0322Z" fill="#0E0806" />
    <path d="M85.4844 72.5811H88.7102V75.8069H85.4844V72.5811Z" fill="#0E0806" />
    <path d="M85.4844 66.1289H88.7102V69.3547H85.4844V66.1289Z" fill="#0E0806" />
    <path d="M85.4844 59.6777H88.7102V62.9035H85.4844V59.6777Z" fill="#0E0806" />
    <path d="M85.4844 53.2256H88.7102V56.4514H85.4844V53.2256Z" fill="#0E0806" />
  </g>
  <defs>
    <clipPath id="clip0_75_5630">
      <rect width="100" height="100" fill="white" />
    </clipPath>
  </defs>
</svg>