<svg width="100" height="100" viewBox="0 0 100 98" fill="none" xmlns="http://www.w3.org/2000/svg">
  <path d="M87.5 2.125H93.75V30.25H87.5V2.125Z" fill="#FFEAA7" />
  <path d="M75 8.375H81.25V30.25H75V8.375Z" fill="#FFEAA7" />
  <path d="M62.5 16.1875H68.75V30.25H62.5V16.1875Z" fill="#FFEAA7" />
  <path d="M52.7344 15.9531L51.8906 19.2812C51.0469 18.3438 49.8125 17.75 48.4375 17.75H46.875C41.7656 17.75 36.75 16.3594 32.3594 13.7344L31.25 13.0625L30.5938 13.7188C28.9531 15.3594 27.0625 16.7188 25 17.75H23.4375C22.1406 17.75 20.9688 18.2812 20.125 19.125C20.0469 19.2031 19.9531 19.2969 19.875 19.3906L19.0156 15.9531C18.7969 15.0781 18.6875 14.1719 18.6875 13.25C18.6875 10.1875 19.9375 7.40625 21.9531 5.39063C23.9688 3.375 26.75 2.125 29.8125 2.125H41.9375C48.0781 2.125 53.0625 7.10937 53.0625 13.25C53.0625 14.1719 52.9531 15.0781 52.7344 15.9531Z" fill="#656D78" />
  <path d="M76.5625 50.5625L76.4844 50.6719C73.6875 51.0312 71.1875 52.3281 69.2812 54.2188C67.0312 56.4844 65.625 59.6094 65.625 63.0625V63.8438C65.625 60.7188 63.9375 57.9375 61.3594 56.4375C61.3906 56.375 61.4375 56.3125 61.4687 56.25C61.8594 55.5 62.1562 54.7031 62.3281 53.8594L71.0937 45.0938L76.5625 50.5625Z" fill="#4FC1E9" />
  <path d="M26.5312 38.5156L27.9531 47.8125V47.8281C26.9687 47.5625 25.9375 47.4375 24.8594 47.4375H18.8906C15.1875 47.4375 11.8594 49.0312 9.54688 51.5625C10.1562 47.4687 12.4687 43.8125 15.9531 41.4844C17.7969 40.2656 19.8906 39.4687 22.0625 39.1562L26.5312 38.5156Z" fill="#4FC1E9" />
  <path d="M55.9219 41.4844C58.0313 42.9062 59.7188 44.8125 60.8594 47.0156C60.2344 46.1562 59.4531 45.4062 58.5625 44.8125L57.8125 44.3125C55.8125 46.3125 53.0937 47.4375 50.2656 47.4375H44.3281C44.2188 47.4375 44.0938 47.4375 43.9844 47.4531V47.4375L45.3438 38.5156L49.7969 39.1562C51.9844 39.4687 54.0781 40.2656 55.9219 41.4844Z" fill="#4FC1E9" />
  <path d="M35.9375 44.3125L41.7969 47.8281C40.5 48.2344 39.3437 48.9531 38.4062 49.9063C37.2344 51.0781 36.4062 52.5781 36.0937 54.2656H36.0781C34.6562 51.5156 32.2656 49.3594 29.3594 48.2656L35.9375 44.3125Z" fill="#4FC1E9" />
  <path d="M45.3438 38.5156L43.9844 47.4375V47.4531C43.2187 47.4688 42.4844 47.6094 41.7969 47.8281L35.9375 44.3125L42.1875 38.0625L45.3438 38.5156Z" fill="#3BAFDA" />
  <path d="M35.9375 44.3125L29.3594 48.2656C28.9063 48.0781 28.4375 47.9375 27.9531 47.8281V47.8125L26.5312 38.5156L29.6875 38.0625L35.9375 44.3125Z" fill="#3BAFDA" />
  <path d="M84.2031 84.8125C84.2969 84.4531 84.3438 84.0625 84.3594 83.6719H84.375C89.625 84.7031 94.0625 88.375 95.9844 93.5156L96.875 95.875H68.75L67.8594 93.5156C67.0156 91.2813 65.7031 89.3281 64.0625 87.7344C66.2031 85.6719 68.9219 84.25 71.875 83.6719H71.8906C71.9062 84.0625 71.9531 84.4531 72.0469 84.8125C72.7031 87.5781 75.1719 89.625 78.125 89.625C79.8438 89.625 81.4063 88.9219 82.5469 87.7969C83.3438 86.9844 83.9375 85.9531 84.2031 84.8125Z" fill="#E6E9ED" />
  <path d="M78.125 80.25L84.2031 84.8125C83.9375 85.9531 83.3438 86.9844 82.5469 87.7969C81.4063 88.9219 79.8437 89.625 78.125 89.625C75.1719 89.625 72.7031 87.5781 72.0469 84.8125L78.125 80.25Z" fill="#F0D0B4" />
  <path d="M84.375 75.5625V83.375C84.375 83.4688 84.375 83.5781 84.3594 83.6719C84.3438 84.0625 84.2969 84.4531 84.2031 84.8125L78.125 80.25L84.375 75.5625Z" fill="#F0D0B4" />
  <path d="M78.125 80.25L72.0469 84.8125C71.9531 84.4531 71.9062 84.0625 71.8906 83.6719C71.875 83.5781 71.875 83.4688 71.875 83.375V75.5625L78.125 80.25Z" fill="#F0D0B4" />
  <path d="M35.9375 87.7344C34.2969 89.3281 32.9844 91.2813 32.1406 93.5156L31.25 95.875H3.125L4.01562 93.5156C5.9375 88.375 10.375 84.7031 15.625 83.6875C16.6094 83.4688 17.6094 83.375 18.6406 83.375H25.1094C26.1406 83.375 27.1406 83.4687 28.125 83.6719C31.0938 84.25 33.7969 85.6875 35.9375 87.7344Z" fill="#B4DD7F" />
  <path d="M67.8594 93.5156L68.75 95.875H31.25L32.1406 93.5156C32.9844 91.2813 34.2969 89.3281 35.9375 87.7344C38.0781 85.6719 40.7812 84.25 43.75 83.6875C44.7344 83.4688 45.7344 83.375 46.7656 83.375H53.2344C54.2656 83.375 55.2656 83.4688 56.25 83.6875C59.2188 84.25 61.9219 85.6719 64.0625 87.7344C65.7031 89.3281 67.0156 91.2813 67.8594 93.5156Z" fill="#FF826E" />
  <path d="M56.25 76.2656V83.6719V83.6875C55.2656 83.4688 54.2656 83.375 53.2344 83.375H46.7656C45.7344 83.375 44.7344 83.4688 43.75 83.6875V83.6719V76.2656V76.25C44.6875 76.8125 45.7812 77.125 46.9531 77.125H53.0469C54.2188 77.125 55.3125 76.8125 56.25 76.25V76.2656Z" fill="#F0D0B4" />
  <path d="M28.125 77.125V83.6719C27.1406 83.4687 26.1406 83.375 25.1094 83.375H18.6406C17.6094 83.375 16.6094 83.4688 15.625 83.6875V83.6719V77.125H17.1875H21.875H26.5625H28.125Z" fill="#F0D0B4" />
  <path d="M35.9375 55.8281C35.9375 56.7031 36.0781 57.5625 36.3281 58.3906C35.1094 59.875 34.375 61.7969 34.375 63.8438C34.375 65.1875 34.6719 66.4531 35.2344 67.5938L34.7031 68.6563C34.4844 69.0938 34.375 69.5625 34.375 70.0469V70.6875C34.375 73.5469 32.4219 76.0469 29.6406 76.75L28.125 77.125H26.5625H21.875H17.1875H15.625L14.1094 76.75C11.3281 76.0469 9.375 73.5469 9.375 70.6875V70.0469C9.375 69.5625 9.26562 69.0938 9.04688 68.6563L7.57812 65.7344C6.70312 63.9687 6.25 62.0469 6.25 60.0781C6.25 56.7969 7.48438 53.8125 9.54688 51.5625C11.8594 49.0312 15.1875 47.4375 18.8906 47.4375H24.8594C25.9375 47.4375 26.9688 47.5625 27.9531 47.8281C28.4375 47.9375 28.9063 48.0781 29.3594 48.2656C32.2656 49.3594 34.6562 51.5156 36.0781 54.2656H36.0938C35.9844 54.7656 35.9375 55.2969 35.9375 55.8281Z" fill="#B27946" />
  <path d="M90.625 63.0625V67.6094C90.625 70.5625 88.9531 73.2813 86.3125 74.5938L84.375 75.5625L78.125 80.25L71.875 75.5625L69.9375 74.5938C67.2969 73.2813 65.625 70.5625 65.625 67.6094V63.8438V63.0625C65.625 59.6094 67.0313 56.4844 69.2813 54.2188C71.1875 52.3281 73.6875 51.0312 76.4844 50.6719L78.125 50.5625C85.0312 50.5625 90.625 56.1562 90.625 63.0625Z" fill="#B27946" />
  <path d="M61.3594 56.4375C63.9375 57.9375 65.625 60.7188 65.625 63.8438C65.625 65.8125 64.9688 67.625 63.8438 69.0938C62.7031 70.5625 61.1094 71.6563 59.2344 72.1406C58.8594 73.8906 57.75 75.375 56.25 76.25C55.3125 76.8125 54.2188 77.125 53.0469 77.125H46.9531C45.7812 77.125 44.6875 76.8125 43.75 76.25C43.2812 75.9844 42.8438 75.6562 42.4688 75.2812C41.625 74.4219 41.0313 73.3438 40.7656 72.1406C38.8906 71.6563 37.2969 70.5625 36.1562 69.0938C35.7969 68.625 35.4844 68.125 35.2344 67.5938C34.6719 66.4531 34.375 65.1875 34.375 63.8438C34.375 61.7969 35.1094 59.875 36.3281 58.3906C36.0781 57.5625 35.9375 56.7031 35.9375 55.8281C35.9375 55.2969 35.9844 54.7656 36.0938 54.2656C36.4063 52.5781 37.2344 51.0781 38.4062 49.9063C39.3438 48.9531 40.5 48.2344 41.7969 47.8281C42.4844 47.6094 43.2187 47.4688 43.9844 47.4531C44.0937 47.4375 44.2188 47.4375 44.3281 47.4375H50.2656C53.0937 47.4375 55.8125 46.3125 57.8125 44.3125L58.5625 44.8125C59.4531 45.4062 60.2344 46.1562 60.8594 47.0156C61.9063 48.4844 62.5 50.2656 62.5 52.125C62.5 52.7188 62.4375 53.2969 62.3281 53.8594C62.1562 54.7031 61.8594 55.5 61.4688 56.25C61.4375 56.3125 61.3906 56.375 61.3594 56.4375Z" fill="#656D78" />
  <path d="M73.4375 42.75L73.8906 42.2969C74.6094 41.5781 75.5625 41.1875 76.5625 41.1875C77.5625 41.1875 78.5156 41.5781 79.2344 42.2969L79.6875 42.75H89C89.8594 42.75 90.5625 43.4531 90.5625 44.3125C90.5625 45.6562 90.0781 46.9219 89.25 47.8906C88.4375 48.8594 87.2812 49.5469 85.9375 49.7656L76.5625 50.5625L71.0938 45.0938L73.4375 42.75Z" fill="#F0D0B4" />
  <path d="M48.4375 17.75C49.8125 17.75 51.0469 18.3437 51.8906 19.2812C52.6562 20.1094 53.125 21.2188 53.125 22.4375C53.125 23.7344 52.5937 24.9063 51.75 25.75C50.9062 26.5938 49.7344 27.125 48.4375 27.125H46.875V17.75H48.4375Z" fill="#F0D0B4" />
  <path d="M42.1875 38.0625L35.9375 44.3125L29.6875 38.0625L30.8906 35.8281C31.9688 36.2656 33.1406 36.5 34.375 36.5H37.5C38.7344 36.5 39.9062 36.2656 40.9844 35.8281L42.1875 38.0625Z" fill="#F0D0B4" />
  <path d="M46.875 17.75V27.125C46.875 31.0625 44.4375 34.4531 40.9844 35.8281C39.9062 36.2656 38.7344 36.5 37.5 36.5H34.375C33.1406 36.5 31.9688 36.2656 30.8906 35.8281C27.4375 34.4531 25 31.0625 25 27.125V17.75C27.0625 16.7188 28.9531 15.3594 30.5938 13.7188L31.25 13.0625L32.3594 13.7344C36.75 16.3594 41.7656 17.75 46.875 17.75Z" fill="#F0D0B4" />
  <path d="M23.4375 17.75H25V27.125H23.4375C20.8438 27.125 18.75 25.0312 18.75 22.4375C18.75 21.2656 19.1719 20.2031 19.875 19.3906C19.9531 19.2969 20.0469 19.2031 20.125 19.125C20.9688 18.2813 22.1406 17.75 23.4375 17.75Z" fill="#F0D0B4" />
  <path d="M97.4563 92.9641C95.5312 87.8344 91.1797 83.9313 85.9406 82.4703V76.5297L87.0094 75.9953C90.2047 74.3969 92.1906 71.1828 92.1906 67.6094V63.0625C92.1906 58.1703 89.6766 53.8594 85.8766 51.3391L86.1969 51.3125C89.6328 50.7406 92.1266 47.7969 92.1266 44.3141C92.1266 42.5906 90.725 41.1891 89.0016 41.1891H80.3375C78.3234 39.175 74.8078 39.175 72.7937 41.1891H64.0656V44.3141H69.6687L63.8531 50.1297C63.5687 48.6781 62.9938 47.3109 62.1422 46.1203C60.875 43.7375 59.0328 41.6859 56.7844 40.1859C54.7672 38.8422 52.4312 37.9484 50.0297 37.6047L43.1891 36.6281L43.1234 36.5062C45.8828 34.8469 47.8547 32.0062 48.3297 28.6891H48.4406C51.8875 28.6891 54.6906 25.8859 54.6906 22.4391C54.6906 21.1344 54.2859 19.9234 53.6 18.9203L54.2469 16.3359C54.4984 15.3313 54.6266 14.2953 54.6266 13.2562C54.6266 6.25625 48.9328 0.5625 41.9344 0.5625H29.8188C22.8203 0.5625 17.1266 6.25625 17.1266 13.2547C17.1266 14.2937 17.2547 15.3297 17.5063 16.3328L18.1906 19.0703C17.5641 20.0438 17.1906 21.1953 17.1906 22.4375C17.1906 25.8844 19.9937 28.6875 23.4406 28.6875H23.5656C24.0438 32.0031 26.0078 34.8359 28.7641 36.4938L28.6922 36.6266L21.8516 37.6031C19.45 37.9484 17.1141 38.8391 15.0953 40.1844C11.4047 42.6437 8.88437 46.525 8.09531 50.8766C5.97812 53.3578 4.69062 56.5687 4.69062 60.0781C4.69062 62.2734 5.20937 64.4719 6.19062 66.4297L7.65156 69.3516C7.75937 69.5672 7.81562 69.8078 7.81562 70.05V70.6828C7.81562 74.275 10.25 77.3906 13.7344 78.2625L14.0656 78.3438V82.4531C8.86406 83.9062 4.5 87.7656 2.55 92.9656L0.875 97.4375H99.1328L97.4563 92.9641ZM64.0844 85.6906C62.25 84.1984 60.1141 83.0953 57.8156 82.4531V77.0484C59.0406 76.1125 59.9719 74.8344 60.4828 73.3469C62.0844 72.7688 63.4719 71.8188 64.5687 70.5984C65.3406 72.9094 66.9813 74.8625 69.2484 75.9953L70.3156 76.5281V82.4766C68.0344 83.1078 65.9234 84.1969 64.0844 85.6906ZM29.6906 78.3438L30.0219 78.2609C33.3656 77.4266 35.7172 74.5172 35.9047 71.1109C36.9172 72.0938 38.1484 72.85 39.5234 73.3453C40.0344 74.8328 40.9656 76.1109 42.1906 77.0469V82.4516C39.9031 83.0906 37.775 84.1859 35.9469 85.6672C34.0922 84.1562 31.9656 83.0656 29.6906 82.4391V78.3438ZM32.5641 48.1609L35.9406 46.1344L38.5828 47.7203C37.3984 48.5625 36.4078 49.6547 35.6844 50.9219C34.7766 49.8453 33.7313 48.9141 32.5641 48.1609ZM57.9547 46.2844C59.8297 47.6359 60.9406 49.7969 60.9406 52.1219C60.9406 54.5359 59.7422 56.7766 57.7344 58.1141L56.9484 58.6375L58.6813 61.2375L59.4672 60.7141C60.3375 60.1344 61.0859 59.425 61.7281 58.6391C63.1891 59.9547 64.0656 61.8406 64.0656 63.8438C64.0656 66.2703 62.8125 68.4609 60.8578 69.7281C60.7406 68.8797 60.4922 68.0484 60.1094 67.2797L59.2141 65.4891L56.4188 66.8875L57.3125 68.6766C57.6422 69.3344 57.8156 70.0703 57.8156 70.8047C57.8156 73.4281 55.6813 75.5625 53.0578 75.5625H46.9484C44.325 75.5625 42.1906 73.4281 42.1906 70.8047C42.1906 70.0703 42.3641 69.3344 42.6922 68.6766L43.5875 66.8859L40.7922 65.4875L39.8953 67.2781C39.5125 68.0453 39.2656 68.8781 39.1484 69.725C37.1937 68.4609 35.9406 66.2703 35.9406 63.8438C35.9406 60.5125 38.3125 57.6203 41.5797 56.9656L42.4953 56.7828L41.8844 53.7188L40.9656 53.9016C39.725 54.15 38.5812 54.6328 37.5578 55.2797C37.8469 51.775 40.7578 49 44.3359 49H50.2719C53.0578 49 55.7922 48.0219 57.9547 46.2844ZM71.0969 47.3031L73.5672 49.7734C69.7438 51.0891 66.6594 54.0016 65.1266 57.7203C64.6172 57.0453 64.0172 56.4375 63.3484 55.9047C63.5094 55.4953 63.6469 55.0766 63.7547 54.6469L71.0969 47.3031ZM53.2375 81.8125H46.7687C46.2812 81.8125 45.7969 81.8375 45.3156 81.8797V78.5141C45.8438 78.625 46.3875 78.6875 46.9484 78.6875H53.0578C53.6188 78.6875 54.1625 78.625 54.6906 78.5125V81.8781C54.2094 81.8375 53.7266 81.8125 53.2375 81.8125ZM42.6219 46.0328C42.4266 46.0672 42.2344 46.1063 42.0422 46.1516L38.4594 44.0016L42.7422 39.7188L43.5609 39.8359L42.6219 46.0328ZM40.2219 37.7109L40.2609 37.7828L35.9406 42.1031L31.6203 37.7828L31.6609 37.7078C32.5312 37.9313 33.4391 38.0625 34.3781 38.0625H37.5031C38.4422 38.0625 39.3516 37.9344 40.2219 37.7109ZM33.4203 44.0016L29.3234 46.4594L28.3203 39.8359L29.1391 39.7188L33.4203 44.0016ZM46.7687 84.9375H53.2391C59.0672 84.9375 64.3594 88.6047 66.4062 94.0609L66.4984 94.3125H33.5078L33.6016 94.0625C35.6484 88.6047 40.9391 84.9375 46.7687 84.9375ZM75.5234 80.25L73.4406 81.8125V78.6875L75.5234 80.25ZM78.1281 82.2031L82.3531 85.3703C81.6 86.9563 79.9969 88.0625 78.1281 88.0625C76.2594 88.0625 74.6563 86.9563 73.9031 85.3703L78.1281 82.2031ZM80.7328 80.25L82.8156 78.6875V81.8125L80.7328 80.25ZM89.0656 63.0625V67.6094C89.0656 69.9906 87.7422 72.1344 85.6109 73.1984L83.6797 74.1641L78.1281 78.2969L72.8156 74.3125L70.6453 73.1984C68.5141 72.1344 67.1906 69.9922 67.1906 67.6094V63.0625C67.1906 57.0328 72.0984 52.125 78.1281 52.125C84.1578 52.125 89.0656 57.0328 89.0656 63.0625ZM78.1281 43.3969L79.0437 44.3125H89.0016C89.0016 46.2625 87.6063 47.9094 85.8094 48.2141L77.1578 48.9453L73.3063 45.0938L75.0031 43.3969C75.8391 42.5641 77.2922 42.5641 78.1281 43.3969ZM55.05 42.7844C55.4531 43.0531 55.8328 43.3547 56.2031 43.6656C54.5625 45.0734 52.4406 45.875 50.2719 45.875H45.8062L46.6547 40.2781L49.5875 40.6969C51.5297 40.975 53.4203 41.6969 55.05 42.7844ZM48.4406 25.5625V19.3125C50.1641 19.3125 51.5656 20.7141 51.5656 22.4375C51.5656 24.1609 50.1641 25.5625 48.4406 25.5625ZM29.8188 3.6875H41.9344C47.2094 3.6875 51.5016 7.97969 51.5016 13.2547C51.5016 14.0375 51.4047 14.8187 51.2156 15.575L50.9313 16.7109C50.1672 16.3781 49.3266 16.1875 48.4406 16.1875H46.8781C42.05 16.1875 37.3109 14.875 33.1719 12.3906L31.0109 11.0953L29.4937 12.6125C28.0547 14.0516 26.4063 15.2469 24.6031 16.1875H23.4406C22.5094 16.1875 21.6313 16.4062 20.8359 16.7734L20.5359 15.5734C20.3469 14.8188 20.25 14.0375 20.25 13.2547C20.2516 7.97969 24.5438 3.6875 29.8188 3.6875ZM20.3156 22.4375C20.3156 20.7141 21.7172 19.3125 23.4406 19.3125V25.5625C21.7172 25.5625 20.3156 24.1609 20.3156 22.4375ZM26.5656 27.125V18.6938C28.3641 17.6969 30.0187 16.4672 31.4937 15.0297L31.5625 15.0703C35.7406 17.5766 40.4656 19.0156 45.3156 19.2703V27.125C45.3156 31.4328 41.8109 34.9375 37.5031 34.9375H34.3781C30.0703 34.9375 26.5656 31.4328 26.5656 27.125ZM16.8297 42.7844C18.4625 41.6969 20.3531 40.975 22.2953 40.6969L25.2281 40.2781L26.0891 45.9594C25.6812 45.925 25.2766 45.875 24.8625 45.875H18.8938C16.6469 45.875 14.5297 46.4141 12.6391 47.3469C13.6516 45.5344 15.0719 43.9562 16.8297 42.7844ZM10.9406 70.6828V70.05C10.9406 69.3266 10.7703 68.6016 10.4469 67.9547L8.98594 65.0312C8.22031 63.5031 7.81562 61.7922 7.81562 60.0781C7.81562 53.9703 12.7859 49 18.8938 49H24.8625C28.8625 49 32.4875 51.1391 34.4641 54.5922C34.4125 55 34.3781 55.4125 34.3781 55.8328C34.3781 56.5938 34.4937 57.3422 34.6656 58.0812C33.5125 59.7359 32.8156 61.7172 32.8156 63.8438C32.8156 65.1328 33.0812 66.3656 33.5297 67.5156L33.3094 67.9547C32.9859 68.6016 32.8156 69.3266 32.8156 70.05V70.6828C32.8156 72.8375 31.3547 74.7078 29.2656 75.2312L28.9391 75.3125C29.4172 73.7547 29.6906 72.1328 29.6906 70.5062V69.3125H26.5656V70.5062C26.5656 72.2359 26.2 73.9609 25.5375 75.5625H23.4406V69.3125H20.3156V75.5625H18.2188C17.5563 73.9609 17.1906 72.2359 17.1906 70.5062V69.3125H14.0656V70.5062C14.0656 72.1328 14.3391 73.7547 14.8172 75.3141L14.4906 75.2328C12.4016 74.7078 10.9406 72.8375 10.9406 70.6828ZM17.1906 78.6875H26.5656V81.8812C26.0844 81.8422 25.6016 81.8125 25.1125 81.8125H18.6438C18.1563 81.8125 17.6719 81.8375 17.1906 81.8797V78.6875ZM5.47656 94.0625C7.52344 88.6047 12.8141 84.9375 18.6438 84.9375H25.1141C28.2531 84.9375 31.2484 85.9734 33.7016 87.8703C32.4266 89.3594 31.3875 91.0703 30.6766 92.9641L30.1703 94.3125H5.38125L5.47656 94.0625ZM69.8359 94.3125L69.3313 92.9641C68.6234 91.0766 67.5875 89.3719 66.3203 87.8875C67.6328 86.8734 69.1031 86.1047 70.6813 85.6094C71.6484 88.8234 74.6016 91.1875 78.1281 91.1875C81.6578 91.1875 84.6141 88.8187 85.5781 85.6C89.6547 86.8922 93.0125 90.0172 94.5297 94.0609L94.625 94.3125H69.8359Z" fill="#0E0806" />
  <path d="M35.9437 31.8123C38.4672 31.8123 40.7359 30.4107 41.8641 28.1529L42.0281 27.8232L39.2328 26.4248L39.0687 26.7561C38.4734 27.9467 37.2766 28.6873 35.9437 28.6873C34.6109 28.6873 33.4141 27.9467 32.8187 26.7561L32.6547 26.4264L29.8594 27.8248L30.0234 28.1545C31.1516 30.4107 33.4203 31.8123 35.9437 31.8123Z" fill="#0E0806" />
  <path d="M98.4375 28.6875H95.3125V0.5625H85.9375V28.6875H82.8125V6.8125H73.4375V28.6875H70.3125V14.625H60.9375V28.6875H57.8125V31.8125H98.4375V28.6875ZM89.0625 3.6875H92.1875V28.6875H89.0625V3.6875ZM76.5625 9.9375H79.6875V28.6875H76.5625V9.9375ZM64.0625 17.75H67.1875V28.6875H64.0625V17.75Z" fill="#0E0806" />
  <path d="M60.9375 34.9375H73.4375V38.0625H60.9375V34.9375Z" fill="#0E0806" />
  <path d="M76.5625 34.9375H98.4375V38.0625H76.5625V34.9375Z" fill="#0E0806" />
</svg>