<svg width="100" height="100" viewBox="0 0 100 100" fill="none" xmlns="http://www.w3.org/2000/svg">
  <path d="M25 15.625C27.5888 15.625 29.6875 13.5263 29.6875 10.9375C29.6875 8.34867 27.5888 6.25 25 6.25C22.4112 6.25 20.3125 8.34867 20.3125 10.9375C20.3125 13.5263 22.4112 15.625 25 15.625Z" fill="#5EB38C" />
  <path d="M82.8125 53.125C85.4013 53.125 87.5 51.0263 87.5 48.4375C87.5 45.8487 85.4013 43.75 82.8125 43.75C80.2237 43.75 78.125 45.8487 78.125 48.4375C78.125 51.0263 80.2237 53.125 82.8125 53.125Z" fill="#F28C85" />
  <path d="M45.3125 68.75H54.6875V73.4375H45.3125V68.75Z" fill="#8DAED9" />
  <path d="M60.1562 28.125H39.8438C38.1179 28.125 36.7188 29.5241 36.7188 31.25V65.625C36.7188 67.3509 38.1179 68.75 39.8438 68.75H60.1562C61.8821 68.75 63.2812 67.3509 63.2812 65.625V31.25C63.2812 29.5241 61.8821 28.125 60.1562 28.125Z" fill="#E4E9F0" />
  <path d="M36.7188 62.5V65.625C36.7188 66.4538 37.048 67.2487 37.634 67.8347C38.2201 68.4208 39.0149 68.75 39.8438 68.75H60.1562C60.9851 68.75 61.7799 68.4208 62.366 67.8347C62.952 67.2487 63.2812 66.4538 63.2812 65.625V62.5H36.7188Z" fill="#7D95B0" />
  <path d="M42.1875 28.125L42.6023 30.3654C42.6739 31.0058 42.9673 31.6011 43.4316 32.048C43.8958 32.4949 44.5018 32.7654 45.1446 32.8125H54.8555C55.4982 32.7654 56.1042 32.4949 56.5685 32.048C57.0328 31.6011 57.3261 31.0058 57.3977 30.3654L57.8125 28.125H42.1875Z" fill="#7D95B0" />
  <path d="M62.5 73.4375H37.5C35.428 73.4375 33.4409 74.2606 31.9757 75.7257C30.5106 77.1909 29.6875 79.178 29.6875 81.25V98.4375H70.3125V81.25C70.3125 79.178 69.4894 77.1909 68.0243 75.7257C66.5591 74.2606 64.572 73.4375 62.5 73.4375Z" fill="#8DAED9" />
  <path d="M71.875 98.4377V81.2502C71.8723 78.7647 70.8837 76.3817 69.1261 74.6241C67.3686 72.8665 64.9856 71.878 62.5 71.8752H56.25V70.3127H60.1563C61.399 70.3114 62.5905 69.8171 63.4693 68.9383C64.3481 68.0595 64.8424 66.868 64.8438 65.6252V31.2502C64.8424 30.0075 64.3481 28.816 63.4693 27.9372C62.5905 27.0584 61.399 26.5641 60.1563 26.5627H39.8438C38.601 26.5641 37.4095 27.0584 36.5307 27.9372C35.6519 28.816 35.1576 30.0075 35.1562 31.2502V65.6252C35.1576 66.868 35.6519 68.0595 36.5307 68.9383C37.4095 69.8171 38.601 70.3114 39.8438 70.3127H43.75V71.8752H37.5C35.0144 71.8779 32.6314 72.8665 30.8739 74.6241C29.1163 76.3817 28.1277 78.7647 28.125 81.2502V98.4377H31.25V81.2502C31.2518 79.5932 31.9108 78.0045 33.0825 76.8328C34.2543 75.6611 35.8429 75.002 37.5 75.0002H62.5C64.1571 75.002 65.7458 75.6611 66.9175 76.8328C68.0892 78.0045 68.7482 79.5932 68.75 81.2502V98.4377H71.875ZM55.9339 29.6877L55.8609 30.0822C55.7373 30.7482 55.3055 31.2502 54.8553 31.2502H45.1446C44.6945 31.2502 44.2627 30.7482 44.1391 30.0815L44.0661 29.6877H55.9339ZM38.2812 31.2502C38.2817 30.836 38.4464 30.4388 38.7394 30.1458C39.0323 29.8529 39.4295 29.6882 39.8438 29.6877H40.8877L41.066 30.6498C41.2055 31.6486 41.6894 32.5673 42.434 33.2475C43.1786 33.9276 44.1373 34.3265 45.1446 34.3752H54.8553C55.8625 34.3265 56.8211 33.9278 57.5658 33.2478C58.3104 32.5678 58.7943 31.6492 58.934 30.6506L59.1123 29.6877H60.1563C60.5705 29.6882 60.9677 29.8529 61.2607 30.1458C61.5536 30.4388 61.7183 30.836 61.7188 31.2502V60.9377H38.2812V31.2502ZM39.8438 67.1877C39.4295 67.1873 39.0323 67.0226 38.7394 66.7296C38.4464 66.4367 38.2817 66.0395 38.2812 65.6252V64.0627H61.7188V65.6252C61.7183 66.0395 61.5536 66.4367 61.2607 66.7296C60.9677 67.0226 60.5705 67.1873 60.1563 67.1877H39.8438ZM53.125 71.8752H46.875V70.3127H53.125V71.8752Z" fill="black" />
  <path d="M35.9375 79.6875H39.0625V98.4375H35.9375V79.6875Z" fill="black" />
  <path d="M60.9375 79.6875H64.0625V98.4375H60.9375V79.6875Z" fill="black" />
  <path d="M46.875 42.1875C46.875 41.3246 46.1754 40.625 45.3125 40.625C44.4496 40.625 43.75 41.3246 43.75 42.1875C43.75 43.0504 44.4496 43.75 45.3125 43.75C46.1754 43.75 46.875 43.0504 46.875 42.1875Z" fill="black" />
  <path d="M56.25 42.1875C56.25 41.3246 55.5504 40.625 54.6875 40.625C53.8246 40.625 53.125 41.3246 53.125 42.1875C53.125 43.0504 53.8246 43.75 54.6875 43.75C55.5504 43.75 56.25 43.0504 56.25 42.1875Z" fill="black" />
  <path d="M50.0046 53.125C48.9786 53.1237 47.9812 52.7865 47.165 52.1647C46.3487 51.543 45.7586 50.671 45.4848 49.6822C45.4041 49.3352 45.2105 49.0248 44.9345 48.7996C44.6584 48.5743 44.3155 48.447 43.9593 48.4375H43.9553C43.7171 48.4377 43.4821 48.4922 43.2681 48.5969C43.0542 48.7016 42.8669 48.8537 42.7207 49.0417C42.5744 49.2297 42.4729 49.4486 42.424 49.6817C42.3751 49.9148 42.38 50.156 42.4384 50.387C42.8709 52.0648 43.849 53.5513 45.2186 54.6127C46.5883 55.674 48.2719 56.25 50.0046 56.25C51.7374 56.25 53.421 55.674 54.7906 54.6127C56.1603 53.5513 57.1383 52.0648 57.5709 50.387C57.6293 50.156 57.6342 49.9148 57.5853 49.6817C57.5364 49.4486 57.4349 49.2297 57.2886 49.0417C57.1423 48.8537 56.9551 48.7016 56.7411 48.5969C56.5272 48.4922 56.2922 48.4377 56.054 48.4375H56.0499C55.6938 48.447 55.3509 48.5743 55.0748 48.7996C54.7988 49.0248 54.6052 49.3352 54.5244 49.6822C54.2506 50.671 53.6605 51.543 52.8443 52.1647C52.0281 52.7865 51.0307 53.1237 50.0046 53.125Z" fill="black" />
  <path d="M82.4234 58.3326L79.4754 57.292C77.8786 61.7856 75.2794 65.8566 71.875 69.1961L74.0631 71.4285C77.8071 67.7539 80.666 63.2755 82.4234 58.3326Z" fill="black" />
  <path d="M15.6252 46.8748C15.6106 51.4501 16.5164 55.9817 18.2887 60.1998C20.061 64.418 22.6636 68.2366 25.9416 71.4285L28.1298 69.1961C24.6768 65.8116 22.0562 61.6721 20.4742 57.1032C18.8921 52.5344 18.3917 47.6607 19.0123 42.8657C19.6329 38.0706 21.3576 33.485 24.0508 29.4694C26.7439 25.4539 30.3321 22.118 34.5329 19.7241C38.7337 17.3303 43.4327 15.9437 48.2602 15.6736C53.0877 15.4035 57.912 16.2572 62.3537 18.1674C66.7954 20.0777 70.7332 22.9925 73.8575 26.6826C76.9818 30.3726 79.2074 34.7372 80.359 39.4331L83.3955 38.6915C81.394 30.5298 76.4726 23.3839 69.561 18.6038C62.6495 13.8237 54.2265 11.7406 45.8836 12.748C37.5407 13.7554 29.8557 17.7836 24.2806 24.0714C18.7055 30.3593 15.6264 38.4713 15.6252 46.8748Z" fill="black" />
  <path d="M95.3163 46.875C95.3116 39.53 93.5226 32.296 90.1032 25.7955C86.6837 19.2949 81.7362 13.7224 75.6863 9.5573C69.6363 5.39221 62.6651 2.75924 55.3722 1.8849C48.0794 1.01056 40.6834 1.92103 33.8203 4.53799L34.9373 7.45699C44.5627 3.77989 55.201 3.75186 64.8457 7.37818C74.4904 11.0045 82.4749 18.0345 87.2933 27.1424C92.1118 36.2502 93.4311 46.8064 91.0025 56.82C88.5738 66.8336 82.5652 75.6125 74.1096 81.501L75.898 84.0645C81.8888 79.8861 86.7825 74.3233 90.1632 67.8487C93.5438 61.3741 95.3116 54.1791 95.3163 46.875Z" fill="black" />
  <path d="M4.68753 46.8749C4.6922 54.179 6.45998 61.374 9.84066 67.8486C13.2213 74.3232 18.115 79.886 24.1059 84.0644L25.8942 81.5009C20.9464 78.0555 16.7944 73.5897 13.7181 68.4043C10.6417 63.219 8.71241 57.4345 8.06015 51.4406C7.4079 45.4467 8.04782 39.3827 9.93682 33.657C11.8258 27.9313 14.92 22.6769 19.011 18.2479L16.716 16.127C8.9708 24.4916 4.6741 35.4751 4.68753 46.8749Z" fill="black" />
  <path d="M25 4.68774C23.7639 4.68774 22.5555 5.0543 21.5277 5.74106C20.4999 6.42782 19.6988 7.40393 19.2258 8.54597C18.7527 9.68801 18.6289 10.9447 18.8701 12.1571C19.1113 13.3694 19.7065 14.4831 20.5806 15.3572C21.4547 16.2312 22.5683 16.8265 23.7807 17.0677C24.9931 17.3088 26.2497 17.185 27.3918 16.712C28.5338 16.2389 29.5099 15.4379 30.1967 14.4101C30.8834 13.3822 31.25 12.1739 31.25 10.9377C31.2482 9.28068 30.5892 7.69199 29.4175 6.52027C28.2458 5.34855 26.6571 4.68951 25 4.68774ZM25 14.0627C24.3819 14.0627 23.7778 13.8795 23.2638 13.5361C22.7499 13.1927 22.3494 12.7046 22.1129 12.1336C21.8764 11.5626 21.8145 10.9343 21.935 10.3281C22.0556 9.7219 22.3533 9.16507 22.7903 8.72804C23.2273 8.291 23.7842 7.99337 24.3903 7.87279C24.9965 7.75221 25.6249 7.8141 26.1959 8.05062C26.7669 8.28714 27.255 8.68768 27.5983 9.20159C27.9417 9.71549 28.125 10.3197 28.125 10.9377C28.1241 11.7663 27.7945 12.5606 27.2087 13.1464C26.6228 13.7323 25.8285 14.0618 25 14.0627Z" fill="black" />
  <path d="M89.0625 48.4377C89.0625 47.2016 88.6959 45.9932 88.0092 44.9654C87.3224 43.9376 86.3463 43.1365 85.2043 42.6635C84.0622 42.1905 82.8056 42.0667 81.5932 42.3078C80.3808 42.549 79.2672 43.1443 78.3931 44.0183C77.519 44.8924 76.9238 46.0061 76.6826 47.2184C76.4414 48.4308 76.5652 49.6875 77.0383 50.8295C77.5113 51.9716 78.3124 52.9477 79.3402 53.6344C80.368 54.3212 81.5764 54.6877 82.8125 54.6877C84.4696 54.686 86.0583 54.0269 87.23 52.8552C88.4017 51.6835 89.0607 50.0948 89.0625 48.4377ZM79.6875 48.4377C79.6875 47.8197 79.8708 47.2155 80.2142 46.7016C80.5575 46.1877 81.0456 45.7871 81.6166 45.5506C82.1876 45.3141 82.816 45.2522 83.4222 45.3728C84.0283 45.4934 84.5852 45.791 85.0222 46.228C85.4592 46.6651 85.7569 47.2219 85.8775 47.8281C85.998 48.4343 85.9362 49.0626 85.6996 49.6336C85.4631 50.2047 85.0626 50.6927 84.5487 51.0361C84.0348 51.3795 83.4306 51.5627 82.8125 51.5627C81.984 51.5618 81.1897 51.2323 80.6038 50.6464C80.018 50.0606 79.6885 49.2663 79.6875 48.4377Z" fill="black" />
</svg>