<svg width="100" height="100" viewBox="0 0 94 100" fill="none" xmlns="http://www.w3.org/2000/svg">
  <path d="M73.5625 75V98.4375H26.6875V75C26.6875 73.7568 27.1814 72.5645 28.0604 71.6854C28.9395 70.8064 30.1318 70.3125 31.375 70.3125H43.875C44.7038 70.3125 45.4987 69.9833 46.0847 69.3972C46.6708 68.8112 47 68.0163 47 67.1875V62.5H53.25V67.1875C53.25 68.0163 53.5792 68.8112 54.1653 69.3972C54.7513 69.9833 55.5462 70.3125 56.375 70.3125H68.875C70.1182 70.3125 71.3105 70.8064 72.1896 71.6854C73.0686 72.5645 73.5625 73.7568 73.5625 75Z" fill="#F2B3A2" />
  <path d="M73.5625 75V98.4375H45.4375C39.7598 90.04 36.2099 80.3876 35.0938 70.3125H43.875C44.7038 70.3125 45.4987 69.9833 46.0847 69.3972C46.6708 68.8112 47 68.0163 47 67.1875V62.5H53.25V67.1875C53.25 68.0163 53.5792 68.8112 54.1653 69.3972C54.7513 69.9833 55.5462 70.3125 56.375 70.3125H68.875C70.1182 70.3125 71.3105 70.8064 72.1896 71.6854C73.0686 72.5645 73.5625 73.7568 73.5625 75Z" fill="#FFECDB" />
  <path d="M67.3125 70.3125V98.4375H32.9375V70.3125H39.1875V78.125C39.1875 78.5394 39.3521 78.9368 39.6451 79.2299C39.9382 79.5229 40.3356 79.6875 40.75 79.6875H59.5C59.9144 79.6875 60.3118 79.5229 60.6049 79.2299C60.8979 78.9368 61.0625 78.5394 61.0625 78.125V70.3125H67.3125Z" fill="#B50B38" />
  <path d="M67.3125 70.3125V98.4375H45.4375C39.7598 90.04 36.2099 80.3876 35.0938 70.3125H39.1875V78.125C39.1875 78.5394 39.3521 78.9368 39.6451 79.2299C39.9382 79.5229 40.3356 79.6875 40.75 79.6875H59.5C59.9144 79.6875 60.3118 79.5229 60.6049 79.2299C60.8979 78.9368 61.0625 78.5394 61.0625 78.125V70.3125H67.3125Z" fill="#F20F4B" />
  <path d="M31.375 98.4375V81.25C31.375 80.8356 31.5396 80.4382 31.8326 80.1451C32.1257 79.8521 32.5231 79.6875 32.9375 79.6875C33.3519 79.6875 33.7493 79.8521 34.0424 80.1451C34.3354 80.4382 34.5 80.8356 34.5 81.25V98.4375H31.375Z" fill="#0E0806" />
  <path d="M65.75 93.75H68.875V98.4375H65.75V93.75Z" fill="#0E0806" />
  <path d="M54.8125 70.3125V71.875C54.8125 72.7038 54.4833 73.4987 53.8972 74.0847C53.3112 74.6708 52.5163 75 51.6875 75H50.125C47.6386 75 45.254 75.9877 43.4959 77.7459C41.7377 79.504 40.75 81.8886 40.75 84.375C40.75 86.8614 41.7377 89.246 43.4959 91.0041C45.254 92.7623 47.6386 93.75 50.125 93.75H82.9375C76.8906 93.75 72 90.9531 72 87.5C72 84.0469 76.8906 81.25 82.9375 81.25C86.3906 81.25 92.3125 78.125 92.3125 70.3125C92.3125 62.5 86.3906 59.375 82.9375 59.375C81.2799 59.375 79.6902 58.7165 78.5181 57.5444C77.346 56.3723 76.6875 54.7826 76.6875 53.125C76.6875 50.25 79.0938 47.9375 80.4219 45.5781C81.947 43.1492 82.8139 40.3653 82.9375 37.5C82.9764 35.9436 82.6945 34.3959 82.1094 32.9531C81.5469 31.5312 80.9219 30.0781 80.375 28.6875C79.079 25.5285 78.3593 22.1628 78.25 18.75C78.25 10.9375 71.7969 4.6875 65.75 4.6875C64.9016 4.58205 64.0404 4.66763 63.2293 4.93798C62.4183 5.20833 61.6779 5.65661 61.0625 6.25C57.4688 2.75 51.1094 1.5625 43.875 1.5625C38.0734 1.5625 32.5094 3.86718 28.407 7.96954C24.3047 12.0719 22 17.6359 22 23.4375C21.9332 25.5092 21.6451 27.5677 21.1406 29.5781C20.4943 31.9373 19.5986 34.221 18.4687 36.3906C16.2187 41.0312 14.1875 44.875 14.1875 50C14.1875 60.9375 21.875 70.3125 31.375 70.3125H54.8125Z" fill="#4E3318" />
  <path d="M92.3125 70.3126C92.3976 72.1456 92.0114 73.9698 91.1908 75.6111C90.3702 77.2524 89.1425 78.6559 87.625 79.6876C58.2812 79.6876 34.5 46.1095 34.5 4.68758C34.5 4.34383 34.5 4.01571 34.5 3.67196C37.4273 2.27462 40.6314 1.5537 43.875 1.56258C51.1094 1.56258 57.4688 2.75008 61.0625 6.25008C61.6779 5.65669 62.4183 5.20841 63.2293 4.93806C64.0404 4.66771 64.9016 4.58213 65.75 4.68758C71.7969 4.68758 78.25 10.9376 78.25 18.7501C78.3593 22.1629 79.079 25.5285 80.375 28.6876C80.9219 30.0782 81.5469 31.5313 82.1094 32.9532C82.6945 34.3959 82.9764 35.9437 82.9375 37.5001C82.8139 40.3654 81.947 43.1493 80.4219 45.5782C79.0938 47.9376 76.6875 50.2501 76.6875 53.1251C76.6875 54.7827 77.346 56.3724 78.5181 57.5445C79.6902 58.7166 81.2799 59.3751 82.9375 59.3751C86.3906 59.3751 92.3125 62.5001 92.3125 70.3126Z" fill="#613F1E" />
  <path d="M43.875 70.3125C44.7038 70.3125 45.4987 69.9833 46.0847 69.3972C46.6708 68.8112 47 68.0163 47 67.1875V62.5H53.25V67.1875C53.2533 67.7329 53.3992 68.2679 53.6734 68.7393C53.9475 69.2108 54.3402 69.6023 54.8125 69.875V71.875H43.875V70.3125Z" fill="#FFECDB" />
  <path d="M53.25 62.5V66.9688C51.1769 67.2603 49.0731 67.2603 47 66.9688V62.5H53.25Z" fill="#CA9587" />
  <path d="M31.375 37.5V45.3125C31.375 50.2853 33.3504 55.0544 36.8667 58.5708C40.3831 62.0871 45.1522 64.0625 50.125 64.0625C55.0978 64.0625 59.8669 62.0871 63.3833 58.5708C66.8996 55.0544 68.875 50.2853 68.875 45.3125V35.6719C64.4375 34.1875 61.0625 26.5625 61.0625 17.1875C61.0625 25 54.0625 31.25 45.4375 31.25C39.1875 31.25 33.8906 33.8125 31.375 37.5Z" fill="#F2B3A2" />
  <path d="M68.875 35.6719V45.3125C68.8744 49.4937 67.4762 53.5547 64.9028 56.85C62.3293 60.1454 58.7282 62.4861 54.6719 63.5C46.9319 54.5348 41.3276 43.9299 38.2812 32.4844C40.5744 31.651 42.9977 31.233 45.4375 31.25C54.0625 31.25 61.0625 25 61.0625 17.1875C61.0625 26.5625 64.4375 34.1875 68.875 35.6719Z" fill="#FFECDB" />
  <path d="M29.8125 43.75C29.3981 43.75 29.0007 43.5854 28.7076 43.2924C28.4146 42.9993 28.25 42.6019 28.25 42.1875C28.25 35.1719 35.7969 29.6875 45.4375 29.6875C53.25 29.6875 59.5 24.0781 59.5 17.1875C59.5 16.7731 59.6646 16.3757 59.9576 16.0826C60.2507 15.7896 60.6481 15.625 61.0625 15.625C61.4769 15.625 61.8743 15.7896 62.1674 16.0826C62.4604 16.3757 62.625 16.7731 62.625 17.1875C62.625 27.3125 66.75 34.375 70.4375 34.375C70.8519 34.375 71.2493 34.5396 71.5424 34.8326C71.8354 35.1257 72 35.5231 72 35.9375C72 36.3519 71.8354 36.7493 71.5424 37.0424C71.2493 37.3354 70.8519 37.5 70.4375 37.5C65.75 37.5 61.9375 32.4062 60.3125 25C58.6813 27.4394 56.4659 29.4321 53.8679 30.7966C51.2698 32.1612 48.3718 32.8541 45.4375 32.8125C37.5469 32.8125 31.375 36.9375 31.375 42.1875C31.375 42.6019 31.2104 42.9993 30.9174 43.2924C30.6243 43.5854 30.2269 43.75 29.8125 43.75Z" fill="#412A14" />
  <path d="M70.4375 23.4375C70.0231 23.4375 69.6257 23.2729 69.3326 22.9799C69.0396 22.6868 68.875 22.2894 68.875 21.875V20.3125C68.875 19.8981 69.0396 19.5007 69.3326 19.2076C69.6257 18.9146 70.0231 18.75 70.4375 18.75C70.8519 18.75 71.2493 18.9146 71.5424 19.2076C71.8354 19.5007 72 19.8981 72 20.3125V21.875C72 22.2894 71.8354 22.6868 71.5424 22.9799C71.2493 23.2729 70.8519 23.4375 70.4375 23.4375Z" fill="#E7E5E0" />
  <path d="M26.6875 60.9375C26.2731 60.9375 25.8757 60.7729 25.5826 60.4799C25.2896 60.1868 25.125 59.7894 25.125 59.375V57.8125C25.125 57.3981 25.2896 57.0007 25.5826 56.7076C25.8757 56.4146 26.2731 56.25 26.6875 56.25C27.1019 56.25 27.4993 56.4146 27.7924 56.7076C28.0854 57.0007 28.25 57.3981 28.25 57.8125V59.375C28.25 59.7894 28.0854 60.1868 27.7924 60.4799C27.4993 60.7729 27.1019 60.9375 26.6875 60.9375Z" fill="#613F1E" />
  <path d="M37.625 37.5C37.2106 37.5 36.8132 37.3354 36.5201 37.0424C36.2271 36.7493 36.0625 36.3519 36.0625 35.9375V28.125C36.0625 27.7106 36.2271 27.3132 36.5201 27.0201C36.8132 26.7271 37.2106 26.5625 37.625 26.5625C38.0394 26.5625 38.4368 26.7271 38.7299 27.0201C39.0229 27.3132 39.1875 27.7106 39.1875 28.125V35.9375C39.1875 36.3519 39.0229 36.7493 38.7299 37.0424C38.4368 37.3354 38.0394 37.5 37.625 37.5Z" fill="#E7E5E0" />
  <path d="M42.3125 28.125C41.8981 28.125 41.5007 27.9604 41.2076 27.6674C40.9146 27.3743 40.75 26.9769 40.75 26.5625V25C40.75 24.5856 40.9146 24.1882 41.2076 23.8951C41.5007 23.6021 41.8981 23.4375 42.3125 23.4375C42.7269 23.4375 43.1243 23.6021 43.4174 23.8951C43.7104 24.1882 43.875 24.5856 43.875 25V26.5625C43.875 26.9769 43.7104 27.3743 43.4174 27.6674C43.1243 27.9604 42.7269 28.125 42.3125 28.125Z" fill="#C8C2B5" />
  <path d="M47 28.125C46.5856 28.125 46.1882 27.9604 45.8951 27.6674C45.6021 27.3743 45.4375 26.9769 45.4375 26.5625V18.75C45.4375 18.3356 45.6021 17.9382 45.8951 17.6451C46.1882 17.3521 46.5856 17.1875 47 17.1875C47.4144 17.1875 47.8118 17.3521 48.1049 17.6451C48.3979 17.9382 48.5625 18.3356 48.5625 18.75V26.5625C48.5625 26.9769 48.3979 27.3743 48.1049 27.6674C47.8118 27.9604 47.4144 28.125 47 28.125Z" fill="#E7E5E0" />
  <path d="M29.8125 25C29.8125 28.7296 28.3309 32.3065 25.6937 34.9437C23.0565 37.5809 19.4796 39.0625 15.75 39.0625C12.0204 39.0625 8.44354 37.5809 5.80631 34.9437C3.16908 32.3065 1.6875 28.7296 1.6875 25C1.6875 19.0156 5.89062 12.5781 9.6875 7.96875C11.5563 5.69446 13.5821 3.55381 15.75 1.5625C15.75 1.5625 29.8125 14.0625 29.8125 25Z" fill="#415FB5" />
  <path d="M29.8125 25C29.8098 27.2617 29.2615 29.4895 28.2143 31.4942C27.1671 33.4989 25.6517 35.2214 23.7969 36.5156C16.4219 33.2344 10.7656 21.9531 9.73438 7.96875C11.5882 5.69605 13.5983 3.55543 15.75 1.5625C15.75 1.5625 29.8125 14.0625 29.8125 25Z" fill="#577EF2" />
  <path d="M9.5 31.25C8.6712 31.25 7.87634 30.9208 7.29029 30.3347C6.70424 29.7487 6.375 28.9538 6.375 28.125V26.5625C6.375 25.7337 6.70424 24.9388 7.29029 24.3528C7.87634 23.7667 8.6712 23.4375 9.5 23.4375C10.3288 23.4375 11.1237 23.7667 11.7097 24.3528C12.2958 24.9388 12.625 25.7337 12.625 26.5625V28.125C12.625 28.9538 12.2958 29.7487 11.7097 30.3347C11.1237 30.9208 10.3288 31.25 9.5 31.25Z" fill="#364F97" />
  <path d="M9.5 29.6875C9.0856 29.6875 8.68817 29.5229 8.39515 29.2299C8.10212 28.9368 7.9375 28.5394 7.9375 28.125V26.5625C7.9375 26.1481 8.10212 25.7507 8.39515 25.4576C8.68817 25.1646 9.0856 25 9.5 25C9.9144 25 10.3118 25.1646 10.6049 25.4576C10.8979 25.7507 11.0625 26.1481 11.0625 26.5625V28.125C11.0625 28.5394 10.8979 28.9368 10.6049 29.2299C10.3118 29.5229 9.9144 29.6875 9.5 29.6875Z" fill="#0E0806" />
  <path d="M22 20.3125C21.5856 20.3125 21.1882 20.1479 20.8951 19.8549C20.6021 19.5618 20.4375 19.1644 20.4375 18.75V17.1875C20.4375 16.7731 20.6021 16.3757 20.8951 16.0826C21.1882 15.7896 21.5856 15.625 22 15.625C22.4144 15.625 22.8118 15.7896 23.1049 16.0826C23.3979 16.3757 23.5625 16.7731 23.5625 17.1875V18.75C23.5625 19.1644 23.3979 19.5618 23.1049 19.8549C22.8118 20.1479 22.4144 20.3125 22 20.3125Z" fill="#E7E5E0" />
  <path d="M51.6875 56.25H48.5625C48.1481 56.25 47.7507 56.0854 47.4576 55.7924C47.1646 55.4993 47 55.1019 47 54.6875C47 54.2731 47.1646 53.8757 47.4576 53.5826C47.7507 53.2896 48.1481 53.125 48.5625 53.125H51.6875C52.1019 53.125 52.4993 53.2896 52.7924 53.5826C53.0854 53.8757 53.25 54.2731 53.25 54.6875C53.25 55.1019 53.0854 55.4993 52.7924 55.7924C52.4993 56.0854 52.1019 56.25 51.6875 56.25Z" fill="#0E0806" />
  <path d="M40.75 43.75H37.625C37.2106 43.75 36.8132 43.5854 36.5201 43.2924C36.2271 42.9993 36.0625 42.6019 36.0625 42.1875C36.0625 41.7731 36.2271 41.3757 36.5201 41.0826C36.8132 40.7896 37.2106 40.625 37.625 40.625H40.75C40.75 40.2106 40.9146 39.8132 41.2076 39.5201C41.5007 39.2271 41.8981 39.0625 42.3125 39.0625C42.7269 39.0625 43.1243 39.2271 43.4174 39.5201C43.7104 39.8132 43.875 40.2106 43.875 40.625C43.875 41.4538 43.5458 42.2487 42.9597 42.8347C42.3737 43.4208 41.5788 43.75 40.75 43.75Z" fill="#0E0806" />
  <path d="M62.625 43.75H59.5C58.6712 43.75 57.8763 43.4208 57.2903 42.8347C56.7042 42.2487 56.375 41.4538 56.375 40.625C56.375 40.2106 56.5396 39.8132 56.8326 39.5201C57.1257 39.2271 57.5231 39.0625 57.9375 39.0625C58.3519 39.0625 58.7493 39.2271 59.0424 39.5201C59.3354 39.8132 59.5 40.2106 59.5 40.625H62.625C63.0394 40.625 63.4368 40.7896 63.7299 41.0826C64.0229 41.3757 64.1875 41.7731 64.1875 42.1875C64.1875 42.6019 64.0229 42.9993 63.7299 43.2924C63.4368 43.5854 63.0394 43.75 62.625 43.75Z" fill="#0E0806" />
  <path d="M26.6875 100C26.2731 100 25.8757 99.8354 25.5826 99.5424C25.2896 99.2493 25.125 98.8519 25.125 98.4375V75C25.125 73.3424 25.7835 71.7527 26.9556 70.5806C28.1277 69.4085 29.7174 68.75 31.375 68.75H43.875C44.2894 68.75 44.6868 68.5854 44.9799 68.2924C45.2729 67.9993 45.4375 67.6019 45.4375 67.1875V64.0625C45.4375 63.6481 45.6021 63.2507 45.8951 62.9576C46.1882 62.6646 46.5856 62.5 47 62.5C47.4144 62.5 47.8118 62.6646 48.1049 62.9576C48.3979 63.2507 48.5625 63.6481 48.5625 64.0625V67.1875C48.5625 68.4307 48.0686 69.623 47.1896 70.5021C46.3105 71.3811 45.1182 71.875 43.875 71.875H31.375C30.5462 71.875 29.7513 72.2042 29.1653 72.7903C28.5792 73.3763 28.25 74.1712 28.25 75V98.4375C28.25 98.8519 28.0854 99.2493 27.7924 99.5424C27.4993 99.8354 27.1019 100 26.6875 100Z" fill="#0E0806" />
  <path d="M32.9375 100C32.5231 100 32.1257 99.8354 31.8326 99.5424C31.5396 99.2493 31.375 98.8519 31.375 98.4375V70.3125C31.375 69.8981 31.5396 69.5007 31.8326 69.2076C32.1257 68.9146 32.5231 68.75 32.9375 68.75C33.3519 68.75 33.7493 68.9146 34.0424 69.2076C34.3354 69.5007 34.5 69.8981 34.5 70.3125V98.4375C34.5 98.8519 34.3354 99.2493 34.0424 99.5424C33.7493 99.8354 33.3519 100 32.9375 100Z" fill="#0E0806" />
  <path d="M73.5625 100C73.1481 100 72.7507 99.8354 72.4576 99.5424C72.1646 99.2493 72 98.8519 72 98.4375V93.75C72 93.3356 72.1646 92.9382 72.4576 92.6451C72.7507 92.3521 73.1481 92.1875 73.5625 92.1875C73.9769 92.1875 74.3743 92.3521 74.6674 92.6451C74.9604 92.9382 75.125 93.3356 75.125 93.75V98.4375C75.125 98.8519 74.9604 99.2493 74.6674 99.5424C74.3743 99.8354 73.9769 100 73.5625 100Z" fill="#0E0806" />
  <path d="M54.8125 71.4531C54.5388 71.455 54.2694 71.385 54.0313 71.25C53.3182 70.8383 52.7262 70.2461 52.3148 69.533C51.9033 68.8198 51.687 68.0108 51.6875 67.1875V64.0625C51.6875 63.6481 51.8521 63.2507 52.1451 62.9576C52.4382 62.6646 52.8356 62.5 53.25 62.5C53.6644 62.5 54.0618 62.6646 54.3549 62.9576C54.6479 63.2507 54.8125 63.6481 54.8125 64.0625V67.1875C54.8114 67.4628 54.8831 67.7336 55.0203 67.9723C55.1575 68.211 55.3553 68.4092 55.5938 68.5469C55.9511 68.753 56.2125 69.0921 56.3208 69.4902C56.4291 69.8883 56.3756 70.3131 56.1719 70.6719C56.0342 70.9103 55.836 71.1082 55.5973 71.2453C55.3586 71.3825 55.0878 71.4542 54.8125 71.4531Z" fill="#0E0806" />
  <path d="M67.3125 100C66.8981 100 66.5007 99.8354 66.2076 99.5424C65.9146 99.2493 65.75 98.8519 65.75 98.4375V93.75C65.75 93.3356 65.9146 92.9382 66.2076 92.6451C66.5007 92.3521 66.8981 92.1875 67.3125 92.1875C67.7269 92.1875 68.1243 92.3521 68.4174 92.6451C68.7104 92.9382 68.875 93.3356 68.875 93.75V98.4375C68.875 98.8519 68.7104 99.2493 68.4174 99.5424C68.1243 99.8354 67.7269 100 67.3125 100Z" fill="#0E0806" />
  <path d="M31.375 71.8751C21.2188 71.8751 12.625 61.8595 12.625 50.0001C12.7482 45.9397 13.8183 41.9643 15.75 38.3907C15.8284 38.191 15.9472 38.0095 16.0988 37.8577C16.2505 37.7059 16.4318 37.5869 16.6314 37.5082C16.8311 37.4296 17.0448 37.3928 17.2593 37.4004C17.4737 37.4079 17.6843 37.4596 17.8779 37.5521C18.0716 37.6446 18.2441 37.776 18.3847 37.9381C18.5253 38.1002 18.631 38.2895 18.6952 38.4943C18.7595 38.699 18.7808 38.9148 18.758 39.1282C18.7351 39.3416 18.6686 39.5479 18.5625 39.7345C16.833 42.8885 15.8696 46.405 15.75 50.0001C15.75 60.1563 22.9062 68.7501 31.375 68.7501C31.7894 68.7501 32.1868 68.9147 32.4799 69.2077C32.7729 69.5008 32.9375 69.8982 32.9375 70.3126C32.9375 70.727 32.7729 71.1244 32.4799 71.4175C32.1868 71.7105 31.7894 71.8751 31.375 71.8751Z" fill="#0E0806" />
  <path d="M82.9355 95.3126H50.123C47.2222 95.3126 44.4402 94.1602 42.3891 92.1091C40.3379 90.0579 39.1855 87.2759 39.1855 84.3751C39.1855 81.4743 40.3379 78.6923 42.3891 76.6411C44.4402 74.5899 47.2222 73.4376 50.123 73.4376H51.6855C52.0999 73.4376 52.4974 73.273 52.7904 72.9799C53.0834 72.6869 53.248 72.2895 53.248 71.8751V64.0626C53.248 63.6482 53.4127 63.2507 53.7057 62.9577C53.9987 62.6647 54.3961 62.5001 54.8105 62.5001C55.2249 62.5001 55.6224 62.6647 55.9154 62.9577C56.2084 63.2507 56.373 63.6482 56.373 64.0626V71.8751C56.373 73.1183 55.8792 74.3106 55.0001 75.1896C54.121 76.0687 52.9287 76.5626 51.6855 76.5626H50.123C48.051 76.5626 46.0639 77.3857 44.5988 78.8508C43.1336 80.3159 42.3105 82.3031 42.3105 84.3751C42.3105 86.4471 43.1336 88.4342 44.5988 89.8994C46.0639 91.3645 48.051 92.1876 50.123 92.1876H72.873C72.1491 91.6316 71.5557 90.9239 71.1346 90.1141C70.7135 89.3042 70.4749 88.412 70.4355 87.5001C70.4355 83.1251 75.9199 79.6876 82.9355 79.6876C85.3887 79.6876 90.748 77.3282 90.748 70.3126C90.748 63.297 85.3887 60.9376 82.9355 60.9376C80.8635 60.9376 78.8764 60.1145 77.4113 58.6493C75.9461 57.1842 75.123 55.1971 75.123 53.1251C75.3362 50.7512 76.2806 48.502 77.8262 46.6876C78.2793 46.0313 78.7168 45.4063 79.0605 44.8126C80.4546 42.6179 81.2518 40.0973 81.373 37.5001C81.4122 36.1416 81.1674 34.7898 80.6543 33.5313C80.4199 32.922 80.1543 32.297 79.8887 31.672C79.623 31.047 79.2168 30.1095 78.9199 29.2657C77.5377 25.9268 76.7803 22.3625 76.6855 18.7501C76.6855 11.6876 70.8105 6.25008 65.748 6.25008C65.1065 6.14934 64.4504 6.19695 63.8301 6.38926C63.2099 6.58157 62.6419 6.91346 62.1699 7.35945C61.8772 7.65047 61.4811 7.81382 61.0683 7.81382C60.6556 7.81382 60.2595 7.65047 59.9668 7.35945C57.0762 4.54695 51.6855 3.12508 43.873 3.12508C40.3664 3.11136 36.9167 4.01204 33.8643 5.73826C30.8119 7.46448 28.2622 9.95662 26.4668 12.9688C26.2393 13.2817 25.9038 13.499 25.5253 13.5787C25.1468 13.6585 24.7522 13.595 24.4178 13.4006C24.0834 13.2062 23.833 12.8946 23.715 12.5263C23.5971 12.1579 23.62 11.7588 23.7793 11.4063C25.8474 7.92182 28.7886 5.03697 32.3125 3.03664C35.8364 1.03631 39.821 -0.0103239 43.873 7.67643e-05C51.8105 7.67643e-05 57.4668 1.37508 61.0605 4.2032C62.4708 3.35981 64.111 2.98255 65.748 3.12508C72.3887 3.12508 79.8105 9.81258 79.8105 18.7501C79.905 21.9719 80.5881 25.1492 81.8262 28.1251C82.123 28.8907 82.4512 29.6876 82.7793 30.4688L83.5605 32.3751C84.2242 34.0002 84.5434 35.7453 84.498 37.5001C84.3658 40.6325 83.4295 43.6781 81.7793 46.3438C81.3532 47.0659 80.889 47.7648 80.3887 48.4376C79.2366 49.76 78.4929 51.3884 78.248 53.1251C78.248 54.3683 78.7419 55.5606 79.621 56.4396C80.5 57.3187 81.6923 57.8126 82.9355 57.8126C87.3418 57.8126 93.873 61.7813 93.873 70.3126C93.873 78.8438 87.3418 82.8126 82.9355 82.8126C77.4043 82.8126 73.5605 85.2813 73.5605 87.5001C73.5605 89.7188 77.4043 92.1876 82.9355 92.1876C83.3499 92.1876 83.7474 92.3522 84.0404 92.6452C84.3334 92.9382 84.498 93.3357 84.498 93.7501C84.498 94.1645 84.3334 94.5619 84.0404 94.8549C83.7474 95.148 83.3499 95.3126 82.9355 95.3126Z" fill="#0E0806" />
  <path d="M40.75 81.25C39.9212 81.25 39.1263 80.9208 38.5403 80.3347C37.9542 79.7487 37.625 78.9538 37.625 78.125V70.3125H40.75V81.25Z" fill="#0E0806" />
  <path d="M50.125 65.625C44.7378 65.625 39.5712 63.4849 35.7619 59.6756C31.9526 55.8663 29.8125 50.6997 29.8125 45.3125V37.5C29.8125 37.0856 29.9771 36.6882 30.2701 36.3951C30.5632 36.1021 30.9606 35.9375 31.375 35.9375C31.7894 35.9375 32.1868 36.1021 32.4799 36.3951C32.7729 36.6882 32.9375 37.0856 32.9375 37.5V45.3125C32.9375 49.8709 34.7483 54.2426 37.9716 57.4659C41.1949 60.6892 45.5666 62.5 50.125 62.5C54.6834 62.5 59.0551 60.6892 62.2784 57.4659C65.5017 54.2426 67.3125 49.8709 67.3125 45.3125V35.9375C67.3125 35.5231 67.4771 35.1257 67.7701 34.8326C68.0632 34.5396 68.4606 34.375 68.875 34.375C69.2894 34.375 69.6868 34.5396 69.9799 34.8326C70.2729 35.1257 70.4375 35.5231 70.4375 35.9375V45.3125C70.4375 50.6997 68.2974 55.8663 64.4881 59.6756C60.6788 63.4849 55.5122 65.625 50.125 65.625Z" fill="#0E0806" />
  <path d="M29.8125 43.75C29.3981 43.75 29.0007 43.5854 28.7076 43.2924C28.4146 42.9993 28.25 42.6019 28.25 42.1875C28.25 35.1719 35.7969 29.6875 45.4375 29.6875C53.25 29.6875 59.5 24.0781 59.5 17.1875C59.5 16.7731 59.6646 16.3757 59.9576 16.0826C60.2507 15.7896 60.6481 15.625 61.0625 15.625C61.4769 15.625 61.8743 15.7896 62.1674 16.0826C62.4604 16.3757 62.625 16.7731 62.625 17.1875C62.625 27.3125 66.75 34.375 70.4375 34.375C70.8519 34.375 71.2493 34.5396 71.5424 34.8326C71.8354 35.1257 72 35.5231 72 35.9375C72 36.3519 71.8354 36.7493 71.5424 37.0424C71.2493 37.3354 70.8519 37.5 70.4375 37.5C65.75 37.5 61.9375 32.4062 60.3125 25C58.6813 27.4394 56.4659 29.4321 53.8679 30.7966C51.2698 32.1612 48.3718 32.8541 45.4375 32.8125C37.5469 32.8125 31.375 36.9375 31.375 42.1875C31.375 42.6019 31.2104 42.9993 30.9174 43.2924C30.6243 43.5854 30.2269 43.75 29.8125 43.75Z" fill="#0E0806" />
  <path d="M15.75 40.625C13.6981 40.625 11.6663 40.2208 9.77057 39.4356C7.87486 38.6504 6.15237 37.4994 4.70146 36.0485C1.7712 33.1183 0.125 29.144 0.125 25C0.125 13.5 14.1875 0.921851 14.7188 0.390601C15.0039 0.140102 15.3705 0.00195313 15.75 0.00195312C16.1295 0.00195313 16.4961 0.140102 16.7812 0.390601C17.3906 0.921851 31.375 13.5 31.375 25C31.375 29.144 29.7288 33.1183 26.7985 36.0485C23.8683 38.9788 19.894 40.625 15.75 40.625ZM15.75 3.7031C12.625 6.8281 3.25 16.5781 3.25 25C3.25 28.3152 4.56696 31.4946 6.91117 33.8388C9.25537 36.183 12.4348 37.5 15.75 37.5C19.0652 37.5 22.2446 36.183 24.5888 33.8388C26.933 31.4946 28.25 28.3152 28.25 25C28.25 16.5781 18.875 6.78123 15.75 3.7031Z" fill="#0E0806" />
  <path d="M9.5 29.6875C9.0856 29.6875 8.68817 29.5229 8.39515 29.2299C8.10212 28.9368 7.9375 28.5394 7.9375 28.125V26.5625C7.9375 26.1481 8.10212 25.7507 8.39515 25.4576C8.68817 25.1646 9.0856 25 9.5 25C9.9144 25 10.3118 25.1646 10.6049 25.4576C10.8979 25.7507 11.0625 26.1481 11.0625 26.5625V28.125C11.0625 28.5394 10.8979 28.9368 10.6049 29.2299C10.3118 29.5229 9.9144 29.6875 9.5 29.6875Z" fill="#0E0806" />
  <path d="M37.625 37.5C37.2106 37.5 36.8132 37.3354 36.5201 37.0424C36.2271 36.7493 36.0625 36.3519 36.0625 35.9375V28.125C36.0625 27.7106 36.2271 27.3132 36.5201 27.0201C36.8132 26.7271 37.2106 26.5625 37.625 26.5625C38.0394 26.5625 38.4368 26.7271 38.7299 27.0201C39.0229 27.3132 39.1875 27.7106 39.1875 28.125V35.9375C39.1875 36.3519 39.0229 36.7493 38.7299 37.0424C38.4368 37.3354 38.0394 37.5 37.625 37.5Z" fill="#0E0806" />
  <path d="M42.3125 28.125C41.8981 28.125 41.5007 27.9604 41.2076 27.6674C40.9146 27.3743 40.75 26.9769 40.75 26.5625V25C40.75 24.5856 40.9146 24.1882 41.2076 23.8951C41.5007 23.6021 41.8981 23.4375 42.3125 23.4375C42.7269 23.4375 43.1243 23.6021 43.4174 23.8951C43.7104 24.1882 43.875 24.5856 43.875 25V26.5625C43.875 26.9769 43.7104 27.3743 43.4174 27.6674C43.1243 27.9604 42.7269 28.125 42.3125 28.125Z" fill="#0E0806" />
  <path d="M47 28.125C46.5856 28.125 46.1882 27.9604 45.8951 27.6674C45.6021 27.3743 45.4375 26.9769 45.4375 26.5625V18.75C45.4375 18.3356 45.6021 17.9382 45.8951 17.6451C46.1882 17.3521 46.5856 17.1875 47 17.1875C47.4144 17.1875 47.8118 17.3521 48.1049 17.6451C48.3979 17.9382 48.5625 18.3356 48.5625 18.75V26.5625C48.5625 26.9769 48.3979 27.3743 48.1049 27.6674C47.8118 27.9604 47.4144 28.125 47 28.125Z" fill="#0E0806" />
  <path d="M51.6875 56.25H48.5625C48.1481 56.25 47.7507 56.0854 47.4576 55.7924C47.1646 55.4993 47 55.1019 47 54.6875C47 54.2731 47.1646 53.8757 47.4576 53.5826C47.7507 53.2896 48.1481 53.125 48.5625 53.125H51.6875C52.1019 53.125 52.4993 53.2896 52.7924 53.5826C53.0854 53.8757 53.25 54.2731 53.25 54.6875C53.25 55.1019 53.0854 55.4993 52.7924 55.7924C52.4993 56.0854 52.1019 56.25 51.6875 56.25Z" fill="#0E0806" />
  <path d="M40.75 43.75H37.625C37.2106 43.75 36.8132 43.5854 36.5201 43.2924C36.2271 42.9993 36.0625 42.6019 36.0625 42.1875C36.0625 41.7731 36.2271 41.3757 36.5201 41.0826C36.8132 40.7896 37.2106 40.625 37.625 40.625H40.75C40.75 40.2106 40.9146 39.8132 41.2076 39.5201C41.5007 39.2271 41.8981 39.0625 42.3125 39.0625C42.7269 39.0625 43.1243 39.2271 43.4174 39.5201C43.7104 39.8132 43.875 40.2106 43.875 40.625C43.875 41.4538 43.5458 42.2487 42.9597 42.8347C42.3737 43.4208 41.5788 43.75 40.75 43.75Z" fill="#0E0806" />
  <path d="M62.625 43.75H59.5C58.6712 43.75 57.8763 43.4208 57.2903 42.8347C56.7042 42.2487 56.375 41.4538 56.375 40.625C56.375 40.2106 56.5396 39.8132 56.8326 39.5201C57.1257 39.2271 57.5231 39.0625 57.9375 39.0625C58.3519 39.0625 58.7493 39.2271 59.0424 39.5201C59.3354 39.8132 59.5 40.2106 59.5 40.625H62.625C63.0394 40.625 63.4368 40.7896 63.7299 41.0826C64.0229 41.3757 64.1875 41.7731 64.1875 42.1875C64.1875 42.6019 64.0229 42.9993 63.7299 43.2924C63.4368 43.5854 63.0394 43.75 62.625 43.75Z" fill="#0E0806" />
</svg>