<svg width="100" height="100" viewBox="0 0 82 100" fill="none" xmlns="http://www.w3.org/2000/svg">
  <path d="M49.1478 98.5351H18.5391C18.5391 90.0834 25.3911 83.2314 33.8442 83.2314C38.07 83.2314 41.8954 84.9449 44.665 87.7143C47.4345 90.4836 49.1478 94.3091 49.1478 98.5351Z" fill="#9BE69D" />
  <path d="M37.9021 83.7752C31.4175 85.5512 26.653 91.4872 26.653 98.5351H18.5391C18.5391 90.0834 25.3926 83.2314 33.8442 83.2314C35.2497 83.2316 36.6105 83.4211 37.9021 83.7752Z" fill="#6FD7A3" />
  <path d="M62.3613 48.0046C63.3279 48.9712 63.9275 50.3103 63.9275 51.7877C63.9275 54.7439 61.5328 57.1387 58.5765 57.1387H7.31976C5.84084 57.1387 4.50353 56.5391 3.53497 55.5725C2.56836 54.6041 1.96875 53.2668 1.96875 51.7877C1.96875 48.8334 4.36349 46.4367 7.31976 46.4367C7.31976 46.4367 0.286318 38.511 7.31976 30.4801C12.3219 24.7694 22.2661 29.0211 23.0275 29.359C23.0402 29.3645 23.0511 29.3682 23.0638 29.3735C23.0675 29.3752 23.071 29.3772 23.0747 29.3789C23.0747 29.3789 27.9005 18.2719 40.7575 25.5287C55.92 34.0866 64.1492 26.161 64.1492 26.161C68.1756 33.785 62.8629 44.6687 58.2058 46.4365H58.5765C60.0556 46.4367 61.3927 47.0363 62.3613 48.0046Z" fill="#685E68" />
  <path d="M19.4026 52.2727C21.1542 53.6391 21.9464 55.3126 22.0736 57.1386H7.31976C5.84084 57.1386 4.50353 56.539 3.53497 55.5723C2.56836 54.604 1.96875 53.2667 1.96875 51.7876C1.96875 48.8332 4.36349 46.4365 7.31976 46.4365C7.31976 46.4365 0.286318 38.5109 7.31976 30.48C12.3219 24.7692 22.2661 29.021 23.0275 29.3589C15.6833 26.2101 9.92348 44.8887 19.4026 52.2727Z" fill="#554E56" />
  <path d="M60.4972 59.5536C60.4972 63.3247 58.245 66.3808 55.4657 66.3808C54.2102 66.3808 53.0637 65.7564 52.1823 64.7234C51.2745 71.5226 46.6746 77.1537 40.4652 79.5344C39.9463 79.7338 39.4141 79.91 38.8738 80.0633V82.8541C38.8738 84.2446 38.3103 85.5016 37.401 86.4127C36.4898 87.3221 35.2312 87.8856 33.8423 87.8856C31.063 87.8856 28.8109 85.6334 28.8109 82.8541V80.0633C21.8057 78.0879 16.486 72.091 15.5024 64.7236C14.6209 65.7566 13.4743 66.381 12.219 66.381C9.43966 66.381 7.1875 63.3249 7.1875 59.5538C7.1875 55.7827 9.43966 52.7266 12.219 52.7266C13.3969 52.7266 14.4809 53.2786 15.3377 54.1995C22.9722 52.776 25.712 44.0098 25.712 44.0098C25.712 44.0098 31.6068 54.221 51.8298 49.3493C52.1692 50.7463 52.3471 52.2043 52.3471 53.7051V54.1995C53.2038 53.2786 54.288 52.7266 55.4659 52.7266C58.245 52.7264 60.4972 55.7825 60.4972 59.5536Z" fill="#FFDFCF" />
  <path d="M40.4652 79.5343C39.9463 79.7337 39.4141 79.9099 38.8738 80.0632V82.8541C38.8738 84.2445 38.3103 85.5016 37.401 86.4127C36.4898 87.3221 35.2312 87.8856 33.8423 87.8856C31.063 87.8856 28.8109 85.6334 28.8109 82.8541V80.0632C21.8057 78.0878 16.486 72.0909 15.5024 64.7235C14.6209 65.7565 13.4743 66.3809 12.219 66.3809C9.43966 66.3809 7.1875 63.3249 7.1875 59.5537C7.1875 55.7826 9.43966 52.7266 12.219 52.7266C13.3969 52.7266 14.4809 53.2785 15.3377 54.1994C16.4448 53.9936 17.4481 53.6326 18.3544 53.1664C18.3477 54.4713 18.3444 55.3674 18.3444 55.608C18.3444 68.2558 27.5423 78.5099 38.8887 78.5099C39.4865 78.5097 40.0137 78.8804 40.4652 79.5343Z" fill="#FFCEBF" />
  <path d="M54.0938 60.8043C54.0938 60.8043 54.4773 58.2293 56.5043 57.1885C56.5043 57.1885 58.0697 59.2703 56.8279 61.2426C55.5861 63.2149 54.0938 60.8043 54.0938 60.8043Z" fill="#FFCEBF" />
  <path d="M13.5959 60.8043C13.5959 60.8043 13.2123 58.2293 11.1854 57.1885C11.1854 57.1885 9.61992 59.2703 10.8617 61.2426C12.1035 63.2149 13.5959 60.8043 13.5959 60.8043Z" fill="#FFB09E" />
  <path d="M58.824 13.307L49.9579 30.6751C49.3677 31.8312 50.2075 33.2027 51.5056 33.2027H59.6113C60.7914 33.2027 61.6281 34.3536 61.2642 35.4761L57.5636 46.8899C57.0005 48.6266 59.1541 49.9455 60.4451 48.6545L76.7958 32.3038C77.8903 31.2093 77.1151 29.3376 75.5671 29.3376H72.2942C70.8526 29.3376 70.0379 27.6833 70.917 26.5405L79.6741 15.1565C80.553 14.0139 79.7386 12.3594 78.297 12.3594H60.3715C59.7185 12.3596 59.1207 12.7256 58.824 13.307Z" fill="#FEF056" />
  <path d="M57.8114 33.2017H51.5051C50.2071 33.2017 49.3674 31.8316 49.9583 30.6755L58.8232 13.3061C59.121 12.7246 59.7187 12.3594 60.3724 12.3594H66.6763C66.025 12.3594 65.4273 12.7246 65.1294 13.3061L56.262 30.6755C55.6737 31.8316 56.5134 33.2017 57.8114 33.2017Z" fill="#FEDF30" />
  <path d="M67.5661 35.4772L64.6608 44.4352L60.4411 48.655C59.1501 49.946 56.9961 48.627 57.5614 46.8893L61.26 35.4772C61.6253 34.3537 60.7878 33.2021 59.6085 33.2021H65.9124C67.0939 33.2021 67.929 34.3535 67.5661 35.4772Z" fill="#FEDF30" />
  <path d="M37.7334 2.21915L30.6765 16.0429C30.2067 16.963 30.8751 18.0546 31.9083 18.0546H38.3599C39.2992 18.0546 39.9652 18.9708 39.6755 19.8642L36.73 28.9488C36.2818 30.3312 37.9959 31.3808 39.0236 30.3533L52.0377 17.3392C52.909 16.4679 52.2918 14.9782 51.0598 14.9782H48.4549C47.3074 14.9782 46.6592 13.6614 47.3588 12.752L54.3288 3.69103C55.0284 2.78165 54.3801 1.46484 53.2327 1.46484H38.9652C38.4455 1.46484 37.9697 1.75625 37.7334 2.21915Z" fill="#FEF056" />
  <path d="M36.9274 18.054H31.908C30.875 18.054 30.2064 16.9636 30.6768 16.0432L37.7327 2.21836C37.9696 1.75547 38.4456 1.46484 38.9657 1.46484H43.9831C43.4647 1.46484 42.9889 1.75547 42.7518 2.21836L35.694 16.0432C35.226 16.9634 35.8944 18.054 36.9274 18.054Z" fill="#FEDF30" />
  <path d="M44.6931 19.8645L42.3806 26.9944L39.022 30.353C37.9945 31.3805 36.28 30.3307 36.73 28.9477L39.6738 19.8645C39.9644 18.9701 39.298 18.0537 38.3593 18.0537H43.3767C44.3174 18.0537 44.982 18.9701 44.6931 19.8645Z" fill="#FEDF30" />
  <path d="M38.0349 69.3071C35.4732 67.8989 32.4147 67.8989 29.8532 69.3071C29.1442 69.697 28.8854 70.5876 29.2753 71.2966C29.5419 71.7818 30.0432 72.056 30.5602 72.056C30.7989 72.056 31.0407 71.9976 31.2645 71.8745C32.9421 70.9523 34.9454 70.9521 36.6234 71.8745C37.3327 72.2644 38.223 72.0056 38.6128 71.2966C39.0027 70.5876 38.7439 69.697 38.0349 69.3071Z" fill="#0E0806" />
  <path d="M55.8314 55.8847C53.166 57.2535 52.6613 60.4523 52.6412 60.5879C52.522 61.3881 53.074 62.1334 53.8742 62.2525C53.9474 62.2635 54.0201 62.2687 54.0918 62.2687C54.8052 62.2687 55.4304 61.7465 55.5388 61.0195C55.5416 61.0012 55.8699 59.1584 57.1697 58.491C57.8894 58.1214 58.1732 57.2384 57.8037 56.5187C57.4342 55.799 56.551 55.5152 55.8314 55.8847Z" fill="#0E0806" />
  <path d="M11.8531 55.8848C11.1334 55.515 10.2502 55.7992 9.88081 56.5188C9.51128 57.2385 9.79507 58.1215 10.5148 58.491C11.8175 59.16 12.1379 60.9741 12.1468 61.0278C12.2586 61.7506 12.8816 62.2688 13.5926 62.2688C13.6642 62.2688 13.7371 62.2635 13.8101 62.2526C14.6103 62.1334 15.1623 61.3881 15.0431 60.5879C15.0234 60.4524 14.5187 57.2535 11.8531 55.8848Z" fill="#0E0806" />
  <path d="M43.8383 57.6183C43.4375 56.9156 42.5428 56.6707 41.8403 57.0716L37.5281 59.5312C37.0711 59.7918 36.7891 60.2775 36.7891 60.8037C36.7891 61.3299 37.0711 61.8154 37.5281 62.0762L41.8403 64.5358C42.0692 64.6664 42.3186 64.7285 42.5647 64.7285C43.0735 64.7285 43.5682 64.4629 43.8383 63.9893C44.2391 63.2865 43.9944 62.392 43.2916 61.991L41.2104 60.8039L43.2916 59.6168C43.9944 59.2158 44.2391 58.3211 43.8383 57.6183Z" fill="#0E0806" />
  <path d="M30.8982 60.8036C30.8982 60.2774 30.6161 59.7919 30.1591 59.5311L25.847 57.0716C25.1442 56.6708 24.2497 56.9155 23.8489 57.6182C23.4481 58.321 23.6928 59.2155 24.3956 59.6163L26.4769 60.8034L24.3956 61.9905C23.6928 62.3913 23.4481 63.286 23.8489 63.9888C24.119 64.4626 24.6138 64.728 25.1225 64.728C25.3686 64.728 25.6181 64.6659 25.847 64.5353L30.1591 62.0757C30.6161 61.8153 30.8982 61.3298 30.8982 60.8036Z" fill="#0E0806" />
  <path d="M80.8302 16.0489C81.5796 15.0747 81.7079 13.7845 81.1647 12.6817C80.6217 11.579 79.521 10.894 78.2921 10.894H60.3662C59.1583 10.894 58.066 11.5626 57.5146 12.6399L54.4521 18.638C54.0841 19.3585 54.37 20.2409 55.0905 20.6087C55.8111 20.9765 56.6935 20.6907 57.0613 19.9702L60.1232 13.9731C60.1697 13.8823 60.265 13.8235 60.366 13.8235H78.2919C78.4044 13.8235 78.4866 13.8747 78.5362 13.9757C78.586 14.0766 78.5764 14.1731 78.5077 14.2626L69.7518 25.6472C69.0023 26.6214 68.874 27.9117 69.4172 29.0144C69.9602 30.117 71.061 30.8019 72.2899 30.8019H75.5614C75.6065 30.8019 75.7444 30.8019 75.8139 30.9701C75.8836 31.1385 75.786 31.2359 75.7539 31.268L59.4042 47.6177C59.3548 47.6671 59.2521 47.77 59.0683 47.6573C58.8861 47.5456 58.9308 47.4085 58.9527 47.3413L62.6515 35.9285C62.9674 34.9572 62.7978 33.884 62.1976 33.0578C61.597 32.2309 60.6283 31.7373 59.6062 31.7373H51.5007C51.3987 31.7373 51.32 31.6933 51.2669 31.6066C51.214 31.5203 51.2106 31.4307 51.2565 31.3406L53.9538 26.0554C54.3216 25.3349 54.0355 24.4525 53.3149 24.0847C52.5944 23.7171 51.712 24.0029 51.3444 24.7236L49.8892 27.575C48.3995 27.2566 46.8684 26.7744 45.3106 26.1302L53.0667 18.3741C53.8841 17.5567 54.1263 16.3386 53.6841 15.2706C53.2417 14.2026 52.2089 13.5126 51.053 13.5126H48.6147L55.4833 4.58343C56.1497 3.71701 56.2638 2.56955 55.781 1.58907C55.298 0.609183 54.3191 0 53.2259 0H38.9586C37.883 0 36.9111 0.595121 36.4221 1.55313L29.3652 15.3768C28.9109 16.2667 28.9513 17.3067 29.473 18.1587C29.9947 19.0107 30.9025 19.5195 31.9017 19.5195H38.2408L37.31 22.3902C31.8008 20.6015 27.9607 22.2029 25.6501 23.9615C24.0865 25.1517 23.0324 26.5517 22.4138 27.5384C21.187 27.0898 19.1993 26.4728 16.9386 26.1968C12.3173 25.633 8.60903 26.7802 6.21566 29.5117C6.08616 29.6588 5.96097 29.806 5.84241 29.9531C5.33479 30.583 5.43401 31.5053 6.0639 32.0129C6.3348 32.231 6.65941 32.3371 6.98226 32.3371C7.4102 32.3371 7.83422 32.1504 8.12368 31.7914C8.21606 31.6767 8.31372 31.5623 8.41684 31.4451C12.7257 26.5275 21.8593 30.4459 22.4152 30.691C22.4441 30.7043 22.4736 30.7168 22.5034 30.7285C22.8423 30.8709 23.2238 30.881 23.5712 30.7549C23.9492 30.6176 24.254 30.3308 24.4142 29.9619C24.4232 29.9414 25.3667 27.8584 27.4244 26.2925C29.8961 24.4113 32.9133 24.0384 36.4068 25.1753L35.3301 28.4967C34.916 29.7736 35.4072 31.1027 36.552 31.8037C37.024 32.0928 37.5405 32.2342 38.051 32.2342C38.7789 32.2342 39.495 31.9465 40.0528 31.3887L43.0842 28.3572C44.9257 29.1941 46.7479 29.8342 48.5298 30.2701C48.1499 31.209 48.2323 32.2611 48.7688 33.1369C49.3558 34.0951 50.377 34.667 51.5009 34.667H59.6064C59.7214 34.667 59.79 34.7281 59.8273 34.7795C59.8642 34.8305 59.9009 34.9139 59.8652 35.024L56.1663 46.437C55.6997 47.8724 56.2507 49.3667 57.5376 50.1554C58.0687 50.481 58.6501 50.6403 59.2248 50.6403C60.0433 50.6403 60.8486 50.3169 61.4759 49.6894L61.6906 49.4747C62.1859 50.1407 62.4578 50.9419 62.4578 51.7864C62.4578 53.0462 61.8357 54.2091 60.8543 54.9277C59.6861 52.7175 57.7064 51.2612 55.4654 51.2612C54.8632 51.2612 54.2687 51.3667 53.6984 51.57C53.606 50.7022 53.4571 49.8442 53.2528 49.003C53.0622 48.2179 52.272 47.7354 51.4864 47.9247C46.0329 49.2384 38.2307 50.1938 32.0307 47.2856C28.3865 45.5762 26.9884 43.2903 26.9802 43.277C26.69 42.7743 26.1294 42.4919 25.5527 42.5545C24.9755 42.6174 24.4896 43.0165 24.3142 43.5698C24.29 43.6462 21.9064 50.9605 15.7735 52.5995C14.7259 51.7314 13.4893 51.2614 12.2184 51.2614C9.7606 51.2614 7.61742 53.013 6.5141 55.5896C5.78245 55.4369 5.10921 55.0769 4.56838 54.5372C3.8342 53.8015 3.4299 52.8247 3.4299 51.7868C3.4299 49.6448 5.17268 47.902 7.31469 47.902C7.88969 47.902 8.41001 47.564 8.64731 47.0403C8.88481 46.5167 8.79224 45.9009 8.41333 45.4684C8.38149 45.4321 5.24085 41.7901 5.70159 37.2653C5.78343 36.4604 5.19749 35.7414 4.3926 35.6596C3.58869 35.5779 2.86876 36.1637 2.78693 36.9686C2.42403 40.5334 3.72736 43.5741 4.83206 45.4405C2.29825 46.4348 0.5 48.9048 0.5 51.7868C0.5 53.6062 1.20821 55.3181 2.4965 56.6089C3.41525 57.5259 4.54924 58.1472 5.78323 58.4294C5.74398 58.7974 5.7219 59.1722 5.7219 59.5537C5.7219 64.126 8.63618 67.8457 12.2182 67.8457C13.0153 67.8457 13.7936 67.6639 14.5204 67.3162C16.1977 73.7518 20.9945 78.9612 27.3455 81.1399V82.8542C27.3455 82.9267 27.3486 82.9983 27.3509 83.0702C21.1564 85.6663 17.0726 91.7355 17.0726 98.5351C17.0726 99.3441 17.7284 100 18.5374 100H37.5805C38.3895 100 39.0453 99.3441 39.0453 98.5351C39.0453 97.7262 38.3895 97.0703 37.5805 97.0703H20.0794C20.5945 92.1951 23.6556 87.9533 28.1215 85.9298C29.2199 87.9646 31.3719 89.3505 33.842 89.3505C35.576 89.3505 37.2072 88.6753 38.4373 87.4478C38.891 86.9933 39.2688 86.4831 39.5653 85.9335C41.0688 86.6195 42.4547 87.5773 43.6268 88.7509C45.8932 91.0173 47.2772 93.9295 47.6061 97.0707H44.4167C43.6077 97.0707 42.9518 97.7265 42.9518 98.5355C42.9518 99.3445 43.6077 100 44.4167 100H49.1472C49.9561 100 50.612 99.3445 50.612 98.5355C50.612 94.0584 48.8671 89.8478 45.6991 86.68C44.1651 85.1441 42.3274 83.9124 40.3329 83.072C40.3352 82.9995 40.3381 82.9272 40.3381 82.8544V81.1391C40.5582 81.0636 40.7756 80.9845 40.9891 80.9024C47.0528 78.5776 51.5513 73.492 53.1626 67.3162C53.8896 67.6639 54.6679 67.8459 55.4652 67.8459C59.0472 67.8459 61.9615 64.1262 61.9615 59.5539C61.9615 58.946 61.9086 58.3539 61.8107 57.7828C63.9687 56.6091 65.3873 54.3068 65.3873 51.7868C65.3873 50.1589 64.8185 48.6185 63.7767 47.3888L77.8254 33.34C78.745 32.4205 79.0178 31.0502 78.5204 29.8494C78.0231 28.6486 76.8614 27.8726 75.5612 27.8726H72.2897C72.2479 27.8726 72.1201 27.8726 72.0453 27.7205C71.9955 27.6195 72.0051 27.523 72.0739 27.4336L80.8302 16.0489ZM38.2223 29.0758L41.0625 20.3159C41.3428 19.4519 41.1911 18.4976 40.6571 17.763C40.1231 17.0284 39.2619 16.5897 38.3537 16.5897H32.0357L39.0088 2.9297H53.0599L46.1911 11.8589C45.5247 12.7253 45.4106 13.8727 45.8934 14.8534C46.3762 15.8341 47.3552 16.4433 48.4483 16.4433H50.8556L38.2223 29.0758ZM55.4656 64.916C54.479 64.916 53.7415 64.2943 53.2966 63.7726C52.9212 63.3328 52.3218 63.1547 51.7679 63.3185C51.2134 63.482 50.8067 63.9566 50.7304 64.5297C49.9058 70.7061 45.7716 75.9313 39.9401 78.1671C39.4692 78.3479 38.9758 78.5118 38.474 78.6542C37.8438 78.8329 37.4088 79.4083 37.4088 80.0634V82.8542C37.4088 83.8067 37.0379 84.703 36.366 85.3761C35.691 86.0497 34.7949 86.4208 33.8424 86.4208C31.8758 86.4208 30.2758 84.8208 30.2758 82.8542V80.0634C30.2758 79.4075 29.8398 78.8315 29.2086 78.6534C22.6636 76.8079 17.8534 71.2639 16.9544 64.5297C16.8778 63.9566 16.4714 63.482 15.9169 63.3185C15.7802 63.2781 15.6407 63.2586 15.5024 63.2586C15.0804 63.2586 14.6708 63.4414 14.388 63.7726C13.943 64.2943 13.2053 64.916 12.219 64.916C10.2858 64.916 8.65239 62.4603 8.65239 59.5537C8.65239 56.647 10.2856 54.1913 12.219 54.1913C13.137 54.1913 13.8384 54.7382 14.2653 55.197C14.6069 55.5644 15.1132 55.731 15.6063 55.6394C21.4542 54.549 24.6744 49.7472 26.1335 46.7944C29.0806 49.6665 36.258 54.1824 50.6858 51.1108C50.8163 51.9644 50.8823 52.8323 50.8823 53.7052V54.1995C50.8823 54.8017 51.2507 55.3425 51.811 55.5628C52.3714 55.7831 53.0093 55.6382 53.4196 55.1974C53.8466 54.7386 54.548 54.1917 55.4659 54.1917C57.3992 54.1917 59.0326 56.6474 59.0326 59.5541C59.0326 62.4607 57.399 64.916 55.4656 64.916Z" fill="#0E0806" />
</svg>