<svg width="80" height="80" viewBox="0 0 80 80" fill="none" xmlns="http://www.w3.org/2000/svg">
  <g clip-path="url(#clip0_1_1530)">
    <path d="M75.7446 61.7026V66.809H70.6381L65.5317 56.5962L75.7446 61.7026Z" fill="#25BBCC" />
    <path d="M70.6383 56.5962V66.809H4.25537V61.7026L70.6383 56.5962Z" fill="#78E3EC" />
    <path d="M75.7446 49.7876V61.7026H70.6381L65.5317 55.7451L70.6381 49.7876H75.7446Z" fill="#78E3EC" />
    <path d="M14.4681 28.511V44.6813H9.36174L5.95752 36.5961L9.36174 28.511H14.4681Z" fill="#FF0F47" />
    <path d="M29.787 21.7024V44.6811H24.6806L21.2764 33.1918L24.6806 21.7024H29.787Z" fill="#FF0F47" />
    <path d="M45.1063 14.8938V44.6811H39.9999L36.5957 29.7874L39.9999 14.8938H45.1063Z" fill="#FF0F47" />
    <path d="M60.4257 8.08545V44.6812H55.3194L51.915 26.3833L55.3194 8.08545H60.4257Z" fill="#FF0F47" />
    <path d="M75.7445 1.27686V44.6812H70.6381L67.2339 22.979L70.6381 1.27686H75.7445Z" fill="#FF0F47" />
    <path d="M9.36178 28.5105H4.25537V44.6807H9.36178V28.5105Z" fill="#FF6176" />
    <path d="M24.6811 21.7021H19.5747V44.6809H24.6811V21.7021Z" fill="#FF6176" />
    <path d="M40 14.8936H34.8936V44.6807H40V14.8936Z" fill="#FF6176" />
    <path d="M55.3193 8.08521H50.2129V44.681H55.3193V8.08521Z" fill="#FF6176" />
    <path d="M70.6381 1.27686H65.5317V44.6811H70.6381V1.27686Z" fill="#FF6176" />
    <path d="M70.6383 49.7871H4.25537V61.702H70.6383V49.7871Z" fill="#D0FBFD" />
    <path d="M75.7446 71.9148H68.936L65.5317 75.3192L68.936 78.7234H75.7446V71.9148Z" fill="#FF0F47" />
    <path d="M68.9363 71.9148H62.1279L58.7236 75.3192L62.1279 78.7234H68.9363V71.9148Z" fill="#D0FBFD" />
    <path d="M4.25537 75.3187L14.4682 78.7234L17.8724 75.3192L14.4682 71.9148L4.25537 75.3187Z" fill="#FFB082" />
    <path d="M62.1278 71.9148H14.4683V78.7232H62.1278V71.9148Z" fill="#25BBCC" />
    <path d="M75.7444 48.5107H4.25508C3.54992 48.5107 2.97852 49.0823 2.97852 49.7873V66.8086C2.97852 67.5136 3.54992 68.0851 4.25508 68.0851H75.7444C76.4496 68.0851 77.021 67.5136 77.021 66.8086V49.7873C77.021 49.0823 76.4496 48.5107 75.7444 48.5107ZM5.53164 65.532V62.9789H14.4677C15.1729 62.9789 15.7443 62.4073 15.7443 61.7023C15.7443 60.9973 15.1729 60.4257 14.4677 60.4257H5.53164V51.064H8.08476V53.1917C8.08476 53.8967 8.65617 54.4682 9.36133 54.4682C10.0665 54.4682 10.6379 53.8967 10.6379 53.1917V51.064H13.191V53.1917C13.191 53.8967 13.7624 54.4682 14.4676 54.4682C15.1727 54.4682 15.7441 53.8967 15.7441 53.1917V51.064H18.2973V53.1917C18.2973 53.8967 18.8687 54.4682 19.5738 54.4682C20.279 54.4682 20.8504 53.8967 20.8504 53.1917V51.064H23.4035V53.1917C23.4035 53.8967 23.9749 54.4682 24.6801 54.4682C25.3852 54.4682 25.9566 53.8967 25.9566 53.1917V51.064H28.5098V53.1917C28.5098 53.8967 29.0812 54.4682 29.7863 54.4682C30.4915 54.4682 31.0629 53.8967 31.0629 53.1917V51.064H33.616V53.1917C33.616 53.8967 34.1874 54.4682 34.8926 54.4682C35.5977 54.4682 36.1691 53.8967 36.1691 53.1917V51.064H38.7223V53.1917C38.7223 53.8967 39.2937 54.4682 39.9988 54.4682C40.704 54.4682 41.2754 53.8967 41.2754 53.1917V51.064H43.8285V53.1917C43.8285 53.8967 44.3999 54.4682 45.1051 54.4682C45.8102 54.4682 46.3816 53.8967 46.3816 53.1917V51.064H48.9348V53.1917C48.9348 53.8967 49.5062 54.4682 50.2113 54.4682C50.9165 54.4682 51.4879 53.8967 51.4879 53.1917V51.064H54.041V53.1917C54.041 53.8967 54.6124 54.4682 55.3176 54.4682C56.0227 54.4682 56.5941 53.8967 56.5941 53.1917V51.064H59.1473V53.1917C59.1473 53.8967 59.7187 54.4682 60.4238 54.4682C61.129 54.4682 61.7004 53.8967 61.7004 53.1917V51.064H64.2535V53.1917C64.2535 53.8967 64.8249 54.4682 65.5301 54.4682C66.2352 54.4682 66.8066 53.8967 66.8066 53.1917V51.064H69.3598V53.1917C69.3598 53.8967 69.9312 54.4682 70.6363 54.4682C71.3415 54.4682 71.9129 53.8967 71.9129 53.1917V51.064H74.466V60.4257H19.5743C18.8691 60.4257 18.2977 60.9973 18.2977 61.7023C18.2977 62.4073 18.8691 62.9789 19.5743 62.9789H74.4679V65.532H5.53164Z" fill="black" />
    <path d="M75.7444 70.6382H14.4679C14.3307 70.6382 14.1945 70.6604 14.0643 70.7037L3.85148 74.1077C3.33008 74.2815 2.97852 74.7693 2.97852 75.3188C2.97852 75.8683 3.33008 76.3562 3.85133 76.5299L14.0641 79.9344C14.1943 79.9779 14.3305 79.9999 14.4679 79.9999H75.7444C76.4496 79.9999 77.021 79.4283 77.021 78.7233V71.9149C77.021 71.2097 76.4496 70.6382 75.7444 70.6382ZM15.7445 73.1915H60.8509V77.4468H15.7445V73.1915ZM63.404 73.1915H67.6593V77.4468H63.404V73.1915ZM13.1913 73.6858V76.9521L8.29195 75.3187L13.1913 73.6858ZM74.4679 77.4468H70.2126V73.1915H74.4679V77.4468Z" fill="black" />
    <path d="M75.7444 43.4043H4.25508C3.54992 43.4043 2.97852 43.9759 2.97852 44.6809C2.97852 45.3859 3.54992 45.9574 4.25508 45.9574H75.7444C76.4496 45.9574 77.021 45.3859 77.021 44.6809C77.021 43.9759 76.4496 43.4043 75.7444 43.4043Z" fill="black" />
    <path d="M4.25508 40.8512C4.96023 40.8512 5.53164 40.2796 5.53164 39.5746V29.7874H13.1912V39.5746C13.1912 40.2796 13.7626 40.8512 14.4677 40.8512C15.1729 40.8512 15.7443 40.2796 15.7443 39.5746V28.5107C15.7443 27.8057 15.1729 27.2341 14.4677 27.2341H4.25508C3.54992 27.2341 2.97852 27.8057 2.97852 28.5107V39.5746C2.97852 40.2796 3.54992 40.8512 4.25508 40.8512Z" fill="black" />
    <path d="M19.5746 40.851C20.2797 40.851 20.8511 40.2794 20.8511 39.5744V22.9787H28.5107V39.5744C28.5107 40.2794 29.0821 40.851 29.7872 40.851C30.4924 40.851 31.0638 40.2794 31.0638 39.5744V21.7021C31.0638 20.9971 30.4924 20.4255 29.7872 20.4255H19.5744C18.8693 20.4255 18.2979 20.9971 18.2979 21.7021V39.5744C18.2979 40.2794 18.8693 40.851 19.5746 40.851Z" fill="black" />
    <path d="M34.8934 40.851C35.5986 40.851 36.17 40.2794 36.17 39.5744V16.1701H43.8295V39.5743C43.8295 40.2793 44.4009 40.8509 45.1061 40.8509C45.8112 40.8509 46.3826 40.2793 46.3826 39.5743V14.8935C46.3826 14.1885 45.8112 13.6169 45.1061 13.6169H34.8933C34.1881 13.6169 33.6167 14.1885 33.6167 14.8935V39.5743C33.6169 40.2794 34.1883 40.851 34.8934 40.851Z" fill="black" />
    <path d="M50.2128 40.8511C50.9179 40.8511 51.4893 40.2795 51.4893 39.5745V9.36172H59.1488V39.5745C59.1488 40.2795 59.7203 40.8511 60.4254 40.8511C61.1306 40.8511 61.702 40.2795 61.702 39.5745V8.08516C61.702 7.38016 61.1306 6.80859 60.4254 6.80859H50.2126C49.5074 6.80859 48.936 7.38016 48.936 8.08516V39.5745C48.936 40.2795 49.5074 40.8511 50.2128 40.8511Z" fill="black" />
    <path d="M75.7447 0H65.5319C64.8268 0 64.2554 0.571563 64.2554 1.27656V39.5744C64.2554 40.2794 64.8268 40.8509 65.5319 40.8509C66.2371 40.8509 66.8085 40.2794 66.8085 39.5744V2.55312H74.468V39.5744C74.468 40.2794 75.0394 40.8509 75.7446 40.8509C76.4497 40.8509 77.0212 40.2794 77.0212 39.5744V1.27656C77.0213 0.571563 76.4499 0 75.7447 0Z" fill="black" />
  </g>
  <defs>
    <clipPath id="clip0_1_1530">
      <rect width="80" height="80" fill="white" />
    </clipPath>
  </defs>
</svg>