<svg width="80" height="80" viewBox="0 0 80 80" fill="none" xmlns="http://www.w3.org/2000/svg">
  <g clip-path="url(#clip0_1_1528)">
    <path d="M55.5144 76.2091L54.038 76.5566C53.2225 76.7484 52.4061 76.243 52.2141 75.4277L42.275 33.1958V75.4914C42.275 76.3291 41.596 77.0081 40.7583 77.0081H39.2416C38.4039 77.0081 37.7249 76.3291 37.7249 75.4914V33.1956L27.7858 75.4275C27.5939 76.2428 26.7774 76.7483 25.9619 76.5564L24.4855 76.2089C23.6702 76.017 23.1647 75.2005 23.3566 74.385L33.4328 31.5698C33.6247 30.7545 34.4413 30.2491 35.2567 30.4409L36.7331 30.7884C37.1766 30.8928 37.5271 31.1825 37.7249 31.5556V2.68859C37.7249 1.85094 38.4039 1.17188 39.2416 1.17188H40.7583C41.596 1.17188 42.275 1.85094 42.275 2.68859V31.5558C42.4728 31.1827 42.8233 30.8928 43.2667 30.7886L44.7431 30.4411C45.5585 30.2492 46.375 30.7547 46.5671 31.57L56.6433 74.3852C56.8352 75.2006 56.3297 76.0172 55.5144 76.2091Z" fill="#B17F4D" />
    <path d="M60.6276 75.7948V77.3115C60.6276 78.1492 59.9485 78.8282 59.1108 78.8282H20.8893C20.0516 78.8282 19.3726 78.1492 19.3726 77.3115V75.7948C19.3726 74.9571 20.0516 74.2781 20.8893 74.2781H59.1107C59.9485 74.2781 60.6276 74.9571 60.6276 75.7948Z" fill="#D19149" />
    <path d="M77.2656 59.0094H2.73438C1.87141 59.0094 1.17188 58.3099 1.17188 57.4469V7.28442C1.17188 6.42146 1.87141 5.72192 2.73438 5.72192H77.2656C78.1286 5.72192 78.8281 6.42146 78.8281 7.28442V57.4469C78.8281 58.3099 78.1286 59.0094 77.2656 59.0094Z" fill="#EDEDED" />
    <path d="M1.17188 57.4929V7.23864C1.17188 6.40099 1.85094 5.72192 2.68859 5.72192H4.20531V59.0096H2.68859C1.85094 59.0096 1.17188 58.3304 1.17188 57.4929Z" fill="#D8D8D8" />
    <path d="M71.0928 13.3647V51.3671H8.90723V13.3647H71.0928Z" fill="#FFDF64" />
    <path d="M71.0929 37.548H46.9097V13.3647H71.0929V37.548Z" fill="#ADAA47" />
    <path d="M71.0927 51.2238H57.2905V37.4216H71.0927V51.2238Z" fill="#EC615B" />
    <path d="M57.2909 51.2237H46.6738V40.6067H57.2909V51.2237Z" fill="#7C959A" />
    <path d="M57.2909 40.6067H46.6738V37.5732H57.2909V40.6067Z" fill="#C1C1C1" />
    <path d="M77.2656 4.55016H43.447V2.68859C43.447 1.20609 42.2408 0 40.7584 0H39.2417C37.7592 0 36.5531 1.20609 36.5531 2.68859V4.55016H2.73438C1.22672 4.55016 0 5.77687 0 7.28453V57.447C0 58.9547 1.22672 60.1814 2.73438 60.1814H25.4956L22.4539 73.1061H20.8348C19.3523 73.1061 18.1462 74.3122 18.1462 75.7947V77.3114C18.1462 78.7939 19.3523 80 20.8348 80H59.0562C60.5387 80 61.7448 78.7939 61.7448 77.3114V75.7947C61.7448 74.3122 60.5387 73.1061 59.0562 73.1061H57.5462L54.5045 60.1814H77.2656C78.7733 60.1814 80 58.9547 80 57.447V7.28453C80 5.77687 78.7733 4.55016 77.2656 4.55016ZM38.8967 2.68859C38.8967 2.49844 39.0514 2.34375 39.2416 2.34375H40.7583C40.9484 2.34375 41.1031 2.49844 41.1031 2.68859V4.55016H38.8967V2.68859ZM27.9034 60.1814H30.1702L27.1284 73.1061H24.8617L27.9034 60.1814ZM41.1033 60.1814V73.1061H38.8969V60.1814H41.1033ZM36.553 73.1061H29.5361L32.5778 60.1814H36.553V73.1061ZM59.4011 75.7947V77.3114C59.4011 77.5016 59.2464 77.6562 59.0562 77.6562H20.8348C20.6447 77.6562 20.49 77.5016 20.49 77.3114V75.7947C20.49 75.6045 20.6447 75.4498 20.8348 75.4498H23.3777C23.3794 75.4498 23.3813 75.4502 23.383 75.4502C23.3842 75.4502 23.3853 75.4498 23.3866 75.4498H28.0522C28.0539 75.4498 28.0558 75.4502 28.0575 75.4502C28.0587 75.4502 28.0598 75.4498 28.0611 75.4498H45.7597C46.4069 75.4498 46.9316 74.9253 46.9316 74.278C46.9316 73.6306 46.4069 73.1061 45.7597 73.1061H43.447V60.1814H47.4222L50.4639 73.1061H49.678C49.0308 73.1061 48.5061 73.6306 48.5061 74.278C48.5061 74.9253 49.0308 75.4498 49.678 75.4498H51.9391C51.9403 75.4498 51.9414 75.4502 51.9427 75.4502C51.9444 75.4502 51.9463 75.4498 51.948 75.4498H56.6136C56.6148 75.4498 56.6159 75.4502 56.6172 75.4502C56.6189 75.4502 56.6208 75.4498 56.6225 75.4498H59.0564C59.2464 75.4498 59.4011 75.6045 59.4011 75.7947ZM55.1383 73.1061H52.8716L49.8298 60.1814H52.0966L55.1383 73.1061ZM77.6562 57.447C77.6562 57.6625 77.4809 57.8377 77.2656 57.8377H2.73438C2.51906 57.8377 2.34375 57.6625 2.34375 57.447V7.28453C2.34375 7.06906 2.51906 6.89391 2.73438 6.89391H77.2656C77.4809 6.89391 77.6562 7.06906 77.6562 7.28453V57.447ZM71.0928 12.1928H46.9095H19.8862C19.2391 12.1928 18.7144 12.7173 18.7144 13.3647C18.7144 14.012 19.2391 14.5366 19.8862 14.5366H33.5075C28.1952 16.4661 23.3247 19.5512 19.2092 23.6667C15.0938 27.782 12.0086 32.6527 10.0791 37.965V14.5366H15.3741C16.0212 14.5366 16.5459 14.012 16.5459 13.3647C16.5459 12.7173 16.0212 12.1928 15.3741 12.1928H8.90719C8.26 12.1928 7.73531 12.7173 7.73531 13.3647V51.367C7.73531 52.0144 8.26 52.5389 8.90719 52.5389H46.9095H57.2739H71.093C71.7402 52.5389 72.2648 52.0144 72.2648 51.367V37.548V13.3647C72.2647 12.7175 71.74 12.1928 71.0928 12.1928ZM56.1019 39.8308H48.0812V38.7198H56.1019V39.8308ZM56.1019 42.1745V50.1178C51.9689 49.5892 48.6872 46.3075 48.1586 42.1745H56.1019ZM58.4456 38.7198H69.8645C69.3067 44.7598 64.4855 49.5811 58.4456 50.1389V38.7198ZM48.0814 36.3761V14.5662C59.8394 15.1589 69.2988 24.6183 69.8914 36.3761H48.0814ZM45.7377 14.5572V41.0027V50.1952H10.0995C10.7086 30.8164 26.3589 15.1661 45.7377 14.5572ZM48.0814 50.1952V47.963C48.7203 48.8047 49.4719 49.5562 50.3136 50.1952H48.0814ZM69.9209 50.1952H65.3139C67.1647 49.0144 68.7403 47.4389 69.9209 45.5881V50.1952ZM57.5494 14.5366H69.9209V26.9081C67.3942 21.4652 62.9923 17.0634 57.5494 14.5366Z" fill="black" />
  </g>
  <defs>
    <clipPath id="clip0_1_1528">
      <rect width="80" height="80" fill="white" />
    </clipPath>
  </defs>
</svg>