<svg width="81" height="80" viewBox="0 0 81 80" fill="none" xmlns="http://www.w3.org/2000/svg">
  <g clip-path="url(#clip0_216_1409)">
    <path d="M11.8853 9.60588C11.888 9.60588 11.8906 9.60588 11.8934 9.60588C14.688 9.60588 16.9639 11.8772 16.9683 14.6729L16.9798 22.0459L37.6254 1.40032C39.4927 -0.466773 42.5307 -0.466773 44.3976 1.40032C45.0484 2.05113 45.4716 2.84423 45.6687 3.68026L46.0371 3.31174C46.9416 2.40737 48.144 1.90937 49.4232 1.90937C50.7024 1.90937 51.9049 2.40737 52.8096 3.31192C54.6765 5.17901 54.6765 8.21717 52.8094 10.0844L51.6697 11.2241C52.5247 11.4262 53.3092 11.8604 53.9458 12.497C54.8503 13.4014 55.3485 14.604 55.3485 15.8832C55.3485 17.1624 54.8503 18.365 53.946 19.2694L51.6001 21.6152C52.4369 21.8122 53.2308 22.2352 53.8823 22.886C54.7865 23.7903 55.2847 24.993 55.2847 26.2721C55.2847 27.5513 54.7865 28.754 53.8823 29.6583L52.324 31.2167C52.396 31.5464 52.4351 31.8885 52.4351 32.2395V35.5552C53.1656 35.1035 54.0257 34.842 54.9458 34.842C57.5862 34.842 59.7344 36.9902 59.7344 39.6307V64.494C59.7344 69.9687 57.8356 75.3257 54.3875 79.5783C54.1625 79.8558 53.8338 79.9999 53.5021 79.9999C53.2501 79.9999 52.9964 79.9166 52.7854 79.7456C52.2969 79.3494 52.2219 78.6322 52.618 78.1435C55.738 74.2956 57.4562 69.448 57.4562 64.4938V39.6307C57.4562 38.2464 56.33 37.12 54.9457 37.12C53.5613 37.12 52.4349 38.2462 52.4349 39.6307V55.6047C52.4349 56.2338 51.925 56.7437 51.2959 56.7437C50.6668 56.7437 50.1569 56.2338 50.1569 55.6047V32.2397C50.1569 30.8553 49.0305 29.7289 47.6462 29.7289C46.2619 29.7289 45.1355 30.8552 45.1355 32.2397V54.077C45.1355 54.7061 44.6256 55.216 43.9965 55.216C43.3674 55.216 42.8575 54.7061 42.8575 54.077V26.5485C42.8575 25.1642 41.7311 24.0378 40.3468 24.0378C38.9624 24.0378 37.8362 25.1642 37.8362 26.5485V48.8146V55.2652C37.8362 55.8943 37.3263 56.4043 36.6972 56.4043C36.0681 56.4043 35.5582 55.8943 35.5582 55.2652V48.8146V31.1448C35.5582 29.7605 34.4318 28.6341 33.0475 28.6341C31.6632 28.6341 30.5368 29.7605 30.5368 31.1448C30.5368 31.1448 30.5343 63.1712 30.5294 63.2139C30.5016 63.4606 30.3933 63.7 30.2044 63.8896C29.7603 64.3351 29.0391 64.3363 28.5936 63.8922L21.4288 56.75C20.3367 55.6611 18.562 55.6641 17.4733 56.7563C16.3851 57.8478 16.3874 59.6219 17.4782 60.7106L34.5724 77.7725C35.0176 78.2169 35.0183 78.9381 34.5739 79.3832C34.3514 79.6061 34.0596 79.7176 33.7677 79.7176C33.4766 79.7176 33.1854 79.6067 32.963 79.3848L15.8689 62.3229C13.8894 60.3473 13.8854 57.1287 15.8597 55.148C17.8355 53.166 21.055 53.1611 23.0369 55.1366L28.2586 60.3419V52.5393C26.6176 53.197 24.9069 53.671 23.1529 53.9524C23.0917 53.9622 23.0311 53.967 22.9712 53.967C22.4215 53.967 21.9378 53.5681 21.8479 53.0081C21.7484 52.3871 22.1711 51.8027 22.7923 51.7031C24.6839 51.3998 26.5191 50.8477 28.2586 50.0626V31.1448C28.2586 28.5042 30.4069 26.3561 33.0473 26.3561C33.1349 26.3561 33.222 26.3589 33.3086 26.3634L51.1989 8.47389C52.1779 7.49487 52.1779 5.90184 51.199 4.923C50.7247 4.44865 50.094 4.18755 49.4234 4.18755C48.7528 4.18755 48.1221 4.44865 47.648 4.92282L27.342 25.2286C26.8974 25.6734 26.1761 25.6734 25.7312 25.2286C25.2865 24.7837 25.2865 24.0627 25.7314 23.6179L42.787 6.56194C43.2612 6.08776 43.5223 5.45728 43.5223 4.78667C43.5223 4.11606 43.2612 3.48557 42.787 3.0114C41.8078 2.03238 40.2153 2.03238 39.2361 3.0114L17.7114 24.536C20.7785 26.0319 23.1988 28.5325 24.597 31.6889C26.1669 35.233 26.2625 39.176 24.8665 42.7919C24.6921 43.244 24.2609 43.5211 23.8039 43.5211C23.6675 43.5211 23.5288 43.4963 23.3938 43.4443C22.807 43.2177 22.5149 42.5583 22.7414 41.9715C23.9183 38.9232 23.8375 35.599 22.5142 32.6113C21.1908 29.6236 18.8007 27.2839 15.7348 26.1535C14.6801 25.7647 14.7065 25.0417 14.7062 24.793L14.6901 14.6764C14.6888 13.9292 14.3969 13.2274 13.8679 12.6999C13.3397 12.1735 12.6386 11.8839 11.8932 11.8839C11.8916 11.8839 11.8902 11.8839 11.8888 11.8839C10.3475 11.8863 9.09476 13.1422 9.09616 14.6836L9.11894 38.8355C9.11946 39.4646 8.61007 39.9751 7.98099 39.9756C7.98064 39.9756 7.98029 39.9756 7.97993 39.9756C7.35138 39.9756 6.84146 39.4664 6.84093 38.8376L6.81815 14.6857C6.8157 11.8891 9.08863 9.61044 11.8853 9.60588ZM47.6466 27.4511C49.0768 27.4511 50.3616 28.0821 51.2399 29.0795L52.2716 28.0478C52.7456 27.5736 53.0067 26.9431 53.0067 26.2723C53.0067 25.6015 52.7456 24.9711 52.2721 24.4974C51.2921 23.5189 49.6987 23.5186 48.7204 24.4969C48.7176 24.4997 48.7141 24.5014 48.7113 24.5042L45.1357 28.0798V28.1645C45.8664 27.7126 46.7264 27.4511 47.6466 27.4511ZM44.907 25.0871L52.3351 17.6588C52.8094 17.1846 53.0705 16.554 53.0705 15.8834C53.0705 15.2128 52.8094 14.5821 52.3351 14.1079C51.861 13.6338 51.2304 13.3727 50.5596 13.3727C49.9011 13.3727 49.2806 13.6248 48.8117 14.0825L41.0785 21.8157C42.8843 22.0936 44.3599 23.3842 44.907 25.0871Z" fill="#E05704" />
    <path d="M63.1954 26.9196C62.6571 26.9196 62.1784 26.5362 62.0767 25.9879C61.9623 25.3693 62.3708 24.7751 62.9893 24.6605L72.837 22.8369C73.4549 22.7219 74.0498 23.1306 74.1644 23.7495C74.2788 24.368 73.8703 24.9622 73.2518 25.0769L63.4041 26.9005C63.334 26.9133 63.2643 26.9196 63.1954 26.9196Z" fill="#E05704" />
    <path d="M58.6627 20.4567C58.1444 20.1003 58.0132 19.3911 58.3694 18.8728L64.0434 10.6199C64.4 10.1016 65.109 9.97052 65.6273 10.3266C66.1456 10.683 66.2769 11.3922 65.9206 11.9105L60.2467 20.1634C60.0257 20.4846 59.6694 20.6572 59.3071 20.6572C59.0845 20.6572 58.8599 20.5922 58.6627 20.4567Z" fill="#E05704" />
    <path d="M62.1635 32.0204L70.4164 37.6944C70.9347 38.0508 71.066 38.76 70.7097 39.2783C70.4887 39.5995 70.1325 39.7721 69.7701 39.7721C69.5476 39.7721 69.3229 39.7071 69.1258 39.5716L60.8729 33.8976C60.3546 33.5412 60.2233 32.8321 60.5796 32.3137C60.9362 31.7954 61.6452 31.6641 62.1635 32.0204Z" fill="#E05704" />
  </g>
  <defs>
    <clipPath id="clip0_216_1409">
      <rect width="80" height="80" fill="white" transform="matrix(-1 0 0 1 80.5 0)" />
    </clipPath>
  </defs>
</svg>