<svg width="76" height="76" viewBox="0 0 76 76" fill="none" xmlns="http://www.w3.org/2000/svg">
  <path d="M39.5896 32.6126C39.4253 32.5935 39.2588 32.6072 39.0998 32.653C38.9409 32.6987 38.7925 32.7755 38.6635 32.879C38.5344 32.9825 38.4272 33.1106 38.348 33.2558C38.2688 33.401 38.2192 33.5606 38.2021 33.7251L38.0021 35.6376C37.9757 35.8705 37.8843 36.0913 37.7385 36.2747C37.5926 36.4582 37.3981 36.5969 37.1771 36.6751L28.8521 39.5751C28.5957 39.6643 28.3753 39.8345 28.2242 40.06C28.0731 40.2855 27.9995 40.5541 28.0146 40.8251V51.9876C28.0137 52.1521 28.0452 52.3152 28.1074 52.4675C28.1696 52.6198 28.2613 52.7583 28.3771 52.8751L35.1521 59.6751C35.3667 59.8974 35.4914 60.1913 35.5021 60.5001V71.7501C35.5021 72.0816 35.3704 72.3996 35.136 72.634C34.9016 72.8684 34.5836 73.0001 34.2521 73.0001C33.9206 73.0001 33.6026 72.8684 33.3682 72.634C33.1338 72.3996 33.0021 72.0816 33.0021 71.7501V61.5376C33.0031 61.3731 32.9715 61.21 32.9093 61.0577C32.8471 60.9054 32.7555 60.7669 32.6396 60.6501L25.4021 53.3626C25.2853 53.2467 25.1468 53.1551 24.9945 53.0929C24.8422 53.0307 24.6791 52.9991 24.5146 53.0001H21.7521C21.4206 53.0001 21.1026 53.1318 20.8682 53.3662C20.6338 53.6006 20.5021 53.9186 20.5021 54.2501V64.2501C20.501 64.456 20.4491 64.6584 20.351 64.8394C20.2529 65.0204 20.1116 65.1744 19.9396 65.2876L8.68961 72.7876C8.41403 72.9685 8.07814 73.0332 7.75506 72.9677C7.43199 72.9021 7.14789 72.7116 6.96461 72.4376C6.7837 72.162 6.71897 71.8261 6.78452 71.503C6.85007 71.18 7.0406 70.8959 7.31461 70.7126L17.4396 63.9501C17.6116 63.8369 17.7529 63.6829 17.851 63.5019C17.9491 63.3209 18.001 63.1185 18.0021 62.9126V54.2501C18.0021 53.9186 17.8704 53.6006 17.636 53.3662C17.4016 53.1318 17.0836 53.0001 16.7521 53.0001C16.4206 53.0001 16.1026 53.1318 15.8682 53.3662C15.6338 53.6006 15.5021 53.9186 15.5021 54.2501V62.2376L5.92711 68.6251C5.25564 69.0705 4.74549 69.7203 4.47223 70.4784C4.19897 71.2364 4.17713 72.0622 4.40995 72.8336C4.64277 73.605 5.11787 74.2809 5.76487 74.7612C6.41186 75.2415 7.19634 75.5005 8.00211 75.5001C8.74021 75.5005 9.46202 75.2831 10.0771 74.8751L21.3271 67.3751C21.8424 67.0328 22.265 66.5683 22.5573 66.0231C22.8495 65.4778 23.0023 64.8687 23.0021 64.2501V55.5001H23.9896L30.5021 62.0501V71.7501C30.5021 72.7447 30.8972 73.6985 31.6005 74.4017C32.3037 75.105 33.2575 75.5001 34.2521 75.5001C35.2467 75.5001 36.2005 75.105 36.9038 74.4017C37.607 73.6985 38.0021 72.7447 38.0021 71.7501V60.5001C38.0046 59.5077 37.6135 58.5547 36.9146 57.8501L30.5021 51.4126V41.6501L38.0021 39.0376C38.6714 38.8059 39.2614 38.3895 39.7038 37.8365C40.1463 37.2834 40.423 36.6164 40.5021 35.9126L40.7146 34.0001C40.7336 33.8348 40.7195 33.6674 40.673 33.5077C40.6265 33.3479 40.5485 33.1991 40.4438 33.0699C40.339 32.9406 40.2095 32.8336 40.0628 32.7551C39.9161 32.6766 39.7552 32.6281 39.5896 32.6126Z" fill="#E05704" />
  <path d="M14.1019 47.9999L15.5019 46.8749V49.2499C15.5019 49.5814 15.6336 49.8994 15.8681 50.1338C16.1025 50.3682 16.4204 50.4999 16.7519 50.4999C17.0835 50.4999 17.4014 50.3682 17.6358 50.1338C17.8703 49.8994 18.0019 49.5814 18.0019 49.2499V44.2499C18.0013 44.0143 17.934 43.7837 17.808 43.5846C17.6819 43.3856 17.5022 43.2262 17.2894 43.1249C17.0875 43.0353 16.8655 43.0009 16.6459 43.025C16.4263 43.0492 16.2171 43.1311 16.0394 43.2624L12.6144 45.9874C12.4806 46.0949 12.3261 46.1737 12.1605 46.2188C11.9949 46.264 11.8218 46.2746 11.6519 46.2499L4.15195 45.1124H3.95195C3.6494 45.0407 3.38443 44.8588 3.20877 44.6023C3.03311 44.3457 2.95937 44.0329 3.00195 43.7249C3.05464 43.3986 3.23442 43.1065 3.50195 42.9124C3.7667 42.7139 4.09933 42.6285 4.42695 42.6749L10.8644 43.6499C11.0335 43.6763 11.2061 43.6677 11.3716 43.6247C11.5372 43.5817 11.6922 43.5052 11.8269 43.3999L18.2519 38.2874C18.5725 38.1518 18.9083 38.0553 19.2519 37.9999H20.5019C20.8335 37.9999 21.1514 37.8682 21.3858 37.6338C21.6203 37.3994 21.7519 37.0814 21.7519 36.7499V36.2249C21.7528 35.9809 21.6822 35.7421 21.549 35.5377C21.4157 35.3334 21.2255 35.1725 21.0019 35.0749C19.9491 34.6154 19.0867 33.8074 18.5595 32.7868C18.0324 31.7662 17.8727 30.5952 18.1074 29.4708C18.3421 28.3463 18.9568 27.3369 19.8482 26.6124C20.7396 25.8878 21.8532 25.4923 23.0019 25.4923C24.1507 25.4923 25.2643 25.8878 26.1557 26.6124C27.0471 27.3369 27.6618 28.3463 27.8965 29.4708C28.1312 30.5952 27.9715 31.7662 27.4444 32.7868C26.9172 33.8074 26.0548 34.6154 25.0019 35.0749C24.7784 35.1725 24.5882 35.3334 24.4549 35.5377C24.3217 35.7421 24.2511 35.9809 24.2519 36.2249V36.7499C24.2519 37.0814 24.3836 37.3994 24.6181 37.6338C24.8525 37.8682 25.1704 37.9999 25.5019 37.9999H26.2769C26.5988 37.9986 26.9077 37.8732 27.1394 37.6499C27.267 37.5228 27.4205 37.4247 27.5894 37.3624L34.8519 34.8624C35.0752 34.7861 35.2724 34.6482 35.4206 34.4646C35.5688 34.281 35.662 34.0592 35.6894 33.8249L36.7519 24.1124C36.7896 23.7847 36.9553 23.4852 37.2129 23.2792C37.4704 23.0731 37.799 22.9773 38.1269 23.0124C38.2903 23.0297 38.4555 23.0147 38.613 22.9681C38.7705 22.9216 38.9173 22.8444 39.045 22.7411C39.1727 22.6378 39.2788 22.5103 39.3572 22.366C39.4356 22.2216 39.4848 22.0633 39.5019 21.8999C39.5371 21.5719 39.4412 21.2434 39.2351 20.9858C39.0291 20.7283 38.7296 20.5626 38.4019 20.5249C37.9118 20.4693 37.4156 20.5109 36.9416 20.6473C36.4676 20.7838 36.0252 21.0124 35.6397 21.3201C35.2542 21.6278 34.9332 22.0086 34.6951 22.4405C34.4569 22.8725 34.3063 23.3472 34.2519 23.8374L33.2644 32.7374L29.6019 33.9874C30.254 32.7596 30.552 31.3747 30.4626 29.9874C30.3732 28.6001 29.9 27.2649 29.0958 26.131C28.2916 24.997 27.188 24.1088 25.9083 23.5657C24.6286 23.0226 23.2232 22.8458 21.8488 23.0551C20.4745 23.2644 19.1853 23.8516 18.1254 24.7511C17.0654 25.6506 16.2763 26.827 15.8462 28.149C15.416 29.471 15.3618 30.8865 15.6895 32.2375C16.0172 33.5886 16.7139 34.8219 17.7019 35.7999L17.0894 36.0374L16.8144 36.1999L10.6894 41.0749L4.78945 40.1874C3.86653 40.0612 2.92966 40.2829 2.16128 40.8096C1.3929 41.3362 0.848029 42.1299 0.632763 43.0362C0.417497 43.9425 0.54725 44.8965 0.996755 45.7124C1.44626 46.5283 2.18334 47.1476 3.06445 47.4499C3.26092 47.5131 3.46136 47.5632 3.66445 47.5999L11.1644 48.7374C11.6784 48.8255 12.2052 48.8054 12.711 48.6784C13.2168 48.5514 13.6905 48.3203 14.1019 47.9999Z" fill="#E05704" />
  <path d="M74.1777 11.3875C73.7652 11.0254 73.2783 10.7583 72.7513 10.6049C72.2243 10.4516 71.6701 10.4158 71.1277 10.5C70.2314 10.6741 69.4257 11.1601 68.8536 11.8718C68.2815 12.5834 67.98 13.4747 68.0027 14.3875V30.5H64.8402C65.5863 29.6578 66.135 28.6597 66.4464 27.5784C66.7578 26.4972 66.824 25.3601 66.6402 24.25C66.3818 22.785 65.6936 21.4299 64.663 20.3571C63.6325 19.2843 62.3061 18.5421 60.8527 18.225C59.7522 17.9926 58.6138 18.0077 57.5199 18.2693C56.426 18.5309 55.404 19.0324 54.5277 19.7375C53.1781 20.8327 52.2508 22.3626 51.9042 24.0658C51.5577 25.7689 51.8134 27.5396 52.6277 29.075L48.9652 27.825L47.9902 19.075C47.9195 18.1225 47.4984 17.2299 46.8081 16.5696C46.1179 15.9094 45.2075 15.5283 44.2527 15.5C43.7285 15.5029 43.2107 15.6156 42.7327 15.8309C42.2547 16.0462 41.8272 16.3593 41.4777 16.75C41.1188 17.1392 40.8464 17.5999 40.6783 18.1019C40.5103 18.6039 40.4504 19.1358 40.5027 19.6625L41.7527 30.9125C41.8318 31.6164 42.1086 32.2834 42.551 32.8364C42.9934 33.3895 43.5834 33.8059 44.2527 34.0375L51.7527 36.65V46.4125L45.3402 52.8501C44.6413 53.5547 44.2503 54.5076 44.2527 55.5V66.6125C44.23 67.5254 44.5315 68.4167 45.1036 69.1283C45.6756 69.84 46.4813 70.326 47.3777 70.5C47.9198 70.5917 48.4754 70.5631 49.0053 70.4162C49.5351 70.2692 50.0261 70.0076 50.4435 69.6498C50.861 69.292 51.1946 68.8467 51.4209 68.3456C51.6471 67.8445 51.7604 67.2998 51.7527 66.75V57.0501L58.2652 50.5H59.2527V71.6125C59.23 72.5254 59.5315 73.4167 60.1036 74.1283C60.6757 74.84 61.4813 75.326 62.3777 75.5001C62.5856 75.5186 62.7948 75.5186 63.0027 75.5001C63.9973 75.5001 64.9511 75.105 65.6543 74.4017C66.3576 73.6984 66.7527 72.7446 66.7527 71.75V41.75C66.7527 41.4185 66.621 41.1006 66.3866 40.8662C66.1522 40.6317 65.8342 40.5 65.5027 40.5C65.1712 40.5 64.8532 40.6317 64.6188 40.8662C64.3844 41.1006 64.2527 41.4185 64.2527 41.75V71.75C64.2554 71.9337 64.2175 72.1157 64.1419 72.2831C64.0662 72.4505 63.9546 72.5991 63.815 72.7185C63.6753 72.8378 63.5111 72.9249 63.334 72.9736C63.1569 73.0223 62.9712 73.0313 62.7902 73C62.4854 72.9254 62.2156 72.7478 62.0266 72.4973C61.8376 72.2468 61.7408 71.9387 61.7527 71.6251V49.25C61.7527 48.9185 61.621 48.6006 61.3866 48.3662C61.1522 48.1317 60.8342 48 60.5027 48H57.7402C57.5757 47.9991 57.4126 48.0306 57.2603 48.0928C57.108 48.155 56.9695 48.2467 56.8527 48.3625L49.6152 55.65C49.4993 55.7668 49.4077 55.9054 49.3455 56.0577C49.2833 56.21 49.2517 56.373 49.2527 56.5376V66.75C49.2554 66.9337 49.2175 67.1157 49.1419 67.2831C49.0662 67.4505 48.9546 67.5991 48.815 67.7185C48.6753 67.8378 48.5111 67.9249 48.334 67.9736C48.1569 68.0223 47.9712 68.0313 47.7902 68C47.4854 67.9254 47.2156 67.7478 47.0266 67.4973C46.8376 67.2468 46.7408 66.9387 46.7527 66.6251V55.5C46.7517 55.3355 46.7833 55.1725 46.8455 55.0202C46.9077 54.8679 46.9993 54.7294 47.1152 54.6126L53.8902 47.8125C54.006 47.6957 54.0977 47.5572 54.1599 47.4049C54.2221 47.2526 54.2536 47.0896 54.2527 46.925V35.7625C54.2543 35.502 54.1744 35.2475 54.0242 35.0346C53.8741 34.8217 53.6611 34.661 53.4152 34.575L45.0902 31.675C44.8692 31.5969 44.6747 31.4581 44.5289 31.2747C44.383 31.0912 44.2916 30.8704 44.2652 30.6375L43.0152 19.3875C42.9956 19.2151 43.0122 19.0404 43.0639 18.8747C43.1155 18.709 43.2011 18.5559 43.3152 18.425C43.4323 18.2917 43.5765 18.1849 43.7382 18.1116C43.8998 18.0383 44.0752 18.0003 44.2527 18C44.5739 18.0306 44.8744 18.1721 45.1025 18.4002C45.3307 18.6284 45.4722 18.9289 45.5027 19.25L46.5527 28.8C46.5801 29.0344 46.6734 29.2562 46.8216 29.4398C46.9698 29.6234 47.1669 29.7613 47.3902 29.8375L54.6527 32.3375C54.8217 32.3998 54.9752 32.4979 55.1027 32.625C55.3344 32.8484 55.6434 32.9738 55.9652 32.975H56.7527C57.0842 32.975 57.4022 32.8434 57.6366 32.6089C57.871 32.3745 58.0027 32.0566 58.0027 31.725V31.2C58.0035 30.9561 57.933 30.7172 57.7997 30.5129C57.6664 30.3085 57.4763 30.1476 57.2527 30.05C56.1999 29.5906 55.3374 28.7826 54.8103 27.762C54.2831 26.7414 54.1235 25.5704 54.3582 24.4459C54.5929 23.3215 55.2076 22.3121 56.0989 21.5875C56.9903 20.863 58.104 20.4675 59.2527 20.4675C60.4014 20.4675 61.5151 20.863 62.4064 21.5875C63.2978 22.3121 63.9125 23.3215 64.1472 24.4459C64.3819 25.5704 64.2223 26.7414 63.6951 27.762C63.168 28.7826 62.3055 29.5906 61.2527 30.05C61.0291 30.1476 60.8389 30.3085 60.7057 30.5129C60.5724 30.7172 60.5018 30.9561 60.5027 31.2V31.75C60.5027 32.0816 60.6344 32.3995 60.8688 32.6339C61.1032 32.8684 61.4212 33 61.7527 33H68.0027C68.6657 33 69.3016 32.7367 69.7705 32.2678C70.2393 31.799 70.5027 31.1631 70.5027 30.5V14.3875C70.4902 14.0756 70.5851 13.7688 70.7717 13.5185C70.9583 13.2683 71.2252 13.0896 71.5277 13.0125C71.7111 12.9801 71.8995 12.9891 72.079 13.0389C72.2585 13.0886 72.4246 13.1779 72.5652 13.3C72.7024 13.4174 72.8126 13.5631 72.8881 13.7271C72.9636 13.8911 73.0027 14.0695 73.0027 14.25V30.5C73.0027 31.8261 72.4759 33.0979 71.5382 34.0356C70.6005 34.9733 69.3288 35.5 68.0027 35.5H65.5027C65.1712 35.5 64.8532 35.6317 64.6188 35.8662C64.3844 36.1006 64.2527 36.4185 64.2527 36.75C64.2527 37.0816 64.3844 37.3995 64.6188 37.6339C64.8532 37.8684 65.1712 38 65.5027 38H68.0027C69.9918 38 71.8995 37.2099 73.306 35.8034C74.7125 34.3968 75.5027 32.4892 75.5027 30.5V14.25C75.503 13.7053 75.3846 13.1671 75.1558 12.6727C74.927 12.1784 74.5932 11.7398 74.1777 11.3875Z" fill="#E05704" />
  <path d="M4.25175 15.5C5.24631 15.5 6.20014 15.1049 6.9034 14.4016C7.60666 13.6984 8.00175 12.7446 8.00175 11.75V8H15.5017V10.725C14.7508 10.4595 13.9349 10.44 13.1721 10.6693C12.4093 10.8986 11.7394 11.3649 11.2594 12.0004C10.7793 12.636 10.5141 13.4079 10.5022 14.2043C10.4902 15.0007 10.7322 15.7802 11.193 16.4299C11.6537 17.0796 12.3094 17.5657 13.0649 17.8178C13.8205 18.0698 14.6366 18.0748 15.3952 17.832C16.1538 17.5891 16.8153 17.111 17.2839 16.467C17.7526 15.823 18.004 15.0465 18.0017 14.25V1.75C18.0017 1.41848 17.8701 1.10054 17.6356 0.866116C17.4012 0.631696 17.0833 0.5 16.7517 0.5H6.75175C6.42023 0.5 6.10229 0.631696 5.86787 0.866116C5.63345 1.10054 5.50175 1.41848 5.50175 1.75V8.225C4.98599 8.03786 4.43545 7.96617 3.88897 8.01499C3.34249 8.06381 2.81337 8.23195 2.33896 8.50755C1.86454 8.78316 1.45638 9.15951 1.14327 9.61005C0.830158 10.0606 0.619725 10.5744 0.526815 11.1151C0.433905 11.6558 0.460782 12.2104 0.60555 12.7396C0.750317 13.2688 1.00945 13.7598 1.36466 14.1779C1.71988 14.5961 2.16252 14.9312 2.66137 15.1596C3.16021 15.3881 3.70311 15.5043 4.25175 15.5ZM14.2517 15.5C14.0045 15.5 13.7628 15.4267 13.5573 15.2893C13.3517 15.152 13.1915 14.9568 13.0969 14.7284C13.0023 14.4999 12.9775 14.2486 13.0258 14.0061C13.074 13.7637 13.1931 13.5409 13.3679 13.3661C13.5427 13.1913 13.7654 13.0722 14.0079 13.024C14.2504 12.9758 14.5017 13.0005 14.7301 13.0951C14.9585 13.1898 15.1537 13.35 15.2911 13.5555C15.4284 13.7611 15.5017 14.0028 15.5017 14.25C15.5017 14.5815 15.3701 14.8995 15.1356 15.1339C14.9012 15.3683 14.5833 15.5 14.2517 15.5ZM8.00175 3H15.5017V5.5H8.00175V3ZM4.25175 10.5C4.49898 10.5 4.74065 10.5733 4.94621 10.7107C5.15177 10.848 5.31199 11.0432 5.4066 11.2716C5.50121 11.5001 5.52596 11.7514 5.47773 11.9939C5.4295 12.2363 5.31045 12.4591 5.13563 12.6339C4.96082 12.8087 4.73809 12.9277 4.49561 12.976C4.25314 13.0242 4.0018 12.9995 3.7734 12.9048C3.54499 12.8102 3.34976 12.65 3.21241 12.4445C3.07506 12.2389 3.00175 11.9972 3.00175 11.75C3.00175 11.4185 3.13345 11.1005 3.36787 10.8661C3.60229 10.6317 3.92023 10.5 4.25175 10.5Z" fill="#E05704" />
  <path d="M49.5779 14.1C50.1761 14.4915 50.8755 14.7 51.5904 14.7C52.2179 14.6959 52.835 14.5389 53.3882 14.2427C53.9414 13.9465 54.4141 13.52 54.7654 13L58.1154 7.72503L63.3904 11.0875C63.5916 11.2175 63.8259 11.2869 64.0654 11.2875C64.2746 11.2872 64.4803 11.2344 64.6637 11.1339C64.8472 11.0334 65.0025 10.8886 65.1154 10.7125L67.8029 6.48753C67.9029 6.34581 67.9724 6.18483 68.0068 6.01482C68.0412 5.84481 68.0399 5.6695 68.0029 5.50003C67.9257 5.17746 67.7292 4.8961 67.4529 4.71253L61.1029 0.700028C60.8243 0.521473 60.4863 0.46068 60.1629 0.530976C59.8395 0.601272 59.5572 0.796921 59.3779 1.07503L56.7529 5.28753L54.5529 8.65003C54.2938 8.30944 53.9764 8.01743 53.6154 7.78753C52.7794 7.30144 51.7879 7.15711 50.848 7.38468C49.9081 7.61226 49.0925 8.19413 48.5714 9.00881C48.0503 9.82348 47.8641 10.808 48.0517 11.7567C48.2392 12.7054 48.786 13.5449 49.5779 14.1ZM60.8279 3.47503L65.0404 6.16253L63.6779 8.27503L59.4654 5.58753L60.8279 3.47503ZM50.5029 10.275C50.617 10.0972 50.7743 9.9512 50.9601 9.85064C51.1459 9.75009 51.3541 9.69827 51.5654 9.70003C51.803 9.70204 52.0358 9.76672 52.2404 9.88753C52.5166 10.0687 52.7098 10.3518 52.7779 10.675C52.8494 10.9967 52.791 11.3337 52.6154 11.6125C52.5276 11.7513 52.4133 11.8713 52.2791 11.9659C52.1449 12.0604 51.9934 12.1276 51.8332 12.1636C51.673 12.1996 51.5073 12.2037 51.3455 12.1756C51.1838 12.1475 51.0291 12.0879 50.8904 12C50.7517 11.9122 50.6316 11.7979 50.5371 11.6637C50.4425 11.5295 50.3753 11.378 50.3393 11.2178C50.3034 11.0576 50.2993 10.8919 50.3273 10.7301C50.3554 10.5684 50.4151 10.4137 50.5029 10.275Z" fill="#E05704" />
  <path d="M25.5022 12.1625C25.6842 12.9961 26.1451 13.7427 26.8087 14.279C27.4723 14.8154 28.299 15.1094 29.1522 15.1125C29.4251 15.1081 29.6971 15.0788 29.9647 15.025C30.9338 14.8116 31.7789 14.2227 32.3147 13.3875L36.3522 7.06248C36.5307 6.78387 36.5915 6.44583 36.5212 6.12247C36.4509 5.79911 36.2553 5.51681 35.9772 5.33748C35.6986 5.15892 35.3605 5.09813 35.0372 5.16843C34.7138 5.23872 34.4315 5.43437 34.2522 5.71248L32.1022 9.06248C31.8472 8.72265 31.534 8.43064 31.1772 8.19998C30.3399 7.66547 29.3246 7.48505 28.3544 7.69831C27.3842 7.91157 26.5382 8.5011 26.0022 9.33748C25.7317 9.74987 25.5479 10.213 25.4619 10.6986C25.376 11.1842 25.3897 11.6823 25.5022 12.1625ZM28.1022 10.6875C28.1907 10.5484 28.3059 10.4282 28.441 10.3338C28.5762 10.2394 28.7286 10.1727 28.8897 10.1375C28.9809 10.1245 29.0735 10.1245 29.1647 10.1375C29.387 10.1393 29.6048 10.2003 29.7956 10.3142C29.9865 10.4282 30.1435 10.591 30.2504 10.7859C30.3574 10.9807 30.4105 11.2006 30.4042 11.4228C30.3979 11.645 30.3325 11.8615 30.2147 12.05C30.1262 12.1891 30.011 12.3092 29.8759 12.4036C29.7407 12.498 29.5882 12.5648 29.4272 12.6C29.1865 12.6527 28.9355 12.6331 28.7059 12.5436C28.4763 12.4542 28.2782 12.2988 28.1366 12.0971C27.995 11.8954 27.9162 11.6564 27.9101 11.41C27.904 11.1636 27.9708 10.921 28.1022 10.7125V10.6875Z" fill="#E05704" />
  <path d="M43 10.5C43.3315 10.5 43.6495 10.3683 43.8839 10.1339C44.1183 9.89946 44.25 9.58152 44.25 9.25V4.25C44.25 3.91848 44.1183 3.60054 43.8839 3.36612C43.6495 3.1317 43.3315 3 43 3C42.6685 3 42.3505 3.1317 42.1161 3.36612C41.8817 3.60054 41.75 3.91848 41.75 4.25V9.25C41.75 9.58152 41.8817 9.89946 42.1161 10.1339C42.3505 10.3683 42.6685 10.5 43 10.5Z" fill="#E05704" />
  <path d="M4.25 25.5V29.25C4.25 29.5815 4.3817 29.8995 4.61612 30.1339C4.85054 30.3683 5.16848 30.5 5.5 30.5C5.83152 30.5 6.14946 30.3683 6.38388 30.1339C6.6183 29.8995 6.75 29.5815 6.75 29.25V25.5C6.75 25.1685 6.6183 24.8505 6.38388 24.6161C6.14946 24.3817 5.83152 24.25 5.5 24.25C5.16848 24.25 4.85054 24.3817 4.61612 24.6161C4.3817 24.8505 4.25 25.1685 4.25 25.5Z" fill="#E05704" />
  <path d="M30.5 21.75C31.1904 21.75 31.75 21.1904 31.75 20.5C31.75 19.8096 31.1904 19.25 30.5 19.25C29.8096 19.25 29.25 19.8096 29.25 20.5C29.25 21.1904 29.8096 21.75 30.5 21.75Z" fill="#E05704" />
  <path d="M24.25 4.25C24.9404 4.25 25.5 3.69036 25.5 3C25.5 2.30964 24.9404 1.75 24.25 1.75C23.5596 1.75 23 2.30964 23 3C23 3.69036 23.5596 4.25 24.25 4.25Z" fill="#E05704" />
</svg>