
<svg width="83" height="36" viewBox="0 0 83 36" fill="none" xmlns="http://www.w3.org/2000/svg">
<g clip-path="url(#clip0_1496_4616)">
<mask id="mask0_1496_4616" style="mask-type:luminance" maskUnits="userSpaceOnUse" x="0" y="5" width="71" height="31">
<path d="M70.55 5.39795H0V35.9979H70.55V5.39795Z" fill="white"/>
</mask>
<g mask="url(#mask0_1496_4616)">
<path d="M25.76 14.178C22.3788 15.0464 3.80164 19.7495 8.15247 26.056C10.5129 29.4631 14.7489 31.347 19.0488 32.6431L24.6372 29.3028C25.4282 28.8351 25.9131 27.9667 25.9131 27.0179L25.9642 14.4185C25.9642 14.3249 25.9642 14.218 25.9514 14.1245C25.8876 14.1379 25.8238 14.1646 25.76 14.178Z" fill="url(#paint0_linear_1496_4616)"/>
<path d="M4.0829 27.6058C-1.14832 18.6539 11.8149 12.3474 20.0191 9.24764L14.3029 5.76039C13.5246 5.27939 12.5677 5.27939 11.7766 5.74703L1.32694 12C0.535881 12.4677 0.0510363 13.3362 0.0510363 14.2848L0 26.8844C0 27.833 0.472086 28.7015 1.25039 29.1824L11.649 35.5423C12.4273 36.0233 13.397 36.0233 14.1753 35.5558L15.5533 34.7274C10.8197 33.4714 6.03504 30.9595 4.0829 27.6058Z" fill="url(#paint1_linear_1496_4616)"/>
<path d="M24.1007 6.48242C17.5425 8.64692 -2.17015 15.5813 4.08179 26.2702C7.3226 31.8152 18.2955 35.0618 23.9859 34.0999L26.6526 33.2581C20.7579 31.7617 11.9669 30.2519 8.15193 24.7204C3.80109 18.4139 22.3782 13.7108 25.7595 12.8423C27.4309 12.3613 28.426 10.5576 27.9668 8.80725C27.5074 7.05695 25.7849 6.01478 24.1007 6.48242Z" fill="#85371F"/>
<path d="M37.5631 16.7563C37.9331 17.1437 37.7418 17.0101 38.1882 17.2506C41.1739 18.894 42.6923 20.1634 44.4785 23.0895C49.3524 31.1062 36.4785 35.2748 34.4882 27.8461C34.2329 26.884 34.5392 23.0493 35.4196 22.4213L35.3429 22.4882C36.5424 21.7801 36.9379 20.2703 36.2233 19.0945C35.5088 17.9187 33.9522 17.5312 32.7529 18.2394C28.9635 21.1254 28.8615 27.7524 31.3111 31.36C38.1373 41.3942 54.2392 31.6405 46.4688 21.7801C44.772 19.6289 40.5104 15.8744 37.5631 16.7563Z" fill="#85371F"/>
<path d="M67.9042 16.4909C66.5646 15.9431 55.3493 17.2525 52.7975 16.8917C51.7641 16.3439 50.4371 16.5577 49.6461 17.4796C48.7529 18.5351 48.8931 20.0984 49.965 20.9669C51.3429 21.8487 53.7416 21.7017 56.102 21.2341C56.4976 25.4161 57.5949 34.0875 60.5296 34.4215C60.6826 33.9673 60.6698 34.1677 60.6316 33.7668C60.1978 28.8767 60.5678 24.7614 60.976 19.9514C61.244 19.8712 61.4865 19.7911 61.7161 19.7243C62.3795 19.5372 68.5039 17.6667 67.9042 16.4909ZM52.3764 16.7848C52.5168 16.7982 52.6316 16.8383 52.7464 16.8917C52.5805 16.865 52.4657 16.8249 52.3764 16.7848Z" fill="#85371F"/>
<path d="M34.0469 8.37509H32.5477V10.6102H31.4785V7.5119H34.0469V8.37509ZM36.9623 7.46045C37.2413 7.46045 37.4941 7.52715 37.7204 7.66053C37.9505 7.79011 38.1315 7.97683 38.2635 8.22074C38.3992 8.46083 38.4671 8.74094 38.4671 9.06106C38.4671 9.38119 38.3992 9.6632 38.2635 9.9071C38.1315 10.1472 37.9505 10.3339 37.7204 10.4673C37.4941 10.5969 37.2413 10.6617 36.9623 10.6617C36.604 10.6617 36.3192 10.5531 36.108 10.3358V11.7192H35.0331V7.5119H36.0571V7.82059C36.2569 7.5805 36.5588 7.46045 36.9623 7.46045ZM36.736 9.79849C36.9245 9.79849 37.0793 9.73371 37.1999 9.60413C37.3205 9.47075 37.3809 9.28972 37.3809 9.06106C37.3809 8.83241 37.3205 8.65329 37.1999 8.52372C37.0793 8.39034 36.9245 8.32364 36.736 8.32364C36.5475 8.32364 36.3927 8.39034 36.2721 8.52372C36.1515 8.65329 36.0911 8.83241 36.0911 9.06106C36.0911 9.28972 36.1515 9.47075 36.2721 9.60413C36.3927 9.73371 36.5475 9.79849 36.736 9.79849ZM40.733 7.46045C41.2422 7.46045 41.6306 7.5786 41.8985 7.81487C42.1662 8.04735 42.3001 8.40557 42.3001 8.88957V10.6102H41.2988V10.2101C41.144 10.5112 40.8424 10.6617 40.3936 10.6617C40.156 10.6617 39.9503 10.6198 39.777 10.5359C39.6034 10.4521 39.4715 10.3397 39.3809 10.1986C39.2941 10.0538 39.2508 9.88995 39.2508 9.70703C39.2508 9.41359 39.362 9.18683 39.5846 9.02677C39.8071 8.86289 40.1503 8.78096 40.6142 8.78096H41.2252C41.2063 8.45322 40.9895 8.28934 40.5746 8.28934C40.4276 8.28934 40.2785 8.31411 40.1277 8.36365C39.9768 8.40939 39.8485 8.47417 39.743 8.55801L39.3809 7.82059C39.5507 7.70626 39.7562 7.61861 39.9976 7.55763C40.2427 7.49285 40.4878 7.46045 40.733 7.46045ZM40.6934 9.9757C40.8179 9.9757 40.9272 9.94522 41.0216 9.88424C41.1157 9.82326 41.1836 9.73371 41.2252 9.61556V9.34689H40.7613C40.4482 9.34689 40.2918 9.45169 40.2918 9.6613C40.2918 9.75658 40.3276 9.83279 40.3993 9.88995C40.4708 9.94712 40.569 9.9757 40.6934 9.9757ZM43.5124 7.5119H44.5817V8.66091H45.6849V7.5119H46.7597V10.6102H45.6849V9.5241H44.5817V10.6102H43.5124V7.5119ZM50.7886 8.37509H49.8042V10.6102H48.735V8.37509H47.745V7.5119H50.7886V8.37509ZM53.5246 8.47227C53.9281 8.47608 54.2317 8.56755 54.4354 8.74666C54.639 8.92577 54.7409 9.18111 54.7409 9.51267C54.7409 9.85947 54.6221 10.13 54.3845 10.3244C54.1507 10.5188 53.8187 10.614 53.3888 10.6102H51.7708V7.5119H52.84V8.47227H53.5246ZM55.0011 7.5119H56.0704V10.6102H55.0011V7.5119ZM53.2813 9.86709C53.5529 9.86709 53.6886 9.74323 53.6886 9.49552C53.6886 9.37357 53.6547 9.28401 53.5868 9.22684C53.5189 9.16968 53.4171 9.1392 53.2813 9.13538H52.84V9.86137L53.2813 9.86709Z" fill="#85371F"/>
<path d="M59.9513 10.2239V10.5037H57.8272V10.2808L59.0861 9.03491C59.2447 8.87754 59.3515 8.74202 59.4062 8.62837C59.464 8.5118 59.4928 8.39522 59.4928 8.27865C59.4928 8.09796 59.4307 7.95807 59.3067 7.85899C59.1856 7.75699 59.0111 7.70599 58.7833 7.70599C58.4285 7.70599 58.1531 7.81965 57.957 8.04697L57.7363 7.85462C57.8546 7.71474 58.0046 7.60691 58.1863 7.53114C58.3708 7.45536 58.5784 7.41748 58.8092 7.41748C59.1179 7.41748 59.3615 7.49179 59.5403 7.64042C59.722 7.78614 59.8129 7.98723 59.8129 8.24368C59.8129 8.40105 59.7783 8.55259 59.7091 8.69831C59.6398 8.84403 59.5086 9.01159 59.3154 9.20102L58.2858 10.2239H59.9513ZM61.5324 10.5299C61.2988 10.5299 61.0896 10.4673 60.9051 10.342C60.7234 10.2167 60.5806 10.0374 60.4768 9.80428C60.3758 9.56822 60.3254 9.29136 60.3254 8.97371C60.3254 8.65606 60.3758 8.38066 60.4768 8.14751C60.5806 7.91145 60.7234 7.73076 60.9051 7.60545C61.0896 7.48014 61.2988 7.41748 61.5324 7.41748C61.766 7.41748 61.9737 7.48014 62.1554 7.60545C62.3399 7.73076 62.4841 7.91145 62.588 8.14751C62.6918 8.38066 62.7437 8.65606 62.7437 8.97371C62.7437 9.29136 62.6918 9.56822 62.588 9.80428C62.4841 10.0374 62.3399 10.2167 62.1554 10.342C61.9737 10.4673 61.766 10.5299 61.5324 10.5299ZM61.5324 10.2414C61.7083 10.2414 61.8625 10.1919 61.9953 10.0928C62.1307 9.99372 62.2361 9.84946 62.3111 9.66002C62.386 9.47059 62.4236 9.24183 62.4236 8.97371C62.4236 8.70559 62.386 8.47683 62.3111 8.28739C62.2361 8.09796 62.1307 7.9537 61.9953 7.85462C61.8625 7.75554 61.7083 7.70599 61.5324 7.70599C61.3563 7.70599 61.2006 7.75554 61.0652 7.85462C60.9324 7.9537 60.8285 8.09796 60.7537 8.28739C60.6786 8.47683 60.6412 8.70559 60.6412 8.97371C60.6412 9.24183 60.6786 9.47059 60.7537 9.66002C60.8285 9.84946 60.9324 9.99372 61.0652 10.0928C61.2006 10.1919 61.3563 10.2414 61.5324 10.2414ZM65.2492 10.2239V10.5037H63.1251V10.2808L64.384 9.03491C64.5426 8.87754 64.6494 8.74202 64.7041 8.62837C64.7619 8.5118 64.7907 8.39522 64.7907 8.27865C64.7907 8.09796 64.7286 7.95807 64.6046 7.85899C64.4835 7.75699 64.309 7.70599 64.0812 7.70599C63.7264 7.70599 63.451 7.81965 63.2549 8.04697L63.0342 7.85462C63.1524 7.71474 63.3025 7.60691 63.4842 7.53114C63.6687 7.45536 63.8763 7.41748 64.1071 7.41748C64.4156 7.41748 64.6594 7.49179 64.8383 7.64042C65.02 7.78614 65.1108 7.98723 65.1108 8.24368C65.1108 8.40105 65.0762 8.55259 65.007 8.69831C64.9378 8.84403 64.8065 9.01159 64.6133 9.20102L63.5837 10.2239H65.2492ZM66.6697 8.75514C66.987 8.77262 67.2278 8.86005 67.3922 9.01742C67.5596 9.17189 67.6431 9.37442 67.6431 9.62505C67.6431 9.79991 67.6013 9.95582 67.5177 10.0928C67.4341 10.2268 67.31 10.3332 67.1456 10.4119C66.9812 10.4906 66.7807 10.5299 66.5443 10.5299C66.3251 10.5299 66.1175 10.495 65.9213 10.425C65.7281 10.3522 65.5724 10.256 65.4541 10.1365L65.6055 9.88734C65.7065 9.99225 65.8406 10.0782 66.0078 10.1453C66.1752 10.2094 66.3539 10.2414 66.5443 10.2414C66.7924 10.2414 66.984 10.1875 67.1196 10.0797C67.2553 9.96893 67.323 9.81739 67.323 9.62505C67.323 9.43562 67.2553 9.28699 67.1196 9.17917C66.984 9.07134 66.7794 9.01742 66.5053 9.01742H66.289V8.78574L67.1283 7.72348H65.5795V7.44371H67.5263V7.66665L66.6697 8.75514Z" fill="#85371F"/>
</g>
</g>
<defs>
<linearGradient id="paint0_linear_1496_4616" x1="22.8455" y1="12.1578" x2="14.4833" y2="28.7762" gradientUnits="userSpaceOnUse">
<stop stop-color="#FFC500"/>
<stop offset="1" stop-color="#FB6902"/>
</linearGradient>
<linearGradient id="paint1_linear_1496_4616" x1="16.1129" y1="6.10802" x2="4.60836" y2="28.971" gradientUnits="userSpaceOnUse">
<stop stop-color="#FFC500"/>
<stop offset="1" stop-color="#FB6902"/>
</linearGradient>
<clipPath id="clip0_1496_4616">
<rect width="83" height="36" fill="white" transform="translate(0 -0.000488281)"/>
</clipPath>
</defs>
</svg>
