<svg width="97" height="24" viewBox="0 0 97 24" fill="none" xmlns="http://www.w3.org/2000/svg">
<path fill-rule="evenodd" clip-rule="evenodd" d="M30.8197 5.30548H21.4555L20.1385 6.66045V17.3688L21.4555 18.6906H30.8197L32.1409 17.3688V6.66287L30.8197 5.30548ZM29.4822 16.0132H22.814V7.98468H29.4822V16.0132ZM16.1459 18.6912H6.78168L5.46289 17.3718V6.66347L6.78168 5.30608H16.1459L17.4641 6.66347V9.32156H14.8078V7.98287H8.13847V16.0138H14.8078V14.6944H17.4641V17.3718L16.1459 18.6912ZM41.487 5.30548H49.4926L50.8307 6.66287V17.3712L49.4926 18.693H41.487L40.1495 17.3712V13.3557H37.4908V18.6924H34.8153V5.30548H37.4908V10.6759H40.1495V6.66045L41.487 5.30548ZM42.8251 16.0132H48.1757V7.98468H42.8251V16.0132ZM64.1869 18.6912H54.8227L53.5045 17.3718V14.6944H56.1795V16.0138H62.8494V13.3563H58.8364V10.6789H62.8494V7.98287H56.1795V9.32156H53.5045V6.66347L54.8227 5.30608H64.1869L65.5057 6.66347V10.6789L64.1869 12.0176L65.5057 13.3563V17.3718L64.1869 18.6912ZM90.3734 5.30548H69.4983L68.1813 6.66045V17.3688L69.4983 18.6924H90.3746L91.6953 17.3706V6.66287L90.3734 5.30548ZM72.4663 14.42H70.8538V16.0337H72.4663V14.42ZM70.8538 7.96658H77.2928L78.0888 8.78607V12.8202L77.2928 13.6271H70.8538V7.96658ZM72.4669 12.0104H76.486V9.58025H72.4669V12.0104ZM88.2297 7.96658H80.1764L79.3823 8.78306V14.0401L80.1764 14.8343H83.4014V16.0343H85.0144V14.8331H88.2297L89.0359 14.0389V8.78306L88.2297 7.96658ZM83.4014 13.2206H80.9953V9.58025H83.4014V13.2206ZM87.4337 13.2206H85.0144V9.58025H87.4337V13.2206Z" fill="#656D75"/>
</svg>