<svg width="40" height="40" viewBox="0 0 40 40" fill="none" xmlns="http://www.w3.org/2000/svg">
<path d="M20.8333 39.4995H19.1667C14.6359 39.4995 11.2838 39.4985 8.71223 39.1539C6.15458 38.8113 4.44479 38.1372 3.15355 36.846C1.86225 35.5547 1.18819 33.8448 0.845558 31.2913C0.501056 28.724 0.5 25.3802 0.5 20.8662V19.1662C0.5 14.6355 0.501042 11.2832 0.843541 8.71135C1.18418 6.1535 1.85432 4.44359 3.13742 3.15253C4.42875 1.86149 6.13442 1.18765 8.69139 0.845084C11.263 0.500567 14.6192 0.499512 19.1667 0.499512H20.8333C25.3724 0.499512 28.7287 0.500565 31.3024 0.845091C33.8619 1.18772 35.5716 1.86174 36.8628 3.15272C38.1458 4.44382 38.8159 6.15377 39.1565 8.70729C39.499 11.2749 39.5 14.6189 39.5 19.1328V20.8328C39.5 25.3635 39.499 28.7159 39.1565 31.2877C38.8158 33.8454 38.1457 35.5553 36.8627 36.8464C35.5714 38.1375 33.8657 38.8114 31.3086 39.1539C28.737 39.4985 25.3808 39.4995 20.8333 39.4995Z" stroke="#E05704"/>
<path fill-rule="evenodd" clip-rule="evenodd" d="M28.3033 28.6881L28.3041 28.6861L28.3241 28.6361L31.7644 11.2912V11.2349C31.7644 10.8027 31.6047 10.4254 31.2572 10.1991C30.9531 10.001 30.6035 9.98694 30.3583 10.0055C30.0989 10.0252 29.8545 10.0899 29.6853 10.1438C29.5982 10.1715 29.5253 10.1982 29.4731 10.2184C29.447 10.2286 29.4257 10.2372 29.4104 10.2436L29.3952 10.25L10.2138 17.7746L10.2085 17.7764C10.1982 17.7802 10.1845 17.7853 10.1679 17.7918C10.1349 17.8046 10.09 17.823 10.0373 17.8469C9.93372 17.8939 9.79061 17.9663 9.64549 18.0656C9.399 18.2345 8.92965 18.6341 9.0089 19.2676C9.07455 19.7923 9.43628 20.1256 9.68014 20.2981C9.81086 20.3907 9.93593 20.4573 10.0275 20.5009C10.0739 20.5231 10.1133 20.5399 10.1427 20.5519C10.1574 20.5578 10.1697 20.5627 10.1792 20.5663L10.1914 20.5708L10.1992 20.5738L13.5551 21.7036C13.5438 21.9141 13.5647 22.1287 13.6205 22.3406L15.3015 28.7174C15.5008 29.4734 16.1848 30.0001 16.9668 29.9995C17.6676 29.9991 18.2892 29.575 18.5533 28.9425L21.1778 26.1362L25.6852 29.5919L25.7493 29.6199C26.1588 29.7986 26.5415 29.8552 26.8913 29.8075C27.2406 29.7597 27.5181 29.6132 27.7267 29.4464C27.9319 29.2823 28.0725 29.097 28.1609 28.9575C28.2059 28.8866 28.2394 28.8243 28.2626 28.7774C28.2743 28.7539 28.2835 28.734 28.2903 28.7184L28.2991 28.6984L28.3022 28.6911L28.3033 28.6881ZM15.2844 21.9019C15.2462 21.757 15.3062 21.604 15.4328 21.5237L26.8156 14.2951C26.8156 14.2951 27.4851 13.8886 27.4611 14.2951C27.4611 14.2951 27.5807 14.3669 27.2218 14.7015C26.8815 15.0194 19.1091 22.5235 18.3226 23.2828C18.2772 23.3267 18.2501 23.3769 18.2341 23.4379L16.9655 28.2787L15.2844 21.9019Z" fill="#E05704"/>
</svg>
