<svg width="40" height="40" viewBox="0 0 40 40" fill="none" xmlns="http://www.w3.org/2000/svg">
<path d="M20.8333 39.4995H19.1667C14.6359 39.4995 11.2838 39.4985 8.71223 39.1539C6.15458 38.8113 4.44479 38.1372 3.15355 36.846C1.86225 35.5547 1.18819 33.8448 0.845558 31.2913C0.501056 28.724 0.5 25.3802 0.5 20.8662V19.1662C0.5 14.6355 0.501042 11.2832 0.843541 8.71135C1.18418 6.1535 1.85432 4.44359 3.13742 3.15253C4.42875 1.86149 6.13442 1.18765 8.69139 0.845084C11.263 0.500567 14.6192 0.499512 19.1667 0.499512H20.8333C25.3724 0.499512 28.7287 0.500565 31.3024 0.845091C33.8619 1.18772 35.5716 1.86174 36.8628 3.15272C38.1458 4.44382 38.8159 6.15377 39.1565 8.70729C39.499 11.2749 39.5 14.6189 39.5 19.1328V20.8328C39.5 25.3635 39.499 28.7159 39.1565 31.2877C38.8158 33.8454 38.1457 35.5553 36.8627 36.8464C35.5714 38.1375 33.8657 38.8114 31.3086 39.1539C28.737 39.4985 25.3808 39.4995 20.8333 39.4995Z" stroke="#E05704"/>
<path d="M21.1612 28.9995C12.278 28.9995 7.21112 22.6181 7 11.9995H11.4497C11.5959 19.7933 14.8763 23.0946 17.4747 23.7753V11.9995H21.6646V18.7212C24.2305 18.4319 26.9263 15.3689 27.8357 11.9995H32.0256C31.6829 13.747 30.9998 15.4015 30.019 16.8597C29.0382 18.3179 27.7808 19.5483 26.3254 20.474C27.9499 21.3198 29.3848 22.517 30.5353 23.9866C31.6859 25.4562 32.5259 27.1648 33 28.9995H28.3879C27.9623 27.4059 27.0973 25.9793 25.9013 24.8987C24.7053 23.818 23.2315 23.1312 21.6646 22.9244V28.9995H21.1612Z" fill="#E05704"/>
</svg>
