<svg width="106" height="106" viewBox="0 0 106 106" fill="none" xmlns="http://www.w3.org/2000/svg">
  <path d="M99.7525 34.1519V63.1363C99.7525 64.2625 99.4047 65.2894 98.8084 66.1341L97.3675 67.5585L97.3344 67.575L76.0847 88.4603C76.0847 93.0481 72.3747 96.7581 67.7869 96.7581H66.4619C61.8741 96.7581 58.1641 93.0481 58.1641 88.4603V71.6494C58.1641 67.4591 61.2447 64.0141 65.2694 63.451C65.435 63.2522 65.6503 63.07 65.8822 62.9044L81.5834 50.9794C82.66 50.1678 83.9187 49.82 85.1609 49.9028V34.1519C85.1609 31.2203 87.5459 28.8353 90.4775 28.8353H94.4525C97.3841 28.8353 99.7525 31.2203 99.7525 34.1519Z" stroke="#656D75" stroke-width="2" stroke-miterlimit="10" stroke-linecap="round" stroke-linejoin="round" />
  <path d="M84.9439 49.8862C88.6208 51.5425 89.6145 53.7287 89.8961 54.5237C91.602 59.1944 87.6105 66.399 78.9648 70.6556" stroke="#656D75" stroke-width="2" stroke-miterlimit="10" stroke-linecap="round" stroke-linejoin="round" />
  <path d="M5.89453 34.1519V63.1363C5.89453 64.2625 6.24234 65.2894 6.83859 66.1341L8.27953 67.5585L8.31266 67.575L29.5623 88.4603C29.5623 93.0481 33.2723 96.7581 37.8602 96.7581H39.1852C43.773 96.7581 47.483 93.0481 47.483 88.4603V71.6494C47.483 67.4591 44.4023 64.0141 40.3777 63.451C40.212 63.2522 39.9967 63.07 39.7648 62.9044L24.0636 50.9794C22.987 50.1678 21.7283 49.82 20.4861 49.9028V34.1519C20.4861 31.2203 18.1011 28.8353 15.1695 28.8353H11.1945C8.27953 28.8353 5.89453 31.2203 5.89453 34.1519Z" stroke="#656D75" stroke-width="2" stroke-miterlimit="10" stroke-linecap="round" stroke-linejoin="round" />
  <path d="M21.2991 50.1512C17.1088 51.5756 16.0156 53.8447 15.7506 54.5072C13.9619 58.8962 17.8375 66.1837 26.6819 70.6391" stroke="#656D75" stroke-width="2" stroke-miterlimit="10" stroke-linecap="round" stroke-linejoin="round" />
  <path d="M75.6403 25.1916C75.6403 25.8044 75.6072 26.4006 75.4913 26.9803C75.5078 27.0797 75.4913 27.1625 75.4581 27.2453C75.3256 27.9409 75.1434 28.6531 74.9447 29.3487C72.2947 38.0772 63.8147 47.5344 53.7447 57.2731C35.8572 41.1247 28.4703 31.6841 28.4372 26.9803H28.4538C28.3378 26.4006 28.3047 25.8044 28.3047 25.1916C28.3047 18.1691 34.0022 12.4716 41.0247 12.4716C45.6953 12.4716 49.7862 14.9725 51.9725 18.7322C54.1587 14.9725 58.2663 12.4716 62.9203 12.4716C69.9428 12.4716 75.6403 18.1691 75.6403 25.1916Z" stroke="#656D75" stroke-width="2" stroke-miterlimit="10" stroke-linecap="round" stroke-linejoin="round" />
  <path opacity="0.3" d="M94.6684 28.8519C94.9996 29.8788 95.4302 31.386 95.7946 33.241C96.4902 36.7357 96.8215 40.8929 96.1921 46.6566C95.0162 57.4554 94.2709 64.2129 89.6334 70.5066C85.2112 76.5188 76.2343 83.4254 72.7396 86.1085C71.7624 86.8538 69.1456 89.0401 67.7212 92.6672C67.2077 93.9426 66.9759 95.3835 67.0918 96.7582H67.7874C72.3752 96.7582 76.0852 93.0482 76.0852 88.4604L97.3515 67.5751L97.3846 67.5585L98.8255 66.1341C99.4218 65.2894 99.7696 64.246 99.7696 63.1363V34.1519C99.7531 31.2866 97.5005 28.9679 94.6684 28.8519Z" fill="#656D75" />
  <path opacity="0.3" d="M10.9958 28.8519C10.6645 29.8788 10.2339 31.386 9.86953 33.241C9.17391 36.7357 8.84266 40.8929 9.47203 46.6566C10.648 57.4554 11.3933 64.2129 16.0308 70.5066C20.453 76.5188 29.4298 83.4254 32.9245 86.1085C33.9017 86.8538 36.5186 89.0401 37.943 92.6672C38.4564 93.9426 38.6883 95.3835 38.5723 96.7582H37.8767C33.2889 96.7582 29.5789 93.0482 29.5789 88.4604L8.31266 67.5751L8.27953 67.5585L6.83859 66.1341C6.24234 65.2894 5.89453 64.246 5.89453 63.1363V34.1519C5.89453 31.2866 8.16359 28.9679 10.9958 28.8519Z" fill="#656D75" />
  <path opacity="0.3" d="M75.4558 27.2287C75.4889 27.1625 75.5055 27.0631 75.4889 26.9637C75.6048 26.3841 75.638 25.7878 75.638 25.175C75.638 19.2787 71.6133 14.3266 66.1642 12.8856C67.6052 14.0616 69.8577 16.2644 70.9508 19.6431C72.1433 23.2869 71.4477 26.6656 70.2386 30.4087C67.2905 39.4519 62.3217 47.3025 58.3633 52.6687C66.3298 44.5366 72.7064 36.6694 74.9423 29.3322C75.1411 28.6366 75.3398 27.9409 75.4558 27.2287Z" fill="#656D75" />
</svg>