<svg width="106" height="106" viewBox="0 0 106 106" fill="none" xmlns="http://www.w3.org/2000/svg">
  <path d="M99.7564 34.1519V63.1363C99.7564 64.2625 99.4086 65.2894 98.8123 66.1341L97.3714 67.5585L97.3383 67.575L76.0886 88.4603C76.0886 93.0481 72.3786 96.7581 67.7908 96.7581H66.4658C61.878 96.7581 58.168 93.0481 58.168 88.4603V71.6494C58.168 67.4591 61.2486 64.0141 65.2733 63.451C65.4389 63.2522 65.6542 63.07 65.8861 62.9044L81.5873 50.9794C82.6639 50.1678 83.9227 49.82 85.1648 49.9028V34.1519C85.1648 31.2203 87.5498 28.8353 90.4814 28.8353H94.4564C97.388 28.8353 99.7564 31.2203 99.7564 34.1519Z" fill="#F9C995" />
  <path d="M84.9498 49.8862C88.6266 51.5425 89.6204 53.7287 89.902 54.5237C91.6079 59.1944 87.6163 66.399 78.9707 70.6556" fill="#F9C995" />
  <path d="M5.89648 34.1519V63.1363C5.89648 64.2625 6.2443 65.2894 6.84055 66.1341L8.28148 67.5585L8.31461 67.575L29.5643 88.4603C29.5643 93.0481 33.2743 96.7581 37.8621 96.7581H39.1871C43.7749 96.7581 47.4849 93.0481 47.4849 88.4603V71.6494C47.4849 67.4591 44.4043 64.0141 40.3796 63.451C40.214 63.2522 39.9987 63.07 39.7668 62.9044L24.0655 50.9794C22.989 50.1678 21.7302 49.82 20.488 49.9028V34.1519C20.488 31.2203 18.103 28.8353 15.1715 28.8353H11.1965C8.28148 28.8353 5.89648 31.2203 5.89648 34.1519Z" fill="#F9C995" />
  <path d="M21.2991 50.1512C17.1088 51.5756 16.0156 53.8447 15.7506 54.5072C13.9619 58.8962 17.8375 66.1837 26.6819 70.6391" fill="#F9C995" />
  <path d="M75.6403 25.1916C75.6403 25.8044 75.6072 26.4006 75.4913 26.9803C75.5078 27.0797 75.4913 27.1625 75.4581 27.2453C75.3256 27.9409 75.1434 28.6531 74.9447 29.3487C72.2947 38.0772 63.8147 47.5344 53.7447 57.2731C35.8572 41.1247 28.4703 31.6841 28.4372 26.9803H28.4538C28.3378 26.4006 28.3047 25.8044 28.3047 25.1916C28.3047 18.1691 34.0022 12.4716 41.0247 12.4716C45.6953 12.4716 49.7862 14.9725 51.9725 18.7322C54.1587 14.9725 58.2663 12.4716 62.9203 12.4716C69.9428 12.4716 75.6403 18.1691 75.6403 25.1916Z" fill="#C52026" />
  <path d="M99.7564 34.1519V63.1363C99.7564 64.2625 99.4086 65.2894 98.8123 66.1341L97.3714 67.5585L97.3383 67.575L76.0886 88.4603C76.0886 93.0481 72.3786 96.7581 67.7908 96.7581H66.4658C61.878 96.7581 58.168 93.0481 58.168 88.4603V71.6494C58.168 67.4591 61.2486 64.0141 65.2733 63.451C65.4389 63.2522 65.6542 63.07 65.8861 62.9044L81.5873 50.9794C82.6639 50.1678 83.9227 49.82 85.1648 49.9028V34.1519C85.1648 31.2203 87.5498 28.8353 90.4814 28.8353H94.4564C97.388 28.8353 99.7564 31.2203 99.7564 34.1519Z" stroke="#0E0806" stroke-width="2" stroke-miterlimit="10" stroke-linecap="round" stroke-linejoin="round" />
  <path d="M84.9498 49.8862C88.6266 51.5425 89.6204 53.7287 89.902 54.5237C91.6079 59.1944 87.6163 66.399 78.9707 70.6556" stroke="#0E0806" stroke-width="2" stroke-miterlimit="10" stroke-linecap="round" stroke-linejoin="round" />
  <path d="M5.89648 34.1519V63.1363C5.89648 64.2625 6.2443 65.2894 6.84055 66.1341L8.28148 67.5585L8.31461 67.575L29.5643 88.4603C29.5643 93.0481 33.2743 96.7581 37.8621 96.7581H39.1871C43.7749 96.7581 47.4849 93.0481 47.4849 88.4603V71.6494C47.4849 67.4591 44.4043 64.0141 40.3796 63.451C40.214 63.2522 39.9987 63.07 39.7668 62.9044L24.0655 50.9794C22.989 50.1678 21.7302 49.82 20.488 49.9028V34.1519C20.488 31.2203 18.103 28.8353 15.1715 28.8353H11.1965C8.28148 28.8353 5.89648 31.2203 5.89648 34.1519Z" stroke="#0E0806" stroke-width="2" stroke-miterlimit="10" stroke-linecap="round" stroke-linejoin="round" />
  <path d="M21.2991 50.1512C17.1088 51.5756 16.0156 53.8447 15.7506 54.5072C13.9619 58.8962 17.8375 66.1837 26.6819 70.6391" stroke="#0E0806" stroke-width="2" stroke-miterlimit="10" stroke-linecap="round" stroke-linejoin="round" />
  <path d="M75.6403 25.1916C75.6403 25.8044 75.6072 26.4006 75.4913 26.9803C75.5078 27.0797 75.4913 27.1625 75.4581 27.2453C75.3256 27.9409 75.1434 28.6531 74.9447 29.3487C72.2947 38.0772 63.8147 47.5344 53.7447 57.2731C35.8572 41.1247 28.4703 31.6841 28.4372 26.9803H28.4538C28.3378 26.4006 28.3047 25.8044 28.3047 25.1916C28.3047 18.1691 34.0022 12.4716 41.0247 12.4716C45.6953 12.4716 49.7862 14.9725 51.9725 18.7322C54.1587 14.9725 58.2663 12.4716 62.9203 12.4716C69.9428 12.4716 75.6403 18.1691 75.6403 25.1916Z" stroke="#0E0806" stroke-width="2" stroke-miterlimit="10" stroke-linecap="round" stroke-linejoin="round" />
  <path opacity="0.3" d="M94.6723 28.8519C95.0035 29.8788 95.4341 31.386 95.7985 33.241C96.4941 36.7357 96.8254 40.8929 96.196 46.6566C95.0201 57.4554 94.2748 64.2129 89.6373 70.5066C85.2151 76.5188 76.2382 83.4254 72.7435 86.1085C71.7663 86.8538 69.1495 89.0401 67.7251 92.6672C67.2116 93.9426 66.9798 95.3835 67.0957 96.7582H67.7913C72.3791 96.7582 76.0891 93.0482 76.0891 88.4604L97.3554 67.5751L97.3885 67.5585L98.8295 66.1341C99.4257 65.2894 99.7735 64.246 99.7735 63.1363V34.1519C99.757 31.2866 97.5045 28.9679 94.6723 28.8519Z" fill="#0E0806" />
  <path opacity="0.3" d="M10.9977 28.8519C10.6665 29.8788 10.2359 31.386 9.87148 33.241C9.17586 36.7357 8.84461 40.8929 9.47398 46.6566C10.6499 57.4554 11.3952 64.2129 16.0327 70.5066C20.4549 76.5188 29.4318 83.4254 32.9265 86.1085C33.9037 86.8538 36.5205 89.0401 37.9449 92.6672C38.4584 93.9426 38.6902 95.3835 38.5743 96.7582H37.8787C33.2909 96.7582 29.5809 93.0482 29.5809 88.4604L8.31461 67.5751L8.28148 67.5585L6.84055 66.1341C6.2443 65.2894 5.89648 64.246 5.89648 63.1363V34.1519C5.89648 31.2866 8.16555 28.9679 10.9977 28.8519Z" fill="#0E0806" />
  <path opacity="0.3" d="M75.4597 27.2287C75.4928 27.1625 75.5094 27.0631 75.4928 26.9637C75.6088 26.3841 75.6419 25.7878 75.6419 25.175C75.6419 19.2787 71.6172 14.3266 66.1681 12.8856C67.6091 14.0616 69.8616 16.2644 70.9547 19.6431C72.1472 23.2869 71.4516 26.6656 70.2425 30.4087C67.2944 39.4519 62.3256 47.3025 58.3672 52.6687C66.3337 44.5366 72.7103 36.6694 74.9462 29.3322C75.145 28.6366 75.3437 27.9409 75.4597 27.2287Z" fill="#0E0806" />
  <path opacity="0.3" d="M70.7058 63.3847C73.5214 61.1488 74.9292 60.2544 77.8277 57.621C80.4942 55.1697 82.5811 52.6191 81.3555 51.145L65.8861 62.8878C65.6708 63.0535 65.4389 63.2356 65.2733 63.4344C61.2486 64.0141 58.168 67.4591 58.168 71.6328V88.4438C58.168 90.9447 59.2942 93.1641 61.0498 94.6878C61.1161 93.0481 61.1823 90.5969 61.1492 87.6322C61.083 81.7194 60.7352 81.5041 60.8511 79.5994C61.4473 70.8875 69.712 64.1797 70.7058 63.3847Z" fill="white" />
  <path opacity="0.3" d="M33.8376 63.3847C31.022 61.1488 29.6141 60.2544 26.7157 57.621C24.0491 55.1697 21.9623 52.6191 23.1879 51.145L38.6573 62.8878C38.8726 63.0535 39.1045 63.2356 39.2701 63.4344C43.2948 64.0141 46.3754 67.4591 46.3754 71.6328V88.4438C46.3754 90.9447 45.2491 93.1641 43.4935 94.6878C43.4273 93.0481 43.361 90.5969 43.3941 87.6322C43.4604 81.7194 43.8082 81.5041 43.6923 79.5994C43.1126 70.8875 34.8479 64.1797 33.8376 63.3847Z" fill="white" />
  <path opacity="0.3" d="M34.8654 28.6531C34.8654 28.6531 32.1326 24.3634 31.9835 19.9247C31.9504 18.9143 32.0332 17.4403 32.6626 15.6184C31.5198 16.6784 29.4495 18.9143 28.6379 22.3262C28.3895 23.3862 28.3066 24.3468 28.3066 25.1915C28.522 26.5993 28.7538 28.0237 28.9691 29.4315C30.2113 31.8331 31.7848 34.45 33.822 37.1165C39.0723 44.0231 45.0679 48.379 49.5232 50.9959C43.9416 42.4828 34.8654 28.6531 34.8654 28.6531Z" fill="white" />
</svg>