<svg width="106" height="106" viewBox="0 0 106 106" fill="none" xmlns="http://www.w3.org/2000/svg">
  <path d="M97.0761 55.8595C97.9353 55.0223 98.2384 53.7934 97.8678 52.6522C97.4972 51.5111 96.5291 50.6949 95.342 50.5227L70.343 46.8901C69.7778 46.8094 69.2519 47.1998 69.1699 47.7659C69.088 48.3315 69.4797 48.8569 70.0457 48.9389L95.0447 52.5715C95.4526 52.6307 95.7718 52.8998 95.8993 53.2919C96.0265 53.6841 95.9263 54.0894 95.6314 54.3772L76.2616 73.258C75.5237 73.9773 75.1875 75.0128 75.3618 76.0277L79.9339 102.688C80.0035 103.093 79.8461 103.48 79.5128 103.723C79.1795 103.965 78.7625 103.996 78.3982 103.803L54.4558 91.2163C53.5445 90.7373 52.4555 90.7373 51.5437 91.2163L27.6018 103.803C27.237 103.995 26.8205 103.966 26.4867 103.723C26.1534 103.48 25.9961 103.093 26.0656 102.688L30.6381 76.0277C30.8124 75.0124 30.4762 73.9769 29.7384 73.258L10.3685 54.3772C10.0737 54.0894 9.97351 53.6841 10.1006 53.2919C10.2282 52.9002 10.5474 52.6307 10.9553 52.5715L36.1017 48.9174C36.6677 48.835 37.0594 48.3099 36.9774 47.7443C36.895 47.1787 36.37 46.7862 35.8044 46.8686L10.658 50.5227C9.47084 50.6954 8.50276 51.5111 8.13217 52.6522C7.76117 53.7934 8.06468 55.0223 8.92386 55.8595L28.2937 74.7404C28.5434 74.9839 28.6568 75.3341 28.598 75.6778L24.0255 102.338C23.8227 103.52 24.2997 104.693 25.2702 105.398C26.2408 106.104 27.5037 106.195 28.5653 105.636L52.5072 93.0494C52.8157 92.8871 53.1842 92.8871 53.4923 93.0494L77.4346 105.636C77.8963 105.879 78.3961 105.999 78.8934 105.999C79.5393 105.999 80.1811 105.797 80.7297 105.398C81.7003 104.693 82.1773 103.52 81.9744 102.338L77.4019 75.6774C77.3431 75.3342 77.457 74.9839 77.7063 74.7404L97.0761 55.8595Z" fill="#656D75" />
  <path d="M60.8141 31.9445L55.8064 21.7979C55.2756 20.7218 54.2003 20.0535 53.0007 20.0535C51.8012 20.0535 50.7259 20.7222 50.195 21.7979L46.6892 28.9012C46.4362 29.4138 46.6465 30.0344 47.1591 30.2874C47.6717 30.5404 48.2924 30.3301 48.5454 29.8175L52.0513 22.7142C52.2335 22.3449 52.5883 22.1242 53.0003 22.1242C53.4123 22.1242 53.7672 22.3449 53.9493 22.7146L58.9574 32.8612C59.138 33.2265 59.5048 33.4385 59.8866 33.4385C60.0406 33.4385 60.1967 33.4041 60.3437 33.3312C60.8567 33.0782 61.0671 32.4575 60.8141 31.9445Z" fill="#656D75" />
  <path d="M92.865 18.1782C92.6753 17.5939 92.1797 17.1757 91.5714 17.0871L84.563 16.0689L81.4286 9.71845C81.1565 9.16733 80.6062 8.82532 79.9918 8.82532C79.3773 8.82532 78.827 9.16775 78.555 9.71845L75.4205 16.0689L68.4117 17.0871C67.8038 17.1757 67.3082 17.5939 67.1186 18.1782C66.9289 18.7624 67.0842 19.3918 67.5239 19.8203L72.5954 24.7634L71.3983 31.7437C71.2944 32.349 71.5387 32.9498 72.0356 33.3109C72.5324 33.6724 73.1788 33.7192 73.7233 33.4331L79.9918 30.1375L86.2603 33.4331C86.4967 33.5573 86.7526 33.619 87.0072 33.619C87.3381 33.619 87.6668 33.5154 87.9476 33.3109C88.4444 32.9498 88.6887 32.3495 88.5848 31.7437L87.3878 24.7638L92.4596 19.8207C92.8993 19.3918 93.0546 18.7624 92.865 18.1782ZM85.7663 23.4537C85.3891 23.8218 85.2168 24.3518 85.3058 24.8719L86.3841 31.1598L80.7363 28.1906C80.5031 28.068 80.2472 28.0072 79.9914 28.0072C79.7355 28.0072 79.4792 28.0685 79.2452 28.191L73.5982 31.1598L74.6769 24.8715C74.7659 24.3518 74.5936 23.8218 74.216 23.4533L69.6472 19.0001L75.9613 18.0825C76.4838 18.0063 76.9352 17.6784 77.1674 17.2059L79.9909 11.4848L82.814 17.2047C83.0471 17.6784 83.4981 18.0063 84.021 18.0825L90.3346 19.0001L85.7663 23.4537Z" fill="#656D75" />
  <path d="M45.6126 10.1342C45.4552 9.65017 45.0445 9.30402 44.541 9.23073L41.1941 8.7442L39.6973 5.7112C39.472 5.2549 39.0157 4.97168 38.5072 4.97168C37.9988 4.97168 37.5425 5.25531 37.3172 5.71161L35.8204 8.7442L32.4735 9.23073C31.9696 9.30402 31.5593 9.65017 31.4019 10.1342C31.2446 10.6183 31.3734 11.1396 31.7377 11.4944L34.1596 13.855L33.5882 17.1878C33.5021 17.6892 33.7041 18.1869 34.1157 18.4863C34.3484 18.6552 34.6208 18.7413 34.8945 18.7413C35.1053 18.7413 35.3173 18.6904 35.5136 18.5873L38.5072 17.0134L41.5005 18.5873C41.9502 18.8237 42.4864 18.7856 42.8984 18.4863C43.3104 18.1869 43.5124 17.6892 43.4259 17.1882L42.8545 13.8546L45.2763 11.494C45.6411 11.1391 45.7695 10.6183 45.6126 10.1342ZM41.1291 12.6459C40.8173 12.9507 40.6744 13.3892 40.7481 13.8198L41.1312 16.0541L39.1242 14.999C38.9312 14.8976 38.7192 14.8471 38.5072 14.8471C38.2952 14.8471 38.0832 14.898 37.8895 14.9994L35.8829 16.0545L36.2663 13.8194C36.3396 13.3892 36.1972 12.9507 35.8846 12.6455L34.2614 11.0634L36.504 10.7371C36.9363 10.6746 37.3102 10.4034 37.504 10.0112L38.5072 7.97819L39.5101 10.0096C39.703 10.4021 40.0774 10.6741 40.5101 10.7367L42.753 11.063L41.1291 12.6459Z" fill="#656D75" />
  <path d="M66.4621 45.2885C66.4443 44.3747 65.7168 43.638 64.8063 43.6111C59.8446 43.4658 57.3018 41.4824 56.4389 40.6365C56.0928 40.2966 55.617 40.1189 55.133 40.1487C54.6489 40.1786 54.1976 40.4142 53.8945 40.7951C49.7232 46.0404 43.6481 45.4297 41.2292 44.9241C40.7219 44.8173 40.1994 44.944 39.7969 45.2711C39.3978 45.5949 39.1684 46.0744 39.168 46.5961V50.3057C39.168 50.8775 39.6313 51.3408 40.2031 51.3408C40.7749 51.3408 41.2383 50.8775 41.2383 50.3057V47.0342C43.8063 47.4901 50.5485 48.0184 55.2725 42.3809C56.6567 43.6277 59.491 45.4446 64.3939 45.6678V50.2771C64.3939 50.8489 64.8572 51.3123 65.4291 51.3123C66.0009 51.3123 66.4642 50.8489 66.4642 50.2771V45.5067C66.4646 45.433 66.4638 45.3597 66.4621 45.2885Z" fill="#656D75" />
  <path d="M65.4286 53.3461C64.8568 53.3461 64.3935 53.8095 64.3935 54.3813V56.7419C64.3935 63.1259 59.1999 68.3199 52.8159 68.3199C46.4319 68.3199 41.2383 63.1263 41.2383 56.7419V54.2264C41.2383 53.6546 40.7749 53.1913 40.2031 53.1913C39.6313 53.1913 39.168 53.6546 39.168 54.2264V56.7419C39.168 64.2675 45.2907 70.3902 52.8159 70.3902C60.3411 70.3902 66.4638 64.2675 66.4638 56.7419V54.3813C66.4638 53.8095 66 53.3461 65.4286 53.3461Z" fill="#656D75" />
  <path d="M62.6876 30.8949C61.537 30.8949 60.3966 31.1425 59.3424 31.6162C57.7889 29.6088 55.3724 28.3956 52.8284 28.3956H49.1287C41.3791 28.3956 35.0742 34.7006 35.0742 42.4497V48.117C35.0742 48.6888 35.5376 49.1522 36.1094 49.1522C36.6812 49.1522 37.1445 48.6888 37.1445 48.117V42.4497C37.1445 35.8417 42.5207 30.4659 49.1287 30.4659H52.8284C54.9745 30.4659 57.0017 31.6245 58.1189 33.4894C58.2601 33.725 58.489 33.8948 58.7553 33.9615C59.0211 34.0273 59.3035 33.9863 59.5391 33.8451C60.4989 33.2696 61.5875 32.9652 62.6872 32.9652C66.0892 32.9652 68.8568 35.7328 68.8568 39.1348V48.4454C68.8568 49.0172 69.3201 49.4805 69.8919 49.4805C70.4637 49.4805 70.9271 49.0172 70.9271 48.4454V39.1348C70.9275 34.5917 67.2311 30.8949 62.6876 30.8949Z" fill="#656D75" />
  <path d="M66.2394 46.0939C66.0457 46.0939 65.8486 46.1034 65.6535 46.122C65.0842 46.1767 64.6672 46.6823 64.7219 47.2512C64.7766 47.8201 65.2801 48.2383 65.851 48.1828C65.979 48.1704 66.1086 48.1642 66.2394 48.1642C68.5723 48.1642 70.4703 50.0618 70.4703 52.3951C70.4703 54.7283 68.5723 56.626 66.2394 56.626C66.1011 56.626 65.9566 56.6173 65.7989 56.5991C65.23 56.5328 64.7173 56.9407 64.6515 57.5083C64.5857 58.0764 64.9931 58.5899 65.5608 58.6557C65.7985 58.683 66.0204 58.6967 66.239 58.6967C69.7138 58.6967 72.5402 55.8699 72.5402 52.3955C72.5402 48.9211 69.7143 46.0939 66.2394 46.0939Z" fill="#656D75" />
  <path d="M41.0375 57.4905C40.9659 56.9233 40.4483 56.5225 39.8811 56.5933C39.7067 56.6152 39.5477 56.626 39.395 56.626C37.0621 56.626 35.1641 54.7283 35.1641 52.3951C35.1641 50.0618 37.0617 48.1642 39.395 48.1642C39.5415 48.1642 39.6935 48.1729 39.8455 48.1895C40.4181 48.252 40.9249 47.8421 40.9879 47.274C41.0504 46.7055 40.6409 46.1945 40.0724 46.1316C36.2903 45.715 33.0938 48.6983 33.0938 52.3947C33.0938 55.8691 35.9206 58.6959 39.395 58.6959C39.6355 58.6959 39.879 58.6797 40.1403 58.647C40.7075 58.5754 41.1092 58.0578 41.0375 57.4905Z" fill="#656D75" />
  <path d="M81.9758 102.338L78.0472 79.4325C78.0149 79.2445 77.9317 79.0694 77.8058 78.9257C76.9951 77.9994 75.9392 77.3518 74.7525 77.0533L65.0634 74.6145L61.7 72.9562C60.5572 72.3926 59.8471 71.251 59.8471 69.9766V67.8292C59.8471 67.464 59.6545 67.1257 59.3407 66.9394C59.0268 66.7531 58.638 66.7456 58.3171 66.9204C56.6352 67.8359 54.7338 68.3199 52.8179 68.3199C51.0114 68.3199 49.2744 67.9071 47.6554 67.0934C47.3349 66.932 46.9527 66.9477 46.6472 67.1369C46.3416 67.3253 46.1553 67.6586 46.1553 68.0181V69.9766C46.1553 71.251 45.4451 72.3926 44.3023 72.9562L40.9389 74.6145L31.2503 77.0533C30.0631 77.3523 29.0073 77.9999 28.1965 78.9257C28.0707 79.069 27.9874 79.2445 27.9551 79.4325L24.0265 102.338C23.8236 103.52 24.3006 104.693 25.2712 105.398C26.2418 106.104 27.5046 106.195 28.5663 105.636L52.5082 93.0494C52.8167 92.8871 53.1852 92.8871 53.4933 93.0494L77.4356 105.636C77.8973 105.879 78.3971 105.999 78.8944 105.999C79.5403 105.999 80.1821 105.797 80.7307 105.398C81.7017 104.692 82.1783 103.52 81.9758 102.338ZM79.5142 103.723C79.1809 103.965 78.7639 103.996 78.3996 103.803L54.4572 91.2163C54.0013 90.9766 53.5011 90.8569 53.0014 90.8569C52.5016 90.8569 52.001 90.977 51.5451 91.2163L27.6032 103.803C27.2384 103.995 26.8219 103.966 26.4881 103.723C26.1548 103.48 25.9975 103.093 26.067 102.688L29.9431 80.0871C30.4461 79.5865 31.0672 79.2333 31.7554 79.0603L41.5509 76.5945C41.6217 76.5767 41.6904 76.5515 41.7558 76.5192L45.2178 74.812C47.0728 73.8973 48.2256 72.044 48.2256 69.9757V69.5886C49.6951 70.1207 51.2337 70.3894 52.8179 70.3894C54.5148 70.3894 56.2017 70.0677 57.7772 69.4503V69.9766C57.7772 72.0452 58.9299 73.8981 60.7849 74.8128L64.2469 76.52C64.3123 76.5523 64.381 76.5775 64.4519 76.5954L74.2473 79.0611C74.9351 79.2342 75.5566 79.5874 76.0593 80.088L79.9353 102.688C80.0049 103.094 79.8475 103.481 79.5142 103.723Z" fill="#656D75" />
  <path d="M70.4688 87.556C69.8969 87.556 69.4336 88.0194 69.4336 88.5912V100.643C69.4336 101.215 69.8969 101.678 70.4688 101.678C71.0406 101.678 71.5039 101.215 71.5039 100.643V88.5912C71.5039 88.0194 71.0406 87.556 70.4688 87.556Z" fill="#656D75" />
  <path d="M35.5312 87.556C34.9594 87.556 34.4961 88.0194 34.4961 88.5912V100.6C34.4961 101.172 34.9594 101.635 35.5312 101.635C36.1031 101.635 36.5664 101.172 36.5664 100.6V88.5912C36.5664 88.0194 36.1031 87.556 35.5312 87.556Z" fill="#656D75" />
  <path d="M51.7964 78.1908L46.6376 72.4039C46.4496 72.1931 46.1834 72.0681 45.9014 72.0581C45.6198 72.0507 45.3453 72.1542 45.1424 72.3513C44.882 72.6051 44.5984 72.8084 44.2994 72.9558L40.936 74.6141L40.6573 74.6841C40.3062 74.7727 40.0271 75.0377 39.9207 75.3839C39.8143 75.73 39.8967 76.1064 40.1372 76.3764L46.2016 83.1782C46.5772 83.5997 47.0997 83.8146 47.6243 83.8146C48.0752 83.8146 48.5282 83.6556 48.8905 83.3326L51.6424 80.8789C52.0221 80.5406 52.2473 80.0744 52.2767 79.5663C52.3061 79.0583 52.1347 78.5705 51.7964 78.1908ZM47.6359 81.6776L42.6452 76.0795L45.2141 74.8129C45.395 74.7238 45.571 74.6232 45.7424 74.5119L50.1402 79.4446L47.6359 81.6776Z" fill="#656D75" />
  <path d="M66.078 75.3846C65.972 75.0384 65.6925 74.773 65.3413 74.6848L65.0627 74.6149L61.6988 72.9561C61.3999 72.8091 61.1167 72.6054 60.8558 72.352C60.6537 72.1549 60.3805 72.0514 60.0968 72.0588C59.8144 72.0688 59.5486 72.1938 59.3606 72.4046L54.2018 78.1911C53.8631 78.5708 53.6929 79.0598 53.7219 79.5679C53.7509 80.0759 53.9762 80.5422 54.3559 80.8804L57.1077 83.3338C57.47 83.6572 57.9226 83.8161 58.3739 83.8161C58.8985 83.8161 59.4211 83.6012 59.797 83.1797L65.861 76.3779C66.102 76.1071 66.1844 75.7303 66.078 75.3846ZM58.3623 81.6775L55.8577 79.4445L60.2554 74.5118C60.4268 74.6231 60.6032 74.7237 60.7838 74.8128L63.353 76.0798L58.3623 81.6775Z" fill="#656D75" />
  <path d="M41.9162 75.4356C41.7767 74.8812 41.2148 74.5446 40.6595 74.6845L31.2491 77.053C30.1216 77.3366 29.1055 77.9399 28.3109 78.797C27.9226 79.2164 27.9474 79.8711 28.3664 80.2599C28.5656 80.4446 28.8182 80.5361 29.0699 80.5361C29.3478 80.5361 29.6252 80.4247 29.8293 80.2048C30.351 79.6421 31.0168 79.2467 31.7547 79.0608L41.1651 76.6923C41.7195 76.5528 42.0558 75.9901 41.9162 75.4356Z" fill="#656D75" />
  <path d="M54.6632 78.2578H51.3594C50.7876 78.2578 50.3242 78.7211 50.3242 79.293C50.3242 79.8648 50.7876 80.3281 51.3594 80.3281H54.6632C55.235 80.3281 55.6983 79.8648 55.6983 79.293C55.6983 78.7211 55.2346 78.2578 54.6632 78.2578Z" fill="#656D75" />
  <path d="M77.7377 78.8528C76.9357 77.9655 75.9026 77.3432 74.7494 77.0529L65.339 74.6845C64.785 74.5453 64.2219 74.8816 64.0823 75.4356C63.9428 75.99 64.279 76.5527 64.8334 76.6923L74.2438 79.0607C74.9987 79.2508 75.6757 79.6586 76.2019 80.2412C76.4061 80.4673 76.6876 80.5824 76.97 80.5824C77.2176 80.5824 77.4657 80.4942 77.6636 80.3149C78.088 79.9315 78.1211 79.2768 77.7377 78.8528Z" fill="#656D75" />
  <path d="M47.1899 67.1991C46.6181 67.1991 46.1548 67.6624 46.1548 68.2343V69.9766C46.1548 70.8739 45.7962 71.7173 45.1449 72.3517C44.7354 72.7504 44.7267 73.4059 45.1258 73.8154C45.3287 74.0237 45.5983 74.128 45.8674 74.128C46.1279 74.128 46.3883 74.0303 46.59 73.8344C47.6293 72.8221 48.2255 71.4159 48.2255 69.9766V68.2343C48.2251 67.6624 47.7618 67.1991 47.1899 67.1991Z" fill="#656D75" />
  <path d="M60.8537 72.3512C60.2023 71.7169 59.8438 70.8734 59.8438 69.9762V68.0222C59.8438 67.4504 59.3804 66.9871 58.8086 66.9871C58.2368 66.9871 57.7734 67.4504 57.7734 68.0222V69.9766C57.7734 71.4159 58.3693 72.822 59.409 73.8344C59.6102 74.0307 59.8711 74.128 60.1315 74.128C60.4007 74.128 60.6702 74.0236 60.8731 73.8154C61.2714 73.4054 61.2627 72.7504 60.8537 72.3512Z" fill="#656D75" />
  <path d="M53 82.5537C52.4282 82.5537 51.9648 83.017 51.9648 83.5889V88.2471C51.9648 88.8189 52.4282 89.2822 53 89.2822C53.5718 89.2822 54.0352 88.8189 54.0352 88.2471V83.5889C54.0352 83.017 53.5718 82.5537 53 82.5537Z" fill="#656D75" />
  <path d="M57.0463 61.0485C56.6082 60.6808 55.9553 60.7388 55.588 61.1769C55.0216 61.8526 54.0539 62.2559 52.9993 62.2559C51.9447 62.2559 50.977 61.8526 50.4106 61.1769C50.0433 60.7392 49.3907 60.6813 48.9522 61.0485C48.5142 61.4158 48.4566 62.0688 48.8239 62.5069C49.7787 63.6459 51.3397 64.3263 52.9993 64.3263C54.6588 64.3263 56.2199 63.6459 57.1747 62.5069C57.542 62.0688 57.4844 61.4158 57.0463 61.0485Z" fill="#656D75" />
  <path d="M55.5787 52.275C54.8971 51.673 53.9804 51.3413 52.9978 51.3413C51.8973 51.3413 50.8733 51.7624 50.1884 52.497C49.7984 52.9152 49.8211 53.5698 50.2393 53.9598C50.4389 54.1462 50.6923 54.2381 50.9453 54.2381C51.2223 54.2381 51.4985 54.1275 51.7026 53.9089C51.9933 53.5975 52.4778 53.4116 52.9982 53.4116C53.469 53.4116 53.9104 53.5628 54.209 53.8265C54.6371 54.2054 55.2917 54.1644 55.6698 53.7358C56.0478 53.3077 56.0077 52.6535 55.5787 52.275Z" fill="#656D75" />
  <path d="M64.3537 49.1931H56.2542C54.8625 49.1931 53.7305 50.3252 53.7305 51.7172C53.7305 55.1564 56.3312 58.1058 59.6516 58.4317C59.8648 58.4524 60.0776 58.4627 60.29 58.4627C61.9148 58.4627 63.4982 57.8582 64.7122 56.7572C66.0882 55.5092 66.8774 53.7354 66.8774 51.8899V51.7172C66.8778 50.3252 65.7453 49.1931 64.3537 49.1931ZM64.8075 51.8895C64.8075 53.152 64.2659 54.3672 63.3218 55.2231C62.367 56.0889 61.1335 56.4959 59.854 56.3705C57.5813 56.1473 55.8012 54.1035 55.8012 51.7168C55.8012 51.4667 56.0045 51.263 56.2546 51.263H64.3541C64.6042 51.263 64.8075 51.4667 64.8075 51.7168V51.8895Z" fill="#656D75" />
  <path d="M49.4009 49.1931H41.3015C39.9098 49.1931 38.7773 50.3252 38.7773 51.7172C38.7773 55.1564 41.3781 58.1058 44.6984 58.4317C44.9117 58.4524 45.1245 58.4627 45.3369 58.4627C46.9617 58.4627 48.5451 57.8582 49.7587 56.7572C51.1346 55.5096 51.9238 53.7354 51.9238 51.8899V51.7172C51.9247 50.3252 50.7922 49.1931 49.4009 49.1931ZM49.8543 51.8895C49.8543 53.152 49.3128 54.3672 48.3687 55.2235C47.4139 56.0889 46.1808 56.4959 44.9009 56.3709C42.6281 56.1477 40.8477 54.1039 40.8477 51.7172C40.8477 51.4671 41.0514 51.2634 41.3015 51.2634H49.4009C49.651 51.2634 49.8543 51.4671 49.8543 51.7172V51.8895Z" fill="#656D75" />
</svg>