<svg width="106" height="106" viewBox="0 0 106 106" fill="none" xmlns="http://www.w3.org/2000/svg">
  <path d="M96.3537 55.1184C97.5963 53.9073 96.9106 51.7968 95.1935 51.5471L69.8914 47.8707V48.6069C70.8847 49.5646 71.505 50.9066 71.505 52.3951C71.505 55.3035 69.1473 57.6612 66.239 57.6612C65.952 57.6612 65.6725 57.6322 65.398 57.5879V57.5875C64.9587 64.1338 59.4694 69.3547 52.8167 69.3547C46.164 69.3547 40.6747 64.1338 40.2354 57.5875C39.9609 57.6318 39.6814 57.6607 39.3945 57.6607C36.4861 57.6607 34.1284 55.3031 34.1284 52.3947C34.1284 50.7302 34.9027 49.2482 36.1089 48.2835V47.8702L10.8067 51.5467C9.08922 51.7964 8.40353 53.9064 9.64654 55.118L29.0164 73.9988C29.51 74.48 29.7352 75.1727 29.6184 75.8522L25.0459 102.512C24.7528 104.222 26.5477 105.527 28.0839 104.719L52.0263 92.1323C52.6362 91.8118 53.3649 91.8118 53.9748 92.1323L77.9172 104.719C79.4533 105.527 81.2483 104.222 80.9552 102.512L76.3827 75.8522C76.2663 75.1727 76.4916 74.48 76.9847 73.9988L96.3537 55.1184Z" fill="#F5C84C" />
  <path d="M54.876 22.2558C54.1079 20.6994 51.889 20.6994 51.1209 22.2558L47.5293 29.533C48.0531 29.4684 48.5856 29.4307 49.1263 29.4307H52.826C55.4453 29.4307 57.7434 30.8522 59.0046 32.9573C59.2994 32.7805 59.6083 32.626 59.9276 32.4915L54.876 22.2558Z" fill="#F5C84C" />
  <path d="M91.7364 19.0792C92.073 18.7513 91.8871 18.1795 91.4221 18.1116L84.1702 17.0578C83.9855 17.0309 83.8257 16.9149 83.7433 16.7477L80.5 10.1765C80.2917 9.75497 79.6909 9.75497 79.4826 10.1765L76.2393 16.7477C76.1564 16.9149 75.997 17.0313 75.8123 17.0578L68.5605 18.1116C68.095 18.1791 67.9096 18.7509 68.2462 19.0792L73.4936 24.1942C73.6273 24.3246 73.6882 24.5122 73.6567 24.6964L72.4179 31.9189C72.3384 32.3822 72.8249 32.7359 73.241 32.5168L79.7273 29.1066C79.8925 29.0196 80.09 29.0196 80.2552 29.1066L86.7415 32.5168C87.1577 32.7354 87.6442 32.3822 87.5647 31.9189L86.3258 24.6964C86.2943 24.5126 86.3552 24.3246 86.489 24.1942L91.7364 19.0792Z" fill="#FCDD86" />
  <path d="M44.5549 10.7532C44.7284 10.5842 44.6327 10.2899 44.393 10.2551L40.6594 9.71265C40.5642 9.69898 40.4822 9.63894 40.4395 9.55282L38.77 6.16993C38.6628 5.95296 38.3535 5.95296 38.2462 6.16993L36.5767 9.55282C36.5341 9.63894 36.4521 9.69898 36.3569 9.71265L32.6233 10.2551C32.384 10.2899 32.2883 10.5842 32.4614 10.7532L35.1631 13.3866C35.2319 13.4537 35.2633 13.5506 35.2472 13.645L34.6095 17.3633C34.5685 17.6018 34.8191 17.784 35.0331 17.6713L38.3725 15.9157C38.4574 15.871 38.5593 15.871 38.6442 15.9157L41.9836 17.6713C42.1976 17.784 42.4482 17.6022 42.4072 17.3633L41.7695 13.645C41.7534 13.5502 41.7848 13.4537 41.8536 13.3866L44.5549 10.7532Z" fill="#FC657E" />
  <path d="M65.4289 50.6908V45.5064C65.4289 45.4405 65.4281 45.3747 65.4268 45.3089C65.4198 44.9511 65.1332 44.6563 64.7755 44.646C59.5355 44.4923 56.775 42.4158 55.7142 41.3757C55.4247 41.0916 54.9573 41.1219 54.7047 41.439C50.0978 47.2322 43.3018 46.4148 41.017 45.9366C40.6017 45.8496 40.2034 46.1627 40.203 46.5871V50.7194C39.9628 50.9836 39.8125 51.3314 39.8125 51.7169C39.8125 52.4485 39.9512 53.157 40.203 53.8125V56.742C40.203 63.6792 45.8789 69.3551 52.8157 69.3551C59.7529 69.3551 65.4285 63.6792 65.4285 56.742V53.9673C65.6914 53.3243 65.8425 52.6245 65.8425 51.8896V51.7169C65.843 51.3182 65.684 50.9579 65.4289 50.6908Z" fill="#F9D0B4" />
  <path d="M62.6857 31.9301C61.3416 31.9301 60.085 32.3098 59.0051 32.9574C57.7438 30.8523 55.4458 29.4308 52.8264 29.4308H49.1268C41.9664 29.4308 36.1074 35.2894 36.1074 42.4502V48.2835C37.0084 47.5626 38.1492 47.1291 39.393 47.1291C39.6684 47.1291 39.9383 47.1522 40.2025 47.1932V46.5871C40.2029 46.1631 40.6012 45.85 41.0165 45.9366C43.3013 46.4148 50.0973 47.2322 54.7042 41.439C54.9568 41.1214 55.4243 41.0916 55.7137 41.3757C56.7745 42.4154 59.5355 44.4923 64.775 44.6459C65.1328 44.6563 65.4189 44.9511 65.4264 45.3088C65.4276 45.3743 65.4284 45.4401 65.4284 45.5063V47.1932C65.6926 47.1522 65.9622 47.1291 66.2379 47.1291C67.6573 47.1291 68.9434 47.6934 69.8904 48.6068V39.1348C69.8904 35.1722 66.6483 31.9301 62.6857 31.9301Z" fill="#5B5D60" />
  <path d="M66.2379 47.129C65.9625 47.129 65.6925 47.1522 65.4284 47.1932V50.6908C65.6834 50.9579 65.8424 51.3181 65.8424 51.7168V51.8895C65.8424 52.6245 65.6913 53.3238 65.4284 53.9673V56.7419C65.4284 57.0264 65.4155 57.3079 65.3965 57.5878C65.671 57.6321 65.9505 57.6611 66.2374 57.6611C69.1458 57.6611 71.5035 55.3035 71.5035 52.3951C71.5035 49.4867 69.1462 47.129 66.2379 47.129Z" fill="#F9D0B4" />
  <path d="M40.2025 56.7419V53.8124C39.9507 53.1574 39.812 52.4489 39.812 51.7168C39.812 51.3313 39.9623 50.9835 40.2025 50.7194V47.1932C39.9383 47.1522 39.6688 47.129 39.393 47.129C36.4846 47.129 34.127 49.4867 34.127 52.3951C34.127 55.3035 36.4846 57.6611 39.393 57.6611C39.6799 57.6611 39.9594 57.6321 40.234 57.5878C40.2153 57.3075 40.2025 57.0264 40.2025 56.7419Z" fill="#F9D0B4" />
  <path d="M60.4461 3.67772C58.5837 3.33115 57.1158 1.89311 56.7618 0.0687529C56.744 -0.0227549 56.6161 -0.0227549 56.5983 0.0687529C56.2442 1.89311 54.7764 3.33115 52.9139 3.67772C52.8204 3.69511 52.8204 3.82057 52.9139 3.83796C54.7764 4.18495 56.2442 5.62299 56.5983 7.44735C56.6161 7.53885 56.744 7.53885 56.7618 7.44735C57.1158 5.62299 58.5837 4.18495 60.4461 3.83796C60.5397 3.82057 60.5397 3.69553 60.4461 3.67772Z" fill="#F5C84C" />
  <path d="M86.0777 42.2179C84.8339 41.9864 83.8534 41.0258 83.617 39.8072C83.605 39.7459 83.5197 39.7459 83.5077 39.8072C83.2712 41.0258 82.2907 41.9864 81.0469 42.2179C80.9844 42.2295 80.9844 42.3131 81.0469 42.3251C82.2907 42.5566 83.2712 43.5172 83.5077 44.7358C83.5197 44.7971 83.605 44.7971 83.617 44.7358C83.8534 43.5172 84.8339 42.5566 86.0777 42.3251C86.1403 42.3131 86.1403 42.2295 86.0777 42.2179Z" fill="#F5C84C" />
  <path d="M18.0909 84.5939H17.1266V83.6291C17.1266 82.907 16.5415 82.3219 15.8194 82.3219C15.0973 82.3219 14.5122 82.907 14.5122 83.6291V84.5939H13.5474C12.8253 84.5939 12.2402 85.1789 12.2402 85.9011C12.2402 86.6232 12.8253 87.2082 13.5474 87.2082H14.5122V88.173C14.5122 88.8951 15.0973 89.4802 15.8194 89.4802C16.5415 89.4802 17.1266 88.8947 17.1266 88.173V87.2082H18.0909C18.8131 87.2082 19.3981 86.6232 19.3981 85.9011C19.3981 85.1789 18.8131 84.5939 18.0909 84.5939Z" fill="#F5C84C" />
  <path d="M19.4608 94.4312C18.6886 94.4312 18.0625 95.0572 18.0625 95.8294C18.0625 96.6017 18.6886 97.2277 19.4608 97.2277C20.233 97.2277 20.8591 96.6017 20.8591 95.8294C20.8591 95.0572 20.233 94.4312 19.4608 94.4312Z" fill="#F5C84C" />
  <path d="M62.1092 10.3765C61.337 10.3765 60.7109 11.0025 60.7109 11.7748C60.7109 12.547 61.337 13.173 62.1092 13.173C62.8815 13.173 63.5075 12.547 63.5075 11.7748C63.5075 11.0025 62.8815 10.3765 62.1092 10.3765Z" fill="#F5C84C" />
  <path d="M80.955 102.512L77.0264 79.6073C76.3759 78.864 75.506 78.31 74.499 78.0566L64.7035 75.5909L61.2415 73.8837C59.7534 73.15 58.811 71.6349 58.811 69.9758V67.8289C57.0255 68.8011 54.9825 69.3543 52.817 69.3543C50.7976 69.3543 48.8863 68.8706 47.1895 68.0173V69.9758C47.1895 71.6349 46.2471 73.15 44.7589 73.8837L41.2969 75.5909L31.5015 78.0566C30.4945 78.31 29.6249 78.8636 28.974 79.6073L25.0454 102.512C24.7522 104.223 26.5472 105.527 28.0834 104.72L52.0257 92.1327C52.6356 91.8122 53.3644 91.8122 53.9743 92.1327L77.9166 104.72C79.4532 105.527 81.2482 104.223 80.955 102.512Z" fill="#F5C84C" />
  <path d="M51.026 78.8794L45.8668 73.0924C45.5442 73.4067 45.1761 73.6783 44.7592 73.8841L41.2972 75.5913L40.9121 75.6882L46.9761 82.49C47.2957 82.8485 47.8452 82.88 48.2038 82.5604L50.9556 80.1066C51.3138 79.7874 51.3452 79.2379 51.026 78.8794Z" fill="#F98FA6" />
  <path d="M64.7033 75.5913L61.2413 73.8841C60.8244 73.6787 60.4563 73.4067 60.1337 73.0924L54.9745 78.8794C54.6548 79.2375 54.6863 79.7874 55.0449 80.1066L57.7967 82.5604C58.1553 82.88 58.7048 82.8485 59.024 82.49L65.088 75.6882L64.7033 75.5913Z" fill="#F98FA6" />
  <path d="M80.9542 102.512L77.0256 79.6072C76.3751 78.864 75.5051 78.31 74.4981 78.0565L65.0877 75.6881L59.0238 82.4899C58.7041 82.8485 58.1547 82.88 57.7965 82.5603L55.0446 80.1066C54.8074 79.895 54.7167 79.5836 54.773 79.2925H51.227C51.2833 79.5832 51.1926 79.895 50.9554 80.1066L48.2035 82.5603C47.8449 82.88 47.2955 82.8485 46.9758 82.4899L40.9119 75.6881L31.5015 78.0565C30.4945 78.31 29.6249 78.8636 28.974 79.6072L25.0454 102.512C24.7522 104.223 26.5472 105.527 28.0834 104.72L52.0257 92.1326C52.6356 91.8121 53.3644 91.8121 53.9743 92.1326L77.9166 104.72C79.4524 105.527 81.2474 104.223 80.9542 102.512Z" fill="#FC657E" />
  <path d="M58.8112 69.9761V67.8292C57.0258 68.8014 54.9828 69.3546 52.8172 69.3546C50.7978 69.3546 48.8865 68.871 47.1897 68.0176V69.9761C47.1897 71.1707 46.6957 72.2854 45.8672 73.0928L51.0264 78.8797C51.1345 79.001 51.1991 79.1447 51.2276 79.2934H54.7737C54.8022 79.1447 54.8668 79.001 54.9749 78.8797L60.1341 73.0928C59.3052 72.2854 58.8112 71.1707 58.8112 69.9761Z" fill="#F9D0B4" />
  <path d="M64.3537 50.2283H56.2542C55.4319 50.2283 54.7656 50.8949 54.7656 51.7168C54.7656 54.5946 56.8889 57.1199 59.7526 57.4011C63.0436 57.724 65.8422 55.1179 65.8422 51.8895V51.7168C65.8426 50.8945 65.176 50.2283 64.3537 50.2283Z" fill="#3A70BF" />
  <path d="M49.4005 50.2283H41.3011C40.4787 50.2283 39.8125 50.8949 39.8125 51.7168C39.8125 54.5946 41.9358 57.1199 44.7995 57.4011C48.0904 57.724 50.8891 55.1179 50.8891 51.8895V51.7168C50.8891 50.8945 50.2224 50.2283 49.4005 50.2283Z" fill="#3A70BF" />
  <path d="M97.0761 55.8595C97.9353 55.0223 98.2384 53.7934 97.8678 52.6522C97.4972 51.5111 96.5291 50.6949 95.342 50.5227L70.343 46.8901C69.7778 46.8094 69.2519 47.1998 69.1699 47.7659C69.088 48.3315 69.4797 48.8569 70.0457 48.9389L95.0447 52.5715C95.4526 52.6307 95.7718 52.8998 95.8993 53.2919C96.0265 53.6841 95.9263 54.0894 95.6314 54.3772L76.2616 73.258C75.5237 73.9773 75.1875 75.0128 75.3618 76.0277L79.9339 102.688C80.0035 103.093 79.8461 103.48 79.5128 103.723C79.1795 103.965 78.7625 103.996 78.3982 103.803L54.4558 91.2163C53.5445 90.7373 52.4555 90.7373 51.5437 91.2163L27.6018 103.803C27.237 103.995 26.8205 103.966 26.4867 103.723C26.1534 103.48 25.9961 103.093 26.0656 102.688L30.6381 76.0277C30.8124 75.0124 30.4762 73.9769 29.7384 73.258L10.3685 54.3772C10.0737 54.0894 9.97351 53.6841 10.1006 53.2919C10.2282 52.9002 10.5474 52.6307 10.9553 52.5715L36.1017 48.9174C36.6677 48.835 37.0594 48.3099 36.9774 47.7443C36.895 47.1787 36.37 46.7862 35.8044 46.8686L10.658 50.5227C9.47084 50.6954 8.50276 51.5111 8.13217 52.6522C7.76117 53.7934 8.06468 55.0223 8.92386 55.8595L28.2937 74.7404C28.5434 74.9839 28.6568 75.3341 28.598 75.6778L24.0255 102.338C23.8227 103.52 24.2997 104.693 25.2702 105.398C26.2408 106.104 27.5037 106.195 28.5653 105.636L52.5072 93.0494C52.8157 92.8871 53.1842 92.8871 53.4923 93.0494L77.4346 105.636C77.8963 105.879 78.3961 105.999 78.8934 105.999C79.5393 105.999 80.1811 105.797 80.7297 105.398C81.7003 104.693 82.1773 103.52 81.9744 102.338L77.4019 75.6774C77.3431 75.3341 77.457 74.9839 77.7063 74.7404L97.0761 55.8595Z" fill="black" />
  <path d="M60.8141 31.9445L55.8064 21.7979C55.2756 20.7218 54.2003 20.0535 53.0007 20.0535C51.8012 20.0535 50.7259 20.7222 50.195 21.7979L46.6892 28.9012C46.4362 29.4138 46.6465 30.0344 47.1591 30.2874C47.6717 30.5404 48.2924 30.3301 48.5454 29.8175L52.0513 22.7142C52.2335 22.3449 52.5883 22.1242 53.0003 22.1242C53.4123 22.1242 53.7672 22.3449 53.9493 22.7146L58.9574 32.8612C59.138 33.2265 59.5048 33.4385 59.8866 33.4385C60.0406 33.4385 60.1967 33.4041 60.3437 33.3312C60.8567 33.0782 61.0671 32.4575 60.8141 31.9445Z" fill="black" />
  <path d="M92.865 18.1782C92.6753 17.5939 92.1797 17.1757 91.5714 17.0871L84.563 16.0689L81.4286 9.71845C81.1565 9.16733 80.6062 8.82532 79.9918 8.82532C79.3773 8.82532 78.827 9.16775 78.555 9.71845L75.4205 16.0689L68.4117 17.0871C67.8038 17.1757 67.3082 17.5939 67.1186 18.1782C66.9289 18.7624 67.0842 19.3918 67.5239 19.8203L72.5954 24.7634L71.3983 31.7437C71.2944 32.349 71.5387 32.9498 72.0356 33.3109C72.5324 33.6724 73.1788 33.7192 73.7233 33.4331L79.9918 30.1375L86.2603 33.4331C86.4967 33.5573 86.7526 33.619 87.0072 33.619C87.3381 33.619 87.6668 33.5154 87.9476 33.3109C88.4444 32.9498 88.6887 32.3495 88.5848 31.7437L87.3878 24.7638L92.4596 19.8207C92.8993 19.3918 93.0546 18.7624 92.865 18.1782ZM85.7663 23.4537C85.3891 23.8218 85.2168 24.3518 85.3058 24.8719L86.3841 31.1598L80.7363 28.1906C80.5031 28.068 80.2472 28.0072 79.9914 28.0072C79.7355 28.0072 79.4792 28.0685 79.2452 28.191L73.5982 31.1598L74.6769 24.8715C74.7659 24.3518 74.5936 23.8218 74.216 23.4533L69.6472 19.0001L75.9613 18.0825C76.4838 18.0063 76.9352 17.6784 77.1674 17.2059L79.9909 11.4848L82.814 17.2047C83.0471 17.6784 83.4981 18.0063 84.021 18.0825L90.3346 19.0001L85.7663 23.4537Z" fill="black" />
  <path d="M45.6126 10.1342C45.4552 9.65017 45.0445 9.30402 44.541 9.23073L41.1941 8.7442L39.6973 5.7112C39.472 5.2549 39.0157 4.97168 38.5072 4.97168C37.9988 4.97168 37.5425 5.25531 37.3172 5.71161L35.8204 8.7442L32.4735 9.23073C31.9696 9.30402 31.5593 9.65017 31.4019 10.1342C31.2446 10.6183 31.3734 11.1396 31.7377 11.4944L34.1596 13.855L33.5882 17.1878C33.5021 17.6892 33.7041 18.1869 34.1157 18.4863C34.3484 18.6552 34.6208 18.7413 34.8945 18.7413C35.1053 18.7413 35.3173 18.6904 35.5136 18.5873L38.5072 17.0134L41.5005 18.5873C41.9502 18.8237 42.4864 18.7856 42.8984 18.4863C43.3104 18.1869 43.5124 17.6892 43.4259 17.1882L42.8545 13.8546L45.2763 11.494C45.6411 11.1391 45.7695 10.6183 45.6126 10.1342ZM41.1291 12.6459C40.8173 12.9507 40.6744 13.3892 40.7481 13.8198L41.1312 16.0541L39.1242 14.999C38.9312 14.8976 38.7192 14.8471 38.5072 14.8471C38.2952 14.8471 38.0832 14.898 37.8895 14.9994L35.8829 16.0545L36.2663 13.8194C36.3396 13.3892 36.1972 12.9507 35.8846 12.6455L34.2614 11.0634L36.504 10.7371C36.9363 10.6746 37.3102 10.4034 37.504 10.0112L38.5072 7.97819L39.5101 10.0096C39.703 10.4021 40.0774 10.6741 40.5101 10.7367L42.753 11.063L41.1291 12.6459Z" fill="black" />
  <path d="M66.4621 45.2885C66.4443 44.3747 65.7168 43.638 64.8063 43.6111C59.8446 43.4658 57.3018 41.4824 56.4389 40.6365C56.0928 40.2966 55.617 40.1189 55.133 40.1487C54.6489 40.1786 54.1976 40.4142 53.8945 40.7951C49.7232 46.0404 43.6481 45.4297 41.2292 44.9241C40.7219 44.8173 40.1994 44.944 39.7969 45.2711C39.3978 45.5949 39.1684 46.0744 39.168 46.5961V50.3057C39.168 50.8775 39.6313 51.3408 40.2031 51.3408C40.7749 51.3408 41.2383 50.8775 41.2383 50.3057V47.0342C43.8063 47.4901 50.5485 48.0184 55.2725 42.3809C56.6567 43.6277 59.491 45.4446 64.3939 45.6678V50.2771C64.3939 50.8489 64.8572 51.3123 65.4291 51.3123C66.0009 51.3123 66.4642 50.8489 66.4642 50.2771V45.5067C66.4646 45.433 66.4638 45.3597 66.4621 45.2885Z" fill="black" />
  <path d="M65.4286 53.3461C64.8568 53.3461 64.3935 53.8095 64.3935 54.3813V56.7419C64.3935 63.1259 59.1999 68.3199 52.8159 68.3199C46.4319 68.3199 41.2383 63.1263 41.2383 56.7419V54.2264C41.2383 53.6546 40.7749 53.1913 40.2031 53.1913C39.6313 53.1913 39.168 53.6546 39.168 54.2264V56.7419C39.168 64.2675 45.2907 70.3902 52.8159 70.3902C60.3411 70.3902 66.4638 64.2675 66.4638 56.7419V54.3813C66.4638 53.8095 66 53.3461 65.4286 53.3461Z" fill="black" />
  <path d="M62.6857 30.8949C61.535 30.8949 60.3947 31.1425 59.3405 31.6162C57.7869 29.6088 55.3704 28.3956 52.8264 28.3956H49.1268C41.3772 28.3956 35.0723 34.7006 35.0723 42.4497V48.117C35.0723 48.6888 35.5356 49.1522 36.1074 49.1522C36.6792 49.1522 37.1426 48.6888 37.1426 48.117V42.4497C37.1426 35.8417 42.5188 30.4659 49.1268 30.4659H52.8264C54.9725 30.4659 56.9998 31.6245 58.1169 33.4894C58.2581 33.725 58.4871 33.8948 58.7533 33.9615C59.0192 34.0273 59.3015 33.9863 59.5371 33.8451C60.4969 33.2696 61.5855 32.9652 62.6853 32.9652C66.0872 32.9652 68.8548 35.7328 68.8548 39.1348V48.4454C68.8548 49.0172 69.3181 49.4805 69.89 49.4805C70.4618 49.4805 70.9251 49.0172 70.9251 48.4454V39.1348C70.9255 34.5917 67.2292 30.8949 62.6857 30.8949Z" fill="black" />
  <path d="M66.2375 46.0939C66.0437 46.0939 65.8466 46.1034 65.6516 46.122C65.0823 46.1767 64.6653 46.6823 64.7199 47.2512C64.7746 47.8201 65.2781 48.2383 65.8491 48.1828C65.977 48.1704 66.1066 48.1642 66.2375 48.1642C68.5703 48.1642 70.4684 50.0618 70.4684 52.3951C70.4684 54.7283 68.5703 56.626 66.2375 56.626C66.0992 56.626 65.9547 56.6173 65.7969 56.5991C65.228 56.5328 64.7154 56.9407 64.6496 57.5083C64.5837 58.0764 64.9912 58.5899 65.5588 58.6557C65.7965 58.683 66.0184 58.6967 66.2371 58.6967C69.7119 58.6967 72.5383 55.8699 72.5383 52.3955C72.5383 48.9211 69.7123 46.0939 66.2375 46.0939Z" fill="black" />
  <path d="M41.0356 57.4905C40.964 56.9233 40.4464 56.5225 39.8791 56.5933C39.7048 56.6152 39.5458 56.626 39.393 56.626C37.0602 56.626 35.1621 54.7283 35.1621 52.3951C35.1621 50.0618 37.0598 48.1642 39.393 48.1642C39.5396 48.1642 39.6915 48.1729 39.8435 48.1895C40.4161 48.252 40.923 47.8421 40.9859 47.274C41.0484 46.7055 40.6389 46.1945 40.0704 46.1316C36.2884 45.715 33.0918 48.6983 33.0918 52.3947C33.0918 55.8691 35.9186 58.6959 39.393 58.6959C39.6336 58.6959 39.877 58.6797 40.1383 58.647C40.7056 58.5754 41.1072 58.0578 41.0356 57.4905Z" fill="black" />
  <path d="M60.4461 3.67772C58.5837 3.33115 57.1158 1.89311 56.7618 0.0687529C56.744 -0.0227549 56.6161 -0.0227549 56.5983 0.0687529C56.2442 1.89311 54.7764 3.33115 52.9139 3.67772C52.8204 3.69511 52.8204 3.82057 52.9139 3.83796C54.7764 4.18495 56.2442 5.62299 56.5983 7.44735C56.6161 7.53885 56.744 7.53885 56.7618 7.44735C57.1158 5.62299 58.5837 4.18495 60.4461 3.83796C60.5397 3.82057 60.5397 3.69553 60.4461 3.67772Z" fill="#F5C84C" />
  <path d="M86.0777 42.2179C84.8339 41.9864 83.8534 41.0258 83.617 39.8072C83.605 39.7459 83.5197 39.7459 83.5077 39.8072C83.2712 41.0258 82.2907 41.9864 81.0469 42.2179C80.9844 42.2295 80.9844 42.3131 81.0469 42.3251C82.2907 42.5566 83.2712 43.5172 83.5077 44.7358C83.5197 44.7971 83.605 44.7971 83.617 44.7358C83.8534 43.5172 84.8339 42.5566 86.0777 42.3251C86.1403 42.3131 86.1403 42.2295 86.0777 42.2179Z" fill="#FC657E" />
  <path d="M18.0909 84.5939H17.1266V83.6291C17.1266 82.907 16.5415 82.3219 15.8194 82.3219C15.0973 82.3219 14.5122 82.907 14.5122 83.6291V84.5939H13.5474C12.8253 84.5939 12.2402 85.1789 12.2402 85.9011C12.2402 86.6232 12.8253 87.2082 13.5474 87.2082H14.5122V88.173C14.5122 88.8951 15.0973 89.4802 15.8194 89.4802C16.5415 89.4802 17.1266 88.8947 17.1266 88.173V87.2082H18.0909C18.8131 87.2082 19.3981 86.6232 19.3981 85.9011C19.3981 85.1789 18.8131 84.5939 18.0909 84.5939Z" fill="#70D6F9" />
  <path d="M19.4608 94.4312C18.6886 94.4312 18.0625 95.0572 18.0625 95.8294C18.0625 96.6017 18.6886 97.2277 19.4608 97.2277C20.233 97.2277 20.8591 96.6017 20.8591 95.8294C20.8591 95.0572 20.233 94.4312 19.4608 94.4312Z" fill="#F5C84C" />
  <path d="M62.1092 10.3765C61.337 10.3765 60.7109 11.0025 60.7109 11.7748C60.7109 12.547 61.337 13.173 62.1092 13.173C62.8815 13.173 63.5075 12.547 63.5075 11.7748C63.5075 11.0025 62.8815 10.3765 62.1092 10.3765Z" fill="#87D147" />
  <path d="M81.9739 102.338L78.0452 79.4325C78.0129 79.2445 77.9297 79.0694 77.8038 78.9257C76.9931 77.9994 75.9372 77.3518 74.7505 77.0533L65.0615 74.6145L61.698 72.9562C60.5552 72.3926 59.8451 71.251 59.8451 69.9766V67.8292C59.8451 67.464 59.6526 67.1257 59.3387 66.9394C59.0249 66.7531 58.6361 66.7456 58.3152 66.9204C56.6332 67.8359 54.7319 68.3199 52.816 68.3199C51.0094 68.3199 49.2724 67.9071 47.6535 67.0934C47.333 66.932 46.9508 66.9477 46.6452 67.1369C46.3396 67.3253 46.1533 67.6586 46.1533 68.0181V69.9766C46.1533 71.251 45.4432 72.3926 44.3004 72.9562L40.9369 74.6145L31.2483 77.0533C30.0612 77.3523 29.0053 77.9999 28.1946 78.9257C28.0687 79.069 27.9855 79.2445 27.9532 79.4325L24.0246 102.338C23.8217 103.52 24.2987 104.693 25.2692 105.398C26.2398 106.104 27.5027 106.195 28.5643 105.636L52.5063 93.0494C52.8147 92.8871 53.1833 92.8871 53.4913 93.0494L77.4337 105.636C77.8953 105.879 78.3951 105.999 78.8924 105.999C79.5383 105.999 80.1801 105.797 80.7288 105.398C81.6997 104.692 82.1763 103.52 81.9739 102.338ZM79.5123 103.723C79.1789 103.965 78.762 103.996 78.3976 103.803L54.4553 91.2163C53.9994 90.9766 53.4992 90.8569 52.9994 90.8569C52.4996 90.8569 51.999 90.977 51.5432 91.2163L27.6012 103.803C27.2364 103.995 26.8199 103.966 26.4862 103.723C26.1528 103.48 25.9955 103.093 26.0651 102.688L29.9411 80.0871C30.4442 79.5865 31.0653 79.2333 31.7535 79.0603L41.5489 76.5945C41.6197 76.5767 41.6885 76.5515 41.7539 76.5192L45.2159 74.812C47.0709 73.8973 48.2236 72.044 48.2236 69.9757V69.5886C49.6931 70.1207 51.2318 70.3894 52.816 70.3894C54.5128 70.3894 56.1997 70.0677 57.7752 69.4503V69.9766C57.7752 72.0452 58.928 73.8981 60.783 74.8128L64.2449 76.52C64.3104 76.5523 64.3791 76.5776 64.4499 76.5954L74.2454 79.0611C74.9331 79.2342 75.5546 79.5874 76.0573 80.088L79.9334 102.688C80.0029 103.094 79.8456 103.481 79.5123 103.723Z" fill="black" />
  <path d="M70.4688 87.556C69.8969 87.556 69.4336 88.0194 69.4336 88.5912V100.643C69.4336 101.215 69.8969 101.678 70.4688 101.678C71.0406 101.678 71.5039 101.215 71.5039 100.643V88.5912C71.5039 88.0194 71.0406 87.556 70.4688 87.556Z" fill="black" />
  <path d="M35.5293 87.556C34.9575 87.556 34.4941 88.0194 34.4941 88.5912V100.6C34.4941 101.172 34.9575 101.635 35.5293 101.635C36.1011 101.635 36.5645 101.172 36.5645 100.6V88.5912C36.5645 88.0194 36.1011 87.556 35.5293 87.556Z" fill="black" />
  <path d="M51.7984 78.1908L46.6396 72.4039C46.4516 72.1931 46.1853 72.0681 45.9034 72.0581C45.6218 72.0507 45.3473 72.1542 45.1444 72.3513C44.8839 72.6051 44.6003 72.8084 44.3014 72.9558L40.9379 74.6141L40.6593 74.6841C40.3081 74.7727 40.0291 75.0377 39.9226 75.3839C39.8162 75.73 39.8986 76.1064 40.1392 76.3764L46.2036 83.1782C46.5791 83.5997 47.1017 83.8146 47.6263 83.8146C48.0772 83.8146 48.5302 83.6556 48.8925 83.3326L51.6443 80.8789C52.024 80.5406 52.2493 80.0744 52.2787 79.5663C52.3081 79.0583 52.1367 78.5705 51.7984 78.1908ZM47.6379 81.6776L42.6472 76.0795L45.216 74.8129C45.397 74.7238 45.5729 74.6232 45.7444 74.5119L50.1421 79.4446L47.6379 81.6776Z" fill="black" />
  <path d="M66.078 75.3846C65.972 75.0384 65.6925 74.773 65.3413 74.6848L65.0627 74.6149L61.6988 72.9561C61.3999 72.8091 61.1167 72.6054 60.8558 72.352C60.6537 72.1549 60.3805 72.0514 60.0968 72.0588C59.8144 72.0688 59.5486 72.1938 59.3606 72.4046L54.2018 78.1911C53.8631 78.5708 53.6929 79.0598 53.7219 79.5679C53.7509 80.0759 53.9762 80.5422 54.3559 80.8804L57.1077 83.3338C57.47 83.6572 57.9226 83.8161 58.3739 83.8161C58.8985 83.8161 59.4211 83.6012 59.797 83.1797L65.861 76.3779C66.102 76.1071 66.1844 75.7303 66.078 75.3846ZM58.3623 81.6775L55.8577 79.4445L60.2554 74.5118C60.4268 74.6231 60.6032 74.7237 60.7838 74.8128L63.353 76.0798L58.3623 81.6775Z" fill="black" />
  <path d="M41.9143 75.4356C41.7747 74.8812 41.2128 74.5446 40.6576 74.6845L31.2472 77.053C30.1197 77.3366 29.1036 77.9399 28.309 78.797C27.9206 79.2164 27.9454 79.8711 28.3645 80.2599C28.5636 80.4446 28.8162 80.5361 29.068 80.5361C29.3458 80.5361 29.6232 80.4247 29.8274 80.2048C30.3491 79.6421 31.0149 79.2467 31.7528 79.0608L41.1631 76.6923C41.7176 76.5528 42.0538 75.9901 41.9143 75.4356Z" fill="black" />
  <path d="M54.6651 78.2578H51.3613C50.7895 78.2578 50.3262 78.7211 50.3262 79.293C50.3262 79.8648 50.7895 80.3281 51.3613 80.3281H54.6651C55.237 80.3281 55.7003 79.8648 55.7003 79.293C55.7003 78.7211 55.2365 78.2578 54.6651 78.2578Z" fill="black" />
  <path d="M77.7397 78.8528C76.9376 77.9655 75.9045 77.3432 74.7514 77.0529L65.341 74.6845C64.787 74.5453 64.2238 74.8816 64.0843 75.4356C63.9448 75.99 64.281 76.5527 64.8354 76.6923L74.2458 79.0607C75.0006 79.2508 75.6776 79.6586 76.2039 80.2412C76.408 80.4673 76.6896 80.5824 76.972 80.5824C77.2196 80.5824 77.4676 80.4942 77.6655 80.3149C78.09 79.9315 78.1231 79.2768 77.7397 78.8528Z" fill="black" />
  <path d="M47.188 67.1991C46.6162 67.1991 46.1528 67.6624 46.1528 68.2343V69.9766C46.1528 70.8739 45.7943 71.7173 45.1429 72.3517C44.7334 72.7504 44.7247 73.4059 45.1239 73.8154C45.3268 74.0237 45.5963 74.128 45.8655 74.128C46.1259 74.128 46.3864 74.0303 46.588 73.8344C47.6273 72.8221 48.2236 71.4159 48.2236 69.9766V68.2343C48.2232 67.6624 47.7598 67.1991 47.188 67.1991Z" fill="black" />
  <path d="M60.8556 72.3512C60.2043 71.7169 59.8457 70.8734 59.8457 69.9762V68.0222C59.8457 67.4504 59.3824 66.9871 58.8105 66.9871C58.2387 66.9871 57.7754 67.4504 57.7754 68.0222V69.9766C57.7754 71.4159 58.3712 72.822 59.4109 73.8344C59.6122 74.0307 59.873 74.128 60.1335 74.128C60.4026 74.128 60.6722 74.0236 60.8751 73.8154C61.2734 73.4054 61.2647 72.7504 60.8556 72.3512Z" fill="black" />
  <path d="M53 82.5537C52.4282 82.5537 51.9648 83.017 51.9648 83.5889V88.2471C51.9648 88.8189 52.4282 89.2822 53 89.2822C53.5718 89.2822 54.0352 88.8189 54.0352 88.2471V83.5889C54.0352 83.017 53.5718 82.5537 53 82.5537Z" fill="black" />
  <path d="M57.0463 61.0485C56.6082 60.6808 55.9553 60.7388 55.588 61.1769C55.0216 61.8526 54.0539 62.2559 52.9993 62.2559C51.9447 62.2559 50.977 61.8526 50.4106 61.1769C50.0433 60.7392 49.3907 60.6813 48.9522 61.0485C48.5142 61.4158 48.4566 62.0688 48.8239 62.5069C49.7787 63.6459 51.3397 64.3263 52.9993 64.3263C54.6588 64.3263 56.2199 63.6459 57.1747 62.5069C57.542 62.0688 57.4844 61.4158 57.0463 61.0485Z" fill="black" />
  <path d="M55.5806 52.275C54.8991 51.673 53.9824 51.3413 52.9998 51.3413C51.8992 51.3413 50.8752 51.7624 50.1904 52.497C49.8003 52.9152 49.8231 53.5698 50.2413 53.9598C50.4409 54.1462 50.6943 54.2381 50.9473 54.2381C51.2243 54.2381 51.5005 54.1275 51.7046 53.9089C51.9953 53.5975 52.4797 53.4116 53.0002 53.4116C53.471 53.4116 53.9124 53.5628 54.2109 53.8265C54.6391 54.2054 55.2937 54.1644 55.6717 53.7358C56.0498 53.3077 56.0096 52.6535 55.5806 52.275Z" fill="black" />
  <path d="M64.3537 49.1931H56.2542C54.8625 49.1931 53.7305 50.3252 53.7305 51.7172C53.7305 55.1564 56.3312 58.1058 59.6516 58.4317C59.8648 58.4524 60.0776 58.4627 60.29 58.4627C61.9148 58.4627 63.4982 57.8582 64.7122 56.7572C66.0882 55.5092 66.8774 53.7354 66.8774 51.8899V51.7172C66.8778 50.3252 65.7453 49.1931 64.3537 49.1931ZM64.8075 51.8895C64.8075 53.152 64.2659 54.3672 63.3218 55.2231C62.367 56.0889 61.1335 56.4959 59.854 56.3705C57.5813 56.1473 55.8012 54.1035 55.8012 51.7168C55.8012 51.4667 56.0045 51.263 56.2546 51.263H64.3541C64.6042 51.263 64.8075 51.4667 64.8075 51.7168V51.8895Z" fill="black" />
  <path d="M49.4009 49.1931H41.3015C39.9098 49.1931 38.7773 50.3252 38.7773 51.7172C38.7773 55.1564 41.3781 58.1058 44.6984 58.4317C44.9117 58.4524 45.1245 58.4627 45.3369 58.4627C46.9617 58.4627 48.5451 57.8582 49.7587 56.7572C51.1346 55.5096 51.9238 53.7354 51.9238 51.8899V51.7172C51.9247 50.3252 50.7922 49.1931 49.4009 49.1931ZM49.8543 51.8895C49.8543 53.152 49.3128 54.3672 48.3687 55.2235C47.4139 56.0889 46.1808 56.4959 44.9009 56.3709C42.6281 56.1477 40.8477 54.1039 40.8477 51.7172C40.8477 51.4671 41.0514 51.2634 41.3015 51.2634H49.4009C49.651 51.2634 49.8543 51.4671 49.8543 51.7172V51.8895Z" fill="black" />
</svg>