<svg width="106" height="106" viewBox="0 0 106 106" fill="none" xmlns="http://www.w3.org/2000/svg">
  <path d="M52.8806 34.4468C52.7215 34.4468 52.5614 34.4309 52.4018 34.3986C51.325 34.1809 50.543 33.1984 50.543 32.0638V12.4425C50.543 8.8317 53.4796 5.89451 57.0897 5.89451H65.1494C68.7595 5.89451 71.6962 8.8317 71.6962 12.4425V18.0692C71.6962 19.099 72.5339 19.9364 73.563 19.9364H93.6028C94.6319 19.9364 95.4697 19.0985 95.4697 18.0692L95.6498 2.25286C95.6643 1.01058 96.6864 0 97.9285 0H98.0511C98.6651 0 99.2403 0.240592 99.6717 0.67684C100.103 1.11356 100.337 1.69163 100.33 2.30528L100.15 18.0959C100.15 21.6879 97.2129 24.6172 93.6028 24.6172H73.563C69.9529 24.6172 67.0163 21.68 67.0163 18.0692V12.4429C67.0163 11.4131 66.1786 10.5753 65.149 10.5753H57.0897C56.0606 10.5753 55.2229 11.4131 55.2229 12.4425V32.1069C55.2229 32.8118 54.9098 33.4727 54.3636 33.9193C53.942 34.2638 53.4192 34.4468 52.8806 34.4468ZM57.0897 7.29827C54.2537 7.29827 51.9469 9.6059 51.9469 12.442V32.0633C51.9469 32.5253 52.2624 32.9372 52.6803 33.022C52.97 33.0819 53.2526 33.0131 53.4745 32.8319C53.693 32.6531 53.8184 32.3887 53.8184 32.1064V12.4425C53.8184 10.6385 55.2861 9.17105 57.0892 9.17105H65.1485C66.9521 9.17105 68.4198 10.6389 68.4198 12.4429V18.0697C68.4198 20.9062 70.727 23.2134 73.5625 23.2134H93.6024C96.4384 23.2134 98.7451 20.9142 98.7451 18.0884L98.9253 2.28937C98.9281 2.05393 98.8383 1.83159 98.6726 1.66449C98.5069 1.49691 98.286 1.4047 98.0506 1.4047H97.928C97.4511 1.4047 97.0589 1.79274 97.0533 2.26971L96.8732 18.0776C96.8732 19.8737 95.4055 21.3411 93.6024 21.3411H73.5625C71.7589 21.3411 70.2917 19.8737 70.2917 18.0697V12.4425C70.2917 9.6059 67.9845 7.29874 65.149 7.29874L57.0897 7.29827Z" fill="#656D75" />
  <path d="M15.243 18.7817C14.9093 18.7817 14.6182 18.5449 14.5536 18.2121C14.5429 18.154 13.3865 12.3995 9.16144 12.2005C8.80062 12.1832 8.51186 11.8958 8.49314 11.5354C8.47443 11.1745 8.73229 10.859 9.08937 10.8047C9.29575 10.7724 14.1877 9.95424 14.5906 5.17282C14.6196 4.83346 14.8878 4.56385 15.2266 4.53296C15.5706 4.50347 15.8785 4.71972 15.9679 5.04878C15.9824 5.10308 17.4931 10.4907 21.5197 10.7317C21.8538 10.7518 22.1271 11.0051 22.173 11.3365C22.2189 11.6679 22.0242 11.9862 21.7078 12.0962C21.6512 12.1158 16.0362 14.1136 15.9454 18.0965C15.937 18.4555 15.66 18.7499 15.3019 18.7794C15.2823 18.7813 15.2626 18.7817 15.243 18.7817ZM11.6203 11.4193C13.4351 12.341 14.5358 14.1089 15.1709 15.574C16.1191 13.6918 17.9512 12.3971 19.359 11.6295C17.4238 10.7668 16.1846 8.98391 15.4587 7.54644C14.6196 9.58726 12.9919 10.7617 11.6203 11.4193Z" fill="#656D75" />
  <path d="M5.10148 22.9693C4.76733 22.9693 4.47577 22.732 4.41213 22.3982C4.40464 22.3599 3.61467 18.4467 0.790342 18.3138C0.429521 18.2965 0.140771 18.0091 0.122051 17.6486C0.103331 17.2878 0.361195 16.9723 0.718272 16.918C0.856797 16.896 4.16456 16.3362 4.43506 13.12C4.46407 12.7802 4.7327 12.5101 5.07199 12.4797C5.41129 12.453 5.72344 12.6664 5.81236 12.995C5.82218 13.032 6.85457 16.7022 9.55301 16.8632C9.88715 16.8833 10.1609 17.1366 10.2063 17.4684C10.2517 17.8003 10.0566 18.1181 9.7402 18.2277C9.7023 18.2408 5.8643 19.6099 5.80346 22.2822C5.79551 22.6412 5.51752 22.9361 5.15951 22.966C5.14032 22.9688 5.12066 22.9693 5.10148 22.9693ZM2.98662 17.5738C3.97315 18.1977 4.63583 19.1624 5.06778 20.0452C5.71174 19.0005 6.71277 18.2328 7.57855 17.7175C6.50826 17.1235 5.76041 16.1494 5.26621 15.2727C4.71679 16.3432 3.85522 17.0865 2.98662 17.5738Z" fill="#656D75" />
  <path d="M5.10148 10.4919C4.76733 10.4919 4.47577 10.2546 4.41213 9.92088C4.40464 9.8825 3.61467 5.96936 0.790342 5.83643C0.429521 5.81911 0.140771 5.53171 0.122051 5.17129C0.103331 4.8104 0.361195 4.49492 0.718272 4.44109C0.856797 4.41909 4.16456 3.85927 4.43506 0.643104C4.46407 0.30328 4.7327 0.0331985 5.07199 0.00277339C5.40474 -0.0257794 5.72344 0.190004 5.81236 0.519063C5.83014 0.583658 6.86487 4.22624 9.55301 4.38679C9.88715 4.40692 10.1609 4.66015 10.2063 4.99202C10.2517 5.32388 10.0566 5.64171 9.7402 5.75124C9.7023 5.76435 5.8643 7.13301 5.80346 9.80573C5.79551 10.1647 5.51752 10.4596 5.15951 10.4896C5.14032 10.4915 5.12066 10.4919 5.10148 10.4919ZM2.98662 5.0964C3.97315 5.71988 4.63583 6.68505 5.06778 7.56785C5.71174 6.52263 6.71277 5.75545 7.57855 5.2401C6.50826 4.64611 5.76041 3.67204 5.26621 2.79533C4.71679 3.86535 3.85522 4.60913 2.98662 5.0964Z" fill="#656D75" />
  <path d="M93.2491 106C88.0577 106 83.4288 102.897 81.4557 98.0947L73.1391 77.8527C69.7625 76.7654 66.597 74.9328 63.9505 72.5325H42.0495C39.4035 74.9328 36.2384 76.7654 32.8614 77.8527L24.5443 98.0947C22.5712 102.897 17.9423 106 12.7509 106C5.72026 106 0 100.279 0 93.2468V74.3098C0 73.9218 0.31449 73.6077 0.701987 73.6077C1.08948 73.6077 1.40397 73.9218 1.40397 74.3098V93.2468C1.40397 99.5046 6.49431 104.596 12.7509 104.596C17.3704 104.596 21.4897 101.835 23.2456 97.5607L31.6877 77.0144C31.7677 76.8201 31.9306 76.6717 32.1309 76.6099C35.5135 75.5718 38.6837 73.7411 41.2984 71.3155C41.4285 71.1952 41.5993 71.1283 41.7762 71.1283H64.2238C64.4007 71.1283 64.5711 71.1952 64.7012 71.3155C67.3168 73.7411 70.4865 75.5718 73.8696 76.6099C74.0704 76.6717 74.2328 76.8201 74.3128 77.0144L82.7549 97.5607C84.5108 101.834 88.63 104.596 93.2496 104.596C99.5062 104.596 104.596 99.5046 104.596 93.2468V53.8983C104.596 40.7996 93.9417 30.1434 80.8459 30.1434C74.2089 30.1434 68.0511 32.817 63.5073 37.6719C63.3749 37.8138 63.1891 37.8943 62.9949 37.8943H43.0056C42.8114 37.8943 42.6256 37.8138 42.4931 37.6719C37.9494 32.8175 31.7916 30.1434 25.1545 30.1434C12.0587 30.1434 1.40397 40.7996 1.40397 53.8983V67.7122C1.40397 68.1003 1.08948 68.4144 0.701987 68.4144C0.31449 68.4144 0 68.1003 0 67.7122V53.8983C0 40.0254 11.2842 28.7391 25.1545 28.7391C31.9806 28.7391 38.5789 31.5602 43.3074 36.4905H62.6926C67.4212 31.5607 74.0194 28.7391 80.8455 28.7391C94.7158 28.7391 106 40.0254 106 53.8983V93.2468C106 100.279 100.28 106 93.2491 106Z" fill="#656D75" />
  <path d="M55.43 32.0436H50.335C48.8987 32.0436 47.7344 33.2082 47.7344 34.6447V37.1924H58.0302V34.6447C58.0302 33.2082 56.8658 32.0436 55.43 32.0436Z" fill="#656D75" />
  <path d="M58.029 37.8945H47.7332C47.3457 37.8945 47.0312 37.5804 47.0312 37.1924V34.6442C47.0312 32.8229 48.5129 31.3414 50.3339 31.3414H55.4289C57.2498 31.3414 58.7315 32.8234 58.7315 34.6442V37.1924C58.731 37.5804 58.4165 37.8945 58.029 37.8945ZM48.4352 36.4903H57.3271V34.6442C57.3271 33.5971 56.4758 32.7457 55.4284 32.7457H50.3334C49.2865 32.7457 48.4348 33.5971 48.4348 34.6442L48.4352 36.4903Z" fill="#656D75" />
  <path d="M58.2634 52.0261H47.9676C47.5801 52.0261 47.2656 51.712 47.2656 51.324V46.1751C47.2656 45.7871 47.5801 45.473 47.9676 45.473H49.9276C50.3151 45.473 50.6295 45.7871 50.6295 46.1751C50.6295 46.5632 50.3151 46.8773 49.9276 46.8773H48.6696V50.6219H57.5614V46.8773H56.3035C55.916 46.8773 55.6015 46.5632 55.6015 46.1751C55.6015 45.7871 55.916 45.473 56.3035 45.473H58.2634C58.6509 45.473 58.9654 45.7871 58.9654 46.1751V51.324C58.9654 51.712 58.6509 52.0261 58.2634 52.0261Z" fill="#656D75" />
  <path d="M58.7322 62.3232H48.4364C48.0489 62.3232 47.7344 62.0092 47.7344 61.6211V56.4723C47.7344 56.0842 48.0489 55.7701 48.4364 55.7701H58.7322C59.1197 55.7701 59.4342 56.0842 59.4342 56.4723V61.6211C59.4342 62.0092 59.1197 62.3232 58.7322 62.3232ZM49.1383 60.919H58.0302V57.1744H49.1383V60.919Z" fill="#656D75" />
  <path d="M25.1546 71.802C15.2842 71.802 7.25391 63.7702 7.25391 53.898C7.25391 44.0258 15.2842 35.994 25.1546 35.994C35.025 35.994 43.0552 44.0258 43.0552 53.898C43.0552 63.7702 35.025 71.802 25.1546 71.802ZM25.1546 37.3983C16.0582 37.3983 8.65788 44.8 8.65788 53.898C8.65788 62.996 16.0582 70.3978 25.1546 70.3978C34.2509 70.3978 41.6513 62.996 41.6513 53.898C41.6513 44.8 34.2509 37.3983 25.1546 37.3983Z" fill="#656D75" />
  <path d="M25.006 49.4914C27.0199 49.4914 28.6526 47.8585 28.6526 45.8442C28.6526 43.8298 27.0199 42.1969 25.006 42.1969C22.992 42.1969 21.3594 43.8298 21.3594 45.8442C21.3594 47.8585 22.992 49.4914 25.006 49.4914Z" fill="#656D75" />
  <path d="M25.0048 50.1931C22.6068 50.1931 20.6562 48.2422 20.6562 45.8438C20.6562 43.4453 22.6068 41.4944 25.0048 41.4944C27.4028 41.4944 29.3534 43.4453 29.3534 45.8438C29.3534 48.2417 27.4028 50.1931 25.0048 50.1931ZM25.0048 42.8982C23.3809 42.8982 22.0602 44.2195 22.0602 45.8433C22.0602 47.4671 23.3809 48.7884 25.0048 48.7884C26.6288 48.7884 27.9494 47.4671 27.9494 45.8433C27.9494 44.2195 26.6288 42.8982 25.0048 42.8982Z" fill="#656D75" />
  <path d="M26.7291 65.3211C28.59 64.5497 29.4733 62.4154 28.7019 60.5542C27.9306 58.6929 25.7967 57.8095 23.9359 58.581C22.075 59.3525 21.1917 61.4867 21.963 63.348C22.7344 65.2092 24.8682 66.0926 26.7291 65.3211Z" fill="#656D75" />
  <path d="M25.3061 66.3019C22.9081 66.3019 20.957 64.351 20.957 61.9525C20.957 59.5541 22.9081 57.6031 25.3061 57.6031C27.7041 57.6031 29.6546 59.5541 29.6546 61.9525C29.6546 64.351 27.7041 66.3019 25.3061 66.3019ZM25.3061 59.0074C23.6821 59.0074 22.361 60.3288 22.361 61.9525C22.361 63.5763 23.6821 64.8977 25.3061 64.8977C26.93 64.8977 28.2507 63.5763 28.2507 61.9525C28.2507 60.3288 26.93 59.0074 25.3061 59.0074Z" fill="#656D75" />
  <path d="M33.2091 57.3943C35.223 57.3943 36.8557 55.7613 36.8557 53.747C36.8557 51.7327 35.223 50.0997 33.2091 50.0997C31.1951 50.0997 29.5625 51.7327 29.5625 53.747C29.5625 55.7613 31.1951 57.3943 33.2091 57.3943Z" fill="#656D75" />
  <path d="M33.2079 58.0964C30.81 58.0964 28.8594 56.1455 28.8594 53.7466C28.8594 51.3486 30.81 49.3972 33.2079 49.3972C35.6059 49.3972 37.5565 51.3486 37.5565 53.7471C37.5565 56.1455 35.6059 58.0964 33.2079 58.0964ZM33.2079 50.8019C31.584 50.8019 30.2633 52.1233 30.2633 53.7471C30.2633 55.3713 31.584 56.6927 33.2079 56.6927C34.8319 56.6927 36.1525 55.3713 36.1525 53.7471C36.1525 52.1233 34.8319 50.8019 33.2079 50.8019Z" fill="#656D75" />
  <path d="M17.546 57.7061C19.5458 57.4603 20.9679 55.6396 20.7222 53.6394C20.4765 51.6392 18.6561 50.2169 16.6562 50.4626C14.6564 50.7084 13.2343 52.5291 13.48 54.5293C13.7257 56.5296 15.5461 57.9518 17.546 57.7061Z" fill="#656D75" />
  <path d="M17.0986 58.4004C14.7006 58.4004 12.75 56.4495 12.75 54.0506C12.75 51.6526 14.7006 49.7012 17.0986 49.7012C19.4966 49.7012 21.4476 51.6521 21.4476 54.0506C21.4476 56.449 19.4966 58.4004 17.0986 58.4004ZM17.0986 51.1054C15.4746 51.1054 14.154 52.4268 14.154 54.0506C14.154 55.6748 15.4746 56.9962 17.0986 56.9962C18.7225 56.9962 20.0436 55.6748 20.0436 54.0506C20.0436 52.4268 18.7225 51.1054 17.0986 51.1054Z" fill="#656D75" />
  <path d="M80.846 71.8196C70.9756 71.8196 62.9453 63.7878 62.9453 53.9156C62.9453 44.0433 70.9756 36.0116 80.846 36.0116C90.7164 36.0116 98.7466 44.0433 98.7466 53.9156C98.7466 63.7878 90.7164 71.8196 80.846 71.8196ZM80.846 37.4158C71.7501 37.4158 64.3493 44.8175 64.3493 53.9156C64.3493 63.0136 71.7501 70.4153 80.846 70.4153C89.9419 70.4153 97.3427 63.0136 97.3427 53.9156C97.3427 44.8175 89.9419 37.4158 80.846 37.4158Z" fill="#656D75" />
  <path d="M91.4796 50.5716H84.1864V43.2766H77.5007V50.5716H70.207V57.2581H77.5007V64.5531H84.1864V57.2581H91.4796V50.5716Z" fill="#656D75" />
  <path d="M84.1887 65.2553H77.503C77.1155 65.2553 76.801 64.9412 76.801 64.5532V57.9608H70.2098C69.8223 57.9608 69.5078 57.6467 69.5078 57.2587V50.5717C69.5078 50.1837 69.8223 49.8696 70.2098 49.8696H76.801V43.2772C76.801 42.8892 77.1155 42.5751 77.503 42.5751H84.1887C84.5762 42.5751 84.8907 42.8892 84.8907 43.2772V49.8696H91.4819C91.8694 49.8696 92.1839 50.1837 92.1839 50.5717V57.2587C92.1839 57.6467 91.8694 57.9608 91.4819 57.9608H84.8907V64.5532C84.8907 64.9408 84.5762 65.2553 84.1887 65.2553ZM78.2045 63.8511H83.4862V57.2587C83.4862 56.8706 83.8007 56.5566 84.1882 56.5566H90.7794V51.2738H84.1882C83.8007 51.2738 83.4862 50.9598 83.4862 50.5717V43.9793H78.2045V50.5717C78.2045 50.9598 77.89 51.2738 77.5025 51.2738H70.9113V56.5566H77.5025C77.89 56.5566 78.2045 56.8706 78.2045 57.2587V63.8511Z" fill="#656D75" />
</svg>