<svg width="106" height="106" viewBox="0 0 106 106" fill="none" xmlns="http://www.w3.org/2000/svg">
  <path d="M52.8806 34.4469C52.7215 34.4469 52.5614 34.431 52.4018 34.3987C51.325 34.181 50.543 33.1985 50.543 32.0639V12.4425C50.543 8.83173 53.4796 5.89453 57.0897 5.89453H65.1494C68.7595 5.89453 71.6962 8.83173 71.6962 12.4425V18.0693C71.6962 19.0991 72.5339 19.9364 73.563 19.9364H93.6028C94.6319 19.9364 95.4697 19.0986 95.4697 18.0693L95.6498 2.25287C95.6643 1.01058 96.6864 0 97.9285 0H98.0511C98.6651 0 99.2403 0.240593 99.6717 0.676843C100.103 1.11356 100.337 1.69164 100.33 2.30529L100.15 18.096C100.15 21.688 97.2129 24.6172 93.6028 24.6172H73.563C69.9529 24.6172 67.0163 21.68 67.0163 18.0693V12.443C67.0163 11.4132 66.1786 10.5753 65.149 10.5753H57.0897C56.0606 10.5753 55.2229 11.4132 55.2229 12.4425V32.107C55.2229 32.8119 54.9098 33.4728 54.3636 33.9194C53.942 34.2639 53.4192 34.4469 52.8806 34.4469ZM57.0897 7.2983C54.2537 7.2983 51.9469 9.60593 51.9469 12.442V32.0634C51.9469 32.5254 52.2624 32.9374 52.6803 33.0221C52.97 33.082 53.2526 33.0132 53.4745 32.832C53.693 32.6532 53.8184 32.3888 53.8184 32.1065V12.4425C53.8184 10.6385 55.2861 9.17108 57.0892 9.17108H65.1485C66.9521 9.17108 68.4198 10.639 68.4198 12.443V18.0697C68.4198 20.9063 70.727 23.2135 73.5625 23.2135H93.6024C96.4384 23.2135 98.7451 20.9143 98.7451 18.0885L98.9253 2.28938C98.9281 2.05393 98.8383 1.8316 98.6726 1.66449C98.5069 1.49692 98.286 1.40471 98.0506 1.40471H97.928C97.4511 1.40471 97.0589 1.79274 97.0533 2.26972L96.8732 18.0777C96.8732 19.8737 95.4055 21.3412 93.6024 21.3412H73.5625C71.7589 21.3412 70.2917 19.8737 70.2917 18.0697V12.4425C70.2917 9.60593 67.9845 7.29876 65.149 7.29876L57.0897 7.2983Z" fill="white" />
  <path d="M15.243 18.7818C14.9093 18.7818 14.6182 18.5449 14.5536 18.2121C14.5429 18.1541 13.3865 12.3995 9.16144 12.2006C8.80062 12.1832 8.51186 11.8958 8.49314 11.5354C8.47443 11.1745 8.73229 10.8591 9.08937 10.8048C9.29575 10.7725 14.1877 9.95425 14.5906 5.17282C14.6196 4.83346 14.8878 4.56385 15.2266 4.53296C15.5706 4.50347 15.8785 4.71972 15.9679 5.04878C15.9824 5.10308 17.4931 10.4907 21.5197 10.7317C21.8538 10.7519 22.1271 11.0051 22.173 11.3365C22.2189 11.6679 22.0242 11.9862 21.7078 12.0962C21.6512 12.1158 16.0362 14.1136 15.9454 18.0965C15.937 18.4555 15.66 18.7499 15.3019 18.7794C15.2823 18.7813 15.2626 18.7818 15.243 18.7818ZM11.6203 11.4193C13.4351 12.341 14.5358 14.1089 15.1709 15.574C16.1191 13.6919 17.9512 12.3972 19.359 11.6295C17.4238 10.7668 16.1846 8.98393 15.4587 7.54645C14.6196 9.58728 12.9919 10.7617 11.6203 11.4193Z" fill="white" />
  <path d="M5.10148 22.9699C4.76733 22.9699 4.47577 22.7326 4.41213 22.3989C4.40464 22.3605 3.61467 18.4474 0.790342 18.3144C0.429521 18.2971 0.140771 18.0097 0.122051 17.6493C0.103331 17.2884 0.361195 16.9729 0.718272 16.9186C0.856797 16.8966 4.16456 16.3368 4.43506 13.1206C4.46407 12.7808 4.7327 12.5107 5.07199 12.4803C5.41129 12.4536 5.72344 12.667 5.81236 12.9956C5.82218 13.0326 6.85457 16.7028 9.55301 16.8638C9.88715 16.884 10.1609 17.1372 10.2063 17.4691C10.2517 17.8009 10.0566 18.1188 9.7402 18.2283C9.7023 18.2414 5.8643 19.6105 5.80346 22.2828C5.79551 22.6418 5.51752 22.9367 5.15951 22.9667C5.14032 22.9695 5.12066 22.9699 5.10148 22.9699ZM2.98662 17.5744C3.97315 18.1983 4.63583 19.163 5.06778 20.0458C5.71174 19.0011 6.71277 18.2334 7.57855 17.7181C6.50826 17.1241 5.76041 16.15 5.26621 15.2733C4.71679 16.3438 3.85522 17.0871 2.98662 17.5744Z" fill="white" />
  <path d="M5.10148 10.492C4.76733 10.492 4.47577 10.2547 4.41213 9.92091C4.40464 9.88253 3.61467 5.96938 0.790342 5.83645C0.429521 5.81913 0.140771 5.53173 0.122051 5.17131C0.103331 4.81042 0.361195 4.49493 0.718272 4.4411C0.856797 4.4191 4.16456 3.85928 4.43506 0.643106C4.46407 0.30328 4.7327 0.0331986 5.07199 0.0027734C5.40474 -0.0257795 5.72344 0.190005 5.81236 0.519065C5.83014 0.58366 6.86487 4.22625 9.55301 4.38681C9.88715 4.40693 10.1609 4.66016 10.2063 4.99203C10.2517 5.3239 10.0566 5.64173 9.7402 5.75126C9.7023 5.76436 5.8643 7.13303 5.80346 9.80576C5.79551 10.1648 5.51752 10.4597 5.15951 10.4896C5.14032 10.4915 5.12066 10.492 5.10148 10.492ZM2.98662 5.09641C3.97315 5.7199 4.63583 6.68508 5.06778 7.56787C5.71174 6.52265 6.71277 5.75547 7.57855 5.24011C6.50826 4.64612 5.76041 3.67205 5.26621 2.79534C4.71679 3.86537 3.85522 4.60914 2.98662 5.09641Z" fill="white" />
  <path d="M93.2491 106C88.0577 106 83.4288 102.897 81.4557 98.0946L73.1391 77.8525C69.7625 76.7651 66.597 74.9326 63.9505 72.5323H42.0495C39.4035 74.9326 36.2384 76.7651 32.8614 77.8525L24.5443 98.0946C22.5712 102.897 17.9423 106 12.7509 106C5.72026 106 0 100.279 0 93.2467V74.3096C0 73.9216 0.31449 73.6075 0.701987 73.6075C1.08948 73.6075 1.40397 73.9216 1.40397 74.3096V93.2467C1.40397 99.5044 6.49431 104.596 12.7509 104.596C17.3704 104.596 21.4897 101.835 23.2456 97.5605L31.6877 77.0142C31.7677 76.8199 31.9306 76.6715 32.1309 76.6097C35.5135 75.5715 38.6837 73.7409 41.2984 71.3153C41.4285 71.195 41.5993 71.1281 41.7762 71.1281H64.2238C64.4007 71.1281 64.5711 71.195 64.7012 71.3153C67.3168 73.7409 70.4865 75.5715 73.8696 76.6097C74.0704 76.6715 74.2328 76.8199 74.3128 77.0142L82.7549 97.5605C84.5108 101.834 88.63 104.596 93.2496 104.596C99.5062 104.596 104.596 99.5044 104.596 93.2467V53.898C104.596 40.7993 93.9417 30.143 80.8459 30.143C74.2089 30.143 68.0511 32.8167 63.5073 37.6716C63.3749 37.8134 63.1891 37.8939 62.9949 37.8939H43.0056C42.8114 37.8939 42.6256 37.8134 42.4931 37.6716C37.9494 32.8171 31.7916 30.143 25.1545 30.143C12.0587 30.143 1.40397 40.7993 1.40397 53.898V67.712C1.40397 68.1 1.08948 68.4141 0.701987 68.4141C0.31449 68.4141 0 68.1 0 67.712V53.898C0 40.0251 11.2842 28.7388 25.1545 28.7388C31.9806 28.7388 38.5789 31.5599 43.3074 36.4902H62.6926C67.4212 31.5604 74.0194 28.7388 80.8455 28.7388C94.7158 28.7388 106 40.0251 106 53.898V93.2467C106 100.279 100.28 106 93.2491 106Z" fill="white" />
  <path d="M55.43 32.0442H50.335C48.8987 32.0442 47.7344 33.2088 47.7344 34.6453V37.1931H58.0302V34.6453C58.0302 33.2088 56.8658 32.0442 55.43 32.0442Z" fill="white" />
  <path d="M58.029 37.8947H47.7332C47.3457 37.8947 47.0312 37.5806 47.0312 37.1925V34.6443C47.0312 32.823 48.5129 31.3416 50.3339 31.3416H55.4289C57.2498 31.3416 58.7315 32.8235 58.7315 34.6443V37.1925C58.731 37.5806 58.4165 37.8947 58.029 37.8947ZM48.4352 36.4904H57.3271V34.6443C57.3271 33.5972 56.4758 32.7458 55.4284 32.7458H50.3334C49.2865 32.7458 48.4348 33.5972 48.4348 34.6443L48.4352 36.4904Z" fill="white" />
  <path d="M58.2634 52.0263H47.9676C47.5801 52.0263 47.2656 51.7122 47.2656 51.3241V46.1753C47.2656 45.7872 47.5801 45.4731 47.9676 45.4731H49.9276C50.3151 45.4731 50.6295 45.7872 50.6295 46.1753C50.6295 46.5633 50.3151 46.8774 49.9276 46.8774H48.6696V50.622H57.5614V46.8774H56.3035C55.916 46.8774 55.6015 46.5633 55.6015 46.1753C55.6015 45.7872 55.916 45.4731 56.3035 45.4731H58.2634C58.6509 45.4731 58.9654 45.7872 58.9654 46.1753V51.3241C58.9654 51.7122 58.6509 52.0263 58.2634 52.0263Z" fill="white" />
  <path d="M58.7322 62.3235H48.4364C48.0489 62.3235 47.7344 62.0094 47.7344 61.6214V56.4725C47.7344 56.0845 48.0489 55.7704 48.4364 55.7704H58.7322C59.1197 55.7704 59.4342 56.0845 59.4342 56.4725V61.6214C59.4342 62.0094 59.1197 62.3235 58.7322 62.3235ZM49.1383 60.9193H58.0302V57.1746H49.1383V60.9193Z" fill="white" />
  <path d="M25.1546 71.8027C15.2842 71.8027 7.25391 63.7709 7.25391 53.8987C7.25391 44.0264 15.2842 35.9946 25.1546 35.9946C35.025 35.9946 43.0552 44.0264 43.0552 53.8987C43.0552 63.7709 35.025 71.8027 25.1546 71.8027ZM25.1546 37.3989C16.0582 37.3989 8.65788 44.8006 8.65788 53.8987C8.65788 62.9967 16.0582 70.3985 25.1546 70.3985C34.2509 70.3985 41.6513 62.9967 41.6513 53.8987C41.6513 44.8006 34.2509 37.3989 25.1546 37.3989Z" fill="white" />
  <path d="M25.006 49.4916C27.0199 49.4916 28.6526 47.8586 28.6526 45.8443C28.6526 43.83 27.0199 42.197 25.006 42.197C22.992 42.197 21.3594 43.83 21.3594 45.8443C21.3594 47.8586 22.992 49.4916 25.006 49.4916Z" fill="white" />
  <path d="M25.0048 50.1933C22.6068 50.1933 20.6562 48.2423 20.6562 45.8439C20.6562 43.4455 22.6068 41.4945 25.0048 41.4945C27.4028 41.4945 29.3534 43.4455 29.3534 45.8439C29.3534 48.2419 27.4028 50.1933 25.0048 50.1933ZM25.0048 42.8983C23.3809 42.8983 22.0602 44.2197 22.0602 45.8434C22.0602 47.4672 23.3809 48.7886 25.0048 48.7886C26.6288 48.7886 27.9494 47.4672 27.9494 45.8434C27.9494 44.2197 26.6288 42.8983 25.0048 42.8983Z" fill="white" />
  <path d="M26.7291 65.3213C28.59 64.5498 29.4733 62.4155 28.7019 60.5543C27.9306 58.693 25.7967 57.8096 23.9359 58.5811C22.075 59.3526 21.1917 61.4869 21.963 63.3481C22.7344 65.2094 24.8682 66.0928 26.7291 65.3213Z" fill="white" />
  <path d="M25.3061 66.3021C22.9081 66.3021 20.957 64.3511 20.957 61.9527C20.957 59.5542 22.9081 57.6033 25.3061 57.6033C27.7041 57.6033 29.6546 59.5542 29.6546 61.9527C29.6546 64.3511 27.7041 66.3021 25.3061 66.3021ZM25.3061 59.0075C23.6821 59.0075 22.361 60.3289 22.361 61.9527C22.361 63.5764 23.6821 64.8978 25.3061 64.8978C26.93 64.8978 28.2507 63.5764 28.2507 61.9527C28.2507 60.3289 26.93 59.0075 25.3061 59.0075Z" fill="white" />
  <path d="M33.2091 57.3945C35.223 57.3945 36.8557 55.7616 36.8557 53.7473C36.8557 51.7329 35.223 50.1 33.2091 50.1C31.1951 50.1 29.5625 51.7329 29.5625 53.7473C29.5625 55.7616 31.1951 57.3945 33.2091 57.3945Z" fill="white" />
  <path d="M33.2079 58.0966C30.81 58.0966 28.8594 56.1456 28.8594 53.7467C28.8594 51.3488 30.81 49.3973 33.2079 49.3973C35.6059 49.3973 37.5565 51.3488 37.5565 53.7472C37.5565 56.1456 35.6059 58.0966 33.2079 58.0966ZM33.2079 50.802C31.584 50.802 30.2633 52.1234 30.2633 53.7472C30.2633 55.3714 31.584 56.6928 33.2079 56.6928C34.8319 56.6928 36.1525 55.3714 36.1525 53.7472C36.1525 52.1234 34.8319 50.802 33.2079 50.802Z" fill="white" />
  <path d="M17.546 57.7062C19.5458 57.4605 20.9679 55.6398 20.7222 53.6395C20.4765 51.6393 18.6561 50.217 16.6562 50.4627C14.6564 50.7085 13.2343 52.5292 13.48 54.5295C13.7257 56.5297 15.5461 57.952 17.546 57.7062Z" fill="white" />
  <path d="M17.0986 58.4007C14.7006 58.4007 12.75 56.4497 12.75 54.0508C12.75 51.6528 14.7006 49.7014 17.0986 49.7014C19.4966 49.7014 21.4476 51.6524 21.4476 54.0508C21.4476 56.4493 19.4966 58.4007 17.0986 58.4007ZM17.0986 51.1057C15.4746 51.1057 14.154 52.427 14.154 54.0508C14.154 55.675 15.4746 56.9964 17.0986 56.9964C18.7225 56.9964 20.0436 55.675 20.0436 54.0508C20.0436 52.427 18.7225 51.1057 17.0986 51.1057Z" fill="white" />
  <path d="M80.846 71.8203C70.9756 71.8203 62.9453 63.7885 62.9453 53.9162C62.9453 44.044 70.9756 36.0122 80.846 36.0122C90.7164 36.0122 98.7466 44.044 98.7466 53.9162C98.7466 63.7885 90.7164 71.8203 80.846 71.8203ZM80.846 37.4164C71.7501 37.4164 64.3493 44.8182 64.3493 53.9162C64.3493 63.0143 71.7501 70.416 80.846 70.416C89.9419 70.416 97.3427 63.0143 97.3427 53.9162C97.3427 44.8182 89.9419 37.4164 80.846 37.4164Z" fill="white" />
  <path d="M91.4796 50.5718H84.1864V43.2767H77.5007V50.5718H70.207V57.2583H77.5007V64.5533H84.1864V57.2583H91.4796V50.5718Z" fill="white" />
  <path d="M84.1887 65.2555H77.503C77.1155 65.2555 76.801 64.9414 76.801 64.5534V57.961H70.2098C69.8223 57.961 69.5078 57.6469 69.5078 57.2589V50.5719C69.5078 50.1838 69.8223 49.8698 70.2098 49.8698H76.801V43.2773C76.801 42.8893 77.1155 42.5752 77.503 42.5752H84.1887C84.5762 42.5752 84.8907 42.8893 84.8907 43.2773V49.8698H91.4819C91.8694 49.8698 92.1839 50.1838 92.1839 50.5719V57.2589C92.1839 57.6469 91.8694 57.961 91.4819 57.961H84.8907V64.5534C84.8907 64.941 84.5762 65.2555 84.1887 65.2555ZM78.2045 63.8513H83.4862V57.2589C83.4862 56.8708 83.8007 56.5567 84.1882 56.5567H90.7794V51.274H84.1882C83.8007 51.274 83.4862 50.9599 83.4862 50.5719V43.9794H78.2045V50.5719C78.2045 50.9599 77.89 51.274 77.5025 51.274H70.9113V56.5567H77.5025C77.89 56.5567 78.2045 56.8708 78.2045 57.2589V63.8513Z" fill="white" />
  <path d="M97.9296 0.702637C97.0657 0.702637 96.3628 1.39773 96.353 2.26181L96.1728 18.0698C96.1728 19.4867 95.0201 20.6391 93.604 20.6391H73.5641C72.1452 20.6391 70.9953 19.4885 70.9953 18.0698V12.443C70.9953 9.2142 68.3783 6.59716 65.1506 6.59716H57.0908C53.8626 6.59716 51.2461 9.21466 51.2461 12.443V32.0644C51.2461 32.8461 51.7759 33.5562 52.5424 33.7111C53.5963 33.9241 54.522 33.1242 54.522 32.1075V12.443C54.522 11.0238 55.6724 9.87372 57.0908 9.87372H65.1501C66.5691 9.87372 67.7194 11.0243 67.7194 12.4435V18.0703C67.7194 21.2991 70.3364 23.9161 73.5641 23.9161H93.604C96.827 23.9161 99.4487 21.2935 99.4487 18.089L99.6289 2.29785C99.6387 1.41974 98.9302 0.703105 98.0522 0.703105L97.9296 0.702637Z" fill="#F0B73D" />
  <path d="M52.8806 34.4469C52.7215 34.4469 52.5614 34.431 52.4018 34.3987C51.325 34.181 50.543 33.1985 50.543 32.0639V12.4425C50.543 8.83173 53.4796 5.89453 57.0897 5.89453H65.1494C68.7595 5.89453 71.6962 8.83173 71.6962 12.4425V18.0693C71.6962 19.0991 72.5339 19.9364 73.563 19.9364H93.6028C94.6319 19.9364 95.4697 19.0986 95.4697 18.0693L95.6498 2.25287C95.6643 1.01058 96.6864 0 97.9285 0H98.0511C98.6651 0 99.2403 0.240592 99.6717 0.676843C100.103 1.11356 100.337 1.69164 100.33 2.30529L100.15 18.096C100.15 21.688 97.2129 24.6172 93.6028 24.6172H73.563C69.9529 24.6172 67.0163 21.68 67.0163 18.0693V12.443C67.0163 11.4132 66.1786 10.5753 65.149 10.5753H57.0897C56.0606 10.5753 55.2229 11.4132 55.2229 12.4425V32.107C55.2229 32.8119 54.9098 33.4728 54.3636 33.9194C53.942 34.2639 53.4192 34.4469 52.8806 34.4469ZM57.0897 7.2983C54.2537 7.2983 51.9469 9.60593 51.9469 12.442V32.0634C51.9469 32.5254 52.2624 32.9374 52.6803 33.0221C52.97 33.082 53.2526 33.0132 53.4745 32.832C53.693 32.6532 53.8184 32.3888 53.8184 32.1065V12.4425C53.8184 10.6385 55.2861 9.17108 57.0892 9.17108H65.1485C66.9521 9.17108 68.4198 10.639 68.4198 12.443V18.0697C68.4198 20.9063 70.727 23.2135 73.5625 23.2135H93.6024C96.4384 23.2135 98.7451 20.9143 98.7451 18.0885L98.9253 2.28938C98.9281 2.05393 98.8383 1.8316 98.6726 1.66449C98.5069 1.49692 98.286 1.40471 98.0506 1.40471H97.928C97.4511 1.40471 97.0589 1.79274 97.0533 2.26972L96.8732 18.0777C96.8732 19.8737 95.4055 21.3412 93.6024 21.3412H73.5625C71.7589 21.3412 70.2917 19.8737 70.2917 18.0697V12.4425C70.2917 9.60593 67.9845 7.29876 65.149 7.29876L57.0897 7.2983Z" fill="#0E0806" />
  <path d="M15.2904 5.23193C15.2904 5.23193 16.8853 11.1574 21.4782 11.4321C21.4782 11.4321 15.3475 13.5502 15.2441 18.0798C15.2441 18.0798 14.0371 11.727 9.19531 11.4991C9.19531 11.4995 14.8351 10.6448 15.2904 5.23193Z" fill="#229B12" />
  <path d="M15.243 18.7818C14.9093 18.7818 14.6182 18.5449 14.5536 18.2121C14.5429 18.1541 13.3865 12.3995 9.16144 12.2006C8.80062 12.1832 8.51186 11.8958 8.49314 11.5354C8.47443 11.1745 8.73229 10.8591 9.08937 10.8048C9.29575 10.7725 14.1877 9.95425 14.5906 5.17282C14.6196 4.83346 14.8878 4.56385 15.2266 4.53296C15.5706 4.50347 15.8785 4.71972 15.9679 5.04878C15.9824 5.10308 17.4931 10.4907 21.5197 10.7317C21.8538 10.7519 22.1271 11.0051 22.173 11.3365C22.2189 11.6679 22.0242 11.9862 21.7078 12.0962C21.6512 12.1158 16.0362 14.1136 15.9454 18.0965C15.937 18.4555 15.66 18.7499 15.3019 18.7794C15.2823 18.7813 15.2626 18.7818 15.243 18.7818ZM11.6203 11.4193C13.4351 12.341 14.5358 14.1089 15.1709 15.574C16.1191 13.6919 17.9512 12.3972 19.359 11.6295C17.4238 10.7668 16.1846 8.98393 15.4587 7.54645C14.6196 9.58728 12.9919 10.7617 11.6203 11.4193Z" fill="#0E0806" />
  <path d="M5.13535 13.1805C5.13535 13.1805 6.26368 17.3717 9.51201 17.566C9.51201 17.566 5.1756 19.0643 5.10259 22.2678C5.10259 22.2678 4.24898 17.7743 0.824219 17.6133C0.824219 17.6133 4.81338 17.009 5.13535 13.1805Z" fill="#229B12" />
  <path d="M5.10148 22.9699C4.76733 22.9699 4.47577 22.7326 4.41213 22.3989C4.40464 22.3605 3.61467 18.4474 0.790342 18.3144C0.429521 18.2971 0.140771 18.0097 0.122051 17.6493C0.103331 17.2884 0.361195 16.9729 0.718272 16.9186C0.856797 16.8966 4.16456 16.3368 4.43506 13.1206C4.46407 12.7808 4.7327 12.5107 5.07199 12.4803C5.41129 12.4536 5.72344 12.667 5.81236 12.9956C5.82218 13.0326 6.85457 16.7028 9.55301 16.8638C9.88715 16.884 10.1609 17.1372 10.2063 17.4691C10.2517 17.8009 10.0566 18.1188 9.7402 18.2283C9.7023 18.2414 5.8643 19.6105 5.80346 22.2828C5.79551 22.6418 5.51752 22.9367 5.15951 22.9667C5.14032 22.9695 5.12066 22.9699 5.10148 22.9699ZM2.98662 17.5744C3.97315 18.1983 4.63583 19.163 5.06778 20.0458C5.71174 19.0011 6.71277 18.2334 7.57855 17.7181C6.50826 17.1241 5.76041 16.15 5.26621 15.2733C4.71679 16.3438 3.85522 17.0871 2.98662 17.5744Z" fill="#0E0806" />
  <path d="M5.13535 0.702637C5.13535 0.702637 6.26368 4.89382 9.51201 5.08807C9.51201 5.08807 5.1756 6.5864 5.10259 9.78993C5.10259 9.78993 4.24898 5.29637 0.824219 5.13535C0.824219 5.13582 4.81338 4.53153 5.13535 0.702637Z" fill="#229B12" />
  <path d="M5.10148 10.492C4.76733 10.492 4.47577 10.2547 4.41213 9.92091C4.40464 9.88253 3.61467 5.96938 0.790342 5.83645C0.429521 5.81913 0.140771 5.53173 0.122051 5.17131C0.103331 4.81042 0.361195 4.49493 0.718272 4.4411C0.856797 4.4191 4.16456 3.85928 4.43506 0.643106C4.46407 0.30328 4.7327 0.0331986 5.07199 0.0027734C5.40474 -0.0257795 5.72344 0.190005 5.81236 0.519065C5.83014 0.58366 6.86487 4.22625 9.55301 4.38681C9.88715 4.40693 10.1609 4.66016 10.2063 4.99203C10.2517 5.3239 10.0566 5.64173 9.7402 5.75126C9.7023 5.76436 5.8643 7.13303 5.80346 9.80576C5.79551 10.1648 5.51752 10.4597 5.15951 10.4896C5.14032 10.4915 5.12066 10.492 5.10148 10.492ZM2.98662 5.09641C3.97315 5.7199 4.63583 6.68508 5.06778 7.56787C5.71174 6.52265 6.71277 5.75547 7.57855 5.24011C6.50826 4.64612 5.76041 3.67205 5.26621 2.79534C4.71679 3.86537 3.85522 4.60914 2.98662 5.09641Z" fill="#0E0806" />
  <path d="M0.703125 74.3101V93.2472C0.703125 99.9028 6.09766 105.298 12.752 105.298C17.6374 105.298 22.0393 102.348 23.8963 97.8283L32.3384 77.2819C35.9003 76.1885 39.1135 74.3021 41.7773 71.8307H64.225C66.8888 74.3021 70.102 76.1885 73.6639 77.2819L82.106 97.8283C83.963 102.348 88.3649 105.298 93.2503 105.298C99.9046 105.298 105.299 99.9028 105.299 93.2472C105.299 93.2472 105.299 53.9472 105.299 53.8986C105.299 40.3912 94.351 29.4414 80.8461 29.4414C73.8015 29.4414 67.4574 32.4249 62.9951 37.1923H43.0062C38.5444 32.4245 32.2003 29.4414 25.1557 29.4414C11.6508 29.4414 0.703125 40.3912 0.703125 53.8986V67.7125V74.3101Z" fill="#F0B73D" />
  <path d="M93.2491 106C88.0577 106 83.4288 102.897 81.4557 98.0946L73.1391 77.8525C69.7625 76.7651 66.597 74.9326 63.9505 72.5323H42.0495C39.4035 74.9326 36.2384 76.7651 32.8614 77.8525L24.5443 98.0946C22.5712 102.897 17.9423 106 12.7509 106C5.72026 106 0 100.279 0 93.2467V74.3096C0 73.9216 0.31449 73.6075 0.701987 73.6075C1.08948 73.6075 1.40397 73.9216 1.40397 74.3096V93.2467C1.40397 99.5044 6.49431 104.596 12.7509 104.596C17.3704 104.596 21.4897 101.835 23.2456 97.5605L31.6877 77.0142C31.7677 76.8199 31.9306 76.6715 32.1309 76.6097C35.5135 75.5715 38.6837 73.7409 41.2984 71.3153C41.4285 71.195 41.5993 71.1281 41.7762 71.1281H64.2238C64.4007 71.1281 64.5711 71.195 64.7012 71.3153C67.3168 73.7409 70.4865 75.5715 73.8696 76.6097C74.0704 76.6715 74.2328 76.8199 74.3128 77.0142L82.7549 97.5605C84.5108 101.834 88.63 104.596 93.2496 104.596C99.5062 104.596 104.596 99.5044 104.596 93.2467V53.898C104.596 40.7993 93.9417 30.143 80.8459 30.143C74.2089 30.143 68.0511 32.8167 63.5073 37.6716C63.3749 37.8134 63.1891 37.8939 62.9949 37.8939H43.0056C42.8114 37.8939 42.6256 37.8134 42.4931 37.6716C37.9494 32.8171 31.7916 30.143 25.1545 30.143C12.0587 30.143 1.40397 40.7993 1.40397 53.898V67.712C1.40397 68.1 1.08948 68.4141 0.701987 68.4141C0.31449 68.4141 0 68.1 0 67.712V53.898C0 40.0251 11.2842 28.7388 25.1545 28.7388C31.9806 28.7388 38.5789 31.5599 43.3074 36.4902H62.6926C67.4212 31.5604 74.0194 28.7388 80.8455 28.7388C94.7158 28.7388 106 40.0251 106 53.898V93.2467C106 100.279 100.28 106 93.2491 106Z" fill="#0E0806" />
  <path d="M55.43 32.0442H50.335C48.8987 32.0442 47.7344 33.2088 47.7344 34.6453V37.1931H58.0302V34.6453C58.0302 33.2088 56.8658 32.0442 55.43 32.0442Z" fill="#229B12" />
  <path d="M58.029 37.8947H47.7332C47.3457 37.8947 47.0312 37.5806 47.0312 37.1925V34.6443C47.0312 32.823 48.5129 31.3416 50.3339 31.3416H55.4289C57.2498 31.3416 58.7315 32.8235 58.7315 34.6443V37.1925C58.731 37.5806 58.4165 37.8947 58.029 37.8947ZM48.4352 36.4904H57.3271V34.6443C57.3271 33.5972 56.4758 32.7458 55.4284 32.7458H50.3334C49.2865 32.7458 48.4348 33.5972 48.4348 34.6443L48.4352 36.4904Z" fill="#0E0806" />
  <path d="M49.9287 46.1758H47.9688V51.3247H58.2646V46.1758H56.3046H49.9287Z" fill="#229B12" />
  <path d="M58.2634 52.0263H47.9676C47.5801 52.0263 47.2656 51.7122 47.2656 51.3241V46.1753C47.2656 45.7872 47.5801 45.4731 47.9676 45.4731H49.9276C50.3151 45.4731 50.6295 45.7872 50.6295 46.1753C50.6295 46.5633 50.3151 46.8774 49.9276 46.8774H48.6696V50.622H57.5614V46.8774H56.3035C55.916 46.8774 55.6015 46.5633 55.6015 46.1753C55.6015 45.7872 55.916 45.4731 56.3035 45.4731H58.2634C58.6509 45.4731 58.9654 45.7872 58.9654 46.1753V51.3241C58.9654 51.7122 58.6509 52.0263 58.2634 52.0263Z" fill="#0E0806" />
  <path d="M48.4375 56.4729H58.7333V61.6218H48.4375V56.4729Z" fill="#229B12" />
  <path d="M58.7322 62.3235H48.4364C48.0489 62.3235 47.7344 62.0094 47.7344 61.6214V56.4725C47.7344 56.0845 48.0489 55.7704 48.4364 55.7704H58.7322C59.1197 55.7704 59.4342 56.0845 59.4342 56.4725V61.6214C59.4342 62.0094 59.1197 62.3235 58.7322 62.3235ZM49.1383 60.9193H58.0302V57.1746H49.1383V60.9193Z" fill="#0E0806" />
  <path d="M25.1557 71.1011C34.6543 71.1011 42.3544 63.3995 42.3544 53.8992C42.3544 44.3988 34.6543 36.6973 25.1557 36.6973C15.6571 36.6973 7.95703 44.3988 7.95703 53.8992C7.95703 63.3995 15.6571 71.1011 25.1557 71.1011Z" fill="#F16C7A" />
  <path d="M25.1546 71.8027C15.2842 71.8027 7.25391 63.7709 7.25391 53.8987C7.25391 44.0264 15.2842 35.9946 25.1546 35.9946C35.025 35.9946 43.0552 44.0264 43.0552 53.8987C43.0552 63.7709 35.025 71.8027 25.1546 71.8027ZM25.1546 37.3989C16.0582 37.3989 8.65788 44.8006 8.65788 53.8987C8.65788 62.9967 16.0582 70.3985 25.1546 70.3985C34.2509 70.3985 41.6513 62.9967 41.6513 53.8987C41.6513 44.8006 34.2509 37.3989 25.1546 37.3989Z" fill="#0E0806" />
  <path d="M25.006 49.4916C27.0199 49.4916 28.6526 47.8586 28.6526 45.8443C28.6526 43.83 27.0199 42.197 25.006 42.197C22.992 42.197 21.3594 43.83 21.3594 45.8443C21.3594 47.8586 22.992 49.4916 25.006 49.4916Z" fill="#8AC6DD" />
  <path d="M25.0048 50.1933C22.6068 50.1933 20.6562 48.2423 20.6562 45.8439C20.6562 43.4455 22.6068 41.4945 25.0048 41.4945C27.4028 41.4945 29.3534 43.4455 29.3534 45.8439C29.3534 48.2419 27.4028 50.1933 25.0048 50.1933ZM25.0048 42.8983C23.3809 42.8983 22.0602 44.2197 22.0602 45.8434C22.0602 47.4672 23.3809 48.7886 25.0048 48.7886C26.6288 48.7886 27.9494 47.4672 27.9494 45.8434C27.9494 44.2197 26.6288 42.8983 25.0048 42.8983Z" fill="#0E0806" />
  <path d="M26.7291 65.3213C28.59 64.5498 29.4733 62.4155 28.7019 60.5543C27.9306 58.693 25.7967 57.8096 23.9359 58.5811C22.075 59.3526 21.1917 61.4869 21.963 63.3481C22.7344 65.2094 24.8682 66.0928 26.7291 65.3213Z" fill="#8AC6DD" />
  <path d="M25.3061 66.3021C22.9081 66.3021 20.957 64.3511 20.957 61.9527C20.957 59.5542 22.9081 57.6033 25.3061 57.6033C27.7041 57.6033 29.6546 59.5542 29.6546 61.9527C29.6546 64.3511 27.7041 66.3021 25.3061 66.3021ZM25.3061 59.0075C23.6821 59.0075 22.361 60.3289 22.361 61.9527C22.361 63.5764 23.6821 64.8978 25.3061 64.8978C26.93 64.8978 28.2507 63.5764 28.2507 61.9527C28.2507 60.3289 26.93 59.0075 25.3061 59.0075Z" fill="#0E0806" />
  <path d="M33.2091 57.3945C35.223 57.3945 36.8557 55.7616 36.8557 53.7473C36.8557 51.7329 35.223 50.1 33.2091 50.1C31.1951 50.1 29.5625 51.7329 29.5625 53.7473C29.5625 55.7616 31.1951 57.3945 33.2091 57.3945Z" fill="#8AC6DD" />
  <path d="M33.2079 58.0966C30.81 58.0966 28.8594 56.1456 28.8594 53.7467C28.8594 51.3488 30.81 49.3973 33.2079 49.3973C35.6059 49.3973 37.5565 51.3488 37.5565 53.7472C37.5565 56.1456 35.6059 58.0966 33.2079 58.0966ZM33.2079 50.802C31.584 50.802 30.2633 52.1234 30.2633 53.7472C30.2633 55.3714 31.584 56.6928 33.2079 56.6928C34.8319 56.6928 36.1525 55.3714 36.1525 53.7472C36.1525 52.1234 34.8319 50.802 33.2079 50.802Z" fill="#0E0806" />
  <path d="M17.546 57.7062C19.5458 57.4605 20.9679 55.6398 20.7222 53.6395C20.4765 51.6393 18.6561 50.217 16.6562 50.4627C14.6564 50.7085 13.2343 52.5292 13.48 54.5295C13.7257 56.5297 15.5461 57.952 17.546 57.7062Z" fill="#8AC6DD" />
  <path d="M17.0986 58.4007C14.7006 58.4007 12.75 56.4497 12.75 54.0508C12.75 51.6528 14.7006 49.7014 17.0986 49.7014C19.4966 49.7014 21.4476 51.6524 21.4476 54.0508C21.4476 56.4493 19.4966 58.4007 17.0986 58.4007ZM17.0986 51.1057C15.4746 51.1057 14.154 52.427 14.154 54.0508C14.154 55.675 15.4746 56.9964 17.0986 56.9964C18.7225 56.9964 20.0436 55.675 20.0436 54.0508C20.0436 52.427 18.7225 51.1057 17.0986 51.1057Z" fill="#0E0806" />
  <path d="M80.8471 71.1176C90.3457 71.1176 98.0458 63.416 98.0458 53.9157C98.0458 44.4153 90.3457 36.7137 80.8471 36.7137C71.3485 36.7137 63.6484 44.4153 63.6484 53.9157C63.6484 63.416 71.3485 71.1176 80.8471 71.1176Z" fill="#F16C7A" />
  <path d="M80.846 71.8203C70.9756 71.8203 62.9453 63.7885 62.9453 53.9162C62.9453 44.044 70.9756 36.0122 80.846 36.0122C90.7164 36.0122 98.7466 44.044 98.7466 53.9162C98.7466 63.7885 90.7164 71.8203 80.846 71.8203ZM80.846 37.4164C71.7501 37.4164 64.3493 44.8182 64.3493 53.9162C64.3493 63.0143 71.7501 70.416 80.846 70.416C89.9419 70.416 97.3427 63.0143 97.3427 53.9162C97.3427 44.8182 89.9419 37.4164 80.846 37.4164Z" fill="#0E0806" />
  <path d="M91.4796 50.5718H84.1864V43.2767H77.5007V50.5718H70.207V57.2583H77.5007V64.5533H84.1864V57.2583H91.4796V50.5718Z" fill="#9E0A37" />
  <path d="M84.1887 65.2555H77.503C77.1155 65.2555 76.801 64.9414 76.801 64.5534V57.961H70.2098C69.8223 57.961 69.5078 57.6469 69.5078 57.2589V50.5719C69.5078 50.1838 69.8223 49.8698 70.2098 49.8698H76.801V43.2773C76.801 42.8893 77.1155 42.5752 77.503 42.5752H84.1887C84.5762 42.5752 84.8907 42.8893 84.8907 43.2773V49.8698H91.4819C91.8694 49.8698 92.1839 50.1838 92.1839 50.5719V57.2589C92.1839 57.6469 91.8694 57.961 91.4819 57.961H84.8907V64.5534C84.8907 64.941 84.5762 65.2555 84.1887 65.2555ZM78.2045 63.8513H83.4862V57.2589C83.4862 56.8708 83.8007 56.5567 84.1882 56.5567H90.7794V51.274H84.1882C83.8007 51.274 83.4862 50.9599 83.4862 50.5719V43.9794H78.2045V50.5719C78.2045 50.9599 77.89 51.274 77.5025 51.274H70.9113V56.5567H77.5025C77.89 56.5567 78.2045 56.8708 78.2045 57.2589V63.8513Z" fill="#0E0806" />
  <path d="M80.8451 30.1439C79.6517 30.1439 78.4723 30.2329 77.3164 30.4014C84.8464 31.5154 91.2391 36.1775 94.7304 42.6323C97.2388 45.7122 98.7457 49.6441 98.7457 53.9177C98.7457 56.1551 98.3339 58.2989 97.5757 60.2789V93.2457C97.5757 98.2823 94.2764 102.565 89.7275 104.044C90.8413 104.405 92.0254 104.597 93.2468 104.597C99.5039 104.597 104.596 99.5039 104.596 93.2457V53.899C104.596 40.8021 93.9395 30.1439 80.8451 30.1439Z" fill="#AA873C" />
</svg>