<svg width="24" height="24" viewBox="0 0 64 64" fill="none" xmlns="http://www.w3.org/2000/svg">
<rect x="0.5" y="0.5" width="63" height="63" rx="7.5" fill="white"/>
<rect x="0.5" y="0.5" width="63" height="63" rx="7.5" stroke="#E05704"/>
<path d="M46.2946 35.2597H41.9033C41.5299 32.7914 39.435 30.8953 36.9146 30.8953C34.3941 30.8953 32.2992 32.7914 31.9258 35.2597H28.3087V30.8359C28.3087 30.3993 27.962 30.0453 27.5345 30.0453C25.6048 30.0453 24.0347 28.4418 24.0347 26.4711C24.0347 24.5005 25.6048 22.897 27.5345 22.897C27.962 22.897 28.3087 22.543 28.3087 22.1064V16.8916C28.3087 16.4551 27.962 16.1011 27.5345 16.1011H8.77414C8.34666 16.1011 8 16.4551 8 16.8916V55.2092C8 55.6462 8.34666 55.9998 8.77414 55.9998H27.5345H46.2946C46.722 55.9998 47.0687 55.6462 47.0687 55.2092V36.0502C47.0687 35.6133 46.722 35.2597 46.2946 35.2597ZM9.54828 17.6823H26.7604V21.3765C24.3431 21.7579 22.4864 23.8973 22.4864 26.4712C22.4864 29.0452 24.3431 31.1845 26.7604 31.5659V35.2598H22.4282C22.0007 35.2598 21.654 35.6134 21.654 36.0503C21.654 38.0214 20.0838 39.6249 18.1541 39.6249C16.2245 39.6249 14.6547 38.0214 14.6547 36.0503C14.6547 35.6134 14.308 35.2598 13.8805 35.2598H9.54828V17.6823ZM26.7604 49.9949V54.4187H9.54828V36.8408H13.1658C13.5392 39.3098 15.6341 41.2059 18.1541 41.2059C20.6747 41.2059 22.7695 39.3098 23.1429 36.8408H26.7604V41.2654C26.7604 41.7023 27.1071 42.056 27.5345 42.056C29.4642 42.056 31.034 43.6595 31.034 45.6297C31.034 47.6008 29.4642 49.2043 27.5345 49.2043C27.107 49.2043 26.7604 49.5579 26.7604 49.9949ZM45.5204 54.4187H28.3087V50.7252C30.726 50.343 32.5823 48.2037 32.5823 45.6297C32.5823 43.0558 30.726 40.9172 28.3087 40.5351V36.8408H32.6405C33.068 36.8408 33.4147 36.4872 33.4147 36.0502C33.4147 34.08 34.9849 32.4765 36.9146 32.4765C38.8442 32.4765 40.4144 34.08 40.4144 36.0502C40.4144 36.4872 40.7611 36.8408 41.1886 36.8408H45.5204V54.4187Z" fill="#E05704"/>
<path d="M55.505 14.8982L37.9836 8.05173C37.586 7.89733 37.1369 8.09996 36.9838 8.50765L35.4148 12.6955C34.3723 12.4643 33.2897 12.5774 32.2974 13.0299C31.0655 13.5915 30.122 14.6094 29.6405 15.8953C29.1589 17.1808 29.1964 18.5813 29.7459 19.8385C30.1894 20.8522 30.9226 21.6748 31.8495 22.2133L30.2801 26.4013C30.1274 26.8089 30.3273 27.266 30.7265 27.4223L35.4957 29.2864C35.6874 29.3608 35.9005 29.3547 36.088 29.2698C36.2755 29.1841 36.4221 29.0262 36.4955 28.83C36.8293 27.9384 37.4832 27.2331 38.3363 26.844C39.1898 26.4541 40.1405 26.4278 41.0145 26.7691C41.8872 27.11 42.5778 27.7778 42.9589 28.6498C43.3403 29.5218 43.3664 30.4927 43.0322 31.3836C42.9589 31.5793 42.9645 31.797 43.0484 31.9885C43.132 32.1799 43.2869 32.3297 43.4786 32.4046L48.2478 34.2679C48.6392 34.4237 49.0986 34.2109 49.2476 33.8124L55.9514 15.9192C56.1041 15.5112 55.9041 15.0541 55.505 14.8982ZM48.0781 32.5088L44.7003 31.189C44.926 30.1252 44.816 29.0188 44.3729 28.0055C43.823 26.7474 42.8265 25.7839 41.567 25.2922C39.214 24.3742 36.5934 25.3798 35.3811 27.5485L32.0029 26.2279L33.5516 22.0959C33.6249 21.9001 33.6193 21.6825 33.5354 21.491C33.4514 21.2996 33.2968 21.1498 33.1048 21.0749C32.232 20.734 31.541 20.0662 31.16 19.1942C30.7786 18.3222 30.7525 17.3513 31.0867 16.46C31.4205 15.5687 32.0744 14.863 32.9283 14.4739C33.7815 14.0844 34.7321 14.0574 35.6052 14.3991C35.7969 14.4732 36.01 14.4678 36.1975 14.3825C36.385 14.2972 36.5317 14.1389 36.605 13.9431L38.1533 9.81115L54.2284 16.0925L48.0781 32.5088Z" fill="#E05704"/>
</svg>
