<svg width="24" height="24" viewBox="0 0 37 37" fill="none" xmlns="http://www.w3.org/2000/svg">
  <g clip-path="url(#clip0_677_74667)">
    <path d="M35.2522 30.4844C34.5623 30.4844 34.0028 31.0439 34.0028 31.7339V32.9834H32.7533C32.0724 32.9834 31.5039 33.552 31.5039 34.2328C31.5039 34.9137 32.0724 35.4824 32.7533 35.4824H35.2523C35.9424 35.4824 36.5017 34.9228 36.5017 34.2328V31.7339C36.5016 31.0439 35.9422 30.4844 35.2522 30.4844Z" fill="#E05704" />
    <path d="M27.9209 32.9844H24.5893C23.9084 32.9844 23.3398 33.5529 23.3398 34.2338C23.3398 34.9147 23.9084 35.4832 24.5893 35.4832H27.9209C28.6018 35.4832 29.1703 34.9147 29.1703 34.2338C29.1703 33.5529 28.6019 32.9844 27.9209 32.9844Z" fill="#E05704" />
    <path d="M19.7561 32.9834H18.5066V31.7338C18.5066 31.0529 17.9382 30.4844 17.2572 30.4844C16.5763 30.4844 16.0078 31.0529 16.0078 31.7338V34.2329C16.0078 34.9229 16.5672 35.4823 17.2572 35.4823H19.7562C20.4371 35.4823 21.0056 34.9138 21.0056 34.2329C21.0056 33.5519 20.4371 32.9834 19.7561 32.9834Z" fill="#E05704" />
    <path d="M17.2572 16.4879C17.9473 16.4879 18.5066 15.9285 18.5066 15.2385V9.73973C18.5066 9.05881 17.9382 8.49023 17.2572 8.49023C16.5763 8.49023 16.0078 9.05881 16.0078 9.73973V15.2385C16.0078 15.9285 16.5672 16.4879 17.2572 16.4879Z" fill="#E05704" />
    <path d="M19.7562 0.492188H17.2572C16.5672 0.492188 16.0078 1.05163 16.0078 1.74168V4.24068C16.0078 4.9216 16.5763 5.49018 17.2572 5.49018C17.9382 5.49018 18.5066 4.9216 18.5066 4.24068V2.99118H19.7561C20.4371 2.99118 21.0056 2.42261 21.0056 1.74168C21.0056 1.06076 20.4371 0.492188 19.7562 0.492188Z" fill="#E05704" />
    <path d="M27.9209 0.492188H24.5893C23.9084 0.492188 23.3398 1.06076 23.3398 1.74168C23.3398 2.42261 23.9084 2.99118 24.5893 2.99118H27.9209C28.6018 2.99118 29.1703 2.42261 29.1703 1.74168C29.1704 1.06076 28.6019 0.492188 27.9209 0.492188Z" fill="#E05704" />
    <path d="M35.2523 0.492188H32.7533C32.0724 0.492188 31.5039 1.06076 31.5039 1.74168C31.5039 2.42261 32.0724 2.99118 32.7533 2.99118H34.0028V4.24068C34.0028 4.9216 34.5712 5.49018 35.2522 5.49018C35.9331 5.49018 36.5016 4.9216 36.5016 4.24068V1.74176C36.5017 1.05171 35.9424 0.492188 35.2523 0.492188Z" fill="#E05704" />
    <path d="M35.2493 19.4863C34.5594 19.4863 34 20.0457 34 20.7357V26.2346C34 26.9154 34.5684 27.484 35.2493 27.484C35.9303 27.484 36.4988 26.9154 36.4988 26.2346V20.7357C36.4988 20.0457 35.9394 19.4863 35.2493 19.4863Z" fill="#E05704" />
    <path d="M35.2493 8.49023C34.5594 8.49023 34 9.04968 34 9.73973V15.2385C34 15.9194 34.5684 16.4879 35.2493 16.4879C35.9303 16.4879 36.4988 15.9193 36.4988 15.2385V9.73973C36.4988 9.04968 35.9394 8.49023 35.2493 8.49023Z" fill="#E05704" />
    <path d="M17.2572 27.484C17.9382 27.484 18.5066 26.9154 18.5066 26.2346V20.7357C18.5066 20.0548 17.9382 19.4863 17.2572 19.4863C16.5763 19.4863 16.0078 20.0548 16.0078 20.7357V26.2346C16.0078 26.9153 16.5763 27.484 17.2572 27.484Z" fill="#E05704" />
    <path d="M7.78339 0.189392C7.64476 0.170972 7.50677 0.219326 7.41117 0.32167L6.82005 0.953525C6.5886 1.19807 6.37105 1.49066 6.13563 1.87249C5.65122 2.65814 5.13902 3.8623 5.44899 5.13228C5.5326 5.4756 5.67941 5.77168 5.82058 6.05743C5.84337 6.1034 5.86639 6.14938 5.88886 6.19503L11.7839 19.1017L9.3142 23.0347C9.1288 22.9659 8.93777 22.908 8.74324 22.8611C8.3954 22.7765 8.03691 22.7261 7.67835 22.7115C5.56682 22.6241 3.36279 23.7917 1.9649 25.7116C1.70661 26.062 1.3625 26.6136 0.980037 27.5385C0.730328 28.201 0.574786 28.8889 0.521272 29.5767C0.428137 30.7719 0.642037 31.9293 1.13931 32.9226C1.67803 34.0004 2.56499 34.8653 3.63656 35.3593C4.25817 35.645 4.92274 35.8042 5.61239 35.8326C5.61239 35.8326 5.61239 35.8326 5.61303 35.8326C7.67065 35.9175 9.82076 34.8352 11.2249 33.0077C11.2277 33.0048 11.23 33.0017 11.2323 32.9978L11.4455 32.7046C11.9708 31.9508 12.3645 31.0929 12.5877 30.2169C12.5894 30.2133 12.5899 30.2094 12.5909 30.2057C12.6605 29.8959 12.6805 29.795 12.6867 29.7555C13.2363 26.892 14.001 25.0648 14.648 23.9388L15.3326 22.8895V14.4137L8.10583 0.416949C8.04152 0.293484 7.92171 0.208448 7.78339 0.189392ZM7.96021 31.461C7.30859 32.0541 6.46887 32.4041 5.76913 32.3757C5.44597 32.3619 5.14799 32.2711 4.88463 32.1061C4.88391 32.1058 4.88344 32.1054 4.8832 32.105L4.88288 32.1046C4.26817 31.7197 3.92025 30.9413 3.95241 30.0234C3.98702 29.0303 4.43372 28.0206 5.17721 27.2545C5.71053 26.7055 6.60924 26.1319 7.53281 26.1702C7.75108 26.1792 7.9618 26.2229 8.1595 26.3001C9.07346 26.6591 9.38161 27.6884 9.36811 28.462C9.34874 29.5555 8.82232 30.6765 7.96021 31.461Z" fill="#E05704" />
  </g>

</svg>