<svg width="64" height="65" viewBox="0 0 64 65" fill="none" xmlns="http://www.w3.org/2000/svg">
<rect x="0.5" y="0.511719" width="63" height="63" rx="7.5" fill="white"/>
<rect x="0.5" y="0.511719" width="63" height="63" rx="7.5" stroke="#E05704"/>
<g clip-path="url(#clip0_3973_101325)">
<path d="M27.3032 42.2866H23.8516V43.9484H27.3032V42.2866Z" fill="#E05704"/>
<path d="M20.4047 42.2866H16.9531V43.9484H20.4047V42.2866Z" fill="#E05704"/>
<path d="M12.6696 41.4561H11.0078V43.9488H13.5005V42.287H12.6696V41.4561Z" fill="#E05704"/>
<path d="M12.6696 34.5776H11.0078V38.0143H12.6696V34.5776Z" fill="#E05704"/>
<path d="M12.6696 27.6992H11.0078V31.1375H12.6696V27.6992Z" fill="#E05704"/>
<path d="M12.6696 20.8208H11.0078V24.2608H12.6696V20.8208Z" fill="#E05704"/>
<path d="M12.6696 13.9429H11.0078V17.3812H12.6696V13.9429Z" fill="#E05704"/>
<path d="M11.0078 10.5044H12.6696V9.67354H13.5005V8.01172H11.0078V10.5044Z" fill="#E05704"/>
<path d="M34.2094 8.01172H30.7578V9.67354H34.2094V8.01172Z" fill="#E05704"/>
<path d="M27.3032 8.01172H23.8516V9.67354H27.3032V8.01172Z" fill="#E05704"/>
<path d="M20.4047 8.01172H16.9531V9.67354H20.4047V8.01172Z" fill="#E05704"/>
<path d="M38.495 10.5044H40.1568V8.01172H37.6641V9.67354H38.495V10.5044Z" fill="#E05704"/>
<path d="M40.154 27.6978H38.4922V31.1377H40.154V27.6978Z" fill="#E05704"/>
<path d="M40.154 20.8208H38.4922V24.2591H40.154V20.8208Z" fill="#E05704"/>
<path d="M40.154 13.9429H38.4922V17.3812H40.154V13.9429Z" fill="#E05704"/>
<path d="M41.8175 35.4185L47.6222 26.2453C48.9052 24.2178 46.4988 21.8032 46.4988 21.8032L39.8516 32.3109L41.8175 35.4185Z" fill="#E05704"/>
<path d="M52.6167 53.8844L50.9998 52.2657C51.5814 51.3617 51.9287 50.2915 51.9287 49.1399C51.9287 45.9309 49.3197 43.3235 46.1123 43.3235C45.2166 43.3235 44.3791 43.5445 43.6196 43.9101V42.0788C43.6196 40.859 43.1277 39.1573 42.4746 38.122L32.1464 21.8013C32.1464 21.8013 29.7401 24.2159 31.023 26.2433L37.3562 36.2491L36.1713 38.122C35.5166 39.1573 35.0263 40.8574 35.0263 42.0788V43.9101C34.2669 43.5445 33.4293 43.3235 32.5336 43.3235C29.3263 43.3235 26.7172 45.9309 26.7172 49.1399C26.7172 50.2898 27.0646 51.3617 27.6462 52.2657L26.0292 53.8844C25.5423 54.3713 25.5423 55.1606 26.0292 55.6475C26.2719 55.8902 26.5909 56.0131 26.91 56.0131C27.2291 56.0131 27.5482 55.8918 27.7908 55.6475L29.4077 54.0306C30.3118 54.6122 31.382 54.9596 32.5336 54.9596C35.7409 54.9596 38.35 52.3505 38.35 49.1432V42.0821C38.35 41.4872 38.6624 40.4087 38.9815 39.9018L39.3255 39.3601L39.6695 39.9018C39.9885 40.4087 40.301 41.4855 40.301 42.0821V49.1432C40.301 52.3505 42.91 54.9596 46.1173 54.9596C47.269 54.9596 48.3375 54.6122 49.2432 54.0306L50.8602 55.6475C51.1028 55.8902 51.4219 56.0131 51.7409 56.0131C52.06 56.0131 52.3791 55.8918 52.6217 55.6475C53.1036 55.159 53.1036 54.3696 52.6167 53.8844ZM32.527 51.6343C31.1526 51.6343 30.0342 50.5142 30.0342 49.1415C30.0342 47.7672 31.1526 46.6488 32.527 46.6488C33.9013 46.6488 35.0197 47.7672 35.0197 49.1415C35.0214 50.5142 33.9013 51.6343 32.527 51.6343ZM39.3205 36.9587C38.93 36.9587 38.6109 36.643 38.6109 36.2491C38.6109 35.8586 38.9283 35.5412 39.3205 35.5412C39.7127 35.5412 40.0284 35.8569 40.0284 36.2491C40.0268 36.643 39.711 36.9587 39.3205 36.9587ZM46.1123 51.6343C44.738 51.6343 43.6196 50.5142 43.6196 49.1415C43.6196 47.7672 44.738 46.6488 46.1123 46.6488C47.4867 46.6488 48.6051 47.7672 48.6051 49.1415C48.6051 50.5142 47.4867 51.6343 46.1123 51.6343Z" fill="#E05704"/>
</g>
<defs>
<clipPath id="clip0_3973_101325">
<rect width="48" height="48" fill="white" transform="translate(8 8.01172)"/>
</clipPath>
</defs>
</svg>
