<svg width="24" height="24" viewBox="0 0 64 64" fill="none" xmlns="http://www.w3.org/2000/svg">
<rect x="0.5" y="0.5" width="63" height="63" rx="7.5" fill="white"/>
<rect x="0.5" y="0.5" width="63" height="63" rx="7.5" stroke="#E05704"/>
<path d="M32.9538 28.7677C32.8552 28.7563 32.7553 28.7645 32.6599 28.7919C32.5645 28.8194 32.4755 28.8655 32.3981 28.9276C32.3206 28.9896 32.2563 29.0665 32.2088 29.1536C32.1613 29.2408 32.1315 29.3365 32.1213 29.4352L32.0013 30.5827C31.9854 30.7224 31.9306 30.8549 31.8431 30.965C31.7555 31.075 31.6388 31.1583 31.5063 31.2052L26.5113 32.9452C26.3574 32.9987 26.2252 33.1008 26.1345 33.2361C26.0439 33.3714 25.9997 33.5326 26.0088 33.6952V40.3927C26.0082 40.4914 26.0271 40.5893 26.0644 40.6806C26.1018 40.772 26.1568 40.8551 26.2263 40.9252L30.2913 45.0052C30.42 45.1386 30.4949 45.3149 30.5013 45.5002V52.2502C30.5013 52.4491 30.4222 52.6399 30.2816 52.7805C30.1409 52.9212 29.9502 53.0002 29.7513 53.0002C29.5524 53.0002 29.3616 52.9212 29.2209 52.7805C29.0803 52.6399 29.0013 52.4491 29.0013 52.2502V46.1227C29.0018 46.024 28.9829 45.9262 28.9456 45.8348C28.9083 45.7434 28.8533 45.6603 28.7838 45.5902L24.4413 41.2177C24.3712 41.1482 24.2881 41.0932 24.1967 41.0559C24.1053 41.0186 24.0075 40.9996 23.9088 41.0002H22.2513C22.0524 41.0002 21.8616 41.0792 21.7209 41.2199C21.5803 41.3605 21.5013 41.5513 21.5013 41.7502V47.7502C21.5006 47.8737 21.4695 47.9952 21.4106 48.1038C21.3517 48.2124 21.2669 48.3048 21.1638 48.3727L14.4138 52.8727C14.2484 52.9813 14.0469 53.0201 13.853 52.9808C13.6592 52.9414 13.4887 52.8271 13.3788 52.6627C13.2702 52.4974 13.2314 52.2958 13.2707 52.102C13.31 51.9081 13.4244 51.7377 13.5888 51.6277L19.6638 47.5702C19.7669 47.5023 19.8517 47.4099 19.9106 47.3013C19.9695 47.1927 20.0006 47.0712 20.0013 46.9477V41.7502C20.0013 41.5513 19.9222 41.3605 19.7816 41.2199C19.6409 41.0792 19.4502 41.0002 19.2513 41.0002C19.0524 41.0002 18.8616 41.0792 18.7209 41.2199C18.5803 41.3605 18.5013 41.5513 18.5013 41.7502V46.5427L12.7563 50.3752C12.3534 50.6424 12.0473 51.0323 11.8833 51.4872C11.7194 51.942 11.7063 52.4375 11.846 52.9003C11.9857 53.3632 12.2707 53.7687 12.6589 54.0569C13.0471 54.345 13.5178 54.5005 14.0013 54.5002C14.4441 54.5005 14.8772 54.37 15.2463 54.1252L21.9963 49.6252C22.3054 49.4198 22.559 49.1411 22.7344 48.814C22.9097 48.4868 23.0014 48.1214 23.0013 47.7502V42.5002H23.5938L27.5013 46.4302V52.2502C27.5013 52.8469 27.7383 53.4192 28.1603 53.8412C28.5822 54.2631 29.1545 54.5002 29.7513 54.5002C30.348 54.5002 30.9203 54.2631 31.3423 53.8412C31.7642 53.4192 32.0013 52.8469 32.0013 52.2502V45.5002C32.0027 44.9047 31.7681 44.333 31.3488 43.9102L27.5013 40.0477V34.1902L32.0013 32.6227C32.4028 32.4837 32.7568 32.2338 33.0223 31.902C33.2878 31.5702 33.4538 31.17 33.5013 30.7477L33.6288 29.6002C33.6402 29.501 33.6317 29.4006 33.6038 29.3048C33.5759 29.2089 33.5291 29.1196 33.4663 29.0421C33.4034 28.9645 33.3257 28.9003 33.2377 28.8532C33.1497 28.8061 33.0531 28.777 32.9538 28.7677Z" fill="#E05704"/>
<path d="M17.658 37.9998L18.498 37.3248V38.7498C18.498 38.9488 18.5771 39.1395 18.7177 39.2802C18.8584 39.4208 19.0491 39.4998 19.248 39.4998C19.447 39.4998 19.6377 39.4208 19.7784 39.2802C19.919 39.1395 19.998 38.9488 19.998 38.7498V35.7498C19.9976 35.6085 19.9573 35.4701 19.8817 35.3507C19.806 35.2312 19.6982 35.1356 19.5705 35.0748C19.4494 35.0211 19.3162 35.0004 19.1844 35.0149C19.0527 35.0294 18.9271 35.0785 18.8205 35.1573L16.7655 36.7923C16.6853 36.8568 16.5925 36.9041 16.4932 36.9312C16.3938 36.9583 16.29 36.9646 16.188 36.9498L11.688 36.2673H11.568C11.3865 36.2243 11.2275 36.1152 11.1221 35.9613C11.0167 35.8073 10.9725 35.6196 10.998 35.4348C11.0297 35.2391 11.1375 35.0638 11.298 34.9473C11.4569 34.8283 11.6565 34.777 11.853 34.8048L15.7155 35.3898C15.8169 35.4057 15.9205 35.4005 16.0199 35.3747C16.1192 35.3489 16.2122 35.303 16.293 35.2398L20.148 32.1723C20.3404 32.091 20.5418 32.0331 20.748 31.9998H21.498C21.697 31.9998 21.8877 31.9208 22.0284 31.7802C22.169 31.6395 22.248 31.4488 22.248 31.2498V30.9348C22.2486 30.7885 22.2062 30.6451 22.1263 30.5225C22.0463 30.3999 21.9322 30.3034 21.798 30.2448C21.1664 29.9692 20.6489 29.4844 20.3326 28.872C20.0163 28.2596 19.9205 27.557 20.0613 26.8824C20.2021 26.2077 20.571 25.6021 21.1058 25.1673C21.6406 24.7326 22.3088 24.4953 22.998 24.4953C23.6873 24.4953 24.3555 24.7326 24.8903 25.1673C25.4251 25.6021 25.7939 26.2077 25.9348 26.8824C26.0756 27.557 25.9798 28.2596 25.6635 28.872C25.3472 29.4844 24.8297 29.9692 24.198 30.2448C24.0639 30.3034 23.9498 30.3999 23.8698 30.5225C23.7899 30.6451 23.7475 30.7885 23.748 30.9348V31.2498C23.748 31.4488 23.8271 31.6395 23.9677 31.7802C24.1084 31.9208 24.2991 31.9998 24.498 31.9998H24.963C25.1561 31.9991 25.3415 31.9238 25.4805 31.7898C25.5571 31.7136 25.6492 31.6547 25.7505 31.6173L30.108 30.1173C30.242 30.0716 30.3603 29.9888 30.4492 29.8787C30.5381 29.7685 30.5941 29.6354 30.6105 29.4948L31.248 23.6673C31.2707 23.4707 31.3701 23.291 31.5246 23.1674C31.6791 23.0438 31.8763 22.9863 32.073 23.0073C32.1711 23.0177 32.2701 23.0087 32.3647 22.9808C32.4592 22.9529 32.5473 22.9066 32.6239 22.8446C32.7005 22.7826 32.7642 22.7061 32.8112 22.6195C32.8582 22.5329 32.8878 22.4379 32.898 22.3398C32.9191 22.1431 32.8616 21.9459 32.738 21.7914C32.6143 21.6369 32.4346 21.5375 32.238 21.5148C31.944 21.4815 31.6462 21.5064 31.3618 21.5883C31.0774 21.6702 30.812 21.8074 30.5807 21.992C30.3494 22.1766 30.1568 22.405 30.0139 22.6642C29.871 22.9234 29.7807 23.2082 29.748 23.5023L29.1555 28.8423L26.958 29.5923C27.3493 28.8557 27.5281 28.0248 27.4744 27.1924C27.4208 26.36 27.1369 25.5589 26.6544 24.8785C26.1718 24.1981 25.5097 23.6652 24.7419 23.3393C23.9741 23.0134 23.1308 22.9074 22.3062 23.033C21.4816 23.1586 20.7081 23.5109 20.0721 24.0506C19.4361 24.5903 18.9627 25.2961 18.7046 26.0893C18.4465 26.8825 18.4139 27.7318 18.6106 28.5424C18.8072 29.353 19.2252 30.093 19.818 30.6798L19.4505 30.8223L19.2855 30.9198L15.6105 33.8448L12.0705 33.3123C11.5168 33.2366 10.9547 33.3697 10.4936 33.6856C10.0326 34.0016 9.70569 34.4778 9.57653 35.0216C9.44737 35.5654 9.52522 36.1378 9.79493 36.6273C10.0646 37.1169 10.5069 37.4885 11.0355 37.6698C11.1534 37.7078 11.2737 37.7378 11.3955 37.7598L15.8955 38.4423C16.2039 38.4952 16.52 38.4831 16.8235 38.4069C17.1269 38.3307 17.4112 38.1921 17.658 37.9998Z" fill="#E05704"/>
<path d="M53.7082 16.0323C53.4607 15.8151 53.1686 15.6548 52.8523 15.5627C52.5361 15.4707 52.2036 15.4493 51.8782 15.4998C51.3404 15.6043 50.857 15.8959 50.5137 16.3229C50.1705 16.7499 49.9896 17.2846 50.0032 17.8323V27.4998H48.1057C48.5533 26.9945 48.8826 26.3956 49.0694 25.7469C49.2562 25.0981 49.296 24.4159 49.1857 23.7498C49.0306 22.8708 48.6177 22.0578 47.9994 21.4141C47.381 20.7704 46.5852 20.3251 45.7132 20.1348C45.0529 19.9954 44.3699 20.0044 43.7135 20.1614C43.0572 20.3183 42.4439 20.6192 41.9182 21.0423C41.1084 21.6994 40.552 22.6174 40.3441 23.6393C40.1362 24.6612 40.2896 25.7235 40.7782 26.6448L38.5807 25.8948L37.9957 20.6448C37.9533 20.0733 37.7006 19.5377 37.2864 19.1416C36.8723 18.7454 36.326 18.5168 35.7532 18.4998C35.4386 18.5015 35.128 18.5691 34.8412 18.6983C34.5544 18.8275 34.2979 19.0154 34.0882 19.2498C33.8728 19.4833 33.7094 19.7598 33.6086 20.0609C33.5077 20.3621 33.4718 20.6813 33.5032 20.9973L34.2532 27.7473C34.3006 28.1696 34.4667 28.5698 34.7322 28.9017C34.9976 29.2335 35.3516 29.4833 35.7532 29.6223L40.2532 31.1898V37.0473L36.4057 40.9098C35.9864 41.3326 35.7517 41.9044 35.7532 42.4998V49.1673C35.7396 49.715 35.9205 50.2498 36.2637 50.6768C36.607 51.1038 37.0904 51.3954 37.6282 51.4998C37.9534 51.5548 38.2868 51.5377 38.6047 51.4495C38.9226 51.3613 39.2172 51.2044 39.4677 50.9897C39.7181 50.775 39.9183 50.5078 40.0541 50.2072C40.1898 49.9065 40.2578 49.5797 40.2532 49.2498V43.4298L44.1607 39.4998H44.7532V52.1673C44.7396 52.715 44.9205 53.2498 45.2637 53.6768C45.607 54.1038 46.0904 54.3954 46.6282 54.4998C46.7529 54.511 46.8784 54.511 47.0032 54.4998C47.5999 54.4998 48.1722 54.2628 48.5942 53.8408C49.0161 53.4189 49.2532 52.8466 49.2532 52.2498V34.2498C49.2532 34.0509 49.1742 33.8602 49.0335 33.7195C48.8929 33.5788 48.7021 33.4998 48.5032 33.4998C48.3043 33.4998 48.1135 33.5788 47.9728 33.7195C47.8322 33.8602 47.7532 34.0509 47.7532 34.2498V52.2498C47.7548 52.36 47.7321 52.4692 47.6867 52.5697C47.6413 52.6701 47.5743 52.7593 47.4905 52.8309C47.4068 52.9025 47.3082 52.9548 47.202 52.984C47.0957 53.0132 46.9843 53.0186 46.8757 52.9998C46.6928 52.9551 46.5309 52.8485 46.4175 52.6982C46.3041 52.5479 46.246 52.363 46.2532 52.1748V38.7498C46.2532 38.5509 46.1742 38.3602 46.0335 38.2195C45.8929 38.0788 45.7021 37.9998 45.5032 37.9998H43.8457C43.747 37.9993 43.6491 38.0182 43.5577 38.0555C43.4664 38.0928 43.3833 38.1478 43.3132 38.2173L38.9707 42.5898C38.9012 42.6599 38.8462 42.743 38.8089 42.8344C38.7715 42.9258 38.7526 43.0236 38.7532 43.1223V49.2498C38.7548 49.36 38.7321 49.4692 38.6867 49.5697C38.6413 49.6701 38.5743 49.7593 38.4905 49.8309C38.4068 49.9025 38.3082 49.9548 38.202 49.984C38.0957 50.0132 37.9843 50.0186 37.8757 49.9998C37.6928 49.9551 37.5309 49.8485 37.4175 49.6982C37.3041 49.5479 37.246 49.363 37.2532 49.1748V42.4998C37.2526 42.4011 37.2715 42.3033 37.3089 42.2119C37.3462 42.1205 37.4012 42.0374 37.4707 41.9673L41.5357 37.8873C41.6052 37.8173 41.6602 37.7341 41.6975 37.6428C41.7348 37.5514 41.7537 37.4535 41.7532 37.3548V30.6573C41.7541 30.501 41.7062 30.3483 41.6161 30.2206C41.526 30.0928 41.3982 29.9964 41.2507 29.9448L36.2557 28.2048C36.1231 28.1579 36.0064 28.0747 35.9189 27.9646C35.8313 27.8545 35.7765 27.7221 35.7607 27.5823L35.0107 20.8323C34.9989 20.7289 35.0089 20.6241 35.0399 20.5246C35.0709 20.4252 35.1222 20.3333 35.1907 20.2548C35.261 20.1748 35.3475 20.1107 35.4445 20.0667C35.5415 20.0228 35.6467 20 35.7532 19.9998C35.9459 20.0181 36.1262 20.103 36.2631 20.2399C36.4 20.3768 36.4849 20.5571 36.5032 20.7498L37.1332 26.4798C37.1496 26.6204 37.2056 26.7535 37.2945 26.8637C37.3834 26.9738 37.5017 27.0566 37.6357 27.1023L41.9932 28.6023C42.0946 28.6397 42.1867 28.6986 42.2632 28.7748C42.4022 28.9088 42.5876 28.9841 42.7807 28.9848H43.2532C43.4521 28.9848 43.6429 28.9058 43.7835 28.7652C43.9242 28.6245 44.0032 28.4337 44.0032 28.2348V27.9198C44.0037 27.7735 43.9614 27.6301 43.8814 27.5075C43.8014 27.3849 43.6873 27.2884 43.5532 27.2298C42.9215 26.9541 42.404 26.4694 42.0877 25.857C41.7714 25.2446 41.6756 24.542 41.8165 23.8674C41.9573 23.1927 42.3261 22.5871 42.8609 22.1523C43.3958 21.7176 44.064 21.4803 44.7532 21.4803C45.4424 21.4803 46.1106 21.7176 46.6454 22.1523C47.1803 22.5871 47.5491 23.1927 47.6899 23.8674C47.8307 24.542 47.7349 25.2446 47.4186 25.857C47.1024 26.4694 46.5849 26.9541 45.9532 27.2298C45.819 27.2884 45.7049 27.3849 45.625 27.5075C45.545 27.6301 45.5027 27.7735 45.5032 27.9198V28.2498C45.5032 28.4487 45.5822 28.6395 45.7228 28.7802C45.8635 28.9208 46.0543 28.9998 46.2532 28.9998H50.0032C50.401 28.9998 50.7825 28.8418 51.0638 28.5605C51.3451 28.2792 51.5032 27.8977 51.5032 27.4998V17.8323C51.4957 17.6452 51.5526 17.4611 51.6646 17.3109C51.7765 17.1608 51.9367 17.0536 52.1182 17.0073C52.2282 16.9879 52.3412 16.9933 52.449 17.0231C52.5567 17.053 52.6563 17.1065 52.7407 17.1798C52.823 17.2502 52.8891 17.3377 52.9344 17.4361C52.9797 17.5345 53.0032 17.6415 53.0032 17.7498V27.4998C53.0032 28.2955 52.6871 29.0585 52.1245 29.6212C51.5619 30.1838 50.7988 30.4998 50.0032 30.4998H48.5032C48.3043 30.4998 48.1135 30.5788 47.9728 30.7195C47.8322 30.8602 47.7532 31.0509 47.7532 31.2498C47.7532 31.4487 47.8322 31.6395 47.9728 31.7802C48.1135 31.9208 48.3043 31.9998 48.5032 31.9998H50.0032C51.1967 31.9998 52.3412 31.5257 53.1852 30.6818C54.0291 29.8379 54.5032 28.6933 54.5032 27.4998V17.7498C54.5034 17.423 54.4323 17.1 54.295 16.8034C54.1577 16.5068 53.9575 16.2437 53.7082 16.0323Z" fill="#E05704"/>
<path d="M11.7518 18.5C12.3486 18.5 12.9209 18.2629 13.3428 17.841C13.7648 17.419 14.0018 16.8467 14.0018 16.25V14H18.5018V15.635C18.0513 15.4757 17.5617 15.464 17.104 15.6016C16.6464 15.7392 16.2444 16.0189 15.9564 16.4003C15.6684 16.7816 15.5093 17.2448 15.5021 17.7226C15.4949 18.2004 15.6401 18.6681 15.9166 19.0579C16.193 19.4478 16.5864 19.7394 17.0397 19.8907C17.4931 20.0419 17.9828 20.0449 18.4379 19.8992C18.893 19.7535 19.2899 19.4666 19.5711 19.0802C19.8523 18.6938 20.0032 18.2279 20.0018 17.75V10.25C20.0018 10.0511 19.9228 9.86032 19.7822 9.71967C19.6415 9.57902 19.4507 9.5 19.2518 9.5H13.2518C13.0529 9.5 12.8622 9.57902 12.7215 9.71967C12.5808 9.86032 12.5018 10.0511 12.5018 10.25V14.135C12.1924 14.0227 11.8621 13.9797 11.5342 14.009C11.2063 14.0383 10.8888 14.1392 10.6042 14.3045C10.3195 14.4699 10.0746 14.6957 9.88674 14.966C9.69888 15.2364 9.57262 15.5446 9.51687 15.8691C9.46112 16.1935 9.47725 16.5262 9.56411 16.8437C9.65097 17.1613 9.80645 17.4559 10.0196 17.7068C10.2327 17.9577 10.4983 18.1587 10.7976 18.2958C11.0969 18.4328 11.4226 18.5026 11.7518 18.5ZM17.7518 18.5C17.6035 18.5 17.4585 18.456 17.3352 18.3736C17.2118 18.2912 17.1157 18.1741 17.0589 18.037C17.0022 17.9 16.9873 17.7492 17.0162 17.6037C17.0452 17.4582 17.1166 17.3246 17.2215 17.2197C17.3264 17.1148 17.46 17.0433 17.6055 17.0144C17.751 16.9855 17.9018 17.0003 18.0388 17.0571C18.1759 17.1139 18.293 17.21 18.3754 17.3333C18.4578 17.4567 18.5018 17.6017 18.5018 17.75C18.5018 17.9489 18.4228 18.1397 18.2822 18.2803C18.1415 18.421 17.9507 18.5 17.7518 18.5ZM14.0018 11H18.5018V12.5H14.0018V11ZM11.7518 15.5C11.9002 15.5 12.0452 15.544 12.1685 15.6264C12.2918 15.7088 12.388 15.8259 12.4447 15.963C12.5015 16.1 12.5164 16.2508 12.4874 16.3963C12.4585 16.5418 12.3871 16.6754 12.2822 16.7803C12.1773 16.8852 12.0436 16.9566 11.8981 16.9856C11.7527 17.0145 11.6019 16.9997 11.4648 16.9429C11.3278 16.8861 11.2106 16.79 11.1282 16.6667C11.0458 16.5433 11.0018 16.3983 11.0018 16.25C11.0018 16.0511 11.0808 15.8603 11.2215 15.7197C11.3622 15.579 11.5529 15.5 11.7518 15.5Z" fill="#E05704"/>
<path d="M38.9507 17.66C39.3096 17.8949 39.7292 18.02 40.1582 18.02C40.5347 18.0175 40.9049 17.9234 41.2368 17.7456C41.5687 17.5679 41.8524 17.312 42.0632 17L44.0732 13.835L47.2382 15.8525C47.3589 15.9305 47.4994 15.9721 47.6432 15.9725C47.7686 15.9723 47.8921 15.9406 48.0021 15.8803C48.1122 15.8201 48.2054 15.7331 48.2732 15.6275L49.8857 13.0925C49.9457 13.0075 49.9873 12.9109 50.008 12.8089C50.0287 12.7069 50.0279 12.6017 50.0057 12.5C49.9593 12.3065 49.8414 12.1377 49.6757 12.0275L45.8657 9.62002C45.6985 9.51288 45.4957 9.47641 45.3016 9.51859C45.1076 9.56076 44.9383 9.67815 44.8307 9.84502L43.2557 12.3725L41.9357 14.39C41.7802 14.1857 41.5897 14.0105 41.3732 13.8725C40.8715 13.5809 40.2767 13.4943 39.7127 13.6308C39.1488 13.7674 38.6594 14.1165 38.3467 14.6053C38.0341 15.0941 37.9224 15.6848 38.0349 16.254C38.1474 16.8232 38.4755 17.3269 38.9507 17.66ZM45.7007 11.285L48.2282 12.8975L47.4107 14.165L44.8832 12.5525L45.7007 11.285ZM39.5057 15.365C39.5741 15.2583 39.6685 15.1707 39.78 15.1104C39.8914 15.0501 40.0164 15.019 40.1432 15.02C40.2857 15.0212 40.4254 15.06 40.5482 15.1325C40.7139 15.2412 40.8298 15.4111 40.8707 15.605C40.9136 15.798 40.8785 16.0002 40.7732 16.1675C40.7205 16.2508 40.6519 16.3228 40.5714 16.3795C40.4908 16.4363 40.3999 16.4766 40.3038 16.4982C40.2077 16.5198 40.1083 16.5222 40.0112 16.5054C39.9142 16.4885 39.8214 16.4527 39.7382 16.4C39.6549 16.3473 39.5829 16.2788 39.5261 16.1982C39.4694 16.1177 39.4291 16.0268 39.4075 15.9307C39.3859 15.8346 39.3835 15.7351 39.4003 15.6381C39.4172 15.541 39.4529 15.4482 39.5057 15.365Z" fill="#E05704"/>
<path d="M24.5029 16.4977C24.6121 16.9979 24.8886 17.4459 25.2868 17.7677C25.6849 18.0895 26.1809 18.2659 26.6929 18.2677C26.8566 18.2651 27.0198 18.2475 27.1804 18.2152C27.7619 18.0872 28.2689 17.7339 28.5904 17.2327L31.0129 13.4377C31.12 13.2706 31.1565 13.0677 31.1143 12.8737C31.0721 12.6797 30.9547 12.5103 30.7879 12.4027C30.6207 12.2956 30.4179 12.2591 30.2239 12.3013C30.0299 12.3435 29.8605 12.4609 29.7529 12.6277L28.4629 14.6377C28.3099 14.4338 28.122 14.2586 27.9079 14.1202C27.4055 13.7995 26.7963 13.6913 26.2142 13.8192C25.6321 13.9472 25.1245 14.3009 24.8029 14.8027C24.6406 15.0502 24.5303 15.328 24.4787 15.6194C24.4271 15.9108 24.4354 16.2096 24.5029 16.4977ZM26.0629 15.6127C26.116 15.5293 26.1851 15.4572 26.2662 15.4005C26.3473 15.3439 26.4387 15.3039 26.5354 15.2827C26.5901 15.2749 26.6457 15.2749 26.7004 15.2827C26.8337 15.2838 26.9644 15.3204 27.0789 15.3888C27.1934 15.4572 27.2876 15.5549 27.3518 15.6718C27.416 15.7887 27.4479 15.9206 27.4441 16.0539C27.4403 16.1872 27.4011 16.3171 27.3304 16.4302C27.2773 16.5137 27.2082 16.5858 27.1271 16.6424C27.046 16.6991 26.9545 16.7391 26.8579 16.7602C26.7134 16.7919 26.5629 16.7801 26.4251 16.7264C26.2873 16.6727 26.1685 16.5795 26.0835 16.4585C25.9986 16.3375 25.9513 16.1941 25.9476 16.0462C25.9439 15.8984 25.984 15.7528 26.0629 15.6277V15.6127Z" fill="#E05704"/>
<path d="M35 15.5C35.1989 15.5 35.3897 15.421 35.5303 15.2803C35.671 15.1397 35.75 14.9489 35.75 14.75V11.75C35.75 11.5511 35.671 11.3603 35.5303 11.2197C35.3897 11.079 35.1989 11 35 11C34.8011 11 34.6103 11.079 34.4697 11.2197C34.329 11.3603 34.25 11.5511 34.25 11.75V14.75C34.25 14.9489 34.329 15.1397 34.4697 15.2803C34.6103 15.421 34.8011 15.5 35 15.5Z" fill="#E05704"/>
<path d="M11.75 24.5V26.75C11.75 26.9489 11.829 27.1397 11.9697 27.2803C12.1103 27.421 12.3011 27.5 12.5 27.5C12.6989 27.5 12.8897 27.421 13.0303 27.2803C13.171 27.1397 13.25 26.9489 13.25 26.75V24.5C13.25 24.3011 13.171 24.1103 13.0303 23.9697C12.8897 23.829 12.6989 23.75 12.5 23.75C12.3011 23.75 12.1103 23.829 11.9697 23.9697C11.829 24.1103 11.75 24.3011 11.75 24.5Z" fill="#E05704"/>
<path d="M27.5 22.25C27.9142 22.25 28.25 21.9142 28.25 21.5C28.25 21.0858 27.9142 20.75 27.5 20.75C27.0858 20.75 26.75 21.0858 26.75 21.5C26.75 21.9142 27.0858 22.25 27.5 22.25Z" fill="#E05704"/>
<path d="M23.75 11.75C24.1642 11.75 24.5 11.4142 24.5 11C24.5 10.5858 24.1642 10.25 23.75 10.25C23.3358 10.25 23 10.5858 23 11C23 11.4142 23.3358 11.75 23.75 11.75Z" fill="#E05704"/>
</svg>
