<svg width="24" height="24" viewBox="0 0 65 64" fill="none" xmlns="http://www.w3.org/2000/svg">
<rect x="0.835938" y="0.5" width="63" height="63" rx="7.5" fill="white"/>
<rect x="0.835938" y="0.5" width="63" height="63" rx="7.5" stroke="#E05704"/>
<path d="M49.5063 13.7635C49.5047 13.7635 49.5032 13.7635 49.5015 13.7635C47.8247 13.7635 46.4592 15.1263 46.4565 16.8037L46.4496 21.2275L34.0622 8.84019C32.9419 7.71994 31.1191 7.71994 29.9989 8.84019C29.6085 9.23068 29.3545 9.70654 29.2363 10.2082L29.0153 9.98705C28.4725 9.44442 27.7511 9.14562 26.9836 9.14562C26.216 9.14562 25.4946 9.44442 24.9518 9.98715C23.8316 11.1074 23.8316 12.9303 24.9519 14.0507L25.6357 14.7345C25.1227 14.8557 24.652 15.1162 24.27 15.4982C23.7273 16.0408 23.4284 16.7624 23.4284 17.5299C23.4284 18.2974 23.7273 19.019 24.2699 19.5616L25.6774 20.9691C25.1754 21.0873 24.699 21.3411 24.3081 21.7316C23.7656 22.2742 23.4667 22.9958 23.4667 23.7633C23.4667 24.5308 23.7656 25.2524 24.3081 25.795L25.2431 26.73C25.1999 26.9279 25.1764 27.1331 25.1764 27.3437V29.3331C24.7381 29.0621 24.2221 28.9052 23.67 28.9052C22.0858 28.9052 20.7969 30.1941 20.7969 31.7784V46.6964C20.7969 49.9812 21.9362 53.1954 24.005 55.747C24.14 55.9135 24.3372 55.9999 24.5362 55.9999C24.6874 55.9999 24.8397 55.95 24.9663 55.8474C25.2594 55.6096 25.3044 55.1793 25.0667 54.8861C23.1947 52.5773 22.1638 49.6688 22.1638 46.6963V31.7784C22.1638 30.9479 22.8395 30.272 23.6701 30.272C24.5007 30.272 25.1765 30.9477 25.1765 31.7784V41.3628C25.1765 41.7403 25.4825 42.0462 25.8599 42.0462C26.2374 42.0462 26.5433 41.7403 26.5433 41.3628V27.3438C26.5433 26.5132 27.2192 25.8374 28.0498 25.8374C28.8804 25.8374 29.5562 26.5131 29.5562 27.3438V40.4462C29.5562 40.8237 29.8622 41.1296 30.2396 41.1296C30.6171 41.1296 30.923 40.8237 30.923 40.4462V23.9291C30.923 23.0985 31.5988 22.4227 32.4294 22.4227C33.26 22.4227 33.9358 23.0985 33.9358 23.9291V37.2888V41.1591C33.9358 41.5366 34.2417 41.8426 34.6192 41.8426C34.9966 41.8426 35.3026 41.5366 35.3026 41.1591V37.2888V26.6869C35.3026 25.8563 35.9784 25.1805 36.809 25.1805C37.6396 25.1805 38.3154 25.8563 38.3154 26.6869C38.3154 26.6869 38.3169 45.9027 38.3198 45.9284C38.3366 46.0764 38.4015 46.22 38.5149 46.3338C38.7813 46.601 39.2141 46.6018 39.4813 46.3353L43.7802 42.05C44.4355 41.3967 45.5003 41.3984 46.1535 42.0538C46.8064 42.7087 46.8051 43.7731 46.1506 44.4263L35.8941 54.6635C35.6269 54.9301 35.6265 55.3629 35.8931 55.6299C36.0267 55.7637 36.2017 55.8305 36.3769 55.8305C36.5515 55.8305 36.7263 55.764 36.8597 55.6309L47.1162 45.3937C48.3038 44.2084 48.3062 42.2772 47.1217 41.0888C45.9362 39.8996 44.0045 39.8966 42.8154 41.082L39.6823 44.2051V39.5236C40.667 39.9182 41.6933 40.2026 42.7458 40.3714C42.7825 40.3773 42.8188 40.3802 42.8548 40.3802C43.1846 40.3802 43.4748 40.1409 43.5287 39.8049C43.5885 39.4322 43.3349 39.0816 42.9621 39.0219C41.8272 38.8399 40.7261 38.5086 39.6823 38.0376V26.6869C39.6823 25.1025 38.3933 23.8137 36.8091 23.8137C36.7565 23.8137 36.7043 23.8153 36.6523 23.8181L25.9182 13.0843C25.3308 12.4969 25.3308 11.5411 25.9181 10.9538C26.2027 10.6692 26.5811 10.5125 26.9835 10.5125C27.3858 10.5125 27.7642 10.6692 28.0487 10.9537L40.2323 23.1372C40.4991 23.404 40.9318 23.404 41.1988 23.1372C41.4656 22.8702 41.4656 22.4376 41.1987 22.1708L30.9653 11.9372C30.6808 11.6527 30.5241 11.2744 30.5241 10.872C30.5241 10.4696 30.6808 10.0913 30.9653 9.80684C31.5528 9.21943 32.5083 9.21943 33.0958 9.80684L46.0106 22.7216C44.1704 23.6191 42.7182 25.1195 41.8793 27.0133C40.9374 29.1398 40.88 31.5056 41.7176 33.6752C41.8222 33.9464 42.081 34.1126 42.3552 34.1126C42.437 34.1126 42.5202 34.0978 42.6012 34.0666C42.9533 33.9306 43.1286 33.535 42.9926 33.1829C42.2865 31.3539 42.335 29.3594 43.129 27.5668C43.923 25.7742 45.3571 24.3704 47.1966 23.6921C47.8294 23.4588 47.8136 23.025 47.8138 22.8758L47.8235 16.8058C47.8242 16.3575 47.9993 15.9364 48.3168 15.62C48.6337 15.3041 49.0543 15.1303 49.5016 15.1303C49.5025 15.1303 49.5034 15.1303 49.5042 15.1303C50.429 15.1318 51.1806 15.8853 51.1798 16.8101L51.1661 31.3013C51.1658 31.6788 51.4715 31.985 51.8489 31.9854C51.8491 31.9854 51.8493 31.9854 51.8495 31.9854C52.2267 31.9854 52.5326 31.6798 52.5329 31.3026L52.5466 16.8114C52.5481 15.1335 51.1843 13.7663 49.5063 13.7635ZM28.0496 24.4707C27.1914 24.4707 26.4205 24.8493 25.8936 25.4477L25.2745 24.8287C24.9901 24.5442 24.8335 24.1659 24.8335 23.7634C24.8335 23.3609 24.9901 22.9826 25.2742 22.6984C25.8623 22.1113 26.8183 22.1111 27.4053 22.6981C27.407 22.6998 27.4091 22.7009 27.4107 22.7025L29.5561 24.8479V24.8987C29.1177 24.6275 28.6016 24.4707 28.0496 24.4707ZM29.6933 23.0522L25.2365 18.5953C24.9519 18.3108 24.7952 17.9324 24.7952 17.53C24.7952 17.1277 24.9519 16.7493 25.2365 16.4648C25.5209 16.1803 25.8993 16.0236 26.3017 16.0236C26.6968 16.0236 27.0691 16.1749 27.3505 16.4495L31.9904 21.0894C30.9069 21.2561 30.0216 22.0305 29.6933 23.0522Z" fill="#E05704"/>
<path d="M18.7179 24.1517C19.0409 24.1517 19.3281 23.9216 19.3891 23.5927C19.4578 23.2215 19.2127 22.865 18.8415 22.7962L12.933 21.702C12.5622 21.6331 12.2053 21.8783 12.1365 22.2496C12.0679 22.6208 12.3129 22.9773 12.6841 23.046L18.5927 24.1402C18.6347 24.1479 18.6766 24.1517 18.7179 24.1517Z" fill="#E05704"/>
<path d="M21.436 20.2745C21.747 20.0606 21.8257 19.6351 21.612 19.3241L18.2076 14.3724C17.9936 14.0614 17.5682 13.9828 17.2572 14.1964C16.9462 14.4102 16.8675 14.8357 17.0812 15.1467L20.4856 20.0985C20.6182 20.2912 20.8319 20.3948 21.0494 20.3948C21.1829 20.3948 21.3177 20.3557 21.436 20.2745Z" fill="#E05704"/>
<path d="M19.3339 27.2126L14.3822 30.6169C14.0712 30.8308 13.9925 31.2563 14.2062 31.5673C14.3388 31.76 14.5525 31.8636 14.77 31.8636C14.9035 31.8636 15.0383 31.8246 15.1566 31.7433L20.1083 28.3389C20.4193 28.1251 20.498 27.6996 20.2843 27.3886C20.0703 27.0776 19.6449 26.9988 19.3339 27.2126Z" fill="#E05704"/>
</svg>
