<svg width="24" height="24" viewBox="0 0 41 41" fill="none" xmlns="http://www.w3.org/2000/svg">
  <g clip-path="url(#clip0_677_74659)">
    <path d="M9.09651 0.0117188C7.96645 0.0117188 6.90505 0.452393 6.10701 1.25226C5.30928 2.05243 4.87196 3.11536 4.87502 4.24512L4.96657 36.4995C4.96809 38.4367 6.54463 40.0117 8.48189 40.0117H36.1381V0.0117188H9.09651ZM30.7246 13.0647C28.1056 13.0647 25.9749 15.1954 25.9749 17.8145C25.9749 20.4332 28.1056 22.5639 30.7246 22.5639H33.7947V25.818H30.2135V29.2173H26.6203V32.9805H19.0684V29.2173H15.4753V25.818H11.9304V9.64459H15.7097V6.05145H19.109V2.35516H26.5797V6.05145H29.9791V9.6449H33.7947V13.0647H30.7246ZM33.7947 15.4081V20.2205H30.7246C29.3977 20.2205 28.3183 19.1411 28.3183 17.8145C28.3183 16.4875 29.3977 15.4081 30.7246 15.4081H33.7947ZM11.9304 2.35516H16.7653V3.70801H13.3662V7.30115H11.9304V2.35516ZM11.9304 28.1617H13.1319V31.5608H16.725V32.9805H11.9304V28.1617ZM33.7947 7.30115H32.3225V3.70801H28.9232V2.35516H33.7947V7.30115ZM7.21846 4.2384C7.21693 3.73578 7.41164 3.26306 7.76656 2.90723C8.12148 2.55139 8.59389 2.35516 9.09651 2.35516H9.58693V32.9805H8.48189C8.06776 32.9805 7.66982 33.0525 7.30055 33.1846L7.21846 4.2384ZM33.7947 37.6683H8.48189C7.83583 37.6683 7.31001 37.1425 7.31001 36.4961C7.31001 35.85 7.83583 35.3242 8.48189 35.3242H33.7947V37.6683ZM28.9638 32.9808V31.5608H32.5569V28.1617H33.7947V32.9808H28.9638Z" fill="#E05704" />
    <path d="M29.9776 17.7985C30.0059 18.4336 30.4924 18.9704 31.1494 18.9704C31.7622 18.9704 32.3494 18.4315 32.321 17.7985C32.2926 17.1638 31.8062 16.627 31.1494 16.627C30.5363 16.627 29.9492 17.1659 29.9776 17.7985Z" fill="#E05704" />
  </g>
</svg>