<svg width="25" height="24" viewBox="0 0 25 24" fill="none" xmlns="http://www.w3.org/2000/svg">
  <path d="M12.332 0C5.69973 0 0.332031 5.367 0.332031 12C0.332031 18.6324 5.69903 24 12.332 24C18.9643 24 24.332 18.633 24.332 12C24.332 5.36761 18.965 0 12.332 0ZM12.3041 14.5116C11.9239 14.5116 11.5633 14.427 11.2391 14.2766L9.24039 16.2754C8.91348 16.6024 8.38338 16.6024 8.05642 16.2754C7.72947 15.9485 7.72947 15.4184 8.05642 15.0915L10.0359 13.112C9.86275 12.7689 9.76464 12.3818 9.76464 11.9721C9.76464 10.8547 10.4903 9.90427 11.4949 9.56555V5.24648C11.4949 4.78411 11.8698 4.4093 12.3321 4.4093C12.7945 4.4093 13.1693 4.78416 13.1693 5.24648V9.58444C14.1449 9.93905 14.8437 10.8754 14.8437 11.9721C14.8436 13.3724 13.7044 14.5116 12.3041 14.5116Z" fill="#656D75" />
</svg>