<svg width="25" height="24" viewBox="0 0 25 24" fill="none" xmlns="http://www.w3.org/2000/svg">
<path fill-rule="evenodd" clip-rule="evenodd" d="M23.2272 11.8275C23.5084 12.1491 23.6641 12.5668 23.6641 13C23.6641 13.4332 23.5084 13.8509 23.2272 14.1725C21.4469 16.15 17.3946 20 12.6641 20C7.93353 20 3.88121 16.15 2.1009 14.1725C1.81971 13.8509 1.66406 13.4332 1.66406 13C1.66406 12.5668 1.81971 12.1491 2.1009 11.8275C3.88121 9.85 7.93353 6 12.6641 6C17.3946 6 21.4469 9.85 23.2272 11.8275ZM12.6641 17C14.8732 17 16.6641 15.2091 16.6641 13C16.6641 10.7909 14.8732 9 12.6641 9C10.4549 9 8.66406 10.7909 8.66406 13C8.66406 15.2091 10.4549 17 12.6641 17ZM14.6641 13C14.6641 14.1046 13.7686 15 12.6641 15C11.5595 15 10.6641 14.1046 10.6641 13C10.6641 11.8954 11.5595 11 12.6641 11C13.7686 11 14.6641 11.8954 14.6641 13Z" fill="#656D75"/>
</svg>
