<svg width="40" height="41" viewBox="0 0 40 41" fill="none" xmlns="http://www.w3.org/2000/svg">
<g clip-path="url(#clip0_4656_6300)">
<mask id="mask0_4656_6300" style="mask-type:luminance" maskUnits="userSpaceOnUse" x="0" y="0" width="40" height="41">
<path d="M30.303 0.644531H9.69697C4.34148 0.644531 0 4.98601 0 10.3415V30.9476C0 36.3031 4.34148 40.6445 9.69697 40.6445H30.303C35.6585 40.6445 40 36.3031 40 30.9476V10.3415C40 4.98601 35.6585 0.644531 30.303 0.644531Z" fill="white"/>
</mask>
<g mask="url(#mask0_4656_6300)">
<path d="M24.708 19.7313H12.8906V15.055H24.708C25.3983 15.055 25.8783 15.1754 26.1192 15.3855C26.36 15.5956 26.5092 15.9853 26.5092 16.5546V18.2337C26.5092 18.8334 26.36 19.2231 26.1192 19.4333C25.8783 19.6433 25.3983 19.7332 24.708 19.7332V19.7313ZM25.5188 10.6463H7.87891V30.6445H12.8906V24.1383H22.1267L26.5092 30.6445H32.1213L27.2894 24.1078C29.0708 23.8438 29.8707 23.2978 30.5304 22.3981C31.1901 21.4984 31.521 20.06 31.521 18.1403V16.6408C31.521 15.5022 31.4004 14.6025 31.1901 13.9129C30.9798 13.2233 30.6204 12.6235 30.1098 12.0848C29.5705 11.5748 28.9701 11.2156 28.2493 10.975C27.5285 10.7649 26.6279 10.6445 25.5188 10.6445V10.6463Z" fill="#DE4700"/>
<path d="M60 0.644539C60 11.6902 51.0458 20.6446 40 20.6446C37.7542 20.6446 35.5952 20.2744 33.58 19.5918C33.623 19.1166 33.6421 18.6306 33.6421 18.1403V16.6408C33.6421 15.3676 33.5091 14.2453 33.2191 13.2941C32.9061 12.2684 32.3697 11.3857 31.6494 10.6257L31.6094 10.5836L31.5673 10.5436C30.8 9.81789 29.9301 9.29983 28.9209 8.96289L28.8821 8.94995L28.8428 8.9385C27.8821 8.65847 26.773 8.52332 25.5186 8.52332H23.3974V8.5251H21.6125C20.5747 6.10686 20 3.44281 20 0.644539C20 -10.4012 28.9543 -19.3555 40 -19.3555C51.0458 -19.3555 60 -10.4012 60 0.644539Z" fill="#DE4700"/>
</g>
<path d="M30.3027 0.947754H9.69667C4.50854 0.947754 0.302734 5.15356 0.302734 10.3417V30.9478C0.302734 36.1359 4.50854 40.3417 9.69667 40.3417H30.3027C35.4909 40.3417 39.6967 36.1359 39.6967 30.9478V10.3417C39.6967 5.15356 35.4909 0.947754 30.3027 0.947754Z" stroke="#DE4700" stroke-width="2"/>
</g>
<defs>
<clipPath id="clip0_4656_6300">
<rect width="40" height="40" fill="white" transform="translate(0 0.644531)"/>
</clipPath>
</defs>
</svg>
