<svg width="24" height="24" viewBox="0 0 24 24" fill="none"
    xmlns="http://www.w3.org/2000/svg">
    <g clip-path="url(#clip0_1249_46937)">
        <path d="M12 24C18.6274 24 24 18.6274 24 12C24 5.37258 18.6274 0 12 0C5.37258 0 0 5.37258 0 12C0 18.6274 5.37258 24 12 24Z" fill="#656D75"/>
        <path fill-rule="evenodd" clip-rule="evenodd" d="M4.98762 11.9478C8.67754 10.4608 11.1381 9.48055 12.3692 9.00692C15.8843 7.65461 16.6147 7.4197 17.0908 7.41195C17.1955 7.41024 17.4296 7.43424 17.5813 7.54806C17.7093 7.64417 17.7446 7.77399 17.7614 7.86511C17.7783 7.95623 17.7993 8.1638 17.7826 8.32599C17.5921 10.1772 16.7679 14.6696 16.3486 16.7429C16.1711 17.6203 15.8192 17.808 15.481 17.8368C14.7459 17.8994 14.1903 17.4939 13.4784 17.0623C12.3644 16.3868 11.6906 16.0751 10.6093 15.416C9.35957 14.6543 10.4592 14.2982 11.1714 13.614C11.3578 13.4349 14.5423 10.5718 14.5286 10.4857C14.5236 10.4544 14.4291 10.1457 14.3551 10.0849C14.2811 10.024 14.1719 10.0448 14.093 10.0614C13.9813 10.0849 12.2016 11.1728 8.75402 13.3254C8.24886 13.6462 7.79131 13.8025 7.38136 13.7943C6.92942 13.7853 6.06007 13.558 5.4138 13.3637C4.62112 13.1254 4.32852 13.0131 4.38338 12.6084C4.41195 12.3975 4.61336 12.1774 4.98762 11.9478Z" fill="white"/>
    </g>
    <defs>
        <clipPath id="clip0_1249_46937">
            <rect width="24" height="24" fill="white"/>
        </clipPath>
    </defs>
</svg>
