<svg width="40" height="41" viewBox="0 0 40 41" fill="none" xmlns="http://www.w3.org/2000/svg">
<path d="M20.8333 40.1445H19.1667C14.6359 40.1445 11.2838 40.1435 8.71223 39.799C6.15458 39.4563 4.44479 38.7822 3.15355 37.491C1.86225 36.1997 1.18819 34.4898 0.845558 31.9364C0.501056 29.369 0.5 26.0253 0.5 21.5112V19.8112C0.5 15.2805 0.501042 11.9282 0.843541 9.35637C1.18418 6.79852 1.85432 5.08861 3.13742 3.79755C4.42875 2.50651 6.13442 1.83266 8.69139 1.4901C11.263 1.14559 14.6192 1.14453 19.1667 1.14453H20.8333C25.3724 1.14453 28.7287 1.14558 31.3024 1.49011C33.8619 1.83274 35.5716 2.50676 36.8628 3.79774C38.1458 5.08884 38.8159 6.79878 39.1565 9.35231C39.499 11.9199 39.5 15.2639 39.5 19.7779V21.4779C39.5 26.0085 39.499 29.3609 39.1565 31.9327C38.8158 34.4905 38.1457 36.2003 36.8627 37.4914C35.5714 38.7825 33.8657 39.4564 31.3086 39.799C28.737 40.1435 25.3808 40.1445 20.8333 40.1445Z" stroke="#E05704"/>
<path fill-rule="evenodd" clip-rule="evenodd" d="M28.3033 29.3331L28.3041 29.3311L28.3241 29.2812L31.7644 11.9362V11.8799C31.7644 11.4477 31.6047 11.0704 31.2572 10.8441C30.9531 10.6461 30.6035 10.632 30.3583 10.6506C30.0989 10.6702 29.8545 10.735 29.6853 10.7888C29.5982 10.8166 29.5253 10.8433 29.4731 10.8635C29.447 10.8736 29.4257 10.8822 29.4104 10.8886L29.3952 10.895L10.2138 18.4196L10.2085 18.4214C10.1982 18.4252 10.1845 18.4304 10.1679 18.4368C10.1349 18.4496 10.09 18.468 10.0373 18.492C9.93372 18.5389 9.79061 18.6113 9.64549 18.7106C9.399 18.8795 8.92965 19.2791 9.0089 19.9126C9.07455 20.4373 9.43628 20.7706 9.68014 20.9431C9.81086 21.0357 9.93593 21.1024 10.0275 21.146C10.0739 21.1681 10.1133 21.185 10.1427 21.1969C10.1574 21.2029 10.1697 21.2077 10.1792 21.2113L10.1914 21.2158L10.1992 21.2188L13.5551 22.3486C13.5438 22.5591 13.5647 22.7738 13.6205 22.9856L15.3015 29.3624C15.5008 30.1184 16.1848 30.6451 16.9668 30.6445C17.6676 30.6441 18.2892 30.2201 18.5533 29.5875L21.1778 26.7812L25.6852 30.2369L25.7493 30.2649C26.1588 30.4437 26.5415 30.5002 26.8913 30.4525C27.2406 30.4048 27.5181 30.2583 27.7267 30.0915C27.9319 29.9273 28.0725 29.742 28.1609 29.6025C28.2059 29.5316 28.2394 29.4693 28.2626 29.4224C28.2743 29.3989 28.2835 29.379 28.2903 29.3634L28.2991 29.3435L28.3022 29.3361L28.3033 29.3331ZM15.2844 22.5469C15.2462 22.4021 15.3062 22.249 15.4328 22.1687L26.8156 14.9401C26.8156 14.9401 27.4851 14.5337 27.4611 14.9401C27.4611 14.9401 27.5807 15.0119 27.2218 15.3466C26.8815 15.6644 19.1091 23.1685 18.3226 23.9279C18.2772 23.9717 18.2501 24.0219 18.2341 24.083L16.9655 28.9237L15.2844 22.5469Z" fill="#E05704"/>
</svg>
