<svg width="40" height="41" viewBox="0 0 40 41" fill="none" xmlns="http://www.w3.org/2000/svg">
<path d="M20.8333 40.1445H19.1667C14.6359 40.1445 11.2838 40.1435 8.71223 39.799C6.15458 39.4563 4.44479 38.7822 3.15355 37.491C1.86225 36.1997 1.18819 34.4898 0.845558 31.9364C0.501056 29.369 0.5 26.0253 0.5 21.5112V19.8112C0.5 15.2805 0.501042 11.9282 0.843541 9.35637C1.18418 6.79852 1.85432 5.08861 3.13742 3.79755C4.42875 2.50651 6.13442 1.83266 8.69139 1.4901C11.263 1.14559 14.6192 1.14453 19.1667 1.14453H20.8333C25.3724 1.14453 28.7287 1.14558 31.3024 1.49011C33.8619 1.83274 35.5716 2.50676 36.8628 3.79774C38.1458 5.08884 38.8159 6.79878 39.1565 9.35231C39.499 11.9199 39.5 15.2639 39.5 19.7779V21.4779C39.5 26.0085 39.499 29.3609 39.1565 31.9327C38.8158 34.4905 38.1457 36.2003 36.8627 37.4914C35.5714 38.7825 33.8657 39.4564 31.3086 39.799C28.737 40.1435 25.3808 40.1445 20.8333 40.1445Z" stroke="#E05704"/>
<path d="M21.1612 29.6445C12.278 29.6445 7.21112 23.2631 7 12.6445H11.4497C11.5959 20.4383 14.8763 23.7396 17.4747 24.4203V12.6445H21.6646V19.3663C24.2305 19.077 26.9263 16.0139 27.8357 12.6445H32.0256C31.6829 14.392 30.9998 16.0465 30.019 17.5047C29.0382 18.9629 27.7808 20.1933 26.3254 21.119C27.9499 21.9648 29.3848 23.1621 30.5353 24.6317C31.6859 26.1012 32.5259 27.8098 33 29.6445H28.3879C27.9623 28.0509 27.0973 26.6244 25.9013 25.5437C24.7053 24.463 23.2315 23.7762 21.6646 23.5695V29.6445H21.1612Z" fill="#E05704"/>
</svg>
