<svg width="25" height="24" viewBox="0 0 25 24" fill="none"
    xmlns="http://www.w3.org/2000/svg">
    <path d="M12 24H13C18.44 24 21.15 24 22.83 22.32C24.5 20.64 24.5 17.92 24.5 12.5V11.48C24.5 6.08 24.5 3.36 22.83 1.68C21.15 0 18.43 0 13 0H12C6.56 0 3.85 0 2.17 1.68C0.5 3.36 0.5 6.08 0.5 11.5V12.52C0.5 17.92 0.5 20.64 2.18 22.32C3.86 24 6.58 24 12 24Z" fill="#656D75"/>
    <path d="M13.2708 17.29C7.80078 17.29 4.68078 13.54 4.55078 7.30005H7.29078C7.38078 11.88 9.40078 13.82 11.0008 14.22V7.30005H13.5808V11.25C15.1608 11.08 16.8208 9.28005 17.3808 7.30005H19.9608C19.7498 8.32693 19.3291 9.29923 18.7252 10.1561C18.1212 11.013 17.3469 11.7361 16.4508 12.28C17.4511 12.7771 18.3347 13.4806 19.0431 14.3442C19.7516 15.2078 20.2688 16.2119 20.5608 17.29H17.7208C17.4587 16.3536 16.9261 15.5153 16.1896 14.8802C15.4531 14.2451 14.5456 13.8416 13.5808 13.72V17.29H13.2708Z" fill="white"/>
</svg>
