<svg width="60" height="42" viewBox="0 0 60 42" fill="none" xmlns="http://www.w3.org/2000/svg">
<path d="M52.521 1.27496L52.5223 1.27521C54.2745 1.60308 55.911 2.5923 56.8621 3.83501C57.689 5.15012 58.3656 7.69052 58.8255 10.9198C59.2836 14.1369 59.5166 17.9575 59.4991 21.7466C59.4816 25.5367 59.2136 29.2795 58.6758 32.3432C58.4068 33.8753 58.0722 35.2264 57.6729 36.3238C57.271 37.4285 56.8182 38.2343 56.3357 38.7177C55.286 39.7428 53.9582 40.4428 52.4564 40.7094C43.723 41.3662 33.5394 41.5646 24.9705 41.4817C20.6825 41.4403 16.8025 41.3284 13.7142 41.1687C10.6126 41.0083 8.34317 40.801 7.25435 40.5758L7.25194 40.5753C5.72003 40.2663 4.40763 39.5817 3.45924 38.6073L3.45927 38.6073L3.45471 38.6027C2.74007 37.8873 2.13784 36.7601 1.65961 35.1135L1.65849 35.1097C1.38432 34.1927 1.07362 32.0078 0.842888 29.1288C0.613624 26.2683 0.466708 22.7696 0.50649 19.2536C0.546303 15.7347 0.772994 12.214 1.28606 9.30331C1.54262 7.84786 1.86859 6.55788 2.2724 5.5025C2.67852 4.44108 3.14921 3.65484 3.6734 3.16799C4.75414 2.17358 6.00502 1.53848 7.40958 1.27518L7.41104 1.2749C8.73863 1.02194 11.8703 0.825916 15.9563 0.694894C20.0241 0.564453 24.9935 0.499327 29.9647 0.499512C34.936 0.499698 39.9055 0.565195 43.9737 0.695729C48.06 0.826842 51.1925 1.02268 52.521 1.27496Z" stroke="#E05704"/>
<path d="M24 11.9995V28.9995C29.9469 25.906 40 20.5402 40 20.5402C40 20.5402 29.9469 14.8393 24 11.9995Z" fill="#E05704"/>
</svg>
